<svg width="73" height="99" viewBox="0 0 73 99" fill="none" xmlns="http://www.w3.org/2000/svg">
<path d="M29.5921 43.0154L27.762 60.7602C25.6299 60.2514 24.138 60.2042 21.6616 60.4377C18.995 60.6907 14.0633 62.0445 12.36 61.95L11.8194 61.9083L10.095 61.558C10.095 61.558 6.82436 66.006 12.7013 66.1978C17.038 66.6121 22.4529 67.6462 26.856 68.091C35.5596 68.9667 36.8552 68.7638 38.03 66.0978C38.8847 64.1518 39.4585 62.4838 40.5185 57.7578C41.654 52.6954 41.8745 47.8915 41.9288 44.6417L29.5921 43.0154Z" fill="#B16668"/>
<path d="M41.7355 44.8308L29.5921 43.0154C29.5921 43.0154 27.6291 55.6144 27.161 61.3884C27.91 62.8896 31.087 65.4055 33.4245 65.9949C35.5929 66.5509 38.4679 66.1117 38.4679 66.1117C38.4679 66.1117 41.5966 59.3257 42.0738 55.1779C42.4388 51.7296 42.3252 48.2526 41.7355 44.8308V44.8308Z" fill="#00BFA5"/>
<path opacity="0.4" d="M41.7355 44.8308L29.5921 43.0154C29.5921 43.0154 27.6291 55.6144 27.161 61.3884C27.91 62.8896 31.087 65.4055 33.4245 65.9949C35.5929 66.5509 38.4679 66.1117 38.4679 66.1117C38.4679 66.1117 41.5966 59.3257 42.0738 55.1779C42.4388 51.7296 42.3252 48.2526 41.7355 44.8308V44.8308Z" fill="black"/>
<path d="M32.3313 64.8523C30.7427 64.0934 28.2301 61.9444 27.2728 60.1486C27.2275 60.5878 27.1912 61.0048 27.161 61.3884C27.91 62.8896 31.087 65.4055 33.4245 65.9949C35.5929 66.5509 38.4679 66.1117 38.4679 66.1117L38.8514 65.2526C37.7642 65.5918 34.3818 65.8337 32.3313 64.8523Z" fill="#37474F"/>
<path d="M7.68806 60.6434C7.22846 60.3048 6.66352 60.1101 6.07539 60.0874C5.49555 60.0679 4.04595 60.7157 3.62013 62.0334C3.19431 63.3511 3.37249 64.8134 3.16109 65.7669C2.94969 66.7205 1.93195 68.4191 1.36721 69.2753C0.802473 70.1315 0.527651 72.1776 1.49707 73.7455C2.11617 74.7519 3.33021 75.0049 4.10635 75.0354L7.68806 60.6434Z" fill="#37474F"/>
<path d="M11.9734 64.4242L11.7016 64.3908C11.1428 64.338 10.5803 64.3269 10.0195 64.3575C10.4866 64.1672 10.8926 63.8696 11.1988 63.4933C11.505 63.117 11.701 62.6746 11.7681 62.2085L11.8043 61.9083L12.3449 61.95C12.364 61.8559 12.3507 61.7588 12.3069 61.672C12.263 61.5853 12.1908 61.5133 12.1003 61.4663C11.9136 61.3742 11.7076 61.3202 11.4963 61.3078C10.6779 61.191 9.86548 61.0298 9.06519 60.8491C8.44005 60.7018 7.75149 60.4182 7.10521 60.3987C6.24753 60.3709 5.05161 61.0687 4.51103 62.203C4.04293 63.1871 4.07011 64.5771 3.96139 65.614C3.90099 66.1951 3.62919 66.6093 3.39665 67.1319C3.13089 67.7296 2.33663 68.9973 2.12523 69.6145C1.96481 70.1143 1.88643 70.6334 1.89269 71.1546C1.87218 71.726 1.96112 72.2963 2.15543 72.8393C2.47555 73.6733 3.27585 74.7853 4.19091 75.0633C5.21771 74.9993 6.35323 74.4656 6.64919 73.2563C6.83352 72.3951 7.07661 71.5456 7.37701 70.7126C7.74577 69.8841 8.21914 69.0984 8.78735 68.3718C8.85077 68.294 8.91117 68.2078 8.97761 68.1383L9.17995 67.927C9.67825 67.4294 10.3577 67.1625 10.9919 66.815C11.5627 66.5009 12.3479 66.6426 12.967 66.6538C13.0106 66.6679 13.0575 66.671 13.1028 66.6627C13.1481 66.6544 13.1902 66.635 13.2245 66.6066C13.2588 66.5781 13.2841 66.5416 13.2978 66.501C13.3115 66.4604 13.313 66.4171 13.3022 66.3758C13.2997 66.0476 13.254 65.7209 13.1663 65.4028C13.076 65.0807 12.8613 64.8001 12.5623 64.6132C12.381 64.5161 12.1811 64.4519 11.9734 64.4242Z" fill="#00BFA5"/>
<path opacity="0.4" d="M11.9734 64.4242L11.7016 64.3908C11.1428 64.338 10.5803 64.3269 10.0195 64.3575C10.4866 64.1672 10.8926 63.8696 11.1988 63.4933C11.505 63.117 11.701 62.6746 11.7681 62.2085L11.8043 61.9083L12.3449 61.95C12.364 61.8559 12.3507 61.7588 12.3069 61.672C12.263 61.5853 12.1908 61.5133 12.1003 61.4663C11.9136 61.3742 11.7076 61.3202 11.4963 61.3078C10.6779 61.191 9.86548 61.0298 9.06519 60.8491C8.44005 60.7018 7.75149 60.4182 7.10521 60.3987C6.24753 60.3709 5.05161 61.0687 4.51103 62.203C4.04293 63.1871 4.07011 64.5771 3.96139 65.614C3.90099 66.1951 3.62919 66.6093 3.39665 67.1319C3.13089 67.7296 2.33663 68.9973 2.12523 69.6145C1.96481 70.1143 1.88643 70.6334 1.89269 71.1546C1.87218 71.726 1.96112 72.2963 2.15543 72.8393C2.47555 73.6733 3.27585 74.7853 4.19091 75.0633C5.21771 74.9993 6.35323 74.4656 6.64919 73.2563C6.83352 72.3951 7.07661 71.5456 7.37701 70.7126C7.74577 69.8841 8.21914 69.0984 8.78735 68.3718C8.85077 68.294 8.91117 68.2078 8.97761 68.1383L9.17995 67.927C9.67825 67.4294 10.3577 67.1625 10.9919 66.815C11.5627 66.5009 12.3479 66.6426 12.967 66.6538C13.0106 66.6679 13.0575 66.671 13.1028 66.6627C13.1481 66.6544 13.1902 66.635 13.2245 66.6066C13.2588 66.5781 13.2841 66.5416 13.2978 66.501C13.3115 66.4604 13.313 66.4171 13.3022 66.3758C13.2997 66.0476 13.254 65.7209 13.1663 65.4028C13.076 65.0807 12.8613 64.8001 12.5623 64.6132C12.381 64.5161 12.1811 64.4519 11.9734 64.4242Z" fill="black"/>
<path d="M2.01651 72.3806C2.43025 73.3007 3.15504 72.9505 3.58086 73.1701C4.10836 73.5205 4.56608 73.9522 4.93383 74.4461C5.28717 74.8937 4.42344 75.2801 3.45402 74.9549C2.9201 74.7543 2.48171 74.3845 2.21807 73.9124C1.95444 73.4403 1.88294 72.897 2.01651 72.3806Z" fill="#37474F"/>
<path d="M7.0448 71.7523C6.78389 71.3555 6.43997 71.0104 6.03301 70.7369C5.62605 70.4635 5.16415 70.2671 4.67411 70.1593C4.62621 70.1463 4.5759 70.1425 4.52633 70.1482C4.47676 70.1539 4.42901 70.1689 4.38607 70.1924C4.34313 70.2159 4.30593 70.2473 4.2768 70.2847C4.24768 70.322 4.22725 70.3645 4.21682 70.4095C4.20638 70.4544 4.20615 70.5009 4.21615 70.546C4.22615 70.591 4.24616 70.6337 4.27492 70.6713C4.30368 70.7089 4.34058 70.7406 4.38328 70.7644C4.42599 70.7883 4.4736 70.8037 4.52311 70.8098C4.54123 70.8098 6.7579 71.3881 6.80018 72.6919C7.00554 72.4222 7.12936 72.3805 7.0448 71.7523Z" fill="white"/>
<path d="M5.34756 68.3162C5.30096 68.307 5.25287 68.3065 5.20602 68.3144C5.15917 68.3224 5.1145 68.3388 5.07454 68.3627C5.03457 68.3866 5.00011 68.4175 4.97312 68.4536C4.94613 68.4898 4.92713 68.5304 4.91721 68.5733C4.9073 68.6162 4.90666 68.6605 4.91533 68.7036C4.92401 68.7467 4.94182 68.7879 4.96776 68.8247C4.9937 68.8614 5.02726 68.8932 5.06652 68.918C5.10578 68.9429 5.14996 68.9604 5.19656 68.9695C5.21468 68.9695 7.16862 69.456 7.44042 70.5986C7.54388 70.5249 7.6257 70.4285 7.67844 70.3183C7.73118 70.2081 7.75318 70.0875 7.74242 69.9675C7.48559 69.5573 7.14087 69.1993 6.72919 68.9155C6.31751 68.6316 5.84746 68.4277 5.34756 68.3162V68.3162Z" fill="white"/>
<path d="M6.15694 66.6677C6.10904 66.6546 6.05873 66.6508 6.00917 66.6565C5.9596 66.6622 5.91185 66.6773 5.86891 66.7008C5.82597 66.7242 5.78877 66.7557 5.75964 66.793C5.73051 66.8304 5.71009 66.8729 5.69965 66.9178C5.68921 66.9628 5.68899 67.0093 5.69899 67.0543C5.70898 67.0994 5.72899 67.142 5.75775 67.1796C5.78652 67.2172 5.82341 67.2489 5.86611 67.2728C5.90882 67.2966 5.95643 67.3121 6.00594 67.3182C6.02406 67.3182 7.79982 67.6935 8.17732 69.2503C8.415 69.0603 8.58804 68.8113 8.67562 68.533C8.43346 68.0689 8.08159 67.6605 7.64579 67.3377C7.20999 67.015 6.70129 66.786 6.15694 66.6677V66.6677Z" fill="white"/>
<path d="M9.91682 67.396C9.50308 65.8948 8.02026 65.2026 7.21694 65.0413C7.16929 65.0287 7.11934 65.0253 7.07018 65.0312C7.02102 65.0371 6.9737 65.0522 6.93113 65.0756C6.88857 65.099 6.85168 65.1301 6.82273 65.1672C6.79378 65.2042 6.7734 65.2464 6.76284 65.2909C6.75229 65.3355 6.75178 65.3816 6.76136 65.4264C6.77093 65.4712 6.79038 65.5137 6.81851 65.5513C6.84663 65.5888 6.88284 65.6207 6.92488 65.6449C6.96692 65.6691 7.0139 65.6851 7.06292 65.6919C7.08406 65.6919 9.02894 66.1089 9.27658 67.8575C9.54552 67.7834 9.77417 67.6186 9.91682 67.396Z" fill="white"/>
<path d="M37.6495 20.0109C41.4909 20.5669 43.9915 21.6317 44.0428 25.8322C44.0821 28.7874 43.774 32.8406 43.7408 38.6063C47.3205 40.2743 50.9375 41.8728 54.5917 43.4018C55.0478 43.5988 55.5217 43.7588 56.0081 43.88C56.597 44.0218 57.1949 44.436 57.7023 44.714C58.8098 45.3638 59.8244 46.139 60.7223 47.0214C61.0381 47.3078 61.3004 47.6403 61.4984 48.0055C61.5963 48.1888 61.6532 48.3883 61.6656 48.5923C61.6781 48.7962 61.6459 49.0003 61.5709 49.1926C61.4092 49.5227 61.1195 49.7854 60.7585 49.9293C60.4 50.0722 60.0163 50.1542 59.626 50.1711C58.2151 50.2294 56.8076 50.0007 55.5037 49.5011C54.0662 48.998 52.7857 48.1918 51.3663 47.6858C50.1915 47.2688 49.2674 46.9825 47.6276 46.4876C45.8367 45.9483 44.0821 45.409 42.4936 44.9503C41.1255 44.5555 38.6551 43.7632 37.42 43.0793C35.2184 41.8589 35.7378 40.3188 36.1304 36.3934C36.6952 30.9307 37.5196 24.9176 37.6495 20.0109Z" fill="#B16668"/>
<path d="M45.9333 58.5973C42.9375 55.0862 40.594 52.4146 37.8428 48.9118C39.4826 47.1437 40.5124 45.4924 42.1523 43.6993C36.4415 42.8653 30.7488 42.2342 25.0289 41.2835C24.4249 44.7418 23.5763 44.1385 23.5823 48.6755C23.5823 51.8475 28.8311 56.9905 32.6604 60.1708C35.0976 62.1919 38.03 64.5465 41.1919 66.487C41.1428 68.5292 41.5043 70.5621 42.258 72.4834C43.0915 74.6685 44.4082 76.7174 45.6404 78.7273C46.8031 80.6205 48.002 82.497 49.1527 84.3985C49.6751 85.2575 50.1885 86.1221 50.6627 87.0006C50.9133 87.4565 51.1308 88.1126 51.4509 88.5018C52.0186 89.2107 52.9609 89.7194 53.9092 89.5971C54.1747 89.5584 54.4329 89.4854 54.6762 89.3803C55.5822 89.0133 56.4882 88.032 56.2255 87.1563C56.002 86.4084 55.6215 85.3937 55.3769 84.6543C53.7853 79.4473 51.8525 71.9246 50.7382 67.4405C49.4486 62.228 48.6574 61.786 45.9333 58.5973Z" fill="#B16668"/>
<path d="M35.9522 65.3221C37.3412 65.3019 38.7188 65.0882 40.0383 64.6883C40.594 64.5243 38.1568 61.3995 38.6823 61.166C39.2078 60.9325 41.8563 64.1907 43.2123 63.2399C45.6283 61.558 46.4105 60.4238 47.2863 58.8753C43.922 55.0556 40.9745 51.4082 39.537 49.7013C40.0564 48.9201 41.1557 47.683 41.7235 44.8335C36.0157 44.0468 25.2554 43.3518 20.8462 43.0071C21.0183 44.9531 20.9489 47.747 21.5559 49.6513C22.323 52.056 22.9753 52.7816 25.8141 55.9146C27.9553 58.2637 32.9473 62.6839 35.9522 65.3221Z" fill="#00BFA5"/>
<path opacity="0.2" d="M35.9522 65.3221C37.3412 65.3019 38.7188 65.0882 40.0383 64.6883C40.594 64.5243 38.1568 61.3995 38.6823 61.166C39.2078 60.9325 41.8563 64.1907 43.2123 63.2399C45.6283 61.558 46.4105 60.4238 47.2863 58.8753C43.922 55.0556 40.9745 51.4082 39.537 49.7013C40.0564 48.9201 41.1557 47.683 41.7235 44.8335C36.0157 44.0468 25.2554 43.3518 20.8462 43.0071C21.0183 44.9531 20.9489 47.747 21.5559 49.6513C22.323 52.056 22.9753 52.7816 25.8141 55.9146C27.9553 58.2637 32.9473 62.6839 35.9522 65.3221Z" fill="black"/>
<path d="M46.8363 58.3499C46.175 59.8066 44.1878 61.8582 43.3784 62.4254C42.4724 63.0564 41.8684 62.4615 40.7601 61.6859C39.6518 60.9103 38.6461 60.0485 38.0753 60.4099C37.5045 60.7713 37.9847 61.6386 38.4105 62.5115C38.8364 63.3845 39.5732 64.1795 38.3834 64.3936C37.3394 64.5469 36.2867 64.6444 35.2305 64.6855C35.4781 64.9079 35.7227 65.122 35.9522 65.3221C37.3412 65.3018 38.7188 65.0881 40.0383 64.6883C40.594 64.5243 38.1569 61.3995 38.6823 61.166C39.2078 60.9325 41.8564 64.1907 43.2123 63.2399C45.6283 61.558 46.4105 60.4238 47.2863 58.8753C47.1413 58.7002 46.9904 58.525 46.8363 58.3499Z" fill="#455A64"/>
<path d="M50.9375 92.4827C50.866 92.9826 50.8937 93.4903 51.019 93.9812C51.3935 94.4649 51.8284 94.64 52.7253 94.9875C53.6223 95.335 54.7095 95.3378 55.9386 96.4526C56.9818 97.3573 58.2565 98.0046 59.6442 98.3346C61.1179 98.6599 63.6819 98.6126 65.1194 98.1512C66.5569 97.6897 67.016 97.2727 67.0492 96.0189C61.9182 94.198 51.8314 87.5093 50.9375 92.4827Z" fill="#37474F"/>
<path d="M66.871 94.9903C65.9861 93.2556 63.5732 92.7663 61.8367 91.8545C61.0452 91.4363 60.2936 90.9574 59.5898 90.4227C59.4931 90.3505 59.3965 90.2782 59.3059 90.2031L59.2576 90.1642C57.2885 88.5157 56.5396 86.2555 56.2376 85.5772C55.9356 84.8989 54.6883 85.947 53.6434 86.4779C53.3008 86.6594 53.0312 86.9381 52.8749 87.2723C52.7187 87.6066 52.6842 87.9784 52.7767 88.3322C52.7307 88.1505 52.637 87.982 52.5038 87.8414C52.3706 87.7009 52.2019 87.5926 52.0126 87.526C51.6474 87.4079 51.2604 87.3578 50.8741 87.3787L50.5721 86.806C49.8805 87.412 50.6445 88.3294 50.8741 89.422C51.1036 90.5145 50.5539 92.0268 51.1247 92.8386C51.1582 92.9068 51.1987 92.972 51.2455 93.0332C52.0005 93.9728 53.0575 93.9867 54.4467 94.5511C55.6155 95.0181 56.6392 95.9411 57.7687 96.6527C59.3935 97.6591 61.6645 97.7842 63.401 97.5646C65.1375 97.345 67.7528 96.725 66.871 94.9903Z" fill="#00BFA5"/>
<path opacity="0.4" d="M66.871 94.9903C65.9861 93.2556 63.5732 92.7663 61.8367 91.8545C61.0452 91.4363 60.2936 90.9574 59.5898 90.4227C59.4931 90.3505 59.3965 90.2782 59.3059 90.2031L59.2576 90.1642C57.2885 88.5157 56.5396 86.2555 56.2376 85.5772C55.9356 84.8989 54.6883 85.947 53.6434 86.4779C53.3008 86.6594 53.0312 86.9381 52.8749 87.2723C52.7187 87.6066 52.6842 87.9784 52.7767 88.3322C52.7307 88.1505 52.637 87.982 52.5038 87.8414C52.3706 87.7009 52.2019 87.5926 52.0126 87.526C51.6474 87.4079 51.2604 87.3578 50.8741 87.3787L50.5721 86.806C49.8805 87.412 50.6445 88.3294 50.8741 89.422C51.1036 90.5145 50.5539 92.0268 51.1247 92.8386C51.1582 92.9068 51.1987 92.972 51.2455 93.0332C52.0005 93.9728 53.0575 93.9867 54.4467 94.5511C55.6155 95.0181 56.6392 95.9411 57.7687 96.6527C59.3935 97.6591 61.6645 97.7842 63.401 97.5646C65.1375 97.345 67.7528 96.725 66.871 94.9903Z" fill="black"/>
<path d="M61.9695 97.6563C63.398 97.5646 63.0084 96.7778 64.3191 96.1551C65.6298 95.5324 66.8559 95.0765 67.0371 95.5991C67.2183 96.1218 67.1519 97.0947 64.8687 97.6174C62.5403 98.1539 61.7098 97.8009 61.9695 97.6563Z" fill="#37474F"/>
<path d="M60.1062 95.1376C60.0715 95.1371 60.037 95.1324 60.0035 95.1237C59.9124 95.0992 59.8355 95.0424 59.7896 94.9659C59.7438 94.8893 59.7327 94.7991 59.7589 94.7151C59.774 94.665 60.1515 93.4919 61.9514 92.719C62.2894 92.5721 62.6453 92.4629 63.0114 92.3938C63.7242 92.2631 64.5214 92.7635 64.6302 93.0943C64.6011 93.0916 64.5726 93.0851 64.5456 93.0749C64.5094 93.061 63.555 92.7635 62.2595 93.3223C60.7766 93.9589 60.4656 94.8624 60.4475 94.8985C60.4248 94.9662 60.3797 95.0256 60.3185 95.0685C60.2573 95.1114 60.1831 95.1356 60.1062 95.1376V95.1376Z" fill="white"/>
<path d="M57.8835 94.0006C57.8504 94.0047 57.8169 94.0047 57.7838 94.0006C57.7381 93.9888 57.6953 93.9687 57.6581 93.9415C57.6208 93.9144 57.5898 93.8807 57.5667 93.8425C57.5437 93.8042 57.5291 93.7621 57.5239 93.7186C57.5187 93.6752 57.5228 93.6312 57.5362 93.5892C57.5362 93.5419 57.9107 92.4382 59.7076 91.6654C60.0741 91.5038 60.4604 91.3834 60.8582 91.3068C61.3142 91.2012 62.1719 91.8294 61.9544 91.9267C61.7249 91.885 61.0484 91.8267 60.0156 92.2687C58.5358 92.9053 58.2338 93.7615 58.2308 93.7699C58.2075 93.8375 58.1611 93.8965 58.0986 93.9381C58.036 93.9796 57.9606 94.0016 57.8835 94.0006V94.0006Z" fill="white"/>
<path d="M55.9899 92.6162C55.9582 92.6154 55.9267 92.6107 55.8963 92.6023C55.8534 92.5911 55.8133 92.5722 55.7784 92.5467C55.7435 92.5212 55.7143 92.4895 55.6927 92.4536C55.6711 92.4177 55.6574 92.3782 55.6525 92.3374C55.6475 92.2966 55.6513 92.2553 55.6638 92.2159C55.6638 92.1714 56.0171 91.1317 57.7114 90.4033C58.1454 90.2091 58.6102 90.0796 59.0885 90.0197C59.1902 90.0048 59.2943 90.0104 59.3934 90.0361C59.4926 90.0618 59.5845 90.107 59.6629 90.1686C59.7413 90.2302 59.8042 90.3066 59.8474 90.3928C59.8905 90.4789 59.9129 90.5726 59.9129 90.6674C59.9129 90.6674 59.3089 90.3588 58.0013 90.9704C56.6302 91.6126 56.3221 92.3799 56.3191 92.3882C56.2987 92.454 56.2555 92.5119 56.1961 92.5531C56.1367 92.5942 56.0643 92.6164 55.9899 92.6162V92.6162Z" fill="white"/>
<path d="M54.2685 91.1483C54.2146 91.1492 54.1614 91.1367 54.1145 91.1122C54.0341 91.0742 53.9733 91.0083 53.9456 90.9291C53.9178 90.8499 53.9254 90.7638 53.9665 90.6896C53.9816 90.6674 55.1746 88.5796 57.7959 88.5768C57.9952 88.5768 58.3425 88.941 58.3304 89.2385C57.587 89.1497 56.8317 89.2681 56.1621 89.5783C55.4925 89.8885 54.9392 90.3763 54.5736 90.9788C54.5446 91.0302 54.5008 91.0732 54.447 91.1031C54.3932 91.133 54.3314 91.1487 54.2685 91.1483V91.1483Z" fill="white"/>
<path d="M30.4347 19.1741C30.4347 19.1741 27.9281 18.5403 25.7597 19.1269C24.5185 19.4633 24.5517 20.9422 23.6699 22.4629C23.1776 23.3219 21.8579 25.4542 20.9851 30.8891C20.2241 35.7096 20.3811 40.8415 20.9459 46.521C27.9341 50.7438 40.0715 47.8776 41.7355 44.8335C41.2735 43.4602 40.9926 41.0083 41.0651 36.8271C41.1708 30.5749 43.9492 20.7893 37.5377 19.9998L30.4347 19.1741Z" fill="#00BFA5"/>
<path d="M27.3966 18.8878C26.8426 18.9076 26.2931 18.9878 25.7597 19.1269C24.5185 19.4633 24.5517 20.9422 23.6699 22.4629C23.2622 23.1718 22.2807 24.7536 21.4683 28.3509C21.6569 28.439 21.8618 28.4937 22.0723 28.5122C26.2792 28.9069 27.9976 25.026 28.3207 23.1134C28.6438 21.2008 28.2935 19.2381 27.3966 18.8878Z" fill="#37474F"/>
<path d="M23.4193 27.7115L22.5887 28.0479C22.5887 28.0479 20.8855 38.181 22.5042 47.3077C22.8062 47.4412 23.1414 47.5635 23.4676 47.6775C21.6284 38.3756 23.4193 27.7115 23.4193 27.7115Z" fill="#37474F"/>
<path d="M25.189 27.642L24.3585 27.9784C24.3585 27.9784 22.5616 38.6536 24.4098 47.9583C24.7118 48.0444 25.038 48.1223 25.3581 48.1918C23.3196 38.762 25.189 27.642 25.189 27.642Z" fill="#37474F"/>
<path d="M30.5887 19.505C30.0149 19.5411 29.9606 19.783 30.5887 20.9589C31.2169 22.1348 33.2343 24.7619 35.8526 24.4005C38.0934 24.0947 37.7763 22.2794 37.3626 21.1674C37.2629 20.9061 37.0878 20.1193 36.3871 20.0081L33.5181 19.7969L30.5887 19.505Z" fill="#37474F"/>
<path d="M29.9757 34.3974C29.9578 34.376 29.946 34.3508 29.9412 34.3241C29.9365 34.2974 29.939 34.2701 29.9485 34.2445C29.9641 34.1849 30.0028 34.1325 30.0572 34.0972L32.0293 32.6599L32.2075 32.5376C32.2757 32.4919 32.356 32.4641 32.44 32.457L33.5 32.368C33.5283 32.3649 33.5571 32.3675 33.5842 32.3757C33.6113 32.3839 33.6362 32.3974 33.6571 32.4153C33.6778 32.4338 33.6935 32.4565 33.7029 32.4816C33.7124 32.5067 33.7153 32.5335 33.7114 32.5598L33.2312 37.5972C33.2251 37.6556 33.1961 37.7099 33.1497 37.7501C33.1054 37.794 33.0453 37.8217 32.9806 37.8279L31.8511 37.9169C31.8225 37.9202 31.7934 37.9175 31.7662 37.9088C31.739 37.9001 31.7143 37.8858 31.694 37.8668C31.6732 37.8491 31.6573 37.8269 31.6478 37.8021C31.6383 37.7774 31.6356 37.751 31.6397 37.7251L31.9568 34.314L30.8635 35.098C30.8156 35.1377 30.7528 35.1586 30.6884 35.1563C30.6595 35.1562 30.6311 35.1499 30.6054 35.1378C30.5797 35.1258 30.5574 35.1083 30.5404 35.0868L29.9757 34.3974Z" fill="#37474F"/>
<path d="M37.2569 31.9927C37.6237 31.9528 37.9955 31.9811 38.3501 32.0761C38.6242 32.1504 38.8735 32.2871 39.0749 32.4737C39.2627 32.6515 39.3979 32.8707 39.4675 33.1103C39.544 33.3682 39.5776 33.6354 39.5672 33.9026C39.5672 34.1278 39.54 34.3613 39.5189 34.6031C39.4977 34.845 39.4675 35.0785 39.4343 35.2926C39.3913 35.5751 39.307 35.851 39.1836 36.1127C39.0589 36.3776 38.8817 36.619 38.6612 36.8244C38.4267 37.0421 38.1515 37.2191 37.8488 37.347C37.4927 37.4938 37.1115 37.5822 36.7223 37.6083C36.3555 37.6469 35.984 37.6185 35.6291 37.5249C35.3555 37.4496 35.1065 37.313 34.9043 37.1274C34.7158 36.9489 34.5806 36.7287 34.5117 36.488C34.4337 36.2331 34.3981 35.9687 34.406 35.704C34.406 35.4927 34.4302 35.2648 34.4543 35.0201C34.4785 34.7755 34.5057 34.542 34.5389 34.3168C34.5808 34.0296 34.6652 33.749 34.7895 33.4828C34.9151 33.219 35.0922 32.9788 35.312 32.7739C35.5457 32.5553 35.8211 32.3782 36.1244 32.2513C36.482 32.1032 36.8656 32.0156 37.2569 31.9927V31.9927ZM37.8609 35.3815C37.9243 34.9367 37.9666 34.5003 37.9847 34.0694C37.986 33.9511 37.9759 33.833 37.9545 33.7163C37.9374 33.616 37.895 33.5208 37.8307 33.4383C37.7651 33.3604 37.6757 33.3023 37.574 33.2715C37.4367 33.2306 37.2913 33.2183 37.1482 33.2354C36.9975 33.2443 36.85 33.2792 36.7133 33.3382C36.5973 33.3891 36.4943 33.462 36.4113 33.5523C36.3319 33.6411 36.2696 33.7417 36.2271 33.8498C36.1821 33.9678 36.1507 34.0899 36.1334 34.2139C36.0634 34.6477 36.0221 35.085 36.0096 35.5233C36.0024 35.6423 36.0095 35.7616 36.0308 35.8792C36.0473 35.9806 36.092 36.0763 36.1606 36.1572C36.2289 36.2337 36.3188 36.2914 36.4203 36.324C36.5566 36.3649 36.7011 36.3772 36.8431 36.3601C36.995 36.3506 37.1436 36.3148 37.281 36.2545C37.3957 36.2017 37.4983 36.129 37.583 36.0404C37.6625 35.9532 37.7239 35.8533 37.7642 35.7457C37.8058 35.6273 37.8341 35.5053 37.8488 35.3815H37.8609Z" fill="#37474F"/>
<path d="M29.1422 15.3155C29.1074 15.0812 29.1074 14.8437 29.1422 14.6094C28.9455 14.5252 28.773 14.4 28.6382 14.2436C28.5035 14.0872 28.4102 13.9041 28.366 13.7086C28.2828 13.3126 28.3659 12.9023 28.5986 12.5605C28.8707 12.2041 29.2128 11.8977 29.6072 11.657C29.719 11.5792 29.8549 11.379 29.7763 11.2539C29.6525 11.0482 29.2297 11.1121 29.0304 11.0454C28.7188 10.9356 28.4504 10.7419 28.2603 10.4894C28.052 10.2047 27.9319 9.87313 27.913 9.53031C27.8726 9.27756 27.9074 9.01945 28.0138 8.78348C28.1202 8.54751 28.2941 8.34252 28.517 8.19035C28.6733 8.08055 28.8463 7.9925 29.0304 7.92903C28.6563 7.69547 28.3636 7.36719 28.1878 6.98383C28.0217 6.57703 28.0217 6.12851 28.1878 5.72171C28.279 5.52383 28.4119 5.34456 28.5788 5.19425C28.7457 5.04394 28.9434 4.92558 29.1603 4.84601C29.6737 4.63195 30.4951 4.71813 30.5676 4.86269C30.3655 4.43112 30.3007 3.95556 30.3809 3.49143C30.4611 3.02729 30.683 2.59369 31.0206 2.24115C31.4545 1.81182 32.0378 1.53551 32.6695 1.45997C32.8507 1.43773 33.7778 1.40993 34.249 1.73797C34.2973 1.31541 34.7744 0.878952 35.2607 0.692692C35.7559 0.515635 36.3026 0.502856 36.8069 0.656551C37.4441 0.842811 38.0723 1.24869 38.7186 1.09301C38.8333 1.06799 39.4102 0.906752 39.4102 0.906752C39.5491 0.931772 39.2984 1.18475 39.3256 1.32375C39.3472 1.58344 39.275 1.84243 39.1202 2.06045C38.5162 3.05569 37.1995 3.47269 35.9734 3.58945C35.3665 3.61873 34.7617 3.67719 34.1614 3.76459C33.5523 3.85342 32.993 4.12746 32.5729 4.54299C32.2446 4.95369 32.0262 5.42994 31.9357 5.93299C31.5128 7.57976 31.328 9.27071 31.386 10.962C31.4434 12.352 31.6608 13.7698 31.3015 15.132C31.1837 15.5712 31.4223 16.433 30.8485 16.4886C30.5356 16.5344 30.215 16.4884 29.9321 16.3572C29.6492 16.226 29.4182 16.0162 29.272 15.7575C29.2048 15.617 29.161 15.468 29.1422 15.3155V15.3155Z" fill="#263238"/>
<path d="M32.7601 8.18203C32.4158 11.24 34.7261 13.97 37.9183 14.273C41.1104 14.576 43.8314 12.327 44.3176 9.26901C45.1783 3.88137 42.3516 3.48105 39.1595 3.17803C35.9673 2.87501 33.1044 5.12403 32.7601 8.18203Z" fill="#263238"/>
<path d="M29.5076 5.6939C30.2928 4.78762 30.9119 4.99612 30.9119 4.99612L30.8273 9.74992L31.5249 9.95286L30.8726 16.3218C30.5091 16.0947 30.2373 15.7634 30.0995 15.3794C29.9062 14.9124 29.6978 12.1713 29.5921 10.5311C29.5921 10.5311 28.8371 6.4723 29.5076 5.6939Z" fill="#263238"/>
<path d="M31.3075 11.0009C30.9511 11.1594 30.5434 10.4977 30.175 10.0446C29.8065 9.59146 28.5261 8.89647 27.7016 10.1919C26.8771 11.4874 27.9341 13.464 28.97 13.881C30.7397 14.6066 31.1384 13.5085 31.1384 13.5085L30.5585 19.858C33.2312 25.7961 39.1897 24.9148 36.526 20.2555L36.7374 18.3318C36.7374 18.3318 38.3652 18.7293 39.1897 18.6876C40.5547 18.6153 41.5151 17.6785 42.0798 16.3218C42.9858 14.1423 43.4388 12.3548 43.3754 7.89288C43.309 3.00286 37.4532 2.39682 34.0738 4.00088C30.6944 5.60494 31.3075 11.0009 31.3075 11.0009Z" fill="#B16668"/>
<path d="M40.7208 7.28684C38.0028 7.09224 36.366 6.4028 34.1463 5.9441C33.9983 5.9022 33.8409 5.8974 33.6903 5.9302C33.1708 6.08866 32.9021 7.5009 32.7843 7.904C32.3373 9.26064 31.83 11.5847 31.2743 11.5402C31.1052 11.5402 30.5797 10.4477 30.2022 10.0446C29.6827 9.4886 30.939 4.9989 30.939 4.99612C30.931 4.78379 30.9088 4.57211 30.8726 4.36228C30.9141 3.95655 31.0819 3.57045 31.3558 3.25028C31.8811 2.59092 32.6391 2.12017 33.5 1.91866C35.0855 1.51556 36.7495 1.74074 38.332 1.25702C38.9632 1.0652 39.5702 0.778861 40.2286 0.681561C40.8869 0.584261 41.6419 0.712141 42.0406 1.2042C42.2762 1.55076 42.3997 1.95187 42.3969 2.36068C42.725 1.97949 43.1518 1.68029 43.6382 1.49054C44.5623 1.21254 45.6012 1.82692 45.9696 2.65536C46.338 3.4838 46.1599 4.4429 45.7824 5.26856C45.6645 5.54111 45.5081 5.79816 45.3173 6.03306C44.3448 7.19788 42.1946 7.3897 40.7208 7.28684Z" fill="#263238"/>
<path d="M30.4196 5.17962L28.514 3.9453C28.5887 3.82208 28.6905 3.71459 28.813 3.62974C28.9355 3.54489 29.0759 3.48456 29.2252 3.45262C29.3745 3.42069 29.5294 3.41784 29.68 3.44428C29.8305 3.47072 29.9734 3.52585 30.0995 3.60614C30.3571 3.78397 30.5328 4.04424 30.5921 4.33555C30.6514 4.62687 30.5898 4.92805 30.4196 5.17962V5.17962Z" fill="#263238"/>
<path d="M36.7374 18.3179C36.7374 18.3179 33.799 17.4533 32.8114 16.8195C32.2232 16.4458 31.7707 15.9179 31.5128 15.3044C31.6054 15.9045 31.8238 16.4824 32.1561 17.0057C32.8175 18.0204 36.6499 19.0824 36.6499 19.0824L36.7374 18.3179Z" fill="#9A4A4D"/>
<path d="M36.8492 10.8008C36.8442 10.8766 36.8229 10.9508 36.7866 11.0191C36.7503 11.0874 36.6997 11.1483 36.6376 11.1985C36.5756 11.2486 36.5033 11.287 36.4251 11.3113C36.3468 11.3356 36.2641 11.3454 36.1818 11.3401C36.0169 11.3174 35.8683 11.2358 35.7683 11.113C35.6682 10.9902 35.6247 10.8361 35.6472 10.684C35.6522 10.6081 35.6735 10.5339 35.7098 10.4657C35.7461 10.3974 35.7968 10.3364 35.8588 10.2863C35.9209 10.2361 35.9931 10.1978 36.0713 10.1735C36.1496 10.1492 36.2323 10.1394 36.3147 10.1447C36.4796 10.1674 36.6281 10.249 36.7281 10.3718C36.8282 10.4946 36.8717 10.6487 36.8492 10.8008V10.8008Z" fill="#263238"/>
<path d="M36.3388 8.60457L34.9738 9.16057C34.9009 8.98309 34.9027 8.78698 34.9786 8.61062C35.0546 8.43426 35.1993 8.29034 35.3845 8.20703C35.475 8.17084 35.5727 8.1525 35.6714 8.15319C35.7701 8.15387 35.8675 8.17358 35.9574 8.21103C36.0473 8.24848 36.1277 8.30284 36.1934 8.37062C36.259 8.4384 36.3086 8.51809 36.3388 8.60457V8.60457Z" fill="#263238"/>
<path d="M36.8522 14.8262L38.172 15.4517C38.1351 15.5359 38.0798 15.6123 38.0095 15.676C37.9392 15.7397 37.8554 15.7894 37.7633 15.822C37.6712 15.8546 37.5729 15.8694 37.4743 15.8654C37.3757 15.8615 37.2791 15.839 37.1904 15.7992C37.0111 15.7063 36.8765 15.5543 36.8138 15.3738C36.751 15.1934 36.7648 14.9977 36.8522 14.8262Z" fill="#9A4A4D"/>
<path d="M42.412 9.91673L41.3339 8.93818C41.3952 8.86754 41.472 8.8096 41.5593 8.76818C41.6466 8.72675 41.7424 8.70276 41.8405 8.69777C41.9386 8.69278 42.0367 8.70692 42.1284 8.73924C42.2201 8.77157 42.3034 8.82136 42.3728 8.88536C42.5162 9.02261 42.5996 9.20379 42.6068 9.39413C42.6141 9.58448 42.5447 9.77058 42.412 9.91673Z" fill="#263238"/>
<path d="M41.8715 11.1121C41.8665 11.188 41.8452 11.2622 41.8089 11.3305C41.7726 11.3988 41.7219 11.4597 41.6599 11.5099C41.5978 11.56 41.5256 11.5983 41.4473 11.6226C41.3691 11.6469 41.2864 11.6567 41.204 11.6515C41.0385 11.6288 40.8895 11.5468 40.7894 11.4234C40.6892 11.3 40.6461 11.1451 40.6695 10.9926C40.678 10.9196 40.7021 10.8488 40.7403 10.7844C40.7785 10.7199 40.8302 10.663 40.8923 10.617C40.9544 10.5709 41.0258 10.5365 41.1023 10.5158C41.1789 10.4951 41.2591 10.4885 41.3384 10.4964C41.4177 10.5042 41.4946 10.5264 41.5646 10.5616C41.6346 10.5968 41.6964 10.6443 41.7465 10.7015C41.7966 10.7587 41.8339 10.8244 41.8564 10.8948C41.8789 10.9653 41.886 11.0391 41.8775 11.1121H41.8715Z" fill="#263238"/>
<path d="M38.7035 10.3421L38.3834 13.8477L40.591 13.5947L38.7035 10.3421Z" fill="#9A4A4D"/>
<path d="M15.9025 48.8228C15.3077 47.8167 14.8937 46.7287 14.6764 45.6008C14.9119 45.8538 15.2804 46.5349 16.1592 46.9269C16.6363 47.1409 17.5001 47.1799 17.6692 46.7851C17.8383 46.3903 16.9685 45.99 16.6998 45.5341C16.0235 44.4923 15.2729 43.493 14.4529 42.5428C14.2926 42.4036 14.1646 42.2361 14.0764 42.0503C13.9882 41.8645 13.9416 41.6642 13.9395 41.4614C13.9938 38.5591 14.468 35.4427 14.5676 32.4737C16.8749 30.9613 20.7526 29.3017 22.8364 28.084C24.1309 27.8907 25.3084 27.2798 26.1584 26.3604C27.0282 25.4986 27.8798 23.5804 27.8858 21.7317C27.8858 20.742 27.7016 19.7218 27.3996 19.2909C26.9829 18.8794 25.9198 18.7905 23.7575 19.6161C22.8515 19.9664 20.5321 21.1118 16.6031 23.5749C14.5284 24.8787 11.2366 26.7969 8.85984 29.2878C7.88136 30.3136 8.85984 39.546 9.01386 41.5392C9.11442 43.3402 9.3414 45.1334 9.69336 46.9074C10.237 49.2899 11.7017 51.3082 13.6194 51.3137C16.6967 51.3221 16.7451 50.2212 15.9025 48.8228Z" fill="#B16668"/>
<path d="M62.802 58.8346C68.0139 57.9713 71.4787 53.3822 70.541 48.5845C69.6032 43.7868 64.6179 40.5973 59.406 41.4606C54.1942 42.3238 50.7293 46.9129 51.6671 51.7106C52.6048 56.5083 57.5901 59.6978 62.802 58.8346Z" fill="#00BFA5"/>
<path opacity="0.1" d="M70.4648 52.0643C69.7551 54.9778 63.9809 58.1803 58.5509 54.9166C53.121 51.6529 53.8004 44.4388 58.5902 41.631C56.9505 42.0412 55.4587 42.8451 54.2674 43.9605C53.0762 45.0759 52.2283 46.4626 51.8106 47.9787C51.3929 49.4949 51.4204 51.086 51.8902 52.5891C52.3601 54.0923 53.2554 55.4535 54.4845 56.5334C55.7137 57.6134 57.2325 58.3733 58.8855 58.7353C60.5385 59.0974 62.2664 59.0485 63.8922 58.5939C65.5179 58.1392 66.9833 57.295 68.1382 56.1477C69.293 55.0004 70.096 53.5912 70.4648 52.0643V52.0643Z" fill="black"/>
<path d="M67.3482 46.9324C68.7494 47.4412 69.8789 48.6949 70.6853 49.882C70.6853 49.6401 70.6611 49.4011 70.6339 49.1648C69.8276 48.0972 68.7706 47.0659 67.4901 46.5988C66.9857 46.4149 66.4461 46.3268 65.9038 46.3397C65.3615 46.3526 64.8276 46.4663 64.3342 46.6739C64.0544 46.3625 63.7524 46.0521 63.4282 45.7426C63.1534 45.4646 62.8816 45.2311 62.6068 45.0059C65.0862 43.9745 66.7472 43.9606 68.2209 44.2414C68.073 44.0885 67.9189 43.9439 67.7559 43.8021C66.3183 43.6075 64.6634 43.7326 62.2897 44.7473C61.866 44.4163 61.418 44.1125 60.9488 43.8383C62.2202 43.121 62.791 42.3677 62.7215 41.4503C62.5947 41.4308 62.4648 41.4113 62.335 41.3974C62.4105 42.098 62.0481 42.843 60.5743 43.6214C59.3094 42.9566 57.9031 42.5516 56.452 42.4344C56.2617 42.5345 56.0715 42.6373 55.8903 42.7485C57.3983 42.7952 58.8738 43.1645 60.1998 43.8272C58.868 44.4582 57.4305 44.7334 56.0352 45.0031C54.8423 45.2311 53.6917 45.4535 52.7132 45.8899C52.6015 46.0734 52.5018 46.2597 52.4112 46.4459C53.429 45.8621 54.7457 45.6119 56.1168 45.3339C57.6117 45.0559 59.1579 44.7473 60.5985 44.0218C61.0653 44.285 61.5105 44.5795 61.9303 44.903C58.5207 46.5099 54.2806 50.805 53.9635 56.0036C54.0813 56.1259 54.2051 56.2482 54.332 56.365C54.4679 51.083 58.8318 46.6961 62.2504 45.1532C62.5524 45.4006 62.8544 45.6703 63.1564 45.9705C63.4584 46.2708 63.7151 46.5265 63.9748 46.8045C60.7646 48.3558 60.6226 52.5814 60.4777 57.0488C60.4565 57.666 60.4354 58.2943 60.4052 58.9198L60.7917 58.9365C60.8219 58.3082 60.8431 57.6799 60.8642 57.06C61.0092 52.6676 61.1451 48.5142 64.2255 47.0881C66.874 50.1127 67.8857 53.3431 67.2787 56.8709C67.4327 56.7514 67.5807 56.6263 67.7287 56.4956C68.2028 53.0623 67.1639 49.9042 64.5939 46.938C65.4754 46.6025 66.4651 46.6005 67.3482 46.9324V46.9324Z" fill="#455A64"/>
</svg>
