<svg width="60" height="57" viewBox="0 0 60 57" fill="none" xmlns="http://www.w3.org/2000/svg">
<g clip-path="url(#clip0)">
<path d="M41.9062 38.3971L45.2396 34.8346C45.7604 34.278 46.6667 34.6676 46.6667 35.4692V51.6563C46.6667 54.6065 44.4271 57 41.6667 57H5C2.23958 57 0 54.6065 0 51.6563V12.4688C0 9.51859 2.23958 7.12503 5 7.12503H33.4896C34.2292 7.12503 34.6042 8.08246 34.0833 8.65023L30.75 12.2127C30.5937 12.3797 30.3854 12.4688 30.1562 12.4688H5V51.6563H41.6667V39.0205C41.6667 38.7868 41.75 38.5641 41.9062 38.3971ZM58.2187 15.9311L30.8646 45.1659L21.4479 46.2791C18.7187 46.602 16.3958 44.1416 16.6979 41.2026L17.7396 31.1385L45.0937 1.90374C47.4792 -0.64567 51.3333 -0.64567 53.7083 1.90374L58.2083 6.71312C60.5937 9.26253 60.5937 13.3928 58.2187 15.9311V15.9311ZM47.9271 19.3711L41.875 12.903L22.5208 33.5989L21.7604 40.8686L28.5625 40.0559L47.9271 19.3711ZM54.6771 10.4983L50.1771 5.6889C49.75 5.23246 49.0521 5.23246 48.6354 5.6889L45.4167 9.12894L51.4687 15.5971L54.6875 12.1571C55.1042 11.6895 55.1042 10.9547 54.6771 10.4983V10.4983Z" fill="#00BFA5"/>
</g>
<defs>
<clipPath id="clip0">
<rect width="60" height="57" fill="white"/>
</clipPath>
</defs>
</svg>
