<svg width="45" height="38" viewBox="0 0 45 38" fill="none" xmlns="http://www.w3.org/2000/svg">
<g filter="url(#filter0_i)">
<path d="M22.5 38C22.0861 38 21.7501 37.6788 21.7501 37.283V34.4151C21.7501 34.0194 22.0861 33.6982 22.5 33.6982C22.914 33.6982 23.25 34.0194 23.25 34.4151V37.283C23.25 37.6788 22.914 38 22.5 38Z" fill="#ECF0F1"/>
<path d="M2.25 34.4151H42.7501V4.3019H2.25V34.4151Z" fill="#ECF0F1"/>
<path d="M0.749969 4.30189H44.2501V0H0.749969V4.30189Z" fill="#00BFA5"/>
<path d="M44.2501 35.1321H0.749972C0.336007 35.1321 0 34.8109 0 34.4151C0 34.0194 0.336007 33.6982 0.749972 33.6982H44.25C44.664 33.6982 45 34.0194 45 34.4151C45.0001 34.8109 44.6641 35.1321 44.2501 35.1321Z" fill="#00BFA5"/>
<path d="M21 12.9057C20.808 12.9057 20.616 12.8354 20.4698 12.6956C20.1765 12.4152 20.1765 11.9621 20.4698 11.6818L23.4697 8.81391C23.763 8.53354 24.237 8.53354 24.5302 8.81391C24.8235 9.09429 24.8235 9.54742 24.5302 9.82772L21.5302 12.6956C21.384 12.8353 21.192 12.9057 21 12.9057Z" fill="#0C534A"/>
<path d="M24.0001 12.9057C23.808 12.9057 23.6161 12.8354 23.4698 12.6956L20.4698 9.82763C20.1765 9.54725 20.1765 9.09413 20.4698 8.81383C20.763 8.53345 21.237 8.53345 21.5302 8.81383L24.5303 11.6817C24.8236 11.9621 24.8236 12.4152 24.5303 12.6955C24.3841 12.8353 24.192 12.9057 24.0001 12.9057Z" fill="#0C534A"/>
<path d="M10.5 12.9057C10.308 12.9057 10.1161 12.8354 9.9698 12.6956C9.67651 12.4152 9.67651 11.9621 9.9698 11.6818L12.9698 8.81391C13.2631 8.53354 13.7371 8.53354 14.0303 8.81391C14.3236 9.09429 14.3236 9.54742 14.0303 9.82772L11.0303 12.6955C10.884 12.8353 10.692 12.9057 10.5 12.9057Z" fill="#0C534A"/>
<path d="M13.5 12.9057C13.308 12.9057 13.116 12.8354 12.9698 12.6956L9.9698 9.82772C9.67651 9.54734 9.67651 9.09421 9.9698 8.81391C10.2631 8.53354 10.7371 8.53354 11.0303 8.81391L14.0303 11.6818C14.3236 11.9622 14.3236 12.4153 14.0303 12.6956C13.884 12.8353 13.6921 12.9057 13.5 12.9057Z" fill="#0C534A"/>
<path d="M31.5 12.9057C31.308 12.9057 31.1161 12.8354 30.9698 12.6956C30.6765 12.4152 30.6765 11.9621 30.9698 11.6818L33.9698 8.81391C34.2631 8.53354 34.7371 8.53354 35.0303 8.81391C35.3236 9.09429 35.3236 9.54742 35.0303 9.82772L32.0303 12.6956C31.884 12.8353 31.6921 12.9057 31.5 12.9057Z" fill="#0C534A"/>
<path d="M34.5 12.9057C34.308 12.9057 34.116 12.8354 33.9698 12.6956L30.9698 9.82772C30.6765 9.54734 30.6765 9.09421 30.9698 8.81391C31.2631 8.53354 31.7371 8.53354 32.0303 8.81391L35.0303 11.6818C35.3236 11.9622 35.3236 12.4153 35.0303 12.6956C34.884 12.8353 34.6921 12.9057 34.5 12.9057Z" fill="#0C534A"/>
<path d="M22.5 26.5283C21.6728 26.5283 21 27.1714 21 27.9623C21 28.7532 21.6727 29.3963 22.5 29.3963C23.3273 29.3963 24.0001 28.7532 24.0001 27.9623C24.0001 27.1714 23.3273 26.5283 22.5 26.5283ZM22.5 30.8302C20.8455 30.8302 19.5001 29.5439 19.5001 27.9623C19.5001 26.3807 20.8456 25.0944 22.5 25.0944C24.1546 25.0944 25.5 26.3807 25.5 27.9623C25.5 29.5439 24.1546 30.8302 22.5 30.8302Z" fill="#0C534A"/>
<path d="M12 26.5283C11.1727 26.5283 10.4999 27.1714 10.4999 27.9623C10.4999 28.7532 11.1727 29.3963 12 29.3963C12.8272 29.3963 13.5 28.7532 13.5 27.9623C13.5 27.1714 12.8273 26.5283 12 26.5283ZM12 30.8302C10.3454 30.8302 9 29.5439 9 27.9623C9 26.3807 10.3455 25.0944 12 25.0944C13.6544 25.0944 15 26.3807 15 27.9623C15 29.5439 13.6545 30.8302 12 30.8302Z" fill="#0C534A"/>
<path d="M33.0001 26.5283C32.1729 26.5283 31.5 27.1714 31.5 27.9623C31.5 28.7532 32.1728 29.3963 33.0001 29.3963C33.8273 29.3963 34.5001 28.7532 34.5001 27.9623C34.5001 27.1714 33.8273 26.5283 33.0001 26.5283ZM33.0001 30.8302C31.3455 30.8302 30.0001 29.5439 30.0001 27.9623C30.0001 26.3807 31.3456 25.0944 33.0001 25.0944C34.6546 25.0944 36.0001 26.3807 36.0001 27.9623C36.0001 29.5439 34.6545 30.8302 33.0001 30.8302Z" fill="#0C534A"/>
<path d="M37.5001 20.7924C37.0861 20.7924 36.7501 20.4712 36.7501 20.0755V15.0566C36.7501 14.6609 37.0861 14.3397 37.5001 14.3397C37.9141 14.3397 38.2501 14.6609 38.2501 15.0566V20.0755C38.2501 20.4712 37.9141 20.7924 37.5001 20.7924Z" fill="#0C534A"/>
<path d="M39.7501 17.9245C39.5581 17.9245 39.3661 17.8543 39.2199 17.7145L37.5001 16.0704L35.7803 17.7145C35.487 17.9948 35.0131 17.9948 34.7198 17.7145C34.4266 17.4341 34.4266 16.9809 34.7198 16.7007L36.9699 14.5497C37.2631 14.2693 37.7371 14.2693 38.0303 14.5497L40.2803 16.7007C40.5736 16.981 40.5736 17.4342 40.2803 17.7145C40.1341 17.8543 39.9421 17.9245 39.7501 17.9245Z" fill="#0C534A"/>
<path d="M34.5 23.6604C34.308 23.6604 34.116 23.5902 33.9698 23.4503C33.6765 23.17 33.6765 22.7168 33.9698 22.4365L36.9698 19.5686C37.2631 19.2883 37.737 19.2883 38.0303 19.5686C38.3235 19.849 38.3235 20.3022 38.0303 20.5824L35.0303 23.4503C34.884 23.5901 34.6921 23.6604 34.5 23.6604Z" fill="#0C534A"/>
<path d="M7.49998 20.7924C7.08601 20.7924 6.75001 20.4712 6.75001 20.0755V15.0566C6.75001 14.6609 7.08601 14.3397 7.49998 14.3397C7.91395 14.3397 8.24995 14.6609 8.24995 15.0566V20.0755C8.25004 20.4712 7.91403 20.7924 7.49998 20.7924Z" fill="#0C534A"/>
<path d="M9.74999 17.9245C9.55794 17.9245 9.36599 17.8543 9.21974 17.7145L7.49998 16.0704L5.78022 17.7145C5.48693 17.9948 5.01294 17.9948 4.71973 17.7145C4.42644 17.4341 4.42644 16.9809 4.71973 16.7007L6.96974 14.5497C7.26303 14.2693 7.73702 14.2693 8.03023 14.5497L10.2802 16.7007C10.5735 16.981 10.5735 17.4342 10.2802 17.7145C10.134 17.8543 9.94203 17.9245 9.74999 17.9245Z" fill="#0C534A"/>
<path d="M22.5 23.6604C22.0861 23.6604 21.7501 23.3392 21.7501 22.9434V15.0566C21.7501 14.6609 22.0861 14.3397 22.5 14.3397C22.914 14.3397 23.25 14.6609 23.25 15.0566V22.9434C23.25 23.3392 22.914 23.6604 22.5 23.6604Z" fill="#0C534A"/>
<path d="M24.75 17.9245C24.558 17.9245 24.366 17.8543 24.2198 17.7145L22.5 16.0704L20.7803 17.7145C20.487 17.9948 20.013 17.9948 19.7198 17.7145C19.4266 17.4341 19.4265 16.9809 19.7198 16.7007L21.9698 14.5497C22.2631 14.2693 22.7371 14.2693 23.0303 14.5497L25.2803 16.7007C25.5736 16.981 25.5736 17.4342 25.2803 17.7145C25.134 17.8543 24.9421 17.9245 24.75 17.9245Z" fill="#0C534A"/>
<path d="M10.5 23.6604C10.308 23.6604 10.116 23.5902 9.96979 23.4503L6.96972 20.5824C6.67643 20.302 6.67643 19.8489 6.96972 19.5686C7.26302 19.2883 7.73701 19.2882 8.03021 19.5686L11.0303 22.4365C11.3236 22.7168 11.3236 23.17 11.0303 23.4503C10.884 23.5901 10.692 23.6604 10.5 23.6604Z" fill="#0C534A"/>
</g>
<defs>
<filter id="filter0_i" x="0" y="0" width="45" height="42" filterUnits="userSpaceOnUse" color-interpolation-filters="sRGB">
<feFlood flood-opacity="0" result="BackgroundImageFix"/>
<feBlend mode="normal" in="SourceGraphic" in2="BackgroundImageFix" result="shape"/>
<feColorMatrix in="SourceAlpha" type="matrix" values="0 0 0 0 0 0 0 0 0 0 0 0 0 0 0 0 0 0 127 0" result="hardAlpha"/>
<feOffset dy="4"/>
<feGaussianBlur stdDeviation="2"/>
<feComposite in2="hardAlpha" operator="arithmetic" k2="-1" k3="1"/>
<feColorMatrix type="matrix" values="0 0 0 0 0 0 0 0 0 0 0 0 0 0 0 0 0 0 0.25 0"/>
<feBlend mode="normal" in2="shape" result="effect1_innerShadow"/>
</filter>
</defs>
</svg>
