<svg width="40" height="40" viewBox="0 0 40 40" fill="none" xmlns="http://www.w3.org/2000/svg">
<path d="M30.3448 12.0409C30.3448 11.578 30.309 11.1365 30.1345 10.735C29.4787 9.22281 27.6421 8.60467 26.0573 9.1635C25.1945 9.46772 22.918 9.64637 20 9.64637C17.082 9.64637 14.9027 9.46772 14.0393 9.1635C12.4552 8.60475 10.6179 9.22281 9.96203 10.735C9.78821 11.1365 9.65516 11.5779 9.65516 12.0409V17.9245C9.65516 24.0207 14.2869 30.3418 20 30.3418C25.7131 30.3418 30.3448 24.0208 30.3448 17.9245V12.0409Z" fill="#FDD7AD"/>
<path d="M32.4138 9.10903C32.4138 7.47342 30.8028 5.97018 29.3248 5.19481L25.0152 3.16182C24.48 2.90933 24.1379 2.36988 24.1379 1.778V0.678394C24.1379 0.121676 23.7082 -0.0962755 23.1545 0.0389185L15.3303 1.72345C14.6523 1.88834 14.0827 2.33393 13.7703 2.94309L13.7144 3.05281C13.3448 3.7723 12.5883 4.21454 11.7627 4.21868C10.8027 4.22352 9.89515 4.65052 9.29515 5.38244L8.5807 6.25237C8.17515 6.74696 7.62968 7.35541 7.58625 7.99286C7.58625 7.99286 7.01179 13.958 8.18969 16.5449L9.73242 19.3043H9.7414C9.68969 18.8449 9.65523 18.3847 9.65523 17.9246V12.0409C9.65523 11.5781 9.78836 11.1365 9.96211 10.735C10.618 9.22289 12.4552 8.60475 14.0394 9.16358C14.9028 9.4678 17.0821 9.64645 20.0001 9.64645C22.918 9.64645 25.1945 9.4678 26.0573 9.16358C27.6422 8.60483 29.4787 9.22289 30.1346 10.735C30.3091 11.1365 30.3449 11.578 30.3449 12.0409V17.9246C30.3449 18.3847 30.3105 18.8449 30.2587 19.3043H30.2677L31.1098 17.6652C32.6724 14.3249 32.4138 9.10903 32.4138 9.10903Z" fill="black"/>
<path d="M20 30.342C16.998 30.342 14.3034 28.5891 12.4138 26.0484V27.5826C12.4138 31.7735 15.8104 35.1709 20 35.1709C24.1896 35.1709 27.5862 31.7734 27.5862 27.5826V26.0484C25.6966 28.5892 23.002 30.342 20 30.342Z" fill="#DBB38D"/>
<path d="M38.3193 34.2639C34.4827 31.7217 30.5855 29.8068 27.5407 28.4002C27.1331 32.2061 23.9131 35.1711 20 35.1711C16.0869 35.1711 12.8669 32.2061 12.4593 28.4002C9.41445 29.8068 5.51727 31.7218 1.6807 34.2639C0.707578 34.9089 0 36.0734 0 37.2406V39.9999H40V37.2406C40 36.0734 39.2924 34.9089 38.3193 34.2639Z" fill="#FDD7AD"/>
<path d="M32.8586 31.0285C30.9413 30.0048 29.1248 29.1314 27.5406 28.4002C27.133 32.2061 23.913 35.1711 19.9999 35.1711C16.0868 35.1711 12.8668 32.2061 12.4592 28.4002C10.8751 29.1314 9.05852 30.0048 7.14125 31.0285C8.59227 33.7865 9.09781 36.8819 8.96539 40H20H31.0345C30.902 36.8819 31.4076 33.7865 32.8586 31.0285Z" fill="#00BFA5"/>
</svg>
