<svg width="37" height="39" viewBox="0 0 37 39" fill="none" xmlns="http://www.w3.org/2000/svg">
<path d="M0 10.207V35.1914C0 36.8714 1.29681 38.2383 2.89062 38.2383H34.1094C35.7032 38.2383 37 36.8714 37 35.1914V10.207H0Z" fill="#D8DCE1"/>
<path d="M34.1094 1.67578H2.89062C1.29681 1.67578 0 3.04269 0 4.72266V10.207H37V4.72266C37 3.04269 35.7031 1.67578 34.1094 1.67578ZM4.625 7.76953C3.66712 7.76953 2.89062 6.95106 2.89062 5.94141C2.89062 4.93175 3.66712 4.11328 4.625 4.11328C5.58288 4.11328 6.35938 4.93175 6.35938 5.94141C6.35938 6.95106 5.58288 7.76953 4.625 7.76953ZM32.375 7.76953C31.4171 7.76953 30.6406 6.95106 30.6406 5.94141C30.6406 4.93175 31.4171 4.11328 32.375 4.11328C33.3329 4.11328 34.1094 4.93175 34.1094 5.94141C34.1094 6.95106 33.3329 7.76953 32.375 7.76953Z" fill="#00BFA5"/>
<path d="M18.5 15.6914C17.2247 15.6914 16.1875 16.7846 16.1875 18.1289C16.1875 19.4732 17.2247 20.5664 18.5 20.5664C19.7753 20.5664 20.8125 19.4732 20.8125 18.1289C20.8125 16.7846 19.7753 15.6914 18.5 15.6914Z" fill="white"/>
<path d="M12.7188 15.6914C11.4434 15.6914 10.4062 16.7846 10.4062 18.1289C10.4062 19.4732 11.4434 20.5664 12.7188 20.5664C13.9941 20.5664 15.0312 19.4732 15.0312 18.1289C15.0312 16.7846 13.9941 15.6914 12.7188 15.6914Z" fill="white"/>
<path d="M6.9375 15.6914C5.66216 15.6914 4.625 16.7846 4.625 18.1289C4.625 19.4732 5.66216 20.5664 6.9375 20.5664C8.21284 20.5664 9.25 19.4732 9.25 18.1289C9.25 16.7846 8.21284 15.6914 6.9375 15.6914Z" fill="white"/>
<path d="M24.2812 15.6914C23.0059 15.6914 21.9688 16.7846 21.9688 18.1289C21.9688 19.4732 23.0059 20.5664 24.2812 20.5664C25.5566 20.5664 26.5938 19.4732 26.5938 18.1289C26.5938 16.7846 25.5566 15.6914 24.2812 15.6914Z" fill="white"/>
<path d="M30.0625 20.5664C31.3378 20.5664 32.375 19.4732 32.375 18.1289C32.375 16.7846 31.3378 15.6914 30.0625 15.6914C28.7872 15.6914 27.75 16.7846 27.75 18.1289C27.75 19.4732 28.7871 20.5664 30.0625 20.5664Z" fill="white"/>
<path d="M18.5 21.7852C17.2247 21.7852 16.1875 22.8784 16.1875 24.2227C16.1875 25.5669 17.2247 26.6602 18.5 26.6602C19.7753 26.6602 20.8125 25.5669 20.8125 24.2227C20.8125 22.8784 19.7753 21.7852 18.5 21.7852Z" fill="white"/>
<path d="M12.7188 21.7852C11.4434 21.7852 10.4062 22.8784 10.4062 24.2227C10.4062 25.5669 11.4434 26.6602 12.7188 26.6602C13.9941 26.6602 15.0312 25.5669 15.0312 24.2227C15.0312 22.8784 13.9941 21.7852 12.7188 21.7852Z" fill="white"/>
<path d="M6.9375 21.7852C5.66216 21.7852 4.625 22.8784 4.625 24.2227C4.625 25.5669 5.66216 26.6602 6.9375 26.6602C8.21284 26.6602 9.25 25.5669 9.25 24.2227C9.25 22.8784 8.21284 21.7852 6.9375 21.7852Z" fill="white"/>
<path d="M24.2812 21.7852C23.0059 21.7852 21.9688 22.8784 21.9688 24.2227C21.9688 25.5669 23.0059 26.6602 24.2812 26.6602C25.5566 26.6602 26.5938 25.5669 26.5938 24.2227C26.5938 22.8784 25.5566 21.7852 24.2812 21.7852Z" fill="white"/>
<path d="M30.0625 21.7852C28.7872 21.7852 27.75 22.8784 27.75 24.2227C27.75 25.5669 28.7872 26.6602 30.0625 26.6602C31.3378 26.6602 32.375 25.5669 32.375 24.2227C32.375 22.8784 31.3378 21.7852 30.0625 21.7852Z" fill="white"/>
<path d="M18.5 27.8789C17.2247 27.8789 16.1875 28.9721 16.1875 30.3164C16.1875 31.6607 17.2247 32.7539 18.5 32.7539C19.7753 32.7539 20.8125 31.6607 20.8125 30.3164C20.8125 28.972 19.7753 27.8789 18.5 27.8789Z" fill="white"/>
<path d="M12.7188 27.8789C11.4434 27.8789 10.4062 28.9721 10.4062 30.3164C10.4062 31.6607 11.4434 32.7539 12.7188 32.7539C13.9941 32.7539 15.0312 31.6607 15.0312 30.3164C15.0312 28.972 13.9941 27.8789 12.7188 27.8789Z" fill="white"/>
<path d="M6.9375 27.8789C5.66216 27.8789 4.625 28.9721 4.625 30.3164C4.625 31.6607 5.66216 32.7539 6.9375 32.7539C8.21284 32.7539 9.25 31.6607 9.25 30.3164C9.25 28.972 8.21284 27.8789 6.9375 27.8789Z" fill="white"/>
<path d="M24.2812 27.8789C23.0059 27.8789 21.9688 28.9721 21.9688 30.3164C21.9688 31.6607 23.0059 32.7539 24.2812 32.7539C25.5566 32.7539 26.5938 31.6607 26.5938 30.3164C26.5938 28.972 25.5566 27.8789 24.2812 27.8789Z" fill="white"/>
<path d="M30.0625 27.8789C28.7872 27.8789 27.75 28.9721 27.75 30.3164C27.75 31.6607 28.7872 32.7539 30.0625 32.7539C31.3378 32.7539 32.375 31.6607 32.375 30.3164C32.375 28.972 31.3378 27.8789 30.0625 27.8789Z" fill="white"/>
<path d="M4.625 6.85547C4.14624 6.85547 3.75781 6.44635 3.75781 5.94141V1.67578C3.75781 1.17084 4.14624 0.761719 4.625 0.761719C5.10376 0.761719 5.49219 1.17084 5.49219 1.67578V5.94141C5.49219 6.44635 5.10376 6.85547 4.625 6.85547Z" fill="#5C546A"/>
<path d="M32.375 6.85547C31.8962 6.85547 31.5078 6.44635 31.5078 5.94141V1.67578C31.5078 1.17084 31.8962 0.761719 32.375 0.761719C32.8538 0.761719 33.2422 1.17084 33.2422 1.67578V5.94141C33.2422 6.44635 32.8538 6.85547 32.375 6.85547Z" fill="#5C546A"/>
<path d="M6.9375 20.5664C8.21466 20.5664 9.25 19.4751 9.25 18.1289C9.25 16.7827 8.21466 15.6914 6.9375 15.6914C5.66034 15.6914 4.625 16.7827 4.625 18.1289C4.625 19.4751 5.66034 20.5664 6.9375 20.5664Z" fill="#00BFA5"/>
<path d="M18.5 32.7539C19.7772 32.7539 20.8125 31.6626 20.8125 30.3164C20.8125 28.9702 19.7772 27.8789 18.5 27.8789C17.2228 27.8789 16.1875 28.9702 16.1875 30.3164C16.1875 31.6626 17.2228 32.7539 18.5 32.7539Z" fill="#00BFA5"/>
<path d="M24.2812 26.6602C25.5584 26.6602 26.5938 25.5689 26.5938 24.2227C26.5938 22.8765 25.5584 21.7852 24.2812 21.7852C23.0041 21.7852 21.9688 22.8765 21.9688 24.2227C21.9688 25.5689 23.0041 26.6602 24.2812 26.6602Z" fill="#00BFA5"/>
</svg>
