<svg width="45" height="48" viewBox="0 0 36 55" fill="none" xmlns="http://www.w3.org/2000/svg">
<path d="M35.2565 49.3987V54.0518C35.2565 54.5757 34.8554 55 34.3601 55H1.63991C1.14462 55 0.743462 54.5757 0.743462 54.0518V49.3987C0.743462 44.5169 4.48499 40.5619 9.10168 40.5607C10.7332 40.5595 12.1698 39.6718 12.9967 38.3254C13.8275 36.975 13.7419 35.8007 13.7419 34.8515L13.7587 34.8077C9.73591 33.0465 6.90651 28.8544 6.90651 23.9631V23.5921C5.30916 23.5921 4.10512 22.257 4.10512 20.6836V15.7579C4.06927 14.043 4.14322 7.99488 8.27359 3.78385C13.0763 -1.11221 20.6871 -0.711615 26.2002 1.90768C26.3795 1.99301 26.3739 2.26443 26.1924 2.34383L24.7547 2.96962C24.5396 3.06325 24.5855 3.39866 24.8163 3.42474L25.5144 3.50415C28.8571 3.88223 31.9621 5.80225 33.8872 8.99756C33.9388 9.08408 33.9242 9.21563 33.8581 9.2903C32.6703 10.6189 32.0069 12.3825 32.0069 14.216V20.6836C32.0069 22.2896 30.7754 23.5921 29.2571 23.5921H29.0935V23.9631C29.0935 28.8544 26.2641 33.0465 22.2413 34.8077L22.2581 34.8515C22.2581 35.7733 22.1654 36.9636 23.0033 38.3254C23.8302 39.6718 25.2668 40.5595 26.8983 40.5607C31.515 40.5619 35.2565 44.5169 35.2565 49.3987Z" fill="#FFDFBA"/>
<path d="M35.2565 49.3987V54.0518C35.2565 54.5755 34.8552 55 34.3601 55H1.63991C1.14484 55 0.743462 54.5755 0.743462 54.0518V49.3987C0.743462 44.5169 4.48555 40.5625 9.10112 40.5607C10.7331 40.5601 12.17 39.6713 12.9967 38.3254C15.8826 40.9331 20.1157 40.9346 23.0033 38.3254C23.8299 39.6713 25.2669 40.5601 26.8989 40.5607C31.5144 40.5625 35.2565 44.5169 35.2565 49.3987Z" fill="#00BFA5"/>
<path d="M33.8868 8.99828C33.9388 9.08468 33.9242 9.21553 33.8577 9.28996C32.6703 10.6195 32.0069 12.3825 32.0069 14.2161V20.6838C32.0069 22.152 30.9611 23.5923 29.0935 23.5923V16.2713C29.0935 13.1293 26.6854 10.5823 23.7148 10.5823H12.2852C9.31458 10.5823 6.90651 13.1293 6.90651 16.2713V23.5923C5.30916 23.5923 4.10512 22.2571 4.10512 20.6838V15.7581C4.06926 14.0431 4.14322 7.99501 8.27358 3.78398C13.0759 -1.1122 20.6875 -0.711367 26.1998 1.90817C26.3791 1.99338 26.3743 2.26491 26.1925 2.34408L24.7547 2.97011C24.5398 3.06374 24.585 3.39879 24.8161 3.42499L25.5144 3.50428C28.8576 3.882 31.9619 5.80203 33.8868 8.99828V8.99828Z" fill="#42434D"/>
<path d="M29.0935 23.9631C29.0935 30.4457 24.1241 35.6966 18 35.6966C12.23 35.6966 6.90651 30.9521 6.90651 23.5922V16.2712C6.90651 13.1292 9.31458 10.5822 12.2852 10.5822H23.7148C26.6854 10.5822 29.0935 13.1292 29.0935 16.2712V23.9631Z" fill="#FFEBD2"/>
<path d="M27.0765 52.9852H24.3872C23.8921 52.9852 23.4907 52.5606 23.4907 52.037C23.4907 51.5134 23.8921 51.0888 24.3872 51.0888H27.0765C27.5716 51.0888 27.9729 51.5134 27.9729 52.037C27.9729 52.5606 27.5717 52.9852 27.0765 52.9852Z" fill="white"/>
<path d="M15.4882 31.5399C17.3121 32.7468 15.8739 35.7066 13.8773 34.8589C9.77221 33.1162 6.90651 28.885 6.90651 23.9631V16.2712C6.90651 15.076 7.255 13.9669 7.85024 13.0512C8.58017 11.9285 10.2682 12.4245 10.2682 13.9008V21.5927C10.2682 25.9199 12.4187 29.5087 15.4882 31.5399Z" fill="#FFF3E4"/>
<path d="M22.3847 36.7977C19.624 38.02 16.5901 38.1148 13.6153 36.7977C13.7672 36.1309 13.7419 35.699 13.7419 34.8516L13.7587 34.8077C16.4572 35.9924 19.5375 35.9948 22.2413 34.8077L22.2581 34.8516C22.2581 35.6993 22.2328 36.1311 22.3847 36.7977Z" fill="#FFD6A6"/>
<path d="M13.6166 43.4238C13.2022 43.5616 12.7578 43.6376 12.2814 43.642C7.65392 43.6851 3.88101 47.5552 3.88101 52.4498V53.3407C3.88101 54.2571 3.17865 55 2.31224 55H1.6399C1.14484 55 0.743462 54.5755 0.743462 54.0518V49.3987C0.743462 44.5168 4.48555 40.5625 9.10112 40.5607C10.7331 40.5601 12.17 39.6713 12.9967 38.3254C13.33 38.6264 13.6868 38.897 14.0626 39.1339C15.7157 40.1758 15.4523 42.8133 13.6166 43.4238Z" fill="#00BFA5"/>
<path d="M22.3834 43.4238C22.7978 43.5616 23.2422 43.6376 23.7186 43.642C28.3461 43.6851 32.119 47.5552 32.119 52.4498V53.3407C32.119 54.2571 32.8214 55 33.6878 55H34.3601C34.8552 55 35.2565 54.5755 35.2565 54.0518V49.3987C35.2565 44.5168 31.5144 40.5625 26.8989 40.5607C25.2669 40.5601 23.83 39.6713 23.0033 38.3254C22.67 38.6264 22.3132 38.897 21.9374 39.1339C20.2844 40.1758 20.5477 42.8133 22.3834 43.4238V43.4238Z" fill="#00BFA5"/>
<path d="M26.1924 2.34383C24.8748 2.91735 24.687 3.04381 24.2305 2.96891C16.8714 1.76237 10.4147 4.98292 8.22204 12.5437V12.5449C7.40179 13.5428 6.90651 14.8465 6.90651 16.2711V20.7184C6.90651 22.637 4.10512 22.7706 4.10512 20.6836V15.7579C4.06926 14.043 4.14322 7.99488 8.27358 3.78385C13.0763 -1.11221 20.6871 -0.711615 26.2002 1.90768C26.3795 1.99301 26.3739 2.26443 26.1924 2.34383V2.34383Z" fill="#4D4E59"/>
</svg>
