<svg width="48" height="40" viewBox="0 0 46 40" fill="none" xmlns="http://www.w3.org/2000/svg">
<path d="M37.7673 2.23952H8.23274C6.95525 2.23952 5.91971 3.14007 5.91971 4.25085V37.9887C5.91971 39.0995 6.95534 40 8.23274 40H37.7673C39.0447 40 40.0803 39.0994 40.0803 37.9887V4.25085C40.0803 3.13999 39.0447 2.23952 37.7673 2.23952Z" fill="#EEEEEE"/>
<path d="M37.7673 2.23952H35.2031V40H37.7673C39.0447 40 40.0803 39.0994 40.0803 37.9887V4.25085C40.0803 3.13999 39.0447 2.23952 37.7673 2.23952Z" fill="#EEEEEE"/>
<path d="M29.0024 4.47898H16.9976C16.2382 4.47898 15.6225 3.94359 15.6225 3.2832V1.19578C15.6225 0.535391 16.2382 0 16.9976 0H29.0023C29.7617 0 30.3774 0.535391 30.3774 1.19578V3.2832C30.3775 3.94359 29.7618 4.47898 29.0024 4.47898V4.47898Z" fill="#676E84"/>
<path d="M29.0024 0H25.5003V4.47898H29.0024C29.7618 4.47898 30.3775 3.94359 30.3775 3.28312V1.19578C30.3775 0.535391 29.7618 0 29.0024 0V0Z" fill="#4A4E67"/>
<path d="M14.3847 13.3624H11.2996C10.6537 13.3624 10.1301 12.9071 10.1301 12.3455V9.66274C10.1301 9.10109 10.6537 8.64578 11.2996 8.64578H14.3847C15.0306 8.64578 15.5542 9.10109 15.5542 9.66274V12.3455C15.5542 12.9071 15.0306 13.3624 14.3847 13.3624Z" fill="#00BFA5"/>
<path d="M14.3847 23.4781H11.2996C10.6537 23.4781 10.1301 23.0228 10.1301 22.4612V19.7784C10.1301 19.2168 10.6537 18.7615 11.2996 18.7615H14.3847C15.0306 18.7615 15.5542 19.2168 15.5542 19.7784V22.4612C15.5542 23.0227 15.0306 23.4781 14.3847 23.4781Z" fill="#00BFA5"/>
<path d="M14.3847 33.5937H11.2996C10.6537 33.5937 10.1301 33.1384 10.1301 32.5768V29.8941C10.1301 29.3324 10.6537 28.8771 11.2996 28.8771H14.3847C15.0306 28.8771 15.5542 29.3324 15.5542 29.8941V32.5768C15.5542 33.1384 15.0306 33.5937 14.3847 33.5937Z" fill="#00BFA5"/>
<path d="M28.3316 13.1569H20.7933C20.4099 13.1569 20.0991 12.8866 20.0991 12.5533C20.0991 12.2198 20.4099 11.9497 20.7933 11.9497H28.3316C28.715 11.9497 29.0257 12.2199 29.0257 12.5533C29.0257 12.8867 28.715 13.1569 28.3316 13.1569Z" fill="#676E84"/>
<path d="M35.87 10.0585H20.7933C20.4099 10.0585 20.0991 9.78828 20.0991 9.45492C20.0991 9.12148 20.4099 8.85133 20.7933 8.85133H35.87C36.2534 8.85133 36.5642 9.12156 36.5642 9.45492C36.5642 9.78836 36.2534 10.0585 35.87 10.0585Z" fill="#676E84"/>
<path d="M28.3316 23.2726H20.7933C20.4099 23.2726 20.0991 23.0024 20.0991 22.669C20.0991 22.3356 20.4099 22.0654 20.7933 22.0654H28.3316C28.715 22.0654 29.0257 22.3356 29.0257 22.669C29.0257 23.0024 28.715 23.2726 28.3316 23.2726Z" fill="#676E84"/>
<path d="M35.87 20.1741H20.7933C20.4099 20.1741 20.0991 19.9039 20.0991 19.5706C20.0991 19.2372 20.4099 18.967 20.7933 18.967H35.87C36.2534 18.967 36.5642 19.2372 36.5642 19.5706C36.5642 19.9039 36.2534 20.1741 35.87 20.1741Z" fill="#676E84"/>
<path d="M28.3316 33.3882H20.7933C20.4099 33.3882 20.0991 33.118 20.0991 32.7846C20.0991 32.4513 20.4099 32.181 20.7933 32.181H28.3316C28.715 32.181 29.0257 32.4513 29.0257 32.7846C29.0257 33.118 28.715 33.3882 28.3316 33.3882Z" fill="#676E84"/>
<path d="M35.87 30.2898H20.7933C20.4099 30.2898 20.0991 30.0195 20.0991 29.6862C20.0991 29.3527 20.4099 29.0826 20.7933 29.0826H35.87C36.2534 29.0826 36.5642 29.3528 36.5642 29.6862C36.5642 30.0195 36.2534 30.2898 35.87 30.2898Z" fill="#676E84"/>
</svg>
