<svg width="45" height="45" viewBox="0 0 45 45" fill="none" xmlns="http://www.w3.org/2000/svg">
<path d="M0.131611 12.9791V43.5107C0.131611 44.3328 0.84955 45 1.73404 45H43.3976C44.2822 45 45 44.3327 45 43.5107V12.9791H0.131611Z" fill="#ECF0F1"/>
<path d="M43.266 4.30658H32.8501H12.0183H1.60243C0.717848 4.30658 0 5.04862 0 5.96281V13.4159H44.8685V5.96291C44.8684 5.04862 44.1505 4.30658 43.266 4.30658Z" fill="#00BFA5"/>
<path d="M14.8229 4.96881H12.4192C11.9769 4.96881 11.6179 4.59863 11.6179 4.14064C11.6179 3.68266 11.9769 3.31248 12.4192 3.31248H14.8229C15.2652 3.31248 15.6242 3.68266 15.6242 4.14064C15.6242 4.59863 15.2652 4.96881 14.8229 4.96881Z" fill="#ECF0F1"/>
<path d="M15.6242 8.28127C15.1819 8.28127 14.8229 7.91109 14.8229 7.45311C14.8229 6.99512 15.1819 6.62494 15.6242 6.62494C16.9494 6.62494 18.0278 5.51028 18.0278 4.14054C18.0278 2.77081 16.9494 1.65614 15.6242 1.65614C14.2989 1.65614 13.2205 2.77081 13.2205 4.14054C13.2205 4.59853 12.8615 4.96871 12.4192 4.96871C11.9769 4.96871 11.6179 4.59853 11.6179 4.14054C11.618 1.85746 13.4152 0 15.6242 0C17.8332 0 19.6303 1.85746 19.6303 4.14064C19.6303 6.42381 17.8331 8.28127 15.6242 8.28127Z" fill="#ECF0F1"/>
<path d="M20.4314 8.28127C19.9892 8.28127 19.6302 7.91109 19.6302 7.45311C19.6302 6.99512 19.9892 6.62494 20.4314 6.62494C21.7567 6.62494 22.8351 5.51028 22.8351 4.14054C22.8351 2.77081 21.7567 1.65614 20.4314 1.65614C19.9892 1.65614 19.6302 1.28596 19.6302 0.827977C19.6302 0.369991 19.9892 0 20.4314 0C22.6405 0 24.4376 1.85746 24.4376 4.14064C24.4376 6.42381 22.6405 8.28127 20.4314 8.28127Z" fill="#ECF0F1"/>
<path d="M25.2388 8.28127C24.7965 8.28127 24.4376 7.91109 24.4376 7.45311C24.4376 6.99512 24.7965 6.62494 25.2388 6.62494C26.5641 6.62494 27.6425 5.51028 27.6425 4.14054C27.6425 2.77081 26.5641 1.65614 25.2388 1.65614C24.7965 1.65614 24.4376 1.28596 24.4376 0.827977C24.4376 0.369991 24.7965 0 25.2388 0C27.4478 0 29.2449 1.85746 29.2449 4.14064C29.2449 6.42381 27.4477 8.28127 25.2388 8.28127Z" fill="#ECF0F1"/>
<path d="M30.0461 8.28127C29.6038 8.28127 29.2449 7.91109 29.2449 7.45311C29.2449 6.99512 29.6038 6.62494 30.0461 6.62494C31.3714 6.62494 32.4498 5.51028 32.4498 4.14054C32.4498 2.77081 31.3714 1.65614 30.0461 1.65614C29.6038 1.65614 29.2449 1.28596 29.2449 0.827977C29.2449 0.369991 29.6038 0 30.0461 0C32.2551 0 34.0522 1.85746 34.0522 4.14064C34.0522 6.42381 32.2551 8.28127 30.0461 8.28127Z" fill="#ECF0F1"/>
<path d="M24.8379 31.2207H20.0305L18.4281 27.0801L22.4342 23.7676L26.4403 27.0801L24.8379 31.2207Z" fill="#35495E"/>
<path d="M19.2293 34.5332H14.422L14.3939 35.989C15.599 37.2693 17.086 38.2614 18.7534 38.8601L20.4199 38.1446L19.2293 34.5332Z" fill="#35495E"/>
<path d="M15.2959 25.7999L14.8416 21.1119L13.1959 21.3339C12.0662 23.0266 11.3611 25.0439 11.2385 27.2227L11.6015 27.939L15.2959 25.7999Z" fill="#35495E"/>
<path d="M29.5725 25.7999L30.0267 21.1119L31.6725 21.3339C32.8022 23.0266 33.5072 25.0439 33.6299 27.2227L33.2669 27.939L29.5725 25.7999Z" fill="#35495E"/>
<path d="M20.0305 31.2207L18.4281 27.0801L22.4342 23.7676L26.4403 27.0801L24.8379 31.2207H20.0305ZM33.6184 27.2449L33.2675 27.9388L29.5723 25.7997L30.0274 21.1117L31.6691 21.3345C30.1203 19.0149 27.7735 17.3165 25.0414 16.6424C25.0406 16.6498 25.0397 16.6573 25.0382 16.6655H25.039L25.6391 17.9607L22.4342 20.455L19.2293 17.9706L19.5234 16.7227C16.9202 17.4448 14.6904 19.1011 13.1994 21.3345L14.8411 21.1117L15.2962 25.7997L11.6009 27.9388L11.25 27.2449C11.2372 27.466 11.2172 27.6838 11.2172 27.9082C11.2172 31.0502 12.4311 33.8948 14.394 35.9833L14.422 34.5333H19.2294L20.4201 38.1447L18.7655 38.8552C19.9169 39.2668 21.1475 39.502 22.4344 39.502C28.6294 39.502 33.6515 34.3113 33.6515 27.9082C33.6513 27.6837 33.6313 27.466 33.6184 27.2449Z" fill="#BDC3C7"/>
<path d="M19.5262 16.7099L19.229 17.9704L22.4338 20.4548L25.6387 17.9613L25.0417 16.6421C24.1845 16.4185 23.2863 16.3225 22.364 16.3158C21.3827 16.3223 20.4324 16.459 19.5262 16.7099Z" fill="#35495E"/>
<path d="M30.556 35.9015L30.5223 34.6055H26.5162L24.5236 38.217L26.0684 38.8803C27.8166 38.2385 29.3445 37.2381 30.556 35.9015Z" fill="#35495E"/>
</svg>
