<svg width="77" height="114" viewBox="0 0 77 114" fill="none" xmlns="http://www.w3.org/2000/svg">
<path d="M74.2256 7.15092L71.5056 7.1268L68.44 7.77536C68.44 7.77536 63.5312 8.24704 62.904 8.74284L55.7008 14.4432L47.2368 18.5543L50.9584 23.3783L59.3648 18.5356L66.0848 10.4554C66.0848 10.4554 67.8768 11.656 68.9968 11.388C69.6952 11.1983 70.4182 11.0795 71.1504 11.0342C71.3552 11.0342 73.7936 10.643 73.7936 10.643C73.7894 10.5384 73.746 10.4377 73.6696 10.355C73.5932 10.2722 73.4877 10.2117 73.368 10.182C72.92 10.0319 70.8656 10.056 70.7408 10.04C70.6068 10.0181 70.4801 9.97203 70.3695 9.90491C70.259 9.83779 70.1673 9.75125 70.1008 9.65136C70.1008 9.63528 70.1008 9.62188 70.1008 9.6058C70.0992 9.59243 70.0992 9.57896 70.1008 9.5656C70.0698 9.37081 70.0806 9.17295 70.1328 8.98136L70.0944 9.46644L70.9872 8.8018H72.7344L73.4512 9.6058C73.4512 9.6058 74.04 9.54148 73.9568 9.25472C73.7462 8.86118 73.4934 8.48444 73.2016 8.12912L72.1552 7.92544L72.2128 7.88256C72.7888 7.88256 74.0304 7.8638 74.3184 7.7164C74.8016 7.46716 74.2256 7.15092 74.2256 7.15092Z" fill="#AA6550"/>
<path d="M57.5152 17.5091C57.1437 17.3017 56.8506 17.0097 56.6704 16.6676C56.4411 16.3441 56.3298 15.9714 56.3504 15.5956C56.4016 15.5956 56.4912 16.0726 56.8144 16.6006C57.1376 17.1286 57.56 17.477 57.5152 17.5091Z" fill="#723C31"/>
<path d="M47.5376 8.40248C47.5664 8.20148 47.5664 7.94688 47.3488 7.86648C47.2662 7.83659 47.1762 7.82373 47.0864 7.82896C46.6899 7.82441 46.2936 7.84952 45.9024 7.904C45.7832 7.92536 45.66 7.92536 45.5408 7.904C45.4032 7.87452 45.2912 7.78608 45.1536 7.75392C44.6224 7.62796 44.1328 8.3596 43.6464 8.14252C43.2656 7.97368 43.4384 7.45108 43.1632 7.17504C42.9296 6.9392 42.472 6.97404 42.184 6.78376C42.0307 6.65011 41.8985 6.50061 41.7904 6.33888C41.5824 6.10572 41.256 5.93688 41.1504 5.66084C41.113 5.50725 41.0915 5.35122 41.0864 5.19452C41.0533 5.11134 41.0009 5.03444 40.9323 4.96822C40.8636 4.902 40.7801 4.84776 40.6864 4.8086L40.9168 4.82468C41.1728 4.82468 41.5088 4.889 41.5184 5.09268C41.6138 5.0234 41.7316 4.97931 41.8568 4.96595C41.9821 4.9526 42.1093 4.97058 42.2224 5.01764C42.4459 5.11575 42.6887 5.1793 42.9392 5.20524C43.0832 5.20524 43.2272 5.16236 43.3712 5.1704C43.5173 5.19522 43.656 5.24428 43.7791 5.31471C43.9022 5.38513 44.0073 5.47548 44.088 5.58044C44.2608 5.35264 44.664 5.36336 44.9648 5.45984C45.2465 5.59323 45.5603 5.67199 45.8832 5.69032C46.2032 5.6662 46.4912 5.32048 46.264 5.1302C45.7776 4.87828 45.0416 5.1302 44.6352 4.79788C44.5264 4.70944 44.4464 4.5808 44.296 4.554C44.2192 4.554 44.1392 4.554 44.0624 4.554C43.8384 4.52988 43.7072 4.3128 43.4864 4.26992C43.2656 4.22704 43.1056 4.33424 42.9232 4.29404C42.6832 4.23776 42.5712 3.96172 42.3248 3.93492C42.1744 3.91884 42.0336 4.0046 41.88 4.02068C41.4832 4.06624 41.1856 3.64548 40.7824 3.65888C40.5232 3.65888 40.3024 3.8572 40.0464 3.8438C39.8595 3.81516 39.6894 3.73497 39.5632 3.616C39.3239 3.44014 39.0485 3.30212 38.7504 3.20864C38.3207 3.07603 37.8639 3.01591 37.4064 3.03176C37.4205 3.00244 37.4365 2.97381 37.4544 2.946C37.4927 2.90496 37.5412 2.87129 37.5964 2.84725C37.6516 2.82321 37.7123 2.80936 37.7744 2.80664C38.5825 2.6684 39.4085 2.61796 40.232 2.65656C40.4069 2.68313 40.5873 2.65652 40.7408 2.58152C40.8592 2.5038 40.9264 2.35908 41.0608 2.343C41.1952 2.32692 41.2752 2.40464 41.3808 2.42876C41.7552 2.50916 42.1008 2.0482 42.4528 2.17684C42.552 2.21436 42.6288 2.29208 42.7344 2.29744C42.8912 2.29744 42.984 2.15808 43.1184 2.09108C43.3267 2.02844 43.5558 2.03516 43.7584 2.10984C43.9728 2.15004 44.2576 2.1286 44.328 1.95708C44.3444 1.88242 44.3302 1.80531 44.2878 1.73821C44.2455 1.67111 44.1773 1.61792 44.0944 1.58724C43.894 1.4907 43.6574 1.46103 43.432 1.50416C43.3174 1.54069 43.1962 1.56062 43.0736 1.56312C42.8784 1.54436 42.7312 1.38624 42.5328 1.3648C42.2128 1.33532 41.9376 1.68104 41.6368 1.58724C41.5184 1.54972 41.4352 1.45056 41.3168 1.42108C40.9712 1.338 40.6768 1.86596 40.3568 1.71856C40.2384 1.66228 40.1872 1.5256 40.056 1.49612C39.8 1.43716 39.736 1.80968 39.496 1.9142C39.256 2.01872 38.9776 1.78288 38.6928 1.7668C38.2544 1.74268 37.9664 2.26796 37.5312 2.21972C37.3914 2.18745 37.2571 2.14063 37.1312 2.08036C36.984 2.03346 36.8234 2.02447 36.67 2.05456C36.5166 2.08464 36.3775 2.15242 36.2704 2.2492C36.1999 2.33664 36.1147 2.41516 36.0176 2.48236C35.752 2.61904 35.4032 2.42072 35.1024 2.48236C34.6832 2.56812 34.5488 3.09072 34.1232 3.147C33.9872 3.15445 33.8507 3.14175 33.72 3.10948C33.5874 3.09339 33.4526 3.09339 33.32 3.10948C33.3671 2.63054 33.6141 2.18079 34.0176 1.83916C34.3076 1.61425 34.6301 1.42068 34.9776 1.26296C35.0972 1.19701 35.2262 1.14389 35.3616 1.10484C35.4615 1.08472 35.5632 1.07127 35.6656 1.06464C35.971 1.03235 36.2728 0.979469 36.568 0.906519C36.6646 0.886305 36.7565 0.852796 36.84 0.807359C36.8982 0.770609 36.9448 0.722524 36.9758 0.667275C37.0068 0.612026 37.0212 0.55128 37.0178 0.490308C37.0144 0.429336 36.9933 0.369978 36.9563 0.317383C36.9193 0.264787 36.8676 0.220544 36.8056 0.188488C36.7435 0.156433 36.6731 0.137535 36.6004 0.133432C36.5277 0.12933 36.4549 0.140147 36.3883 0.164946C36.3217 0.189745 36.2633 0.227776 36.2182 0.275742C36.1732 0.323707 36.1427 0.380159 36.1296 0.440199C36.1043 0.398212 36.0681 0.361482 36.0237 0.332685C35.9793 0.303888 35.9278 0.28375 35.8729 0.273737C35.818 0.263724 35.7612 0.264088 35.7065 0.274803C35.6518 0.285519 35.6007 0.306316 35.5568 0.335678C35.4608 0.413398 35.4128 0.533999 35.2944 0.587599C35.176 0.641199 34.9744 0.574199 34.7824 0.558119C34.6955 0.554757 34.6087 0.567399 34.5283 0.595153C34.4478 0.622908 34.3756 0.6651 34.3167 0.718758C34.2578 0.772416 34.2137 0.836236 34.1875 0.905719C34.1612 0.975203 34.1535 1.04866 34.1648 1.12092C34.11 1.09231 34.0488 1.07332 33.9849 1.06512C33.9211 1.05691 33.8559 1.05966 33.7934 1.0732C33.7308 1.08673 33.6722 1.11077 33.6211 1.14385C33.57 1.17693 33.5274 1.21836 33.496 1.26564C33.4386 1.36519 33.4148 1.47601 33.4272 1.58608C33.4396 1.69616 33.4877 1.80129 33.5664 1.89008C33.4956 1.86564 33.4198 1.8532 33.3433 1.85346C33.2667 1.85373 33.191 1.86669 33.1205 1.89161C33.0499 1.91653 32.986 1.95291 32.9324 1.99865C32.8788 2.04439 32.8365 2.09858 32.808 2.15808C32.7408 2.30816 32.7632 2.4904 32.6352 2.611C32.5814 2.65127 32.5247 2.68885 32.4656 2.72356C32.1744 2.91652 32.1776 3.25956 32.2864 3.57848C32.1584 3.70258 32.0606 3.84642 31.9984 4.00192H31.9376C31.6865 3.92971 31.415 3.92335 31.1594 3.98368C30.9039 4.04401 30.6763 4.16817 30.5072 4.3396C30.3908 4.47624 30.2647 4.6069 30.1296 4.73088C29.8448 4.94528 29.4288 4.97744 29.1984 5.24008C29.0864 5.36604 29.0288 5.53756 28.8784 5.63404C28.7527 5.69409 28.6167 5.73749 28.4752 5.76268C28.3032 5.83101 28.1594 5.94061 28.0619 6.07756C27.9645 6.21452 27.9179 6.37264 27.928 6.53184C27.9287 6.63611 27.9549 6.73916 28.0048 6.83468C27.9917 6.9249 27.9461 7.00963 27.8741 7.07761C27.802 7.14559 27.707 7.19359 27.6016 7.21524C27.4032 7.2474 27.1696 7.18844 27.0224 7.301C26.8752 7.41356 26.9744 7.73516 26.8272 7.91472C26.6416 8.14252 26.1392 8.02728 25.9536 8.25508C25.768 8.48288 25.9536 8.8152 25.6656 8.87952C25.6048 8.87952 25.5344 8.87952 25.4864 8.91704C25.4384 8.95456 25.464 9.0966 25.4416 9.18504C25.3936 9.3914 24.984 9.35924 24.8496 9.53612C24.7472 9.66744 24.8496 9.83628 24.8976 9.98904C24.9456 10.1418 24.8464 10.3642 24.6672 10.3267C24.84 10.3535 24.92 10.5277 24.9328 10.6778C24.9174 10.8266 24.9517 10.976 25.032 11.1093C25.0813 11.1533 25.1273 11.1998 25.1696 11.2486C25.2182 11.3413 25.2305 11.4445 25.2048 11.5434C25.1696 11.7846 25.1376 12.0285 25.1024 12.2697C25.0672 12.5109 25.1504 12.8272 25.4224 12.8057C25.5152 12.8057 25.6048 12.7387 25.6944 12.7602C25.784 12.7816 25.8224 12.8593 25.9056 12.8808C26.0976 12.9317 26.1584 12.6717 26.1296 12.5056C26.0624 12.1055 26.1231 11.6977 26.3056 11.3237C26.3658 11.2222 26.4078 11.1138 26.4304 11.0021C26.4074 10.8018 26.3514 10.6052 26.264 10.4178C26.1616 10.0051 26.4592 9.61384 26.7408 9.25472C26.9474 8.98369 27.196 8.73677 27.48 8.5204C27.6471 8.40859 27.8224 8.30565 28.0048 8.2122C27.882 8.36741 27.8143 8.54864 27.8096 8.7348C27.8274 8.80549 27.8274 8.87851 27.8096 8.9492C27.7736 9.00177 27.7203 9.04457 27.656 9.07248C27.336 9.25204 27.032 9.60848 27.1728 9.94884C27.2272 10.0694 27.3296 10.1686 27.3744 10.2919C27.4018 10.4419 27.4178 10.5931 27.4224 10.7448C27.445 10.8366 27.4782 10.9264 27.5216 11.0128L27.688 11.3585C27.817 11.6806 28.0167 11.9796 28.2768 12.2402C28.3601 12.2983 28.4277 12.3704 28.4752 12.452C28.5168 12.5458 28.4976 12.653 28.5296 12.7494C28.5678 12.8244 28.6246 12.8916 28.6964 12.9466C28.7681 13.0016 28.8531 13.0431 28.9456 13.0684L30.5616 13.7035C30.6741 13.7552 30.7985 13.7863 30.9264 13.7946C31.0416 13.7946 31.1504 13.7518 31.2624 13.7437C31.6016 13.7169 31.9024 13.9849 32.2384 14.0117C32.3876 14.0165 32.5346 13.9807 32.6575 13.9097C32.7803 13.8387 32.8724 13.7363 32.92 13.6178L32.664 9.53076L32.9584 8.0648L34.0816 6.78108L39.2016 5.08464L41.7616 8.07284C42.2555 8.36302 42.7937 8.59647 43.3616 8.76696C43.4973 8.82013 43.6486 8.83877 43.7968 8.82056C43.9632 8.78304 44.1008 8.65976 44.2736 8.6678C44.4464 8.67584 44.5392 8.77232 44.68 8.75624C44.8208 8.74016 44.9424 8.57668 45.1056 8.57936C45.1853 8.59131 45.2628 8.61204 45.336 8.641C45.5126 8.65265 45.6894 8.62099 45.8448 8.54988C46.4848 8.37568 47.1248 8.6946 47.672 9.00012C47.7745 8.95901 47.8613 8.89492 47.9229 8.81497C47.9845 8.73501 48.0183 8.64232 48.0208 8.5472C48.0016 8.35692 47.64 8.239 47.5376 8.40248Z" fill="#263238"/>
<path d="M49.3232 11.4014C49.2016 11.179 48.8048 11.2781 48.5584 11.4014C48.6384 11.2647 48.3696 11.1575 48.2032 11.2192C48.0368 11.2808 47.9056 11.4202 47.7232 11.4309C47.6454 11.4334 47.5675 11.4253 47.4928 11.4068C47.2219 11.3669 46.9429 11.4117 46.7088 11.5327C46.5488 11.6158 46.36 11.7364 46.2 11.656C46.04 11.5756 46.056 11.4362 45.9472 11.3505C45.7136 11.1656 45.3072 11.4255 45.0192 11.3156C44.7312 11.2058 44.6768 10.7555 44.3472 10.7475C44.1328 10.7475 43.9824 10.9538 43.768 10.9699C43.496 10.9914 43.3424 10.7019 43.3296 10.4741C43.3168 10.2463 43.3296 9.97028 43.112 9.83092L42.328 11.0423C42.3527 11.1437 42.4093 11.2376 42.492 11.3145C42.5748 11.3913 42.6805 11.4481 42.7984 11.4791C42.8965 11.4908 42.9898 11.522 43.0704 11.5702C43.144 11.6319 43.1536 11.7284 43.208 11.8007C43.2725 11.8638 43.3541 11.913 43.446 11.9442C43.5378 11.9755 43.6373 11.9878 43.736 11.9803C44.056 11.9803 44.4048 11.9964 44.5936 12.2027C44.6378 12.2656 44.6904 12.324 44.7504 12.3769C44.8229 12.4073 44.9029 12.4232 44.984 12.4232C45.0651 12.4232 45.1451 12.4073 45.2176 12.3769C45.6137 12.2692 46.0207 12.1921 46.4336 12.1464C46.5908 12.1183 46.7533 12.1183 46.9104 12.1464C47.0864 12.1893 47.2528 12.3019 47.432 12.2617C47.5397 12.2224 47.635 12.1628 47.7104 12.0875C47.9055 11.9334 48.1569 11.839 48.424 11.8195C48.63 11.8251 48.836 11.8116 49.0384 11.7793C49.24 11.7391 49.4064 11.5595 49.3232 11.4014Z" fill="#263238"/>
<path d="M32.4848 12.46C32.4304 12.4412 30.2768 11.9508 30.3888 13.7786C30.5008 15.6063 32.6672 15.14 32.6672 15.0864C32.6672 15.0328 32.4848 12.46 32.4848 12.46Z" fill="#AA6550"/>
<path d="M31.96 14.4164C31.96 14.4164 31.9216 14.4405 31.8608 14.4673C31.7721 14.504 31.6698 14.5097 31.576 14.4834C31.4314 14.4135 31.311 14.3132 31.2268 14.1924C31.1427 14.0716 31.0976 13.9345 31.096 13.7946C31.0835 13.638 31.1108 13.4809 31.176 13.3337C31.192 13.2739 31.2251 13.2182 31.2725 13.1716C31.3199 13.1249 31.3801 13.0885 31.448 13.0657C31.4912 13.0547 31.5376 13.0565 31.5795 13.0706C31.6214 13.0847 31.6563 13.1104 31.6784 13.1434C31.7104 13.1943 31.6976 13.2318 31.7104 13.2345C31.7232 13.2372 31.7552 13.2024 31.7328 13.1273C31.719 13.0817 31.6861 13.0417 31.64 13.0148C31.5779 12.9801 31.5023 12.9666 31.4288 12.9772C31.3399 12.9958 31.2583 13.0331 31.1916 13.0856C31.1249 13.1382 31.0755 13.2042 31.048 13.2774C30.9625 13.4399 30.9273 13.6178 30.9456 13.7946C30.9445 13.9578 31.0011 14.1176 31.1081 14.254C31.2152 14.3904 31.3679 14.4972 31.5472 14.5611C31.6069 14.5727 31.6689 14.573 31.7287 14.5618C31.7885 14.5507 31.8446 14.5285 31.8928 14.4968C31.96 14.4593 31.96 14.4191 31.96 14.4164Z" fill="#723C31"/>
<path d="M36.6928 4.10912C36.6928 4.10912 30.904 4.48164 30.68 7.88792C30.456 11.2942 32.5104 13.2479 32.5104 13.2479L33.8416 7.35192L37.6432 5.85112L41.0032 5.81896C41.0032 5.81896 40.296 4.0716 36.6928 4.10912Z" fill="#00BFA5"/>
<path d="M43.7168 15.8582C43.7168 14.5638 43.4288 11.9026 43.144 9.49592C42.9963 8.24803 42.293 7.09246 41.1741 6.25916C40.0552 5.42586 38.6027 4.97593 37.1056 4.99888H36.7856C33.464 5.2106 31.8256 7.69496 32.1712 10.4714L32.6576 21.773L40.6768 23.8018L40.5392 18.9965C40.5392 18.9965 43.736 18.5356 43.7168 15.8582Z" fill="#AA6550"/>
<path d="M40.552 18.9992C39.0758 19.0454 37.6165 18.7226 36.36 18.0719C36.36 18.0719 37.3904 19.9828 40.5744 19.6799L40.552 18.9992Z" fill="#723C31"/>
<path d="M42.2896 11.4309C42.2931 11.5305 42.2498 11.6273 42.169 11.7004C42.0883 11.7736 41.9764 11.8173 41.8576 11.8222C41.7997 11.8269 41.7412 11.8219 41.6856 11.8074C41.63 11.7929 41.5784 11.7692 41.534 11.7377C41.4895 11.7063 41.4531 11.6676 41.4267 11.6241C41.4004 11.5806 41.3848 11.5331 41.3808 11.4845C41.3773 11.3853 41.4201 11.2889 41.5002 11.2158C41.5803 11.1427 41.6913 11.0987 41.8096 11.0932C41.8678 11.088 41.9267 11.0928 41.9826 11.1071C42.0386 11.1214 42.0905 11.145 42.1353 11.1766C42.1801 11.2081 42.2169 11.2469 42.2434 11.2906C42.2699 11.3343 42.2856 11.382 42.2896 11.4309Z" fill="#263238"/>
<path d="M42.52 10.6751C42.4656 10.7234 42.1136 10.5143 41.624 10.525C41.1344 10.5358 40.776 10.7448 40.7216 10.6939C40.6672 10.643 40.7504 10.5813 40.904 10.4848C41.1143 10.357 41.3673 10.2876 41.6272 10.2865C41.8819 10.2809 42.132 10.3438 42.3408 10.4661C42.52 10.5626 42.5584 10.651 42.52 10.6751Z" fill="#263238"/>
<path d="M37.4512 11.589C37.4547 11.6886 37.4114 11.7854 37.3306 11.8585C37.2499 11.9317 37.138 11.9754 37.0192 11.9803C36.9047 11.99 36.7902 11.9614 36.7008 11.9006C36.6115 11.8398 36.5545 11.7519 36.5424 11.656C36.5389 11.5561 36.5821 11.4591 36.6628 11.3855C36.7435 11.3119 36.8553 11.2676 36.9744 11.262C37.0314 11.2572 37.0889 11.2619 37.1437 11.2757C37.1985 11.2895 37.2495 11.3123 37.2938 11.3427C37.3381 11.373 37.3748 11.4104 37.4018 11.4527C37.4288 11.495 37.4456 11.5413 37.4512 11.589Z" fill="#263238"/>
<path d="M37.6304 10.6349C37.5824 10.6885 37.208 10.5143 36.7184 10.5652C36.2288 10.6162 35.9056 10.8627 35.8448 10.8172C35.784 10.7716 35.8608 10.7019 36.0016 10.592C36.1929 10.4444 36.4346 10.3507 36.6928 10.324C36.9455 10.2952 37.2026 10.3356 37.4256 10.4393C37.592 10.525 37.656 10.6081 37.6304 10.6349Z" fill="#263238"/>
<path d="M39.5088 13.9903C39.7655 13.9179 40.0322 13.8738 40.3024 13.859C40.4272 13.859 40.5456 13.8214 40.5648 13.7491C40.574 13.641 40.5427 13.5333 40.4752 13.4409L40.088 12.6369C39.5472 11.5059 39.1536 10.576 39.208 10.5572C39.2624 10.5384 39.7456 11.4416 40.2864 12.5726L40.6576 13.3766C40.7398 13.5015 40.7659 13.6469 40.7312 13.7866C40.7139 13.8239 40.6867 13.8575 40.6518 13.8848C40.617 13.9122 40.5752 13.9326 40.5296 13.9447C40.46 13.9619 40.3878 13.9709 40.3152 13.9715C40.0485 14.0066 39.7775 14.0129 39.5088 13.9903Z" fill="#263238"/>
<path d="M38.0688 14.2985C38.1488 14.2985 38.1584 14.738 38.6224 15.0489C39.0864 15.3598 39.6528 15.3008 39.6592 15.3624C39.6656 15.4241 39.5344 15.4509 39.2944 15.4616C38.9817 15.4705 38.6755 15.3859 38.4304 15.2231C38.194 15.0683 38.039 14.8423 37.9984 14.5933C37.976 14.4084 38.04 14.2958 38.0688 14.2985Z" fill="#263238"/>
<path d="M37.6592 8.85808C37.6144 8.97064 37.1216 8.92508 36.5456 8.99208C35.9696 9.05908 35.5088 9.19844 35.4288 9.09928C35.3936 9.05104 35.4736 8.94384 35.6592 8.83128C35.9034 8.68749 36.1856 8.59552 36.4816 8.56328C36.7766 8.52925 37.077 8.55404 37.3584 8.63564C37.5696 8.708 37.6784 8.80448 37.6592 8.85808Z" fill="#263238"/>
<path d="M42.28 9.62724C42.1936 9.72104 41.8544 9.62724 41.4448 9.62724C41.0352 9.62724 40.696 9.69959 40.616 9.60311C40.5776 9.55755 40.616 9.46376 40.7792 9.37264C40.9776 9.26156 41.2109 9.20227 41.4496 9.20227C41.6883 9.20227 41.9216 9.26156 42.12 9.37264C42.2672 9.4852 42.3152 9.58168 42.28 9.62724Z" fill="#263238"/>
<path d="M39.4416 4.71212C38.312 4.3396 37.1664 4.53792 35.9664 4.68532C35.0399 4.78074 34.1583 5.07423 33.4064 5.53756C32.1904 6.28796 31.5888 7.48592 31.5216 8.75356C31.4563 9.96925 31.616 11.1861 31.9952 12.3608L32.1136 12.3367C32.0076 12.6407 32.0021 12.963 32.0976 13.2694C32.1525 13.4195 32.2752 13.5458 32.4395 13.6213C32.6038 13.6969 32.7969 13.7158 32.9776 13.674C33.3808 13.524 33.3936 13.0603 33.3584 12.6932C33.2335 11.4425 33.2754 10.1841 33.4832 8.94116C33.5792 8.37032 33.7424 7.75392 34.2768 7.39212C34.7536 7.07052 35.4096 7.02764 36.008 6.9258C37.0128 6.75428 37.9568 6.3898 38.9648 6.23436C39.9728 6.07892 41.256 6.2558 41.9056 6.91776C41.672 5.91544 40.5744 5.08464 39.4416 4.71212Z" fill="#263238"/>
<path d="M34.9552 18.8572C34.9168 18.6562 34.6864 18.5222 34.488 18.4042C33.9311 18.0798 33.4359 17.6867 33.0192 17.2384C32.9573 17.163 32.8817 17.0961 32.7952 17.0401C32.7101 16.9929 32.6174 16.9559 32.52 16.9302C31.7511 16.6744 31.1144 16.2 30.7216 15.5902C30.3934 14.989 30.189 14.3457 30.1168 13.6874C30.088 13.5186 30.0592 13.3498 30.0272 13.1809C29.9248 12.5967 29.7744 11.9454 29.192 11.6104L28.2544 11.7525C27.9504 11.8999 28.056 12.2885 28.2544 12.5324C28.4528 12.7762 28.7248 13.0335 28.632 13.3176C28.578 13.4112 28.5434 13.5118 28.5296 13.6151C28.552 13.8831 29.0736 13.9367 29.1056 14.1966C29.1056 14.3521 28.9456 14.4861 28.9584 14.6415C28.9712 14.797 29.224 14.9095 29.3392 15.0757C29.5024 15.2954 29.3712 15.6117 29.5152 15.8314C29.6592 16.0512 30.1552 16.1718 30.2288 16.4586C30.28 16.6462 30.136 16.8364 30.1456 17.0294C30.1625 17.1559 30.2128 17.2776 30.2928 17.3858C30.4464 17.6324 30.632 17.9031 30.9552 17.9701C31.1216 18.0049 31.3008 17.9701 31.4704 18.0103C31.64 18.0505 31.8224 18.147 32.008 18.1898C32.1936 18.2327 32.4432 18.1738 32.4784 18.0156C32.7376 18.08 32.856 18.3185 32.9936 18.5114C33.1312 18.7044 33.4256 18.884 33.6336 18.7607C33.669 18.895 33.7472 19.0187 33.8599 19.1188C33.9726 19.2188 34.1156 19.2914 34.2736 19.3288C34.3571 19.3467 34.4445 19.3478 34.5286 19.332C34.6126 19.3163 34.6911 19.2841 34.7575 19.2381C34.824 19.1921 34.8765 19.1337 34.9109 19.0675C34.9452 19.0013 34.9604 18.9292 34.9552 18.8572Z" fill="#263238"/>
<path d="M35.4064 15.5929C35.0864 15.3919 34.6736 15.2231 34.5712 14.8961C34.5536 14.8045 34.5246 14.7147 34.4848 14.6281C34.3984 14.4941 34.2 14.4378 34.0944 14.3146C34.0358 14.2242 33.9886 14.129 33.9536 14.0305C33.8954 13.9253 33.8016 13.8367 33.6839 13.7757C33.5661 13.7147 33.4296 13.684 33.2912 13.6874C33.2975 13.6278 33.2887 13.5678 33.2656 13.5112C33.2425 13.4545 33.2055 13.4026 33.157 13.3587C33.1085 13.3148 33.0495 13.2798 32.9839 13.2561C32.9183 13.2324 32.8475 13.2205 32.776 13.2211C32.824 12.6503 32.4144 12.133 32.0208 11.6667L31.672 11.2567C31.6068 11.1832 31.551 11.1041 31.5056 11.0208C31.4715 10.9335 31.4468 10.8438 31.432 10.7528C31.1887 9.99195 30.8363 9.25854 30.3824 8.56864L30.1072 10.9431C30.0528 11.1921 30.0528 11.4472 30.1072 11.6962C30.1366 11.8216 30.2064 11.9378 30.3091 12.0323C30.4117 12.1268 30.5433 12.1959 30.6896 12.2322C30.8005 12.2366 30.9093 12.2593 31.0096 12.2992C31.208 12.4144 31.112 12.669 31.1344 12.87C31.1792 13.339 31.9184 13.5668 32.04 14.0251C32.1264 14.3601 31.896 14.8104 32.2416 14.9953C32.3408 15.0489 32.4656 15.0596 32.5616 15.1052C32.7856 15.2043 32.8816 15.4348 33.032 15.5983C33.1824 15.7618 33.5888 15.8073 33.6464 15.5983C33.7872 15.8368 34.1936 15.8475 34.44 16.0164C34.549 16.1039 34.6466 16.201 34.7312 16.3058C34.9744 16.5577 35.4736 16.7024 35.7264 16.4612C35.9792 16.22 35.7264 15.7966 35.4064 15.5929Z" fill="#263238"/>
<path d="M33.24 13.8322C33.1871 13.7575 33.1462 13.6773 33.1184 13.5936L32.9936 13.3096C32.9707 13.2553 32.9372 13.2046 32.8944 13.1595C32.8464 13.1139 32.7888 13.0871 32.7408 13.1112L32.6352 13.1595L32.6576 13.055C32.6756 12.9479 32.6474 12.8389 32.5783 12.7476C32.5091 12.6562 32.4034 12.5885 32.28 12.5565C32.2346 12.5399 32.1934 12.5162 32.1584 12.4868C32.1201 12.4513 32.0976 12.4059 32.0944 12.3582C32.0975 12.2934 32.0911 12.2286 32.0752 12.1652C32.0518 12.1071 32.0094 12.0557 31.9528 12.0169C31.8963 11.978 31.8278 11.9533 31.7552 11.9454L31.64 11.924L31.72 11.8302C31.8416 11.6908 31.7008 11.4818 31.5984 11.2728C31.5506 11.1782 31.5214 11.0777 31.512 10.9753C31.513 10.8852 31.5023 10.7954 31.48 10.7073C31.4686 10.6721 31.4467 10.64 31.4165 10.6137C31.3863 10.5875 31.3487 10.5681 31.3072 10.5572C31.2498 10.5379 31.1977 10.5089 31.1542 10.472C31.1107 10.4351 31.0767 10.3911 31.0544 10.3428C31.0198 10.1799 31.0005 10.0151 30.9968 9.84968C30.9616 9.71836 30.84 9.60044 30.7344 9.64064L30.6512 9.6728V9.59508C30.634 9.31947 30.5444 9.05044 30.3888 8.80716C30.2736 8.63564 30.1904 8.53916 30.2 8.53916C30.2096 8.53916 30.3152 8.60616 30.4496 8.775C30.6327 9.01723 30.7426 9.2932 30.7696 9.579L30.6832 9.53344C30.7344 9.51697 30.7903 9.51352 30.8438 9.52354C30.8973 9.53355 30.9461 9.55657 30.984 9.58972C31.0564 9.65165 31.1082 9.72832 31.1344 9.81216C31.1444 9.97198 31.1647 10.1312 31.1952 10.2892C31.2116 10.3217 31.236 10.351 31.2669 10.375C31.2978 10.399 31.3345 10.4173 31.3744 10.4286C31.4358 10.4478 31.4911 10.4786 31.536 10.5186C31.5809 10.5585 31.6143 10.6066 31.6336 10.659C31.6607 10.7548 31.6747 10.8528 31.6752 10.9512C31.681 11.0437 31.707 11.1345 31.752 11.2192C31.7968 11.321 31.8608 11.4202 31.8992 11.5354C31.9261 11.5959 31.9357 11.6609 31.9274 11.7251C31.9191 11.7893 31.893 11.851 31.8512 11.9052L31.7936 11.798C31.8963 11.8101 31.9928 11.8461 32.072 11.9021C32.1513 11.958 32.2101 12.0316 32.2416 12.1143C32.2636 12.1869 32.2712 12.262 32.264 12.3367C32.264 12.3876 32.2896 12.4037 32.36 12.4332C32.5078 12.4795 32.6313 12.5682 32.7086 12.6835C32.7859 12.7987 32.8121 12.9332 32.7824 13.063L32.6992 13.0094C32.7268 12.9988 32.7568 12.9933 32.7872 12.9933C32.8176 12.9933 32.8476 12.9988 32.8752 13.0094C32.9186 13.0297 32.9567 13.057 32.9872 13.0898C33.0363 13.1442 33.0722 13.2061 33.0928 13.272L33.1888 13.5642C33.2239 13.6504 33.2412 13.741 33.24 13.8322Z" fill="#455A64"/>
<path d="M31.6976 13.3471C31.4576 13.2545 31.2567 13.1031 31.1216 12.9129C31.0512 12.8298 30.9776 12.7387 30.904 12.6449C30.812 12.5383 30.7418 12.4197 30.696 12.2938C30.6736 12.2188 30.696 12.1384 30.6704 12.1009C30.6448 12.0634 30.6032 12.0285 30.5296 11.9856C30.3698 11.8862 30.2611 11.7396 30.2256 11.5756C30.2096 11.4872 30.2256 11.4228 30.1776 11.3934C30.1296 11.3639 30.0528 11.3183 29.9856 11.2674C29.8458 11.1734 29.7358 11.0518 29.6656 10.9136C29.6072 10.791 29.5789 10.6597 29.5824 10.5277C29.5824 10.4286 29.4896 10.375 29.4128 10.2812C29.2972 10.1465 29.2326 9.98595 29.2272 9.8202C29.2272 9.70496 29.2528 9.646 29.2624 9.646C29.2787 9.70133 29.2884 9.75789 29.2912 9.81484C29.3202 9.96368 29.394 10.1039 29.5056 10.2222C29.5408 10.2597 29.5824 10.2892 29.6304 10.3348C29.6827 10.387 29.7141 10.4517 29.72 10.5197C29.7265 10.6345 29.7591 10.7473 29.816 10.852C29.8785 10.9679 29.9715 11.0705 30.088 11.1522C30.165 11.1946 30.2377 11.2421 30.3056 11.2942C30.3598 11.3684 30.3886 11.4537 30.3888 11.5408C30.4186 11.6698 30.504 11.7853 30.6288 11.865C30.7154 11.908 30.7837 11.9727 30.824 12.05C30.8496 12.1464 30.824 12.2027 30.8464 12.2563C30.8851 12.3696 30.9445 12.4771 31.0224 12.5752C31.0928 12.6744 31.1568 12.7682 31.2208 12.8432C31.3627 13.022 31.5222 13.1905 31.6976 13.3471Z" fill="#455A64"/>
<path d="M29.0128 9.33244C29.0128 9.33244 28.9264 9.29492 28.8528 9.177C28.807 9.10384 28.7798 9.02355 28.7728 8.94116C28.7624 8.88598 28.7702 8.82947 28.7952 8.77768C28.8067 8.7551 28.8264 8.73608 28.8514 8.72329C28.8764 8.71051 28.9056 8.70459 28.9348 8.70636C28.9641 8.70813 28.992 8.7175 29.0145 8.73317C29.0371 8.74884 29.0533 8.77002 29.0608 8.79376L29.0928 8.89024L28.968 8.85272C28.8887 8.82393 28.8208 8.77694 28.7721 8.71718C28.7234 8.65743 28.6959 8.58734 28.6928 8.51504C28.6911 8.36701 28.7352 8.22113 28.8208 8.0916L28.8368 8.16932C28.772 8.11698 28.7246 8.0514 28.6992 7.97904C28.6474 7.81117 28.6474 7.63504 28.6992 7.46716C28.7171 7.3828 28.76 7.30355 28.824 7.23668C28.8593 7.20292 28.9042 7.17713 28.9545 7.16168C29.0048 7.14622 29.059 7.1416 29.112 7.14824L29.0288 7.19648C29.0671 7.00124 29.1628 6.81704 29.3072 6.66048C29.4128 6.5506 29.496 6.50772 29.5056 6.51576C29.3356 6.72559 29.22 6.96297 29.1664 7.21256V7.2742H29.0928C29.0651 7.27253 29.0373 7.27682 29.0121 7.28667C28.9869 7.29652 28.9651 7.3116 28.9488 7.33048C28.9043 7.38188 28.8757 7.44174 28.8656 7.50468C28.8241 7.65004 28.8241 7.80153 28.8656 7.94688C28.8828 7.9973 28.9147 8.04335 28.9584 8.08088L29.0032 8.11572L28.9776 8.1586C28.9029 8.2683 28.8612 8.39154 28.856 8.51772C28.8553 8.56639 28.8704 8.6143 28.8997 8.65632C28.929 8.69834 28.9714 8.73289 29.0224 8.75624L28.9488 8.81252C28.9488 8.842 28.9488 8.81252 28.9104 8.83664C28.8948 8.87272 28.8873 8.91086 28.888 8.9492C28.8882 9.02119 28.9022 9.09268 28.9296 9.16092C28.9712 9.26544 29.0256 9.32172 29.0128 9.33244Z" fill="#455A64"/>
<path d="M30.6224 8.2524C30.4881 8.11817 30.3909 7.96077 30.3376 7.79144C30.2602 7.60753 30.2077 7.41696 30.1808 7.22328C30.1651 7.10672 30.1576 6.98949 30.1584 6.8722C30.1575 6.80298 30.1705 6.73413 30.1968 6.66852C30.2109 6.62647 30.2383 6.58836 30.276 6.55819C30.3137 6.52802 30.3604 6.50689 30.4112 6.497L30.36 6.564C30.3574 6.38926 30.3977 6.21595 30.4784 6.0548C30.5076 5.99125 30.544 5.93022 30.5872 5.87256C30.6135 5.83395 30.6524 5.80236 30.6992 5.78144C30.7283 5.76736 30.7617 5.76083 30.7952 5.76268C30.8195 5.76392 30.8429 5.77052 30.8632 5.78182C30.8834 5.79312 30.8997 5.80871 30.9104 5.827L30.7568 5.87524C30.7116 5.74124 30.7135 5.59917 30.7623 5.46607C30.8112 5.33296 30.9048 5.21448 31.032 5.12484C31.1115 5.05017 31.1608 4.95637 31.1728 4.85684C31.2018 4.75415 31.2664 4.66092 31.3584 4.58884C31.4852 4.48795 31.6539 4.43222 31.8288 4.4334C31.9472 4.4334 32.0048 4.46556 32.0016 4.47092C31.9984 4.47628 31.9376 4.47092 31.832 4.47092C31.6804 4.48895 31.5406 4.5494 31.4352 4.64244C31.3653 4.70535 31.3177 4.78329 31.2976 4.86756C31.2976 4.91312 31.2752 4.96672 31.256 5.02568C31.2332 5.08827 31.1925 5.14528 31.1376 5.19184C31.0321 5.26721 30.9549 5.36648 30.9152 5.47773C30.8754 5.58897 30.8749 5.70746 30.9136 5.81896L30.7696 5.86452C30.8016 5.86452 30.7888 5.84576 30.7888 5.86452C30.7888 5.88328 30.7888 5.88596 30.7888 5.8806C30.7691 5.89043 30.7526 5.90425 30.7408 5.9208C30.705 5.97274 30.6729 6.02644 30.6448 6.0816C30.5735 6.22702 30.5365 6.38266 30.536 6.53988V6.6042H30.4688C30.3888 6.6042 30.3408 6.74088 30.3408 6.84808C30.3408 6.95528 30.3408 7.07856 30.3408 7.18308C30.3604 7.37039 30.3989 7.55598 30.456 7.73784C30.536 8.07016 30.6416 8.24436 30.6224 8.2524Z" fill="#455A64"/>
<path d="M35.6176 2.51452C35.4373 2.53157 35.26 2.56666 35.0896 2.61904C34.6812 2.78604 34.3455 3.05595 34.1296 3.39088L34.0912 3.44984L34.0176 3.415C33.9263 3.36888 33.8253 3.33794 33.72 3.32388C33.4389 3.29444 33.154 3.34141 32.9072 3.45788C32.6971 3.55011 32.5006 3.66254 32.3216 3.79288C32.1979 3.87433 32.1019 3.98152 32.0432 4.10376C32.0048 4.18952 32.0112 4.2458 31.9984 4.2458C31.9856 4.2458 31.96 4.1922 31.9984 4.09036C32.0382 3.94861 32.1273 3.81991 32.2544 3.72052C32.432 3.5758 32.631 3.45062 32.8464 3.348C33.1206 3.2111 33.4422 3.1563 33.7584 3.19256C33.8856 3.20807 34.0077 3.24548 34.1168 3.30244L34.0048 3.32388C34.2357 2.97056 34.6054 2.69501 35.0512 2.544C35.2279 2.47174 35.4316 2.46114 35.6176 2.51452Z" fill="#455A64"/>
<path d="M25.288 40.2516L19.6784 36.6256C19.6784 36.6256 13.848 43.0844 13.0288 44.5262C12.3408 45.7349 7.43841 51.8292 5.88001 53.7561L1.58241 56.4361L1.38401 57.5376L0.513611 59.2769C0.513611 59.2769 1.09921 62.2866 1.64641 62.2651C2.26081 62.2437 2.15521 61.0162 2.15521 61.0162C2.15521 61.0162 3.85121 62.1901 4.29281 62.5599C4.73441 62.9298 5.66241 62.6537 5.25281 62.1606C4.98005 61.8373 4.67839 61.5318 4.35041 61.2467C4.35041 61.2467 5.03201 61.4692 5.35521 61.2816C5.67841 61.094 5.30721 60.6169 5.30721 60.6169L3.22721 60.0809V58.2478C3.22721 58.2478 3.93761 57.1168 4.43041 57.1758C4.92321 57.2348 5.05441 57.8619 4.95521 57.9798C4.59041 58.4354 3.79041 59.7647 3.79041 59.7647C3.80995 59.8275 3.84595 59.8858 3.89579 59.9355C3.94563 59.9852 4.00805 60.025 4.07854 60.0519C4.14902 60.0789 4.22579 60.0923 4.30326 60.0913C4.38073 60.0903 4.45696 60.0749 4.52641 60.0461C5.07041 59.8317 6.60001 58.1862 6.60001 58.1862C6.60001 58.1862 8.73761 56.9185 9.03201 56.5326C9.24641 56.2485 9.32961 55.3695 9.35201 54.9246L22.4944 44.3976L25.288 40.2516Z" fill="#AA6550"/>
<path d="M55.1408 107.12V107.402C55.1408 107.402 64.7856 109.337 64.4368 111.537L47.7968 111.867L48.0144 107.225C50.52 108.136 52.3184 108.136 55.1408 107.12Z" fill="#E0E0E0"/>
<path d="M47.8064 111.867L47.8288 110.752L64.232 110.845C64.3214 110.943 64.3857 111.054 64.4209 111.173C64.4562 111.292 64.4616 111.416 64.4368 111.537L47.8064 111.867Z" fill="#263238"/>
<path d="M55.7744 107.517C55.7744 107.584 55.384 107.656 55.0192 107.914C54.6544 108.171 54.4848 108.479 54.408 108.45C54.3312 108.42 54.408 108.026 54.84 107.721C55.272 107.415 55.784 107.453 55.7744 107.517Z" fill="#263238"/>
<path d="M57.5952 107.935C57.624 107.999 57.2912 108.152 57.0608 108.471C56.8304 108.79 56.7952 109.095 56.712 109.101C56.6288 109.106 56.5232 108.728 56.8208 108.342C57.1184 107.956 57.5856 107.868 57.5952 107.935Z" fill="#263238"/>
<path d="M58.84 109.57C58.7664 109.591 58.6064 109.267 58.7568 108.876C58.9072 108.484 59.2656 108.297 59.3072 108.34C59.3488 108.383 59.1472 108.608 59.0256 108.937C58.904 109.267 58.9136 109.556 58.84 109.57Z" fill="#263238"/>
<path d="M47.8672 111.727C47.8001 111.862 47.7862 112.011 47.8277 112.153C47.8692 112.295 47.9637 112.422 48.0976 112.515C48.2247 112.605 48.3843 112.657 48.5507 112.662C48.7172 112.668 48.881 112.626 49.016 112.545C49.2624 112.384 49.4192 112.078 49.7296 112.07C49.9888 112.07 50.168 112.274 50.3696 112.421C50.8304 112.778 51.6848 112.77 52.0144 112.322C52.0782 112.203 52.161 112.091 52.2608 111.99C52.5328 111.781 52.9744 111.931 53.2496 112.137C53.5248 112.344 53.7808 112.614 54.1456 112.644C54.5104 112.673 54.8944 112.403 55.2016 112.172C55.5088 111.942 55.9536 111.733 56.3056 111.904C56.5264 112.014 56.6256 112.234 56.808 112.378C57.256 112.721 57.9952 112.502 58.4432 112.159C58.5884 112.02 58.7688 111.91 58.9712 111.837C59.4 111.727 59.8064 112.019 60.168 112.244C60.3944 112.402 60.6638 112.509 60.952 112.558C61.0957 112.581 61.2443 112.573 61.3829 112.533C61.5215 112.494 61.6454 112.425 61.7424 112.333C61.8256 112.247 61.8736 112.145 61.9504 112.065C62.0559 111.949 62.2036 111.865 62.371 111.826C62.5384 111.787 62.7166 111.795 62.8784 111.848C63.2848 111.987 63.6048 112.419 64.024 112.311C64.3632 112.223 64.4336 111.85 64.4304 111.553C64.4417 111.459 64.4146 111.364 64.3536 111.285C64.2942 111.24 64.2227 111.208 64.1451 111.192C64.0676 111.175 63.9865 111.175 63.9088 111.191C62.9872 111.253 62.0656 111.341 61.1504 111.459" fill="#263238"/>
<path d="M56.28 107.981C56.28 107.981 56.3152 107.914 56.4144 107.82C56.5136 107.726 56.68 107.611 56.8592 107.455C57.0912 107.276 57.3531 107.126 57.6368 107.01C57.805 106.933 57.9881 106.882 58.1776 106.858C58.2839 106.846 58.3914 106.846 58.4976 106.858C58.558 106.861 58.6169 106.874 58.6704 106.898C58.7043 106.913 58.7331 106.935 58.7543 106.961C58.7755 106.988 58.7885 107.019 58.792 107.051C58.7867 107.144 58.7549 107.235 58.6992 107.316C58.6436 107.397 58.5657 107.466 58.472 107.517C58.3305 107.621 58.1748 107.711 58.008 107.785C57.7308 107.913 57.4284 107.998 57.1152 108.037C56.9035 108.065 56.6883 108.07 56.4752 108.05C56.3248 108.034 56.2448 108.013 56.248 108.005C56.5287 107.996 56.8085 107.974 57.0864 107.94C57.3819 107.888 57.6659 107.798 57.928 107.672C58.0821 107.595 58.2268 107.505 58.36 107.404C58.4976 107.308 58.632 107.182 58.6192 107.059C58.6064 106.935 58.3632 106.976 58.2032 106.992C58.0318 107.014 57.8656 107.058 57.7104 107.123C57.4363 107.229 57.1793 107.365 56.9456 107.525C56.7472 107.678 56.5712 107.78 56.4624 107.86C56.3536 107.94 56.28 107.986 56.28 107.981Z" fill="#263238"/>
<path d="M56.28 108.069C56.1988 107.865 56.1441 107.653 56.1168 107.439C56.0531 107.206 56.0369 106.966 56.0688 106.729C56.0959 106.582 56.1651 106.444 56.2704 106.324C56.3276 106.253 56.4048 106.195 56.4953 106.156C56.5858 106.116 56.6866 106.096 56.7888 106.097C56.8482 106.101 56.9049 106.12 56.9524 106.15C56.9999 106.18 57.0364 106.221 57.0576 106.268C57.0881 106.346 57.1012 106.428 57.096 106.509C57.0932 106.651 57.075 106.791 57.0416 106.93C56.9775 107.163 56.8695 107.387 56.7216 107.592C56.6047 107.788 56.4281 107.956 56.2096 108.077C56.1872 108.061 56.4048 107.889 56.6192 107.541C56.7424 107.34 56.8297 107.125 56.8784 106.903C56.9082 106.772 56.9232 106.64 56.9232 106.507C56.9232 106.367 56.8912 106.239 56.76 106.239C56.6862 106.24 56.614 106.257 56.5494 106.286C56.4849 106.316 56.4298 106.359 56.3888 106.41C56.2988 106.513 56.2376 106.631 56.2096 106.756C56.1721 106.979 56.1721 107.205 56.2096 107.428C56.2609 107.639 56.2845 107.854 56.28 108.069Z" fill="#263238"/>
<path d="M3.5408 70.0988C3.36706 69.6824 3.31793 69.2368 3.39771 68.8008C3.47749 68.3649 3.68375 67.952 3.9984 67.5983C4.20202 67.4238 4.35622 67.2131 4.4496 66.9819C4.4912 66.8158 4.4496 66.6442 4.4784 66.4781C4.5072 66.3119 4.63841 66.1297 4.83681 66.1243C5.03521 66.119 5.1376 66.2315 5.2976 66.269C5.6784 66.3602 5.9984 66.001 6.1296 65.6982C6.2608 65.3954 6.3856 65.0041 6.7696 64.8942C7.1536 64.7843 7.4992 64.9719 7.8288 64.8567C8.1584 64.7414 8.26081 64.3957 8.35041 64.1036C8.44001 63.8115 8.64161 63.4738 8.99041 63.4631C9.20161 63.4631 9.40001 63.5756 9.63041 63.5676C10.0464 63.5488 10.2 63.1174 10.3696 62.8011C10.616 62.3348 11.2656 61.9569 11.8224 62.1606C11.9293 62.2174 12.0492 62.2549 12.1744 62.2705C12.4112 62.2705 12.5488 62.0534 12.7248 61.9194C13.1472 61.6005 13.8768 61.7961 14.2032 62.1874C14.5296 62.5787 14.5648 63.0852 14.5904 63.5649" fill="#263238"/>
<path d="M9.4192 69.1876C8.40697 69.9362 7.25449 70.5401 6.00801 70.9751C5.61491 71.1472 5.16594 71.2083 4.72801 71.1493C4.46959 71.071 4.23872 70.9397 4.05649 70.7674C3.87426 70.5951 3.74647 70.3874 3.68481 70.1631C3.36481 69.2787 3.72961 68.3032 4.35681 67.5554C5.02857 66.8382 5.82709 66.211 6.72481 65.6955L10.9072 63.0155C11.3979 62.6641 11.9576 62.3866 12.5616 62.1954C12.8652 62.1039 13.1921 62.0805 13.5098 62.1275C13.8275 62.1745 14.125 62.2903 14.3728 62.4634C14.92 62.903 14.9616 63.6426 14.7792 64.2671C14.5968 64.8915 14.232 65.4704 14.0912 66.1002" fill="#E0E0E0"/>
<path d="M14.088 66.1109C14.0845 66.0914 14.0845 66.0715 14.088 66.052C14.088 66.0144 14.1072 65.9555 14.1264 65.8831C14.1907 65.6707 14.2687 65.4614 14.36 65.256C14.5086 64.9291 14.6346 64.5953 14.7376 64.2564C14.8751 63.813 14.8449 63.3448 14.6512 62.9164C14.5271 62.6775 14.3122 62.4796 14.04 62.3536C13.7371 62.2239 13.3961 62.1699 13.0576 62.1981C12.3472 62.2437 11.6848 62.6162 11.048 63.0289C9.75201 63.8597 8.32801 64.7709 6.83041 65.725C6.08867 66.1668 5.40152 66.6695 4.7792 67.2258C4.20865 67.7515 3.82803 68.4021 3.68161 69.1018C3.6067 69.41 3.61646 69.7284 3.71016 70.033C3.80385 70.3376 3.97901 70.6203 4.22241 70.8599C4.33794 70.9602 4.47832 71.0381 4.63368 71.0881C4.78903 71.1381 4.95558 71.159 5.12161 71.1493C5.43666 71.1223 5.74395 71.0507 6.03041 70.9376C6.92721 70.6264 7.77773 70.2289 8.56481 69.753C8.84641 69.5869 9.05441 69.4475 9.20481 69.3537C9.27428 69.302 9.34807 69.2546 9.42561 69.2117C9.41196 69.2285 9.39583 69.2438 9.3776 69.2572C9.33601 69.2894 9.28481 69.3269 9.22721 69.3752C9.08961 69.477 8.88481 69.6217 8.60961 69.7986C7.83046 70.294 6.9814 70.7072 6.08161 71.0287C5.77941 71.1498 5.45475 71.2269 5.12161 71.2565C4.93701 71.2682 4.75158 71.2462 4.57811 71.1921C4.40464 71.138 4.24725 71.053 4.11681 70.943C3.8545 70.6916 3.66445 70.3933 3.56127 70.0709C3.45809 69.7485 3.44452 69.4105 3.52161 69.083C3.6684 68.3616 4.05807 67.6904 4.6448 67.1481C5.27277 66.5822 5.96872 66.0721 6.72161 65.6258L10.9456 62.9458C11.5856 62.5358 12.2768 62.1418 13.0384 62.1016C13.402 62.0747 13.7672 62.1352 14.0912 62.2758C14.3867 62.4146 14.6178 62.6327 14.7472 62.8949C14.9455 63.3435 14.9701 63.8329 14.8176 64.2939C14.7064 64.6337 14.5707 64.9675 14.4112 65.2935C14.2896 65.5615 14.2032 65.7759 14.1552 65.9206C14.1374 65.9851 14.115 66.0487 14.088 66.1109Z" fill="#263238"/>
<path d="M7.98241 69.6753C7.59545 69.5372 7.26275 69.3105 7.02241 69.0214C6.73935 68.7592 6.5488 68.4363 6.47202 68.0888C6.52002 68.0727 6.73121 68.4988 7.15361 68.9356C7.57601 69.3725 8.01121 69.6405 7.98241 69.6753Z" fill="#263238"/>
<path d="M8.82081 68.8231C8.4753 68.7392 8.17686 68.5549 7.9792 68.3032C7.73782 68.0823 7.59533 67.7982 7.576 67.4992C7.624 67.4992 7.7616 67.8583 8.11041 68.2254C8.45921 68.5926 8.84641 68.7882 8.82081 68.8231Z" fill="#263238"/>
<path d="M6.4368 69.9675C6.1458 69.8536 5.8962 69.6769 5.7136 69.4556C5.48859 69.2637 5.33133 69.0235 5.2592 68.7614C5.47148 68.9506 5.66619 69.1531 5.8416 69.3671C6.06088 69.552 6.26007 69.7529 6.4368 69.9675Z" fill="#263238"/>
<path d="M8.77919 68.1558C8.87975 68.1757 8.97375 68.2142 9.05439 68.2683C9.29214 68.3978 9.47736 68.5847 9.5856 68.8043C9.65945 68.9629 9.6783 69.1357 9.64 69.3028C9.63084 69.3531 9.61249 69.4019 9.5856 69.4475C9.57388 69.4648 9.55779 69.4798 9.53844 69.4914C9.5191 69.503 9.49696 69.5108 9.4736 69.5145C9.42909 69.5178 9.38468 69.5073 9.34879 69.485C9.24839 69.4278 9.15885 69.3582 9.08319 69.2787C8.76319 68.9571 8.696 68.5042 8.54239 68.0968C8.46239 67.8904 8.34719 67.6921 8.27999 67.4804C8.2103 67.2791 8.2103 67.0653 8.27999 66.864C8.32479 66.7729 8.36319 66.6496 8.54239 66.596C8.58552 66.593 8.6285 66.603 8.66367 66.6241C8.69885 66.6452 8.72391 66.6761 8.73439 66.7112C8.75359 66.7568 8.7664 66.797 8.7824 66.8399C8.83262 66.9971 8.86687 67.1576 8.88479 67.3196C8.90861 67.5525 8.89353 67.787 8.83999 68.0164C8.82922 68.1026 8.79881 68.1863 8.75039 68.263C8.79203 67.9533 8.79739 67.6409 8.76639 67.3303C8.74152 67.1752 8.70192 67.0219 8.64799 66.872C8.64799 66.8345 8.61919 66.7943 8.60319 66.7541C8.58719 66.7139 8.57119 66.7166 8.56159 66.7166C8.55199 66.7166 8.45279 66.805 8.42719 66.8881C8.37204 67.0722 8.38092 67.2656 8.45279 67.4456C8.51679 67.6412 8.63199 67.8368 8.71519 68.0539C8.87519 68.4881 8.94239 68.9115 9.2208 69.2036C9.28564 69.2723 9.36095 69.3336 9.4448 69.3859C9.4896 69.4019 9.4448 69.4046 9.48 69.3859C9.4996 69.3528 9.5136 69.3176 9.5216 69.2813C9.55833 69.1351 9.54727 68.9833 9.4896 68.8418C9.39883 68.6313 9.24049 68.4458 9.032 68.3058C8.94438 68.2599 8.85997 68.2098 8.77919 68.1558Z" fill="#263238"/>
<path d="M14.2064 65.4382C14.2064 65.4382 14.2064 65.3632 14.2064 65.2346C14.1851 65.0545 14.1004 64.8838 13.9632 64.7441C13.7597 64.5372 13.475 64.3976 13.16 64.3502C12.7697 64.2945 12.3704 64.2999 11.9824 64.3662C11.5963 64.4514 11.2275 64.5842 10.888 64.7602C10.6087 64.901 10.3562 65.0763 10.1392 65.2801C9.93652 65.4682 9.75545 65.6719 9.5984 65.8885C9.67334 65.6336 9.83054 65.4009 10.0528 65.2158C10.2648 64.9921 10.5214 64.8008 10.8112 64.6503C11.1601 64.4594 11.5438 64.3173 11.9472 64.2296C12.3589 64.1586 12.7835 64.1586 13.1952 64.2296C13.5395 64.2904 13.8456 64.4543 14.056 64.6905C14.2001 64.848 14.2767 65.0415 14.2736 65.2399C14.2608 65.3712 14.216 65.4409 14.2064 65.4382Z" fill="#263238"/>
<path d="M14.0784 62.367C14.1552 62.7124 14.1311 63.0682 14.008 63.4041C13.9384 63.7512 13.7705 64.0793 13.5184 64.3609C13.4736 64.3448 13.6944 63.9214 13.8384 63.372C13.9824 62.8226 14.04 62.3643 14.0784 62.367Z" fill="#263238"/>
<path d="M42.3408 71.152C42.3408 71.152 45.1472 79.2965 45.4864 80.6848C45.6368 81.2958 47.1408 86.4334 47.1408 86.4334L48.2608 103.545H54.6448L56.1264 83.9812L53.8256 70.9644C53.8256 70.9644 45.208 67.8878 42.3408 71.152Z" fill="#AA6550"/>
<path d="M48.1968 107.469L47.4896 94.4037L55.7616 94.0231L54.8368 107.538C52.2672 108.294 50.7536 108.241 48.1968 107.469Z" fill="#00BFA5"/>
<path d="M55.592 95.9795C55.592 96.017 53.7808 96.0492 51.5472 96.0492C49.3136 96.0492 47.4992 96.017 47.4992 95.9795C47.4992 95.942 49.3104 95.9098 51.5472 95.9098C53.784 95.9098 55.592 95.9393 55.592 95.9795Z" fill="#F5F5F5"/>
<path d="M55.592 97.0194C55.592 97.0569 53.7808 97.0891 51.5472 97.0891C49.3136 97.0891 47.4992 97.0569 47.4992 97.0194C47.4992 96.9818 49.3104 96.9497 51.5472 96.9497C53.784 96.9497 55.592 96.9818 55.592 97.0194Z" fill="#F5F5F5"/>
<path d="M26.6288 50.248L17.4448 72.1731C17.4448 72.1731 22.1296 75.9251 25.5056 75.2739C28.8816 74.6226 29.5344 74.9094 30.7312 74.5449C31.928 74.1804 32.7248 72.2374 33.7072 70.7768C34.6896 69.3162 37.192 65.6098 37.192 65.6098L41.272 74.628C44.552 73.891 48.6064 74.167 54.5296 72.9691C54.5296 72.9691 51.7488 61.5924 51.2048 59.8612C50.6608 58.1299 50.0624 52.6252 50.0624 52.6252C50.0624 52.6252 28.5136 49.0152 26.6288 50.248Z" fill="#263238"/>
<path d="M40.6256 62.0695C40.5474 62.1599 40.4584 62.2434 40.36 62.3187C40.1808 62.4742 39.9248 62.6966 39.6176 62.9807C38.821 63.7214 38.0814 64.5037 37.4032 65.323C36.7271 66.1444 36.1033 66.9951 35.5344 67.8717L35.0224 68.6757C34.9662 68.7772 34.8987 68.8741 34.8208 68.9651C34.8556 68.8567 34.9039 68.7516 34.9648 68.6516C35.064 68.4532 35.224 68.1718 35.4288 67.8288C35.9712 66.935 36.5848 66.0727 37.2656 65.248C37.9455 64.4208 38.7043 63.641 39.5344 62.9164C39.8544 62.6484 40.12 62.4259 40.3152 62.2839C40.4073 62.2016 40.5116 62.1295 40.6256 62.0695Z" fill="#455A64"/>
<path d="M47.0928 56.5943C46.8466 56.7249 46.5808 56.8276 46.3024 56.8998C46.0043 56.9922 45.6937 57.0534 45.3776 57.082C44.9821 57.1165 44.5825 57.0705 44.2128 56.948C43.5492 56.7187 42.9962 56.3103 42.6416 55.7876C42.5321 55.6341 42.442 55.4716 42.3728 55.3025C42.342 55.2413 42.3246 55.1759 42.3216 55.1095C42.3504 55.1095 42.4496 55.3775 42.7408 55.7367C43.1098 56.2162 43.6444 56.5901 44.2736 56.8087C44.9183 57.0011 45.6225 57.0011 46.2672 56.8087C46.5366 56.7224 46.8124 56.6508 47.0928 56.5943Z" fill="#455A64"/>
<path d="M47.0512 60.8662C46.9424 60.865 46.8344 60.8496 46.7312 60.8206C46.4432 60.7566 46.1642 60.6668 45.8992 60.5526C45.0268 60.1659 44.2833 59.6031 43.736 58.9151C43.1949 58.2273 42.7846 57.4733 42.52 56.68C42.4176 56.3798 42.3472 56.144 42.3024 55.9618C42.2712 55.8749 42.256 55.7845 42.2576 55.6938C42.2832 55.6938 42.3984 56.0636 42.6352 56.6532C42.9272 57.4234 43.3439 58.1566 43.8736 58.832C44.409 59.5015 45.122 60.0583 45.9568 60.4588C46.3107 60.6143 46.6763 60.7504 47.0512 60.8662Z" fill="#455A64"/>
<path d="M28.76 74.8129C28.76 74.8129 23.5792 83.3433 21.0032 83.8338C17.1632 84.5681 15.736 82.2821 15.3456 81.9578C14.9552 81.6335 9.112 67.3705 9.112 67.3705C9.112 67.3705 9.912 64.7093 11.384 64.6262C12.856 64.5431 13.944 64.8594 14.1424 65.2721C14.3408 65.6848 18.1136 70.5624 18.1136 70.5624L17.4416 72.1704L28.76 74.8129Z" fill="#AA6550"/>
<path d="M19.0544 72.4518C19.0226 72.5453 18.9775 72.6353 18.92 72.7198C18.824 72.894 18.68 73.1433 18.4976 73.4488C18.1296 74.0598 17.608 74.8986 16.9392 75.783C16.6033 76.1789 16.3038 76.5955 16.0432 77.0292C15.8777 77.3976 15.811 77.792 15.848 78.1843C15.9056 78.8597 16.024 79.2751 15.992 79.2778C15.9426 79.1874 15.9081 79.0918 15.8896 78.9937C15.8159 78.7288 15.7625 78.4603 15.7296 78.1897C15.6752 77.7821 15.7332 77.3695 15.8992 76.9837C16.154 76.5382 16.4549 76.1122 16.7984 75.7107C17.4608 74.8317 17.9984 74.0008 18.3984 73.4032L18.8688 72.6957C18.9178 72.608 18.9802 72.5261 19.0544 72.4518Z" fill="#723C31"/>
<path d="M12.12 74.6011C12.12 74.6011 12.2768 71.0126 17.9472 70.3131L13.9568 65.0014C13.9568 65.0014 11.816 63.9803 10.5968 64.854C9.3776 65.7277 9.1248 67.3652 9.1248 67.3652L12.12 74.6011Z" fill="#00BFA5"/>
<path d="M17.48 69.5119C17.48 69.536 17.0544 69.4877 16.3792 69.5333C15.4999 69.591 14.6455 69.8057 13.8736 70.1631C13.101 70.5222 12.4426 71.0314 11.9536 71.6478C11.5792 72.1222 11.448 72.4518 11.4192 72.4518C11.429 72.3684 11.4549 72.287 11.496 72.2106C11.5908 71.9962 11.7097 71.7898 11.8512 71.5942C12.3223 70.9473 12.9833 70.4122 13.7712 70.0398C14.5634 69.6712 15.448 69.4638 16.3536 69.4341C16.625 69.4241 16.8968 69.4331 17.1664 69.4609C17.2737 69.462 17.38 69.4792 17.48 69.5119Z" fill="#F5F5F5"/>
<path d="M16.9392 68.8686C16.9392 68.8954 16.5328 68.7856 15.8672 68.7829C15 68.7875 14.1485 68.9775 13.3936 69.335C12.6398 69.6951 11.9707 70.1673 11.4192 70.7286C11.1896 70.9608 11.0079 71.2235 10.8816 71.5058C10.918 71.1941 11.074 70.9007 11.3264 70.6696C11.8632 70.0759 12.5395 69.5807 13.3136 69.2144C14.0912 68.8406 14.9775 68.6551 15.8736 68.6784C16.1416 68.6881 16.4075 68.7213 16.6672 68.7775C16.7639 68.7932 16.8562 68.8242 16.9392 68.8686Z" fill="#F5F5F5"/>
<path d="M18.3952 37.5073C18.3952 37.2393 23.7776 26.8114 24.3056 26.1039C24.8336 25.3964 30.8496 21.5077 30.8496 21.5077L32.6256 20.7546L36.6576 22.2098C37.1201 22.3796 37.6183 22.4707 38.1232 22.4778C39.1696 22.4778 40.1808 22.1321 40.6128 21.3308L40.5744 20.4544L42.8144 19.7014L44.2928 19.5084L47.8128 18.1684C47.8128 18.1684 52.0816 20.6715 51.7648 23.59L48.664 26.932C48.664 26.932 49.4896 34.2966 49.384 37.8342C49.2784 41.3718 50.0624 52.6386 50.0624 52.6386C50.0624 52.6386 46.1552 53.7106 43.3072 53.7883C40.4592 53.866 37.8224 51.7086 32.7472 50.9126C27.672 50.1167 26.2448 51.32 26.2448 51.32L28.632 44.5771L28.8432 41.2191L28.3152 37.593L25.88 42.283L17.4352 38.8339L18.3952 37.5073Z" fill="#00BFA5"/>
<path d="M28.9072 29.2127C28.7312 29.0432 28.5687 28.8641 28.4208 28.6767C28.0387 28.2533 27.6239 27.8514 27.1792 27.4734C26.7447 27.0886 26.2607 26.7452 25.736 26.4496C25.5089 26.3441 25.264 26.2682 25.0096 26.2245C25.2821 26.1883 25.561 26.2369 25.7936 26.3612C26.3481 26.6394 26.8542 26.9803 27.2976 27.3742C27.7505 27.7561 28.1588 28.1734 28.5168 28.6204C28.681 28.8007 28.8125 29.0003 28.9072 29.2127Z" fill="#263238"/>
<path d="M46.4944 35.776C46.429 35.9007 46.3497 36.0201 46.2576 36.1324C46.0912 36.3522 45.8384 36.6684 45.4928 37.0383C44.5756 37.9887 43.5393 38.8539 42.4016 39.6191C41.0736 40.5089 40.0176 41.4549 39.1344 42.0311C38.7938 42.2677 38.4334 42.4835 38.056 42.677C37.9528 42.732 37.846 42.7821 37.736 42.8271C37.7003 42.846 37.6615 42.8604 37.6208 42.87C37.7446 42.7822 37.8762 42.7025 38.0144 42.6314C38.3743 42.4221 38.7204 42.1966 39.0512 41.9561C39.9056 41.3611 40.952 40.4017 42.2896 39.5066C43.4185 38.7453 44.4579 37.8955 45.3936 36.9686C45.7488 36.6121 46.0144 36.3066 46.1968 36.0949C46.2868 35.9828 46.3863 35.8762 46.4944 35.776Z" fill="#263238"/>
<path d="M28.76 40.6L47.96 26.0128C47.96 26.0128 48.7312 26.6211 49.0192 30.5688L49.1792 32.552L31.8992 43.4033C31.8992 43.4033 30.2992 43.0602 29.4 43.9795C28.8815 44.4996 28.4784 45.0932 28.2096 45.7322L28.6288 44.4217L28.8272 41.2271L28.76 40.6Z" fill="white"/>
<path d="M37.5824 45.7054C37.4798 45.6986 37.3787 45.6806 37.2816 45.6518C37.0928 45.6116 36.8208 45.5446 36.488 45.4588C35.6176 45.2379 34.7629 44.9758 33.928 44.6736C33.0875 44.3711 32.29 43.9909 31.5504 43.54C31.3264 43.4027 31.1127 43.2542 30.9104 43.0951C30.8308 43.0413 30.7598 42.9792 30.6992 42.9102C30.7184 42.8914 31.0448 43.1299 31.6176 43.4462C32.3686 43.8684 33.1645 44.2318 33.9952 44.5316C34.9552 44.888 35.8768 45.156 36.5328 45.3516C36.892 45.4492 37.2427 45.5674 37.5824 45.7054Z" fill="#263238"/>
<path d="M48.8784 29.285C48.8464 29.285 48.808 28.7973 48.6192 28.0281C48.3576 27.0266 47.9881 26.0471 47.5152 25.1016C47.0467 24.1532 46.5036 23.232 45.8896 22.3438C45.6528 22.0062 45.4544 21.7328 45.3136 21.5398C45.2331 21.4479 45.1644 21.3491 45.1088 21.245C45.2071 21.3258 45.2941 21.4157 45.368 21.513C45.5248 21.6926 45.7392 21.9552 46.008 22.2929C46.6499 23.1748 47.2053 24.0989 47.6688 25.056C48.1465 26.0046 48.5036 26.9927 48.7344 28.004C48.8013 28.3115 48.8472 28.622 48.872 28.934C48.8907 29.0504 48.8929 29.1682 48.8784 29.285Z" fill="#263238"/>
<path d="M20.5552 33.1282L28.7056 36.6282L30.0624 33.297L22.5936 29.2127L20.5552 33.1282Z" fill="white"/>
<path d="M30.6992 31.5282C30.6975 31.6191 30.6803 31.7094 30.648 31.7962C30.6032 31.9624 30.5328 32.1982 30.4336 32.4876C30.2416 33.0692 29.9344 33.8625 29.5792 34.7308L28.6576 36.9498C28.536 37.2339 28.4272 37.4617 28.3376 37.6145C28.3027 37.6971 28.2531 37.7748 28.1904 37.845C28.168 37.845 28.3312 37.4912 28.5424 36.9177C28.7536 36.3442 29.0608 35.5509 29.4192 34.6852C29.7776 33.8196 30.0976 33.0317 30.3184 32.4608C30.4234 32.144 30.5505 31.8326 30.6992 31.5282Z" fill="#263238"/>
<path d="M26.3952 41.3021C26.3792 41.337 24.4752 40.667 22.1232 39.8014C19.7712 38.9357 17.8992 38.2094 17.9184 38.1746C17.9376 38.1398 19.8384 38.8098 22.1904 39.6754C24.5424 40.541 26.4144 41.2673 26.3952 41.3021Z" fill="#FAFAFA"/>
<path d="M44.5008 29.6951L44.8496 30.2874L42.7088 31.1744L42.4336 30.7054L42.9168 29.352C42.9628 29.2679 42.9866 29.1765 42.9866 29.084C42.9866 28.9915 42.9628 28.9001 42.9168 28.816C42.8981 28.7758 42.8687 28.7397 42.8308 28.7105C42.7929 28.6812 42.7476 28.6596 42.6983 28.6472C42.6489 28.6348 42.5968 28.6319 42.546 28.6389C42.4951 28.6459 42.4469 28.6625 42.4048 28.6874C42.3025 28.73 42.2164 28.7958 42.1565 28.8772C42.0965 28.9587 42.065 29.0526 42.0656 29.1484L41.304 29.076C41.3093 28.8587 41.3887 28.6471 41.5327 28.4662C41.6766 28.2853 41.8793 28.1426 42.1168 28.0549C42.7568 27.7869 43.3712 27.9263 43.6624 28.4167C43.7543 28.5777 43.8041 28.7533 43.8085 28.9316C43.8129 29.11 43.7718 29.2872 43.688 29.4512L43.4416 30.1266L44.5008 29.6951Z" fill="#263238"/>
<path d="M44.2928 28.8723C43.7776 27.996 43.992 27.2831 44.696 26.9963C45.4 26.7096 46.2 26.9963 46.7152 27.8754C47.2304 28.7544 47.0192 29.4619 46.3184 29.7514C45.6176 30.0408 44.808 29.746 44.2928 28.8723ZM45.9344 28.1916C45.6144 27.6368 45.2944 27.5028 45.0576 27.6047C44.8208 27.7065 44.76 28.004 45.08 28.54C45.4 29.076 45.72 29.2288 45.9632 29.1269C46.2064 29.0251 46.264 28.749 45.9344 28.1916Z" fill="#263238"/>
<path d="M37.08 31.1691C36.8957 31.291 36.6922 31.3911 36.4752 31.4666C35.4598 31.8807 34.384 32.1816 33.2752 32.3617C33.047 32.4088 32.8126 32.4314 32.5776 32.4287C32.5776 32.3858 33.6176 32.2196 34.8656 31.8686C36.1136 31.5175 37.0608 31.1316 37.08 31.1691Z" fill="#FAFAFA"/>
<path d="M41.24 20.232C41.24 20.232 41.2624 20.2642 41.288 20.3285C41.3248 20.4237 41.3515 20.5215 41.368 20.6206C41.4251 20.9895 41.3667 21.3644 41.1984 21.7087C40.9514 22.2276 40.4873 22.6534 39.8928 22.9066C39.1533 23.1794 38.3356 23.2678 37.5376 23.1612C36.7461 23.0799 35.9737 22.8992 35.2464 22.6252C34.6552 22.4067 34.0821 22.1551 33.5312 21.8722C33.0608 21.6336 32.6928 21.4273 32.4368 21.2799C32.3006 21.2113 32.1731 21.1314 32.056 21.0414C32.2008 21.096 32.3399 21.1605 32.472 21.2343C32.7376 21.3656 33.112 21.5613 33.592 21.7891C34.1462 22.0568 34.719 22.2967 35.3072 22.5073C36.0209 22.7676 36.7751 22.9418 37.5472 23.0246C38.3143 23.1266 39.1003 23.0468 39.816 22.7941C40.2896 22.5944 40.6824 22.2822 40.9453 21.8966C41.2083 21.511 41.3297 21.069 41.2944 20.626C41.2912 20.3767 41.24 20.232 41.24 20.232Z" fill="#FAFAFA"/>
<path d="M51.3008 24.177C51.2688 24.177 51.2592 23.7857 51.08 23.1773C50.8335 22.3876 50.4427 21.6346 49.9216 20.9449C49.3946 20.2557 48.8119 19.5976 48.1776 18.9751L47.6112 18.3989C47.538 18.3306 47.4737 18.2561 47.4192 18.1764C47.4192 18.1764 47.5152 18.2354 47.6624 18.3614C47.8096 18.4873 48.0176 18.6749 48.2672 18.8974C48.9329 19.5061 49.5336 20.1625 50.0624 20.8591C50.5947 21.5597 50.9779 22.3323 51.1952 23.1425C51.2552 23.3881 51.2938 23.6371 51.3104 23.8875C51.3228 23.9839 51.3196 24.0813 51.3008 24.177Z" fill="#FAFAFA"/>
<g opacity="0.3">
<path opacity="0.3" d="M30.2864 32.5841C29.7392 34.2725 28.9232 35.9984 28.3216 37.6252C28.568 37.6574 28.584 37.778 28.7728 37.6413C29.2912 37.2554 29.8576 36.8373 30.1168 36.3013C30.2587 35.9557 30.3396 35.5945 30.3568 35.2293C30.4496 34.3342 30.5392 33.439 30.2864 32.5841Z" fill="black"/>
</g>
<g opacity="0.3">
<path opacity="0.3" d="M31.6816 43.548C33.2432 44.2904 35.0832 44.5101 36.8784 44.5316C38.6736 44.553 40.4656 44.3922 42.2576 44.4431C43.0917 44.4307 43.9188 44.5726 44.68 44.8585C45.0538 45.0054 45.3757 45.231 45.6141 45.5134C45.8525 45.7957 45.9993 46.1251 46.04 46.4692C46.0508 46.5484 46.0306 46.6283 45.9824 46.697C45.9375 46.7371 45.8836 46.7694 45.8237 46.7919C45.7638 46.8145 45.6992 46.8268 45.6336 46.8283C44.6643 46.919 43.6866 46.928 42.7152 46.8551C41.8 46.8307 40.889 46.741 39.992 46.5871C37.9088 46.1878 36.0784 45.1131 33.9952 44.7111" fill="black"/>
</g>
<path d="M60.2832 102.776C60.2832 102.816 60.056 102.905 59.7648 103.02C59.4736 103.135 59.2368 103.232 59.2112 103.199C59.1856 103.167 59.3904 103.015 59.6944 102.894C59.9984 102.773 60.2704 102.744 60.2832 102.776Z" fill="#263238"/>
<path d="M67.576 113.199C72.4891 113.199 76.472 109.863 76.472 105.748C76.472 101.633 72.4891 98.2977 67.576 98.2977C62.6629 98.2977 58.68 101.633 58.68 105.748C58.68 109.863 62.6629 113.199 67.576 113.199Z" fill="#00BFA5"/>
<path d="M60.2576 102.736L61.5792 104.497L64.6576 102.736V100.359H62.4592L60.2576 102.736Z" fill="#263238"/>
<path d="M67.8384 104.7V107.772L70.968 108.592L73.1184 106.217L71.1632 103.8L67.8384 104.7Z" fill="#263238"/>
<path d="M68.9136 98.3835V99.4555L71.7936 101.063L74.088 100.672C74.072 100.517 71.32 98.4398 68.9136 98.3835Z" fill="#263238"/>
<path d="M61.3616 107.903L60.2576 109.109L62.7472 111.615H64.9072L64.6576 109.248L61.3616 107.903Z" fill="#263238"/>
<path d="M68.12 107.64C67.6014 108.013 67.0372 108.339 66.4368 108.613C65.8645 108.93 65.2404 109.175 64.584 109.342C64.5648 109.307 65.3872 108.98 66.3536 108.492C66.9231 108.181 67.5128 107.897 68.12 107.64Z" fill="#263238"/>
<path d="M67.9952 104.775C67.777 104.763 67.5653 104.708 67.3776 104.614C66.91 104.423 66.468 104.19 66.0592 103.92C65.6463 103.659 65.253 103.376 64.8816 103.073C64.7177 102.956 64.5725 102.82 64.4496 102.671C64.4848 102.639 65.2016 103.207 66.1584 103.81C66.566 104.073 66.9936 104.313 67.4384 104.529C67.7712 104.69 68.0016 104.757 67.9952 104.775Z" fill="#263238"/>
<path d="M61.4192 108.08C61.3837 107.896 61.3719 107.709 61.384 107.522C61.384 107.179 61.384 106.718 61.384 106.182C61.359 105.548 61.404 104.913 61.5184 104.285C61.5559 104.469 61.5677 104.656 61.5536 104.842C61.5536 105.185 61.5536 105.66 61.5536 106.182C61.5798 106.817 61.5348 107.452 61.4192 108.08Z" fill="#263238"/>
<path d="M71.1632 103.8C71.2213 103.306 71.3186 102.817 71.4544 102.334C71.5311 101.844 71.6379 101.357 71.7744 100.876C71.8032 101.374 71.7493 101.872 71.6144 102.358C71.5344 102.852 71.3829 103.336 71.1632 103.8Z" fill="#263238"/>
<path d="M68.9136 99.4582C68.1878 99.6502 67.4509 99.8112 66.7056 99.9406C66.0976 100.072 65.5504 100.209 65.1568 100.297C64.9493 100.363 64.7351 100.413 64.5168 100.447C65.1955 100.148 65.9219 99.9328 66.6736 99.8066C67.2848 99.6779 67.848 99.5841 68.2544 99.5225C68.4699 99.4774 68.6915 99.4557 68.9136 99.4582Z" fill="#263238"/>
<path d="M76.472 106.091C75.9047 106.168 75.3314 106.209 74.7568 106.214C74.1829 106.263 73.6042 106.257 73.032 106.196C73.5992 106.119 74.1726 106.078 74.7472 106.075C75.321 106.025 75.8997 106.03 76.472 106.091Z" fill="#263238"/>
<path d="M71.2336 111.47C71.1152 110.979 71.036 110.482 70.9968 109.983C70.9004 109.486 70.8757 108.981 70.9232 108.479C71.0416 108.97 71.1208 109.467 71.16 109.966C71.2564 110.463 71.2812 110.968 71.2336 111.47Z" fill="#263238"/>
<path d="M68.7344 112.542C68.0548 112.552 67.3789 112.457 66.7408 112.261C66.0842 112.117 65.4619 111.881 64.9008 111.561C64.9232 111.526 65.7328 111.859 66.792 112.127C67.8512 112.395 68.7376 112.504 68.7344 112.542Z" fill="#263238"/>
<path d="M68.648 113.145V112.609L71.128 111.304L73.368 111.414C73.4 111.451 70.6192 113.255 68.648 113.145Z" fill="#263238"/>
<path d="M62.36 99.7208C62.4048 99.7208 62.4656 99.8655 62.504 100.058C62.5424 100.251 62.504 100.423 62.4656 100.42C62.4272 100.418 62.3792 100.27 62.3408 100.08C62.3024 99.8896 62.3056 99.7235 62.36 99.7208Z" fill="#263238"/>
<path d="M60.408 109.136C60.408 109.173 60.2064 109.17 59.9792 109.136C59.752 109.101 59.5888 109.058 59.5824 109.02C59.576 108.983 59.7872 108.951 60.0144 108.999C60.2416 109.047 60.4176 109.098 60.408 109.136Z" fill="#263238"/>
<path d="M62.68 111.974C62.6352 111.974 62.6192 111.867 62.6416 111.751C62.664 111.636 62.7248 111.55 62.7696 111.556C62.8144 111.561 62.8304 111.663 62.808 111.778C62.7856 111.893 62.712 111.979 62.68 111.974Z" fill="#263238"/>
</svg>
