<svg width="21" height="21" viewBox="0 0 21 21" fill="none" xmlns="http://www.w3.org/2000/svg">
<g clip-path="url(#clip0)">
<path d="M12.3592 10.493L14.2151 8.63714C14.4716 8.3799 14.4716 7.96512 14.2151 7.7092L13.2871 6.78061C13.0305 6.52469 12.6158 6.52403 12.3592 6.78061L10.5026 8.63714L8.64743 6.78193C8.39019 6.52469 7.97475 6.52469 7.71817 6.78061L6.79024 7.7092C6.53366 7.96512 6.53432 8.38123 6.79156 8.6378L8.64677 10.493L6.79479 12.3449C6.53821 12.6015 6.53821 13.0163 6.79479 13.2729L7.72272 14.2015C7.9793 14.4574 8.39408 14.458 8.65066 14.2015L10.5026 12.3495L12.3676 14.2153C12.6249 14.4725 13.0403 14.4725 13.2969 14.2159L14.2248 13.288C14.4814 13.0314 14.4807 12.616 14.2242 12.3587L12.3592 10.493ZM10.5 0.000869751C4.70069 0.000869751 0 4.70163 0 10.5002C0 16.2995 4.70069 21.0002 10.5 21.0002C16.2993 21.0002 21 16.2995 21 10.5002C21 4.70229 16.2992 0.000869751 10.5 0.000869751ZM10.5 19.0315C5.78815 19.0315 1.96878 15.2121 1.96878 10.5003C1.96878 5.78843 5.78815 1.96899 10.5 1.96899C15.2118 1.96899 19.0312 5.78836 19.0312 10.5002C19.0312 15.2121 15.2118 19.0315 10.5 19.0315Z" fill="#E2574C"/>
</g>
<defs>
<clipPath id="clip0">
<rect width="21" height="21" fill="white"/>
</clipPath>
</defs>
</svg>
