<svg width="800" height="800" viewBox="0 0 800 800" fill="none" xmlns="http://www.w3.org/2000/svg">
<path d="M133.44 684.08C136.096 685.68 138.8 687.12 141.44 688.592L674.4 380.944C671.824 379.344 669.232 377.744 666.56 376.272C664.88 375.312 663.168 374.352 661.456 373.408L128.464 681.12C130.112 682.112 131.76 683.104 133.44 684.08Z" fill="#FAFAFA"/>
<path opacity="0.1" d="M507.488 437.984C524.596 437.984 538.464 429.975 538.464 420.096C538.464 410.217 524.596 402.208 507.488 402.208C490.38 402.208 476.512 410.217 476.512 420.096C476.512 429.975 490.38 437.984 507.488 437.984Z" fill="black"/>
<path opacity="0.1" d="M373.728 719.168C405.867 719.168 431.92 704.125 431.92 685.568C431.92 667.011 405.867 651.968 373.728 651.968C341.589 651.968 315.536 667.011 315.536 685.568C315.536 704.125 341.589 719.168 373.728 719.168Z" fill="black"/>
<path d="M527.385 243.078C538.138 232.324 538.138 214.889 527.385 204.136C516.631 193.382 499.197 193.382 488.443 204.136C477.69 214.889 477.69 232.324 488.443 243.078C499.197 253.831 516.631 253.831 527.385 243.078Z" fill="#F5F5F5"/>
<path d="M512.736 210.208C508.871 210.536 505.108 211.623 501.664 213.408C501.312 217.133 501.312 220.883 501.664 224.608C504.792 226.21 508.132 227.357 511.584 228.016C511.584 228.016 516.848 223.648 518.288 219.696C517.239 216.128 515.333 212.871 512.736 210.208Z" fill="#455A64"/>
<path d="M494.288 208.64L493.504 207.04L493.36 207.248C493.312 207.303 493.269 207.362 493.232 207.424L493.968 208.88L501.536 213.44L502.352 214.048C502.378 213.991 502.41 213.938 502.448 213.888L502.624 213.712L501.76 213.088L494.288 208.64Z" fill="#455A64"/>
<path d="M510.016 198C509.376 198 508.688 197.856 507.936 197.792C503.915 197.516 499.913 198.549 496.528 200.736L494.928 201.632C495.002 201.756 495.056 201.891 495.088 202.032L496.688 201.088C500.009 198.938 503.942 197.932 507.888 198.224C508.848 198.224 509.712 198.384 510.464 198.496C510.276 198.37 510.122 198.2 510.016 198V198Z" fill="#455A64"/>
<path d="M515.392 201.6L515.04 202.8L512.544 210.112L511.952 211.712C512.095 211.74 512.234 211.783 512.368 211.84L512.944 210.32L515.44 203.008L515.808 201.776C515.663 201.733 515.524 201.674 515.392 201.6V201.6Z" fill="#455A64"/>
<path d="M528.672 219.792C528.397 220.029 528.103 220.243 527.792 220.432C524.652 219.891 521.485 219.528 518.304 219.344H518.144C517.952 219.328 517.76 219.328 517.568 219.344C517.584 219.488 517.584 219.632 517.568 219.776C517.807 219.751 518.049 219.751 518.288 219.776C521.473 219.976 524.646 220.344 527.792 220.88H527.872H527.952C527.952 220.88 528.304 220.656 528.784 220.256C528.73 220.106 528.692 219.95 528.672 219.792V219.792Z" fill="#455A64"/>
<path d="M524.688 204.496C527.445 206.861 529.554 209.89 530.816 213.296C530.914 213.625 530.984 213.963 531.024 214.304C531.156 214.239 531.296 214.191 531.44 214.16C531.386 213.825 531.312 213.494 531.216 213.168C529.938 209.696 527.796 206.607 524.992 204.192L524.464 203.68C524.135 203.357 523.787 203.053 523.424 202.768C523.405 202.838 523.372 202.903 523.328 202.96L523.168 203.104C523.515 203.379 523.846 203.672 524.16 203.984L524.688 204.496Z" fill="#455A64"/>
<path d="M511.792 227.888C511.792 227.712 512.016 227.136 512.304 226.384C512.141 226.473 511.961 226.528 511.776 226.544C511.536 227.248 511.392 227.744 511.376 227.824L514.08 238.08C514.08 238.08 515.024 238.768 516.032 239.424H516.128L516.592 239.312C515.776 238.784 514.992 238.224 514.384 237.824L511.792 227.888Z" fill="#455A64"/>
<path d="M530.864 229.264C530.666 229.81 530.436 230.345 530.176 230.864C528.528 234.068 526.254 236.908 523.488 239.216C523.088 239.424 522.416 239.76 521.696 240.08C521.827 240.165 521.94 240.274 522.032 240.4C522.848 240.032 523.632 239.664 523.712 239.568C526.557 237.229 528.893 234.332 530.576 231.056C530.8 230.544 531.024 230.064 531.216 229.584L530.864 229.264Z" fill="#455A64"/>
<path d="M502.848 223.536C502.464 223.744 502.032 223.984 501.552 224.288C498.647 226.229 495.912 228.413 493.376 230.816V230.816C493.28 230.992 492.928 231.6 492.544 232.416L492.832 232.8C493.152 232.096 493.488 231.488 493.728 231.072C496.238 228.717 498.941 226.576 501.808 224.672C502.336 224.352 502.8 224.096 503.216 223.872C503.084 223.771 502.961 223.658 502.848 223.536V223.536Z" fill="#455A64"/>
<path d="M508.912 244.08L506.448 243.936C502.786 243.662 499.272 242.371 496.304 240.208V240.208C496.304 240.208 495.728 240.064 494.976 239.808C494.984 239.952 494.984 240.096 494.976 240.24C495.568 240.448 496.048 240.576 496.192 240.608C499.215 242.815 502.795 244.134 506.528 244.416C507.376 244.416 508.128 244.512 508.832 244.544C508.828 244.386 508.855 244.228 508.912 244.08V244.08Z" fill="#455A64"/>
<path d="M485.536 227.472C485.677 227.432 485.827 227.432 485.968 227.472C485.835 226.989 485.733 226.497 485.664 226C485.375 222.376 485.552 218.73 486.192 215.152C486.316 214.498 486.476 213.852 486.672 213.216H486.368H486.224C486.048 213.808 485.904 214.416 485.776 215.056C485.12 218.681 484.942 222.377 485.248 226.048C485.314 226.528 485.41 227.004 485.536 227.472V227.472Z" fill="#455A64"/>
<path d="M507.92 198C510.666 199.123 513.154 200.794 515.232 202.912C518.286 202.685 521.356 202.994 524.304 203.824C524.219 202.922 524.058 202.028 523.824 201.152C519.799 198.295 515.079 196.576 510.16 196.176C509.374 196.735 508.626 197.344 507.92 198V198Z" fill="#455A64"/>
<path d="M534.624 216.896C533.57 215.534 532.356 214.304 531.008 213.232C530.21 215.814 529.137 218.303 527.808 220.656C528.906 224.019 529.756 227.457 530.352 230.944C531.856 230.642 533.329 230.203 534.752 229.632C535.196 227.657 535.421 225.64 535.424 223.616C535.437 221.351 535.168 219.094 534.624 216.896V216.896Z" fill="#455A64"/>
<path d="M489.6 242.224C491.887 242.039 494.115 241.408 496.16 240.368C496.16 240.368 494.768 236.192 493.52 230.976C490.712 229.556 488.035 227.891 485.52 226C485.52 226 483.792 227.792 483.392 233.488C484.883 236.771 486.991 239.736 489.6 242.224V242.224Z" fill="#455A64"/>
<path d="M483.792 210.32C484.123 212.074 484.875 213.721 485.984 215.12C488.071 212.318 490.888 210.142 494.128 208.832C494.768 206.144 495.607 203.507 496.64 200.944C495.281 200.787 493.911 200.739 492.544 200.8C488.916 203.238 485.917 206.501 483.792 210.32V210.32Z" fill="#455A64"/>
<path d="M523.584 239.392C520.431 239.293 517.3 238.826 514.256 238C511.864 240.314 509.243 242.378 506.432 244.16C507.463 246.286 508.962 248.151 510.816 249.616C514.347 249.236 517.785 248.245 520.976 246.688C522.295 244.441 523.179 241.966 523.584 239.392Z" fill="#455A64"/>
<path opacity="0.1" d="M531.616 237.632C527.008 244.16 509.216 248.288 497.92 233.584C486.624 218.88 493.12 202 501.376 196.784C496.964 197.863 492.888 200.016 489.51 203.052C486.132 206.087 483.558 209.912 482.016 214.183C480.474 218.455 480.013 223.042 480.673 227.535C481.333 232.029 483.095 236.289 485.8 239.937C488.506 243.584 492.072 246.506 496.18 248.442C500.289 250.377 504.812 251.267 509.348 251.031C513.883 250.795 518.29 249.44 522.175 247.089C526.06 244.737 529.304 241.461 531.616 237.552V237.632Z" fill="black"/>
<path d="M422.4 450.256C420.528 453.312 421.52 458.56 429.456 464.768C437.392 470.976 483.216 496.768 496.832 473.312C510.448 449.856 443.2 438.608 443.2 438.608C443.2 438.608 433.968 439.744 422.4 450.256Z" fill="#E0E0E0"/>
<path d="M495.216 473.968C494.336 479.264 491.328 489.968 484.016 519.936C476.528 550.336 474.672 553.408 466.288 559.392C458.288 565.072 421.68 591.552 412.88 598.784C404.736 601.984 400.416 598.976 400.256 589.344C400.256 589.344 407.904 578.368 417.296 565.984C426.512 553.856 432.416 547.584 447.84 541.872L456.304 467.472L495.216 473.968Z" fill="#FFA8A7"/>
<path d="M423.28 532.048C419.368 537.338 414.9 542.192 409.952 546.528C390.752 564.352 377.952 577.504 363.904 591.504C360.128 595.28 356.352 599.088 352.624 602.912C351.632 603.92 350.096 606.24 348.768 606.64C346.464 607.344 343.696 604.624 342.768 602.848C341.672 600.389 341.242 597.686 341.52 595.008C341.615 592.937 341.839 590.875 342.192 588.832C342.592 586.48 345.392 584.208 346.832 582.432C346.832 582.432 347.968 581.056 349.28 579.312C355.2 571.2 361.6 557.36 370.896 542.72C377.952 531.696 386.128 527.808 393.024 523.312C393.024 523.312 414.88 472.112 431.424 449.264L472.112 463.44C472.112 463.44 427.024 527.072 423.28 532.048Z" fill="#FFA8A7"/>
<path d="M396.8 587.968C395.776 588.512 393.856 589.728 393.6 590.736C393.152 594.757 392.283 598.72 391.008 602.56C389.264 607.12 383.648 614.8 385.376 622.72C386.88 629.68 389.84 632.432 392.656 634.32C393.741 635.15 395.01 635.705 396.355 635.939C397.701 636.173 399.083 636.079 400.384 635.664C400.384 635.664 404.208 634.384 403.792 631.952C403.376 629.52 396.8 587.968 396.8 587.968Z" fill="#37474F"/>
<path d="M396.336 588.24C396.784 587.136 398.448 586.304 399.344 585.6C400.646 584.713 401.862 583.706 402.976 582.592C403.36 582.144 403.792 581.584 404.208 581.168C404.624 580.752 405.072 580.176 405.664 580.256L406.512 580.56C406.36 580.753 406.221 580.956 406.096 581.168C405.82 582.062 405.653 582.986 405.6 583.92C405.6 584.848 405.92 585.76 405.872 586.688C405.744 589.04 403.856 590.848 404.576 593.312C405.664 591.04 406.896 588.416 408.416 589.104C409.424 589.552 410.672 591.728 412.624 592.928C414.576 594.128 416.4 594.4 417.072 595.04C417.744 595.68 416.848 596.528 415.312 598.688C413.492 601.095 411.936 603.692 410.672 606.432C409.904 608.704 409.168 611.072 408.544 613.392C406.208 622.288 407.392 627.888 404.784 632.096C402.176 636.304 394.016 634.944 390.384 628.64C384.32 617.888 389.152 611.76 391.488 606.704C393.095 603.48 394.212 600.034 394.8 596.48C395.36 593.136 395.2 591.2 396.336 588.24Z" fill="#00BFA5"/>
<path opacity="0.4" d="M396.336 588.24C396.784 587.136 398.448 586.304 399.344 585.6C400.646 584.713 401.862 583.706 402.976 582.592C403.36 582.144 403.792 581.584 404.208 581.168C404.624 580.752 405.072 580.176 405.664 580.256L406.512 580.56C406.36 580.753 406.221 580.956 406.096 581.168C405.82 582.062 405.653 582.986 405.6 583.92C405.6 584.848 405.92 585.76 405.872 586.688C405.744 589.04 403.856 590.848 404.576 593.312C405.664 591.04 406.896 588.416 408.416 589.104C409.424 589.552 410.672 591.728 412.624 592.928C414.576 594.128 416.4 594.4 417.072 595.04C417.744 595.68 416.848 596.528 415.312 598.688C413.492 601.095 411.936 603.692 410.672 606.432C409.904 608.704 409.168 611.072 408.544 613.392C406.208 622.288 407.392 627.888 404.784 632.096C402.176 636.304 394.016 634.944 390.384 628.64C384.32 617.888 389.152 611.76 391.488 606.704C393.095 603.48 394.212 600.034 394.8 596.48C395.36 593.136 395.2 591.2 396.336 588.24Z" fill="black"/>
<path opacity="0.15" d="M404.496 592.88C404.112 590.64 405.76 588.896 405.872 586.688C405.872 585.76 405.632 584.848 405.6 583.92C405.653 582.986 405.82 582.062 406.096 581.168C406.221 580.956 406.36 580.753 406.512 580.56L405.664 580.256C405.072 580.176 404.624 580.752 404.208 581.168C404.048 581.328 403.888 581.52 403.728 581.712C403.676 581.787 403.633 581.867 403.6 581.952C403.442 582.418 403.34 582.902 403.296 583.392C403.104 584.704 402.976 586.032 402.88 587.36C402.88 588.016 402.784 588.656 402.768 589.312C402.755 589.806 402.702 590.299 402.608 590.784C402.4 591.728 401.824 592.512 401.568 593.44C401.293 594.445 400.946 595.429 400.528 596.384C398.672 600.544 396.656 603.552 395.408 609.328C394.16 615.104 395.408 616.24 396.8 616.016C398.192 615.792 397.76 614.016 398.752 608.912C399.776 603.552 402.96 598.576 404.576 593.312C404.542 593.17 404.515 593.025 404.496 592.88V592.88Z" fill="black"/>
<path opacity="0.15" d="M392.08 619.552C394.16 622.336 395.984 622.752 397.104 619.92C397.787 617.921 398.028 615.797 397.808 613.696L404.896 617.104C404.896 617.104 402.304 621.904 403.296 623.712C403.888 624.832 405.632 624.208 406.976 623.056C406.592 626.768 406.352 629.664 404.848 632.096C402.128 636.464 394.08 634.944 390.448 628.64C385.376 619.632 387.936 613.872 390.272 609.264C388.944 612.096 390 616.752 392.08 619.552Z" fill="black"/>
<path opacity="0.15" d="M415.152 598.928C413.421 601.279 411.92 603.792 410.672 606.432C409.904 608.704 409.168 611.072 408.544 613.392C408.144 614.912 407.856 616.336 407.632 617.664C407.283 618.312 406.777 618.863 406.16 619.264C404.88 619.68 404.56 619.424 404.896 617.104C405.344 614.48 410.88 601.472 415.152 598.928Z" fill="black"/>
<path d="M406.496 618.48C406.369 618.569 406.219 618.616 406.064 618.616C405.909 618.616 405.759 618.569 405.632 618.48C402.653 616.608 399.42 615.175 396.032 614.224C395.847 614.175 395.688 614.056 395.589 613.891C395.491 613.727 395.46 613.531 395.504 613.344C395.557 613.158 395.679 612.999 395.846 612.9C396.013 612.802 396.211 612.772 396.4 612.816C399.922 613.804 403.28 615.303 406.368 617.264C406.449 617.316 406.518 617.383 406.572 617.462C406.627 617.541 406.665 617.63 406.684 617.724C406.703 617.818 406.704 617.915 406.685 618.009C406.667 618.103 406.63 618.193 406.576 618.272L406.496 618.48Z" fill="#E0E0E0"/>
<path d="M407.712 614.928C407.58 615.046 407.409 615.111 407.232 615.111C407.055 615.111 406.884 615.046 406.752 614.928C404.013 612.483 400.578 610.956 396.928 610.56C396.753 610.525 396.597 610.427 396.488 610.286C396.38 610.144 396.327 609.968 396.338 609.79C396.35 609.612 396.426 609.444 396.552 609.318C396.678 609.192 396.846 609.116 397.024 609.104C401.017 609.525 404.771 611.206 407.744 613.904C407.877 614.041 407.951 614.225 407.951 614.416C407.951 614.607 407.877 614.791 407.744 614.928H407.712Z" fill="#E0E0E0"/>
<path d="M409.152 611.696C409.081 611.758 408.999 611.806 408.909 611.836C408.82 611.865 408.725 611.877 408.631 611.869C408.537 611.862 408.446 611.836 408.362 611.792C408.278 611.749 408.204 611.689 408.144 611.616C405.49 608.825 401.962 607.024 398.144 606.512C397.953 606.488 397.779 606.392 397.657 606.243C397.535 606.094 397.474 605.904 397.488 605.712C397.508 605.519 397.604 605.343 397.753 605.22C397.903 605.097 398.095 605.038 398.288 605.056C402.475 605.597 406.344 607.577 409.232 610.656C409.3 610.723 409.354 610.803 409.39 610.891C409.427 610.978 409.446 611.073 409.446 611.168C409.446 611.263 409.427 611.358 409.39 611.445C409.354 611.533 409.3 611.613 409.232 611.68L409.152 611.696Z" fill="#E0E0E0"/>
<path d="M410.672 608.288C410.517 608.403 410.322 608.453 410.13 608.426C409.939 608.399 409.765 608.298 409.648 608.144C407.151 605.195 403.652 603.275 399.824 602.752C399.729 602.744 399.637 602.717 399.553 602.673C399.469 602.63 399.394 602.569 399.333 602.497C399.272 602.424 399.226 602.339 399.198 602.249C399.169 602.158 399.159 602.063 399.168 601.968C399.188 601.775 399.284 601.599 399.433 601.476C399.583 601.353 399.775 601.294 399.968 601.312C404.212 601.837 408.093 603.967 410.816 607.264C410.928 607.421 410.975 607.614 410.948 607.805C410.921 607.995 410.822 608.168 410.672 608.288V608.288Z" fill="#E0E0E0"/>
<path d="M412.192 604.608C412.113 604.662 412.025 604.7 411.931 604.72C411.838 604.74 411.742 604.741 411.648 604.723C411.554 604.705 411.465 604.669 411.385 604.616C411.305 604.563 411.237 604.495 411.184 604.416C407.984 599.616 401.264 598.928 401.2 598.912C401.009 598.888 400.835 598.792 400.713 598.643C400.591 598.494 400.53 598.304 400.544 598.112C400.568 597.919 400.667 597.744 400.82 597.624C400.973 597.504 401.167 597.449 401.36 597.472C401.648 597.472 408.752 598.304 412.384 603.584C412.439 603.664 412.477 603.754 412.497 603.848C412.517 603.943 412.518 604.041 412.5 604.136C412.482 604.231 412.446 604.322 412.393 604.403C412.34 604.484 412.272 604.553 412.192 604.608Z" fill="#E0E0E0"/>
<path d="M413.776 601.6C413.697 601.654 413.609 601.692 413.515 601.712C413.422 601.732 413.326 601.733 413.232 601.715C413.138 601.697 413.049 601.661 412.969 601.608C412.889 601.555 412.821 601.487 412.768 601.408C411.567 599.901 410.079 598.647 408.39 597.718C406.701 596.79 404.844 596.206 402.928 596C402.736 595.992 402.554 595.908 402.423 595.768C402.291 595.627 402.22 595.44 402.224 595.248C402.232 595.054 402.315 594.871 402.455 594.737C402.595 594.603 402.782 594.528 402.976 594.528C405.12 594.75 407.197 595.399 409.085 596.438C410.973 597.477 412.633 598.884 413.968 600.576C414.023 600.656 414.061 600.746 414.081 600.84C414.101 600.935 414.102 601.033 414.084 601.128C414.067 601.223 414.03 601.314 413.977 601.395C413.924 601.476 413.856 601.545 413.776 601.6Z" fill="#E0E0E0"/>
<path d="M338.32 587.6C337.232 588 335.12 588.96 334.768 589.936C333.812 593.866 332.444 597.684 330.688 601.328C328.4 605.632 321.84 612.528 322.544 620.624C323.168 627.712 325.744 630.816 328.304 633.056C329.275 634.014 330.462 634.723 331.766 635.125C333.07 635.526 334.451 635.606 335.792 635.36C335.792 635.36 339.76 634.576 339.648 632.16C339.536 629.744 338.32 587.6 338.32 587.6Z" fill="#37474F"/>
<path d="M337.744 587.76C338.164 586.936 338.786 586.231 339.552 585.712C340.482 585.187 341.375 584.599 342.224 583.952C343.104 583.168 343.696 582.112 344.576 581.328C344.982 580.91 345.507 580.627 346.08 580.518C346.653 580.409 347.245 580.48 347.776 580.72C347.848 580.787 347.913 580.862 347.968 580.944L347.536 581.488C346.985 582.339 346.675 583.323 346.64 584.336C346.496 585.424 346.496 586.512 346.4 587.616C346.304 588.75 346.112 589.875 345.824 590.976C345.68 591.472 345.456 591.984 345.344 592.496C345.232 593.008 345.456 593.68 345.344 593.872C346.72 591.776 348.272 589.328 349.696 590.192C350.624 590.768 351.6 593.088 353.376 594.528C355.152 595.968 356.928 596.464 357.52 597.184C358.112 597.904 357.12 598.624 355.312 600.576C353.201 602.737 351.329 605.119 349.728 607.68C348.672 609.824 347.632 612.096 346.736 614.304C343.28 622.832 343.76 628.544 340.64 632.384C337.52 636.224 329.584 633.84 326.848 627.136C322.192 615.712 327.76 610.24 330.736 605.52C332.734 602.522 334.276 599.243 335.312 595.792C335.824 593.968 336.112 592.096 336.72 590.304C336.993 589.43 337.335 588.579 337.744 587.76Z" fill="#00BFA5"/>
<path opacity="0.4" d="M337.744 587.76C338.164 586.936 338.786 586.231 339.552 585.712C340.482 585.187 341.375 584.599 342.224 583.952C343.104 583.168 343.696 582.112 344.576 581.328C344.982 580.91 345.507 580.627 346.08 580.518C346.653 580.409 347.245 580.48 347.776 580.72C347.848 580.787 347.913 580.862 347.968 580.944L347.536 581.488C346.985 582.339 346.675 583.323 346.64 584.336C346.496 585.424 346.496 586.512 346.4 587.616C346.304 588.75 346.112 589.875 345.824 590.976C345.68 591.472 345.456 591.984 345.344 592.496C345.232 593.008 345.456 593.68 345.344 593.872C346.72 591.776 348.272 589.328 349.696 590.192C350.624 590.768 351.6 593.088 353.376 594.528C355.152 595.968 356.928 596.464 357.52 597.184C358.112 597.904 357.12 598.624 355.312 600.576C353.201 602.737 351.329 605.119 349.728 607.68C348.672 609.824 347.632 612.096 346.736 614.304C343.28 622.832 343.76 628.544 340.64 632.384C337.52 636.224 329.584 633.84 326.848 627.136C322.192 615.712 327.76 610.24 330.736 605.52C332.734 602.522 334.276 599.243 335.312 595.792C335.824 593.968 336.112 592.096 336.72 590.304C336.993 589.43 337.335 588.579 337.744 587.76Z" fill="black"/>
<path opacity="0.15" d="M345.376 592.496C345.488 591.984 345.712 591.472 345.856 590.976C346.144 589.875 346.336 588.75 346.432 587.616C346.528 586.512 346.528 585.424 346.672 584.336C346.707 583.323 347.017 582.339 347.568 581.488L348 580.944C347.945 580.862 347.88 580.787 347.808 580.72C347.277 580.48 346.685 580.409 346.112 580.518C345.539 580.627 345.014 580.91 344.608 581.328L344.528 581.424C344.412 581.822 344.327 582.229 344.272 582.64C344.112 583.984 344.032 585.84 343.84 587.152C343.56 589.08 343.061 590.969 342.352 592.784C339.728 599.52 335.744 604.688 333.328 611.504C332.947 612.419 332.804 613.415 332.912 614.4C333.136 615.248 333.68 616 334.512 615.696C335.344 615.392 335.536 614.624 335.776 614C337.375 609.87 339.245 605.851 341.376 601.968C342.176 600.512 343.072 599.104 343.776 597.6C344.192 596.704 345.024 594.8 345.376 593.872C345.488 593.68 345.312 592.8 345.376 592.496Z" fill="black"/>
<path opacity="0.15" d="M329.6 618.32C331.312 621.36 333.088 621.936 334.544 619.328C335.473 617.432 335.981 615.358 336.032 613.248L342.64 617.52C342.64 617.52 339.44 621.936 340.144 623.92C340.576 625.104 342.384 624.704 343.872 623.728C343.024 627.376 342.416 630.208 340.672 632.432C337.472 636.416 329.616 633.888 326.88 627.184C322.992 617.584 326.256 612.224 329.168 607.984C327.472 610.544 328 615.28 329.6 618.32Z" fill="black"/>
<path opacity="0.15" d="M355.2 600.784C353.183 602.902 351.377 605.212 349.808 607.68C348.752 609.824 347.712 612.096 346.816 614.304C346.224 615.76 345.76 617.136 345.36 618.432C344.95 619.025 344.4 619.508 343.76 619.84C342.448 620.08 342.16 619.84 342.8 617.52C343.552 614.992 350.704 602.784 355.264 600.784H355.2Z" fill="black"/>
<path d="M344 619.088C343.876 619.184 343.724 619.236 343.568 619.236C343.412 619.236 343.26 619.184 343.136 619.088C340.439 616.864 337.438 615.037 334.224 613.664C334.136 613.628 334.055 613.576 333.988 613.509C333.92 613.442 333.866 613.363 333.828 613.275C333.791 613.187 333.772 613.093 333.771 612.998C333.77 612.903 333.788 612.808 333.824 612.72C333.86 612.632 333.912 612.551 333.979 612.484C334.046 612.416 334.125 612.362 334.213 612.325C334.301 612.287 334.395 612.268 334.49 612.267C334.585 612.266 334.68 612.284 334.768 612.32C338.132 613.744 341.269 615.652 344.08 617.984C344.148 618.051 344.202 618.131 344.238 618.219C344.275 618.306 344.294 618.401 344.294 618.496C344.294 618.591 344.275 618.686 344.238 618.773C344.202 618.861 344.148 618.941 344.08 619.008C344.057 619.038 344.03 619.065 344 619.088Z" fill="#E0E0E0"/>
<path d="M345.728 615.728C345.578 615.825 345.398 615.863 345.221 615.837C345.044 615.81 344.883 615.72 344.768 615.584C342.37 612.807 339.165 610.85 335.6 609.984C335.411 609.948 335.244 609.838 335.136 609.679C335.028 609.52 334.988 609.325 335.024 609.136C335.06 608.947 335.17 608.78 335.329 608.672C335.488 608.564 335.683 608.524 335.872 608.56C339.781 609.47 343.296 611.606 345.904 614.656C345.965 614.73 346.01 614.816 346.038 614.908C346.065 615 346.074 615.096 346.064 615.192C346.053 615.287 346.024 615.379 345.977 615.463C345.93 615.547 345.868 615.621 345.792 615.68L345.728 615.728Z" fill="#E0E0E0"/>
<path d="M347.568 612.704C347.409 612.807 347.215 612.843 347.029 612.804C346.843 612.765 346.681 612.654 346.576 612.496C344.305 609.372 341.038 607.114 337.312 606.096C337.208 606.087 337.107 606.055 337.016 606.003C336.924 605.952 336.845 605.881 336.784 605.796C336.722 605.712 336.679 605.615 336.658 605.512C336.637 605.41 336.638 605.304 336.661 605.202C336.684 605.1 336.728 605.003 336.791 604.92C336.854 604.836 336.934 604.767 337.026 604.717C337.118 604.667 337.22 604.637 337.324 604.629C337.429 604.621 337.534 604.636 337.632 604.672C341.716 605.741 345.302 608.195 347.776 611.616C347.83 611.695 347.868 611.783 347.888 611.877C347.908 611.97 347.909 612.066 347.891 612.16C347.873 612.254 347.837 612.343 347.784 612.423C347.731 612.503 347.663 612.571 347.584 612.624L347.568 612.704Z" fill="#E0E0E0"/>
<path d="M349.504 609.504C349.42 609.553 349.327 609.584 349.231 609.597C349.135 609.61 349.037 609.603 348.943 609.578C348.85 609.552 348.762 609.509 348.685 609.45C348.608 609.39 348.544 609.316 348.496 609.232C346.4 605.99 343.171 603.645 339.44 602.656C339.254 602.607 339.094 602.488 338.993 602.324C338.891 602.161 338.857 601.964 338.896 601.776C338.942 601.588 339.06 601.425 339.224 601.323C339.389 601.221 339.587 601.189 339.776 601.232C343.916 602.294 347.493 604.899 349.776 608.512C349.824 608.595 349.856 608.686 349.868 608.781C349.88 608.876 349.874 608.973 349.848 609.065C349.823 609.158 349.78 609.244 349.72 609.319C349.661 609.395 349.588 609.457 349.504 609.504Z" fill="#E0E0E0"/>
<path d="M351.488 606.064C351.403 606.108 351.31 606.135 351.215 606.142C351.12 606.15 351.024 606.138 350.933 606.109C350.842 606.079 350.758 606.031 350.686 605.969C350.614 605.906 350.554 605.83 350.512 605.744C347.904 600.656 341.376 599.04 341.312 599.024C341.218 599.003 341.129 598.964 341.05 598.908C340.971 598.852 340.904 598.781 340.854 598.699C340.803 598.617 340.769 598.526 340.754 598.43C340.74 598.335 340.744 598.238 340.768 598.144C340.814 597.956 340.932 597.793 341.096 597.691C341.261 597.59 341.459 597.557 341.648 597.6C341.936 597.68 348.88 599.392 351.808 605.088C351.852 605.173 351.879 605.266 351.886 605.361C351.894 605.456 351.882 605.552 351.853 605.643C351.823 605.734 351.775 605.818 351.713 605.89C351.65 605.963 351.574 606.022 351.488 606.064Z" fill="#E0E0E0"/>
<path d="M353.44 603.2C353.268 603.291 353.067 603.31 352.881 603.253C352.695 603.196 352.54 603.067 352.448 602.896C351.448 601.247 350.132 599.813 348.575 598.676C347.018 597.539 345.251 596.722 343.376 596.272C343.186 596.237 343.017 596.128 342.906 595.97C342.795 595.811 342.751 595.615 342.784 595.424C342.8 595.33 342.833 595.241 342.884 595.16C342.934 595.08 343 595.01 343.077 594.955C343.154 594.9 343.242 594.861 343.334 594.84C343.427 594.819 343.522 594.816 343.616 594.832C345.714 595.317 347.692 596.22 349.432 597.487C351.172 598.755 352.639 600.36 353.744 602.208C353.835 602.38 353.853 602.581 353.797 602.767C353.74 602.953 353.611 603.108 353.44 603.2V603.2Z" fill="#E0E0E0"/>
<path d="M431.344 443.52C431.344 443.52 424.448 454.416 416.4 467.936C408.768 480.736 404.736 486.912 400.88 493.776C400.88 493.776 397.68 503.6 414.608 512.208C431.536 520.816 439.04 514.16 439.04 514.16L448.32 502.448L446.576 523.248C446.576 523.248 450 530.032 466.256 530.528C478.288 530.896 484.192 527.088 484.192 527.088C484.192 527.088 495.232 488.256 496.896 473.248C496.896 473.248 491.024 461.152 473.392 449.248C455.76 437.344 431.344 443.52 431.344 443.52Z" fill="#455A64"/>
<path d="M473.392 449.376C455.792 437.552 431.344 443.52 431.344 443.52L424.944 453.744C429.424 451.504 440.944 458.192 455.008 465.12C467.808 471.52 484.288 475.2 496.864 473.312C496.896 473.312 491.024 461.216 473.392 449.376Z" fill="#37474F"/>
<path d="M534.128 360.992C531.984 365.408 510.592 402.432 504.704 409.744C490.304 402.144 498.832 374.8 498.832 374.8C509.856 361.216 515.904 353.488 518.416 349.2C519.33 347.297 519.935 345.261 520.208 343.168C520.672 340.912 524.784 313.168 524.112 304.656C523.98 303.152 523.296 301.75 522.192 300.72C519.264 297.904 518.368 295.456 516.384 292.272C514.784 289.792 513.184 288.912 513.648 288.304C514.186 287.659 514.946 287.239 515.778 287.127C516.61 287.014 517.454 287.217 518.144 287.696C519.695 288.724 521.118 289.933 522.384 291.296C521.833 288.002 520.753 284.82 519.184 281.872C515.664 275.088 516.208 271.504 525.744 273.408C531.728 274.592 537.232 279.808 538.976 293.856C539.291 298.944 539.291 304.048 538.976 309.136C538.688 320.928 538.48 339.76 537.6 347.872C537.207 352.413 536.032 356.851 534.128 360.992V360.992Z" fill="#FFA8A7"/>
<path d="M492.8 375.216C497.92 374.112 515.728 352.912 515.728 352.912C520.528 352.32 532.976 363.888 531.008 368.992C524.848 380.944 512.144 400.992 510.208 408.656C508.496 412.96 507.552 400.896 504.704 392.304C500.8 380.288 488.64 376.112 492.8 375.216Z" fill="#455A64"/>
<path d="M442.368 399.888C444.486 405.437 445.795 411.262 446.256 417.184C446.398 418.826 446.201 420.48 445.678 422.043C445.156 423.606 444.317 425.046 443.216 426.272C434.368 436.176 423.536 448.032 422.416 450.272C432.624 446 441.616 454.624 452.816 460.528C468.624 468.816 483.36 473.952 496.768 473.328C496.768 473.328 514.368 432.896 508.816 400.4C506.608 387.6 501.52 375.52 492.688 375.232C482.928 374.896 468.944 375.456 471.328 375.376L455.072 374.176C455.072 374.176 437.92 388.656 442.368 399.888Z" fill="#EBEBEB"/>
<path d="M439.184 350.08C438.016 348.72 432.656 351.68 428.656 355.712C424.656 359.744 422.176 364.368 423.856 366.736C424.848 368.112 438.544 364.608 438.544 364.608L441.872 353.6L439.184 350.08Z" fill="#37474F"/>
<path d="M416 348.096C417.136 352.896 439.648 389.504 444.688 398.496C456.56 388.816 453.76 374.496 453.76 374.496C453.76 374.496 434.56 346.08 432.624 341.472C432.288 339.847 432.201 338.179 432.368 336.528C432.368 334.224 433.648 315.728 436.16 307.584C436.622 306.142 437.595 304.919 438.896 304.144C442.352 302.048 443.776 299.856 446.4 297.184C448.448 295.088 450.192 294.576 449.936 293.984C449.562 293.227 448.914 292.641 448.124 292.344C447.334 292.047 446.46 292.061 445.68 292.384C443.942 293.036 442.292 293.901 440.768 294.96C441.997 291.865 443.721 288.99 445.872 286.448C450.768 280.592 451.04 276.976 441.312 276.752C435.216 276.624 428.704 280.464 423.936 293.84C422.247 299.51 420.869 305.268 419.808 311.088C417.504 322.672 416.512 330.608 415.616 338.72C414.973 341.83 415.105 345.049 416 348.096V348.096Z" fill="#FFA8A7"/>
<path d="M457.888 374.4L439.184 350.08C440.176 352 439.504 355.552 435.264 360.368C432.768 363.168 426.384 367.376 423.872 366.768L441.872 399.008C443.472 403.344 453.696 398.432 456.672 389.872C460.8 377.888 457.888 374.4 457.888 374.4Z" fill="#455A64"/>
<path d="M469.296 334.624C469.955 337.564 471.471 340.243 473.653 342.321C475.834 344.399 478.584 345.784 481.552 346.3C484.521 346.816 487.576 346.439 490.33 345.218C493.085 343.998 495.416 341.987 497.028 339.442C498.64 336.896 499.461 333.929 499.387 330.917C499.312 327.905 498.346 324.983 496.611 322.519C494.875 320.056 492.448 318.163 489.637 317.08C486.825 315.996 483.756 315.771 480.816 316.432C478.864 316.869 477.018 317.686 475.383 318.837C473.747 319.988 472.355 321.45 471.285 323.14C470.215 324.83 469.489 326.713 469.147 328.684C468.806 330.655 468.857 332.673 469.296 334.624V334.624Z" fill="#263238"/>
<path d="M450.176 336C450.498 335.154 451.053 334.416 451.776 333.872C452.672 333.232 453.856 332.064 454.768 333.104C455.36 333.776 455.36 335.088 455.616 335.904C456.528 338.72 457.424 341.536 458.336 344.336C458.432 344.624 459.392 346.816 459.2 347.056L461.6 343.984L466.4 367.824C465.787 367.893 465.167 367.777 464.62 367.492C464.073 367.207 463.623 366.766 463.328 366.224C461.728 363.76 460.704 361.056 459.456 358.784C458.208 356.512 456.256 353.344 454.88 350.976C452.8 347.376 450.416 344.912 449.792 340.8C449.56 339.563 449.56 338.293 449.792 337.056C449.882 336.691 450.011 336.337 450.176 336V336Z" fill="#263238"/>
<path d="M462.16 351.088C461.28 351.936 459.392 350.304 457.824 349.264C456.256 348.224 451.76 347.36 450.688 352.128C449.616 356.896 454.784 361.952 458.256 362.24C464.224 362.736 464.256 358.96 464.256 358.96L468.624 377.136C473.968 389.856 494.608 383.184 487.456 375.808L485.856 368.256C488.428 368.094 490.976 367.66 493.456 366.96C497.408 365.36 499.264 361.584 499.504 356.864C499.904 349.296 499.376 343.376 494.528 329.664C489.216 314.72 471.312 318.576 463.024 326.816C454.736 335.056 462.16 351.088 462.16 351.088Z" fill="#FFA8A7"/>
<path d="M490.832 326.16C490.683 326.175 490.543 326.236 490.432 326.336C490.329 326.449 490.257 326.587 490.224 326.736C489.408 329.424 486.32 330.768 483.712 330.816C482.714 330.835 481.72 330.667 480.784 330.32C479.865 329.947 479.075 329.313 478.512 328.496C478.099 329.516 477.424 330.409 476.556 331.086C475.689 331.763 474.658 332.2 473.568 332.352C471.367 332.637 469.135 332.139 467.264 330.944C467.57 331.903 467.553 332.936 467.215 333.884C466.877 334.833 466.236 335.643 465.392 336.192C464.444 336.69 463.414 337.015 462.352 337.152C462.874 337.561 463.286 338.095 463.548 338.704C463.811 339.314 463.917 339.979 463.856 340.64C463.775 341.298 463.533 341.926 463.15 342.468C462.768 343.009 462.257 343.448 461.664 343.744C462.366 344.381 462.829 345.24 462.976 346.176C463.261 347.037 463.475 347.92 463.616 348.816C463.616 349.648 463.712 352.528 462.544 352.816C462.032 352.944 459.344 350.144 457.824 349.264C457.04 348.816 456.768 347.424 456.56 346.64C456.148 345.035 455.838 343.405 455.632 341.76C455.588 340.662 455.355 339.579 454.944 338.56C454.416 337.68 453.152 337.168 452.32 336.624C451.334 336.045 450.548 335.18 450.064 334.144C449.027 331.885 448.845 329.327 449.552 326.944C450.036 325.095 451.095 323.448 452.576 322.24C453.326 321.653 454.205 321.255 455.141 321.08C456.077 320.904 457.041 320.957 457.952 321.232C457.703 319.677 457.867 318.083 458.429 316.611C458.991 315.14 459.93 313.842 461.152 312.848C464.096 310.512 467.312 310.96 470.752 311.648C471.492 310.37 472.511 309.274 473.733 308.443C474.954 307.612 476.347 307.067 477.808 306.848C479.255 306.786 480.696 307.061 482.018 307.653C483.34 308.244 484.506 309.136 485.424 310.256C486.69 309.508 488.117 309.077 489.585 308.999C491.053 308.921 492.518 309.199 493.856 309.808C495.653 310.62 497.105 312.043 497.952 313.824C498.306 314.616 498.559 315.449 498.704 316.304C499.024 317.656 499.024 319.064 498.704 320.416C498.191 321.693 497.332 322.801 496.224 323.616C494.709 324.966 492.837 325.849 490.832 326.16V326.16Z" fill="#263238"/>
<path d="M485.824 368.256C485.824 368.256 476.224 368.464 472.672 367.488C470.572 366.929 468.689 365.753 467.264 364.112C468.172 365.873 469.424 367.434 470.944 368.704C473.952 371.168 486.368 370.688 486.368 370.688L485.824 368.256Z" fill="#F28F8F"/>
<path d="M479.808 344.32C479.871 344.681 479.827 345.052 479.681 345.388C479.535 345.724 479.293 346.01 478.986 346.21C478.68 346.41 478.321 346.516 477.954 346.514C477.588 346.512 477.23 346.403 476.926 346.2C476.621 345.996 476.382 345.708 476.24 345.371C476.097 345.033 476.057 344.662 476.123 344.301C476.19 343.941 476.361 343.608 476.615 343.344C476.869 343.08 477.195 342.897 477.552 342.816C477.799 342.765 478.054 342.763 478.301 342.811C478.549 342.859 478.785 342.956 478.995 343.096C479.204 343.236 479.384 343.416 479.524 343.626C479.664 343.837 479.76 344.072 479.808 344.32Z" fill="#263238"/>
<path d="M487.456 359.008C487.51 359.249 487.515 359.497 487.473 359.74C487.43 359.983 487.34 360.215 487.208 360.423C487.076 360.631 486.904 360.811 486.702 360.952C486.5 361.094 486.273 361.194 486.032 361.248C485.791 361.302 485.543 361.307 485.3 361.265C485.057 361.222 484.825 361.132 484.617 361C484.409 360.868 484.229 360.696 484.088 360.494C483.946 360.292 483.846 360.065 483.792 359.824C483.738 359.583 483.733 359.335 483.775 359.092C483.818 358.849 483.908 358.617 484.04 358.409C484.172 358.201 484.344 358.021 484.546 357.88C484.748 357.738 484.975 357.638 485.216 357.584C485.457 357.53 485.705 357.525 485.948 357.567C486.191 357.61 486.423 357.7 486.631 357.832C486.839 357.964 487.019 358.136 487.16 358.338C487.302 358.54 487.402 358.767 487.456 359.008V359.008Z" fill="#F28F8F"/>
<path d="M476.176 338.368L472 340.432C471.725 339.866 471.681 339.215 471.878 338.617C472.075 338.02 472.498 337.523 473.056 337.232C473.333 337.088 473.637 337.004 473.948 336.984C474.26 336.964 474.572 337.009 474.865 337.115C475.158 337.222 475.426 337.389 475.652 337.604C475.878 337.82 476.056 338.08 476.176 338.368V338.368Z" fill="#263238"/>
<path d="M493.456 333.92L488.832 334.304C488.794 334.005 488.817 333.701 488.9 333.41C488.983 333.12 489.123 332.85 489.313 332.615C489.503 332.381 489.738 332.187 490.004 332.045C490.271 331.904 490.563 331.818 490.864 331.792C491.486 331.75 492.1 331.947 492.582 332.342C493.063 332.738 493.376 333.302 493.456 333.92Z" fill="#263238"/>
<path d="M493.568 339.2C493.628 339.444 493.638 339.697 493.6 339.945C493.561 340.193 493.474 340.431 493.343 340.645C493.212 340.859 493.04 341.045 492.837 341.192C492.634 341.34 492.404 341.446 492.16 341.504C491.783 341.604 491.385 341.588 491.017 341.46C490.65 341.331 490.329 341.096 490.096 340.783C489.863 340.471 489.729 340.096 489.711 339.706C489.693 339.317 489.792 338.931 489.995 338.599C490.199 338.266 490.497 338.002 490.851 337.841C491.206 337.679 491.601 337.627 491.985 337.692C492.369 337.757 492.725 337.935 493.007 338.204C493.29 338.472 493.485 338.819 493.568 339.2V339.2Z" fill="#263238"/>
<path d="M485.136 342.496L488.208 353.392L493.536 350.144L485.136 342.496Z" fill="#F28F8F"/>
<path d="M448.32 502.4L461.824 482.688C469.154 481.854 476.36 480.162 483.296 477.648C483.296 477.648 478.688 483.344 464.096 485.936L450.192 505.136L446.512 523.312L448.32 502.4Z" fill="#37474F"/>
<path d="M420.88 304.16C421.667 299.09 422.806 294.08 424.288 289.168C426.576 282.048 429.264 276.544 436.416 274.768C443.568 272.992 447.408 275.28 449.68 277.968C451.952 280.656 447.824 284.576 445.488 287.296C443.984 289.116 442.809 291.184 442.016 293.408C442.016 293.408 446.32 290.112 449.136 291.664C451.952 293.216 451.744 294.032 449.136 296.464C446.528 298.896 443.008 302.496 440.656 304.32C439.028 305.562 437.484 306.909 436.032 308.352C436.032 308.352 425.936 310.4 420.88 304.16Z" fill="#00BFA5"/>
<path opacity="0.4" d="M420.88 304.16C421.667 299.09 422.806 294.08 424.288 289.168C426.576 282.048 429.264 276.544 436.416 274.768C443.568 272.992 447.408 275.28 449.68 277.968C451.952 280.656 447.824 284.576 445.488 287.296C443.984 289.116 442.809 291.184 442.016 293.408C442.016 293.408 446.32 290.112 449.136 291.664C451.952 293.216 451.744 294.032 449.136 296.464C446.528 298.896 443.008 302.496 440.656 304.32C439.028 305.562 437.484 306.909 436.032 308.352C436.032 308.352 425.936 310.4 420.88 304.16Z" fill="black"/>
<path d="M420.88 304.16C419.989 305.951 419.665 307.972 419.952 309.952C419.952 309.952 424.512 314.592 434.768 313.296C435.293 312.623 435.675 311.851 435.892 311.026C436.11 310.201 436.157 309.34 436.032 308.496C436.032 308.496 426.4 309.536 420.88 304.16Z" fill="#37474F"/>
<path d="M539.552 302.576C539.867 297.454 539.83 292.317 539.44 287.2C538.736 279.76 537.28 273.808 530.688 270.544C524.096 267.28 519.84 268.672 517.024 270.88C514.208 273.088 516.64 277.888 518.352 281.04C519.465 283.152 520.417 285.345 521.2 287.6C521.2 287.6 517.696 283.456 514.624 284.4C511.552 285.344 511.552 286.144 513.584 289.088C515.616 292.032 518.272 296.304 520.176 298.592C521.502 300.154 522.726 301.8 523.84 303.52C523.84 303.52 533.264 307.616 539.552 302.576Z" fill="#00BFA5"/>
<path opacity="0.4" d="M539.552 302.576C539.867 297.454 539.83 292.317 539.44 287.2C538.736 279.76 537.28 273.808 530.688 270.544C524.096 267.28 519.84 268.672 517.024 270.88C514.208 273.088 516.64 277.888 518.352 281.04C519.465 283.152 520.417 285.345 521.2 287.6C521.2 287.6 517.696 283.456 514.624 284.4C511.552 285.344 511.552 286.144 513.584 289.088C515.616 292.032 518.272 296.304 520.176 298.592C521.502 300.154 522.726 301.8 523.84 303.52C523.84 303.52 533.264 307.616 539.552 302.576Z" fill="black"/>
<path d="M539.552 302.576C540.032 304.518 539.909 306.561 539.2 308.432C539.2 308.432 533.76 312 524.016 308.432C523.639 307.656 523.429 306.809 523.399 305.947C523.369 305.084 523.519 304.225 523.84 303.424C523.84 303.424 533.008 306.64 539.552 302.576Z" fill="#37474F"/>
</svg>
