<svg xmlns="http://www.w3.org/2000/svg" viewBox="0 0 500 500"><g id="freepik--Floor--inject-333"><g id="freepik--floor--inject-333"><ellipse id="freepik--floor--inject-333" cx="250" cy="344.13" rx="228.54" ry="131.95" style="fill:#f0f0f0;opacity:0.7000000000000001"></ellipse></g></g><g id="freepik--Shadows--inject-333"><ellipse id="freepik--Shadow--inject-333" cx="349.65" cy="408.73" rx="58.51" ry="33.78" style="fill:#e0e0e0"></ellipse><ellipse id="freepik--shadow--inject-333" cx="157.5" cy="408.73" rx="58.51" ry="33.78" style="fill:#e0e0e0"></ellipse></g><g id="freepik--character-2--inject-333"><g id="freepik--Character--inject-333"><path d="M403.37,301.25s-2.52-2-3.8-1.73c-.6.12-.16,1.76-.85,4.86a7.06,7.06,0,0,1-1.61,3l-.46.13-.13,0-1.22.34c-10.65,3-34.76,9.5-46.83,10.77-9.21,1-12.92-1.45-15.46-9.59-4-13-6.73-44.8-7.48-54.52-6.6,15.67-12.89,31.56-18.73,47.46,13.53,11.48,22.35,45.27,27.15,58.41l1.07,2.77.54,1.38s2.65,3.14-1.07,7.13-8.13,4.08-10.14,1.85c-10.76-15.11-29.56-40.27-38.53-55.23-6.38-10.66-7.34-12.65-6.09-20.19,4-24.52,12.12-57.19,20.07-82.33l.15-.36,56.8,3.51c3.57,27.51-.32,75-.32,75l37.3-1.77h0l2.54-.25h0c.79.38,2.07,2.23,2.67,3.86S402.09,298.51,403.37,301.25Z" style="fill:#b16668"></path><path d="M395.3,307.89l1.22-.34.13,0,.46-.13a7.06,7.06,0,0,0,1.61-3c.69-3.1.25-4.74.85-4.86,1.28-.25,3.8,1.73,3.8,1.73-1.28-2.74-3.79-3.77-4.39-5.41s-1.88-3.48-2.67-3.86h0l-2.54.25h0L356.43,294s4.64,15.55-3.6,24.07C365.65,316,385.82,310.52,395.3,307.89Z" style="fill:#37474f"></path><path d="M360.17,316.69c5-8.75,3.33-17.37.92-22.93l-4.66.23s4.64,15.55-3.6,24.07C355.08,317.7,357.56,317.23,360.17,316.69Z" style="fill:#00BFA5"></path><path d="M335,363.19,334,360.42C329.8,349,322.63,322.2,312,307.75c-3.49,9.49-17.78,14.8-24.3,13.62,9.52,15.15,26.6,38.05,36.65,52.18,2,2.23,6.41,2.15,10.14-1.85s1.07-7.13,1.07-7.13Z" style="fill:#37474f"></path><path d="M312,307.75c-3.49,9.49-17.78,14.8-24.3,13.62,1.18,1.88,2.47,3.87,3.85,5.94,11.72.23,19.88-6.54,24.24-13.67A60.34,60.34,0,0,0,312,307.75Z" style="fill:#00BFA5"></path><path d="M339.77,368.5c.64.8,1.79,2.46,1.65,3.39s-1.79,5.64-2,10.51c-.18,4.32,1.72,12.54-2.44,18.39-3.66,5.13-7,6.34-10,6.91a7.57,7.57,0,0,1-6.76-1.6s-2.67-2.39-1.48-4.23S339.77,368.5,339.77,368.5Z" style="fill:#37474f"></path><path d="M340,368.89a5.64,5.64,0,0,0-1.52-3.2c-1.24-1.34-2.59-2.49-3.08-4.33-.17-.65-.32-1.87-1.12-2.09-.07,0-.79,0-.79,0l.61,1.81c-.34.75-1,2.5-1.32,3.27-.72,2,.19,4.09-1.25,5.84-.1-2.22-.19-4.79-1.66-4.76-1,0-2.76,1.35-4.76,1.64s-3.58-.11-4.36.18-.34,1.28.16,3.58A37.38,37.38,0,0,1,322,378.7c-.17,2.12-.39,4.31-.7,6.4-1.19,8.06-4.12,12.2-3.45,16.54.69,4.5,7.77,6.08,12.87,2.18,8.68-6.63,6.89-13.31,6.74-18.24a32.25,32.25,0,0,1,.87-9.48C339.13,373.2,340,371.71,340,368.89Z" style="fill:#00BFA5"></path><path d="M340,368.89a5.64,5.64,0,0,0-1.52-3.2c-1.24-1.34-2.59-2.49-3.08-4.33-.17-.65-.32-1.87-1.12-2.09-.07,0-.79,0-.79,0l.61,1.81c-.34.75-1,2.5-1.32,3.27-.72,2,.19,4.09-1.25,5.84-.1-2.22-.19-4.79-1.66-4.76-1,0-2.76,1.35-4.76,1.64s-3.58-.11-4.36.18-.34,1.28.16,3.58A37.38,37.38,0,0,1,322,378.7c-.17,2.12-.39,4.31-.7,6.4-1.19,8.06-4.12,12.2-3.45,16.54.69,4.5,7.77,6.08,12.87,2.18,8.68-6.63,6.89-13.31,6.74-18.24a32.25,32.25,0,0,1,.87-9.48C339.13,373.2,340,371.71,340,368.89Z" style="opacity:0.4"></path><path d="M335.44,361.36a.14.14,0,0,0,0,.06l0,.11a27.29,27.29,0,0,1-.73,3.29c-.28,1.3-.46,2.62-.65,3.94-.13.92-.2,1.84-.24,2.77s-.08,1.68-.07,2.52c.06,4,.64,7.19-.35,12.32s-2.44,5.62-3.47,5-.08-1.95.9-6.46c1-4.72.18-9.88.69-14.73h0a3.29,3.29,0,0,0,.72-1.43v0c.35-1.41,0-2.94.53-4.38.29-.77,1-2.52,1.32-3.27l-.61-1.81h.23l.28,0h.13l.15,0c.5.13.74.66.9,1.2C335.31,360.79,335.37,361.12,335.44,361.36Z" style="opacity:0.15"></path><path d="M332.6,395.85c-2.67,1.55-4.28,1.2-4.22-1.44a12.77,12.77,0,0,1,1.6-5.31l-7,.29s.45,4.81-.95,6c-.86.71-2.07-.4-2.77-1.82-1,3.17-1.8,5.61-1.41,8.11.69,4.5,7.77,6.08,12.87,2.18,7.27-5.56,7.19-11.14,6.89-15.7C337.74,390.88,335.27,394.3,332.6,395.85Z" style="opacity:0.15"></path><path d="M321,371a40.55,40.55,0,0,1,1,7.68c-.17,2.12-.39,4.31-.7,6.4-.21,1.38-.46,2.64-.74,3.81a3.79,3.79,0,0,0,.64,1.81c.89.78,1.28.7,1.78-1.33.55-2.28.57-14.8-2-18.37Z" style="opacity:0.15"></path><path d="M321.24,390a.64.64,0,0,0,.69.34,32.19,32.19,0,0,1,9.23-.14.64.64,0,1,0,.21-1.27,33.16,33.16,0,0,0-9.67.14.65.65,0,0,0-.52.75A.48.48,0,0,0,321.24,390Z" style="fill:#e0e0e0"></path><path d="M321.49,386.65a.62.62,0,0,0,.79.31,15.66,15.66,0,0,1,9.51-.15.65.65,0,0,0,.83-.39.65.65,0,0,0-.4-.82,16.61,16.61,0,0,0-10.38.15.65.65,0,0,0-.39.83A.25.25,0,0,0,321.49,386.65Z" style="fill:#e0e0e0"></path><path d="M321.44,383.52a.64.64,0,0,0,.85.29,14.91,14.91,0,0,1,9.91-.68.66.66,0,0,0,.82-.42.65.65,0,0,0-.42-.81,16.07,16.07,0,0,0-10.87.74.65.65,0,0,0-.3.86Z" style="fill:#e0e0e0"></path><path d="M321.39,380.2v0a.64.64,0,0,0,.88.24c4.5-2.6,9.82-1,9.87-1a.66.66,0,0,0,.81-.42.64.64,0,0,0-.42-.81c-.24-.08-5.9-1.81-10.9,1.07A.64.64,0,0,0,321.39,380.2Z" style="fill:#e0e0e0"></path><path d="M321.43,376.69l0,.05a.65.65,0,0,0,.89.2c4.29-2.72,10-1,10.05-1a.65.65,0,0,0,.38-1.24c-.26-.08-6.33-1.89-11.11,1.15A.63.63,0,0,0,321.43,376.69Z" style="fill:#e0e0e0"></path><path d="M321.2,373.66s0,0,0,0a.65.65,0,0,0,.89.2,12.94,12.94,0,0,1,9.9-1,.64.64,0,1,0,.47-1.2,14.21,14.21,0,0,0-11.05,1.09A.63.63,0,0,0,321.2,373.66Z" style="fill:#e0e0e0"></path><path d="M412.59,330.32c1.46.61,5.26.66,7.27-.88,4.19-3.19,4.65-12,3-16.73-2-5.76-5.37-8.55-6.66-12s-1.26-8.51-2.88-11.51a9.24,9.24,0,0,0-6.21-4.49,5.59,5.59,0,0,0-4.77,1.15l-1.27,1Z" style="fill:#263238"></path><path d="M420.79,314.23c-1.44-6.46-8.23-10.47-8.49-16.86s-4.46-14.56-12.33-9.87a35.25,35.25,0,0,0-6.23,4.72l2.54-.25h0c.79.38,2.07,2.23,2.67,3.86s3.11,2.67,4.39,5.41c0,0-2.52-2-3.8-1.73-.6.12-.16,1.76-.85,4.86a7.06,7.06,0,0,1-1.61,3h0l-.45.12-.13,0-1.22.34c1.05.55,3.93,1,5.78,2.38h0a11.12,11.12,0,0,1,1.83,2.57,29,29,0,0,1,1.8,4.81c.77,2.46,1.56,4.92,2.42,7.35a14.61,14.61,0,0,0,1.65,3.56c2.22,3.17,6.57,2.94,9.24.43a9.7,9.7,0,0,0,2.84-4.39C422,321.12,421.49,317.33,420.79,314.23Z" style="fill:#00BFA5"></path><path d="M420.79,314.23c-1.44-6.46-8.23-10.47-8.49-16.86s-4.46-14.56-12.33-9.87a35.25,35.25,0,0,0-6.23,4.72l2.54-.25h0c.79.38,2.07,2.23,2.67,3.86s3.11,2.67,4.39,5.41c0,0-2.52-2-3.8-1.73-.6.12-.16,1.76-.85,4.86a7.06,7.06,0,0,1-1.61,3h0l-.45.12-.13,0-1.22.34c1.05.55,3.93,1,5.78,2.38h0a11.12,11.12,0,0,1,1.83,2.57,29,29,0,0,1,1.8,4.81c.77,2.46,1.56,4.92,2.42,7.35a14.61,14.61,0,0,0,1.65,3.56c2.22,3.17,6.57,2.94,9.24.43a9.7,9.7,0,0,0,2.84-4.39C422,321.12,421.49,317.33,420.79,314.23Z" style="opacity:0.4"></path><path d="M406.19,318.5a26.78,26.78,0,0,0-1.17-4.14,8.9,8.9,0,0,0-2.42-3.52,9.36,9.36,0,0,0-3.84-1.79,8.86,8.86,0,0,1,2.32,1.22h0a11.12,11.12,0,0,1,1.83,2.57,29,29,0,0,1,1.8,4.81c.47,1.47.94,2.94,1.43,4.41a1.78,1.78,0,0,0,.36-.49,2.91,2.91,0,0,0,0-1.75Z" style="opacity:0.15"></path><path d="M420.63,317.11a5.16,5.16,0,0,1-1.45,3.39,3.42,3.42,0,0,1-4,0,5.92,5.92,0,0,1-2.07-2.32c-.32-.78-.39-1.67-1.15-1.3a15.43,15.43,0,0,0-5.09,4.06.71.71,0,0,0-.18.3.89.89,0,0,0,.15.64,4.52,4.52,0,0,1,.28,3V325a14.61,14.61,0,0,0,1.65,3.56c2.22,3.17,6.57,2.94,9.24.43a9.7,9.7,0,0,0,2.84-4.39,20.22,20.22,0,0,0,0-10.08C420.82,315.4,420.75,316.26,420.63,317.11Z" style="opacity:0.15"></path><path d="M411,303.79a13.76,13.76,0,0,0-2.78-3c-.52-.41-1.1-.64-1.62-1A11.34,11.34,0,0,1,405,298.4c-2-2-3.4-4.43-5.14-6.62a6.71,6.71,0,0,0-2.07-1.78,4.3,4.3,0,0,0-1-.37c-1.1.84-2.14,1.73-3.06,2.59l2.54-.25h0c.79.38,2.07,2.23,2.67,3.86s3,2.64,4.34,5.3c1.28,1.09,2.65,2.08,3.83,3.21a10.37,10.37,0,0,1,2.37,3.1,41,41,0,0,1,3.21,9.45,3.45,3.45,0,0,0,.71,1.75,1.13,1.13,0,0,0,1.67,0,1.5,1.5,0,0,0,.2-.72,19,19,0,0,0-1.43-8.24A25.78,25.78,0,0,0,411,303.79Z" style="opacity:0.15"></path><path d="M405.47,322.87a.66.66,0,0,0,.83-.22,15.6,15.6,0,0,1,7.58-5.74.65.65,0,0,0,.43-.81.64.64,0,0,0-.8-.43,16.72,16.72,0,0,0-8.29,6.26.66.66,0,0,0,.18.9Z" style="fill:#e0e0e0"></path><path d="M404.62,318.67a.72.72,0,0,0,.19.11c.27.1.41,0,.55-.25a10.61,10.61,0,0,1,1.09-1.32,14.47,14.47,0,0,1,2.41-2,15.77,15.77,0,0,1,3.8-1.86l.42-.13a.65.65,0,0,0,.47-.78.65.65,0,0,0-.79-.47,13.56,13.56,0,0,0-2.67,1,15.77,15.77,0,0,0-4.9,3.67c-.37.41-.9.93-.81,1.53A.77.77,0,0,0,404.62,318.67Z" style="fill:#e0e0e0"></path><path d="M403.43,315.31c.41.32.75-.34,1-.63a10.55,10.55,0,0,1,1.07-1.25,14.14,14.14,0,0,1,2.35-1.86,15,15,0,0,1,3.39-1.6l.15,0a.65.65,0,0,0-.33-1.25,13.37,13.37,0,0,0-2.66,1.08,14.54,14.54,0,0,0-4.69,3.73,1.68,1.68,0,0,0-.54,1.2.86.86,0,0,0,.21.53A.38.38,0,0,0,403.43,315.31Z" style="fill:#e0e0e0"></path><path d="M402,312.15a.63.63,0,0,0,.27.1c.28,0,.37-.29.5-.49a7.66,7.66,0,0,1,.45-.66,10.4,10.4,0,0,1,1-1.18,14.73,14.73,0,0,1,2.21-1.8,15.3,15.3,0,0,1,3-1.57l.05,0a.64.64,0,0,0,.4-.82.65.65,0,0,0-.82-.4,15.19,15.19,0,0,0-2.66,1.29,14.33,14.33,0,0,0-4.44,4,2,2,0,0,0-.42.81.61.61,0,0,0,.06.4,1,1,0,0,0,.22.23Z" style="fill:#e0e0e0"></path><path d="M404.93,301.29a.67.67,0,0,0-.28,0c-.28.05-.29.38-.36.6s-.18.5-.28.75a12,12,0,0,1-.7,1.39,13.59,13.59,0,0,1-1.7,2.29,14.65,14.65,0,0,1-2.52,2.26l0,0a.64.64,0,1,0,.71,1.07,14.6,14.6,0,0,0,2.25-1.9,14.27,14.27,0,0,0,3.32-5,2,2,0,0,0,.21-.89.62.62,0,0,0-.16-.37.69.69,0,0,0-.27-.17Z" style="fill:#e0e0e0"></path><path d="M355.5,212.93c2.34,8.35,4.26,18.21,3.89,34.46s.05,30.83.05,30.83-2.12,6.66-15.66,8.31-18.86-2.73-18.86-2.73L322.85,264l-5.68,15s-6.31,1.58-17.1-2-15-11.54-15-11.54,9.58-40,13.74-49.27Z" style="fill:#455a64"></path><path d="M322.85,264l-1.25-12.73s-12,.5-17.08-10.41c0,0,1.06,10,14.7,14l1.64,8.88L317.17,279Z" style="fill:#37474f"></path><path d="M351.05,284.88c1.13-22.27-.92-55.7-4.53-66.58L343.91,221c4.09,15.77,5,49.41,4.28,64.74A28,28,0,0,0,351.05,284.88Z" style="fill:#00BFA5"></path><path d="M349.65,220.35c4.07,15.65,4.25,48.19,3.44,63.67A17.75,17.75,0,0,0,356,282.3c1.1-22.23-.19-54-3.73-64.64Z" style="fill:#00BFA5"></path><path d="M263.46,109.36a41.17,41.17,0,0,0,6.66,12.37c13.22,15.82,26.61,24.14,33.43,38.2,7.83-1,18-14.56,11.71-22.33-6.85-2.44-32.38-29.51-34.75-33.45-2.16-4.11-9.41-23-11.11-30.14a5.09,5.09,0,0,1,.52-3.52c1.66-3.14,1.45-6.5,2.2-9.67.59-2.48,1.65-3.63,1.16-4a2.9,2.9,0,0,0-3.87.74,31,31,0,0,0-2.88,5,58.7,58.7,0,0,1-.06-8.61c.42-6.61-1.1-11.52-8.42-7.32-4.59,2.63-7.16,9.39-4.71,21.47.71,3.47,2,11.58,3.24,16.57C258.89,93.89,260.24,101,263.46,109.36Z" style="fill:#b16668"></path><path d="M319.37,137.62c-3.1-1.47-6.82-2.66-10.91-6-4.27-3.48-9.57-7.42-9.57-7.42s-9.31,7.57-9.09,18.75a57.24,57.24,0,0,1,8.86,11.52,46.45,46.45,0,0,1,4.32,10.3s10.29,2,12.17-9.08A134.86,134.86,0,0,1,319.37,137.62Z" style="fill:#00BFA5"></path><path d="M303,190.24c-.38-3.27-.28-9.34-.35-11-8.63-7.37-5.36-15.27-2.63-21.64,5.47-12.72,11-20.06,16.44-20.1l15,.44c7.75.14,16.7.57,18.69.91,5.07.87,7.43,6,8,11.33.59,5.82,1.95,6.27,1,16,0,0-3.49,10-6.61,18.86,0,0-1.13,6.53,0,9.57,2.08,5.63,5.07,18.69,6.11,28.18,0,0-5.51,7.81-30.44,7.8-18.13,0-32-9.49-32-9.49Z" style="fill:#00BFA5"></path><path d="M355.72,157.25c0,.85-.07,1.76-.14,2.81l-55.29-3c.42-1,.83-1.87,1.25-2.75Z" style="fill:#455a64"></path><path d="M316.49,137.53l15,.44c7.75.14,16.7.57,18.69.91,5.07.87,4.67,5.47,5.2,10.78a27.82,27.82,0,0,1,.41,4.57l-52.89-2.62C307.4,142.63,312,137.57,316.49,137.53Z" style="fill:#455a64"></path><path d="M347.39,194.34c-.08-.93-.13-1.87-.13-2.8a39.28,39.28,0,0,1,1.23-9.22c1.42-5.71,4.43-12,3.22-15.18s-4.21-8.56-2.82-18.94l8.16-2.77a19.4,19.4,0,0,1,1.05,4.78c.59,5.82,1.95,6.27,1,16,0,0-3.49,10-6.61,18.86,0,0-1.13,6.53,0,9.57,2.08,5.63,5.07,18.69,6.11,28.18,0,0-5.51,7.81-30.44,7.8h-.74c10-2.22,19.72-9,21.19-19.84C349.39,205.32,347.85,199.84,347.39,194.34Z" style="opacity:0.1"></path><path d="M342.29,173.85a13.34,13.34,0,0,1-12.24,7.73,14.06,14.06,0,0,1-12.35-6.79s.92,9.77,12.49,9.14S342.29,173.85,342.29,173.85Z" style="opacity:0.1"></path><path d="M303.08,97.37a19.65,19.65,0,0,1-.05-5.14,16,16,0,0,1,5.29-10.12c5.32-4.49,12.06-3,18.4-2.7,11.48.52,22.93,5,26.15,15.18,2,6.37,1.17,14-1.62,22.85-2.41,7.71-5.49,12.28-11.86,13.25l-11.76-2c-5.27.95-10.34-1.14-14.23-4.64a28,28,0,0,1-2.91-3.06,9.55,9.55,0,0,1-1.74-3.68,69.87,69.87,0,0,1-2.22-9.38,17.86,17.86,0,0,0-1.66-4.32A23.6,23.6,0,0,1,303.08,97.37Z" style="fill:#263238"></path><path d="M312.08,89.64c-2.94,1.6-6.75,8.7-6.95,23.88-.16,12.87,3.89,16.19,5.95,17.18s6.11.58,10.06.07l-.28,7.71s-.52,8.24,2.64,8.78c8.61-.54,15.87-8.39,15.87-8.39l0-16.42a5.68,5.68,0,0,0,6-1.48c3-3.12,4-7.44,1.62-10.09a5.63,5.63,0,0,0-9,1.46s-2.31.11-4.46-4.25a17.48,17.48,0,0,1-10.95-2.86C314.51,100.16,312.7,92.24,312.08,89.64Z" style="fill:#b16668"></path><path d="M321.88,110.08a1.62,1.62,0,1,0,1.76-1.54A1.64,1.64,0,0,0,321.88,110.08Z" style="fill:#263238"></path><g style="opacity:0.5;mix-blend-mode:multiply"><path d="M319.49,120.76l-5.1,1.43a2.61,2.61,0,0,0,3.22,1.93A2.78,2.78,0,0,0,319.49,120.76Z" style="fill:#9a4a4d"></path></g><path d="M307.45,104.52l3.35-2.15a1.91,1.91,0,0,0-2.69-.65A2.09,2.09,0,0,0,307.45,104.52Z" style="fill:#263238"></path><path d="M324.34,104.48,328,106a1.92,1.92,0,0,0-1-2.6A2.1,2.1,0,0,0,324.34,104.48Z" style="fill:#263238"></path><path d="M308.18,109.23a1.65,1.65,0,0,0,1.46,1.81,1.67,1.67,0,0,0,1.76-1.54,1.62,1.62,0,1,0-3.22-.27Z" style="fill:#263238"></path><g style="opacity:0.5;mix-blend-mode:multiply"><polygon points="315.97 108.58 315.36 118.3 310.3 116.53 315.97 108.58" style="fill:#9a4a4d"></polygon></g><g style="opacity:0.5;mix-blend-mode:multiply"><path d="M321.14,130.77c4.15-.4,12.74-2.53,14.19-5.85a8.74,8.74,0,0,1-3.14,4.19c-2.62,2.08-11.14,4.23-11.14,4.23Z" style="fill:#9a4a4d"></path></g><path d="M338,112.34l-.25,6.77h0a4.61,4.61,0,0,1-4.43-4.77l.22-6.25Z" style="fill:#263238"></path><path d="M351.74,231.91c-1.35.31-4.06.59-4.46-1.08s1.85-1.78,3.52-3.2a60.78,60.78,0,0,1,5.67-4.5c2.52-1.65,5.63-1.66,6.89-3.63,1.3-1.6,8.85-23.29,10.84-29.78-6.63-9.22-13.29-18.36-18.21-25.37,0,0-6.64-14.66-5.53-24.46,4.47-1,11.47.28,18.81,9.52a243.15,243.15,0,0,1,18,25.25c6.21,10.2,6.78,10,3.41,19.45-3.23,9.07-10.79,25.48-15,32.6-3.56,6.06-4.69,8.15-7.79,12.33-2.81,3.79-8.55,7.73-11.56,8.42-4.47,1-10.49-.23-10.49-4.66s8.46-8.14,10.1-12.49A23.4,23.4,0,0,1,351.74,231.91Z" style="fill:#b16668"></path><path d="M350.14,138.88s9.58-.12,12.34,2c3.72,2.8,8.35,9.08,11,12.54s7,8.74,7,8.74-4.86,12.57-16.68,14.52l-11.25-14.19C349.77,159.53,347.31,150.08,350.14,138.88Z" style="fill:#00BFA5"></path><path d="M360.89,93.47c-.33-.32-.67-.62-1-.92a10.13,10.13,0,0,0-6.74-2.74c-2,.09-6.06,2.39-7.13-.52a3.75,3.75,0,0,1,0-2.1c1.17-4.85,6-6.56,10.52-6.39,8.43.31,13.82,7.82,20.45,11.92a16.48,16.48,0,0,0,7.92,2.09,32.35,32.35,0,0,0,8.44-.72c2.92-.65,5.76-1.71,8.73-2.07s6.23.07,8.46,2.07a9,9,0,0,1,2.23,9.21,15.43,15.43,0,0,1-6,7.81,25.93,25.93,0,0,1-19.57,4.37,29.52,29.52,0,0,1-17.37-10.27C366.68,101.42,364.4,96.87,360.89,93.47Z" style="fill:#263238"></path><path d="M347.09,86.56a3.62,3.62,0,1,1,2-7Z" style="fill:#263238"></path><path d="M329,274.52a.35.35,0,0,1-.05-.3.45.45,0,0,1,.18-.25l3.43-2.15.26-.15a.54.54,0,0,1,.28-.05l1.13.12a.41.41,0,0,1,.36.44l-1,9.42a.41.41,0,0,1-.44.35l-1.18-.12a.41.41,0,0,1-.27-.15.38.38,0,0,1-.08-.29l.76-7.2-2.24,1.4a.43.43,0,0,1-.29.05.48.48,0,0,1-.26-.19Z" style="fill:#00BFA5"></path><path d="M343.9,276.62c0,.18,0,.39,0,.61l-.08.69-.07.68c0,.23-.05.43-.08.61a7.18,7.18,0,0,1-.42,1.55,3.38,3.38,0,0,1-.8,1.18,3.22,3.22,0,0,1-1.29.7,4.66,4.66,0,0,1-1.83.11,5,5,0,0,1-1.78-.49,3.12,3.12,0,0,1-1.1-1,3.35,3.35,0,0,1-.54-1.32,6.94,6.94,0,0,1-.09-1.6c0-.37.06-.79.11-1.26s.1-.89.16-1.26a6.88,6.88,0,0,1,.43-1.56,3.46,3.46,0,0,1,.8-1.2,3.23,3.23,0,0,1,1.28-.73,4.5,4.5,0,0,1,1.84-.12,5,5,0,0,1,1.77.49,3.07,3.07,0,0,1,1.11,1,3.35,3.35,0,0,1,.54,1.32A6.94,6.94,0,0,1,343.9,276.62Zm-6.15,1.9a3.19,3.19,0,0,0,.33,1.68,1.74,1.74,0,0,0,1.39.73,1.71,1.71,0,0,0,1.51-.42,3,3,0,0,0,.68-1.58c.06-.37.11-.77.16-1.22s.08-.86.1-1.23a3.1,3.1,0,0,0-.33-1.68,1.74,1.74,0,0,0-1.39-.73,1.69,1.69,0,0,0-1.51.43,3,3,0,0,0-.68,1.57c-.06.36-.11.77-.16,1.22S337.77,278.15,337.75,278.52Z" style="fill:#00BFA5"></path></g></g><g id="freepik--character-1--inject-333"><g id="freepik--character--inject-333"><path d="M215.1,307.64c3.41-6.87,4.89-12.78,4.53-16.89-1.71-19.16-4-44.17-5.94-58.52-1.29-9.51-3.83-20-7.79-38,0-3.63-.55-9.48-.55-9.48l-40.94,1.18a138.41,138.41,0,0,0-14.13,51.95c-1.27,15.77-4.17,32-4.68,40.56-9.83,4.14-15,9.88-19.6,14.07-8.14,7.44-28.52,29.37-32.77,31.08l-.26.25c-1.87,2-4.47,10.93-6.44,16.32-1.32,3.62-2.21,9.4.09,14,2.19,4.39,4.84,5.59,6.13.91.23-1.68.43-3.34.65-4.89.7-4.79,5.93-14.68,15.33-20.84,4.64-3,30.34-19.24,52.46-30.49,6.4-3.26,9.59-7.79,12.59-14.31,3.91-8.51,10.6-25.75,10.6-25.75L191.76,296c-4.51,7.16-7.26,13.31-10.31,27.49a282.69,282.69,0,0,1-11,36.88c-.27.8-.53,1.6-.8,2.4a36.44,36.44,0,0,1-1.21,3.75A12.77,12.77,0,0,0,167,371.2a9.83,9.83,0,0,0,.86,4.72c.39.84.9,1.63,1.26,2.49a12.56,12.56,0,0,1,.59,6.24c-.22,2.11-.65,4.2-.66,6.31a13.85,13.85,0,0,0,2.86,8.6,11.24,11.24,0,0,0,7.89,4.27,5.39,5.39,0,0,0,3.35-.71,5.14,5.14,0,0,0,1.88-4.84,22.43,22.43,0,0,0-1.55-5.21,34.52,34.52,0,0,1-1.52-5.92,62.09,62.09,0,0,1-.66-11.8c.08-3.69-.14-7.74,1.77-11C183.09,364.28,205.33,327.37,215.1,307.64Z" style="fill:#ffa8a7"></path><path d="M183.07,364.31s18.62-30.9,29.27-51.26c-6.2,1.22-20.16-3.76-24.74-9.53-2.3,4.92-4.16,10.75-6.15,20a282.69,282.69,0,0,1-11,36.88c-.27.8-.53,1.6-.8,2.4a36.44,36.44,0,0,1-1.21,3.75A12.77,12.77,0,0,0,167,371.2a9.83,9.83,0,0,0,.86,4.72c.39.84.9,1.63,1.26,2.49a12.56,12.56,0,0,1,.59,6.24c-.22,2.11-.65,4.2-.66,6.31a13.85,13.85,0,0,0,2.86,8.6,11.24,11.24,0,0,0,7.89,4.27,5.39,5.39,0,0,0,3.35-.71,5.14,5.14,0,0,0,1.88-4.84,22.43,22.43,0,0,0-1.55-5.21,34.52,34.52,0,0,1-1.52-5.92,62.09,62.09,0,0,1-.66-11.8C181.38,371.66,181.16,367.61,183.07,364.31Z" style="fill:#37474f"></path><path d="M187.6,303.52c-.82,1.76-1.59,3.65-2.33,5.75a32.6,32.6,0,0,0,24.11,9.34c1-1.91,2-3.78,3-5.56C206.14,314.27,192.18,309.29,187.6,303.52Z" style="fill:#00BFA5"></path><path d="M164.67,368.59c-.64.8-1.79,2.46-1.66,3.38s1.8,5.64,2,10.52c.18,4.32-1.71,12.53,2.45,18.38,3.66,5.14,7,6.34,10,6.91a7.57,7.57,0,0,0,6.76-1.6s2.66-2.38,1.48-4.22S164.67,368.59,164.67,368.59Z" style="fill:#37474f"></path><path d="M164.4,369a5.59,5.59,0,0,1,1.52-3.19c1.24-1.35,2.59-2.5,3.08-4.33.17-.66.32-1.88,1.12-2.1l.79,0-.61,1.81c.34.75,1,2.49,1.31,3.26.73,2-.18,4.09,1.26,5.84.1-2.22.19-4.78,1.66-4.76,1,0,2.76,1.36,4.76,1.65s3.58-.12,4.36.17.34,1.29-.16,3.58a37.46,37.46,0,0,0-1.09,7.92c.16,2.12.39,4.31.7,6.41,1.19,8.05,4.11,12.2,3.45,16.53-.69,4.5-7.78,6.08-12.88,2.18-8.67-6.63-6.88-13.3-6.73-18.24a32.17,32.17,0,0,0-.87-9.47C165.31,373.29,164.47,371.79,164.4,369Z" style="fill:#00BFA5"></path><path d="M164.4,369a5.59,5.59,0,0,1,1.52-3.19c1.24-1.35,2.59-2.5,3.08-4.33.17-.66.32-1.88,1.12-2.1l.79,0-.61,1.81c.34.75,1,2.49,1.31,3.26.73,2-.18,4.09,1.26,5.84.1-2.22.19-4.78,1.66-4.76,1,0,2.76,1.36,4.76,1.65s3.58-.12,4.36.17.34,1.29-.16,3.58a37.46,37.46,0,0,0-1.09,7.92c.16,2.12.39,4.31.7,6.41,1.19,8.05,4.11,12.2,3.45,16.53-.69,4.5-7.78,6.08-12.88,2.18-8.67-6.63-6.88-13.3-6.73-18.24a32.17,32.17,0,0,0-.87-9.47C165.31,373.29,164.47,371.79,164.4,369Z" style="opacity:0.4"></path><path d="M169,361.45s0,0,0,.06a.42.42,0,0,1,0,.1,27.07,27.07,0,0,0,.74,3.3c.28,1.3.46,2.62.65,3.93.13.92.19,1.84.24,2.77s.08,1.68.07,2.53c-.06,4-.65,7.19.35,12.31s2.44,5.62,3.47,5,.08-2-.9-6.47c-1-4.72-.18-9.88-.69-14.73h0a3.2,3.2,0,0,1-.72-1.42v0c-.35-1.41,0-2.95-.54-4.39-.28-.77-1-2.51-1.31-3.26l.61-1.81h-.79c-.5.14-.74.67-.9,1.2C169.13,360.88,169.06,361.2,169,361.45Z" style="opacity:0.15"></path><path d="M171.84,395.94c2.67,1.55,4.28,1.19,4.22-1.45a12.83,12.83,0,0,0-1.6-5.31l7,.3s-.45,4.8,1,6c.86.71,2.07-.4,2.77-1.82,1,3.16,1.79,5.6,1.41,8.1-.69,4.5-7.78,6.08-12.88,2.18-7.26-5.55-7.18-11.13-6.88-15.7C166.69,391,169.17,394.39,171.84,395.94Z" style="opacity:0.15"></path><path d="M183.43,371.11a40.47,40.47,0,0,0-1,7.67c.16,2.12.39,4.31.7,6.41.2,1.37.46,2.63.74,3.8a3.75,3.75,0,0,1-.64,1.81c-.89.79-1.28.7-1.78-1.32-.55-2.28-.57-14.81,2-18.37Z" style="opacity:0.15"></path><path d="M183.2,390.05a.66.66,0,0,1-.69.34,32.19,32.19,0,0,0-9.23-.14.65.65,0,0,1-.21-1.28,33,33,0,0,1,9.67.15.65.65,0,0,1,.52.75A.64.64,0,0,1,183.2,390.05Z" style="fill:#e0e0e0"></path><path d="M183,386.74a.64.64,0,0,1-.79.31,15.57,15.57,0,0,0-9.51-.15.65.65,0,1,1-.43-1.22,16.78,16.78,0,0,1,10.38.15.66.66,0,0,1,.39.83Z" style="fill:#e0e0e0"></path><path d="M183,383.6a.64.64,0,0,1-.85.29,15,15,0,0,0-9.92-.68.65.65,0,1,1-.39-1.23,16.11,16.11,0,0,1,10.86.74.65.65,0,0,1,.31.87Z" style="fill:#e0e0e0"></path><path d="M183.05,380.29v0a.66.66,0,0,1-.89.23c-4.49-2.59-9.81-1-9.86-1a.65.65,0,1,1-.39-1.23c.24-.07,5.9-1.81,10.9,1.07A.65.65,0,0,1,183.05,380.29Z" style="fill:#e0e0e0"></path><path d="M183,376.77l0,.05a.65.65,0,0,1-.89.2c-4.28-2.71-10-1-10-1a.65.65,0,0,1-.81-.43.64.64,0,0,1,.43-.8c.26-.08,6.32-1.89,11.11,1.14A.64.64,0,0,1,183,376.77Z" style="fill:#e0e0e0"></path><path d="M183.24,373.75s0,0,0,0a.65.65,0,0,1-.89.21,13,13,0,0,0-9.9-1,.64.64,0,1,1-.47-1.2,14.25,14.25,0,0,1,11,1.09A.65.65,0,0,1,183.24,373.75Z" style="fill:#e0e0e0"></path><path d="M153.38,303a20.1,20.1,0,0,1-11.07-8.31c-3.45-5-2.74-13.12-2.74-13.17-6.12,3.64-10,7.8-13.57,11-8.14,7.44-28.52,29.37-32.77,31.08h0l-.26.25c-1.87,2-4.47,10.93-6.44,16.32-1.32,3.62-2.21,9.4.09,14,2.19,4.39,4.84,5.59,6.13.91.23-1.68.43-3.34.65-4.89.7-4.79,5.93-14.68,15.33-20.84,4.1-2.68,24.66-15.65,44.65-26.4Z" style="fill:#37474f"></path><path d="M153.38,303a20.1,20.1,0,0,1-11.07-8.31c-3.45-5-2.74-13.12-2.74-13.17a50.72,50.72,0,0,0-5.78,4c.11,6.22,1.58,15.5,13.4,20.84,2.06-1.15,4.13-2.28,6.19-3.39Z" style="fill:#00BFA5"></path><path d="M88.11,324.64c-1,.36-2.79,1.21-3.14,2.08s-1.3,5.77-3.6,10.08c-2,3.81-7.82,9.94-7.2,17.09.56,6.28,2.84,9,5.1,11a7.58,7.58,0,0,0,6.65,2.05s3.5-.71,3.41-2.89S88.11,324.64,88.11,324.64Z" style="fill:#37474f"></path><path d="M87.69,324.83a5.53,5.53,0,0,1,2.93-2c1.74-.54,3.5-.84,4.84-2.18.48-.48,1.23-1.45,2-1.24.07,0,.71.36.71.36l-1.44,1.26c-.08.82-.37,2.67-.52,3.48-.37,2.05-2.23,3.43-1.87,5.67,1.21-1.86,2.58-4,3.84-3.27.83.51,1.69,2.57,3.27,3.83s3.15,1.71,3.67,2.36-.36,1.28-2,3a36.4,36.4,0,0,0-5,6.28c-.93,1.91-1.84,3.91-2.64,5.87-3,7.55-2.63,12.61-5.39,16s-9.79,1.3-12.21-4.64c-4.12-10.11.8-15,3.42-19.14a32,32,0,0,0,4-8.61C86.28,329,86.32,327.3,87.69,324.83Z" style="fill:#00BFA5"></path><path d="M87.69,324.83a5.53,5.53,0,0,1,2.93-2c1.74-.54,3.5-.84,4.84-2.18.48-.48,1.23-1.45,2-1.24.07,0,.71.36.71.36l-1.44,1.26c-.08.82-.37,2.67-.52,3.48-.37,2.05-2.23,3.43-1.87,5.67,1.21-1.86,2.58-4,3.84-3.27.83.51,1.69,2.57,3.27,3.83s3.15,1.71,3.67,2.36-.36,1.28-2,3a36.4,36.4,0,0,0-5,6.28c-.93,1.91-1.84,3.91-2.64,5.87-3,7.55-2.63,12.61-5.39,16s-9.79,1.3-12.21-4.64c-4.12-10.11.8-15,3.42-19.14a32,32,0,0,0,4-8.61C86.28,329,86.32,327.3,87.69,324.83Z" style="opacity:0.4"></path><path d="M95.46,320.67l0,0-.09.08a28.63,28.63,0,0,0-1,3.21c-.41,1.26-.92,2.49-1.43,3.72-.35.86-.76,1.69-1.19,2.51s-.78,1.49-1.22,2.21c-2.09,3.45-4.2,5.88-5.93,10.8s-.74,6.09.48,6,1.06-1.65,2.49-6c1.51-4.59,4.85-8.61,6.87-13.05h0a3.29,3.29,0,0,1,.1-1.59l0,0c.41-1.39,1.48-2.54,1.75-4.05.15-.81.44-2.66.52-3.48l1.44-1.26-.1-.05-.1-.06-.25-.13-.12-.05a.86.86,0,0,0-.14-.07,1.58,1.58,0,0,0-1.38.58C95.86,320.24,95.64,320.49,95.46,320.67Z" style="opacity:0.15"></path><path d="M80.45,351.85c1.51,2.69,3.08,3.2,4.37.89a12.9,12.9,0,0,0,1.31-5.39L92,351.13s-2.83,3.92-2.2,5.62c.38,1.05,2,.71,3.3-.16-.75,3.22-1.29,5.74-2.88,7.7-2.88,3.53-9.79,1.3-12.21-4.64-3.45-8.47-.56-13.24,2-17C78.53,345,78.93,349.16,80.45,351.85Z" style="opacity:0.15"></path><path d="M103,336.31a39.42,39.42,0,0,0-4.78,6.1c-.93,1.91-1.84,3.91-2.64,5.87-.52,1.29-.93,2.51-1.28,3.66a3.85,3.85,0,0,1-1.47,1.24c-1.17.22-1.46-.05-.86-2.05.67-2.24,7-13.06,11-14.82Z" style="opacity:0.15"></path><path d="M93.23,352.52a.65.65,0,0,1-.77,0,32.42,32.42,0,0,0-7.89-4.8.64.64,0,1,1,.47-1.2,32.84,32.84,0,0,1,8.26,5,.65.65,0,0,1,.07.91A.53.53,0,0,1,93.23,352.52Z" style="fill:#e0e0e0"></path><path d="M94.69,349.54a.64.64,0,0,1-.84-.13,15.59,15.59,0,0,0-8.13-4.94A.65.65,0,0,1,86,343.2a16.7,16.7,0,0,1,8.87,5.39.65.65,0,0,1-.08.91Z" style="fill:#e0e0e0"></path><path d="M96.32,346.87a.65.65,0,0,1-.88-.19,15,15,0,0,0-8.21-5.6.65.65,0,0,1-.48-.78.64.64,0,0,1,.77-.48,16.07,16.07,0,0,1,9,6.14.65.65,0,0,1-.17.9Z" style="fill:#e0e0e0"></path><path d="M98,344l0,0a.65.65,0,0,1-.89-.24c-2.56-4.52-8-5.81-8-5.83a.64.64,0,0,1-.48-.77.63.63,0,0,1,.77-.48c.24,0,6,1.42,8.86,6.44A.64.64,0,0,1,98,344Z" style="fill:#e0e0e0"></path><path d="M99.79,341l-.05,0a.65.65,0,0,1-.87-.28c-2.32-4.51-8.1-5.93-8.15-6a.63.63,0,0,1-.48-.77.64.64,0,0,1,.77-.48c.26.06,6.41,1.57,9,6.61A.65.65,0,0,1,99.79,341Z" style="fill:#e0e0e0"></path><path d="M101.52,338.49l0,0a.65.65,0,0,1-.87-.28,13,13,0,0,0-8-5.86.64.64,0,0,1,.21-1.27,14.23,14.23,0,0,1,9,6.53A.65.65,0,0,1,101.52,338.49Z" style="fill:#e0e0e0"></path><path d="M159.7,197.56c-3.79,7.8-7.43,17.16-10,33.22s-4.63,31.48-4.63,31.48,0,5.78,13,9.81,22.57-.48,22.57-.48l3-8.7,1.93,6.47s5.93,2.67,17.17,1.11,16.78-8.7,16.78-8.7-7.21-49.17-11.94-58.7Z" style="fill:#455a64"></path><path d="M183.75,262.89,189,246s9-2.08,15.92-11.91c0,0,0,10.08-14,15.22l-4.47,12.25-.71,7.77Z" style="fill:#37474f"></path><path d="M159.92,262.12a.35.35,0,0,1,0-.28.32.32,0,0,1,.17-.22l3.2-1.91.24-.13a.46.46,0,0,1,.26,0l1,.14a.3.3,0,0,1,.24.14.33.33,0,0,1,.08.26L164,268.73a.3.3,0,0,1-.14.24.32.32,0,0,1-.26.07l-1.09-.14a.33.33,0,0,1-.24-.14.37.37,0,0,1-.07-.27l.86-6.61-2.1,1.24a.32.32,0,0,1-.27,0,.38.38,0,0,1-.23-.17Z" style="fill:#00BFA5"></path><path d="M170.13,269.9a.37.37,0,0,1-.24-.14.38.38,0,0,1-.07-.27l.21-1.62-4.15-.54a.33.33,0,0,1-.24-.14.33.33,0,0,1-.07-.27l.12-.95a.66.66,0,0,1,.13-.32l.25-.27,4.75-4.58a.73.73,0,0,1,.6-.26l1,.13a.38.38,0,0,1,.32.41l-.7,5.35,1.15.15a.38.38,0,0,1,.32.41l-.12.95a.37.37,0,0,1-.14.24.39.39,0,0,1-.27.07l-1.15-.15-.21,1.62a.35.35,0,0,1-.15.24.35.35,0,0,1-.26.08Zm.12-3.7.37-2.87L168,265.9Z" style="fill:#00BFA5"></path><path d="M169.67,207.55l-2.09-3.11c-5.56,10.2-11.45,43.72-14.2,65.84.82.37,1.72.74,2.7,1.09C157.94,256.46,162.74,222.56,169.67,207.55Z" style="fill:#00BFA5"></path><path d="M148.05,267a17.06,17.06,0,0,0,2.6,1.87c1.93-15.32,6.68-48.22,13.48-63L162,202.79C156.61,212.74,150.87,244.88,148.05,267Z" style="fill:#00BFA5"></path><path d="M246.26,106.1A34.64,34.64,0,0,1,240,117.71c-12.93,16.07-26.71,25.68-33.53,39.74-7.83-1-18-14.56-11.7-22.34,6.84-2.44,32.37-29.51,34.75-33.44,2.15-4.11,9.4-23,11.1-30.14A5.09,5.09,0,0,0,240.1,68c-1.66-3.14-1.45-6.5-2.2-9.68-.59-2.47-1.65-3.63-1.16-4a2.9,2.9,0,0,1,3.87.73,31.19,31.19,0,0,1,2.88,5,58.81,58.81,0,0,0,.06-8.62c-.42-6.6,1.1-11.51,8.42-7.31,4.6,2.63,7.16,9.39,4.71,21.46-.7,3.48-2.65,10.59-3.9,15.58C250.47,90.41,249.48,97.73,246.26,106.1Z" style="fill:#ffa8a7"></path><path d="M190.65,135.13c3.1-1.47,6.82-2.66,10.91-6,4.27-3.48,9.58-7.42,9.58-7.42s9.3,7.57,9.08,18.75A57.65,57.65,0,0,0,211.36,152a46.1,46.1,0,0,0-4.31,10.29s-10.3,2-12.18-9.08A135.37,135.37,0,0,0,190.65,135.13Z" style="fill:#00BFA5"></path><path d="M205.66,188.42c.38-3.28.28-9.34.34-11,8.64-7.37,6.7-15.94,4-22.3-5.47-12.72-11-20.06-16.43-20.1l-15,.43c-7.75.14-16.7.58-18.69.92-5.07.87-7.43,6-8,11.33-.58,5.82-1.95,6.27-1,16,0,0,3.49,10,6.61,18.85,0,0,1.13,6.54,0,9.58-2.08,5.63-5.07,18.68-6.11,28.18,0,0,5.51,7.81,30.44,7.8a54.43,54.43,0,0,0,30.45-9.33Z" style="fill:#00BFA5"></path><path d="M154.31,154.76c0,.85.06,1.77.14,2.82l55.28-3c-.42-1-.83-1.87-1.24-2.76Z" style="fill:#455a64"></path><path d="M193.54,135.05l-15,.43c-7.75.14-16.7.58-18.69.92-5.07.87-4.67,5.47-5.2,10.77a29.18,29.18,0,0,0-.41,4.58l52.9-2.62C202.62,140.15,198.07,135.08,193.54,135.05Z" style="fill:#455a64"></path><path d="M164.13,192c-2.14-1.8-1.19-6.43-2.6-12.14s-4.43-12-3.22-15.18,4.16-9.5,3.8-18.62L153,143a19.4,19.4,0,0,0-1.05,4.78c-.58,5.82-1.95,6.27-1,16,0,0,3.49,10,6.61,18.85,0,0,1.13,6.54,0,9.58-2.08,5.63-5.07,18.68-6.11,28.18,0,0,5.51,7.81,30.44,7.8h.74C192.82,197.06,166.18,193.71,164.13,192Z" style="opacity:0.1"></path><path d="M167.73,171.36A13.34,13.34,0,0,0,180,179.1a14.06,14.06,0,0,0,12.35-6.79s-.92,9.77-12.49,9.13S167.73,171.36,167.73,171.36Z" style="opacity:0.1"></path><path d="M208.76,95.14a26.65,26.65,0,0,0,1.46-12.91,41.87,41.87,0,0,1-4.7,1.16,35.45,35.45,0,0,1,1.82-3.65,7.54,7.54,0,0,0,1-3.91,3.48,3.48,0,0,0-2.28-3.09,5.66,5.66,0,0,0-3.46.6,59.89,59.89,0,0,1-19.29,3.59c-11.48.52-22.93,5-26.15,15.18-2,6.37-.19,14.94,2.83,22.39s7.7,13,10.65,13.7l11.76-2c5.27.94,10.34-1.14,14.23-4.64a28,28,0,0,0,2.91-3.06,9.62,9.62,0,0,0,1.74-3.68,70.24,70.24,0,0,0,2.22-9.38,8.33,8.33,0,0,1,.45-1.85,8.84,8.84,0,0,1,1.19-1.81A26.49,26.49,0,0,0,208.76,95.14Z" style="fill:#263238"></path><path d="M197.94,87.16c2.94,1.59,6.75,8.7,6.95,23.88.16,12.86-3.89,16.19-5.95,17.18s-6.11.58-10.06.06l.28,7.72s.52,8.24-2.63,8.78c-8.62-.54-15.88-8.39-15.88-8.39l0-16.42a5.7,5.7,0,0,1-6-1.48c-3-3.12-4-7.45-1.62-10.09a5.63,5.63,0,0,1,9,1.46s2.31.11,4.46-4.25a17.46,17.46,0,0,0,11-2.87C195.51,97.67,197.32,89.76,197.94,87.16Z" style="fill:#ffa8a7"></path><path d="M188.14,107.59a1.64,1.64,0,0,1-1.47,1.81,1.68,1.68,0,1,1,1.47-1.81Z" style="fill:#263238"></path><g style="opacity:0.5;mix-blend-mode:multiply"><path d="M190.53,118.28l5.1,1.43a2.6,2.6,0,0,1-3.21,1.92A2.76,2.76,0,0,1,190.53,118.28Z" style="fill:#f28f8f"></path></g><path d="M202.57,102l-3.35-2.15a1.89,1.89,0,0,1,2.69-.65A2.08,2.08,0,0,1,202.57,102Z" style="fill:#263238"></path><path d="M185.68,102,182,103.56a1.91,1.91,0,0,1,1-2.6A2.09,2.09,0,0,1,185.68,102Z" style="fill:#263238"></path><path d="M201.85,106.75a1.62,1.62,0,1,1-1.76-1.54A1.64,1.64,0,0,1,201.85,106.75Z" style="fill:#263238"></path><g style="opacity:0.5;mix-blend-mode:multiply"><polygon points="194.06 106.1 194.66 115.82 199.73 114.05 194.06 106.1" style="fill:#f28f8f"></polygon></g><g style="opacity:0.5;mix-blend-mode:multiply"><path d="M188.88,128.28c-4.15-.39-12.74-2.53-14.19-5.84a8.7,8.7,0,0,0,3.14,4.18c2.62,2.09,11.14,4.24,11.14,4.24Z" style="fill:#f28f8f"></path></g><path d="M172.05,109.86l.25,6.76h0a4.59,4.59,0,0,0,4.43-4.77l-.22-6.24Z" style="fill:#263238"></path><g id="freepik--soccer-ball--inject-333"><circle cx="159.28" cy="220.47" r="25.5" style="fill:#f5f5f5"></circle><path d="M163.75,208.05a27.22,27.22,0,0,0-10.26,2.88,55.56,55.56,0,0,0,0,10.32,34.61,34.61,0,0,0,9.18,3.16s4.88-4,6.22-7.71A21,21,0,0,0,163.75,208.05Z" style="fill:#455a64"></path><path d="M146.66,206.6l-.72-1.43c-.05.06-.09.13-.14.2l-.12.15.68,1.36,7,4.21.76.57a.64.64,0,0,1,.08-.14.91.91,0,0,1,.17-.17l-.79-.59Z" style="fill:#455a64"></path><path d="M161.22,196.74c-.59-.07-1.22-.14-1.93-.19a17.23,17.23,0,0,0-10.55,2.72l-1.44.83a1.34,1.34,0,0,1,.14.38l1.51-.88a16.87,16.87,0,0,1,10.31-2.66c.9.07,1.7.16,2.4.26A1.38,1.38,0,0,1,161.22,196.74Z" style="fill:#455a64"></path><path d="M166.21,200.1l-.34,1.12-2.3,6.76-.55,1.43a2.38,2.38,0,0,1,.38.11l.54-1.41,2.31-6.77.34-1.13A1.66,1.66,0,0,1,166.21,200.1Z" style="fill:#455a64"></path><path d="M178.5,216.92a7.59,7.59,0,0,1-.81.6,78.44,78.44,0,0,0-8.79-1h-.14a3.29,3.29,0,0,0-.54.05,2.54,2.54,0,0,1,0,.39,2.86,2.86,0,0,1,.66,0,76.42,76.42,0,0,1,8.81,1h.08l.06,0a5.59,5.59,0,0,0,.78-.57A2,2,0,0,1,178.5,216.92Z" style="fill:#455a64"></path><path d="M174.82,202.76c1.56,1.49,4.47,4.28,5.66,8.14a5.6,5.6,0,0,1,.21.93,2.32,2.32,0,0,1,.37-.13,6.2,6.2,0,0,0-.2-.91c-1.22-4-4.18-6.8-5.77-8.32-.19-.17-.35-.33-.49-.47a10.12,10.12,0,0,0-1-.85.76.76,0,0,1-.09.18.64.64,0,0,1-.15.13,11.1,11.1,0,0,1,.92.82Z" style="fill:#455a64"></path><path d="M162.88,224.41c0-.16.2-.68.46-1.38a1.48,1.48,0,0,1-.48.15c-.23.65-.36,1.1-.38,1.18v0l2.5,9.49.06,0c.07.05.88.62,1.81,1.24l.09,0,.42-.1c-.74-.48-1.5-1-2-1.38Z" style="fill:#455a64"></path><path d="M180.54,225.7c-.19.47-.4,1-.64,1.46a24.93,24.93,0,0,1-6.2,7.74c-.36.19-1,.5-1.66.79a1.23,1.23,0,0,1,.31.29c.76-.33,1.41-.67,1.56-.76a25.07,25.07,0,0,0,6.35-7.89c.22-.46.41-.92.59-1.36A2,2,0,0,1,180.54,225.7Z" style="fill:#455a64"></path><path d="M154.59,220.39c-.36.19-.76.42-1.21.69a57.45,57.45,0,0,0-7.56,6l0,0c-.1.16-.42.72-.78,1.47a3,3,0,0,1,.27.35c.31-.64.61-1.21.83-1.6a58,58,0,0,1,7.48-6c.49-.3.93-.54,1.31-.74A2,2,0,0,1,154.59,220.39Z" style="fill:#455a64"></path><path d="M160.2,239.42c-.67,0-1.43-.07-2.27-.14a18.16,18.16,0,0,1-9.4-3.46l0,0h-.05a10,10,0,0,1-1.22-.37c0,.14,0,.27,0,.41.55.19,1,.3,1.13.34a18.68,18.68,0,0,0,9.58,3.52l2.13.13A1.13,1.13,0,0,1,160.2,239.42Z" style="fill:#455a64"></path><path d="M138.55,224a1,1,0,0,1,.41,0,12.47,12.47,0,0,1-.29-1.35,39.33,39.33,0,0,1,.49-10.05,18.2,18.2,0,0,1,.45-1.8,1.33,1.33,0,0,1-.28,0l-.14,0q-.24.83-.42,1.71a39.4,39.4,0,0,0-.49,10.18C138.35,223.15,138.44,223.59,138.55,224Z" style="fill:#455a64"></path><path d="M159.28,196.74a20.22,20.22,0,0,1,6.78,4.54,24.12,24.12,0,0,1,8.4.86,15.16,15.16,0,0,0-.45-2.49,25.4,25.4,0,0,0-12.66-4.6A19.58,19.58,0,0,0,159.28,196.74Z" style="fill:#455a64"></path><path d="M184,214.23a20.12,20.12,0,0,0-3.34-3.39,35.08,35.08,0,0,1-2.94,6.88,67.38,67.38,0,0,1,2.35,9.53,23.9,23.9,0,0,0,4.09-1.21,25.7,25.7,0,0,0-.16-11.81Z" style="fill:#455a64"></path><path d="M142.34,237.69s4.11-.37,6.07-1.71c0,0-1.29-3.87-2.45-8.71a49.29,49.29,0,0,1-7.48-4.6s-1.6,1.66-2,6.93A25.8,25.8,0,0,0,142.34,237.69Z" style="fill:#455a64"></path><path d="M137,208.15a10.16,10.16,0,0,0,2,4.41,17.74,17.74,0,0,1,7.54-5.82,52.94,52.94,0,0,1,2.33-7.3,23.52,23.52,0,0,0-3.79-.14A25.48,25.48,0,0,0,137,208.15Z" style="fill:#455a64"></path><path d="M173.79,235.07a37.47,37.47,0,0,1-8.64-1.29,44.9,44.9,0,0,1-7.24,5.7s1.83,3.7,4.06,5.06a28.29,28.29,0,0,0,9.41-2.71A19.24,19.24,0,0,0,173.79,235.07Z" style="fill:#455a64"></path><path d="M181.24,233.44c-4.27,6.05-20.72,9.87-31.21-3.74s-4.43-29.25,3.2-34a25.5,25.5,0,1,0,28,37.75Z" style="opacity:0.1"></path></g><path d="M151.61,230.71c1.31.42,4,.93,4.53-.7s-1.69-1.93-3.24-3.48a62,62,0,0,0-5.28-5c-2.37-1.86-5.47-2.12-6.56-4.19-1.17-1.7-6.68-26.07-8.13-32.7,7.39-8.63,14.1-15.91,19.6-22.49,0,0,7.73-15.28,7.44-25.15-4.37-1.4-9.41-.86-17.49,7.74A294.26,294.26,0,0,0,121,170.71c-7,9.64-7.59,9.37-5,19.09a253.62,253.62,0,0,0,12.2,33.74c3,6.34,4,8.51,6.73,12.93,2.49,4,7.88,8.42,10.82,9.36,4.38,1.38,10.48.64,10.84-3.77s-7.75-8.82-9-13.29A23.75,23.75,0,0,0,151.61,230.71Z" style="fill:#ffa8a7"></path><path d="M161.14,136.24s-8.08-.69-11.9,2.11-6,4.66-13.13,12.3c-2.6,2.81-5.8,6.8-5.8,6.8s4,12,15.85,13.91L157.48,160C160.26,157,164,147.44,161.14,136.24Z" style="fill:#00BFA5"></path></g></g><g id="freepik--Lines--inject-333"><g id="freepik--lines--inject-333"><path d="M284.81,76.73a1.46,1.46,0,0,1-.75-.2l-7.25-4.19a1.5,1.5,0,0,1,1.5-2.6l7.25,4.19a1.5,1.5,0,0,1-.75,2.8Z" style="fill:#00BFA5"></path><path d="M289.78,60h-9.15a1.5,1.5,0,0,1,0-3h9.15a1.5,1.5,0,0,1,0,3Z" style="fill:#00BFA5"></path><path d="M276.59,48a1.5,1.5,0,0,1-.75-2.8l9.35-5.4a1.5,1.5,0,1,1,1.5,2.6l-9.35,5.4A1.48,1.48,0,0,1,276.59,48Z" style="fill:#00BFA5"></path><path d="M267.91,39.13a1.46,1.46,0,0,1-.75-.2,1.5,1.5,0,0,1-.55-2L271.77,28a1.5,1.5,0,1,1,2.59,1.5l-5.15,8.93A1.5,1.5,0,0,1,267.91,39.13Z" style="fill:#00BFA5"></path><path d="M226.9,76.73a1.5,1.5,0,0,1-.75-2.8l7.25-4.19a1.5,1.5,0,0,1,1.5,2.6l-7.25,4.19A1.48,1.48,0,0,1,226.9,76.73Z" style="fill:#00BFA5"></path><path d="M231.07,60h-9.15a1.5,1.5,0,0,1,0-3h9.15a1.5,1.5,0,0,1,0,3Z" style="fill:#00BFA5"></path><path d="M235.12,48a1.48,1.48,0,0,1-.75-.2L225,42.44a1.5,1.5,0,1,1,1.5-2.6l9.36,5.4a1.5,1.5,0,0,1-.75,2.8Z" style="fill:#00BFA5"></path><path d="M243.8,39.13a1.5,1.5,0,0,1-1.3-.75l-5.16-8.93a1.5,1.5,0,1,1,2.6-1.5l5.16,8.93a1.5,1.5,0,0,1-.55,2A1.48,1.48,0,0,1,243.8,39.13Z" style="fill:#00BFA5"></path><path d="M255.85,37.15a1.5,1.5,0,0,1-1.5-1.5V23.41a1.5,1.5,0,0,1,3,0V35.65A1.5,1.5,0,0,1,255.85,37.15Z" style="fill:#00BFA5"></path></g></g></svg>