<svg width="869" height="804" viewBox="0 0 869 804" fill="none" xmlns="http://www.w3.org/2000/svg">
<path d="M521.048 552.405C568.434 579.162 568.433 622.544 521.046 649.301C473.66 676.059 396.832 676.059 349.445 649.303C302.057 622.544 302.057 579.162 349.445 552.405C396.832 525.648 473.662 525.648 521.048 552.405" fill="#DADBD8"/>
<path d="M328.704 550.422C382.865 578.177 382.865 623.175 328.704 650.929C274.542 678.684 186.728 678.684 132.568 650.93C78.4059 623.175 78.4066 578.177 132.568 550.422C186.73 522.669 274.544 522.669 328.704 550.422Z" fill="#DADBD8"/>
<path d="M720.235 550.582C775.803 578.337 775.801 623.336 720.233 651.091C664.663 678.844 574.568 678.844 518.998 651.091C463.428 623.338 463.428 578.337 518.998 550.584C574.568 522.829 664.665 522.829 720.235 550.582Z" fill="#DADBD8"/>
<path d="M335.108 153.929C345.157 174.334 366.129 211.362 366.129 211.362C380.139 214.476 411.441 216.783 424.229 218.411C426.497 218.699 428.774 218.133 430.647 216.932C435.677 213.709 439.565 213.187 444.868 211.393C449.016 209.989 450.776 208.049 451.556 208.787C452.558 209.736 453.651 212.429 451.122 215.219C449.852 216.623 447.534 218.153 444.553 220.025C444.553 220.025 453.697 222.412 461.866 220.314C472.936 217.473 478.164 222.678 470.677 234.435C467.996 238.643 457.44 245.385 436.049 243.566C429.886 243.039 419.751 242.273 411.908 242.298C391.871 242.362 379.396 242.584 361.159 241.959C353.251 241.688 350.049 241.142 344.304 233.593C321.264 203.318 308.084 182.691 297.745 165.662V122.76C314.456 122.254 326.446 136.339 335.108 153.929" fill="#F6879F"/>
<path d="M586.371 112.323C572.298 114.357 562.245 125.566 553.125 154.827C545.939 177.882 534.764 200.088 527.779 222.911C507.379 222.514 484.603 221.187 465.709 219.952C462.147 219.719 460.425 218.484 458.725 217.115C454.165 213.438 446.562 210.147 442.41 208.539C439.155 207.281 435.891 203.455 433.45 204.695C431.009 205.935 432.05 210.779 433.934 213.474C434.884 214.831 440.319 218.932 442.227 220.159C433.852 221.034 428.26 219.711 419.974 218.411C408.745 216.648 396.329 217.501 405.691 233.295C412.102 244.114 433.63 247.891 446.475 248.091C452.776 248.191 462.991 248.078 471.934 248.859C486.983 250.174 508.364 254.137 534.967 256.342C545.457 257.211 551.058 255.348 555.81 246.148C556.387 244.981 556.949 243.846 557.51 242.721V242.719C577.832 201.725 585.563 185.612 595.659 147.022C592.458 136.855 589.293 122.441 586.371 112.323" fill="#C35363"/>
<path d="M592.933 110.812C592.933 110.812 575.7 111.209 566.829 121.339C554.799 135.076 538.983 187.963 538.983 187.963C538.983 187.963 547.649 202.007 583.176 197.385L592.933 110.812" fill="#26B6A6"/>
<path d="M563.8 198.103C544.327 196.615 538.983 187.963 538.983 187.963C538.983 187.963 554.799 135.076 566.829 121.339C575.7 111.209 592.933 110.812 592.933 110.812L592.931 110.834C582.016 112.451 570.877 125.795 565.952 154.98C564.919 161.106 564.243 178.495 563.8 198.103" fill="#00BFA5"/>
<path d="M642.874 231.273C634.86 230.621 631.89 231.448 625.146 229.532C627.309 229.033 631.484 227.229 632.8 226.284C634.407 225.129 638.748 219.271 635.407 217.805C634.763 217.522 634.013 217.668 633.337 217.863C631.37 218.429 629.533 219.364 627.572 219.943C622.531 221.432 617.079 220.48 611.881 221.294C610.153 221.565 608.456 222.031 606.717 222.195C603.924 222.456 597.512 222.106 594.936 221.192C584.937 217.646 526.785 198.239 526.785 198.239C517.585 185.397 503.731 160.962 496.27 150.283C484.767 133.826 479.44 123.627 460.788 121.556C457.65 131.776 452.265 138.74 450.201 150.44C457.838 160.545 499.682 218.754 501.229 220.992C505.282 226.852 506.72 229.246 513.853 231.271C520.989 233.298 568.019 240.537 592.75 245.296C599.316 246.659 606.233 250.307 608.995 251.059C630.086 256.801 642.218 257.502 649.97 248.663C662.339 234.555 653.735 232.158 642.874 231.273" fill="#F8A39A"/>
<path d="M455.79 114.926C479.546 112.114 486.856 126.589 496.693 142.644C508.628 162.124 518.853 181.626 528.567 198.239C544.526 204.504 592.966 219.333 592.966 219.333C594.391 227.118 592.037 238.556 587.674 245.481C578.61 244.602 546.383 239.576 521.126 235.254C510.388 233.415 507.249 233.195 500.404 224.535C488.079 208.943 471.265 185.135 456.218 165.979C445.408 152.215 455.79 121.96 455.79 114.926" fill="#33535F"/>
<path d="M218.032 266.047C218.732 261.428 220.387 256.978 222.562 252.82C225.342 247.505 229.457 242.287 235.362 240.776C238.54 239.963 241.853 240.353 244.972 241.216C247.727 241.979 250.286 243.893 253.2 242.934C271.906 236.778 296.886 222.953 315.553 215.235C327.129 191.438 341.766 167.378 347.211 157.762C360.835 133.703 371.802 124.574 385.026 121.96C389.616 131.745 392.741 146.537 381.906 166.283C376.305 177.106 364.375 201.444 352.391 223.354C341.524 243.225 331.347 245.124 321.915 248.076C303.887 253.72 285.748 258.608 269.654 263.656C260.087 266.657 246.564 270.113 241.801 271.712C237.263 273.234 232.494 274.108 227.698 274.265C224.359 274.374 220.11 275.536 218.421 271.792C217.632 270.038 217.736 268.03 218.019 266.134L218.032 266.047" fill="#F8A39A"/>
<path d="M367.278 466.95C367.732 445.512 374.333 429.615 374.849 423.663C374.849 423.663 373.234 296.158 373.234 275.476L484.402 271.044C484.402 271.044 480.842 404.852 480.842 422.571C480.842 440.288 470.658 517.339 465.873 551.848C459.442 560.057 451.941 563.552 441.833 555.516C441.833 555.516 441.002 550.635 439.68 534.495C438.164 516.009 432.921 484.893 432.739 466.801C432.511 444.493 434.552 432.259 435.222 421.522C435.99 409.233 432.973 326.329 432.973 326.329C432.973 326.329 419.049 405.405 415.586 432.261C411.616 463.033 398.88 543.664 398.846 562.41C398.846 565.768 398.856 569.658 398.88 573.874C398.934 584.017 398.589 586.7 400.252 590.619C403.162 597.482 378.31 601.793 377.156 596.918L374.486 576.764V576.183V576.179V563.403C374.486 544.302 366.617 498.037 367.278 466.95" fill="#F8A39A"/>
<path d="M514.976 587.539C515.699 589.016 515.49 591.786 514.634 593.543C513.775 595.299 504.394 600.472 491.742 599.638C479.088 598.802 470.4 593.818 465.575 590.693C460.751 587.57 455.727 586.985 449.461 586.636C443.194 586.284 434.967 583.229 433.593 580.362C432.219 577.498 433.8 572.561 433.8 572.561L514.976 587.539" fill="#273E47"/>
<path d="M463.912 548.916C464.242 548.847 464.577 548.78 464.914 548.714C465.465 548.607 466.037 548.499 466.584 548.627C467.204 548.77 467.713 549.198 468.145 549.655C469.506 551.103 470.327 552.944 471.377 554.62C474.031 558.852 479.598 562.356 485.679 565.553C489.811 567.726 493.861 569.412 498.131 571.288C502.484 573.204 508.262 574.375 511.669 576.62C516.635 579.892 517.274 588.116 511.617 591.363C506.739 594.164 493.898 597.202 480.428 593.47C473.094 591.436 464.949 583.771 455.319 583.034C449.195 582.566 437.615 580.883 433.673 576.336C432.217 574.318 434.163 567.924 435.761 562.405C437.503 556.379 439.585 546.94 441.626 547.47C441.71 548.654 441.473 548.954 442.27 549.757C443.024 550.52 444.041 551.009 444.864 551.695C446.378 552.959 447.309 554.745 448.251 556.461C448.661 557.204 449.145 557.994 449.99 558.304C451.022 558.682 451.794 558.047 452.699 557.639C453.833 557.131 455.159 557.036 456.358 557.384C456.239 556.191 456.023 555.009 455.712 553.849C455.611 553.474 455.502 553.077 455.621 552.709C455.746 552.336 456.077 552.072 456.407 551.848C458.766 550.229 461.205 549.488 463.912 548.916" fill="#26B6A6"/>
<path d="M493.407 595.206C489.331 595.206 484.916 594.712 480.428 593.47C473.094 591.436 464.949 583.771 455.319 583.034C449.195 582.566 437.615 580.883 433.673 576.336C433.312 575.835 433.159 575.065 433.161 574.107C433.161 571.201 434.56 566.555 435.761 562.405C437.455 556.543 439.473 547.448 441.46 547.448C441.514 547.448 441.57 547.456 441.626 547.47C441.71 548.654 441.473 548.954 442.27 549.757C443.024 550.521 444.041 551.009 444.864 551.695C446.378 552.959 447.309 554.745 448.251 556.461C448.661 557.204 449.145 557.994 449.99 558.304C450.212 558.386 450.422 558.42 450.623 558.42C451.361 558.42 451.988 557.96 452.699 557.639C453.381 557.333 454.133 557.177 454.883 557.177C455.382 557.177 455.88 557.246 456.358 557.384C456.239 556.191 456.023 555.009 455.712 553.849C455.643 553.591 455.569 553.323 455.569 553.061C455.569 552.943 455.584 552.824 455.621 552.709C455.746 552.336 456.077 552.072 456.407 551.848C458.766 550.229 461.205 549.488 463.912 548.916C464.242 548.847 464.577 548.78 464.914 548.714C465.288 548.641 465.67 548.568 466.048 548.568C466.229 548.568 466.407 548.585 466.584 548.627C467.204 548.77 467.713 549.198 468.145 549.655C469.506 551.103 470.327 552.944 471.377 554.62C474.031 558.852 479.598 562.356 485.679 565.553C489.811 567.726 493.861 569.412 498.13 571.288C502.484 573.204 508.262 574.375 511.669 576.62C514.22 578.301 515.63 581.287 515.63 584.236C515.632 587.027 514.369 589.785 511.617 591.363C508.364 593.232 501.568 595.206 493.407 595.206" fill="#00BFA5"/>
<path d="M424.358 622.603C425.106 623.292 424.879 628.003 424.054 629.271C423.168 630.632 418.081 634.876 408.879 635.52C400.086 636.136 392.234 634.978 387.073 631.771C381.911 628.566 379.411 625.031 378.926 620.133C378.439 615.234 378.997 610.508 376.61 606.737C374.405 603.257 370.892 599.332 370.127 597.444C368.462 593.337 370.067 587.468 370.067 587.468L424.358 622.603Z" fill="#273E47"/>
<path d="M400.291 579.84C400.355 581.743 400.697 583.476 401.306 585.292C402.58 589.091 404.518 592.667 406.691 596.067C407.81 597.819 408.992 599.538 410.357 601.126C413.016 604.22 416.319 606.762 419.135 609.731C421.95 612.699 424.343 616.299 424.564 620.287C424.939 627.031 417.453 629.324 411.69 630.327C405.538 631.398 398.969 631.077 392.964 629.405C386.283 627.55 381.461 622.488 380.353 615.968C380.033 614.094 380.152 612.18 379.925 610.295C379.409 605.997 377.132 602.069 374.562 598.495C373.07 596.422 371.449 594.397 370.449 592.074C368.648 587.898 370.091 583.201 371.24 579.044C372.234 575.451 373.355 571.388 374.649 571.727C374.664 573.588 374.642 573.781 376.009 575.043C377.737 576.64 377.811 579.042 379.638 580.453C378.781 578.266 378.727 577.336 378.357 575.655C378.243 575.152 378.385 574.132 378.744 573.748C379.228 573.231 380.053 572.909 380.861 572.641C383.574 571.745 386.386 571.12 389.236 570.778C391.838 570.465 394.828 570.153 397.409 570.72C398.202 570.893 398.975 571.264 399.463 571.882C399.977 572.534 400.073 573.109 400.196 574.187C400.319 575.265 400.233 578.048 400.291 579.84" fill="#26B6A6"/>
<path d="M404.417 630.946C400.539 630.946 396.645 630.43 392.964 629.405C386.283 627.55 381.461 622.488 380.353 615.968C380.032 614.094 380.152 612.18 379.925 610.295C379.409 605.997 377.131 602.069 374.562 598.495C373.07 596.422 371.449 594.397 370.449 592.074C369.832 590.646 369.596 589.158 369.598 587.652C369.6 584.751 370.484 581.779 371.24 579.044C372.193 575.593 373.268 571.707 374.497 571.707C374.547 571.707 374.597 571.712 374.649 571.727C374.664 573.588 374.642 573.781 376.009 575.043C377.737 576.64 377.811 579.042 379.638 580.453C378.781 578.266 378.727 577.336 378.357 575.655C378.331 575.542 378.318 575.402 378.318 575.247C378.319 574.722 378.467 574.047 378.744 573.748C379.228 573.231 380.053 572.909 380.861 572.641C383.574 571.745 386.386 571.12 389.236 570.778C390.786 570.59 392.473 570.405 394.13 570.405C395.254 570.405 396.364 570.49 397.409 570.72C398.202 570.893 398.975 571.264 399.463 571.882C399.977 572.534 400.073 573.109 400.196 574.187C400.263 574.775 400.267 575.875 400.267 577.044C400.267 577.252 400.267 577.463 400.267 577.674C400.267 578.439 400.271 579.202 400.291 579.84C400.354 581.743 400.697 583.476 401.306 585.292C402.58 589.091 404.518 592.667 406.691 596.067C407.81 597.819 408.992 599.538 410.357 601.126C413.016 604.22 416.319 606.762 419.135 609.731C421.95 612.699 424.343 616.299 424.564 620.287C424.574 620.444 424.577 620.601 424.577 620.753C424.589 627.138 417.319 629.347 411.69 630.327C409.311 630.74 406.866 630.946 404.417 630.946" fill="#00BFA5"/>
<path d="M407.62 597.482C405.05 595.601 399.299 595.575 396.152 595.905C392.212 596.318 389.022 597.67 387.209 598.975C386.406 599.554 385.283 599.454 384.576 598.771C383.725 597.952 383.803 596.601 384.769 595.907C386.691 594.525 390.166 592.58 394.834 592.259C402.576 591.726 404.848 593.024 404.848 593.024C404.848 593.024 408.38 595.246 407.62 597.482Z" fill="#F3F2F1"/>
<path d="M413.524 604.393C410.296 602.527 403.967 602.794 400.822 603.124C396.882 603.537 393.936 605.052 392.124 606.36C391.32 606.939 390.197 606.837 389.491 606.156C388.641 605.335 388.719 603.985 389.685 603.29C391.605 601.907 395.297 599.675 399.965 599.354C407.708 598.821 409.726 600.367 409.726 600.367C409.726 600.367 412.99 601.603 413.524 604.393" fill="#F3F2F1"/>
<path d="M391.75 585.011C397.102 584.472 399.369 585.057 401.483 585.811C402.85 586.558 403.747 588.665 402.868 589.2C401.146 588.264 398.042 587.876 394.24 588.042C391.691 588.151 388.475 589.162 385.868 590.291C385.205 590.578 384.421 590.981 383.736 591.352C382.809 591.855 381.632 591.498 381.189 590.579C380.811 589.799 381.092 588.869 381.859 588.415C383.73 587.308 387.428 585.449 391.75 585.011" fill="#F3F2F1"/>
<path d="M479.959 562.296C479.959 562.296 479.08 559.997 475.438 559.334C472.651 558.828 467.729 560.837 464.672 563.303C463.419 564.31 463.581 566.227 465 566.994C465.845 567.449 466.882 567.331 467.61 566.71C469.616 565.003 474.112 561.902 479.959 562.296Z" fill="#F3F2F1"/>
<path d="M488.595 567.027C488.595 567.027 486.795 564.273 483.236 564.326C483.236 564.326 475.96 564.53 471.457 568.636C470.308 569.684 470.388 571.466 471.764 572.206C472.584 572.645 473.582 572.528 474.278 571.92C476.308 570.148 480.373 566.426 488.595 567.027" fill="#F3F2F1"/>
<path d="M498.13 571.288C498.13 571.288 496.123 568.797 492.565 568.851C492.565 568.851 485.785 569.097 481.283 573.204C480.134 574.251 480.212 576.034 481.588 576.773C482.41 577.212 483.408 577.095 484.104 576.487C486.132 574.717 489.908 570.687 498.13 571.288Z" fill="#F3F2F1"/>
<path d="M484.402 271.044C484.402 271.044 484.242 360.638 484.402 376.463C484.562 392.286 484.402 422.571 484.402 437.205C484.402 437.205 479.57 445.299 456.211 445.279C432.85 445.258 429.35 438.308 429.35 438.308L428.4 366.167L421.959 441.79C421.959 441.79 408.545 451.97 389.303 447.914C370.063 443.859 367.239 438.254 367.239 438.254L371.02 271.386L484.402 271.044Z" fill="#00BFA5"/>
<path d="M429.299 428.143L428.4 366.167L431.832 335.593C431.832 335.593 447.865 331.774 458.591 323.882C458.591 323.882 452.915 330.754 446.409 334.32C439.902 337.884 436.777 339.361 436.777 339.361L430.124 370.485L429.299 428.143Z" fill="#1DB3A0"/>
<path d="M369.598 286.652C384.857 297.522 454.01 309.563 486.106 286.652C486.106 286.652 485.365 198.966 482.849 152.558C482.73 150.451 482.586 148.413 482.37 146.421C482.298 145.765 482.203 145.11 482.13 144.452C481.747 141.571 481.22 138.831 480.501 136.23C480.382 135.786 480.238 135.341 480.095 134.895C479.784 133.886 479.447 132.905 479.041 131.943C478.825 131.428 478.609 130.913 478.371 130.421C478.155 129.953 477.941 129.483 477.676 129.039L477.555 128.78C477.317 128.336 477.053 127.892 476.788 127.469C476.501 127.001 476.215 126.531 475.879 126.063C475.567 125.643 475.256 125.196 474.945 124.798C474.585 124.353 474.204 123.907 473.796 123.486C473.437 123.066 473.029 122.667 472.621 122.292C472.357 122.033 472.07 121.776 471.783 121.52C471.519 121.285 471.232 121.05 470.945 120.84C470.586 120.534 470.178 120.254 469.794 119.972C468.551 119.105 467.208 118.333 465.748 117.63C465.365 117.442 464.957 117.255 464.549 117.091L464.262 116.974C463.782 116.787 463.303 116.599 462.825 116.435C462.035 116.131 461.196 115.872 460.332 115.638C459.471 115.404 458.585 115.193 457.65 114.982C456.619 114.936 455.47 114.913 454.224 114.913C453.435 114.913 452.571 114.936 451.686 114.958C450.8 114.982 449.889 115.006 448.955 115.053C436.956 115.568 419.732 117.466 405.911 119.2C405.002 119.316 404.092 119.433 403.205 119.551C402.39 119.644 401.6 119.739 400.833 119.831C391.348 121.05 384.306 122.057 383.228 122.221L383.084 122.246C379.969 123.018 377.096 123.745 374.772 124.424C368.425 126.251 373.143 124.681 371.754 130.678C367.658 148.295 372.426 212.343 372.426 212.343L369.598 286.652" fill="#EDEDEB"/>
<path d="M409.854 53.308L405.59 57.8697L403.416 34.3543C403.416 34.3543 398.103 33.4639 393.962 37.605C389.903 41.6641 392.169 54.3715 397.224 66.8185C397.224 66.8185 402.155 89.4798 404.134 93.2039C406.112 96.9262 410.199 97.9842 410.199 97.9842L409.854 53.308" fill="#26B6A6"/>
<path d="M410.151 97.9715C409.687 97.8386 405.987 96.6895 404.134 93.204C403.553 92.1113 402.719 89.3906 401.829 86.089C402.315 86.14 402.773 86.1637 403.203 86.1637C408.869 86.1637 409.854 82.0426 409.854 82.0426L410.151 97.9715" fill="#C35363"/>
<path d="M403.851 64.5604C403.388 64.0596 402.928 63.5625 402.483 63.1054C401.276 61.8707 398.63 60.3975 395.848 60.3975C395.532 60.3975 395.213 60.4157 394.895 60.4557C393.001 54.6429 391.867 49.1123 391.873 44.8109C391.875 42.2396 392.285 40.1072 393.18 38.6175C394.368 38.532 395.534 38.1422 396.545 37.4575C397.25 42.4836 399.993 60.8182 402.723 63.3458C403.075 63.6718 403.455 64.0888 403.851 64.5604" fill="#C35363"/>
<path d="M409.301 67.8692C407.438 68.9563 404.78 65.4563 402.483 63.1053C400.187 60.7561 392.687 57.5419 388.946 65.2523C385.134 73.1084 392.247 83.4903 398.152 85.3022C408.328 88.4272 409.854 82.0425 409.854 82.0425L410.536 118.639C421.198 137.501 457.25 127.842 443.736 115.341L443.708 106.046C443.708 106.046 454.556 106.725 459.054 106.046C466.538 104.915 469.614 99.8489 471.885 91.9273C475.531 79.2035 476.915 68.9291 473.822 43.9058C470.431 16.4788 437.813 16.1928 420.198 27.0354C402.583 37.8781 409.301 67.8692 409.301 67.8692" fill="#F8A39A"/>
<path d="M404.944 19.3579C410.981 16.588 417.63 15.0894 424.183 13.6981C438.408 10.6769 452.899 7.89611 465.892 1.47322C467.493 0.681053 469.204 -0.191216 470.984 0.0382385C474.41 0.478936 475.911 4.53809 476.047 7.91434C476.174 11.0411 475.753 14.1879 474.811 17.1781C476.654 15.0311 480.419 15.3297 482.462 17.2928C484.506 19.2596 485.052 22.3299 484.677 25.107C483.84 31.3369 478.957 36.5232 473.193 39.2912C467.426 42.0574 460.859 42.7513 454.437 42.9334C445.469 43.1865 436.474 42.5218 427.646 40.9557C425.501 40.5751 423.309 40.1417 421.159 40.4968C419.012 40.8519 416.878 42.1995 416.316 44.2573C415.372 47.7191 414.39 71.2819 409.437 71.3784C408.516 71.3966 405.006 65.4636 402.723 63.3457C399.85 60.6852 396.962 40.506 396.45 36.7764C396.407 36.4723 396.236 36.2337 396.053 35.9843C392.817 31.55 396.617 24.0781 400.611 21.647C402.012 20.7966 403.458 20.039 404.944 19.3579Z" fill="#26B6A6"/>
<path d="M409.434 71.3785C408.504 71.3785 405.002 65.46 402.723 63.3458C399.993 60.8182 397.25 42.4836 396.545 37.4575C397.016 37.137 397.455 36.751 397.846 36.303L395.104 34.0175C394.921 33.3674 394.835 32.6863 394.835 31.9907C394.835 27.9607 397.669 23.4372 400.611 21.6471C402.012 20.7966 403.458 20.039 404.944 19.3579C410.981 16.5881 417.63 15.0894 424.183 13.6981C438.408 10.677 452.899 7.89615 465.892 1.47326C467.316 0.768508 468.826 0.00182612 470.396 0.00182612C470.591 0.00182612 470.787 0.0127881 470.984 0.038283C474.41 0.478981 475.911 4.53813 476.047 7.91439C476.062 8.28042 476.069 8.64828 476.069 9.01432C476.067 11.7769 475.641 14.5376 474.811 17.1782C475.686 16.1584 476.995 15.6904 478.347 15.6904C479.842 15.6904 481.389 16.2621 482.462 17.2929C484.115 18.8827 484.787 21.1955 484.787 23.49C484.787 24.0345 484.748 24.5753 484.677 25.1071C483.84 31.3369 478.957 36.5233 473.193 39.2913C467.426 42.0575 460.859 42.7513 454.437 42.9334C453.198 42.968 451.958 42.9862 450.718 42.9862C442.985 42.9862 435.254 42.3052 427.646 40.9558C426.061 40.6753 424.453 40.3639 422.853 40.3639C422.287 40.3639 421.721 40.404 421.159 40.4969C419.012 40.852 416.878 42.1995 416.316 44.2573C415.372 47.7192 414.39 71.282 409.437 71.3785C409.437 71.3785 409.435 71.3785 409.434 71.3785" fill="#C35363"/>
<path d="M397.846 36.303C395.416 39.0929 391.134 39.4261 388.281 37.0496C385.43 34.6713 385.088 30.4846 387.518 27.6966L397.846 36.303" fill="#26B6A6"/>
<path d="M392.679 38.6357C391.123 38.6357 389.559 38.1149 388.281 37.0496C386.706 35.7348 385.896 33.8682 385.898 31.9889C385.9 30.4701 386.432 28.9422 387.518 27.6966L397.846 36.3029C397.455 36.7509 397.016 37.137 396.545 37.4575C395.534 38.1422 394.368 38.5319 393.18 38.6175C393.013 38.6284 392.847 38.6357 392.679 38.6357" fill="#C35363"/>
<path d="M443.708 106.046C443.708 106.046 427.004 104.476 421.164 101.441C417.256 99.4083 414.037 95.8863 413.091 93.6282C413.091 93.6282 414.185 98.4759 417.677 102.843C421.948 108.182 443.708 112.114 443.708 112.114V106.046" fill="#F57F6D"/>
<path d="M438.595 63.7845C438.595 65.6621 437.094 67.1826 435.245 67.1772C433.398 67.1717 431.899 65.6438 431.899 63.7663C431.899 61.887 433.398 60.3682 435.245 60.3737C437.094 60.3792 438.595 61.907 438.595 63.7845Z" fill="#17282F"/>
<path d="M435.042 51.4251L427.882 55.2893C426.827 53.277 427.573 50.7804 429.551 49.7133C431.528 48.6461 433.988 49.4128 435.042 51.4251Z" fill="#17282F"/>
<path d="M440.103 86.4004L449.443 89.8277C448.519 92.4464 445.678 93.8012 443.101 92.8561C440.52 91.9091 439.179 89.0191 440.103 86.4004" fill="#F57F6D"/>
<path d="M468.141 54.1512L461.609 49.2307C462.942 47.4023 465.484 47.0218 467.286 48.3785C469.091 49.737 469.472 52.321 468.141 54.1512" fill="#17282F"/>
<path d="M466.13 62.8522C466.13 64.7315 464.631 66.2485 462.782 66.2449C460.935 66.2394 459.434 64.7134 459.434 62.834C459.434 60.9565 460.935 59.4359 462.782 59.4414C464.631 59.4468 466.13 60.9729 466.13 62.8522Z" fill="#17282F"/>
<path d="M449.984 60.514L451.085 80.2015L461.594 76.6996L449.984 60.514Z" fill="#F57F6D"/>
<path d="M385.026 121.96C369.598 123.373 359.167 127.218 345.82 152.547C338.121 167.163 315.553 214.077 315.553 214.077L257.157 241.553C257.157 241.553 263.966 258.622 262.437 265.812C262.437 265.812 282.556 261.046 304.103 255.226C325.548 249.433 335.348 246.046 341.478 242.043C346.032 239.067 379.954 176.539 379.954 176.539C391.504 158.851 394.997 135.325 385.026 121.96" fill="#33535F"/>
<path d="M283.314 108.038L281.368 107.88C254.421 105.704 234.382 82.5743 236.609 56.2217C238.754 30.8215 261.547 11.9316 287.519 14.0295L292.995 14.472C318.966 16.5699 338.279 38.8615 336.134 64.2635C333.907 90.6161 310.259 110.214 283.314 108.038" fill="#17282F"/>
<path d="M246.35 98.1936C245.405 98.2883 244.461 98.3448 243.525 98.3721C237.214 98.5578 230.897 97.5544 224.599 98.0042C215.876 98.627 206.664 102.834 203.421 110.779C200.916 116.912 202.259 124.415 198.33 129.787C195.653 133.449 191.126 135.247 187.244 137.669C174.245 145.776 169.401 164.113 180.544 175.926C196.042 192.355 223.54 181.595 234.181 165.334C238.432 158.842 240.927 151.025 246.893 145.984C253.358 140.521 262.722 139.373 269.321 134.065C275.103 129.412 278.087 121.654 276.881 114.428C276.043 109.431 273.406 104.915 270.632 100.639C269.027 98.1645 267.31 95.6787 264.914 93.9178C260.57 90.7273 259.758 93.6246 255.708 95.666C252.82 97.121 249.591 97.8731 246.35 98.1936" fill="#17282F"/>
<path d="M143.856 552.713C145.4 556.475 144.165 560.952 143.663 570.827C143.332 577.321 142.73 583.844 143.186 590.347C143.349 592.676 143.977 594.836 144.329 597.116C144.613 598.957 145.285 600.545 146.681 601.902C147.844 603.034 149.529 603.759 151.136 603.439C152.409 603.186 153.491 602.302 154.177 601.223C155.111 599.755 156.762 596.189 157.225 594.583C158.039 611.224 175.619 623.809 164.171 627.2C154.241 630.143 145.726 627.366 139.959 624.378C136.419 622.542 133.232 618.783 132.547 617.419C128.73 609.813 129.669 602.858 130.027 596.541C130.817 582.586 128.935 575.23 128.248 568.183C127.417 559.651 141.238 551.276 143.856 552.713" fill="#17282F"/>
<path d="M266.67 558.848C266.67 558.848 265.718 558.923 265.417 560.167C264.973 562 264.372 565.451 263.521 568.582C262.389 572.748 261.071 578.763 261.555 582.196C262.039 585.629 266.506 589.214 275.132 592.201C280.329 594.002 289.487 599.066 293.555 603.18C298.542 608.219 309.608 612.859 317.247 613.564C326.204 614.391 335.713 612.635 338.29 606.451C339.376 603.852 335.108 600.674 323.975 594.567C323.975 594.567 318.368 591.212 315.208 588.981C299.288 577.74 294.01 571.588 289.867 560.886L266.67 558.848" fill="#17282F"/>
<path d="M295.546 569.837C290.628 563.922 289.969 558.469 291.373 548.157C292.777 537.842 307.088 448.066 310.734 425.594C316.855 387.847 322.67 279.666 321.174 253.117L217.107 254.596C208.379 272.513 201.369 294.807 200.207 330.405C199.323 357.555 193.856 431.006 193.856 431.006C193.856 431.006 180.512 441.013 170.089 461.775C160.879 480.118 147.43 544.648 147.43 544.648C145.738 548.878 144.386 552.098 143.856 552.713C141.489 555.465 139.733 558.462 139.503 561.98C138.768 573.227 139.256 584.551 140.958 595.698C141.839 601.467 145.232 605.358 150.89 607.982C152.144 608.563 153.52 608.907 154.908 608.893C155.615 608.886 156.382 608.767 156.919 608.303C157.962 607.403 157.218 605.067 157.106 603.912C156.927 602.053 156.886 600.183 156.951 598.318C157.08 594.652 157.49 590.194 157.975 586.561C159.247 577.052 161.179 569.392 163.59 562.55C163.591 562.549 164.512 560.739 165.91 557.985C165.91 557.985 216.662 472.177 230.841 451.373C242.102 435.058 253.157 369.674 262.711 334.149L269.224 420.897C269.224 420.897 262.877 436.096 260.694 447.889C257.764 463.727 265.186 526.969 267.174 549.415C267.543 553.582 267.318 557.768 266.506 561.877C267.09 571.587 274.289 575.019 281.575 580.956C285.198 583.906 301.264 594.885 311.226 597.52C319.331 599.664 322.671 596.745 323.964 594.558C314.115 588.002 300.465 575.753 295.546 569.837" fill="#F6879F"/>
<path d="M238.784 220.014C238.784 220.014 228.956 230.317 212.977 256.803C202.246 274.589 197.194 342.021 197.194 342.021C197.194 342.021 204.261 360.973 256.699 361.217L262.098 338.57L263.964 361.135C265.256 361.103 266.573 361.057 267.917 361.001C313.252 359.114 322.323 349.697 322.323 349.697C322.323 349.697 323.964 273.915 318.782 225.719C302.863 235.251 256.129 235.251 238.784 220.014Z" fill="#C1C2BF"/>
<path d="M262.098 338.57L274.592 301.275C274.592 301.275 294.028 300.474 309.76 290.615C309.76 290.615 305.749 304.293 278.91 306.705L265.027 343.214L263.964 361.135L262.098 338.57Z" fill="#17282F"/>
<path d="M223.57 346.392C205.27 340.885 198.379 332.943 198.379 332.943L198.377 332.954L197.194 341.85C197.194 341.85 204.261 360.8 256.699 361.044L259.095 350.996C259.095 350.996 241.869 351.901 223.57 346.392Z" fill="#273E47"/>
<path d="M322.323 349.697C322.323 349.697 322.401 346.057 322.47 339.865C321.456 340.415 308.98 345.727 293.416 348.213C277.158 350.808 263.085 350.5 263.083 350.5L263.962 361.135C265.256 361.103 266.573 361.057 267.917 361.001C313.252 359.114 322.323 349.697 322.323 349.697" fill="#273E47"/>
<path d="M332.134 159.889C323.064 144.028 303.93 128.268 297.745 122.811L259.78 120.7C252.297 120.602 246.346 121.145 242.4 122.893C234.224 126.52 232.91 134.103 232.049 143.156C231.088 153.081 230.753 157.449 232.472 174.052L236.198 195.304L236.771 198.567C236.872 199.128 236.956 199.689 237.056 200.266C238.322 208.146 237.144 216.352 232.463 223.871C222.711 239.539 213.18 251.604 209.387 265.039C209.387 265.039 214.612 263.63 221.438 258.01C227.379 253.117 230.912 250.895 235.801 244.993C235.801 244.993 235.641 254.242 244.221 266.922C246.262 269.956 248.774 273.007 251.859 275.875C267.772 290.713 317.99 299.864 322.474 256.799C322.474 256.799 318.698 229.214 318.361 220.014C320.299 212.199 325.423 198.766 325.727 195.748C337.949 186.319 338.742 171.43 332.134 159.889" fill="#00BFA5"/>
<path d="M287.489 203.407C285.036 203.407 282.366 203.04 279.486 202.169C260.536 196.442 262.132 179.644 262.132 179.644C262.132 179.644 264.323 192.49 279.344 197.698C282.452 198.776 285.48 199.204 288.329 199.204C299.249 199.204 307.531 192.92 307.531 192.92C307.531 192.92 300.607 203.407 287.489 203.407" fill="#1DB3A0"/>
<path d="M319.197 35.0701C324.33 38.6266 329.879 52.4412 326.87 80.2179C324.321 103.762 316.011 108.956 311.943 110.32C307.876 111.682 300.391 110.049 293.133 108.253L291.937 122.41C291.937 122.41 301.132 134.786 299.944 141.227C298.756 147.666 284.578 148.065 275.596 140.954C266.614 133.845 261.326 123.698 261.326 123.698L264.426 87.0141C264.426 87.0141 259.186 91.9055 251.504 85.9706C243.823 80.0358 245.4 69.7395 250.522 65.4309C255.643 61.1222 264.431 64.2981 265.783 70.9323C265.783 70.9323 277.484 72.2999 293.825 65.165C310.166 58.0301 317.385 44.1317 319.197 35.0701" fill="#F6879F"/>
<path d="M297.743 71.8993C297.687 73.6056 296.277 74.9422 294.6 74.884C292.92 74.8275 291.604 73.398 291.66 71.6898C291.717 69.9835 293.123 68.6468 294.803 68.7051C296.482 68.7616 297.799 70.1929 297.743 71.8993Z" fill="#17282F"/>
<path d="M299.564 92.1787L306.422 94.9449C305.671 96.8679 303.528 97.8094 301.633 97.0464C299.739 96.2815 298.812 94.1017 299.564 92.1787Z" fill="#F47089"/>
<path d="M323.379 64.8008L317.594 60.1444C318.858 58.5218 321.18 58.2486 322.776 59.5325C324.373 60.82 324.643 63.1783 323.379 64.8008" fill="#17282F"/>
<path d="M321.375 71.6498C321.32 73.3562 319.912 74.6929 318.234 74.6346C316.553 74.5781 315.238 73.1486 315.294 71.4404C315.35 69.7341 316.758 68.3974 318.435 68.4539C320.117 68.5121 321.431 69.9417 321.375 71.6498Z" fill="#17282F"/>
<path d="M306.707 68.7543L305.681 86.6499L315.534 84.5138L306.707 68.7543Z" fill="#F47089"/>
<path d="M293.132 108.253C285.459 106.632 269.882 100.86 267.917 94.4896C267.917 94.4896 268.418 98.434 272.848 102.814C277.276 107.195 292.734 112.977 292.734 112.977L293.132 108.253Z" fill="#F47089"/>
<path d="M257.872 147.406C257.294 128.529 249.979 121.081 249.979 121.081C237.453 120.689 221.566 121.057 210.446 140.065C204.881 149.579 172.418 202.632 172.418 202.632C165.178 197.267 129.411 167.509 127.157 165.316C124.556 162.419 123.476 159.986 123.021 157.185C123.045 154.311 122.846 151.31 122.693 149.921C122.037 143.975 121.036 142.394 119.401 137.62C118.709 135.6 118.64 134.354 118.331 132.765C118.251 132.353 118.128 131.896 117.759 131.683C117.449 131.501 117.056 131.552 116.707 131.643C114.589 132.206 114.013 133.349 113.368 135.4C112.722 137.452 113.107 140.164 113.343 142.298C113.54 144.073 113.866 145.987 112.598 146.659C110.719 147.333 109.529 145.421 108.835 144.505C106.185 140.193 99.1848 127.433 96.0114 122.53C95.2934 121.421 94.4955 120.258 93.2649 119.737C91.2217 118.868 89.6623 120.145 89.602 122.321C89.5779 123.144 89.863 123.942 90.1701 124.708C91.7563 128.675 96.8368 138.375 97.9155 140.954C98.3126 141.903 98.8429 143.616 97.9242 144.086C96.3315 145.275 94.0425 143.318 92.4358 141.753C85.7586 135.254 83.9912 134.001 79.4723 129.922C77.6756 128.299 75.8281 128.591 74.6724 129.419C73.7531 130.079 73.4315 131.721 74.4541 133.204C75.0928 134.129 76.9446 136.336 78.4647 138.055C81.0455 140.972 89.1793 149.721 89.1793 149.721C86.7442 150.127 85.0568 153.645 87.2759 157.167C87.2759 157.167 84.4975 160.722 87.6591 165.385C89.7379 168.452 94.1922 173.526 100.188 175.811C103.182 176.953 105.897 177.55 109.478 181.278C116.005 188.069 140.226 213.531 157.598 229.875C162.848 234.815 170.9 240.71 176.884 240.974C180.611 241.14 185.981 235.34 188.689 232.162C192.085 228.178 231.211 174.675 231.211 174.675L234.98 188.353C250.71 176.472 258.447 166.283 257.872 147.406" fill="#F6879F"/>
<path d="M231.211 174.675L240.773 162.228L233.34 182.4L231.211 174.675Z" fill="#F47089"/>
<path d="M672.934 635.194C673.653 637.981 675.167 645.877 690.178 645.877C705.188 645.877 713.8 639.862 716.753 632.401C719.706 624.94 718.011 619.411 717.74 612.907C717.464 606.404 722.408 602.255 723.503 598.741C725.113 593.561 720.691 586.434 720.691 586.434L672.934 635.194Z" fill="#17282F"/>
<path d="M528.556 587.237C528.001 587.637 527.671 592.214 529.256 594.31C530.347 595.752 540.42 602.903 552.851 601.416C565.28 599.928 571.348 596.765 578.448 592.669C585.716 588.477 590.734 587.871 598.128 587.896C605.291 587.918 610.585 586.552 611.197 584.735C612.27 581.546 612.348 579.503 610.778 579.548L528.556 587.237Z" fill="#17282F"/>
<path d="M715.438 575.116C715.695 582.675 692.072 589.231 692.649 579.619L684.503 551.724L710.917 548.984L715.438 575.116" fill="#C35363"/>
<path d="M605.548 557.371C598.133 562.581 591.287 563.224 582.574 558.948L578.184 513.282H610.253L605.548 557.371Z" fill="#C35363"/>
<path d="M674.332 261.765C680.473 316.869 691.4 420.611 691.4 420.611C691.4 420.611 701.063 435.023 704.663 461.607C709.109 494.428 713.513 562.94 713.513 562.94C713.513 562.94 702.654 570.381 687.389 565.559C687.389 565.559 649.724 464.981 642.756 432.669C636.677 404.468 625.909 354.106 625.909 354.106L612.443 425.368C612.443 425.368 617.731 441.728 616.791 463.783C616.143 478.964 608.853 536.402 608.853 536.402C606.682 542.681 586.535 542.242 580.05 538.203C580.05 538.203 569.732 441.634 568.371 425.687C566.582 404.71 563.265 261.765 563.265 261.765H674.332" fill="#273E47"/>
<path d="M625.909 354.106L618.39 320.212C618.39 320.212 601.589 316.463 589.585 307.048C589.585 307.048 593.987 317.863 612.391 326.138L620.068 357.89L613.461 419.978L625.909 354.106Z" fill="#17282F"/>
<path d="M692.649 579.619L691.798 576.709C690.813 577.669 690.97 578.494 690.938 581.109C690.916 583.158 690.908 585.154 690.653 587.889C690.264 592.07 689.841 593.545 688.655 598.473C686.719 606.52 684.529 609.738 678.742 619.679C677.369 622.037 674.049 625.956 673.078 628.499C672.107 631.041 671.802 635.694 674.874 637.473C683.654 642.552 697.204 641.168 705.804 637.216C712.418 634.175 716.559 628 716.6 620.852C716.611 618.798 716.164 616.769 716.079 614.719C715.885 610.038 717.578 605.478 719.635 601.252C720.831 598.799 722.169 596.377 722.812 593.734C723.966 588.985 721.674 584.188 719.773 579.922C718.134 576.238 716.218 571.323 714.935 571.887C715.004 572.355 715.438 575.116 715.438 575.116C714.105 577.108 709.917 579.521 704.916 580.475C701.685 581.093 693.007 582.049 692.649 579.619" fill="#33535F"/>
<path d="M581.66 549.426C580.511 549.455 579.344 550.307 577.316 553.208C574.771 556.843 572.546 559.145 566.697 563.166C559.137 568.367 547.2 573.613 534.922 578.104C528.23 580.55 526.96 585.274 529.17 589.508C532.635 592.897 544.433 600.807 563.818 595.031C575.845 591.447 580.074 585.412 588.665 584.347C594.741 583.593 605.287 585.225 611.493 580.313C613.447 575.729 611.881 571.113 611.259 564.736C610.652 558.522 608.549 548.184 606.484 548.585L606.125 551.954C604.474 559.329 587.123 560.054 582.215 555.235L581.66 549.426" fill="#33535F"/>
<path d="M628.492 108.985C647.76 110.154 672.917 109.916 674.087 129.228C675.88 158.859 670.08 221.032 670.08 221.032L676.308 272.12C662.187 286.889 599.046 294.597 562.971 272.95C562.971 272.95 563.122 171.756 565.952 154.98C571.047 124.792 582.79 111.551 594.057 110.708L628.492 108.985" fill="#00BFA5"/>
<path d="M620.368 38.5538C621.388 55.1546 608.453 69.4245 591.479 70.4224C574.503 71.4222 559.912 58.7712 558.892 42.1704C557.869 25.566 570.805 11.298 587.781 10.3C604.757 9.30026 619.345 21.9512 620.368 38.5538" fill="#17282F"/>
<path d="M644.077 58.6111C644.077 58.6111 640.503 81.7914 638.738 85.6684C636.971 89.5455 632.91 90.8585 632.91 90.8585L632.268 74.7384L644.077 58.6111Z" fill="#17282F"/>
<path d="M635.809 26.1905C635.809 26.1905 641.118 24.9759 645.559 28.9131C649.91 32.7719 648.41 45.7415 644.077 58.611L634.759 60.2153L635.809 26.1905Z" fill="#17282F"/>
<path d="M631.946 60.3901C633.895 61.3772 636.362 57.684 638.537 55.1746C640.71 52.6652 648.084 48.9739 652.342 56.5367C656.681 64.2453 650.139 75.1535 644.289 77.3333C634.206 81.0938 632.268 74.7383 632.268 74.7383L633.806 112.143C622.014 128.915 586.477 129.647 600.219 112.045L599.571 101.009C599.571 101.009 590.346 102.939 585.762 102.519C578.134 101.819 573.02 96.2687 570.237 88.4035C565.764 75.769 563.727 65.4764 565.299 40.0215C567.017 12.1192 599.941 9.89382 618.405 19.7968C636.867 29.7015 631.946 60.3901 631.946 60.3901" fill="#C35363"/>
<path d="M632.136 63.4842C633.085 63.446 636.321 57.3964 638.537 55.1747C641.604 52.0952 635.809 26.1906 635.809 26.1906C635.809 26.1906 639.37 18.564 632.707 12.2048C627.967 7.68131 621.407 2.20353 601.377 5.72183C587.101 8.23125 571.721 13.5379 558.704 8.20578C557.283 16.0127 559.34 24.5061 567.574 30.1223C567.574 30.1223 572.33 32.741 584.455 33.4658C596.581 34.1905 615.225 31.3788 617.767 30.8853C621.23 30.2134 622.178 33.4767 624.615 42.4053C626.754 50.2432 628.953 63.6117 632.136 63.4842" fill="#17282F"/>
<path d="M635.915 28.2265L646.924 21.585C645.114 18.4929 641.181 17.4713 638.142 19.3051C635.102 21.1407 634.106 25.1325 635.915 28.2265" fill="#17282F"/>
<path d="M599.571 101.009C599.571 101.009 616.236 96.6931 621.945 93.2786C625.766 90.995 628.799 87.2472 629.613 84.9108C629.613 84.9108 628.808 89.8714 625.553 94.4878C621.571 100.135 599.841 105.398 599.841 105.398L599.571 101.009" fill="#AA3B4B"/>
<path d="M600.999 58.0701C601.116 59.9677 602.723 61.4118 604.591 61.2971C606.457 61.1824 607.875 59.5506 607.758 57.6531C607.643 55.7574 606.034 54.3115 604.168 54.4262C602.302 54.5409 600.882 56.1726 600.999 58.0701Z" fill="#17282F"/>
<path d="M603.816 45.3773L611.29 48.8555C612.231 46.7594 611.32 44.2828 609.257 43.3213C607.194 42.3616 604.758 43.2813 603.816 45.3773Z" fill="#17282F"/>
<path d="M599.878 81.0574L592.333 84.3444C593.229 86.4623 595.646 87.4439 597.729 86.537C599.813 85.6283 600.774 83.1753 599.878 81.0574Z" fill="#AA3B4B"/>
<path d="M570.255 50.1139L576.545 44.7581C575.084 42.9899 572.495 42.7568 570.758 44.2355C569.023 45.7142 568.796 48.3438 570.255 50.1139" fill="#17282F"/>
<path d="M572.825 58.7821C572.942 60.6797 574.549 62.1238 576.417 62.0091C578.283 61.8943 579.703 60.2627 579.584 58.3651C579.469 56.4694 577.862 55.0234 575.996 55.1381C574.128 55.2529 572.71 56.8846 572.825 58.7821Z" fill="#17282F"/>
<path d="M589.855 54.6337L589.97 74.5817L579.135 71.668L589.855 54.6337Z" fill="#AA3B4B"/>
<path d="M655.275 113.592C676.919 114.709 683.328 125.639 696.246 146.911C706.666 164.078 733.639 206.327 733.639 206.327C740.458 198.827 770.124 157.839 772.129 154.925C774.361 151.157 773.816 146.803 773.689 143.602C773.019 140.424 772.567 137.055 772.423 135.48C771.816 128.751 772.57 126.784 773.309 121.143C773.622 118.755 773.421 117.358 773.406 115.532C773.403 115.058 773.436 114.525 773.797 114.208C774.099 113.942 774.548 113.913 774.954 113.94C777.426 114.11 778.322 115.252 779.499 117.386C780.674 119.52 780.856 122.609 781.074 125.025C781.255 127.036 781.322 129.226 782.878 129.698C785.111 130.042 786.001 127.666 786.565 126.504C788.533 121.155 793.429 105.511 795.845 99.3973C796.391 98.0151 797.013 96.5546 798.26 95.7097C800.329 94.3111 802.344 95.3891 802.9 97.7893C803.111 98.6962 802.975 99.6413 802.806 100.555C801.938 105.292 798.486 117.134 797.869 120.223C797.644 121.361 797.439 123.373 798.562 123.696C800.595 124.674 802.694 122.011 804.122 119.933C810.064 111.296 811.74 109.53 815.83 104.037C817.458 101.852 819.571 101.779 821.038 102.449C822.206 102.983 822.93 104.733 822.129 106.598C821.63 107.76 820.074 110.602 818.772 112.833C816.57 116.619 809.518 128.063 809.518 128.063C812.309 127.992 814.968 131.528 813.3 135.906C813.3 135.906 818.029 139.814 815.573 145.661C813.957 149.506 810.492 156.704 804.358 160.527C801.297 162.435 798.566 164.433 795.434 169.33C789.727 178.257 776.255 204.353 758.927 229.795C753.855 237.236 747.448 246.454 740.352 250.342C733.166 254.279 721.965 247.912 714.95 240.623C701.51 226.657 665.205 174.851 665.205 174.851L655.275 113.592" fill="#C35363"/>
<path d="M654.936 111.424C654.936 111.424 639.991 144.214 664.847 177.656L684.627 207.306C696.606 207.306 710.629 193.148 717.831 178.93C717.831 178.93 700.095 150.127 690.975 135.901C682.697 122.987 674.208 111.424 654.936 111.424Z" fill="#26B6A6"/>
<path d="M684.628 207.306L672.562 189.219L664.847 177.656C653.56 162.47 650.48 147.419 650.482 135.509C650.482 121.195 654.936 111.424 654.936 111.424C674.208 111.424 682.697 122.987 690.975 135.901C700.095 150.127 717.831 178.93 717.831 178.93C717.598 179.391 717.358 179.85 717.112 180.309C710.487 192.63 698.939 204.566 688.268 206.897C687.039 207.164 685.825 207.306 684.628 207.306" fill="#00BFA5"/>
</svg>
