<svg width="45" height="44" viewBox="0 0 45 44" fill="none" xmlns="http://www.w3.org/2000/svg">
<ellipse cx="22.5" cy="22" rx="22.5" ry="22" fill="white"/>
<path d="M37.8816 31.8787C37.8603 31.8982 35.7311 33.8505 35.7055 33.8648C36.2996 34.7936 36.6402 35.8745 36.6402 37.0277L35.3796 39C35.3796 39.3715 28.5943 39.5 32.5 40.5L12 39C11.5942 39 9.29449 37.3501 9.29449 39L8.35977 37.0277C8.35977 35.8745 8.70042 34.7936 9.29449 33.8648C9.26979 33.8511 9.44397 34.0076 7.11836 31.8787C6.25526 31.0886 6.17538 29.8329 6.93105 28.9562C7.85274 27.8768 7.58499 26.6311 6.75568 25.9152C5.84574 25.1294 5.74474 23.8366 6.52337 22.9406L7.58113 21.7236C8.0687 21.1621 8.22755 20.4174 8.00534 19.729L7.3222 17.6084C6.97237 16.525 7.57563 15.3743 8.71786 14.9465L9.62045 14.6078C10.524 14.269 11.1144 13.4638 11.1144 12.5695V10.4052C11.1144 5.763 15.2251 2 20.2963 2H24.7037C29.7746 2 33.8857 5.76199 33.8857 10.4052V12.5695C33.8857 13.4638 34.4761 14.269 35.3796 14.6078L36.2821 14.9465C37.4244 15.3743 38.0276 16.525 37.6778 17.6084L36.9947 19.729C36.7725 20.4174 36.9313 21.1621 37.4189 21.7236L38.4766 22.9406C39.2559 23.8388 39.1539 25.1285 38.2443 25.9152C37.3362 26.6986 37.2334 27.9871 38.0065 28.8831C38.8849 29.9118 38.6982 31.1312 37.8816 31.8787Z" fill="#FFDFBA"/>
<path d="M7.11835 31.8787C7.13965 31.8982 9.26886 33.8505 9.29448 33.8648C8.7004 34.7936 8.35975 35.8745 8.35975 37.0277L8.71785 38C10.8581 36.6724 14.4057 39.3276 11.5 40L32.5 41C30.48 39.5 35.3795 38.3715 35.3795 38L36.6402 37.0277C36.6402 35.8745 36.2996 34.7936 35.7055 33.8648C35.7302 33.8511 35.556 34.0076 37.8816 31.8787C38.7447 31.0886 38.8246 29.8329 38.0689 28.9562C37.1473 27.8768 37.415 26.6311 38.2443 25.9152C39.1543 25.1294 39.2553 23.8366 38.4766 22.9406L37.4189 21.7236C36.9313 21.1621 36.7725 20.4174 36.9947 19.729L37.6778 17.6084C38.0276 16.525 37.4244 15.3743 36.2821 14.9465L35.3795 14.6078C34.476 14.269 33.8856 13.4638 33.8856 12.5695V10.4052C33.8856 5.763 29.7749 2 24.7037 2H20.2963C15.2254 2 11.1143 5.76199 11.1143 10.4052V12.5695C11.1143 13.4638 10.5239 14.269 9.62044 14.6078L8.71785 14.9465C7.57561 15.3743 6.97236 16.525 7.32219 17.6084L8.00533 19.729C8.22753 20.4174 8.06868 21.1621 7.58112 21.7236L6.52336 22.9406C5.74408 23.8388 5.8461 25.1285 6.75566 25.9152C7.66376 26.6986 7.7666 27.9871 6.99348 28.8831C6.11513 29.9118 6.3018 31.1312 7.11835 31.8787Z" fill="#FFDFBA"/>
<path d="M14.0611 17.0315C13.6898 17.0703 13.4099 17.3573 13.4099 17.6993V18.9895C13.4099 22.4574 15.7283 25.4312 19.0246 26.6802L19.0109 26.7112V27.2853C19.0109 29.1968 17.3276 30.7376 15.2508 30.76C12.6733 30.76 10.484 32.0052 9.29449 33.8648C9.26887 33.8505 7.13967 31.8982 7.11836 31.8787C6.25526 31.0886 6.17538 29.8329 6.93105 28.9562C7.85274 27.8768 7.58499 26.6311 6.75568 25.9152C5.84574 25.1294 5.74474 23.8366 6.52337 22.9406L7.58114 21.7236C8.0687 21.1621 8.22755 20.4174 8.00534 19.729L7.3222 17.6084C6.97237 16.525 7.57563 15.3743 8.71786 14.9465L9.62045 14.6078C10.524 14.269 11.1144 13.4638 11.1144 12.5695V10.4052C11.1144 5.76316 15.2253 2 20.2963 2H24.7037C29.7746 2 33.8857 5.76207 33.8857 10.4052V12.5695C33.8857 13.4638 34.4761 14.269 35.3796 14.6078L36.2822 14.9465C37.4244 15.3743 38.0276 16.525 37.6778 17.6084L36.9947 19.729C36.7725 20.4174 36.9313 21.1621 37.4189 21.7236L38.4766 22.9406C39.2558 23.8387 39.1541 25.1284 38.2443 25.9152C37.3963 26.6467 37.1625 27.8947 38.069 28.9562C38.8246 29.8329 38.7448 31.0886 37.8816 31.8787C37.8603 31.8982 35.7311 33.8505 35.7055 33.8648C34.5258 32.0206 32.3456 30.76 29.7492 30.76C27.6732 30.7376 25.9892 29.1977 25.9892 27.2853V26.7112L25.9754 26.6793C29.2717 25.4303 31.5902 22.4582 31.5902 18.9894V14.8445C31.5902 14.562 31.3979 14.3092 31.1076 14.2131C29.5099 13.6842 28.161 12.6652 27.2937 11.3037C27.0404 10.906 26.4321 10.8596 26.1036 11.2081C23.0295 14.4697 18.7628 16.54 14.0611 17.0315V17.0315Z" fill="#9A4A4D"/>
<path d="M31.1075 14.2131C31.3978 14.3092 31.5901 14.5619 31.5901 14.8446V18.9895C31.5901 22.4583 29.2717 25.4303 25.9753 26.6793C20.0128 28.9449 13.4098 24.9201 13.4098 18.9894V17.6993C13.4098 17.3572 13.6898 17.0702 14.0611 17.0314C18.7547 16.5408 23.0243 14.4753 26.1035 11.2082C26.4321 10.8596 27.0404 10.906 27.2937 11.3038C28.1601 12.6641 29.5081 13.6837 31.1075 14.2131V14.2131Z" fill="#FFEBD2"/>
<path d="M27.9293 2.5339C29.1028 2.93667 28.7664 4.52844 27.5132 4.52172C27.4675 4.52147 23.0966 4.52155 23.0509 4.52155C17.9799 4.52155 13.869 8.28472 13.869 12.9267V15.0911C13.869 15.9854 13.2786 16.7906 12.375 17.1293L11.4725 17.468C10.3302 17.8959 9.72696 19.0465 10.0768 20.13L10.7599 22.2506C10.9821 22.939 10.8233 23.6837 10.3357 24.2451L9.27796 25.4622C8.49933 26.3582 8.60033 27.6509 9.51027 28.4368C10.4168 29.2194 10.522 30.5068 9.74808 31.4047C9.09983 32.1639 9.02922 32.9919 9.35867 33.7017C9.39604 33.7823 9.28366 33.8565 9.21314 33.7931C8.81978 33.4389 7.13728 31.896 7.11836 31.8788C6.31797 31.1461 6.10054 29.929 6.99349 28.8832C7.76826 27.9845 7.66139 26.6971 6.75568 25.9153C5.84574 25.1294 5.74474 23.8367 6.52337 22.9407L7.58114 21.7237C8.0687 21.1622 8.22755 20.4175 8.00534 19.7291L7.3222 17.6084C6.97237 16.525 7.57563 15.3743 8.71786 14.9465L9.62045 14.6078C10.524 14.269 11.1144 13.4638 11.1144 12.5695V10.4052C11.1144 5.76316 15.2253 2 20.2963 2H24.7037C25.8293 2 26.9182 2.18685 27.9293 2.5339V2.5339Z" fill="#9A4A4D"/>
<path d="M20.4313 24.3679C21.9182 25.2297 20.7562 27.3155 19.1225 26.7166C15.767 25.4864 13.4098 22.4854 13.4098 18.9894V17.6992C13.4098 17.3571 13.6899 17.0705 14.0608 17.0318C14.4019 16.9958 14.7697 16.9487 15.1596 16.8864C15.6766 16.8038 16.1622 17.1441 16.2048 17.6228C16.4816 20.7361 18.1549 23.0486 20.4313 24.3679V24.3679Z" fill="#FFF3E4"/>
<path d="M26.0929 28.0913C23.8307 28.9582 21.3447 29.0254 18.9071 28.0913C19.0316 27.6185 19.0108 27.3122 19.0108 26.7112L19.0246 26.6801C21.2358 27.5203 23.7598 27.522 25.9754 26.6801L25.9891 26.7112C25.9891 27.3124 25.9684 27.6186 26.0929 28.0913Z" fill="#FFD6A6"/>
<path d="M37 36.969V39C37 39.3768 33.916 41.5 33.5 41.5L28.5 43.5L22 44L18.2959 43.5L16 43L13 42L11 41C9 39.5 8.5 39 7.5 38.5L8 36.969C8 33.4558 11.1443 30.6099 15.0226 30.6086C16.3939 30.6082 17.6013 29.9686 18.2959 29C20.7208 30.8766 24.2778 30.8777 26.7041 29C27.3986 29.9686 28.6061 30.6082 29.9774 30.6086C33.8557 30.6099 37 33.4558 37 36.969Z" fill="#00BFA5"/>
<path d="M32.2 38.5H29.8C29.3582 38.5 29 38.1642 29 37.75C29 37.3358 29.3582 37 29.8 37H32.2C32.6418 37 33 37.3358 33 37.75C33 38.1642 32.6419 38.5 32.2 38.5Z" fill="white"/>
</svg>
