<svg width="50" height="50" viewBox="0 0 50 50" fill="none" xmlns="http://www.w3.org/2000/svg">
<rect x="5" y="5" width="40" height="40" rx="20" fill="white"/>
<path d="M34.9446 41.7519L34.9444 41.7521L34.5052 41.1765L34.6834 40.601C34.4463 39.7339 34.1404 38.9605 33.8026 38.2777L33.052 37.8148L33.2106 37.2139C31.9573 35.1996 30.5684 34.2531 30.5684 34.2531H19.4315C19.4315 34.2531 18.0426 35.1998 16.7893 37.2141L16.7847 37.9085L16.199 38.2766C15.8608 38.9599 15.5539 39.7327 15.3165 40.6009L15.5898 41.4009L15.0555 41.7521C14.9069 42.5684 14.8202 43.4548 14.8202 44.4141H19.3241L19.8159 44.0262L20.496 44.4141H24.414L24.9999 44.0262L25.5859 44.4141H29.5038L30.184 44.0262L30.6757 44.4141H35.1796C35.1797 43.4548 35.0934 42.5681 34.9446 41.7519V41.7519Z" fill="#00BFA5"/>
<path d="M17.3027 41.2423C17.3027 38.4358 18.6848 35.6054 20.6825 34.2531H19.4314C19.4314 34.2531 18.0425 35.1998 16.7892 37.2141L16.7846 37.9085L16.1989 38.2766C15.8607 38.9599 15.5538 39.7327 15.3164 40.6009L15.5897 41.4009L15.0555 41.7521C14.9068 42.5684 14.8202 43.4548 14.8202 44.4141H17.5553C17.3513 43.4612 17.3027 42.3836 17.3027 41.2423V41.2423Z" fill="#00BFA5"/>
<path d="M8.67078 21.9152C8.67078 12.9112 15.9961 5.58594 25 5.58594C34.0039 5.58594 41.3292 12.9112 41.3292 21.9152H8.67078Z" fill="#5C586F"/>
<path d="M38.5331 26.5354C40.6435 26.5354 42.3544 24.8245 42.3544 22.7141C42.3544 20.6036 40.6435 18.8927 38.5331 18.8927C36.4226 18.8927 34.7117 20.6036 34.7117 22.7141C34.7117 24.8245 36.4226 26.5354 38.5331 26.5354Z" fill="#FFBD86"/>
<path d="M13.7534 20.6059C13.7534 14.8519 16.2193 9.71587 20.0793 6.34415C13.4727 8.43665 8.67078 14.6254 8.67078 21.9152H13.7971C13.7688 21.4826 13.7534 21.0462 13.7534 20.6059V20.6059Z" fill="#4F4C5F"/>
<path d="M38.1996 18.9186C37.9635 17.8753 37.2271 17.021 36.231 16.631C33.0124 15.371 30.8889 12.2388 30.8889 12.2388C28.0658 17.0208 21.7281 17.136 21.7281 17.136C23.6295 15.2347 22.4771 12.2388 22.4771 12.2388C20.2813 14.7672 16.9506 15.7396 14.5277 16.1098C13.2735 16.3014 12.2445 17.2087 11.9189 18.4349C11.6168 19.5728 11.4592 20.7696 11.4672 22.0045C11.5148 29.3767 17.5325 35.3971 24.9047 35.4479C32.4225 35.4996 38.533 29.421 38.533 21.9152C38.533 20.8853 38.4177 19.8824 38.1996 18.9186V18.9186Z" fill="#FED2A4"/>
<path d="M19.3708 34.215C15.9198 30.8514 13.7534 25.9999 13.7534 20.6059C13.7534 19.0741 13.9292 17.5865 14.2584 16.1638C13.1281 16.4361 12.2209 17.2978 11.919 18.4349C11.8773 18.5921 11.8389 18.7507 11.8027 18.9101C11.6991 18.8991 11.588 18.8928 11.467 18.8928C9.35649 18.8928 7.64571 20.6036 7.64571 22.7141C7.64571 24.8246 9.35656 26.5354 11.467 26.5354C11.7843 26.5354 12.0387 26.496 12.2434 26.4231C13.4719 29.8747 16.0673 32.6921 19.3708 34.215V34.215Z" fill="#FFBD86"/>
<path d="M16.7847 26.9808C18.4588 26.9808 19.816 25.9 19.816 24.5668C19.816 23.2336 18.4588 22.1528 16.7847 22.1528C15.1105 22.1528 13.7534 23.2336 13.7534 24.5668C13.7534 25.9 15.1105 26.9808 16.7847 26.9808Z" fill="#FF9DB0"/>
<path d="M33.2153 26.9808C34.8895 26.9808 36.2466 25.9 36.2466 24.5668C36.2466 23.2336 34.8895 22.1528 33.2153 22.1528C31.5412 22.1528 30.184 23.2336 30.184 24.5668C30.184 25.9 31.5412 26.9808 33.2153 26.9808Z" fill="#FF9DB0"/>
<path d="M17.9648 21.0038V22.243C17.9648 22.5665 18.2271 22.8289 18.5507 22.8289C18.8744 22.8289 19.1366 22.5665 19.1366 22.243V21.0038C19.1366 20.6802 18.8744 20.4179 18.5507 20.4179C18.2271 20.4179 17.9648 20.6802 17.9648 21.0038Z" fill="black"/>
<path d="M31.4481 20.4179C31.1245 20.4179 30.8622 20.6802 30.8622 21.0038V22.243C30.8622 22.5665 31.1245 22.8289 31.4481 22.8289C31.7717 22.8289 32.0341 22.5665 32.0341 22.243V21.0038C32.0341 20.6802 31.7717 20.4179 31.4481 20.4179Z" fill="black"/>
<path d="M26.2578 21.8212C25.9402 22.1857 25.4815 22.3947 24.9994 22.3947C24.5173 22.3947 24.0586 22.1857 23.7409 21.8212C23.5284 21.5772 23.1583 21.5519 22.9142 21.7644C22.6702 21.977 22.6448 22.3472 22.8574 22.5912C23.3977 23.2112 24.1784 23.5667 24.9994 23.5667C25.8203 23.5667 26.6009 23.2112 27.1413 22.5912C27.3539 22.3472 27.3285 21.9772 27.0845 21.7645C26.8405 21.5519 26.4705 21.5772 26.2578 21.8212Z" fill="black"/>
<path d="M36.273 9.31516C33.1666 6.5325 29.1629 5 24.9995 5C21.6941 5 18.4891 5.95867 15.731 7.77227C15.4606 7.95008 15.3856 8.31336 15.5634 8.58375C15.7411 8.85414 16.1045 8.9293 16.3748 8.75141C18.9413 7.06383 21.9236 6.17188 24.9995 6.17188C28.8739 6.17188 32.5999 7.59812 35.4911 10.188C38.0205 12.4538 39.7395 15.4482 40.4172 18.7282C39.8687 18.4683 39.2424 18.3208 38.6273 18.3078C38.2622 17.3209 37.4803 16.4912 36.4441 16.0854C34.4965 15.3229 32.4777 13.5163 31.3734 11.91C31.1339 11.5567 30.6038 11.5688 30.3837 11.9409C28.845 14.5479 25.9269 15.9529 22.9488 16.4204C23.9203 14.4221 23.0674 12.1428 23.0234 12.0285C22.8663 11.62 22.3253 11.5192 22.0341 11.8547C20.1529 14.021 17.2526 15.1006 14.4386 15.5306C12.928 15.7615 11.7191 16.8638 11.3458 18.3085C10.7559 18.3242 10.1367 18.4653 9.58156 18.7284C10.2644 15.423 12.0034 12.4105 14.565 10.138C14.807 9.9232 14.8291 9.55289 14.6145 9.31078C14.3997 9.06875 14.0294 9.04656 13.7873 9.26133C10.7192 11.9834 8.75047 15.6945 8.22727 19.7295C7.50274 20.5152 7.05914 21.5636 7.05914 22.7141C7.05914 25.2945 9.28133 27.3425 11.8752 27.1013C13.1174 30.2148 15.4409 32.7938 18.373 34.3673C15.9273 36.6159 14.2338 40.1683 14.2338 44.4141C14.2338 44.7377 14.4962 45 14.8198 45H35.1792C35.5029 45 35.7652 44.7377 35.7652 44.4141C35.7652 40.2137 34.1001 36.6498 31.6384 34.3788C32.7095 33.8071 33.7119 33.0938 34.6195 32.2484C34.8563 32.0279 34.8695 31.6571 34.6489 31.4203C34.4284 31.1835 34.0577 31.1703 33.8208 31.3909C31.1387 33.889 27.6642 35.0386 24.2517 34.8408C16.1813 34.3748 10.3699 26.5557 12.4848 18.5852C12.7489 17.5903 13.5857 16.8464 14.6157 16.689C17.3575 16.2698 20.1327 15.2726 22.1634 13.4005C22.3095 14.3227 22.3113 15.7237 21.3133 16.7217C20.9488 17.0863 21.1991 17.7263 21.7383 17.7219C22.608 17.7059 24.0882 17.472 25.4297 17.0381C27.6073 16.3339 29.5763 15.1024 30.9227 13.2524C32.2582 14.8927 34.0548 16.4084 36.017 17.1766C37.4092 17.7216 37.6212 19.0318 37.6258 19.0405C38.4482 22.5249 37.7401 26.5383 35.3265 29.7246C35.1311 29.9826 35.1818 30.3501 35.4398 30.5455C35.6977 30.7408 36.0652 30.6902 36.2606 30.4322C37.0437 29.3982 37.6717 28.2804 38.1377 27.1024C42.1555 27.462 44.4809 22.6673 41.7717 19.7293C41.2521 15.7233 39.3052 12.0312 36.273 9.31516ZM29.5033 35.3002V37.2139H25.5854V36.0218C26.969 35.9655 28.2942 35.708 29.5033 35.3002ZM34.0778 40.6009H30.6752V38.3857H33.2011C33.5636 39.0899 33.8566 39.8287 34.0778 40.6009ZM29.5033 40.6009H25.5854V38.3857H29.5033V40.6009ZM16.7978 38.3858H19.3237V40.6009H15.9211C16.1423 39.8287 16.4353 39.0899 16.7978 38.3858ZM20.4955 38.3858H24.4135V40.6009H20.4955V38.3858ZM20.4955 35.2942C21.7587 35.7234 23.0704 35.9663 24.4135 36.0212V37.2139H20.4955V35.2942ZM24.4135 41.7727V43.8281H20.4955V41.7727H24.4135ZM25.5854 41.7727H29.5033V43.8281H25.5854V41.7727ZM19.3237 35.0901V37.2139H17.4875C18.0642 36.3501 18.6941 35.6418 19.3237 35.0901ZM15.6457 41.7727H19.3237V43.8281H15.4167C15.4436 43.1218 15.5213 42.4368 15.6457 41.7727ZM30.6752 43.8281V41.7727H34.3531C34.4776 42.4368 34.5552 43.1218 34.5821 43.8281H30.6752ZM32.5113 37.2139H30.6752V35.0901C31.2984 35.6362 31.9329 36.3464 32.5113 37.2139ZM11.4716 25.9494C8.52235 25.9494 7.13024 22.3414 9.25828 20.3513C9.30703 20.318 9.94961 19.634 11.0869 19.5016C10.7269 21.5912 10.829 23.8102 11.4716 25.9494ZM38.5363 25.9493C39.1716 23.8112 39.2701 21.572 38.9124 19.5016C40.52 19.6885 41.7677 21.0613 41.7677 22.7141C41.7678 24.4968 40.3184 25.9473 38.5363 25.9493Z" fill="black"/>
</svg>
