<svg width="14" height="18" viewBox="0 0 16 24" fill="none" xmlns="http://www.w3.org/2000/svg">
<g clip-path="url(#clip0)">
<mask id="path-1-inside-1" fill="white">
<path d="M3.43625 12.0003L15.2636 1.86234C15.7607 1.43631 15.7607 0.745616 15.2636 0.319579C14.7666 -0.106457 13.9608 -0.106457 13.4637 0.319652L0.736456 11.229C0.497693 11.4335 0.363632 11.711 0.363632 12.0003C0.363632 12.2897 0.497777 12.5671 0.736456 12.7717L13.4637 23.6805C13.7122 23.8935 14.0379 24 14.3636 24C14.6894 24 15.0151 23.8935 15.2636 23.6805C15.7607 23.2544 15.7607 22.5637 15.2636 22.1377L3.43625 12.0003Z"/>
</mask>
<path d="M3.43625 12.0003L15.2636 1.86234C15.7607 1.43631 15.7607 0.745616 15.2636 0.319579C14.7666 -0.106457 13.9608 -0.106457 13.4637 0.319652L0.736456 11.229C0.497693 11.4335 0.363632 11.711 0.363632 12.0003C0.363632 12.2897 0.497777 12.5671 0.736456 12.7717L13.4637 23.6805C13.7122 23.8935 14.0379 24 14.3636 24C14.6894 24 15.0151 23.8935 15.2636 23.6805C15.7607 23.2544 15.7607 22.5637 15.2636 22.1377L3.43625 12.0003Z" fill="white"/>
<path d="M3.43625 12.0003L0.833052 8.96331L-2.71014 12.0004L0.833138 15.0374L3.43625 12.0003ZM15.2636 1.86234L12.6605 -1.17468L12.6604 -1.17466L15.2636 1.86234ZM13.4637 0.319652L16.0669 3.35664L16.0672 3.35646L13.4637 0.319652ZM0.736456 11.229L3.33856 14.267L3.33966 14.266L0.736456 11.229ZM0.736456 12.7717L-1.86671 15.8088L-1.86667 15.8088L0.736456 12.7717ZM13.4637 23.6805L16.0674 20.6439L16.0669 20.6435L13.4637 23.6805ZM15.2636 23.6805L12.6605 20.6434L12.6599 20.6439L15.2636 23.6805ZM15.2636 22.1377L17.8668 19.1007L17.8667 19.1006L15.2636 22.1377ZM6.03945 15.0373L17.8668 4.89934L12.6604 -1.17466L0.833052 8.96331L6.03945 15.0373ZM17.8668 4.89937C20.2263 2.87695 20.2263 -0.695028 17.8668 -2.71745L12.6605 3.35661C12.0712 2.85155 11.6364 2.04229 11.6364 1.09096C11.6364 0.139628 12.0712 -0.669626 12.6605 -1.17468L17.8668 4.89937ZM17.8668 -2.71745C15.8718 -4.42747 12.8554 -4.4275 10.8603 -2.71715L16.0672 3.35646C15.5076 3.83615 14.8775 4.00005 14.3638 4.00006C13.85 4.00008 13.22 3.83623 12.6605 3.35661L17.8668 -2.71745ZM10.8605 -2.71734L-1.86675 8.19204L3.33966 14.266L16.0669 3.35664L10.8605 -2.71734ZM-1.86564 8.19109C-2.90533 9.08162 -3.63637 10.4338 -3.63637 12.0003H4.36363C4.36363 12.9882 3.90072 13.7855 3.33855 14.267L-1.86564 8.19109ZM-3.63637 12.0003C-3.63637 13.5675 -2.90484 14.9189 -1.86671 15.8088L3.33962 9.7347C3.90039 10.2154 4.36363 11.0119 4.36363 12.0003H-3.63637ZM-1.86667 15.8088L10.8606 26.7176L16.0669 20.6435L3.33958 9.73466L-1.86667 15.8088ZM10.8601 26.7171C11.9172 27.6235 13.1991 28 14.3636 28V20C14.8767 20 15.5072 20.1636 16.0674 20.6439L10.8601 26.7171ZM14.3636 28C15.5284 28 16.8102 27.6234 17.8673 26.717L12.6599 20.6439C13.22 20.1637 13.8504 20 14.3636 20V28ZM17.8668 26.7175C20.2263 24.6951 20.2263 21.1231 17.8668 19.1007L12.6605 25.1747C12.0712 24.6697 11.6364 23.8604 11.6364 22.9091C11.6364 21.9577 12.0712 21.1485 12.6605 20.6434L17.8668 26.7175ZM17.8667 19.1006L6.03936 8.96323L0.833138 15.0374L12.6605 25.1748L17.8667 19.1006Z" fill="white" mask="url(#path-1-inside-1)"/>
</g>
<defs>
<clipPath id="clip0">
<rect width="16" height="24" fill="white"/>
</clipPath>
</defs>
</svg>
