<svg width="28" height="36" viewBox="0 0 28 33" fill="none" xmlns="http://www.w3.org/2000/svg">
<path d="M26.8796 33H1.03542V28.8434C1.03542 27.134 3.51498 25.7482 6.57357 25.7482H21.3418C24.4004 25.7482 26.88 27.134 26.88 28.8434V33H26.8796Z" fill="#00BFA5"/>
<path d="M26.5066 33H1.02881C0.8226 33 0.655243 32.9067 0.655243 32.7917V28.704C0.655243 26.9108 3.27206 25.452 6.48826 25.452H21.047C24.2634 25.452 26.88 26.9108 26.88 28.704V32.7917C26.8802 32.9067 26.713 33 26.5066 33V33ZM1.40237 32.5835H26.1331V28.704C26.1331 27.1405 23.8515 25.8685 21.0472 25.8685H6.48826C3.68373 25.8685 1.40237 27.1405 1.40237 28.704V32.5835Z" fill="#00BFA5"/>
<path d="M18.8161 25.1383L14.46 27.7526C14.1888 27.9153 13.8111 27.9154 13.5396 27.7529L9.17455 25.1383L6.59178 25.7482L10.3603 29.3271C10.6185 29.5722 11.0794 29.6139 11.4024 29.4211L13.9952 27.8747L16.5928 29.4217C16.916 29.6142 17.3766 29.5724 17.6345 29.3274L21.4035 25.7482L18.8161 25.1383Z" fill="#00BFA5"/>
<path d="M17.0519 29.8402C16.8113 29.8402 16.5691 29.7803 16.3623 29.6573L13.9956 28.2478L11.6334 29.6566C11.1452 29.9478 10.4569 29.8858 10.0665 29.5152L6.2979 25.9363C6.21731 25.8597 6.19107 25.757 6.22795 25.6621C6.26483 25.5673 6.35987 25.4932 6.48153 25.4646L9.0643 24.8546C9.18139 24.8269 9.30875 24.845 9.40627 24.9032L13.7715 27.5178C13.9059 27.5984 14.0935 27.5984 14.2283 27.5177L18.5844 24.9034C18.6816 24.8449 18.8089 24.8269 18.9264 24.8545L21.5139 25.4645C21.6356 25.4931 21.7308 25.5673 21.7677 25.662C21.8046 25.7567 21.7783 25.8595 21.6977 25.9362L17.9288 29.5153C17.7035 29.729 17.3794 29.8402 17.0519 29.8402V29.8402ZM14.7512 27.9519L16.8236 29.1862C16.9852 29.2821 17.212 29.2616 17.3409 29.1394L20.7484 25.9034L18.8931 25.4661L14.7512 27.9519ZM7.24684 25.9033L10.6542 29.1391C10.7829 29.2613 11.0101 29.2818 11.1716 29.1856L13.2442 27.9495L9.09794 25.4659L7.24684 25.9033Z" fill="#00BFA5"/>
<path d="M14 24.9037C12.2572 24.9037 10.6162 24.5707 9.17455 23.9844V25.1383L13.5396 27.7529C13.8111 27.9154 14.1888 27.9153 14.46 27.7526L18.8161 25.1383V23.9883C17.3768 24.572 15.739 24.9037 14 24.9037Z" fill="white"/>
<path d="M13.9996 28.1709C13.7555 28.1709 13.5117 28.1099 13.3079 27.9879L8.94263 25.3733C8.84911 25.3173 8.79417 25.2304 8.79417 25.1383V23.9844C8.79417 23.8808 8.86356 23.7847 8.97723 23.731C9.0911 23.6772 9.23271 23.6738 9.35019 23.7217C10.7753 24.3011 12.3833 24.6073 14 24.6073C15.6365 24.6073 17.1977 24.3106 18.6407 23.7254C18.7585 23.6777 18.8998 23.6812 19.0135 23.735C19.1269 23.7887 19.1963 23.8848 19.1963 23.9883V25.1383C19.1963 25.2303 19.1416 25.317 19.0481 25.3732L14.6919 27.9875C14.488 28.1097 14.2437 28.1709 13.9996 28.1709V28.1709ZM9.55454 24.9923L13.7713 27.5178C13.9057 27.5984 14.0933 27.5984 14.2281 27.5177L18.436 24.9923V24.4607C17.0493 24.9455 15.5281 25.1999 14 25.1999C12.4684 25.1999 10.9441 24.9443 9.55454 24.4573V24.9923Z" fill="#00BFA5"/>
<path d="M2.20447 10.0437V13.9711C2.20447 19.0497 7.48557 23.1669 14 23.1669C20.5144 23.1669 25.7955 19.0497 25.7955 13.9711V10.0437H2.20447Z" fill="#00BFA5"/>
<path d="M24.3856 13.8303V13.0722C24.3856 8.64089 19.7358 5.04852 14 5.04852C8.26421 5.04852 3.61439 8.64074 3.61439 13.0722V13.8303C1.811 13.8019 0.380188 14.9218 0.380188 16.2757C0.380188 17.7213 1.999 18.8648 3.88869 18.709C4.96043 22.2589 9.07932 24.9037 14 24.9037C18.9209 24.9037 23.0396 22.2587 24.1113 18.709C25.9984 18.8646 27.6198 17.7232 27.6198 16.2757C27.6196 14.9212 26.1879 13.8017 24.3856 13.8303V13.8303Z" fill="white"/>
<path d="M14.0023 21.3421C13.2653 21.3421 12.5798 21.1356 12.1211 20.7754C11.775 20.5032 11.5843 20.1603 11.5843 19.8098C11.5843 19.6462 11.7546 19.5134 11.9645 19.5134C12.1744 19.5134 12.3447 19.6462 12.3447 19.8098C12.3447 20.0056 12.454 20.1953 12.661 20.358C12.9777 20.6067 13.4664 20.7494 14.0023 20.7494C14.5336 20.7494 15.02 20.6067 15.3365 20.3578C15.5435 20.1951 15.6528 20.0056 15.6528 19.8098C15.6528 19.6462 15.8232 19.5134 16.033 19.5134C16.2429 19.5134 16.4132 19.6462 16.4132 19.8098C16.4132 20.1601 16.2225 20.5031 15.8764 20.7753C15.4179 21.1356 14.7347 21.3421 14.0023 21.3421V21.3421Z" fill="#00BFA5"/>
<path d="M19.3917 18.1173C18.5861 18.1173 17.9332 17.6083 17.9332 16.9802V15.7674C17.9332 15.1394 18.5861 14.6303 19.3917 14.6303C20.1973 14.6303 20.8503 15.1394 20.8503 15.7674V16.9802C20.8503 17.6083 20.1973 18.1173 19.3917 18.1173Z" fill="#00BFA5"/>
<path d="M8.6056 18.1173C7.8 18.1173 7.14703 17.6083 7.14703 16.9802V15.7674C7.14703 15.1394 7.8 14.6303 8.6056 14.6303C9.41121 14.6303 10.0642 15.1394 10.0642 15.7674V16.9802C10.0642 17.6083 9.41102 18.1173 8.6056 18.1173Z" fill="#00BFA5"/>
<path d="M14 25.2001C9.07855 25.2001 4.84599 22.671 3.59652 19.0191C2.70956 19.0299 1.83095 18.7757 1.16507 18.3086C0.424472 17.7893 0 17.0484 0 16.2757C0 15.5361 0.374859 14.8425 1.05538 14.3225C1.64885 13.8692 2.41149 13.5984 3.2342 13.5437V13.0723C3.2342 8.48455 8.06365 4.75229 14 4.75229C19.9363 4.75229 24.7658 8.4847 24.7658 13.0723V13.5439C25.5887 13.5986 26.3512 13.8695 26.9446 14.3228C27.6251 14.8427 28 15.5362 28 16.2757C28 17.0482 27.5755 17.7892 26.8355 18.3083C26.1806 18.7677 25.3271 19.0192 24.4487 19.0192C24.4335 19.0192 24.4185 19.0192 24.4035 19.0191C23.1538 22.671 18.9215 25.2001 14 25.2001V25.2001ZM3.88926 18.4125C4.06357 18.4125 4.21811 18.506 4.25898 18.641C5.31931 22.1538 9.32491 24.6072 14 24.6072C18.6749 24.6072 22.6805 22.1538 23.741 18.641C23.7847 18.4956 23.963 18.3977 24.151 18.4141C24.9447 18.4792 25.7383 18.2805 26.3266 17.8676C26.9068 17.4607 27.2394 16.8803 27.2394 16.2755C27.2394 15.6967 26.9458 15.1534 26.4122 14.746C25.8736 14.3345 25.1648 14.1171 24.393 14.1266C24.3006 14.1279 24.1923 14.0977 24.1195 14.042C24.0463 13.9862 24.0052 13.9099 24.0052 13.8303V13.0723C24.0052 8.81147 19.5168 5.34506 13.9998 5.34506C8.4828 5.34506 3.99457 8.81132 3.99457 13.0722V13.8302C3.99457 13.9099 3.95332 13.9861 3.88032 14.042C3.80733 14.0975 3.70753 14.1284 3.60659 14.1266C2.84699 14.1158 2.12598 14.3345 1.58764 14.7459C1.05424 15.1534 0.760363 15.6967 0.760363 16.2757C0.760363 16.8805 1.09321 17.461 1.67356 17.868C2.26189 18.2806 3.054 18.4793 3.84877 18.4144C3.86227 18.4131 3.87576 18.4125 3.88926 18.4125V18.4125Z" fill="#00BFA5"/>
<path d="M25.7978 10.0437V8.38851C25.7978 3.91928 21.1504 0.296234 15.4177 0.296234H12.5869C6.8541 0.296234 2.20676 3.91928 2.20676 8.38851V10.0437H25.7978Z" fill="#00BFA5"/>
<path d="M25.7978 10.3401H2.20677C1.99691 10.3401 1.82658 10.2073 1.82658 10.0437V8.38852C1.82658 3.76309 6.65375 0 12.5869 0H15.4179C21.351 0 26.178 3.76309 26.178 8.38852V10.0437C26.178 10.2074 26.0079 10.3401 25.7978 10.3401ZM2.58695 9.74731H25.4176V8.38852C25.4176 4.08986 20.9317 0.592776 15.4179 0.592776H12.5869C7.07309 0.592627 2.58695 4.08986 2.58695 8.38852V9.74731Z" fill="#00BFA5"/>
<path d="M2.20676 10.0437C2.5339 11.6937 4.35554 12.9111 6.49711 12.9111H21.5027C23.6442 12.9111 25.4659 11.6937 25.793 10.0437H2.20676Z" fill="#FAFAFA"/>
<path d="M21.5029 13.2075H6.49711C4.15177 13.2075 2.18946 11.896 1.83095 10.0891C1.81403 10.0035 1.84577 9.91656 1.91801 9.85091C1.99024 9.78526 2.09574 9.74747 2.20676 9.74747H25.7932C25.9042 9.74747 26.0097 9.78526 26.082 9.85091C26.1542 9.91656 26.186 10.0035 26.169 10.0891C25.8105 11.896 23.8482 13.2075 21.5029 13.2075V13.2075ZM2.67514 10.3401C3.1382 11.677 4.68079 12.6147 6.49711 12.6147H21.5027C23.3192 12.6147 24.8618 11.6768 25.3247 10.3401H2.67514Z" fill="#00BFA5"/>
</svg>
