<svg width="35" height="35" viewBox="0 0 35 35" fill="none" xmlns="http://www.w3.org/2000/svg">
<g clip-path="url(#clip0)">
<path d="M19.3253 24.3992C18.1226 24.9122 16.773 24.9027 15.5804 24.3796C15.4197 24.3091 15.4949 24.0669 15.6666 24.1027C16.8489 24.3491 18.0691 24.3531 19.2419 24.1215C19.4144 24.0874 19.487 24.3304 19.3253 24.3992ZM23.2911 24.9511C22.8002 24.9511 22.3322 24.8076 21.9344 24.5405C21.7224 24.3982 21.4419 24.4192 21.2444 24.5812C19.0179 26.4061 15.9232 26.388 13.7261 24.5985C13.5303 24.439 13.2537 24.4176 13.0424 24.556C12.6509 24.8123 12.1915 24.9511 11.7089 24.9511C8.38214 24.9511 5.68883 27.6444 5.68883 30.9711V34.4168C5.68883 34.7389 5.94999 35.0001 6.2721 35.0001H28.7279C29.05 35.0001 29.3112 34.7389 29.3112 34.4168V30.9711C29.3112 27.6443 26.6178 24.9511 23.2911 24.9511V24.9511ZM23.4056 33.1774H21.6558C21.3337 33.1774 21.0725 32.9162 21.0725 32.5941C21.0725 32.272 21.3337 32.0108 21.6558 32.0108H23.4056C23.7277 32.0108 23.9889 32.272 23.9889 32.5941C23.9889 32.9162 23.7277 33.1774 23.4056 33.1774ZM28.3101 5.89137C27.1904 4.07354 25.476 2.83555 23.512 2.34656C23.8398 2.07198 23.7719 1.55528 23.3917 1.3725C21.3933 0.410838 19.1193 -0.0732743 16.9853 0.00911223C11.1374 0.235785 7.75316 4.61182 7.87608 10.2834C7.87608 13.5534 7.87513 13.3369 7.87834 13.4114C7.89671 13.8291 8.52657 13.8054 8.52307 13.3873C8.51243 12.1096 8.42683 11.165 9.04109 9.89404C10.0862 7.73034 12.5338 6.44481 15.0648 7.05134C18.2238 7.80966 18.8719 9.2757 21.655 9.16204C21.8752 9.14235 22.8689 8.97758 24.233 8.59627C25.2709 8.30617 26.343 9.01644 26.4473 10.1288C26.4699 10.4686 26.4688 9.93363 26.4678 13.5102C26.4677 13.9175 27.0706 13.9515 27.1118 13.5463C27.1287 13.38 27.1239 13.6753 27.1239 9.32834C27.1239 8.31492 27.5154 7.35909 28.2263 6.63802C28.4239 6.43709 28.4481 6.1141 28.3101 5.89137V5.89137ZM25.2852 10.2294C25.2477 9.85511 24.8898 9.62413 24.5466 9.71979C23.0075 10.1499 21.9204 10.3176 21.7199 10.3264C18.5737 10.4691 17.756 8.89745 14.7929 8.1858C12.1391 7.54945 9.66394 9.56646 9.68057 12.2373C9.68611 13.1389 9.69879 14.0538 9.69879 15.3243C9.69879 19.6259 13.1984 23.1255 17.5 23.1255C21.8016 23.1255 25.3012 19.6259 25.3012 15.3243C25.3012 10.1901 25.3079 10.4793 25.2852 10.2294Z" fill="#00BFA5"/>
</g>
<defs>
<clipPath id="clip0">
<rect width="35" height="35" fill="white"/>
</clipPath>
</defs>
</svg>
