<svg width="31" height="30" viewBox="0 0 40 40" fill="none" xmlns="http://www.w3.org/2000/svg">
<path d="M10 0C9.21102 0 8.57143 0.639592 8.57143 1.4286V4.28571H11.4286V1.4286C11.4286 0.639592 10.789 0 10 0Z" fill="#00BFA5"/>
<path d="M30 0C29.211 0 28.5714 0.639592 28.5714 1.4286V4.28571H31.4285V1.4286C31.4286 0.639592 30.789 0 30 0Z" fill="#00BFA5"/>
<path d="M35.7143 4.28571H31.4286V10C31.4286 10.789 30.789 11.4286 30 11.4286C29.211 11.4286 28.5714 10.789 28.5714 10V4.28571H11.4285V10C11.4285 10.789 10.7889 11.4286 9.99994 11.4286C9.21093 11.4286 8.57134 10.789 8.57134 10V4.28571H4.28571C1.91878 4.28571 0 6.20448 0 8.57142V35.7143C0 38.0812 1.91878 40 4.28571 40H35.7143C38.0812 40 40 38.0812 40 35.7143V8.57142C40 6.20448 38.0812 4.28571 35.7143 4.28571ZM37.1428 35.7143C37.1428 36.5033 36.5032 37.1429 35.7142 37.1429H4.28571C3.49671 37.1429 2.85711 36.5033 2.85711 35.7143V17.1428H37.1428V35.7143Z" fill="#00BFA5"/>
<path d="M29.5821 20.4192C29.0243 19.861 28.1196 19.8607 27.5614 20.4185L17.1428 30.8371L12.4385 26.1328C11.8803 25.575 10.9756 25.5753 10.4178 26.1335C9.85998 26.6918 9.86032 27.5965 10.4185 28.1543L16.1329 33.8686C16.6908 34.4263 17.595 34.4263 18.1528 33.8686L29.5814 22.44C30.1396 21.8821 30.1399 20.9775 29.5821 20.4192Z" fill="#00BFA5"/>
</svg>
