<svg width="30" height="30" viewBox="0 0 40 40" fill="none" xmlns="http://www.w3.org/2000/svg">
<path d="M34.2258 21.3532H31.1324C31.4477 22.2165 31.62 23.1481 31.62 24.1191V35.8106C31.62 36.2154 31.5495 36.604 31.4213 36.9654H36.5355C38.4459 36.9654 40 35.4112 40 33.5009V27.1273C40.0001 23.9435 37.4098 21.3532 34.2258 21.3532Z" fill="#00BFA5"/>
<path d="M8.38009 24.1192C8.38009 23.1481 8.55236 22.2165 8.86767 21.3532H5.77423C2.59032 21.3532 0 23.9436 0 27.1275V33.501C0 35.4113 1.55414 36.9655 3.46454 36.9655H8.57877C8.45056 36.604 8.38009 36.2155 8.38009 35.8106V24.1192V24.1192Z" fill="#00BFA5"/>
<path d="M23.5361 18.345H16.464C13.2801 18.345 10.6898 20.9353 10.6898 24.1192V35.8106C10.6898 36.4484 11.2068 36.9655 11.8446 36.9655H28.1554C28.7933 36.9655 29.3103 36.4484 29.3103 35.8106V24.1192C29.3103 20.9353 26.72 18.345 23.5361 18.345Z" fill="#00BFA5"/>
<path d="M20 3.03439C16.171 3.03439 13.0558 6.14956 13.0558 9.9787C13.0558 12.576 14.4893 14.8443 16.6064 16.0353C17.6105 16.6001 18.7682 16.9229 20 16.9229C21.2319 16.9229 22.3896 16.6001 23.3937 16.0353C25.5108 14.8443 26.9443 12.5759 26.9443 9.9787C26.9443 6.14963 23.8291 3.03439 20 3.03439Z" fill="#00BFA5"/>
<path d="M7.8061 9.50696C4.94242 9.50696 2.61273 11.8367 2.61273 14.7003C2.61273 17.564 4.94242 19.8937 7.8061 19.8937C8.5325 19.8937 9.22422 19.7432 9.85258 19.4728C10.939 19.005 11.8348 18.1771 12.3891 17.1399C12.7781 16.4121 12.9995 15.5817 12.9995 14.7003C12.9995 11.8367 10.6698 9.50696 7.8061 9.50696Z" fill="#00BFA5"/>
<path d="M32.194 9.50696C29.3303 9.50696 27.0006 11.8367 27.0006 14.7003C27.0006 15.5817 27.2219 16.4121 27.611 17.1399C28.1653 18.1771 29.0611 19.0051 30.1475 19.4728C30.7758 19.7432 31.4676 19.8937 32.194 19.8937C35.0576 19.8937 37.3873 17.564 37.3873 14.7003C37.3873 11.8367 35.0576 9.50696 32.194 9.50696Z" fill="#00BFA5"/>
</svg>
