<svg width="29" height="30" viewBox="0 0 40 40" fill="none" xmlns="http://www.w3.org/2000/svg">
<path d="M35.0992 5.07812L32.9231 0.647812C32.7247 0.250781 32.3189 0 31.875 0H8.12501C7.6811 0 7.27532 0.250781 7.07688 0.647812L4.90079 5.07812H35.0992Z" fill="#00BFA5"/>
<path d="M13.1462 7.42188H4.90079L11.3234 20.2664C13.1568 18.6302 15.4529 17.5021 17.9889 17.1079L13.1462 7.42188Z" fill="#00BFA5"/>
<path d="M26.8538 7.42188L22.0106 17.1088C24.5467 17.5028 26.8434 18.6296 28.677 20.2658L35.0992 7.42188H26.8538Z" fill="#00BFA5"/>
<path d="M27.9358 24.0512C26.2213 21.7698 23.5475 20.2493 20.5189 20.0924L20.5184 20.0934C17.0724 19.9163 13.8913 21.5155 11.9486 24.2088C11.9481 24.2084 11.9476 24.2079 11.947 24.2075C10.7435 25.8807 10.0781 27.9037 10.0781 30C10.0781 35.4709 14.5291 40 20 40C25.4709 40 29.9219 35.4709 29.9219 30C29.9219 27.8371 29.2138 25.7523 27.937 24.0493C27.9366 24.0499 27.9362 24.0505 27.9358 24.0512V24.0512ZM21.1719 33.75C21.1719 34.3972 20.6472 34.9219 20 34.9219C19.3528 34.9219 18.8281 34.3972 18.8281 33.75V27.4219H17.7265C17.0793 27.4219 16.5546 26.8972 16.5546 26.25C16.5546 25.6028 17.0793 25.0781 17.7265 25.0781H20C20.6472 25.0781 21.1719 25.6028 21.1719 26.25V33.75Z" fill="#00BFA5"/>
</svg>
