<svg width="45" height="44" viewBox="0 0 45 44" fill="none" xmlns="http://www.w3.org/2000/svg">
<ellipse cx="22.5" cy="22" rx="22.5" ry="22" fill="white"/>
<path d="M32.2 38.5H29.8C29.3582 38.5 29 38.1642 29 37.75C29 37.3358 29.3582 37 29.8 37H32.2C32.6418 37 33 37.3358 33 37.75C33 38.1642 32.6419 38.5 32.2 38.5Z" fill="white"/>
<path d="M37.6407 37.13L35.5 40C35.5 40.3619 33.5 40 36.8802 41L13.5881 40.3449C16.9683 38.8449 10.5 38.8619 10.5 38.5L8.35927 37.13C8.35927 33.7571 11.5336 31.0246 15.4505 31.0237C16.8347 31.0229 18.0535 30.4096 18.7551 29.4794C19.46 28.5463 19.3873 27.735 19.3873 27.0793L19.4016 27.049C15.9886 25.8321 13.5881 22.9358 13.5881 19.5563V19.3C12.2329 19.3 11.2114 18.3776 11.2114 17.2905V13.8873C11.1809 12.7024 11.2437 8.52375 14.7479 5.61432C18.8226 2.23158 25.2798 2.50836 29.9572 4.31805C30.1093 4.37701 30.1046 4.56453 29.9505 4.6194L28.7308 5.05176C28.5483 5.11645 28.5872 5.34819 28.7831 5.3662L29.3754 5.42107C32.2113 5.68229 34.8457 7.00885 36.479 9.21651C36.5227 9.27629 36.5103 9.36718 36.4543 9.41877C35.4465 10.3367 34.8837 11.5552 34.8837 12.822V17.2905C34.8837 18.4001 33.8389 19.3 32.5507 19.3H32.4119V19.5563C32.4119 22.9358 30.0114 25.8321 26.5984 27.049L26.6126 27.0793C26.6126 27.7161 26.534 28.5385 27.2449 29.4794C27.9465 30.4096 29.1653 31.0229 30.5495 31.0237C34.4663 31.0246 37.6407 33.7571 37.6407 37.13Z" fill="#FFDFBA"/>
<path d="M36.4786 9.21697C36.5227 9.27666 36.5103 9.36707 36.454 9.41849C35.4465 10.3371 34.8837 11.5552 34.8837 12.822V17.2906C34.8837 18.305 33.9964 19.3001 32.4119 19.3001V14.2419C32.4119 12.0711 30.3689 10.3114 27.8486 10.3114H18.1514C15.6312 10.3114 13.5881 12.0711 13.5881 14.2419V19.3001C12.2329 19.3001 11.2114 18.3776 11.2114 17.2906V13.8874C11.1809 12.7025 11.2437 8.5238 14.748 5.61436C18.8224 2.23155 25.2802 2.50849 29.9568 4.31834C30.1089 4.37722 30.1049 4.56482 29.9506 4.61952L28.7308 5.05205C28.5485 5.11674 28.5869 5.34823 28.7829 5.36633L29.3754 5.42111C32.2118 5.68208 34.8455 7.00865 36.4786 9.21697V9.21697Z" fill="#42434D"/>
<path d="M20.8689 24.7912C22.4164 25.625 21.1961 27.67 19.5022 27.0843C16.0194 25.8803 13.5881 22.9569 13.5881 19.5563V14.2419C13.5881 13.4161 13.8838 12.6498 14.3888 12.0172C15.0081 11.2415 16.4402 11.5842 16.4402 12.6042V17.9186C16.4402 20.9083 18.2648 23.3878 20.8689 24.7912Z" fill="#FFF3E4"/>
<path d="M26.7201 28.4238C24.3778 29.2683 21.8038 29.3338 19.2799 28.4238C19.4088 27.9631 19.3874 27.6647 19.3874 27.0792L19.4016 27.049C21.6911 27.8675 24.3044 27.8691 26.5984 27.049L26.6126 27.0792C26.6126 27.665 26.5912 27.9633 26.7201 28.4238Z" fill="#FFD6A6"/>
<path d="M29.9505 4.6194C28.8327 5.01565 28.6734 5.10302 28.2861 5.05127C22.0425 4.21766 16.5645 6.44277 14.7042 11.6666V11.6674C14.0083 12.3569 13.5881 13.2576 13.5881 14.2419V17.3145C13.5881 18.6401 11.2114 18.7324 11.2114 17.2905V13.8873C11.1809 12.7024 11.2437 8.52375 14.748 5.61432C18.8226 2.23158 25.2798 2.50836 29.9572 4.31805C30.1093 4.37701 30.1046 4.56453 29.9505 4.6194V4.6194Z" fill="#4D4E59"/>
<path d="M37.5 36.969V39C37.5 39.3768 34.416 41.5 34 41.5L29 43.5L22.5 44L18.7959 43.5L16.5 43L13.5 42L11.5 41C9.5 39.5 9 39 8 38.5L8.5 36.969C8.5 33.4558 11.6443 30.6099 15.5226 30.6086C16.8939 30.6082 18.1013 29.9686 18.7959 29C21.2208 30.8766 24.7778 30.8777 27.2041 29C27.8986 29.9686 29.1061 30.6082 30.4774 30.6086C34.3557 30.6099 37.5 33.4558 37.5 36.969Z" fill="#6ED9CA"/>
</svg>
