<svg width="33" height="32" viewBox="0 0 33 32" fill="none" xmlns="http://www.w3.org/2000/svg">
<g clip-path="url(#clip0)">
<path d="M5.86497 28.2472V31.0598C5.86497 31.5779 6.29739 31.9973 6.83177 31.9973H26.168C26.7024 31.9973 27.1348 31.5779 27.1348 31.0598V28.2472H5.86497Z" fill="#00BFA5"/>
<path d="M32.9715 14.6868L31.2324 7.52269C31.0474 6.76063 30.5659 6.09181 29.9116 5.68749L20.8652 0.138931C20.449 -0.119136 19.9191 0.017761 19.6473 0.328451C19.6331 0.344974 18.1575 1.98774 16.5005 1.98774C14.8341 1.98774 13.3659 0.34305 13.3517 0.326527C13.0288 -0.041497 12.4748 -0.0708937 12.1356 0.138931L3.08938 5.68742C2.43512 6.09181 1.95359 6.76057 1.76855 7.52369L0.0294715 14.6868C-0.0696574 15.0941 0.0908308 15.5228 0.430757 15.756L5.86551 19.4421V28.0007H27.1354V19.4421L32.5702 15.756C32.9101 15.5227 33.0706 15.0941 32.9715 14.6868ZM16.9951 5.92751C15.1474 6.2291 13.6475 4.80406 13.6074 3.05286C14.3909 3.54371 15.3834 3.97849 16.5004 3.97849C17.5969 3.97849 18.5732 3.55931 19.3505 3.0796C19.2209 4.51016 18.2716 5.7139 16.9951 5.92751ZM22.3013 11.9417H20.3677C19.8333 11.9417 19.4009 11.4965 19.4009 10.9463C19.4009 10.3961 19.8333 9.95095 20.3677 9.95095H22.3013C22.8357 9.95095 23.2681 10.3961 23.2681 10.9463C23.2681 11.4965 22.8357 11.9417 22.3013 11.9417Z" fill="#00BFA5"/>
</g>
<defs>
<clipPath id="clip0">
<rect width="33" height="32" fill="white"/>
</clipPath>
</defs>
</svg>
