<svg width="37" height="34" viewBox="0 0 37 34" fill="none" xmlns="http://www.w3.org/2000/svg">
<path d="M30.5481 2.83336H26.2084V2.15761C26.2084 0.967606 25.1554 0 23.8604 0H13.1396C11.8446 0 10.7916 0.967606 10.7916 2.15761V2.83336H6.45187C4.59414 2.83336 3.08335 4.22171 3.08335 5.92875V30.9046C3.08335 32.6116 4.59414 34 6.45187 34H30.5481C32.4059 34 33.9166 32.6116 33.9166 30.9046V5.92875C33.9166 4.22164 32.4059 2.83336 30.5481 2.83336ZM10.7916 26.9166C9.94064 26.9166 9.25 26.282 9.25 25.5C9.25 24.718 9.94064 24.0834 10.7916 24.0834C11.6426 24.0834 12.3333 24.718 12.3333 25.5C12.3333 26.282 11.6426 26.9166 10.7916 26.9166ZM10.7916 21.25C9.94064 21.25 9.25 20.6154 9.25 19.8334C9.25 19.0514 9.94064 18.4167 10.7916 18.4167C11.6426 18.4167 12.3333 19.0514 12.3333 19.8334C12.3333 20.6154 11.6426 21.25 10.7916 21.25ZM10.7916 15.5834C9.94064 15.5834 9.25 14.9487 9.25 14.1667C9.25 13.3847 9.94064 12.75 10.7916 12.75C11.6426 12.75 12.3333 13.3846 12.3333 14.1666C12.3333 14.9486 11.6426 15.5834 10.7916 15.5834ZM13.875 2.83336H23.125V5.66671H13.875V2.83336ZM26.2084 26.9166H16.9584C16.1074 26.9166 15.4167 26.282 15.4167 25.5C15.4167 24.718 16.1074 24.0834 16.9584 24.0834H26.2084C27.0594 24.0834 27.75 24.718 27.75 25.5C27.75 26.282 27.0594 26.9166 26.2084 26.9166ZM26.2084 21.25H16.9584C16.1074 21.25 15.4167 20.6154 15.4167 19.8334C15.4167 19.0514 16.1074 18.4167 16.9584 18.4167H26.2084C27.0594 18.4167 27.75 19.0514 27.75 19.8334C27.75 20.6154 27.0594 21.25 26.2084 21.25ZM26.2084 15.5834H16.9584C16.1074 15.5834 15.4167 14.9487 15.4167 14.1667C15.4167 13.3847 16.1074 12.75 16.9584 12.75H26.2084C27.0594 12.75 27.75 13.3846 27.75 14.1666C27.75 14.9486 27.0594 15.5834 26.2084 15.5834Z" fill="#00BFA5"/>
</svg>
