<svg width="40" height="40" viewBox="0 0 40 40" fill="none" xmlns="http://www.w3.org/2000/svg">
<g clip-path="url(#clip0)">
<path d="M7.10906 35.309V38.8247C7.10906 39.4724 7.6332 39.9966 8.28094 39.9966H31.7188C32.3666 39.9966 32.8907 39.4724 32.8907 38.8247V35.309H7.10906Z" fill="#00BFA5"/>
<path d="M39.9654 18.3577L37.8574 9.40251C37.6331 8.44993 37.0494 7.6139 36.2564 7.1085L25.2911 0.172802C24.7865 -0.149782 24.1442 0.0213392 23.8148 0.409702C23.7976 0.430356 22.009 2.48382 20.0005 2.48382C17.9806 2.48382 16.2009 0.42795 16.1837 0.407296C15.7923 -0.0527333 15.1208 -0.0894793 14.7098 0.172802L3.7446 7.10841C2.95155 7.6139 2.36788 8.44985 2.14359 9.40375L0.035617 18.3577C-0.0845392 18.8668 0.109992 19.4026 0.522023 19.6942L7.1096 24.3018V35H32.8913V24.3018L39.479 19.6942C39.8909 19.4025 40.0855 18.8667 39.9654 18.3577ZM20.6001 7.40852C18.3604 7.78552 16.5423 6.00421 16.4937 3.81521C17.4434 4.42878 18.6465 4.97225 20.0004 4.97225C21.3294 4.97225 22.5129 4.44827 23.455 3.84864C23.298 5.63683 22.1473 7.14151 20.6001 7.40852ZM27.0318 14.9263H24.688C24.0402 14.9263 23.5161 14.3698 23.5161 13.682C23.5161 12.9943 24.0402 12.4378 24.688 12.4378H27.0318C27.6795 12.4378 28.2037 12.9943 28.2037 13.682C28.2037 14.3698 27.6795 14.9263 27.0318 14.9263Z" fill="#00BFA5"/>
</g>
<defs>
<clipPath id="clip0">
<rect width="40" height="40" fill="white"/>
</clipPath>
</defs>
</svg>
