<svg width="45" height="42" viewBox="0 0 45 42" fill="none" xmlns="http://www.w3.org/2000/svg">
<g filter="url(#filter0_d)">
<path d="M40.4362 39.0895V41.5956C40.4362 41.8187 40.2333 42 39.9836 42H5.01637C4.76668 42 4.56381 41.8187 4.56381 41.5956V39.0895C4.56381 34.4572 11.4578 32.5828 15.4454 31.8864H29.5555C33.5432 32.5828 40.4362 34.4572 40.4362 39.0895Z" fill="#00BFA5"/>
<path d="M40.4362 39.0895V41.5956C40.4362 41.8187 40.2333 42 39.9836 42H5.01637C4.76668 42 4.56381 41.8187 4.56381 41.5956V40.233H35.9739C36.9112 40.233 37.6704 39.5547 37.6704 38.7171C37.6704 34.7419 32.5949 32.7977 28.6348 31.8864H29.5555C33.5432 32.5828 40.4362 34.4572 40.4362 39.0895Z" fill="#00BFA5"/>
<path d="M12.0483 19.3363C11.6148 19.7234 11.0159 19.9629 10.3544 19.9629C9.03129 19.9629 7.95883 19.005 7.95883 17.8233C7.95883 16.6418 9.03139 15.6838 10.3544 15.6838C10.9436 15.6838 11.4832 15.8739 11.9005 16.189L12.0483 19.3363Z" fill="#FAB684"/>
<path d="M32.9471 19.3319C33.3806 19.7191 33.9796 19.9585 34.6411 19.9585C35.9641 19.9585 37.0366 19.0007 37.0366 17.819C37.0366 16.6374 35.964 15.6795 34.6411 15.6795C34.0518 15.6795 33.5122 15.8695 33.0949 16.1847L32.9471 19.3319Z" fill="#FAB684"/>
<path d="M29.5555 31.8864L29.5546 31.888C29.55 31.9618 29.5436 32.0348 29.5353 32.1079C29.2012 35.3153 26.1792 37.8254 22.5 37.8254C18.7372 37.8254 15.6611 35.1988 15.4454 31.8864C17.0684 31.6025 18.2103 31.5139 18.2103 31.5139H26.7897C26.7897 31.5139 27.9316 31.6025 29.5555 31.8864V31.8864Z" fill="#FFF9E9"/>
<path d="M29.5555 31.8864L29.5546 31.888C29.55 31.9618 29.5436 32.0348 29.5353 32.1079C28.554 31.8511 27.6103 31.6575 26.7897 31.5139C26.7897 31.5139 27.9316 31.6025 29.5555 31.8864Z" fill="#F9EFD9"/>
<path d="M26.7897 31.514C26.7897 33.6304 24.8693 35.3456 22.5 35.3456C20.1307 35.3456 18.2103 33.6304 18.2103 31.514C18.9227 31.514 19.3688 30.9652 19.6157 30.1891C19.7911 29.6387 19.8663 28.9743 19.8663 28.309H25.2778C25.2778 28.9677 25.3273 29.6264 25.4705 30.1736C25.6752 30.9586 26.0718 31.514 26.7897 31.514Z" fill="#FFE8C8"/>
<path d="M25.4706 30.1736C24.5801 30.3343 23.5933 30.4213 22.5 30.4213C21.4416 30.4213 20.4842 30.3393 19.6158 30.1891C19.7911 29.6387 19.8664 28.9743 19.8664 28.309H25.2778C25.2778 28.9677 25.3274 29.6264 25.4706 30.1736Z" fill="#FDD9B4"/>
<path d="M33.5542 11.8576V18.3356C33.5542 21.429 32.5839 27.3074 25.5293 28.6043C24.6233 28.7716 23.6172 28.8627 22.5 28.8627C12.6805 28.8627 11.4458 21.8261 11.4458 18.3356V11.8576H33.5542Z" fill="#FFE8C8"/>
<path d="M33.5542 11.8576V18.3356C33.5542 21.429 32.5839 27.3074 25.5293 28.6043C30.5047 26.5863 31.0757 21.712 31.0757 18.9919C31.0757 18.4882 30.658 18.0633 30.099 17.9993C28.3355 17.7991 26.7181 17.0641 25.5036 15.9444C25.2135 15.6762 24.7766 15.5761 24.3782 15.6877C23.6383 15.8952 22.8617 16.001 22.064 16.001C21.3067 16.001 20.5668 15.905 19.859 15.7172C19.4588 15.6106 19.0255 15.7147 18.7373 15.9838C17.3998 17.2315 15.5317 17.9689 13.5085 17.9689C12.7916 17.9689 12.0994 17.8754 11.4458 17.7007V11.8576H33.5542Z" fill="#FDD9B4"/>
<path d="M24.9428 22.8128C24.5912 22.683 24.1889 22.8327 24.0438 23.1468C23.7852 23.707 23.1791 24.069 22.5 24.069C21.8209 24.069 21.2148 23.707 20.9563 23.1468C20.8111 22.8327 20.4087 22.6833 20.0572 22.8128C19.7057 22.9424 19.5384 23.3021 19.6834 23.6161C20.1556 24.6387 21.2612 25.2994 22.5001 25.2994C23.739 25.2994 24.8446 24.6388 25.3168 23.6161C25.4617 23.3021 25.2943 22.9424 24.9428 22.8128Z" fill="#FAB684"/>
<path d="M21.0827 20.9056C21.4342 21.0351 21.8367 20.8857 21.9817 20.5716C22.0686 20.3836 22.272 20.2622 22.5 20.2622C22.728 20.2622 22.9315 20.3836 23.0183 20.5716C23.1279 20.809 23.3845 20.9523 23.655 20.9523C23.7425 20.9523 23.8315 20.9373 23.9174 20.9056C24.2689 20.7759 24.4362 20.4163 24.2911 20.1022C23.9908 19.452 23.2877 19.0318 22.5001 19.0318C21.7125 19.0318 21.0094 19.452 20.709 20.1022C20.5638 20.4163 20.7312 20.776 21.0827 20.9056V20.9056Z" fill="#FAB684"/>
<path d="M36.9892 11.1333C36.9892 14.0495 34.3418 16.4145 31.0757 16.4145C28.6587 16.4145 26.5804 15.1192 25.6633 13.2628C24.6683 13.9511 23.4198 14.3604 22.064 14.3604C20.7357 14.3604 19.5102 13.9675 18.5252 13.3038C17.7247 15.0765 15.7805 16.3283 13.5085 16.3283C10.6454 16.3283 8.3018 14.3399 8.11545 11.8248C8.10627 11.7173 8.1026 11.6082 8.1026 11.4991C8.1026 9.60258 9.32717 7.96113 11.1089 7.17117L11.1062 7.16953C10.605 6.6675 10.3002 6.00551 10.3002 5.27953C10.3002 3.71109 11.724 2.44043 13.4801 2.44043C13.9262 2.44043 14.3512 2.52246 14.7368 2.67012C15.2031 1.13203 16.7774 0 18.6473 0C20.0757 0 21.3305 0.659531 22.0521 1.65539C22.456 0.870352 23.2491 0.278086 24.2102 0.0762891C24.4452 0.02625 24.6912 0 24.9437 0C26.1774 0 27.2468 0.627539 27.7738 1.54465C28.4347 1.12793 29.2407 0.882656 30.1109 0.882656C32.3489 0.882656 34.1628 2.50277 34.1628 4.50105C34.1628 5.17781 33.9544 5.81109 33.5928 6.35332C35.6004 7.19742 36.9892 9.02016 36.9892 11.1333V11.1333Z" fill="#252323"/>
<path d="M36.9892 11.1333C36.9892 14.0495 34.3418 16.4145 31.0757 16.4145C28.6587 16.4145 26.5804 15.1192 25.6633 13.2628C24.6683 13.9511 23.4198 14.3604 22.064 14.3604C20.7357 14.3604 19.5102 13.9675 18.5252 13.3038C17.7247 15.0765 15.7805 16.3283 13.5085 16.3283C10.6454 16.3283 8.3018 14.3399 8.11545 11.8248C8.86267 13.5885 10.7711 14.8419 13.0064 14.8419C15.0431 14.8419 16.8077 13.8018 17.6712 12.2831C17.8828 11.9109 18.3896 11.7514 18.8072 11.9386C19.5114 12.2542 20.3064 12.4318 21.1479 12.4318C22.3317 12.4318 23.4238 12.0805 24.3002 11.488C24.6225 11.2701 25.0633 11.2427 25.4112 11.4265C26.1934 11.8396 27.1212 12.0563 28.1091 12.0008C30.4365 11.8703 32.329 10.2007 32.5017 8.12249C32.6893 5.864 30.8802 3.94743 28.4882 3.63694C28.1079 3.58755 27.8118 3.31726 27.7455 2.97905C27.4403 1.42349 25.9962 0.218777 24.2102 0.0762891C24.4452 0.02625 24.6912 0 24.9437 0C26.1774 0 27.2468 0.627539 27.7738 1.54465C28.4347 1.12793 29.2407 0.882656 30.1109 0.882656C32.3489 0.882656 34.1628 2.50277 34.1628 4.50105C34.1628 5.17781 33.9544 5.81109 33.5928 6.35332C35.6003 7.19742 36.9892 9.02016 36.9892 11.1333Z" fill="#252323"/>
</g>
<defs>
<filter id="filter0_d" x="0.563812" y="0" width="43.8724" height="50" filterUnits="userSpaceOnUse" color-interpolation-filters="sRGB">
<feFlood flood-opacity="0" result="BackgroundImageFix"/>
<feColorMatrix in="SourceAlpha" type="matrix" values="0 0 0 0 0 0 0 0 0 0 0 0 0 0 0 0 0 0 127 0"/>
<feOffset dy="4"/>
<feGaussianBlur stdDeviation="2"/>
<feColorMatrix type="matrix" values="0 0 0 0 0 0 0 0 0 0 0 0 0 0 0 0 0 0 0.25 0"/>
<feBlend mode="normal" in2="BackgroundImageFix" result="effect1_dropShadow"/>
<feBlend mode="normal" in="SourceGraphic" in2="effect1_dropShadow" result="shape"/>
</filter>
</defs>
</svg>
