<svg width="136" height="136" viewBox="0 0 136 136" fill="none" xmlns="http://www.w3.org/2000/svg">
<g clip-path="url(#clip0)">
<path d="M105.321 101.232L98.853 89.4078L110.849 82.8462C112.268 82.0697 112.789 80.2893 112.013 78.8697L105.451 66.8741L117.447 60.3125C118.866 59.536 119.388 57.7556 118.611 56.336L110.621 41.7286C110.096 40.7698 109.082 40.1825 107.99 40.2052L50.1736 41.406L33.7357 36.5926C22.8826 33.4147 11.4675 39.659 8.28954 50.512C6.74994 55.7693 7.34995 61.3117 9.9789 66.1178C12.6079 70.924 16.9512 74.4188 22.2087 75.9581L38.6149 80.7169L86.6254 112.996C87.5336 113.606 88.7062 113.66 89.6662 113.135L104.156 105.208C105.576 104.432 106.097 102.652 105.321 101.232ZM105.466 79.1113L94.823 84.933L46.7487 65.1337L48.5599 58.9484L99.5269 68.254L105.466 79.1113ZM32.303 72.7628L33.9375 67.1811L39.5611 68.8278L37.9266 74.4095L32.303 72.7628ZM40.5246 44.6863L46.1482 46.3331L44.5014 51.9567L38.8778 50.31L40.5246 44.6863ZM42.8546 57.5804L41.2079 63.2041L35.5843 61.5574L37.2311 55.9338L42.8546 57.5804ZM106.333 46.1008L112.064 56.5777L101.087 62.5821L50.2155 53.2938L51.9914 47.2294L106.333 46.1008ZM23.8552 70.3346C20.0998 69.2349 16.9976 66.7389 15.1197 63.3058C13.2419 59.873 12.8132 55.9141 13.913 52.1588C16.183 44.4067 24.3366 39.9464 32.0889 42.2163L34.9008 43.0397L32.431 51.4742L32.4303 51.4759L26.667 71.1578L23.8552 70.3346ZM88.4166 107.139L43.3258 76.8231L45.0928 70.7889L92.7185 90.4036L98.7738 101.474L88.4166 107.139Z" fill="white"/>
<line x1="65.0229" y1="44.2875" x2="52.7028" y2="86.3614" stroke="white" stroke-width="5"/>
</g>
<defs>
<clipPath id="clip0">
<rect width="100" height="100" fill="white" transform="translate(87.8712 0.138855) rotate(61.3212)"/>
</clipPath>
</defs>
</svg>
