<svg width="144" height="144" viewBox="0 0 144 144" fill="none" xmlns="http://www.w3.org/2000/svg">
<g clip-path="url(#clip0)" filter="url(#filter0_d)">
<path d="M109.321 101.232L102.853 89.4078L114.849 82.8462C116.268 82.0697 116.789 80.2893 116.013 78.8697L109.451 66.8741L121.447 60.3125C122.866 59.536 123.388 57.7556 122.611 56.336L114.621 41.7286C114.096 40.7698 113.082 40.1825 111.99 40.2052L54.1736 41.406L37.7357 36.5926C26.8826 33.4147 15.4675 39.659 12.2895 50.512C10.7499 55.7693 11.35 61.3117 13.9789 66.1178C16.6079 70.924 20.9512 74.4188 26.2087 75.9581L42.6149 80.7169L90.6254 112.996C91.5336 113.606 92.7062 113.66 93.6662 113.135L108.156 105.208C109.576 104.432 110.097 102.652 109.321 101.232ZM109.466 79.1113L98.823 84.933L50.7487 65.1337L52.5599 58.9484L103.527 68.254L109.466 79.1113ZM36.303 72.7628L37.9375 67.1811L43.5611 68.8278L41.9266 74.4095L36.303 72.7628ZM44.5246 44.6863L50.1482 46.3331L48.5014 51.9567L42.8778 50.31L44.5246 44.6863ZM46.8546 57.5804L45.2079 63.2041L39.5843 61.5574L41.2311 55.9338L46.8546 57.5804ZM110.333 46.1008L116.064 56.5777L105.087 62.5821L54.2155 53.2938L55.9914 47.2294L110.333 46.1008ZM27.8552 70.3346C24.0998 69.2349 20.9976 66.7389 19.1197 63.3058C17.2419 59.873 16.8132 55.9141 17.913 52.1588C20.183 44.4067 28.3366 39.9464 36.0889 42.2163L38.9008 43.0397L36.431 51.4742L36.4303 51.4759L30.667 71.1578L27.8552 70.3346ZM92.4166 107.139L47.3258 76.8231L49.0928 70.7889L96.7185 90.4036L102.774 101.474L92.4166 107.139Z" fill="white"/>
<line x1="69.0229" y1="44.2875" x2="56.7028" y2="86.3614" stroke="white" stroke-width="5"/>
</g>
<defs>
<filter id="filter0_d" x="0.138847" y="0.138855" width="143.722" height="143.722" filterUnits="userSpaceOnUse" color-interpolation-filters="sRGB">
<feFlood flood-opacity="0" result="BackgroundImageFix"/>
<feColorMatrix in="SourceAlpha" type="matrix" values="0 0 0 0 0 0 0 0 0 0 0 0 0 0 0 0 0 0 127 0"/>
<feOffset dy="4"/>
<feGaussianBlur stdDeviation="2"/>
<feColorMatrix type="matrix" values="0 0 0 0 0 0 0 0 0 0 0 0 0 0 0 0 0 0 0.25 0"/>
<feBlend mode="normal" in2="BackgroundImageFix" result="effect1_dropShadow"/>
<feBlend mode="normal" in="SourceGraphic" in2="effect1_dropShadow" result="shape"/>
</filter>
<clipPath id="clip0">
<rect width="100" height="100" fill="white" transform="translate(91.8712 0.138855) rotate(61.3212)"/>
</clipPath>
</defs>
</svg>
