<svg width="158" height="158" viewBox="0 0 158 158" fill="none" xmlns="http://www.w3.org/2000/svg">
<g filter="url(#filter0_d)">
<path d="M85.1065 12.1166C86.803 9.86797 86.5303 5.09861 86.2888 0.891398C86.2796 0.71005 86.2694 0.532691 86.2593 0.35257C83.8812 0.125501 81.474 0 79.0376 0C69.7017 0 60.7687 1.71989 52.524 4.83779C58.4053 7.66418 67.5093 12.529 77.6285 19.7169C81.0812 16.7457 83.6851 14.0028 85.1065 12.1166Z" fill="white"/>
<path d="M123.108 54.9122C119.411 55.3299 116.293 55.9365 113.627 56.7874C126.373 79.0407 131.342 107.155 132.558 127.523C145.185 114.657 153.204 97.2648 153.962 77.9996C145.262 67.3053 133.736 53.7066 123.108 54.9122Z" fill="white"/>
<path d="M47.337 35.7038C56.2924 33.8403 64.7059 29.333 71.4142 24.5753C57.4194 14.9365 45.7469 9.93425 43.425 8.98209C28.9058 16.831 17.2872 29.3366 10.5279 44.4892C19.3136 40.9886 28.8287 39.2077 38.1745 37.4725C41.1978 36.9109 44.3231 36.3307 47.337 35.7038Z" fill="white"/>
<path d="M99.1758 37.8846C99.9752 38.6879 100.772 39.505 101.564 40.3375C104.486 43.4045 107.136 46.759 109.567 50.308C113.107 48.9713 117.275 48.0235 122.264 47.4595C134.018 46.1299 144.47 55.4413 153.441 65.6925C151.518 50.1521 144.853 36.087 134.921 24.9947C129.501 25.648 123.457 26.7548 117.297 28.5929C113.257 29.7997 106.822 33.0787 99.1758 37.8846Z" fill="white"/>
<path d="M89.3075 76.6166C92.3837 66.1976 95.9468 58.6868 102.85 53.8116C100.778 50.8373 98.5489 48.0459 96.1337 45.5101C95.0165 44.3367 93.8867 43.2035 92.7519 42.0902C65.0548 60.9428 27.115 95.5741 23.6651 125.58C35.1811 138.18 50.9415 146.82 68.6836 149.272C75.1437 136.41 81.2239 110.264 84.838 94.7137C86.5744 87.2447 88.0731 80.7956 89.3075 76.6166Z" fill="white"/>
<path d="M57.9036 60.0943C67.5608 51.1954 77.7593 43.2155 87.0872 36.802C83.9779 34.0511 80.8591 31.5153 77.7973 29.1897C70.0497 35.0137 59.9058 40.7499 48.8642 43.0464C45.772 43.6898 42.6057 44.2781 39.5445 44.8464C27.7499 47.0366 16.4277 49.1579 6.90618 54.4704C5.05189 60.9974 4.03775 67.8788 4.03775 75.0002C4.03775 90.9309 9.02037 105.691 17.4897 117.838C22.9765 96.1135 41.7962 74.9369 57.9036 60.0943Z" fill="white"/>
<path d="M93.5476 32.5184C102.47 26.83 110.163 22.8968 115.153 21.407C119.635 20.0686 124.032 19.0937 128.195 18.3827C118.575 10.0226 106.815 4.06422 93.8324 1.46704C94.1202 6.70496 94.2457 12.4556 91.0946 16.6337C89.5975 18.6178 87.0648 21.3389 83.7692 24.2911C86.9967 26.8033 90.2766 29.5429 93.5476 32.5184Z" fill="white"/>
<path d="M96.4998 78.7403C95.3289 82.7073 93.8517 89.0582 92.1428 96.4112C87.097 118.122 82.2687 137.55 76.6301 149.939C77.4306 149.964 78.2309 150 79.0376 150C96.5167 150 112.585 144.004 125.337 133.98C124.833 112.666 119.723 82.5186 106.853 60.1391C101.861 63.8492 99.174 69.6858 96.4998 78.7403Z" fill="white"/>
</g>
<defs>
<filter id="filter0_d" x="0" y="0" width="158" height="158" filterUnits="userSpaceOnUse" color-interpolation-filters="sRGB">
<feFlood flood-opacity="0" result="BackgroundImageFix"/>
<feColorMatrix in="SourceAlpha" type="matrix" values="0 0 0 0 0 0 0 0 0 0 0 0 0 0 0 0 0 0 127 0"/>
<feOffset dy="4"/>
<feGaussianBlur stdDeviation="2"/>
<feColorMatrix type="matrix" values="0 0 0 0 0 0 0 0 0 0 0 0 0 0 0 0 0 0 0.25 0"/>
<feBlend mode="normal" in2="BackgroundImageFix" result="effect1_dropShadow"/>
<feBlend mode="normal" in="SourceGraphic" in2="effect1_dropShadow" result="shape"/>
</filter>
</defs>
</svg>
