<svg width="150" height="150" viewBox="0 0 150 150" fill="none" xmlns="http://www.w3.org/2000/svg">
<path d="M81.1065 12.1166C82.803 9.86797 82.5303 5.09861 82.2888 0.891398C82.2796 0.71005 82.2694 0.532691 82.2593 0.35257C79.8812 0.125501 77.474 0 75.0376 0C65.7017 0 56.7687 1.71989 48.524 4.83779C54.4053 7.66418 63.5093 12.529 73.6285 19.7169C77.0812 16.7457 79.6851 14.0028 81.1065 12.1166Z" fill="white"/>
<path d="M119.108 54.9122C115.411 55.3299 112.293 55.9365 109.627 56.7874C122.373 79.0407 127.342 107.155 128.558 127.523C141.185 114.657 149.204 97.2648 149.962 77.9996C141.262 67.3053 129.736 53.7066 119.108 54.9122Z" fill="white"/>
<path d="M43.337 35.7038C52.2924 33.8403 60.7059 29.333 67.4142 24.5753C53.4194 14.9365 41.7469 9.93425 39.425 8.98209C24.9058 16.831 13.2872 29.3366 6.52792 44.4892C15.3136 40.9886 24.8287 39.2077 34.1745 37.4725C37.1978 36.9109 40.3231 36.3307 43.337 35.7038Z" fill="white"/>
<path d="M95.1758 37.8846C95.9752 38.6879 96.7724 39.505 97.5641 40.3375C100.486 43.4045 103.136 46.759 105.567 50.308C109.107 48.9713 113.275 48.0235 118.264 47.4595C130.018 46.1299 140.47 55.4413 149.441 65.6925C147.518 50.1521 140.853 36.087 130.921 24.9947C125.501 25.648 119.457 26.7548 113.297 28.5929C109.257 29.7997 102.822 33.0787 95.1758 37.8846Z" fill="white"/>
<path d="M85.3075 76.6166C88.3837 66.1976 91.9468 58.6868 98.8503 53.8116C96.7785 50.8373 94.5489 48.0459 92.1337 45.5101C91.0165 44.3367 89.8867 43.2035 88.7519 42.0902C61.0548 60.9428 23.115 95.5741 19.6651 125.58C31.1811 138.18 46.9415 146.82 64.6836 149.272C71.1437 136.41 77.2239 110.264 80.838 94.7137C82.5744 87.2447 84.0731 80.7956 85.3075 76.6166Z" fill="white"/>
<path d="M53.9036 60.0943C63.5608 51.1954 73.7593 43.2155 83.0872 36.802C79.9779 34.0511 76.8591 31.5153 73.7973 29.1897C66.0497 35.0137 55.9058 40.7499 44.8642 43.0464C41.772 43.6898 38.6057 44.2781 35.5445 44.8464C23.7499 47.0366 12.4277 49.1579 2.90618 54.4704C1.05189 60.9974 0.0377502 67.8788 0.0377502 75.0002C0.0377502 90.9309 5.02037 105.691 13.4897 117.838C18.9765 96.1135 37.7962 74.9369 53.9036 60.0943Z" fill="white"/>
<path d="M89.5476 32.5184C98.4702 26.83 106.163 22.8968 111.153 21.407C115.635 20.0686 120.032 19.0937 124.195 18.3827C114.575 10.0226 102.815 4.06422 89.8324 1.46704C90.1202 6.70496 90.2457 12.4556 87.0946 16.6337C85.5975 18.6178 83.0648 21.3389 79.7692 24.2911C82.9967 26.8033 86.2766 29.5429 89.5476 32.5184Z" fill="white"/>
<path d="M92.4998 78.7403C91.3289 82.7073 89.8517 89.0582 88.1428 96.4112C83.097 118.122 78.2687 137.55 72.6301 149.939C73.4306 149.964 74.2309 150 75.0376 150C92.5167 150 108.585 144.004 121.337 133.98C120.833 112.666 115.723 82.5186 102.853 60.1391C97.8608 63.8492 95.174 69.6858 92.4998 78.7403Z" fill="white"/>
</svg>
