<svg width="230" height="230" viewBox="0 0 207 207" fill="none" xmlns="http://www.w3.org/2000/svg">
<g clip-path="url(#clip0)">
<path d="M197.782 89.2935C199.641 84.1738 198.229 78.1993 194.279 74.4398C183.436 64.1813 170.894 56.3872 157.432 51.1032L174.844 126.987C184.701 116.203 192.597 103.515 197.782 89.2935Z" fill="white"/>
<path d="M31.9851 79.8739C22.1731 90.4982 14.2786 102.988 8.99605 116.96C7.08457 122.058 8.41076 128.045 12.3235 131.848C18.1431 137.498 24.4654 142.434 31.1702 146.636C36.9774 150.275 43.0974 153.292 49.4008 155.805L31.9851 79.8739Z" fill="white"/>
<path d="M147.002 47.5654C128.801 42.3759 109.331 41.6807 90.2488 46.0524C71.1744 50.4291 53.9555 59.5425 39.8289 72.143L59.8471 159.386C78.019 164.623 97.4895 165.352 116.616 160.964C135.742 156.575 152.95 147.444 167.021 134.809L147.002 47.5654ZM126.801 116.395C125.535 116.686 124.274 116.438 123.257 115.8C122.24 115.163 121.467 114.136 121.172 112.878L119.261 104.522L109.013 106.873L110.929 115.221C111.507 117.741 109.929 120.26 107.409 120.838C106.15 121.133 104.889 120.885 103.872 120.248C102.856 119.611 102.083 118.584 101.787 117.326L99.8765 108.97L89.6286 111.321L91.5441 119.669C92.1223 122.189 90.544 124.708 88.024 125.286C86.7655 125.581 85.5047 125.333 84.4879 124.696C83.471 124.059 82.6981 123.032 82.4026 121.774L80.492 113.417L72.1437 115.333C70.8773 115.624 69.6165 115.375 68.5996 114.738C67.5828 114.101 66.8099 113.074 66.5143 111.816C65.9361 109.296 67.5144 106.778 70.0344 106.199L78.3956 104.281L76.4721 95.9276C75.8939 93.4076 77.4722 90.8893 79.9922 90.3111C82.5122 89.7329 85.0305 91.3112 85.6087 93.8312L87.5322 102.184L97.7801 99.833L95.8566 91.4797C95.2784 88.9598 96.8567 86.4415 99.3767 85.8633C101.897 85.285 104.415 86.8633 104.993 89.3833L106.917 97.7366L117.165 95.3852L115.241 87.0319C114.663 84.5119 116.241 81.9936 118.761 81.4154C121.281 80.8372 123.8 82.4155 124.378 84.9355L126.301 93.2888L134.65 91.3732C137.169 90.795 139.688 92.3733 140.266 94.8933C140.844 97.4133 139.266 99.9316 136.746 100.51L128.398 102.425L130.321 110.779C130.899 113.299 129.321 115.817 126.801 116.395Z" fill="white"/>
</g>
<defs>
<clipPath id="clip0">
<rect width="150" height="150" fill="white" transform="translate(79.6588) rotate(32.077)"/>
</clipPath>
</defs>
</svg>
