<svg width="150" height="150" viewBox="0 0 150 150" fill="none" xmlns="http://www.w3.org/2000/svg">
<path d="M75 0C33.6469 0 0 33.6469 0 75C0 116.353 33.6469 150 75 150C116.353 150 150 116.353 150 75C150 33.6469 116.353 0 75 0ZM79.7625 24.3656L99.0469 13.9969C109.725 18.225 119.044 25.1531 126.131 33.9656L121.537 55.1719L106.828 62.3812L79.7625 42.6656V24.3656ZM51.1125 13.9406L70.3969 24.3469V42.6656L43.35 62.3812L28.5656 55.1625L23.9719 33.825C31.0781 25.0313 40.4156 18.1406 51.1125 13.9406ZM20.9063 112.069C14.7844 103.163 10.8 92.6906 9.70312 81.375L25.575 64.1344L40.05 71.2125L50.9531 102.178L41.7375 113.222L20.9063 112.069ZM91.7156 138.384C86.3625 139.8 80.7844 140.625 75 140.625C68.0063 140.625 61.275 139.5 54.9469 137.466L49.05 119.109L58.4531 107.812H91.5844L100.819 118.744L91.7156 138.384ZM108.131 112.903L99.0656 102.169L110.119 71.2125L124.528 64.1531L140.306 81.3844C139.359 91.1437 136.219 100.247 131.447 108.3L108.131 112.903Z" fill="white"/>
</svg>
