<svg width="757" height="697" viewBox="0 0 757 697" fill="none" xmlns="http://www.w3.org/2000/svg">
<path d="M661.115 727.789C666.764 727.789 751.229 736.367 755.224 727.789C755.224 739.919 759.22 719.211 755.224 727.789L755.224 714.39C755.224 703.163 758.705 736.168 755.224 727.789C755.224 727.789 503.477 278.685 383.527 174.59C261.017 68.2725 120.481 7.90512 -22.8896 0.0165282C-28.6259 -0.315848 -34.1917 4.37703 -38.3047 12.9853C-42.4177 21.5935 -44.7384 33.4066 -44.7384 45.7411V682.034C-44.7384 707.294 -35.2002 727.774 -23.435 727.774L661.115 727.789Z" fill="#F0F0F0"/>
<path d="M359.157 440.936C391.82 460.405 391.82 491.97 359.156 511.439C326.493 530.909 273.536 530.909 240.872 511.441C208.207 491.97 208.207 460.405 240.872 440.936C273.536 421.468 326.494 421.468 359.157 440.936Z" fill="#DADBD8"/>
<path d="M226.575 439.494C263.908 459.688 263.908 492.43 226.575 512.624C189.241 532.819 128.711 532.819 91.3789 512.624C54.045 492.43 54.0455 459.688 91.3789 439.494C128.713 419.3 189.243 419.3 226.575 439.494Z" fill="#DADBD8"/>
<path d="M496.457 439.61C534.76 459.805 534.758 492.547 496.455 512.742C458.151 532.935 396.049 532.935 357.744 512.742C319.44 492.548 319.44 459.805 357.744 439.611C396.049 419.417 458.152 419.417 496.457 439.61Z" fill="#DADBD8"/>
<path d="M230.989 151.001C237.916 165.848 252.372 192.79 252.372 192.79C262.029 195.055 283.605 196.734 292.42 197.918C293.984 198.128 295.553 197.716 296.844 196.842C300.311 194.497 302.991 194.117 306.647 192.812C309.506 191.791 310.719 190.379 311.257 190.916C311.947 191.606 312.701 193.566 310.958 195.596C310.082 196.617 308.484 197.731 306.43 199.093C306.43 199.093 312.732 200.83 318.363 199.303C325.994 197.236 329.597 201.023 324.437 209.578C322.589 212.639 315.312 217.545 300.568 216.222C296.32 215.838 289.334 215.281 283.927 215.299C270.116 215.345 261.517 215.507 248.946 215.052C243.495 214.855 241.288 214.458 237.328 208.965C221.447 186.937 212.362 171.928 205.235 159.538V128.322C216.754 127.953 225.019 138.202 230.989 151.001Z" fill="#F6879F"/>
<path d="M404.184 120.728C394.484 122.208 387.554 130.363 381.268 151.654C376.315 168.429 368.612 184.586 363.797 201.193C349.735 200.904 334.036 199.938 321.012 199.04C318.557 198.87 317.37 197.972 316.198 196.975C313.055 194.3 307.814 191.905 304.952 190.735C302.709 189.82 300.459 187.036 298.776 187.939C297.094 188.841 297.811 192.365 299.11 194.326C299.765 195.314 303.511 198.298 304.826 199.19C299.053 199.827 295.199 198.864 289.487 197.918C281.747 196.636 273.189 197.256 279.642 208.748C284.061 216.62 298.9 219.368 307.754 219.514C312.098 219.587 319.139 219.504 325.303 220.073C335.676 221.03 350.414 223.913 368.752 225.517C375.982 226.15 379.843 224.794 383.119 218.1C383.516 217.251 383.904 216.425 384.291 215.607V215.605C398.299 185.777 403.627 174.053 410.587 145.975C408.38 138.577 406.199 128.09 404.184 120.728Z" fill="#C35363"/>
<path d="M408.708 119.628C408.708 119.628 396.829 119.917 390.714 127.288C382.422 137.283 371.52 175.764 371.52 175.764C371.52 175.764 377.493 185.983 401.982 182.62L408.708 119.628Z" fill="#26B6A6"/>
<path d="M388.626 183.142C375.204 182.059 371.52 175.764 371.52 175.764C371.52 175.764 382.422 137.283 390.714 127.288C396.829 119.917 408.708 119.628 408.708 119.628L408.706 119.644C401.183 120.821 393.504 130.53 390.11 151.765C389.398 156.223 388.932 168.875 388.626 183.142Z" fill="#248A7F"/>
<path d="M443.132 207.277C437.608 206.803 435.561 207.404 430.912 206.01C432.403 205.647 435.281 204.335 436.188 203.647C437.295 202.807 440.288 198.544 437.985 197.478C437.541 197.272 437.024 197.378 436.558 197.52C435.202 197.932 433.936 198.612 432.584 199.033C429.109 200.117 425.351 199.424 421.768 200.016C420.577 200.213 419.408 200.552 418.209 200.672C416.284 200.862 411.864 200.607 410.088 199.942C403.196 197.362 363.112 183.241 363.112 183.241C356.77 173.897 347.221 156.118 342.078 148.348C334.149 136.373 330.477 128.952 317.62 127.446C315.457 134.882 311.745 139.949 310.323 148.462C315.587 155.814 344.43 198.168 345.496 199.796C348.29 204.06 349.281 205.802 354.198 207.276C359.117 208.75 391.534 214.018 408.581 217.48C413.107 218.472 417.875 221.126 419.779 221.674C434.317 225.851 442.68 226.362 448.023 219.93C456.549 209.665 450.618 207.921 443.132 207.277Z" fill="#F8A39A"/>
<path d="M314.175 122.622C330.55 120.576 335.589 131.108 342.37 142.789C350.596 156.963 357.644 171.153 364.34 183.241C375.341 187.8 408.73 198.589 408.73 198.589C409.713 204.254 408.09 212.576 405.083 217.615C398.835 216.975 376.621 213.318 359.211 210.174C351.809 208.836 349.646 208.675 344.928 202.374C336.432 191.029 324.842 173.706 314.47 159.768C307.019 149.753 314.175 127.74 314.175 122.622Z" fill="#33535F"/>
<path d="M150.289 232.579C150.772 229.218 151.912 225.98 153.412 222.955C155.328 219.088 158.164 215.291 162.235 214.191C164.425 213.6 166.709 213.884 168.859 214.512C170.758 215.067 172.522 216.459 174.53 215.762C187.424 211.283 204.643 201.223 217.51 195.608C225.489 178.293 235.579 160.786 239.332 153.79C248.723 136.284 256.282 129.642 265.398 127.74C268.562 134.859 270.716 145.622 263.247 159.99C259.386 167.864 251.163 185.573 242.902 201.515C235.412 215.973 228.397 217.355 221.895 219.503C209.469 223.61 196.966 227.166 185.872 230.839C179.277 233.023 169.956 235.537 166.673 236.701C163.545 237.808 160.258 238.444 156.952 238.559C154.65 238.638 151.721 239.483 150.557 236.759C150.013 235.483 150.085 234.022 150.28 232.642L150.289 232.579Z" fill="#F8A39A"/>
<path d="M253.164 378.758C253.477 363.16 258.027 351.593 258.383 347.262C258.383 347.262 257.269 254.488 257.269 239.44L333.897 236.215C333.897 236.215 331.443 333.575 331.443 346.468C331.443 359.359 324.424 415.422 321.125 440.531C316.692 446.504 311.522 449.047 304.555 443.2C304.555 443.2 303.982 439.649 303.071 427.905C302.026 414.454 298.412 391.814 298.286 378.65C298.129 362.418 299.536 353.517 299.998 345.704C300.527 336.763 298.447 276.441 298.447 276.441C298.447 276.441 288.85 333.978 286.463 353.518C283.726 375.908 274.947 434.576 274.924 448.216C274.924 450.66 274.931 453.49 274.947 456.558C274.984 463.938 274.747 465.89 275.893 468.741C277.899 473.735 260.768 476.872 259.973 473.325L258.132 458.66V458.238V458.235V448.939C258.132 435.041 252.708 401.378 253.164 378.758Z" fill="#F8A39A"/>
<path d="M354.972 466.5C355.47 467.575 355.326 469.591 354.736 470.869C354.144 472.147 347.678 475.911 338.957 475.304C330.234 474.695 324.246 471.069 320.92 468.795C317.595 466.523 314.132 466.097 309.813 465.843C305.493 465.587 299.822 463.364 298.875 461.278C297.928 459.194 299.017 455.602 299.017 455.602L354.972 466.5Z" fill="#273E47"/>
<path d="M319.774 438.398C320.001 438.348 320.232 438.299 320.464 438.251C320.844 438.173 321.238 438.094 321.615 438.188C322.043 438.292 322.394 438.603 322.691 438.936C323.63 439.989 324.195 441.329 324.919 442.548C326.749 445.627 330.586 448.177 334.778 450.503C337.626 452.084 340.417 453.311 343.361 454.676C346.361 456.07 350.344 456.922 352.692 458.556C356.115 460.936 356.556 466.92 352.657 469.283C349.294 471.321 340.443 473.531 331.158 470.816C326.103 469.336 320.488 463.759 313.85 463.223C309.629 462.882 301.647 461.657 298.93 458.349C297.926 456.881 299.268 452.228 300.369 448.213C301.57 443.828 303.005 436.96 304.412 437.346C304.47 438.207 304.306 438.426 304.856 439.01C305.376 439.565 306.077 439.921 306.644 440.42C307.687 441.34 308.329 442.639 308.979 443.888C309.261 444.428 309.595 445.003 310.177 445.229C310.889 445.504 311.421 445.042 312.045 444.745C312.826 444.375 313.74 444.306 314.567 444.559C314.485 443.691 314.336 442.831 314.121 441.987C314.052 441.714 313.977 441.425 314.059 441.158C314.145 440.886 314.373 440.694 314.6 440.531C316.227 439.353 317.908 438.814 319.774 438.398Z" fill="#26B6A6"/>
<path d="M340.104 472.079C337.295 472.079 334.252 471.72 331.158 470.816C326.103 469.336 320.488 463.759 313.85 463.222C309.629 462.882 301.647 461.657 298.93 458.349C298.681 457.984 298.576 457.424 298.577 456.727C298.577 454.613 299.541 451.232 300.369 448.213C301.537 443.947 302.928 437.33 304.298 437.33C304.335 437.33 304.373 437.335 304.412 437.346C304.47 438.207 304.306 438.425 304.856 439.01C305.376 439.566 306.077 439.921 306.644 440.42C307.687 441.34 308.329 442.639 308.979 443.888C309.261 444.428 309.595 445.003 310.177 445.229C310.33 445.288 310.475 445.313 310.614 445.313C311.122 445.313 311.554 444.978 312.045 444.745C312.515 444.522 313.033 444.409 313.55 444.409C313.894 444.409 314.237 444.459 314.567 444.559C314.485 443.691 314.336 442.831 314.121 441.987C314.074 441.799 314.023 441.604 314.023 441.414C314.023 441.328 314.033 441.241 314.059 441.158C314.145 440.886 314.373 440.694 314.6 440.531C316.227 439.353 317.908 438.814 319.774 438.398C320.001 438.348 320.232 438.299 320.464 438.251C320.722 438.198 320.985 438.145 321.246 438.145C321.371 438.145 321.493 438.157 321.615 438.188C322.043 438.292 322.394 438.603 322.691 438.936C323.63 439.989 324.195 441.329 324.919 442.548C326.749 445.627 330.586 448.177 334.778 450.503C337.626 452.084 340.417 453.311 343.36 454.676C346.361 456.07 350.344 456.922 352.692 458.556C354.451 459.779 355.423 461.951 355.423 464.097C355.424 466.128 354.554 468.135 352.657 469.283C350.414 470.643 345.73 472.079 340.104 472.079Z" fill="#00BFA5"/>
<path d="M292.509 492.013C293.025 492.515 292.868 495.942 292.3 496.865C291.689 497.855 288.182 500.943 281.84 501.412C275.779 501.86 270.366 501.018 266.809 498.684C263.251 496.352 261.527 493.78 261.193 490.216C260.857 486.652 261.242 483.213 259.597 480.469C258.077 477.937 255.655 475.081 255.128 473.707C253.98 470.719 255.086 466.449 255.086 466.449L292.509 492.013Z" fill="#273E47"/>
<path d="M275.92 460.899C275.964 462.283 276.2 463.544 276.619 464.865C277.498 467.63 278.833 470.232 280.331 472.705C281.103 473.98 281.917 475.231 282.858 476.386C284.691 478.638 286.968 480.487 288.909 482.648C290.849 484.807 292.499 487.426 292.651 490.328C292.91 495.235 287.75 496.904 283.777 497.633C279.537 498.413 275.009 498.179 270.869 496.963C266.264 495.613 262.94 491.93 262.177 487.186C261.956 485.822 262.038 484.429 261.882 483.058C261.526 479.931 259.956 477.073 258.185 474.472C257.156 472.964 256.039 471.49 255.35 469.8C254.108 466.762 255.103 463.344 255.895 460.319C256.58 457.705 257.353 454.749 258.245 454.995C258.255 456.349 258.24 456.49 259.182 457.408C260.373 458.57 260.424 460.318 261.684 461.345C261.093 459.753 261.056 459.077 260.801 457.853C260.722 457.487 260.82 456.745 261.067 456.466C261.401 456.09 261.97 455.855 262.527 455.66C264.397 455.008 266.335 454.554 268.3 454.305C270.093 454.077 272.154 453.85 273.933 454.263C274.48 454.389 275.013 454.659 275.349 455.108C275.703 455.583 275.77 456.001 275.854 456.785C275.939 457.57 275.88 459.595 275.92 460.899Z" fill="#26B6A6"/>
<path d="M278.764 498.084C276.091 498.084 273.407 497.708 270.869 496.963C266.264 495.613 262.94 491.93 262.177 487.186C261.955 485.822 262.038 484.429 261.882 483.058C261.526 479.931 259.956 477.073 258.185 474.472C257.156 472.964 256.039 471.49 255.35 469.8C254.924 468.761 254.762 467.678 254.763 466.583C254.765 464.472 255.374 462.309 255.895 460.319C256.552 457.808 257.293 454.981 258.14 454.981C258.175 454.981 258.209 454.984 258.245 454.995C258.255 456.349 258.24 456.49 259.182 457.408C260.373 458.57 260.424 460.318 261.684 461.345C261.093 459.753 261.056 459.077 260.801 457.853C260.783 457.771 260.774 457.669 260.774 457.557C260.775 457.175 260.877 456.683 261.068 456.466C261.401 456.09 261.97 455.855 262.527 455.66C264.397 455.008 266.335 454.554 268.3 454.305C269.368 454.168 270.531 454.034 271.673 454.034C272.448 454.034 273.213 454.095 273.933 454.263C274.48 454.389 275.013 454.659 275.349 455.108C275.703 455.583 275.77 456.001 275.854 456.785C275.901 457.213 275.903 458.014 275.903 458.864C275.903 459.015 275.903 459.169 275.903 459.323C275.903 459.879 275.906 460.434 275.92 460.899C275.963 462.283 276.2 463.544 276.619 464.865C277.498 467.63 278.833 470.232 280.331 472.705C281.103 473.98 281.917 475.231 282.858 476.386C284.691 478.638 286.968 480.487 288.909 482.648C290.849 484.807 292.499 487.427 292.651 490.328C292.658 490.442 292.66 490.557 292.66 490.667C292.668 495.313 287.657 496.92 283.777 497.633C282.137 497.934 280.452 498.084 278.764 498.084Z" fill="#00BFA5"/>
<path d="M280.972 473.735C279.2 472.366 275.236 472.347 273.067 472.588C270.351 472.888 268.152 473.872 266.902 474.821C266.349 475.243 265.575 475.17 265.087 474.673C264.501 474.077 264.555 473.094 265.221 472.589C266.545 471.583 268.941 470.168 272.158 469.935C277.495 469.547 279.061 470.491 279.061 470.491C279.061 470.491 281.496 472.108 280.972 473.735Z" fill="#F3F2F1"/>
<path d="M285.041 478.764C282.816 477.406 278.454 477.6 276.286 477.84C273.57 478.141 271.539 479.243 270.29 480.195C269.736 480.616 268.962 480.542 268.475 480.046C267.889 479.449 267.943 478.467 268.609 477.961C269.933 476.955 272.477 475.331 275.695 475.097C281.032 474.709 282.423 475.834 282.423 475.834C282.423 475.834 284.673 476.734 285.041 478.764Z" fill="#F3F2F1"/>
<path d="M270.033 464.661C273.722 464.269 275.284 464.694 276.741 465.243C277.684 465.787 278.302 467.32 277.696 467.709C276.509 467.028 274.37 466.746 271.749 466.866C269.992 466.946 267.775 467.681 265.978 468.503C265.521 468.712 264.981 469.005 264.508 469.275C263.869 469.641 263.058 469.381 262.753 468.712C262.492 468.145 262.686 467.468 263.215 467.138C264.504 466.332 267.053 464.98 270.033 464.661Z" fill="#F3F2F1"/>
<path d="M330.835 448.133C330.835 448.133 330.229 446.46 327.718 445.978C325.797 445.61 322.405 447.072 320.298 448.866C319.434 449.599 319.545 450.994 320.524 451.552C321.106 451.883 321.821 451.797 322.323 451.345C323.705 450.103 326.804 447.847 330.835 448.133Z" fill="#F3F2F1"/>
<path d="M336.788 451.576C336.788 451.576 335.547 449.572 333.094 449.61C333.094 449.61 328.078 449.759 324.974 452.746C324.182 453.509 324.238 454.806 325.186 455.344C325.751 455.663 326.439 455.578 326.919 455.136C328.318 453.847 331.12 451.138 336.788 451.576Z" fill="#F3F2F1"/>
<path d="M343.36 454.676C343.36 454.676 341.977 452.863 339.524 452.903C339.524 452.903 334.851 453.082 331.747 456.07C330.955 456.832 331.009 458.129 331.958 458.667C332.524 458.986 333.212 458.901 333.692 458.459C335.09 457.171 337.693 454.239 343.36 454.676Z" fill="#F3F2F1"/>
<path d="M333.897 236.215C333.897 236.215 333.787 301.405 333.897 312.919C334.008 324.432 333.897 346.468 333.897 357.116C333.897 357.116 330.567 363.005 314.465 362.99C298.363 362.975 295.95 357.918 295.95 357.918L295.295 305.427L290.856 360.452C290.856 360.452 281.609 367.859 268.346 364.908C255.084 361.957 253.137 357.879 253.137 357.879L255.743 236.464L333.897 236.215Z" fill="#00BFA5"/>
<path d="M295.915 350.522L295.295 305.427L297.661 283.181C297.661 283.181 308.712 280.403 316.106 274.66C316.106 274.66 312.193 279.661 307.709 282.255C303.224 284.848 301.07 285.923 301.07 285.923L296.484 308.569L295.915 350.522Z" fill="#1DB3A0"/>
<path d="M254.763 247.571C265.281 255.481 312.948 264.242 335.072 247.571C335.072 247.571 334.561 183.77 332.827 150.003C332.745 148.47 332.646 146.987 332.497 145.538C332.447 145.06 332.382 144.584 332.331 144.105C332.067 142.009 331.704 140.015 331.208 138.123C331.126 137.799 331.027 137.476 330.929 137.151C330.714 136.417 330.482 135.703 330.202 135.003C330.053 134.629 329.904 134.254 329.74 133.896C329.591 133.555 329.444 133.213 329.261 132.89L329.178 132.702C329.014 132.379 328.832 132.056 328.649 131.748C328.451 131.407 328.254 131.065 328.022 130.725C327.807 130.419 327.593 130.094 327.379 129.804C327.131 129.481 326.868 129.156 326.587 128.85C326.339 128.544 326.058 128.254 325.777 127.981C325.595 127.793 325.397 127.606 325.199 127.419C325.017 127.248 324.819 127.077 324.621 126.925C324.374 126.702 324.093 126.498 323.828 126.293C322.971 125.662 322.046 125.1 321.039 124.589C320.775 124.452 320.494 124.316 320.213 124.197L320.015 124.112C319.684 123.976 319.354 123.839 319.024 123.719C318.48 123.498 317.902 123.31 317.306 123.14C316.712 122.969 316.102 122.816 315.457 122.662C314.747 122.629 313.955 122.612 313.096 122.612C312.552 122.612 311.956 122.629 311.346 122.645C310.736 122.662 310.108 122.68 309.464 122.714C301.193 123.089 289.32 124.47 279.794 125.731C279.167 125.816 278.54 125.901 277.928 125.987C277.367 126.054 276.822 126.124 276.293 126.19C269.755 127.077 264.901 127.81 264.158 127.929L264.059 127.948C261.912 128.509 259.932 129.038 258.33 129.532C253.955 130.862 257.207 129.719 256.249 134.083C253.426 146.901 256.713 193.503 256.713 193.503L254.763 247.571Z" fill="#EDEDEB"/>
<path d="M282.512 77.7875L279.572 81.1067L278.074 63.9966C278.074 63.9966 274.412 63.3487 271.557 66.3619C268.759 69.3153 270.321 78.5614 273.806 87.6179C273.806 87.6179 277.205 104.107 278.569 106.816C279.932 109.525 282.749 110.294 282.749 110.294L282.512 77.7875Z" fill="#26B6A6"/>
<path d="M282.716 110.285C282.396 110.189 279.846 109.352 278.569 106.816C278.168 106.021 277.593 104.042 276.98 101.639C277.315 101.677 277.631 101.694 277.927 101.694C281.833 101.694 282.512 98.6952 282.512 98.6952L282.716 110.285Z" fill="#C35363"/>
<path d="M278.374 85.9749C278.055 85.6105 277.737 85.2488 277.431 84.9162C276.599 84.0179 274.775 82.9459 272.857 82.9459C272.639 82.9459 272.42 82.9592 272.2 82.9883C270.895 78.7588 270.113 74.7347 270.117 71.6049C270.119 69.734 270.401 68.1825 271.018 67.0985C271.837 67.0363 272.641 66.7527 273.338 66.2545C273.824 69.9116 275.714 83.252 277.596 85.0912C277.839 85.3284 278.101 85.6318 278.374 85.9749Z" fill="#C35363"/>
<path d="M282.13 88.3824C280.846 89.1734 279.014 86.6268 277.431 84.9162C275.848 83.2069 270.678 80.8682 268.1 86.4783C265.472 92.1945 270.375 99.7485 274.445 101.067C281.46 103.341 282.512 98.6951 282.512 98.6951L282.982 125.323C290.331 139.047 315.182 132.019 305.866 122.923L305.847 116.16C305.847 116.16 313.325 116.654 316.425 116.16C321.584 115.337 323.704 111.651 325.269 105.887C327.783 96.6294 328.737 89.1536 326.605 70.9464C324.267 50.9902 301.784 50.7821 289.642 58.6713C277.5 66.5605 282.13 88.3824 282.13 88.3824Z" fill="#F8A39A"/>
<path d="M279.127 53.085C283.288 51.0696 287.872 49.9792 292.389 48.9669C302.194 46.7686 312.182 44.7453 321.138 40.0719C322.242 39.4955 323.421 38.8609 324.648 39.0278C327.01 39.3485 328.045 42.302 328.138 44.7586C328.226 47.0336 327.936 49.3233 327.286 51.499C328.557 49.9368 331.152 50.1541 332.56 51.5824C333.969 53.0135 334.345 55.2475 334.087 57.2681C333.51 61.8011 330.144 65.5747 326.171 67.5887C322.196 69.6015 317.669 70.1063 313.243 70.2388C307.061 70.423 300.861 69.9394 294.776 68.7998C293.297 68.5229 291.786 68.2076 290.304 68.4659C288.824 68.7243 287.353 69.7049 286.966 71.2021C286.315 73.721 285.638 90.8656 282.224 90.9358C281.589 90.949 279.17 86.6321 277.596 85.0911C275.616 83.1553 273.625 68.4726 273.272 65.7589C273.243 65.5377 273.125 65.3641 272.999 65.1826C270.768 61.9561 273.387 56.5195 276.14 54.7506C277.106 54.1318 278.103 53.5806 279.127 53.085Z" fill="#26B6A6"/>
<path d="M282.222 90.9358C281.581 90.9358 279.167 86.6295 277.596 85.0911C275.714 83.252 273.824 69.9116 273.338 66.2545C273.662 66.0213 273.965 65.7405 274.234 65.4145L272.344 63.7515C272.218 63.2785 272.159 62.7829 272.159 62.2768C272.159 59.3445 274.112 56.0532 276.14 54.7507C277.106 54.1318 278.103 53.5806 279.127 53.085C283.288 51.0697 287.872 49.9792 292.389 48.9669C302.194 46.7687 312.182 44.7453 321.138 40.0719C322.12 39.5592 323.161 39.0013 324.243 39.0013C324.377 39.0013 324.513 39.0093 324.648 39.0278C327.01 39.3485 328.045 42.302 328.138 44.7586C328.149 45.0249 328.153 45.2926 328.153 45.5589C328.152 47.569 327.858 49.5777 327.286 51.499C327.889 50.757 328.792 50.4165 329.724 50.4165C330.754 50.4165 331.82 50.8325 332.56 51.5825C333.7 52.7393 334.163 54.4221 334.163 56.0916C334.163 56.4878 334.136 56.8813 334.087 57.2682C333.51 61.8011 330.144 65.5748 326.171 67.5888C322.196 69.6015 317.669 70.1063 313.243 70.2388C312.389 70.264 311.534 70.2773 310.679 70.2773C305.349 70.2773 300.02 69.7818 294.776 68.7999C293.683 68.5958 292.575 68.3692 291.472 68.3692C291.082 68.3692 290.691 68.3984 290.304 68.466C288.824 68.7244 287.353 69.7048 286.966 71.2021C286.315 73.721 285.638 90.8656 282.224 90.9358C282.224 90.9358 282.223 90.9358 282.222 90.9358Z" fill="#C35363"/>
<path d="M274.234 65.4145C272.559 67.4445 269.608 67.6869 267.641 65.9577C265.676 64.2272 265.44 61.181 267.115 59.1524L274.234 65.4145Z" fill="#26B6A6"/>
<path d="M270.673 67.1118C269.6 67.1118 268.522 66.7329 267.641 65.9577C266.556 65.0011 265.997 63.6429 265.999 62.2755C266 61.1704 266.367 60.0587 267.115 59.1524L274.234 65.4144C273.965 65.7404 273.662 66.0213 273.338 66.2545C272.641 66.7527 271.837 67.0363 271.018 67.0986C270.903 67.1065 270.789 67.1118 270.673 67.1118Z" fill="#C35363"/>
<path d="M305.847 116.16C305.847 116.16 294.333 115.018 290.308 112.81C287.614 111.331 285.395 108.768 284.743 107.125C284.743 107.125 285.497 110.652 287.904 113.83C290.848 117.715 305.847 120.575 305.847 120.575V116.16Z" fill="#F57F6D"/>
<path d="M302.323 85.4104C302.323 86.7765 301.288 87.8829 300.014 87.8789C298.74 87.8749 297.707 86.7632 297.707 85.3971C297.707 84.0297 298.74 82.9246 300.014 82.9286C301.288 82.9326 302.323 84.0443 302.323 85.4104Z" fill="#17282F"/>
<path d="M299.874 76.4175L294.938 79.2291C294.211 77.765 294.725 75.9484 296.089 75.172C297.451 74.3955 299.147 74.9533 299.874 76.4175Z" fill="#17282F"/>
<path d="M303.362 101.866L309.8 104.36C309.163 106.265 307.205 107.251 305.429 106.563C303.65 105.874 302.725 103.771 303.362 101.866Z" fill="#F57F6D"/>
<path d="M322.689 78.401L318.186 74.8208C319.105 73.4905 320.857 73.2136 322.099 74.2008C323.344 75.1892 323.606 77.0694 322.689 78.401Z" fill="#17282F"/>
<path d="M321.302 84.732C321.302 86.0994 320.269 87.2032 318.995 87.2006C317.722 87.1966 316.687 86.0863 316.687 84.7188C316.687 83.3527 317.722 82.2463 318.995 82.2503C320.269 82.2542 321.302 83.3646 321.302 84.732Z" fill="#17282F"/>
<path d="M310.173 83.0307L310.932 97.3556L318.176 94.8075L310.173 83.0307Z" fill="#F57F6D"/>
<path d="M265.398 127.74C254.763 128.768 247.573 131.565 238.373 149.995C233.066 160.63 217.51 194.765 217.51 194.765L177.258 214.757C177.258 214.757 181.951 227.176 180.897 232.408C180.897 232.408 194.765 228.94 209.618 224.705C224.4 220.49 231.155 218.026 235.38 215.113C238.519 212.948 261.902 167.452 261.902 167.452C269.863 154.582 272.271 137.464 265.398 127.74Z" fill="#33535F"/>
<path d="M195.288 117.61L193.946 117.495C175.372 115.911 161.559 99.0821 163.094 79.9076C164.573 61.4261 180.284 47.6816 198.186 49.208L201.961 49.53C219.863 51.0565 233.175 67.2761 231.697 85.7589C230.161 104.933 213.861 119.193 195.288 117.61Z" fill="#17282F"/>
<path d="M169.809 110.447C169.157 110.516 168.506 110.557 167.861 110.577C163.511 110.712 159.157 109.982 154.816 110.309C148.803 110.762 142.453 113.823 140.218 119.604C138.491 124.067 139.417 129.526 136.708 133.435C134.863 136.099 131.743 137.407 129.067 139.17C120.107 145.068 116.768 158.411 124.449 167.006C135.131 178.96 154.086 171.131 161.421 159.299C164.351 154.575 166.071 148.888 170.183 145.22C174.639 141.245 181.094 140.409 185.642 136.547C189.628 133.162 191.685 127.517 190.854 122.259C190.276 118.623 188.458 115.337 186.546 112.226C185.44 110.426 184.256 108.617 182.605 107.336C179.61 105.014 179.051 107.122 176.259 108.608C174.268 109.666 172.043 110.214 169.809 110.447Z" fill="#17282F"/>
<path d="M99.1597 441.161C100.224 443.898 99.3726 447.155 99.0266 454.341C98.7985 459.066 98.3835 463.812 98.6978 468.544C98.8102 470.238 99.2431 471.81 99.4857 473.469C99.6815 474.808 100.145 475.964 101.107 476.951C101.909 477.775 103.07 478.302 104.178 478.069C105.055 477.885 105.801 477.242 106.274 476.457C106.918 475.389 108.056 472.794 108.375 471.626C108.936 483.734 121.054 492.891 113.163 495.358C106.318 497.5 100.449 495.479 96.4735 493.305C94.0334 491.969 91.8366 489.234 91.3644 488.241C88.7333 482.707 89.3806 477.647 89.6274 473.05C90.1719 462.897 88.8746 457.544 88.4011 452.417C87.8283 446.209 97.3551 440.115 99.1597 441.161Z" fill="#17282F"/>
<path d="M183.815 445.625C183.815 445.625 183.159 445.679 182.951 446.584C182.645 447.918 182.231 450.429 181.645 452.707C180.864 455.738 179.956 460.115 180.289 462.613C180.623 465.111 183.702 467.719 189.648 469.893C193.23 471.203 199.543 474.888 202.347 477.881C205.784 481.547 213.412 484.924 218.678 485.437C224.852 486.038 231.406 484.761 233.183 480.261C233.931 478.37 230.989 476.058 223.315 471.614C223.315 471.614 219.45 469.173 217.272 467.55C206.299 459.371 202.661 454.894 199.805 447.107L183.815 445.625Z" fill="#17282F"/>
<path d="M203.719 453.62C200.329 449.316 199.875 445.349 200.843 437.846C201.811 430.34 211.675 365.018 214.188 348.667C218.408 321.202 222.416 242.488 221.385 223.171L149.651 224.247C143.635 237.284 138.803 253.505 138.002 279.407C137.393 299.161 133.625 352.605 133.625 352.605C133.625 352.605 124.427 359.886 117.242 374.993C110.894 388.34 101.623 435.292 101.623 435.292C100.457 438.37 99.525 440.713 99.1596 441.161C97.5281 443.163 96.3177 445.344 96.1591 447.903C95.6525 456.087 95.9889 464.326 97.1621 472.437C97.7693 476.635 100.108 479.466 104.008 481.375C104.873 481.798 105.821 482.048 106.778 482.038C107.265 482.033 107.794 481.946 108.164 481.608C108.883 480.954 108.37 479.254 108.293 478.414C108.169 477.061 108.141 475.7 108.186 474.343C108.275 471.676 108.558 468.432 108.892 465.789C109.769 458.87 111.1 453.296 112.762 448.318C112.763 448.317 113.398 447 114.361 444.996C114.361 444.996 149.345 382.562 159.118 367.424C166.88 355.553 174.501 307.979 181.086 282.131L185.576 345.25C185.576 345.25 181.201 356.309 179.696 364.889C177.676 376.413 182.792 422.429 184.163 438.761C184.417 441.793 184.262 444.839 183.702 447.828C184.105 454.893 189.067 457.391 194.089 461.71C196.586 463.857 207.661 471.845 214.527 473.763C220.114 475.323 222.416 473.199 223.308 471.607C216.519 466.837 207.11 457.925 203.719 453.62Z" fill="#F6879F"/>
<path d="M164.593 199.085C164.593 199.085 157.819 206.581 146.805 225.853C139.408 238.794 135.925 287.859 135.925 287.859C135.925 287.859 140.797 301.648 176.942 301.826L180.664 285.348L181.95 301.766C182.84 301.743 183.748 301.709 184.675 301.669C215.924 300.296 222.177 293.444 222.177 293.444C222.177 293.444 223.308 238.304 219.736 203.236C208.763 210.171 176.549 210.171 164.593 199.085Z" fill="#C1C2BF"/>
<path d="M180.664 285.348L189.276 258.211C189.276 258.211 202.673 257.628 213.517 250.455C213.517 250.455 210.752 260.407 192.252 262.162L182.683 288.727L181.95 301.766L180.664 285.348Z" fill="#17282F"/>
<path d="M154.106 291.039C141.492 287.032 136.742 281.253 136.742 281.253L136.741 281.261L135.925 287.734C135.925 287.734 140.797 301.522 176.942 301.7L178.594 294.389C178.594 294.389 166.72 295.047 154.106 291.039Z" fill="#273E47"/>
<path d="M222.177 293.444C222.177 293.444 222.23 290.795 222.278 286.29C221.579 286.69 212.979 290.555 202.251 292.364C191.044 294.252 181.344 294.028 181.343 294.028L181.948 301.766C182.84 301.743 183.748 301.709 184.675 301.669C215.924 300.296 222.177 293.444 222.177 293.444Z" fill="#273E47"/>
<path d="M228.939 155.337C222.687 143.796 209.498 132.329 205.235 128.359L179.066 126.823C173.908 126.751 169.806 127.147 167.086 128.418C161.45 131.057 160.544 136.575 159.951 143.162C159.289 150.384 159.058 153.562 160.242 165.642L162.811 181.106L163.206 183.48C163.275 183.888 163.333 184.296 163.402 184.716C164.275 190.45 163.463 196.42 160.236 201.891C153.514 213.291 146.945 222.07 144.33 231.846C144.33 231.846 147.932 230.82 152.637 226.731C156.732 223.171 159.167 221.554 162.537 217.26C162.537 217.26 162.427 223.99 168.341 233.216C169.748 235.423 171.479 237.643 173.606 239.73C184.575 250.526 219.19 257.185 222.281 225.85C222.281 225.85 219.678 205.779 219.446 199.085C220.781 193.399 224.313 183.625 224.523 181.429C232.948 174.568 233.494 163.735 228.939 155.337Z" fill="#65E6D4"/>
<path d="M198.166 187.001C196.475 187.001 194.634 186.734 192.649 186.101C179.587 181.934 180.687 169.711 180.687 169.711C180.687 169.711 182.197 179.058 192.551 182.847C194.694 183.632 196.781 183.943 198.745 183.943C206.272 183.943 211.98 179.371 211.98 179.371C211.98 179.371 207.208 187.001 198.166 187.001Z" fill="#1DB3A0"/>
<path d="M220.022 64.5174C223.56 67.1052 227.385 77.1568 225.311 97.3675C223.554 114.498 217.826 118.278 215.022 119.27C212.218 120.261 207.059 119.073 202.056 117.766L201.232 128.067C201.232 128.067 207.57 137.072 206.751 141.758C205.932 146.444 196.159 146.734 189.968 141.56C183.777 136.387 180.131 129.004 180.131 129.004L182.268 102.312C182.268 102.312 178.656 105.872 173.361 101.553C168.067 97.235 169.154 89.7433 172.684 86.6083C176.214 83.4732 182.272 85.7841 183.204 90.6112C183.204 90.6112 191.269 91.6063 202.533 86.4148C213.797 81.2234 218.773 71.1108 220.022 64.5174Z" fill="#F6879F"/>
<path d="M205.234 91.3148C205.195 92.5563 204.223 93.5288 203.067 93.4865C201.909 93.4454 201.002 92.4053 201.041 91.1624C201.08 89.9208 202.049 88.9482 203.207 88.9907C204.364 89.0318 205.272 90.0732 205.234 91.3148Z" fill="#17282F"/>
<path d="M206.489 106.07L211.216 108.083C210.698 109.482 209.221 110.167 207.915 109.612C206.61 109.056 205.971 107.47 206.489 106.07Z" fill="#F47089"/>
<path d="M222.905 86.1498L218.917 82.7618C219.788 81.5812 221.389 81.3824 222.489 82.3166C223.59 83.2534 223.776 84.9693 222.905 86.1498Z" fill="#17282F"/>
<path d="M221.523 91.1333C221.485 92.3749 220.515 93.3475 219.358 93.305C218.199 93.2639 217.293 92.2238 217.332 90.9809C217.37 89.7394 218.341 88.7668 219.497 88.8079C220.656 88.8502 221.562 89.8904 221.523 91.1333Z" fill="#17282F"/>
<path d="M211.413 89.0265L210.705 102.048L217.497 100.493L211.413 89.0265Z" fill="#F47089"/>
<path d="M202.055 117.766C196.766 116.587 186.029 112.387 184.675 107.752C184.675 107.752 185.02 110.622 188.074 113.809C191.126 116.996 201.781 121.203 201.781 121.203L202.055 117.766Z" fill="#F47089"/>
<path d="M177.751 146.254C177.352 132.519 172.31 127.1 172.31 127.1C163.676 126.815 152.725 127.083 145.06 140.913C141.224 147.835 118.847 186.437 118.847 186.437C113.857 182.534 89.2028 160.882 87.6491 159.286C85.8562 157.178 85.1118 155.408 84.7981 153.37C84.8147 151.279 84.6775 149.095 84.5721 148.084C84.1199 143.758 83.4299 142.608 82.3029 139.134C81.8259 137.664 81.7783 136.758 81.5653 135.601C81.5102 135.302 81.4254 134.969 81.1711 134.814C80.9574 134.682 80.6865 134.719 80.4459 134.785C78.986 135.195 78.5889 136.026 78.1443 137.519C77.6991 139.012 77.9644 140.985 78.1271 142.538C78.2629 143.829 78.4876 145.222 77.6136 145.711C76.3184 146.201 75.4981 144.81 75.0198 144.144C73.1931 141.006 68.3679 131.722 66.1805 128.154C65.6856 127.347 65.1356 126.501 64.2873 126.122C62.879 125.49 61.8041 126.419 61.7625 128.002C61.7459 128.601 61.9424 129.182 62.1541 129.739C63.2474 132.625 66.7494 139.683 67.493 141.56C67.7667 142.25 68.1322 143.497 67.499 143.839C66.4011 144.704 64.8233 143.28 63.7158 142.141C59.1132 137.412 57.895 136.501 54.7801 133.533C53.5417 132.352 52.2682 132.564 51.4716 133.167C50.8379 133.647 50.6162 134.842 51.3211 135.921C51.7613 136.594 53.0378 138.2 54.0856 139.45C55.8645 141.573 61.4711 147.939 61.4711 147.939C59.7926 148.234 58.6295 150.794 60.1591 153.357C60.1591 153.357 58.244 155.943 60.4233 159.336C61.8562 161.568 64.9265 165.26 69.0594 166.922C71.1232 167.753 72.9946 168.188 75.463 170.9C79.962 175.841 96.6575 194.368 108.632 206.26C112.251 209.854 117.801 214.143 121.926 214.336C124.495 214.456 128.196 210.236 130.063 207.924C132.404 205.025 159.373 166.096 159.373 166.096L161.971 176.048C172.814 167.403 178.147 159.99 177.751 146.254Z" fill="#F6879F"/>
<path d="M159.373 166.096L165.964 157.039L160.841 171.716L159.373 166.096Z" fill="#F47089"/>
<path d="M463.852 501.175C464.348 503.203 465.391 508.948 475.738 508.948C486.085 508.948 492.021 504.571 494.056 499.143C496.092 493.714 494.924 489.691 494.737 484.958C494.547 480.227 497.954 477.208 498.709 474.651C499.819 470.882 496.771 465.696 496.771 465.696L463.852 501.175Z" fill="#17282F"/>
<path d="M364.333 466.281C363.95 466.572 363.723 469.902 364.815 471.427C365.567 472.476 372.51 477.679 381.079 476.597C389.646 475.515 393.829 473.213 398.723 470.233C403.733 467.183 407.192 466.742 412.288 466.76C417.226 466.776 420.875 465.782 421.297 464.46C422.036 462.14 422.09 460.653 421.008 460.686L364.333 466.281Z" fill="#17282F"/>
<path d="M493.15 457.461C493.327 462.961 477.044 467.732 477.442 460.738L471.827 440.441L490.034 438.447L493.15 457.461Z" fill="#C35363"/>
<path d="M417.403 444.55C412.292 448.341 407.573 448.809 401.567 445.697L398.541 412.47H420.646L417.403 444.55Z" fill="#C35363"/>
<path d="M464.816 229.463C469.049 269.558 476.581 345.042 476.581 345.042C476.581 345.042 483.241 355.528 485.723 374.871C488.787 398.752 491.823 448.602 491.823 448.602C491.823 448.602 484.338 454.016 473.816 450.507C473.816 450.507 447.853 377.326 443.05 353.815C438.86 333.296 431.438 296.652 431.438 296.652L422.156 348.503C422.156 348.503 425.801 360.407 425.153 376.454C424.706 387.5 419.681 429.292 419.681 429.292C418.185 433.861 404.297 433.542 399.827 430.603C399.827 430.603 392.715 360.338 391.777 348.735C390.544 333.472 388.257 229.463 388.257 229.463H464.816Z" fill="#273E47"/>
<path d="M431.438 296.652L426.255 271.99C426.255 271.99 414.674 269.262 406.4 262.412C406.4 262.412 409.434 270.281 422.12 276.302L427.412 299.405L422.857 344.581L431.438 296.652Z" fill="#17282F"/>
<path d="M477.442 460.738L476.855 458.62C476.176 459.319 476.284 459.919 476.262 461.822C476.247 463.313 476.242 464.765 476.066 466.755C475.798 469.797 475.506 470.87 474.689 474.456C473.354 480.311 471.845 482.653 467.856 489.886C466.909 491.602 464.621 494.453 463.951 496.303C463.282 498.153 463.072 501.539 465.189 502.833C471.241 506.529 480.581 505.521 486.509 502.646C491.068 500.433 493.923 495.94 493.951 490.739C493.959 489.245 493.65 487.768 493.592 486.277C493.458 482.871 494.625 479.553 496.043 476.478C496.867 474.693 497.79 472.931 498.233 471.008C499.028 467.553 497.449 464.062 496.138 460.958C495.008 458.278 493.688 454.701 492.803 455.112C492.851 455.452 493.15 457.461 493.15 457.461C492.231 458.911 489.344 460.666 485.897 461.361C483.67 461.81 477.688 462.506 477.442 460.738Z" fill="#33535F"/>
<path d="M400.937 438.769C400.145 438.79 399.341 439.41 397.943 441.521C396.189 444.166 394.655 445.841 390.623 448.766C385.412 452.551 377.184 456.368 368.721 459.635C364.108 461.415 363.232 464.852 364.756 467.933C367.144 470.399 375.277 476.154 388.639 471.952C396.929 469.344 399.844 464.953 405.766 464.178C409.954 463.629 417.223 464.817 421.501 461.243C422.848 457.907 421.768 454.549 421.34 449.909C420.921 445.387 419.472 437.865 418.048 438.157L417.801 440.608C416.663 445.974 404.703 446.502 401.32 442.996L400.937 438.769Z" fill="#33535F"/>
<path d="M433.218 118.299C446.5 119.149 463.84 118.976 464.647 133.028C465.883 154.588 461.885 199.826 461.885 199.826L466.178 236.998C456.444 247.744 412.921 253.352 388.055 237.602C388.055 237.602 388.159 163.972 390.11 151.765C393.622 129.8 401.716 120.166 409.482 119.552L433.218 118.299Z" fill="#248A7F"/>
<path d="M427.618 67.0522C428.322 79.1312 419.405 89.5141 407.705 90.2402C396.004 90.9677 385.946 81.7626 385.243 69.6837C384.538 57.6021 393.455 47.2206 405.156 46.4944C416.858 45.767 426.913 54.972 427.618 67.0522Z" fill="#17282F"/>
<path d="M443.961 81.6461C443.961 81.6461 441.497 98.5124 440.281 101.333C439.063 104.154 436.264 105.11 436.264 105.11L435.821 93.3806L443.961 81.6461Z" fill="#17282F"/>
<path d="M438.262 58.0565C438.262 58.0565 441.921 57.1728 444.983 60.0375C447.982 62.8452 446.948 72.2821 443.961 81.6461L437.538 82.8134L438.262 58.0565Z" fill="#17282F"/>
<path d="M435.599 82.9406C436.943 83.6588 438.643 80.9716 440.142 79.1457C441.64 77.3198 446.723 74.634 449.658 80.1368C452.649 85.7457 448.14 93.6826 444.107 95.2686C437.157 98.0048 435.821 93.3805 435.821 93.3805L436.881 120.597C428.753 132.8 404.257 133.333 413.73 120.525L413.283 112.495C413.283 112.495 406.924 113.9 403.765 113.594C398.507 113.085 394.982 109.046 393.063 103.323C389.98 94.1304 388.576 86.6414 389.66 68.1201C390.844 47.8181 413.538 46.1989 426.265 53.4044C438.991 60.6112 435.599 82.9406 435.599 82.9406Z" fill="#C35363"/>
<path d="M435.73 85.1919C436.384 85.1641 438.615 80.7623 440.142 79.1458C442.256 76.9051 438.262 58.0566 438.262 58.0566C438.262 58.0566 440.716 52.5074 436.124 47.8804C432.856 44.589 428.335 40.6033 414.528 43.1633C404.688 44.9892 394.086 48.8503 385.114 44.9706C384.134 50.651 385.552 56.8309 391.228 60.9173C391.228 60.9173 394.506 62.8227 402.864 63.3501C411.222 63.8774 424.073 61.8316 425.826 61.4725C428.213 60.9836 428.866 63.358 430.546 69.8546C432.02 75.5575 433.536 85.2846 435.73 85.1919Z" fill="#17282F"/>
<path d="M438.335 59.5379L445.923 54.7055C444.676 52.4556 441.965 51.7123 439.87 53.0466C437.775 54.3822 437.088 57.2867 438.335 59.5379Z" fill="#17282F"/>
<path d="M413.283 112.495C413.283 112.495 424.77 109.355 428.705 106.871C431.339 105.209 433.43 102.482 433.991 100.782C433.991 100.782 433.436 104.391 431.192 107.75C428.448 111.859 413.469 115.689 413.469 115.689L413.283 112.495Z" fill="#AA3B4B"/>
<path d="M414.267 81.2525C414.348 82.6332 415.456 83.6839 416.743 83.6005C418.03 83.517 419.007 82.3297 418.926 80.9491C418.847 79.5697 417.738 78.5177 416.452 78.6011C415.166 78.6846 414.187 79.8718 414.267 81.2525Z" fill="#17282F"/>
<path d="M416.209 72.0171L421.361 74.5478C422.01 73.0227 421.382 71.2207 419.96 70.5211C418.538 69.8228 416.858 70.492 416.209 72.0171Z" fill="#17282F"/>
<path d="M413.495 97.9783L408.294 100.37C408.912 101.911 410.578 102.625 412.013 101.965C413.45 101.304 414.112 99.5193 413.495 97.9783Z" fill="#AA3B4B"/>
<path d="M393.076 75.4635L397.411 71.5665C396.404 70.2799 394.62 70.1103 393.422 71.1863C392.226 72.2622 392.07 74.1755 393.076 75.4635Z" fill="#17282F"/>
<path d="M394.847 81.7706C394.928 83.1513 396.036 84.202 397.323 84.1186C398.609 84.035 399.588 82.8479 399.506 81.4671C399.427 80.0878 398.319 79.0357 397.033 79.1191C395.745 79.2027 394.768 80.3899 394.847 81.7706Z" fill="#17282F"/>
<path d="M406.586 78.7521L406.665 93.2665L399.197 91.1465L406.586 78.7521Z" fill="#AA3B4B"/>
<path d="M451.68 121.651C466.599 122.464 471.017 130.416 479.921 145.894C487.103 158.385 505.696 189.126 505.696 189.126C510.396 183.669 530.845 153.846 532.227 151.725C533.766 148.984 533.39 145.816 533.302 143.487C532.84 141.174 532.529 138.723 532.43 137.577C532.011 132.681 532.531 131.25 533.04 127.145C533.256 125.408 533.118 124.391 533.107 123.062C533.105 122.718 533.128 122.33 533.377 122.099C533.585 121.906 533.894 121.884 534.174 121.904C535.878 122.028 536.496 122.859 537.307 124.411C538.117 125.964 538.242 128.212 538.393 129.97C538.517 131.433 538.564 133.026 539.636 133.37C541.175 133.62 541.789 131.891 542.178 131.046C543.534 127.154 546.909 115.771 548.574 111.323C548.951 110.317 549.379 109.254 550.239 108.64C551.665 107.622 553.054 108.406 553.437 110.153C553.583 110.813 553.489 111.5 553.373 112.165C552.774 115.612 550.395 124.228 549.97 126.476C549.814 127.304 549.673 128.768 550.447 129.003C551.849 129.714 553.295 127.777 554.28 126.265C558.376 119.98 559.531 118.695 562.35 114.699C563.472 113.109 564.929 113.056 565.94 113.543C566.745 113.932 567.244 115.205 566.692 116.562C566.348 117.407 565.275 119.475 564.378 121.099C562.86 123.853 557.999 132.18 557.999 132.18C559.923 132.129 561.756 134.701 560.606 137.887C560.606 137.887 563.866 140.73 562.173 144.985C561.059 147.782 558.67 153.02 554.442 155.801C552.332 157.19 550.45 158.643 548.291 162.207C544.357 168.702 535.071 187.69 523.127 206.202C519.631 211.616 515.214 218.323 510.323 221.152C505.37 224.016 497.649 219.384 492.814 214.08C483.549 203.918 458.525 166.224 458.525 166.224L451.68 121.651Z" fill="#C35363"/>
<path d="M451.446 120.073C451.446 120.073 441.145 143.932 458.278 168.265L471.912 189.838C480.169 189.838 489.835 179.537 494.8 169.192C494.8 169.192 482.574 148.234 476.288 137.883C470.582 128.487 464.73 120.073 451.446 120.073Z" fill="#26B6A6"/>
<path d="M471.913 189.838L463.596 176.678L458.278 168.265C450.498 157.215 448.375 146.264 448.376 137.598C448.376 127.183 451.446 120.073 451.446 120.073C464.73 120.073 470.582 128.487 476.288 137.883C482.574 148.234 494.799 169.192 494.799 169.192C494.639 169.527 494.473 169.861 494.304 170.195C489.737 179.16 481.777 187.845 474.422 189.541C473.575 189.735 472.738 189.838 471.913 189.838Z" fill="#248A7F"/>
</svg>
