<svg width="566" height="539" viewBox="0 0 566 539" fill="none" xmlns="http://www.w3.org/2000/svg">
<path opacity="0.7" d="M302.5 510.774C455.225 510.774 579.033 441.065 579.033 355.073C579.033 269.082 455.225 199.372 302.5 199.372C149.775 199.372 25.9666 269.082 25.9666 355.073C25.9666 441.065 149.775 510.774 302.5 510.774Z" fill="#F0F0F0"/>
<path d="M423.076 471.162C462.177 471.162 493.874 453.316 493.874 431.301C493.874 409.287 462.177 391.441 423.076 391.441C383.976 391.441 352.279 409.287 352.279 431.301C352.279 453.316 383.976 471.162 423.076 471.162Z" fill="#E0E0E0"/>
<path d="M190.575 471.162C229.675 471.162 261.372 453.316 261.372 431.301C261.372 409.287 229.675 391.441 190.575 391.441C151.475 391.441 119.778 409.287 119.778 431.301C119.778 453.316 151.475 471.162 190.575 471.162Z" fill="#E0E0E0"/>
<path d="M488.078 304.475C488.078 304.475 485.028 302.115 483.48 302.434C482.754 302.575 483.286 304.51 482.451 308.168C482.108 309.486 481.439 310.701 480.503 311.708L479.946 311.862H479.789L478.313 312.263C465.426 315.803 436.253 323.473 421.649 324.972C410.505 326.152 406.015 323.261 402.942 313.655C398.102 298.315 394.799 260.791 393.891 249.322C385.905 267.812 378.294 286.563 371.228 305.325C387.599 318.871 398.271 358.743 404.079 374.248L405.374 377.517L406.028 379.145C406.028 379.145 409.234 382.851 404.733 387.559C400.232 392.267 394.896 392.373 392.463 389.742C379.444 371.912 356.696 342.223 345.842 324.57C338.122 311.992 336.961 309.643 338.473 300.746C343.313 271.813 353.138 233.262 362.758 203.597L362.939 203.172L431.667 207.314C435.987 239.776 431.28 295.814 431.28 295.814L476.413 293.725L479.487 293.43C480.443 293.879 481.991 296.062 482.717 297.985C483.443 299.908 486.529 301.242 488.078 304.475Z" fill="#B16668"/>
<path d="M478.313 312.31L479.789 311.909H479.947L480.503 311.756C481.439 310.748 482.108 309.533 482.451 308.216C483.286 304.558 482.754 302.622 483.48 302.481C485.029 302.186 488.078 304.522 488.078 304.522C486.529 301.289 483.492 300.074 482.766 298.138C482.04 296.203 480.491 294.032 479.535 293.584L476.462 293.879L431.28 295.92C431.28 295.92 436.895 314.269 426.924 324.323C442.437 321.88 466.842 315.414 478.313 312.31Z" fill="#37474F"/>
<path d="M435.806 322.694C441.856 312.369 439.835 302.198 436.919 295.637L431.28 295.908C431.28 295.908 436.895 314.257 426.924 324.311C429.647 323.886 432.648 323.331 435.806 322.694Z" fill="#00BFA5"/>
<path d="M405.35 377.564L404.14 374.296C399.058 360.82 390.382 329.196 377.52 312.145C373.297 323.343 356.006 329.609 348.117 328.217C359.636 346.094 380.303 373.116 392.464 389.789C394.884 392.42 400.22 392.326 404.733 387.606C409.246 382.886 406.028 379.193 406.028 379.193L405.35 377.564Z" fill="#37474F"/>
<path d="M377.52 312.145C373.297 323.343 356.006 329.609 348.117 328.217C349.545 330.435 351.106 332.783 352.775 335.226C366.957 335.497 376.83 327.509 382.106 319.095C380.717 316.694 379.185 314.373 377.52 312.145V312.145Z" fill="#00BFA5"/>
<path d="M411.122 383.83C411.896 384.774 413.288 386.733 413.118 387.83C412.949 388.928 410.952 394.485 410.698 400.232C410.48 405.33 412.779 415.029 407.746 421.932C403.317 427.986 399.276 429.413 395.646 430.086C394.227 430.431 392.744 430.439 391.321 430.111C389.898 429.783 388.576 429.127 387.466 428.198C387.466 428.198 384.235 425.378 385.675 423.207C387.115 421.035 411.122 383.83 411.122 383.83Z" fill="#37474F"/>
<path d="M411.4 384.29C411.219 382.872 410.574 381.548 409.561 380.514C408.06 378.933 406.427 377.576 405.834 375.405C405.628 374.638 405.447 373.198 404.479 372.939C404.394 372.939 403.523 372.939 403.523 372.939L404.261 375.074C403.85 375.959 403.051 378.024 402.664 378.933C401.793 381.293 402.894 383.759 401.151 385.824C401.03 383.205 400.921 380.172 399.143 380.207C397.933 380.207 395.803 381.8 393.383 382.143C390.963 382.485 389.051 382.013 388.107 382.355C387.164 382.697 387.696 383.865 388.301 386.579C389.078 389.62 389.52 392.734 389.62 395.866C389.414 398.368 389.148 400.952 388.773 403.418C387.333 412.929 383.788 417.814 384.598 422.935C385.433 428.245 394 430.11 400.171 425.508C410.674 417.684 408.508 409.802 408.327 403.984C408.108 400.225 408.463 396.455 409.379 392.798C410.347 389.376 411.4 387.618 411.4 384.29Z" fill="#00BFA5"/>
<path opacity="0.4" d="M411.4 384.29C411.219 382.872 410.574 381.548 409.561 380.514C408.06 378.933 406.427 377.576 405.834 375.405C405.628 374.638 405.447 373.198 404.479 372.939C404.394 372.939 403.523 372.939 403.523 372.939L404.261 375.074C403.85 375.959 403.051 378.024 402.664 378.933C401.793 381.293 402.894 383.759 401.151 385.824C401.03 383.205 400.921 380.172 399.143 380.207C397.933 380.207 395.803 381.8 393.383 382.143C390.963 382.485 389.051 382.013 388.107 382.355C387.164 382.697 387.696 383.865 388.301 386.579C389.078 389.62 389.52 392.734 389.62 395.866C389.414 398.368 389.148 400.952 388.773 403.418C387.333 412.929 383.788 417.814 384.598 422.935C385.433 428.245 394 430.11 400.171 425.508C410.674 417.684 408.508 409.802 408.327 403.984C408.108 400.225 408.463 396.455 409.379 392.798C410.347 389.376 411.4 387.618 411.4 384.29Z" fill="black"/>
<path opacity="0.15" d="M405.882 375.405C405.877 375.428 405.877 375.452 405.882 375.476V375.605C405.67 376.916 405.375 378.213 404.999 379.488C404.66 381.022 404.442 382.579 404.213 384.137C404.055 385.222 403.971 386.308 403.922 387.405C403.874 388.503 403.825 389.388 403.837 390.379C403.91 395.099 404.612 398.863 403.414 404.917C402.216 410.97 400.462 411.548 399.215 410.817C397.969 410.085 399.118 408.516 400.304 403.194C401.514 397.624 400.522 391.535 401.139 385.812C401.568 385.328 401.867 384.749 402.01 384.125V384.125C402.434 382.461 402.01 380.656 402.652 378.957C403.003 378.048 403.862 375.983 404.249 375.098L403.511 372.962H403.789H404.128H404.285H404.467C405.072 373.116 405.362 373.741 405.556 374.378C405.725 374.732 405.798 375.122 405.882 375.405Z" fill="black"/>
<path opacity="0.15" d="M402.446 416.103C399.215 417.932 397.267 417.519 397.34 414.404C397.507 412.202 398.168 410.063 399.276 408.138L390.806 408.48C390.806 408.48 391.35 414.156 389.656 415.56C388.616 416.398 387.152 415.088 386.305 413.413C385.095 417.153 384.127 420.032 384.598 422.982C385.433 428.292 394 430.157 400.171 425.555C408.968 418.994 408.871 412.41 408.508 407.029C408.665 410.238 405.677 414.274 402.446 416.103Z" fill="black"/>
<path opacity="0.15" d="M388.41 386.78C389.109 389.756 389.514 392.791 389.62 395.842C389.414 398.344 389.148 400.928 388.773 403.394C388.519 405.023 388.216 406.51 387.878 407.89C387.944 408.655 388.21 409.391 388.652 410.026C389.729 410.946 390.201 410.852 390.806 408.457C391.471 405.766 391.496 390.993 388.386 386.78H388.41Z" fill="black"/>
<path d="M388.7 409.2C388.776 409.346 388.899 409.464 389.049 409.537C389.2 409.609 389.37 409.632 389.535 409.601C393.231 409.023 396.992 408.968 400.704 409.436C400.805 409.452 400.908 409.449 401.007 409.426C401.107 409.404 401.201 409.362 401.284 409.304C401.367 409.246 401.438 409.173 401.492 409.088C401.546 409.003 401.582 408.909 401.599 408.811C401.616 408.712 401.612 408.612 401.589 408.514C401.566 408.417 401.523 408.326 401.464 408.244C401.404 408.163 401.329 408.095 401.242 408.042C401.155 407.989 401.059 407.954 400.958 407.937C397.07 407.435 393.128 407.49 389.257 408.103C389.054 408.14 388.874 408.254 388.756 408.419C388.639 408.585 388.592 408.789 388.628 408.988C388.637 409.062 388.662 409.135 388.7 409.2Z" fill="#E0E0E0"/>
<path d="M389.003 405.247C389.085 405.415 389.229 405.546 389.407 405.614C389.584 405.682 389.782 405.682 389.959 405.613C393.683 404.392 397.704 404.33 401.466 405.436C401.662 405.504 401.877 405.494 402.065 405.408C402.254 405.322 402.399 405.166 402.47 404.976C402.536 404.785 402.522 404.576 402.432 404.395C402.341 404.214 402.181 404.075 401.986 404.008C397.888 402.757 393.486 402.819 389.426 404.185C389.231 404.254 389.072 404.396 388.983 404.58C388.895 404.763 388.884 404.973 388.954 405.164C388.966 405.194 388.982 405.222 389.003 405.247V405.247Z" fill="#E0E0E0"/>
<path d="M388.942 401.554C389.033 401.731 389.192 401.866 389.385 401.93C389.577 401.994 389.788 401.982 389.971 401.896C393.756 400.3 397.988 400.016 401.962 401.093C402.161 401.153 402.376 401.135 402.561 401.042C402.747 400.95 402.888 400.79 402.954 400.598C403.015 400.405 402.996 400.197 402.901 400.018C402.806 399.839 402.642 399.704 402.446 399.642C398.091 398.431 393.439 398.739 389.293 400.515C389.108 400.604 388.967 400.76 388.899 400.95C388.831 401.14 388.842 401.348 388.93 401.53L388.942 401.554Z" fill="#E0E0E0"/>
<path d="M388.882 397.636C388.932 397.723 389 397.8 389.081 397.862C389.162 397.923 389.254 397.969 389.354 397.995C389.453 398.021 389.556 398.028 389.658 398.015C389.76 398.002 389.858 397.97 389.947 397.919C395.392 394.851 401.829 396.739 401.889 396.739C402.087 396.796 402.299 396.775 402.481 396.683C402.664 396.591 402.803 396.433 402.87 396.244C402.901 396.148 402.913 396.048 402.905 395.948C402.897 395.848 402.868 395.751 402.821 395.662C402.773 395.573 402.708 395.494 402.63 395.43C402.551 395.366 402.459 395.317 402.361 395.288C402.071 395.193 395.222 393.152 389.172 396.55C389.076 396.599 388.991 396.667 388.924 396.75C388.856 396.832 388.807 396.928 388.779 397.03C388.752 397.133 388.747 397.239 388.765 397.344C388.782 397.448 388.822 397.548 388.882 397.636Z" fill="#E0E0E0"/>
<path d="M388.93 393.494V393.553C389.042 393.723 389.218 393.842 389.419 393.886C389.621 393.931 389.832 393.896 390.007 393.789C395.198 390.58 402.107 392.609 402.168 392.609C402.362 392.653 402.566 392.624 402.738 392.527C402.911 392.43 403.039 392.273 403.098 392.087C403.156 391.901 403.14 391.701 403.053 391.526C402.966 391.351 402.814 391.216 402.628 391.146C402.313 391.052 394.968 388.916 389.184 392.503C389.02 392.605 388.902 392.765 388.855 392.949C388.808 393.134 388.835 393.329 388.93 393.494V393.494Z" fill="#E0E0E0"/>
<path d="M388.652 389.919C388.764 390.088 388.939 390.208 389.141 390.252C389.342 390.296 389.554 390.261 389.729 390.155C391.547 389.197 393.542 388.6 395.597 388.397C397.653 388.194 399.73 388.391 401.708 388.975C401.803 389.011 401.905 389.029 402.007 389.027C402.11 389.025 402.211 389.004 402.305 388.964C402.398 388.924 402.483 388.866 402.554 388.794C402.625 388.722 402.681 388.637 402.718 388.544C402.756 388.451 402.774 388.352 402.772 388.252C402.77 388.152 402.748 388.054 402.707 387.962C402.666 387.871 402.607 387.788 402.533 387.719C402.459 387.65 402.372 387.595 402.277 387.559C400.074 386.887 397.754 386.655 395.457 386.876C393.16 387.097 390.932 387.766 388.906 388.845C388.813 388.896 388.732 388.965 388.668 389.048C388.604 389.131 388.559 389.226 388.535 389.327C388.511 389.428 388.509 389.533 388.529 389.635C388.549 389.737 388.591 389.834 388.652 389.919V389.919Z" fill="#E0E0E0"/>
<path d="M499.234 338.778C501 339.497 505.598 339.556 508.031 337.739C513.1 333.975 513.657 323.579 511.661 317.998C509.241 311.201 505.163 307.909 503.602 303.838C502.041 299.767 502.077 293.796 500.117 290.256C499.326 288.9 498.246 287.725 496.95 286.811C495.654 285.897 494.171 285.265 492.603 284.958C491.599 284.741 490.557 284.751 489.556 284.986C488.556 285.221 487.624 285.675 486.831 286.315L485.295 287.495L499.234 338.778Z" fill="#263238"/>
<path d="M509.156 319.791C507.414 312.169 499.198 307.437 498.883 299.897C498.568 292.356 493.486 282.716 483.964 288.25C481.247 289.828 478.719 291.696 476.425 293.82L479.499 293.525C480.455 293.973 482.004 296.156 482.73 298.079C483.456 300.003 486.493 301.23 488.041 304.463C488.041 304.463 484.992 302.103 483.443 302.422C482.717 302.563 483.25 304.499 482.415 308.157C482.071 309.474 481.403 310.689 480.467 311.697L479.922 311.838H479.765L478.289 312.239C479.559 312.888 483.044 313.419 485.283 315.048C486.165 315.951 486.91 316.972 487.497 318.08C488.394 319.906 489.122 321.805 489.675 323.756C490.607 326.659 491.562 329.562 492.603 332.429C493.072 333.911 493.743 335.324 494.6 336.63C497.286 340.371 502.549 340.099 505.78 337.137C507.39 335.75 508.579 333.958 509.216 331.957C510.62 327.922 510.003 323.449 509.156 319.791Z" fill="#00BFA5"/>
<path opacity="0.4" d="M509.156 319.791C507.414 312.169 499.198 307.437 498.883 299.897C498.568 292.356 493.486 282.716 483.964 288.25C481.247 289.828 478.719 291.696 476.425 293.82L479.499 293.525C480.455 293.973 482.004 296.156 482.73 298.079C483.456 300.003 486.493 301.23 488.041 304.463C488.041 304.463 484.992 302.103 483.443 302.422C482.717 302.563 483.25 304.499 482.415 308.157C482.071 309.474 481.403 310.689 480.467 311.697L479.922 311.838H479.765L478.289 312.239C479.559 312.888 483.044 313.419 485.283 315.048C486.165 315.951 486.91 316.972 487.497 318.08C488.394 319.906 489.122 321.805 489.675 323.756C490.607 326.659 491.562 329.562 492.603 332.429C493.072 333.911 493.743 335.324 494.6 336.63C497.286 340.371 502.549 340.099 505.78 337.137C507.39 335.75 508.579 333.958 509.216 331.957C510.62 327.922 510.003 323.449 509.156 319.791Z" fill="black"/>
<path opacity="0.15" d="M491.49 324.83C491.153 323.167 490.68 321.534 490.074 319.945C489.458 318.349 488.453 316.923 487.146 315.791C485.783 314.75 484.194 314.027 482.5 313.679C483.503 314.02 484.449 314.506 485.307 315.119V315.119C486.189 316.022 486.935 317.043 487.521 318.151C488.418 319.977 489.147 321.876 489.699 323.827C490.268 325.562 490.836 327.296 491.429 329.031C491.608 328.864 491.755 328.668 491.865 328.453C492.082 327.781 492.082 327.06 491.865 326.388L491.49 324.83Z" fill="black"/>
<path opacity="0.15" d="M508.962 323.19C508.903 324.688 508.278 326.113 507.208 327.19C506.503 327.685 505.656 327.952 504.788 327.952C503.919 327.952 503.072 327.685 502.368 327.19C501.298 326.511 500.433 325.566 499.863 324.452C499.476 323.532 499.391 322.482 498.472 322.918C496.093 324.07 493.993 325.703 492.313 327.709C492.211 327.808 492.136 327.929 492.095 328.063C492.054 328.328 492.119 328.598 492.276 328.818C492.801 329.926 492.921 331.175 492.615 332.358V332.5C493.084 333.981 493.755 335.394 494.612 336.701C497.298 340.441 502.561 340.17 505.792 337.208C507.402 335.821 508.591 334.029 509.229 332.028C510.258 328.127 510.258 324.035 509.229 320.134C509.192 321.172 509.108 322.187 508.962 323.19Z" fill="black"/>
<path opacity="0.15" d="M497.31 307.472C496.376 306.135 495.242 304.942 493.946 303.932C493.317 303.448 492.615 303.177 491.986 302.752C491.29 302.266 490.641 301.716 490.05 301.112C487.63 298.752 485.936 295.885 483.831 293.3C483.152 292.44 482.3 291.725 481.326 291.2C480.943 291.006 480.536 290.859 480.116 290.763C478.785 291.755 477.527 292.805 476.413 293.82L479.487 293.525C480.443 293.973 481.991 296.156 482.717 298.079C483.443 300.003 486.347 301.195 487.969 304.333C489.518 305.62 491.175 306.788 492.603 308.121C493.788 309.153 494.761 310.394 495.471 311.779C497.226 315.328 498.531 319.073 499.355 322.93C499.439 323.683 499.736 324.398 500.214 324.995C500.342 325.132 500.498 325.242 500.672 325.317C500.846 325.392 501.034 325.43 501.224 325.43C501.414 325.43 501.603 325.392 501.777 325.317C501.95 325.242 502.107 325.132 502.235 324.995C502.388 324.736 502.471 324.444 502.477 324.146C502.648 320.819 502.056 317.498 500.746 314.422C499.908 311.973 498.753 309.637 497.31 307.472V307.472Z" fill="black"/>
<path d="M490.619 329.987C490.79 330.067 490.986 330.085 491.17 330.038C491.354 329.99 491.515 329.88 491.623 329.727C493.883 326.594 497.089 324.226 500.795 322.954C500.994 322.894 501.16 322.76 501.257 322.581C501.355 322.402 501.376 322.192 501.315 321.998C501.286 321.903 501.238 321.814 501.173 321.736C501.109 321.659 501.029 321.595 500.939 321.548C500.849 321.501 500.751 321.471 500.649 321.462C500.547 321.452 500.445 321.462 500.347 321.491C496.284 322.852 492.771 325.439 490.316 328.877C490.204 329.047 490.164 329.253 490.205 329.451C490.245 329.65 490.364 329.825 490.534 329.939L490.619 329.987Z" fill="#E0E0E0"/>
<path d="M489.59 325.031C489.66 325.085 489.737 325.129 489.82 325.16C490.147 325.278 490.316 325.16 490.486 324.865C490.881 324.312 491.323 323.792 491.804 323.308C492.686 322.421 493.664 321.629 494.721 320.948C496.145 320.018 497.692 319.28 499.319 318.753L499.827 318.6C500.026 318.549 500.198 318.425 500.304 318.253C500.41 318.081 500.443 317.875 500.395 317.679C500.37 317.582 500.325 317.49 500.263 317.409C500.202 317.328 500.124 317.26 500.035 317.209C499.947 317.157 499.848 317.123 499.746 317.109C499.644 317.094 499.54 317.1 499.44 317.125C498.323 317.406 497.24 317.802 496.209 318.305C493.961 319.357 491.947 320.828 490.28 322.635C489.832 323.119 489.191 323.733 489.3 324.441C489.318 324.666 489.422 324.876 489.59 325.031V325.031Z" fill="#E0E0E0"/>
<path d="M488.15 321.066C488.646 321.443 489.058 320.665 489.36 320.322C489.752 319.799 490.185 319.305 490.655 318.847C491.52 318.02 492.474 317.284 493.498 316.653C494.779 315.858 496.158 315.224 497.6 314.765H497.782C497.964 314.697 498.113 314.567 498.202 314.398C498.291 314.23 498.313 314.035 498.263 313.852C498.213 313.669 498.096 313.51 497.933 313.406C497.771 313.302 497.575 313.261 497.383 313.29C496.266 313.6 495.187 314.028 494.164 314.564C491.979 315.631 490.047 317.13 488.489 318.965C488.288 319.146 488.127 319.365 488.014 319.608C487.902 319.852 487.841 320.115 487.836 320.381C487.845 320.612 487.935 320.833 488.09 321.007C488.108 321.028 488.128 321.048 488.15 321.066V321.066Z" fill="#E0E0E0"/>
<path d="M486.42 317.337C486.518 317.4 486.63 317.441 486.747 317.455C487.085 317.455 487.194 317.113 487.352 316.877C487.519 316.608 487.701 316.348 487.896 316.098C488.263 315.605 488.668 315.14 489.106 314.706C489.925 313.915 490.821 313.204 491.78 312.582C492.916 311.835 494.134 311.214 495.41 310.729H495.471C495.568 310.697 495.658 310.647 495.735 310.581C495.813 310.515 495.876 310.434 495.921 310.344C495.966 310.254 495.992 310.156 495.998 310.056C496.004 309.956 495.989 309.856 495.955 309.761C495.886 309.571 495.744 309.415 495.558 309.327C495.372 309.239 495.158 309.225 494.963 309.289C493.842 309.694 492.764 310.203 491.744 310.812C489.633 311.999 487.802 313.608 486.372 315.532C486.129 315.808 485.955 316.135 485.863 316.487C485.832 316.648 485.857 316.815 485.936 316.959C486.009 317.063 486.099 317.155 486.202 317.231L486.42 317.337Z" fill="#E0E0E0"/>
<path d="M489.965 304.522C489.854 304.499 489.738 304.499 489.627 304.522C489.288 304.581 489.276 304.971 489.191 305.23C489.106 305.49 488.973 305.82 488.852 306.115C488.606 306.679 488.324 307.227 488.005 307.755C487.419 308.724 486.729 309.63 485.948 310.458C485.041 311.458 484.018 312.353 482.899 313.124V313.124C482.814 313.179 482.741 313.25 482.684 313.333C482.627 313.415 482.587 313.508 482.567 313.606C482.547 313.703 482.546 313.803 482.566 313.901C482.586 313.999 482.625 314.092 482.681 314.175C482.737 314.258 482.81 314.329 482.895 314.384C482.979 314.44 483.074 314.479 483.174 314.498C483.274 314.518 483.377 314.518 483.478 314.499C483.578 314.48 483.673 314.442 483.758 314.387C484.741 313.731 485.653 312.98 486.48 312.145C488.233 310.478 489.603 308.467 490.498 306.245C490.664 305.919 490.751 305.559 490.752 305.195C490.739 305.032 490.671 304.879 490.558 304.758C490.467 304.667 490.355 304.599 490.232 304.558L489.965 304.522Z" fill="#E0E0E0"/>
<path d="M430.155 200.257C432.986 210.11 435.31 221.745 434.862 240.92C434.414 260.095 434.922 277.3 434.922 277.3C434.922 277.3 432.357 285.158 415.974 287.105C399.59 289.052 393.153 283.884 393.153 283.884L390.648 260.52L383.776 278.22C383.776 278.22 376.141 280.084 363.085 275.86C350.029 271.636 344.935 262.243 344.935 262.243C344.935 262.243 356.526 215.043 361.56 204.104L430.155 200.257Z" fill="#455A64"/>
<path d="M390.648 260.52L389.136 245.499C389.136 245.499 374.616 246.089 368.469 233.215C368.469 233.215 369.752 245.015 386.256 249.735L388.241 260.213L383.776 278.22L390.648 260.52Z" fill="#37474F"/>
<path d="M424.77 285.158C426.138 258.88 423.657 219.432 419.289 206.594L416.131 209.78C421.08 228.389 422.181 268.084 421.31 286.173C422.481 285.895 423.636 285.556 424.77 285.158V285.158Z" fill="#00BFA5"/>
<path d="M423.077 209.013C428.001 227.48 428.219 265.877 427.239 284.144C428.476 283.578 429.655 282.898 430.76 282.114C432.091 255.883 430.53 218.394 426.247 205.839L423.077 209.013Z" fill="#00BFA5"/>
<path d="M318.787 78.0448C320.595 83.3246 323.321 88.2621 326.845 92.6414C342.841 111.309 359.043 121.127 367.295 137.717C376.77 136.537 389.075 120.537 381.465 111.368C373.176 108.489 342.285 76.5462 339.417 71.897C336.803 67.0472 328.031 44.757 325.974 36.3318C325.664 34.9185 325.888 33.4438 326.603 32.1782C328.612 28.473 328.358 24.5082 329.265 20.7676C329.979 17.8412 331.262 16.4842 330.669 16.0476C329.919 15.5913 329.02 15.4277 328.152 15.5896C327.284 15.7515 326.51 16.2269 325.986 16.9208C324.639 18.7775 323.472 20.7527 322.501 22.8208C322.222 19.4405 322.198 16.0448 322.429 12.661C322.937 4.86119 321.098 -0.932607 312.24 4.02339C306.687 7.12679 303.577 15.1036 306.541 29.358C307.4 33.4526 308.961 43.0224 310.462 48.9106C313.257 59.7902 314.89 68.18 318.787 78.0448Z" fill="#B16668"/>
<path d="M386.438 111.392C382.687 109.657 378.185 108.253 373.237 104.312C368.07 100.205 361.657 95.556 361.657 95.556C361.657 95.556 350.392 104.489 350.658 117.681C354.809 121.75 358.412 126.318 361.379 131.275C363.616 135.106 365.371 139.187 366.606 143.429C366.606 143.429 379.057 145.789 381.332 132.714C382.53 125.501 384.236 118.376 386.438 111.392V111.392Z" fill="#00BFA5"/>
<path d="M366.63 173.483C366.17 169.625 366.291 162.462 366.206 160.503C355.764 151.807 359.721 142.485 363.024 134.968C369.643 119.958 376.334 111.297 382.917 111.25L401.067 111.769C410.444 111.934 421.274 112.442 423.681 112.843C429.816 113.87 432.672 119.923 433.361 126.212C434.075 133.08 435.721 133.611 434.571 145.092C434.571 145.092 430.349 156.892 426.573 167.347C426.573 167.347 425.206 175.053 426.573 178.64C429.09 185.283 432.708 200.694 433.966 211.892C433.966 211.892 427.299 221.108 397.134 221.096C375.197 221.096 358.414 209.898 358.414 209.898L366.63 173.483Z" fill="#00BFA5"/>
<path d="M430.421 134.555C430.421 135.558 430.337 136.632 430.252 137.871L363.351 134.331C363.859 133.151 364.355 132.124 364.863 131.086L430.421 134.555Z" fill="#455A64"/>
<path d="M382.953 111.285L401.103 111.805C410.48 111.97 421.31 112.477 423.718 112.878C429.852 113.905 429.368 119.333 430.01 125.599C430.327 127.38 430.493 129.184 430.506 130.991L366.509 127.9C371.954 117.303 377.52 111.333 382.953 111.285Z" fill="#455A64"/>
<path opacity="0.1" d="M420.342 178.321C420.245 177.224 420.185 176.115 420.185 175.017C420.237 171.346 420.737 167.694 421.673 164.138C423.391 157.4 427.033 149.978 425.569 146.225C424.105 142.473 420.475 136.124 422.157 123.876L432.03 120.607C432.696 122.428 433.123 124.323 433.301 126.248C434.015 133.115 435.66 133.646 434.511 145.128C434.511 145.128 430.288 156.928 426.513 167.383C426.513 167.383 425.146 175.088 426.513 178.675C429.03 185.319 432.648 200.729 433.906 211.928C433.906 211.928 427.239 221.143 397.074 221.132H396.178C408.278 218.512 420.039 210.512 421.818 197.72C422.762 191.278 420.899 184.811 420.342 178.321Z" fill="black"/>
<path opacity="0.1" d="M414.171 154.143C412.864 156.892 410.772 159.215 408.145 160.833C405.518 162.451 402.467 163.295 399.36 163.264C396.367 163.329 393.409 162.623 390.785 161.216C388.161 159.809 385.964 157.752 384.417 155.252C384.417 155.252 385.53 166.781 399.53 166.037C413.53 165.294 414.171 154.143 414.171 154.143Z" fill="black"/>
<path d="M366.727 63.8966C366.434 61.8862 366.414 59.847 366.666 57.8314C367.221 53.2186 369.5 48.967 373.067 45.8898C379.504 40.5916 387.66 42.3498 395.331 42.7038C409.222 43.3174 423.077 48.6038 426.973 60.6162C429.393 68.1328 428.388 77.1362 425.013 87.5792C422.096 96.677 418.37 102.07 410.662 103.214L396.432 100.854C390.056 101.975 383.921 99.509 379.214 95.379C377.949 94.2635 376.772 93.0565 375.693 91.7682C374.679 90.4851 373.961 89.004 373.588 87.4258C372.432 83.801 371.534 80.1028 370.901 76.3574C370.461 74.5804 369.786 72.8668 368.893 71.2598C367.826 68.9144 367.098 66.4366 366.727 63.8966V63.8966Z" fill="#263238"/>
<path d="M377.617 54.7752C374.059 56.6632 369.449 65.0412 369.207 82.9536C369.014 98.1402 373.914 102.058 376.407 103.226C378.899 104.394 383.8 103.91 388.579 103.309L388.241 112.406C388.241 112.406 387.611 122.13 391.435 122.767C401.853 122.13 410.638 112.867 410.638 112.867V93.491C411.892 93.9144 413.244 93.9748 414.533 93.6649C415.821 93.355 416.99 92.6881 417.898 91.7446C421.528 88.063 422.738 82.9654 419.858 79.8384C419.095 79.098 418.163 78.5444 417.138 78.2231C416.113 77.9019 415.025 77.822 413.962 77.9901C412.9 78.1582 411.893 78.5695 411.025 79.1902C410.157 79.811 409.452 80.6235 408.968 81.5612C408.968 81.5612 406.173 81.691 403.571 76.5462C398.893 76.8852 394.232 75.6981 390.322 73.1714C380.557 67.1888 378.367 57.8432 377.617 54.7752Z" fill="#B16668"/>
<path d="M389.475 78.8944C389.457 79.2687 389.553 79.6397 389.75 79.9614C389.947 80.2831 390.236 80.5413 390.583 80.7038C390.929 80.8663 391.316 80.9261 391.697 80.8757C392.078 80.8252 392.435 80.6668 392.724 80.4201C393.013 80.1734 393.221 79.8493 393.323 79.488C393.425 79.1267 393.416 78.7442 393.296 78.3881C393.177 78.0319 392.953 77.7178 392.652 77.4848C392.352 77.2517 391.987 77.11 391.604 77.0772C391.342 77.058 391.078 77.0899 390.828 77.1712C390.578 77.2525 390.347 77.3814 390.149 77.5506C389.951 77.7197 389.789 77.9257 389.673 78.1564C389.558 78.3871 389.49 78.638 389.475 78.8944V78.8944Z" fill="#263238"/>
<g style="mix-blend-mode:multiply" opacity="0.5">
<g style="mix-blend-mode:multiply" opacity="0.5">
<path d="M386.583 91.4968L380.412 93.1842C380.508 93.5868 380.686 93.9665 380.935 94.3007C381.185 94.6348 381.501 94.9165 381.864 95.129C382.228 95.3416 382.632 95.4805 383.052 95.5377C383.471 95.5948 383.899 95.5689 384.308 95.4616C385.139 95.2148 385.839 94.6643 386.263 93.9254C386.687 93.1864 386.802 92.3162 386.583 91.4968Z" fill="#9A4A4D"/>
</g>
</g>
<path d="M372.014 72.3336L376.068 69.7966C375.911 69.5321 375.701 69.3014 375.451 69.1184C375.2 68.9355 374.914 68.8042 374.609 68.7325C374.305 68.6607 373.989 68.6501 373.68 68.7012C373.371 68.7522 373.076 68.864 372.813 69.0296C372.271 69.3759 371.887 69.9116 371.738 70.5263C371.59 71.141 371.688 71.7879 372.014 72.3336Z" fill="#263238"/>
<path d="M392.451 72.2864L396.88 74.08C397.016 73.8023 397.092 73.5007 397.104 73.1933C397.116 72.886 397.064 72.5795 396.951 72.2925C396.838 72.0054 396.666 71.7439 396.446 71.5237C396.225 71.3036 395.961 71.1295 395.67 71.012C395.068 70.7863 394.4 70.7924 393.803 71.0291C393.205 71.2657 392.722 71.7152 392.451 72.2864V72.2864Z" fill="#263238"/>
<path d="M372.898 77.8914C372.844 78.4027 372.999 78.9143 373.33 79.3144C373.661 79.7145 374.141 79.9707 374.664 80.0272C375.193 80.0565 375.712 79.8826 376.11 79.5428C376.508 79.203 376.754 78.7245 376.794 78.21C376.836 77.9504 376.823 77.6851 376.755 77.4307C376.687 77.1763 376.567 76.9383 376.4 76.7315C376.234 76.5247 376.026 76.3535 375.789 76.2288C375.551 76.104 375.29 76.0282 375.022 76.0063C374.753 75.9843 374.483 76.0166 374.228 76.1011C373.972 76.1856 373.738 76.3206 373.539 76.4975C373.339 76.6744 373.179 76.8895 373.069 77.1293C372.959 77.3692 372.901 77.6286 372.898 77.8914V77.8914Z" fill="#263238"/>
<g style="mix-blend-mode:multiply" opacity="0.5">
<g style="mix-blend-mode:multiply" opacity="0.5">
<path d="M382.324 77.1244L381.586 88.594L375.463 86.5054L382.324 77.1244Z" fill="#9A4A4D"/>
</g>
</g>
<g style="mix-blend-mode:multiply" opacity="0.5">
<g style="mix-blend-mode:multiply" opacity="0.5">
<path d="M388.579 103.309C393.601 102.837 403.995 100.323 405.749 96.4056C405.031 98.3936 403.705 100.119 401.95 101.35C398.78 103.804 388.47 106.341 388.47 106.341L388.579 103.309Z" fill="#9A4A4D"/>
</g>
</g>
<path d="M408.98 81.5612L408.678 89.5498C407.202 89.4945 405.809 88.8709 404.805 87.8159C403.8 86.7608 403.265 85.3602 403.317 83.9212L403.583 76.5462L408.98 81.5612Z" fill="#263238"/>
<path d="M425.605 222.654C423.972 223.02 420.693 223.35 420.209 221.379C419.725 219.409 422.447 219.279 424.468 217.603C426.645 215.702 428.936 213.929 431.329 212.293C434.378 210.346 438.141 210.335 439.666 208.01C441.239 206.122 450.374 180.528 452.782 172.87C444.76 161.99 436.701 151.205 430.748 142.933C430.748 142.933 422.714 125.634 424.057 114.07C429.465 112.89 437.935 114.401 446.817 125.304C454.719 134.773 461.994 144.725 468.597 155.099C476.111 167.135 476.801 166.899 472.723 178.05C468.815 188.752 459.667 208.116 454.573 216.518C450.265 223.669 448.898 226.135 445.147 231.067C441.747 235.539 434.801 240.189 431.159 241.003C425.751 242.183 418.466 240.731 418.466 235.504C418.466 230.277 428.703 225.899 430.687 220.766C429.059 221.553 427.358 222.185 425.605 222.654Z" fill="#B16668"/>
<path d="M423.669 112.878C423.669 112.878 435.261 112.737 438.601 115.238C443.102 118.542 448.704 125.953 451.911 130.036C455.117 134.118 460.381 140.349 460.381 140.349C460.381 140.349 454.5 155.181 440.198 157.482L426.586 140.738C423.222 137.245 420.245 126.094 423.669 112.878Z" fill="#00BFA5"/>
<path d="M436.677 59.2946C436.278 58.917 435.866 58.563 435.467 58.209C433.253 56.1836 430.347 55.0315 427.311 54.9758C424.891 55.082 419.979 57.796 418.684 54.3622C418.442 53.5531 418.442 52.6933 418.684 51.8842C420.1 46.1612 425.944 44.1434 431.413 44.344C441.614 44.7098 448.136 53.5716 456.158 58.4096C459.089 60.0051 462.385 60.8534 465.741 60.8758C469.169 61.0303 472.602 60.7447 475.953 60.0262C479.487 59.2592 482.923 58.0084 486.517 57.5836C490.11 57.1588 494.055 57.6662 496.753 60.0262C498.195 61.4137 499.211 63.1659 499.688 65.0857C500.165 67.0056 500.083 69.017 499.452 70.894C498.129 74.6569 495.579 77.8937 492.192 80.1098C488.793 82.4593 484.949 84.1253 480.884 85.0106C476.818 85.896 472.612 85.9829 468.512 85.2664C460.264 83.7599 452.823 79.4696 447.494 73.1478C443.683 68.6756 440.924 63.3066 436.677 59.2946Z" fill="#263238"/>
<path d="M419.979 51.1408C419.423 50.9858 418.903 50.7255 418.45 50.3748C417.997 50.0241 417.62 49.5898 417.339 49.0967C417.058 48.6037 416.879 48.0615 416.813 47.5011C416.747 46.9407 416.795 46.3731 416.954 45.8308C417.113 45.2884 417.38 44.7819 417.739 44.3401C418.099 43.8983 418.544 43.53 419.05 43.256C419.556 42.9821 420.112 42.808 420.686 42.7436C421.261 42.6792 421.843 42.7258 422.399 42.8808L419.979 51.1408Z" fill="#263238"/>
<path d="M398.09 272.934C398.053 272.883 398.029 272.825 398.018 272.763C398.008 272.702 398.012 272.639 398.029 272.58C398.064 272.459 398.141 272.355 398.247 272.285L402.398 269.748L402.712 269.571C402.818 269.522 402.935 269.501 403.051 269.512L404.418 269.653C404.546 269.668 404.662 269.73 404.743 269.827C404.825 269.924 404.864 270.048 404.854 270.172L403.644 281.288C403.626 281.41 403.561 281.521 403.462 281.598C403.363 281.674 403.237 281.711 403.111 281.701L401.684 281.559C401.555 281.544 401.438 281.481 401.357 281.382C401.318 281.335 401.289 281.28 401.272 281.221C401.256 281.162 401.252 281.101 401.26 281.04L402.18 272.544L399.469 274.196C399.363 274.256 399.239 274.276 399.118 274.255C398.99 274.218 398.879 274.139 398.804 274.031L398.09 272.934Z" fill="#00BFA5"/>
<path d="M416.119 275.412C416.119 275.624 416.119 275.872 416.119 276.131L416.022 276.946L415.937 277.748C415.937 278.019 415.877 278.255 415.841 278.468C415.742 279.094 415.571 279.708 415.332 280.297C415.115 280.823 414.785 281.297 414.364 281.689C413.916 282.078 413.382 282.361 412.804 282.515C412.082 282.701 411.329 282.745 410.589 282.645C409.841 282.584 409.11 282.388 408.435 282.067C407.901 281.784 407.444 281.379 407.105 280.887C406.775 280.419 406.552 279.888 406.451 279.329C406.34 278.706 406.304 278.072 406.342 277.441C406.342 277.005 406.415 276.509 406.475 275.954C406.536 275.4 406.596 274.904 406.669 274.468C406.767 273.836 406.942 273.218 407.189 272.627C407.406 272.094 407.736 271.611 408.157 271.211C408.599 270.811 409.129 270.516 409.706 270.349C410.43 270.153 411.188 270.105 411.932 270.208C412.677 270.27 413.403 270.466 414.074 270.786C414.615 271.065 415.076 271.471 415.417 271.966C415.747 272.433 415.97 272.965 416.071 273.524C416.161 274.149 416.178 274.783 416.119 275.412ZM408.677 277.654C408.623 278.338 408.761 279.023 409.077 279.636C409.268 279.898 409.52 280.113 409.812 280.262C410.105 280.412 410.429 280.492 410.759 280.497C411.082 280.563 411.416 280.552 411.734 280.466C412.052 280.38 412.344 280.22 412.586 280.002C413.041 279.472 413.327 278.824 413.409 278.137C413.481 277.701 413.542 277.229 413.602 276.698C413.663 276.167 413.699 275.683 413.723 275.246C413.784 274.562 413.645 273.875 413.324 273.264C413.132 273.002 412.88 272.787 412.588 272.638C412.296 272.488 411.972 272.408 411.642 272.403C411.318 272.337 410.983 272.348 410.664 272.437C410.346 272.525 410.055 272.688 409.815 272.91C409.362 273.437 409.076 274.08 408.992 274.763C408.92 275.187 408.859 275.671 408.798 276.202C408.738 276.733 408.702 277.217 408.677 277.654Z" fill="#00BFA5"/>
<path d="M260.271 312.015C264.397 303.909 266.188 296.935 265.752 292.085C263.683 269.476 260.912 239.964 258.565 223.031C257.004 211.81 253.931 199.431 249.139 178.191C249.139 173.908 248.473 167.005 248.473 167.005L198.936 168.397C189.178 187.543 183.369 208.37 181.839 229.698C180.302 248.307 176.793 267.458 176.176 277.559C164.282 282.444 158.026 289.218 152.46 294.162C142.611 302.941 117.951 328.818 112.808 330.836L112.494 331.131C110.231 333.491 107.085 344.029 104.701 350.389C103.104 354.66 102.027 361.481 104.81 366.909C107.46 372.089 110.667 373.505 112.227 367.983C112.506 366 112.748 364.041 113.014 362.212C113.861 356.56 120.189 344.89 131.563 337.621C137.178 334.081 168.275 314.918 195.04 301.643C202.784 297.796 206.644 292.451 210.274 284.757C215.005 274.715 223.1 254.372 223.1 254.372L232.03 298.28C226.572 306.729 223.245 313.986 219.554 330.718C216.137 345.502 211.69 360.042 206.244 374.237C205.918 375.181 205.603 376.125 205.276 377.069C204.871 378.568 204.382 380.045 203.812 381.494C202.872 383.208 202.28 385.083 202.07 387.016C201.94 388.928 202.297 390.841 203.111 392.586C203.582 393.577 204.2 394.509 204.635 395.524C205.507 397.88 205.753 400.413 205.349 402.887C205.083 405.377 204.563 407.843 204.55 410.333C204.504 413.998 205.723 417.572 208.011 420.481C209.162 421.915 210.604 423.102 212.247 423.969C213.889 424.836 215.697 425.364 217.558 425.519C218.967 425.677 220.39 425.383 221.611 424.682C222.476 424.012 223.143 423.13 223.543 422.127C223.943 421.123 224.061 420.034 223.886 418.97C223.519 416.855 222.889 414.79 222.011 412.823C221.187 410.552 220.572 408.214 220.172 405.837C219.452 401.231 219.185 396.569 219.373 391.913C219.47 387.559 219.204 382.78 221.515 378.933C221.539 378.85 248.449 335.297 260.271 312.015Z" fill="#FFA8A7"/>
<path d="M221.515 378.886C221.515 378.886 244.045 342.424 256.931 318.399C249.429 319.839 232.538 313.962 226.996 307.154C224.213 312.959 221.962 319.839 219.555 330.754C216.137 345.538 211.69 360.078 206.245 374.272C205.918 375.216 205.603 376.16 205.277 377.104C204.871 378.604 204.382 380.081 203.812 381.529C202.876 383.232 202.285 385.095 202.07 387.016C201.94 388.928 202.297 390.841 203.111 392.586C203.583 393.577 204.2 394.509 204.635 395.524C205.507 397.88 205.753 400.413 205.349 402.887C205.083 405.377 204.563 407.843 204.551 410.333C204.504 413.998 205.723 417.572 208.011 420.481C209.162 421.915 210.604 423.102 212.247 423.969C213.889 424.836 215.697 425.364 217.558 425.519C218.967 425.677 220.39 425.383 221.612 424.682C222.476 424.012 223.143 423.13 223.543 422.127C223.943 421.123 224.061 420.034 223.886 418.97C223.519 416.855 222.889 414.79 222.011 412.823C221.187 410.552 220.572 408.214 220.172 405.837C219.452 401.231 219.185 396.569 219.373 391.913C219.47 387.559 219.204 382.78 221.515 378.886Z" fill="#37474F"/>
<path d="M226.996 307.154C226.004 309.23 225.072 311.461 224.177 313.939C228.012 317.619 232.578 320.495 237.595 322.39C242.612 324.286 247.973 325.16 253.35 324.96C254.56 322.706 255.77 320.499 256.98 318.399C249.429 319.839 232.538 313.962 226.996 307.154Z" fill="#00BFA5"/>
<path d="M199.251 383.936C198.476 384.88 197.085 386.839 197.242 387.925C197.399 389.01 199.42 394.58 199.662 400.338C199.88 405.436 197.593 415.124 202.627 422.027C207.055 428.092 211.097 429.508 214.727 430.18C216.146 430.525 217.629 430.534 219.052 430.205C220.475 429.877 221.796 429.221 222.906 428.292C222.906 428.292 226.125 425.484 224.697 423.313C223.269 421.142 199.251 383.936 199.251 383.936Z" fill="#37474F"/>
<path d="M198.924 384.42C199.104 383.004 199.749 381.684 200.763 380.656C202.264 379.063 203.897 377.706 204.49 375.546C204.696 374.768 204.877 373.328 205.845 373.068H206.801L206.063 375.204C206.474 376.089 207.273 378.142 207.648 379.051C208.531 381.411 207.43 383.877 209.173 385.942C209.294 383.323 209.403 380.302 211.181 380.325C212.391 380.325 214.521 381.93 216.941 382.272C219.361 382.615 221.273 382.131 222.217 382.473C223.16 382.815 222.628 383.995 222.023 386.697C221.243 389.758 220.801 392.891 220.704 396.043C220.898 398.545 221.176 401.129 221.551 403.607C222.991 413.106 226.524 418.003 225.726 423.112C224.891 428.422 216.312 430.287 210.141 425.685C199.65 417.861 201.816 409.991 201.997 404.161C202.216 400.406 201.861 396.64 200.945 392.987C200.025 389.482 199.009 387.712 198.924 384.42Z" fill="#00BFA5"/>
<path opacity="0.4" d="M198.924 384.42C199.104 383.004 199.749 381.684 200.763 380.656C202.264 379.063 203.897 377.706 204.49 375.546C204.696 374.768 204.877 373.328 205.845 373.068H206.801L206.063 375.204C206.474 376.089 207.273 378.142 207.648 379.051C208.531 381.411 207.43 383.877 209.173 385.942C209.294 383.323 209.403 380.302 211.181 380.325C212.391 380.325 214.521 381.93 216.941 382.272C219.361 382.615 221.273 382.131 222.217 382.473C223.16 382.815 222.628 383.995 222.023 386.697C221.243 389.758 220.801 392.891 220.704 396.043C220.898 398.545 221.176 401.129 221.551 403.607C222.991 413.106 226.524 418.003 225.726 423.112C224.891 428.422 216.312 430.287 210.141 425.685C199.65 417.861 201.816 409.991 201.997 404.161C202.216 400.406 201.861 396.64 200.945 392.987C200.025 389.482 199.009 387.712 198.924 384.42Z" fill="black"/>
<path opacity="0.15" d="M204.49 375.511C204.49 375.511 204.49 375.511 204.49 375.582C204.495 375.621 204.495 375.661 204.49 375.7C204.705 377.015 205.004 378.315 205.385 379.594C205.724 381.128 205.942 382.685 206.172 384.231C206.329 385.317 206.402 386.402 206.462 387.5C206.523 388.597 206.559 389.482 206.547 390.485C206.474 395.205 205.76 398.969 206.97 405.011C208.18 411.053 209.923 411.643 211.169 410.911C212.415 410.179 211.266 408.551 210.08 403.276C208.87 397.707 209.862 391.618 209.245 385.895C208.815 385.417 208.515 384.841 208.374 384.219V384.219C207.951 382.556 208.374 380.738 207.721 379.039C207.382 378.131 206.511 376.077 206.136 375.192L206.874 373.057H205.918C205.313 373.222 205.022 373.847 204.829 374.473C204.647 374.838 204.563 375.216 204.49 375.511Z" fill="black"/>
<path opacity="0.15" d="M207.926 416.209C211.157 418.038 213.105 417.613 213.033 414.498C212.863 412.297 212.203 410.158 211.097 408.232L219.567 408.586C219.567 408.586 219.022 414.25 220.777 415.666C221.817 416.504 223.281 415.194 224.128 413.519C225.338 417.248 226.294 420.127 225.834 423.077C225 428.387 216.421 430.251 210.25 425.649C201.465 419.1 201.562 412.516 201.925 407.123C201.695 410.38 204.696 414.38 207.926 416.209Z" fill="black"/>
<path opacity="0.15" d="M221.95 386.91C221.252 389.882 220.846 392.913 220.74 395.96C220.934 398.462 221.212 401.046 221.587 403.524C221.829 405.141 222.144 406.628 222.483 408.008C222.419 408.774 222.152 409.51 221.708 410.144C220.631 411.076 220.16 410.97 219.555 408.586C218.889 405.896 218.865 391.111 221.975 386.91H221.95Z" fill="black"/>
<path d="M221.672 409.259C221.593 409.403 221.47 409.518 221.321 409.59C221.171 409.662 221.002 409.687 220.837 409.66C217.142 409.082 213.38 409.027 209.669 409.495C209.47 409.514 209.272 409.458 209.114 409.339C208.956 409.221 208.85 409.048 208.817 408.856C208.785 408.664 208.829 408.467 208.94 408.305C209.051 408.143 209.22 408.029 209.415 407.985C213.303 407.483 217.245 407.543 221.115 408.162C221.318 408.199 221.498 408.313 221.616 408.478C221.734 408.644 221.78 408.848 221.745 409.047C221.731 409.121 221.707 409.192 221.672 409.259V409.259Z" fill="#E0E0E0"/>
<path d="M221.43 405.353C221.344 405.518 221.199 405.645 221.023 405.713C220.847 405.78 220.652 405.782 220.474 405.719C216.751 404.491 212.728 404.429 208.967 405.542C208.868 405.587 208.759 405.612 208.65 405.614C208.54 405.617 208.431 405.596 208.329 405.555C208.228 405.514 208.137 405.452 208.061 405.374C207.986 405.296 207.928 405.204 207.891 405.103C207.855 405.001 207.84 404.894 207.849 404.787C207.858 404.68 207.889 404.577 207.942 404.482C207.994 404.388 208.066 404.306 208.153 404.24C208.24 404.175 208.34 404.128 208.447 404.102C212.547 402.865 216.944 402.927 221.006 404.279C221.2 404.351 221.357 404.493 221.445 404.676C221.533 404.859 221.545 405.068 221.478 405.259L221.43 405.353Z" fill="#E0E0E0"/>
<path d="M221.43 401.648C221.339 401.825 221.18 401.961 220.988 402.025C220.795 402.089 220.585 402.076 220.401 401.99C216.61 400.4 212.377 400.117 208.398 401.188C208.297 401.233 208.187 401.257 208.076 401.257C207.964 401.258 207.854 401.235 207.752 401.191C207.651 401.147 207.559 401.083 207.485 401.002C207.411 400.921 207.355 400.826 207.321 400.722C207.288 400.619 207.277 400.509 207.29 400.401C207.303 400.294 207.339 400.19 207.396 400.096C207.453 400.003 207.53 399.923 207.622 399.861C207.713 399.799 207.817 399.756 207.926 399.736C212.278 398.532 216.923 398.841 221.067 400.61C221.161 400.653 221.245 400.713 221.315 400.788C221.385 400.863 221.439 400.951 221.474 401.047C221.509 401.142 221.524 401.243 221.519 401.345C221.513 401.446 221.487 401.545 221.442 401.636L221.43 401.648Z" fill="#E0E0E0"/>
<path d="M221.491 397.742C221.382 397.915 221.21 398.04 221.008 398.091C220.807 398.141 220.594 398.114 220.414 398.014C214.981 394.957 208.544 396.834 208.483 396.834C208.382 396.879 208.272 396.902 208.16 396.903C208.049 396.904 207.939 396.881 207.837 396.837C207.735 396.793 207.644 396.729 207.57 396.648C207.496 396.567 207.44 396.471 207.406 396.368C207.373 396.264 207.362 396.155 207.375 396.047C207.388 395.939 207.424 395.835 207.481 395.742C207.538 395.649 207.615 395.569 207.706 395.507C207.798 395.445 207.902 395.402 208.011 395.382C208.302 395.3 215.15 393.246 221.2 396.645C221.297 396.695 221.382 396.764 221.449 396.847C221.517 396.931 221.566 397.028 221.594 397.131C221.621 397.234 221.626 397.342 221.608 397.447C221.59 397.552 221.55 397.653 221.491 397.742V397.742Z" fill="#E0E0E0"/>
<path d="M221.43 393.589V393.648C221.318 393.817 221.143 393.937 220.941 393.981C220.74 394.025 220.528 393.99 220.353 393.884C215.174 390.686 208.253 392.704 208.253 392.704C208.054 392.763 207.839 392.742 207.656 392.647C207.472 392.552 207.334 392.39 207.273 392.196C207.243 392.101 207.233 392.001 207.243 391.902C207.253 391.803 207.283 391.706 207.332 391.619C207.38 391.531 207.446 391.453 207.525 391.39C207.604 391.328 207.695 391.281 207.793 391.252C208.108 391.158 215.441 389.022 221.236 392.597C221.388 392.71 221.492 392.874 221.528 393.057C221.564 393.24 221.529 393.429 221.43 393.589V393.589Z" fill="#E0E0E0"/>
<path d="M221.72 390.025C221.611 390.196 221.436 390.318 221.234 390.365C221.033 390.411 220.82 390.378 220.644 390.273C218.824 389.319 216.83 388.723 214.774 388.521C212.719 388.318 210.643 388.513 208.665 389.093C208.472 389.166 208.257 389.162 208.068 389.082C207.878 389.001 207.73 388.85 207.654 388.662C207.579 388.474 207.583 388.265 207.666 388.08C207.749 387.895 207.903 387.75 208.096 387.677C210.29 387.016 212.598 386.789 214.884 387.01C217.17 387.231 219.387 387.895 221.406 388.963C221.499 389.011 221.582 389.077 221.649 389.157C221.716 389.237 221.765 389.33 221.795 389.429C221.824 389.528 221.833 389.632 221.82 389.734C221.807 389.837 221.773 389.936 221.72 390.025V390.025Z" fill="#E0E0E0"/>
<path d="M185.59 306.54C180.075 304.921 175.329 301.446 172.195 296.734C168.021 290.834 168.88 281.253 168.88 281.194C161.474 285.489 156.78 290.398 152.46 294.174C142.611 302.953 117.951 328.83 112.808 330.848L112.494 331.143C110.231 333.503 107.085 344.04 104.701 350.401C103.104 354.672 102.027 361.493 104.81 366.921C107.46 372.101 110.667 373.517 112.227 367.994C112.506 366.012 112.748 364.053 113.014 362.224C113.861 356.572 120.189 344.902 131.563 337.633C136.524 334.471 161.402 319.166 185.59 306.481V306.54Z" fill="#37474F"/>
<path d="M185.59 306.54C180.075 304.921 175.329 301.446 172.195 296.734C168.021 290.834 168.88 281.253 168.88 281.194C166.439 282.607 164.102 284.184 161.886 285.914C162.019 293.253 163.798 304.204 178.1 310.505C180.592 309.148 183.097 307.814 185.59 306.505V306.54Z" fill="#00BFA5"/>
<path d="M106.613 332.075C105.403 332.5 103.237 333.503 102.814 334.53C102.39 335.556 101.241 341.338 98.4577 346.424C96.0377 350.92 88.9955 358.153 89.7457 366.59C90.4233 374.001 93.1821 377.21 95.9167 379.57C96.9623 380.571 98.2385 381.312 99.6385 381.733C101.038 382.154 102.521 382.242 103.963 381.989C103.963 381.989 108.198 381.151 108.089 378.579C107.98 376.007 106.613 332.075 106.613 332.075Z" fill="#37474F"/>
<path d="M106.105 332.299C106.989 331.154 108.235 330.325 109.65 329.939C111.756 329.302 113.885 328.948 115.507 327.367C116.087 326.801 116.995 325.656 117.927 325.904C118.011 325.904 118.786 326.329 118.786 326.329L117.043 327.815C116.946 328.783 116.596 330.966 116.414 331.922C115.966 334.341 113.716 335.969 114.151 338.612C115.615 336.418 117.273 333.892 118.798 334.754C119.802 335.356 120.843 337.786 122.754 339.273C124.666 340.76 126.566 341.291 127.195 342.058C127.824 342.825 126.76 343.568 124.775 345.598C122.485 347.843 120.456 350.328 118.725 353.008C117.6 355.262 116.499 357.622 115.531 359.935C111.901 368.844 112.348 374.815 109.009 378.815C105.669 382.815 97.1629 380.349 94.2347 373.34C89.2495 361.41 95.2028 355.64 98.373 350.755C100.495 347.622 102.127 344.197 103.213 340.595C104.399 337.22 104.447 335.214 106.105 332.299Z" fill="#00BFA5"/>
<path opacity="0.4" d="M106.105 332.299C106.989 331.154 108.235 330.325 109.65 329.939C111.756 329.302 113.885 328.948 115.507 327.367C116.087 326.801 116.995 325.656 117.927 325.904C118.011 325.904 118.786 326.329 118.786 326.329L117.043 327.815C116.946 328.783 116.596 330.966 116.414 331.922C115.966 334.341 113.716 335.969 114.151 338.612C115.615 336.418 117.273 333.892 118.798 334.754C119.802 335.356 120.843 337.786 122.754 339.273C124.666 340.76 126.566 341.291 127.195 342.058C127.824 342.825 126.76 343.568 124.775 345.598C122.485 347.843 120.456 350.328 118.725 353.008C117.6 355.262 116.499 357.622 115.531 359.935C111.901 368.844 112.348 374.815 109.009 378.815C105.669 382.815 97.1629 380.349 94.2347 373.34C89.2495 361.41 95.2028 355.64 98.373 350.755C100.495 347.622 102.127 344.197 103.213 340.595C104.399 337.22 104.447 335.214 106.105 332.299Z" fill="black"/>
<path opacity="0.15" d="M115.507 327.391L115.398 327.485C114.919 328.723 114.515 329.988 114.188 331.273C113.692 332.76 113.075 334.211 112.457 335.662C112.034 336.677 111.538 337.657 111.018 338.624C110.497 339.592 110.074 340.382 109.541 341.232C107.012 345.303 104.459 348.17 102.366 353.976C100.273 359.782 101.471 361.162 102.947 361.056C104.423 360.95 104.229 359.109 105.96 353.976C107.787 348.56 111.828 343.816 114.272 338.577C114.155 337.951 114.196 337.307 114.393 336.701V336.701C114.89 335.061 116.184 333.704 116.511 331.922C116.692 330.966 117.043 328.783 117.14 327.815L118.883 326.329L118.762 326.27L118.641 326.199L118.338 326.045L118.193 325.986C118.139 325.954 118.082 325.926 118.023 325.904C117.709 325.874 117.392 325.922 117.1 326.041C116.809 326.16 116.552 326.348 116.354 326.588C115.991 326.883 115.724 327.178 115.507 327.391Z" fill="black"/>
<path opacity="0.15" d="M97.3445 364.183C99.1716 367.357 101.071 367.959 102.632 365.233C103.627 363.25 104.168 361.08 104.217 358.873L111.32 363.333C111.32 363.333 107.896 367.959 108.658 369.965C109.118 371.204 111.078 370.803 112.651 369.776C111.744 373.576 111.09 376.549 109.166 378.862C105.681 383.028 97.3203 380.396 94.3921 373.387C90.2176 363.392 93.7145 357.764 96.8121 353.327C95.0213 356.1 95.5053 361.009 97.3445 364.183Z" fill="black"/>
<path opacity="0.15" d="M124.63 345.846C122.464 348.054 120.527 350.465 118.846 353.044C117.721 355.298 116.62 357.658 115.652 359.97C115.023 361.493 114.526 362.932 114.103 364.289C113.647 364.916 113.035 365.419 112.324 365.752C110.909 366.012 110.558 365.693 111.284 363.333C112.094 360.69 119.754 347.923 124.594 345.846H124.63Z" fill="black"/>
<path d="M112.808 364.974C112.673 365.07 112.51 365.123 112.342 365.123C112.175 365.123 112.012 365.07 111.877 364.974C108.988 362.651 105.773 360.744 102.33 359.31C102.137 359.236 101.982 359.091 101.9 358.906C101.817 358.721 101.813 358.512 101.888 358.324C101.963 358.137 102.112 357.986 102.302 357.905C102.491 357.824 102.706 357.82 102.898 357.894C106.51 359.369 109.878 361.357 112.893 363.794C113.049 363.926 113.145 364.113 113.161 364.314C113.177 364.515 113.111 364.713 112.978 364.867C112.927 364.911 112.87 364.947 112.808 364.974V364.974Z" fill="#E0E0E0"/>
<path d="M114.575 361.457C114.416 361.557 114.224 361.597 114.037 361.569C113.849 361.541 113.679 361.446 113.558 361.304C110.982 358.409 107.543 356.371 103.721 355.475C103.517 355.431 103.34 355.31 103.227 355.138C103.115 354.967 103.077 354.759 103.122 354.56C103.167 354.361 103.291 354.188 103.467 354.079C103.643 353.969 103.856 353.932 104.06 353.976C108.239 354.931 111.999 357.158 114.793 360.336C114.925 360.492 114.988 360.691 114.97 360.892C114.952 361.093 114.854 361.279 114.696 361.41L114.575 361.457Z" fill="#E0E0E0"/>
<path d="M116.547 358.307C116.374 358.41 116.167 358.445 115.969 358.403C115.77 358.362 115.596 358.247 115.482 358.082C113.037 354.843 109.533 352.512 105.548 351.474C105.347 351.427 105.172 351.303 105.063 351.131C104.955 350.958 104.92 350.751 104.968 350.554C104.99 350.457 105.033 350.365 105.092 350.284C105.151 350.203 105.226 350.135 105.313 350.082C105.399 350.029 105.496 349.994 105.596 349.978C105.697 349.961 105.8 349.965 105.899 349.988C110.284 351.092 114.135 353.655 116.789 357.233C116.906 357.4 116.949 357.606 116.911 357.805C116.872 358.004 116.755 358.18 116.584 358.295L116.547 358.307Z" fill="#E0E0E0"/>
<path d="M118.58 354.92C118.49 354.971 118.391 355.003 118.288 355.017C118.186 355.03 118.081 355.023 117.981 354.997C117.881 354.97 117.787 354.925 117.705 354.863C117.623 354.802 117.554 354.725 117.503 354.637C114.405 349.303 107.823 347.781 107.823 347.757C107.724 347.735 107.63 347.694 107.547 347.636C107.464 347.578 107.393 347.505 107.339 347.421C107.285 347.336 107.249 347.242 107.232 347.144C107.216 347.046 107.219 346.946 107.242 346.849C107.264 346.751 107.305 346.658 107.364 346.577C107.423 346.495 107.498 346.425 107.585 346.372C107.672 346.32 107.769 346.284 107.87 346.269C107.971 346.253 108.075 346.258 108.174 346.282C108.464 346.282 115.434 347.958 118.895 353.882C118.945 353.97 118.977 354.067 118.989 354.167C119.001 354.267 118.991 354.369 118.962 354.466C118.933 354.562 118.884 354.652 118.818 354.731C118.753 354.809 118.672 354.873 118.58 354.92V354.92Z" fill="#E0E0E0"/>
<path d="M120.746 351.38H120.685C120.501 351.471 120.287 351.487 120.089 351.426C119.892 351.364 119.728 351.229 119.633 351.05C116.826 345.728 109.832 344.052 109.771 343.97C109.671 343.949 109.576 343.909 109.492 343.851C109.408 343.794 109.337 343.721 109.283 343.636C109.229 343.551 109.192 343.456 109.177 343.358C109.161 343.259 109.165 343.158 109.19 343.061C109.213 342.964 109.255 342.872 109.315 342.791C109.374 342.71 109.449 342.642 109.536 342.589C109.622 342.536 109.719 342.501 109.819 342.485C109.92 342.468 110.023 342.472 110.122 342.495C110.437 342.565 117.878 344.347 121.012 350.294C121.071 350.382 121.111 350.48 121.129 350.583C121.148 350.686 121.144 350.791 121.119 350.893C121.094 350.995 121.048 351.09 120.984 351.174C120.92 351.258 120.839 351.328 120.746 351.38V351.38Z" fill="#E0E0E0"/>
<path d="M122.839 348.418C122.654 348.509 122.44 348.526 122.243 348.464C122.046 348.402 121.882 348.267 121.787 348.088C119.623 344.626 116.143 342.14 112.107 341.173C111.903 341.14 111.721 341.03 111.6 340.866C111.48 340.702 111.432 340.498 111.465 340.3C111.499 340.101 111.612 339.924 111.78 339.806C111.948 339.689 112.157 339.642 112.361 339.674C114.613 340.18 116.738 341.123 118.609 342.447C120.48 343.771 122.059 345.448 123.251 347.38C123.296 347.474 123.322 347.576 123.326 347.68C123.33 347.784 123.312 347.888 123.274 347.985C123.235 348.082 123.177 348.171 123.102 348.245C123.027 348.32 122.938 348.379 122.839 348.418V348.418Z" fill="#E0E0E0"/>
<path d="M193.237 182.121C188.651 191.325 184.247 202.37 181.137 221.32C178.027 240.271 175.535 258.467 175.535 258.467C175.535 258.467 175.535 265.287 191.265 270.043C206.995 274.798 218.574 269.476 218.574 269.476L222.204 259.21L224.54 266.845C224.54 266.845 231.715 269.995 245.315 268.155C258.916 266.314 265.619 257.889 265.619 257.889C265.619 257.889 256.895 199.868 251.172 188.623L193.237 182.121Z" fill="#455A64"/>
<path d="M222.338 259.21L228.69 239.28C228.69 239.28 239.58 236.826 247.953 225.226C247.953 225.226 247.953 237.121 231.013 243.186L225.605 257.641L224.745 266.809L222.338 259.21Z" fill="#37474F"/>
<path d="M193.503 258.302C193.48 258.249 193.468 258.193 193.468 258.136C193.468 258.08 193.48 258.023 193.503 257.971C193.515 257.916 193.54 257.863 193.576 257.818C193.611 257.774 193.657 257.737 193.709 257.712L197.581 255.458L197.871 255.304C197.974 255.275 198.083 255.275 198.186 255.304L199.396 255.47C199.454 255.472 199.511 255.489 199.562 255.517C199.612 255.546 199.655 255.586 199.686 255.635C199.724 255.676 199.752 255.725 199.769 255.778C199.785 255.831 199.79 255.887 199.783 255.942L198.44 266.101C198.437 266.158 198.42 266.214 198.391 266.263C198.361 266.313 198.32 266.354 198.271 266.385C198.227 266.42 198.177 266.446 198.123 266.46C198.068 266.474 198.011 266.477 197.956 266.467L196.637 266.302C196.579 266.297 196.523 266.279 196.473 266.251C196.423 266.222 196.38 266.183 196.347 266.137C196.277 266.045 196.247 265.931 196.262 265.818L197.303 258.018L194.762 259.482C194.71 259.505 194.655 259.517 194.598 259.517C194.542 259.517 194.486 259.505 194.435 259.482C194.319 259.453 194.219 259.381 194.157 259.281L193.503 258.302Z" fill="#00BFA5"/>
<path d="M205.857 267.482C205.742 267.466 205.638 267.407 205.567 267.317C205.498 267.225 205.468 267.111 205.482 266.998L205.736 265.087L200.715 264.449C200.657 264.444 200.601 264.427 200.551 264.398C200.501 264.37 200.458 264.331 200.424 264.284C200.387 264.24 200.36 264.189 200.346 264.134C200.331 264.079 200.329 264.022 200.34 263.966L200.485 262.845C200.502 262.707 200.556 262.577 200.642 262.467L200.945 262.148L206.692 256.744C206.78 256.641 206.892 256.56 207.018 256.507C207.144 256.454 207.281 256.43 207.418 256.437L208.628 256.591C208.744 256.608 208.848 256.668 208.92 256.758C208.992 256.848 209.026 256.961 209.015 257.074L208.168 263.387L209.56 263.564C209.675 263.582 209.78 263.642 209.852 263.732C209.924 263.821 209.958 263.935 209.947 264.048L209.802 265.169C209.785 265.281 209.725 265.383 209.633 265.452C209.538 265.518 209.421 265.548 209.306 265.535L207.914 265.358L207.66 267.27C207.652 267.327 207.631 267.381 207.6 267.43C207.569 267.479 207.528 267.521 207.479 267.553C207.435 267.588 207.385 267.615 207.331 267.631C207.277 267.647 207.22 267.653 207.164 267.647L205.857 267.482ZM206.003 263.116L206.45 259.729L203.28 262.762L206.003 263.116Z" fill="#00BFA5"/>
<path d="M205.301 193.909L202.772 190.239C196.044 202.275 188.917 241.829 185.59 267.93C186.582 268.367 187.671 268.804 188.857 269.217C191.107 251.623 196.915 211.621 205.301 193.909Z" fill="#00BFA5"/>
<path d="M179.141 264.06C180.116 264.89 181.169 265.629 182.286 266.267C184.622 248.189 190.369 209.367 198.597 191.927L196.02 188.292C189.498 200.033 182.553 237.958 179.141 264.06Z" fill="#00BFA5"/>
<path d="M297.975 74.198C296.373 79.1955 293.801 83.8464 290.4 87.8978C274.755 106.86 258.081 118.2 249.829 134.791C240.354 133.611 228.049 117.61 235.672 108.43C243.948 105.551 274.839 73.608 277.719 68.9706C280.321 64.1208 289.093 41.8306 291.15 33.4054C291.463 31.9884 291.239 30.5089 290.521 29.24C288.512 25.5348 288.767 21.57 287.859 17.8176C287.145 14.903 285.863 13.5342 286.455 13.0976C287.204 12.64 288.102 12.4746 288.97 12.6343C289.838 12.7939 290.612 13.267 291.138 13.959C292.484 15.8164 293.651 17.7915 294.623 19.859C294.902 16.4748 294.927 13.0751 294.696 9.68739C294.187 1.89939 296.027 -3.89441 304.884 1.06159C310.45 4.16499 313.547 12.1418 310.583 26.3844C309.736 30.4908 307.376 38.8806 305.864 44.7688C303.069 55.6838 301.871 64.3214 297.975 74.198Z" fill="#FFA8A7"/>
<path d="M230.687 108.453C234.438 106.719 238.939 105.315 243.888 101.373C249.054 97.267 255.479 92.6178 255.479 92.6178C255.479 92.6178 266.732 101.55 266.466 114.743C262.317 118.822 258.715 123.398 255.746 128.36C253.51 132.187 251.758 136.264 250.531 140.502C250.531 140.502 238.068 142.862 235.793 129.788C234.593 122.571 232.887 115.443 230.687 108.453V108.453Z" fill="#00BFA5"/>
<path d="M248.849 171.336C249.308 167.465 249.187 160.314 249.26 158.356C259.714 149.659 257.367 139.546 254.1 132.042C247.481 117.032 240.79 108.371 234.22 108.324L216.07 108.831C206.692 108.996 195.863 109.515 193.455 109.917C187.32 110.943 184.465 116.997 183.775 123.286C183.073 130.154 181.415 130.685 182.565 142.166C182.565 142.166 186.788 153.966 190.563 164.409C190.563 164.409 191.93 172.126 190.563 175.713C188.046 182.357 184.428 197.756 183.17 208.966C183.17 208.966 189.837 218.182 220.002 218.17C233.135 218.164 245.965 214.33 256.847 207.16L248.849 171.336Z" fill="#00BFA5"/>
<path d="M186.715 131.617C186.715 132.62 186.788 133.705 186.884 134.944L253.773 131.404C253.265 130.224 252.769 129.198 252.273 128.148L186.715 131.617Z" fill="#455A64"/>
<path d="M234.183 108.359L216.033 108.866C206.656 109.032 195.826 109.551 193.419 109.952C187.284 110.979 187.768 116.407 187.127 122.661C186.816 124.447 186.65 126.254 186.63 128.065L250.639 124.973C245.17 114.377 239.665 108.394 234.183 108.359Z" fill="#455A64"/>
<path opacity="0.1" d="M198.597 175.56C196.008 173.436 197.157 167.973 195.451 161.235C193.745 154.497 190.091 147.075 191.555 143.322C193.019 139.57 196.589 132.112 196.153 121.351L185.13 117.74C184.464 119.56 184.037 121.455 183.859 123.38C183.158 130.248 181.5 130.779 182.649 142.26C182.649 142.26 186.872 154.06 190.648 164.503C190.648 164.503 192.015 172.221 190.648 175.808C188.131 182.451 184.513 197.85 183.254 209.06C183.254 209.06 189.922 218.276 220.087 218.264H220.982C233.312 181.531 201.078 177.578 198.597 175.56Z" fill="black"/>
<path opacity="0.1" d="M202.953 151.205C204.261 153.962 206.358 156.291 208.992 157.912C211.627 159.532 214.686 160.375 217.8 160.338C220.794 160.403 223.752 159.696 226.376 158.29C228.999 156.883 231.196 154.826 232.744 152.326C232.744 152.326 231.63 163.854 217.631 163.099C203.631 162.344 202.953 151.205 202.953 151.205Z" fill="black"/>
<path d="M252.6 61.2652C254.468 56.4071 255.075 51.1737 254.366 46.0314C252.499 46.5942 250.6 47.0513 248.679 47.4002C249.328 45.9245 250.063 44.4864 250.881 43.0932C251.707 41.691 252.125 40.096 252.091 38.4794C252.049 37.6747 251.765 36.8999 251.274 36.2516C250.784 35.6032 250.109 35.11 249.333 34.8332C247.895 34.6303 246.429 34.8783 245.146 35.5412C237.657 38.195 229.771 39.6263 221.805 39.7774C207.914 40.391 194.06 45.6774 190.164 57.6898C187.744 65.2064 189.934 75.319 193.588 84.11C197.242 92.901 202.905 99.45 206.474 100.276L220.704 97.916C227.081 99.0252 233.215 96.5708 237.922 92.4408C239.188 91.3253 240.365 90.1183 241.443 88.83C242.455 87.5455 243.173 86.0649 243.549 84.4876C244.703 80.8625 245.601 77.1643 246.235 73.4192C246.33 72.6736 246.513 71.9412 246.78 71.2362C247.168 70.4694 247.651 69.7521 248.219 69.1004C250.056 66.7064 251.531 64.0678 252.6 61.2652V61.2652Z" fill="#263238"/>
<path d="M239.507 51.8488C243.065 53.725 247.675 62.1148 247.917 80.0272C248.111 95.202 243.21 99.1314 240.717 100.3C238.225 101.468 233.324 100.984 228.545 100.37L228.884 109.48C228.884 109.48 229.513 119.203 225.701 119.84C215.271 119.203 206.487 109.94 206.487 109.94V90.5646C205.232 90.985 203.88 91.0439 202.593 90.7341C201.305 90.4244 200.136 89.7592 199.227 88.8182C195.597 85.1366 194.387 80.0272 197.266 76.912C198.029 76.1716 198.962 75.618 199.986 75.2967C201.011 74.9755 202.099 74.8956 203.162 75.0637C204.225 75.2318 205.231 75.6431 206.099 76.2638C206.967 76.8845 207.672 77.6971 208.156 78.6348C208.156 78.6348 210.951 78.7646 213.553 73.6198C218.253 73.9705 222.938 72.7784 226.863 70.2332C236.567 64.2506 238.757 54.9168 239.507 51.8488Z" fill="#FFA8A7"/>
<path d="M227.649 75.9562C227.678 76.2106 227.654 76.4679 227.58 76.7134C227.506 76.9588 227.383 77.1874 227.217 77.3861C227.052 77.5847 226.847 77.7494 226.616 77.8705C226.385 77.9917 226.132 78.067 225.871 78.092C225.468 78.14 225.061 78.0696 224.7 77.8899C224.339 77.7103 224.041 77.4295 223.845 77.0837C223.649 76.7379 223.563 76.3428 223.599 75.9491C223.635 75.5555 223.791 75.1813 224.046 74.8745C224.301 74.5677 224.645 74.3424 225.033 74.2275C225.421 74.1126 225.835 74.1133 226.222 74.2296C226.609 74.3459 226.952 74.5723 227.206 74.88C227.461 75.1877 227.615 75.5624 227.649 75.9562Z" fill="#263238"/>
<g style="mix-blend-mode:multiply" opacity="0.5">
<g style="mix-blend-mode:multiply" opacity="0.5">
<path d="M230.541 88.5704L236.712 90.2578C236.616 90.6589 236.439 91.0371 236.19 91.3699C235.941 91.7026 235.626 91.983 235.263 92.1944C234.901 92.4059 234.498 92.544 234.08 92.6005C233.662 92.657 233.236 92.6308 232.828 92.5234C231.995 92.2841 231.289 91.7374 230.862 90.9994C230.435 90.2613 230.32 89.3899 230.541 88.5704V88.5704Z" fill="#F28F8F"/>
</g>
</g>
<path d="M245.11 69.36L241.056 66.823C241.21 66.5559 241.419 66.3227 241.67 66.1378C241.92 65.9529 242.207 65.8203 242.512 65.7483C242.818 65.6764 243.135 65.6665 243.445 65.7195C243.754 65.7724 244.049 65.887 244.311 66.056C244.855 66.4003 245.242 66.9361 245.391 67.5516C245.539 68.1672 245.439 68.815 245.11 69.36V69.36Z" fill="#263238"/>
<path d="M224.673 69.36L220.22 71.2008C220.083 70.9234 220.005 70.6215 219.992 70.3137C219.979 70.006 220.031 69.6988 220.144 69.4113C220.257 69.1238 220.43 68.862 220.651 68.6421C220.872 68.4222 221.137 68.2489 221.43 68.1328C222.029 67.8939 222.699 67.8881 223.302 68.1163C223.905 68.3446 224.396 68.7897 224.673 69.36V69.36Z" fill="#263238"/>
<path d="M244.239 74.965C244.256 75.3393 244.16 75.7103 243.963 76.032C243.766 76.3537 243.477 76.6118 243.131 76.7744C242.785 76.9369 242.397 76.9967 242.016 76.9463C241.636 76.8958 241.279 76.7374 240.99 76.4907C240.7 76.244 240.492 75.9198 240.39 75.5586C240.288 75.1973 240.298 74.8148 240.417 74.4587C240.536 74.1025 240.76 73.7884 241.061 73.5553C241.362 73.3223 241.726 73.1806 242.109 73.1478C242.372 73.1286 242.636 73.1605 242.885 73.2418C243.135 73.3231 243.366 73.452 243.564 73.6212C243.762 73.7903 243.924 73.9963 244.04 74.227C244.156 74.4577 244.223 74.7086 244.239 74.965Z" fill="#263238"/>
<g style="mix-blend-mode:multiply" opacity="0.5">
<g style="mix-blend-mode:multiply" opacity="0.5">
<path d="M234.813 74.198L235.539 85.6676L241.673 83.579L234.813 74.198Z" fill="#F28F8F"/>
</g>
</g>
<g style="mix-blend-mode:multiply" opacity="0.5">
<g style="mix-blend-mode:multiply" opacity="0.5">
<path d="M228.545 100.37C223.523 99.9102 213.129 97.385 211.375 93.4792C212.093 95.4643 213.419 97.1862 215.174 98.4116C218.345 100.878 228.654 103.415 228.654 103.415L228.545 100.37Z" fill="#F28F8F"/>
</g>
</g>
<path d="M208.181 78.6348L208.483 86.6116C209.215 86.5873 209.934 86.4221 210.6 86.1257C211.266 85.8293 211.865 85.4074 212.363 84.8843C212.862 84.3612 213.249 83.7473 213.503 83.0777C213.757 82.4082 213.872 81.6963 213.843 80.983L213.577 73.6198L208.181 78.6348Z" fill="#263238"/>
<path d="M192.729 239.245C209.769 239.245 223.584 225.773 223.584 209.155C223.584 192.536 209.769 179.065 192.729 179.065C175.688 179.065 161.874 192.536 161.874 209.155C161.874 225.773 175.688 239.245 192.729 239.245Z" fill="#F5F5F5"/>
<path d="M198.137 194.499C193.81 194.823 189.591 195.978 185.723 197.897C185.335 201.948 185.335 206.025 185.723 210.075C189.227 211.821 192.967 213.076 196.831 213.804C196.831 213.804 202.735 209.084 204.357 204.706C203.163 200.862 201.028 197.36 198.137 194.499V194.499Z" fill="#455A64"/>
<path d="M177.459 192.788L176.587 191.101C176.527 191.171 176.478 191.254 176.418 191.337L176.273 191.514L177.096 193.118L185.566 198.086L186.485 198.759C186.51 198.7 186.543 198.644 186.582 198.594C186.641 198.518 186.71 198.451 186.788 198.393L185.832 197.697L177.459 192.788Z" fill="#455A64"/>
<path d="M195.076 181.153C194.362 181.071 193.6 180.988 192.741 180.929C188.242 180.624 183.763 181.75 179.975 184.139L178.233 185.118C178.312 185.258 178.37 185.409 178.402 185.566L180.229 184.528C183.931 182.196 188.308 181.095 192.705 181.389C193.794 181.472 194.762 181.578 195.609 181.696C195.39 181.558 195.208 181.372 195.076 181.153Z" fill="#455A64"/>
<path d="M201.114 185.118L200.703 186.44L197.92 194.416L197.254 196.104C197.411 196.135 197.565 196.178 197.714 196.234L198.367 194.57L201.162 186.581L201.574 185.248C201.416 185.223 201.262 185.179 201.114 185.118V185.118Z" fill="#455A64"/>
<path d="M215.985 204.966C215.675 205.223 215.347 205.459 215.005 205.674C211.485 205.085 207.934 204.691 204.369 204.494H204.2C203.98 204.496 203.762 204.515 203.546 204.553C203.558 204.706 203.558 204.86 203.546 205.013C203.811 204.983 204.079 204.983 204.345 205.013C207.919 205.205 211.478 205.599 215.005 206.193H215.102H215.174C215.508 205.996 215.824 205.771 216.118 205.52C216.051 205.341 216.006 205.155 215.985 204.966V204.966Z" fill="#455A64"/>
<path d="M211.532 188.257C213.42 190.015 216.941 193.307 218.381 197.862C218.497 198.22 218.582 198.587 218.635 198.959C218.779 198.896 218.929 198.845 219.083 198.806C219.03 198.443 218.949 198.084 218.841 197.732C217.364 193.012 213.783 189.708 211.859 187.915C211.629 187.714 211.435 187.525 211.266 187.36C210.885 187 210.481 186.665 210.056 186.357C210.029 186.432 209.993 186.504 209.947 186.569C209.895 186.629 209.834 186.681 209.766 186.723C210.155 187.025 210.526 187.348 210.879 187.69L211.532 188.257Z" fill="#455A64"/>
<path d="M197.085 213.804C197.085 213.615 197.327 213.001 197.641 212.175C197.46 212.266 197.263 212.326 197.061 212.352C196.782 213.119 196.625 213.65 196.601 213.745L199.626 224.943H199.698C199.783 225.002 200.763 225.675 201.888 226.406H201.997L202.506 226.288C201.61 225.722 200.691 225.108 200.086 224.66L197.085 213.804Z" fill="#455A64"/>
<path d="M218.453 215.326C218.223 215.881 217.969 216.506 217.679 217.049C215.831 220.552 213.28 223.658 210.177 226.182C209.741 226.406 208.967 226.772 208.168 227.114C208.313 227.206 208.44 227.322 208.543 227.456C209.463 227.067 210.25 226.666 210.431 226.56C213.615 223.998 216.23 220.83 218.115 217.249C218.381 216.707 218.611 216.164 218.828 215.645C218.693 215.551 218.567 215.444 218.453 215.326Z" fill="#455A64"/>
<path d="M187.054 209.06C186.618 209.284 186.134 209.556 185.59 209.874C182.342 211.98 179.282 214.348 176.442 216.954V216.954C176.321 217.143 175.934 217.804 175.498 218.689C175.618 218.819 175.727 218.957 175.825 219.102C176.2 218.347 176.563 217.674 176.829 217.214C179.641 214.614 182.668 212.246 185.88 210.134C186.473 209.78 187.005 209.497 187.465 209.261C187.322 209.207 187.184 209.14 187.054 209.06V209.06Z" fill="#455A64"/>
<path d="M193.842 231.516C193.031 231.516 192.112 231.433 191.095 231.35C186.986 231.056 183.045 229.641 179.721 227.268V227.268H179.661C179.16 227.153 178.667 227.007 178.185 226.831C178.185 226.996 178.185 227.15 178.185 227.315C178.85 227.539 179.395 227.669 179.552 227.716C182.946 230.123 186.959 231.561 191.144 231.87L193.721 232.023C193.727 231.848 193.768 231.675 193.842 231.516V231.516Z" fill="#455A64"/>
<path d="M167.646 213.32C167.809 213.287 167.978 213.287 168.142 213.32C167.995 212.796 167.877 212.264 167.791 211.727C167.467 207.766 167.666 203.78 168.384 199.868C168.528 199.151 168.71 198.442 168.928 197.744C168.815 197.756 168.702 197.756 168.589 197.744H168.42C168.226 198.397 168.057 199.07 167.912 199.762C167.182 203.724 166.982 207.762 167.319 211.774C167.404 212.317 167.512 212.836 167.646 213.32Z" fill="#455A64"/>
<path d="M192.729 181.153C195.808 182.377 198.6 184.2 200.933 186.51C204.355 186.263 207.796 186.607 211.097 187.525C210.999 186.533 210.817 185.55 210.552 184.587C206.04 181.466 200.748 179.591 195.233 179.159C194.353 179.767 193.516 180.434 192.729 181.153V181.153Z" fill="#455A64"/>
<path d="M222.64 201.791C221.46 200.307 220.103 198.964 218.599 197.791C217.713 200.613 216.52 203.335 215.041 205.91C216.268 209.586 217.218 213.344 217.885 217.155C219.575 216.824 221.231 216.346 222.834 215.727C223.879 211.13 223.813 206.359 222.64 201.791V201.791Z" fill="#455A64"/>
<path d="M172.231 229.474C172.231 229.474 177.204 229.038 179.576 227.456C179.576 227.456 178.015 222.89 176.612 217.179C173.435 215.635 170.406 213.819 167.561 211.751C167.561 211.751 165.625 213.709 165.141 219.928C166.844 223.53 169.253 226.773 172.231 229.474V229.474Z" fill="#455A64"/>
<path d="M165.77 194.617C166.135 196.516 166.965 198.302 168.19 199.821C170.532 196.763 173.687 194.389 177.313 192.953C178.039 190.019 178.981 187.14 180.133 184.339C178.611 184.164 177.078 184.109 175.547 184.174C171.483 186.847 168.131 190.427 165.77 194.617Z" fill="#455A64"/>
<path d="M210.286 226.383C206.752 226.274 203.244 225.764 199.831 224.86C197.156 227.389 194.22 229.643 191.071 231.586C191.071 231.586 193.285 235.952 195.984 237.557C199.941 237.145 203.794 236.063 207.37 234.359C208.846 231.902 209.835 229.196 210.286 226.383V226.383Z" fill="#455A64"/>
<path opacity="0.1" d="M219.3 224.459C214.134 231.598 194.229 236.106 181.536 220.046C168.843 203.986 176.176 185.531 185.408 179.926C180.464 181.104 175.895 183.456 172.109 186.773C168.322 190.09 165.436 194.268 163.708 198.937C161.979 203.605 161.461 208.618 162.201 213.529C162.94 218.44 164.914 223.096 167.946 227.083C170.978 231.069 174.975 234.262 179.579 236.378C184.183 238.493 189.253 239.465 194.335 239.206C199.418 238.948 204.357 237.467 208.71 234.896C213.064 232.325 216.698 228.744 219.288 224.471L219.3 224.459Z" fill="black"/>
<path d="M183.448 221.238C185.033 221.733 188.288 222.335 188.929 220.412C189.571 218.488 186.884 218.134 185.009 216.305C183 214.219 180.866 212.248 178.62 210.405C175.752 208.211 172.001 207.904 170.683 205.461C169.267 203.455 162.6 174.699 160.845 166.875C169.787 156.692 177.906 148.101 184.561 140.337C184.561 140.337 193.915 122.307 193.564 110.66C188.276 109.008 182.178 109.645 172.401 119.793C163.144 129.515 154.466 139.747 146.41 150.438C137.94 161.813 137.226 161.494 140.36 172.964C144.311 186.558 149.244 199.863 155.122 212.777C158.752 220.258 159.962 222.819 163.265 228.035C166.278 232.755 172.8 237.97 176.357 239.079C181.657 240.708 189.038 239.835 189.474 234.631C189.909 229.427 180.096 224.223 178.584 218.949C180.128 219.859 181.757 220.625 183.448 221.238Z" fill="#FFA8A7"/>
<path d="M194.979 109.763C194.979 109.763 185.203 108.949 180.58 112.253C175.958 115.557 173.32 117.752 164.693 126.767C161.547 130.083 157.675 134.791 157.675 134.791C157.675 134.791 162.515 148.951 176.854 151.205L190.551 137.8C193.915 134.26 198.44 122.979 194.979 109.763Z" fill="#00BFA5"/>
<path d="M344.62 39.5414C344.301 39.544 343.988 39.4625 343.713 39.3054L334.94 34.3612C334.523 34.1265 334.218 33.7397 334.094 33.2861C333.969 32.8324 334.034 32.349 334.275 31.9422C334.515 31.5353 334.912 31.2384 335.377 31.1167C335.842 30.995 336.338 31.0585 336.755 31.2932L345.528 36.2374C345.874 36.4319 346.145 36.7327 346.298 37.0929C346.452 37.4531 346.479 37.8526 346.375 38.2293C346.272 38.6061 346.044 38.9389 345.726 39.1762C345.409 39.4134 345.02 39.5418 344.62 39.5414V39.5414Z" fill="#00BFA5"/>
<path d="M350.634 19.8H339.562C339.081 19.8 338.619 19.6135 338.279 19.2816C337.939 18.9496 337.747 18.4994 337.747 18.03C337.747 17.5605 337.939 17.1103 338.279 16.7784C338.619 16.4465 339.081 16.26 339.562 16.26H350.634C351.115 16.26 351.577 16.4465 351.917 16.7784C352.258 17.1103 352.449 17.5605 352.449 18.03C352.449 18.4994 352.258 18.9496 351.917 19.2816C351.577 19.6135 351.115 19.8 350.634 19.8Z" fill="#00BFA5"/>
<path d="M334.674 5.63998C334.274 5.64041 333.885 5.51202 333.568 5.27476C333.25 5.03751 333.022 4.70466 332.919 4.32794C332.815 3.95122 332.842 3.55172 332.996 3.19151C333.149 2.83129 333.42 2.53054 333.766 2.33598L345.08 -4.03603C345.286 -4.15225 345.514 -4.22765 345.751 -4.25793C345.987 -4.28822 346.228 -4.27278 346.458 -4.21252C346.688 -4.15225 346.904 -4.04833 347.093 -3.90669C347.283 -3.76506 347.441 -3.58848 347.56 -3.38703C347.68 -3.18558 347.757 -2.96321 347.788 -2.73262C347.819 -2.50203 347.803 -2.26774 347.741 -2.04312C347.68 -1.81849 347.573 -1.60793 347.428 -1.42347C347.283 -1.23901 347.101 -1.08424 346.895 -0.968023L335.581 5.40398C335.306 5.55998 334.993 5.64145 334.674 5.63998V5.63998Z" fill="#00BFA5"/>
<path d="M274.549 39.5414C274.149 39.5418 273.76 39.4134 273.443 39.1762C273.125 38.9389 272.897 38.6061 272.794 38.2293C272.69 37.8526 272.717 37.4531 272.871 37.0929C273.024 36.7327 273.295 36.4319 273.642 36.2374L282.414 31.2932C282.831 31.0585 283.327 30.995 283.792 31.1167C284.257 31.2384 284.654 31.5353 284.895 31.9422C285.135 32.349 285.2 32.8324 285.076 33.2861C284.951 33.7397 284.646 34.1265 284.229 34.3612L275.457 39.3054C275.181 39.4614 274.868 39.5429 274.549 39.5414V39.5414Z" fill="#00BFA5"/>
<path d="M279.595 19.8H268.523C268.042 19.8 267.58 19.6135 267.24 19.2816C266.899 18.9496 266.708 18.4994 266.708 18.03C266.708 17.5605 266.899 17.1103 267.24 16.7784C267.58 16.4465 268.042 16.26 268.523 16.26H279.595C280.076 16.26 280.538 16.4465 280.878 16.7784C281.219 17.1103 281.41 17.5605 281.41 18.03C281.41 18.4994 281.219 18.9496 280.878 19.2816C280.538 19.6135 280.076 19.8 279.595 19.8Z" fill="#00BFA5"/>
<path d="M284.495 5.63999C284.177 5.64146 283.863 5.55999 283.588 5.40398L272.25 -0.920817C272.043 -1.03704 271.862 -1.19179 271.717 -1.37626C271.572 -1.56072 271.465 -1.77128 271.404 -1.9959C271.342 -2.22053 271.326 -2.45482 271.357 -2.68541C271.388 -2.916 271.465 -3.13837 271.585 -3.33982C271.704 -3.54126 271.862 -3.71785 272.052 -3.85949C272.241 -4.00113 272.457 -4.10504 272.687 -4.16531C272.917 -4.22557 273.158 -4.241 273.394 -4.21072C273.63 -4.18044 273.858 -4.10503 274.065 -3.98882L285.391 2.38319C285.737 2.57775 286.008 2.87851 286.162 3.23872C286.315 3.59893 286.342 3.99843 286.238 4.37515C286.135 4.75187 285.907 5.08472 285.589 5.32197C285.272 5.55923 284.883 5.68762 284.483 5.68719L284.495 5.63999Z" fill="#00BFA5"/>
</svg>
