<svg width="500" height="500" viewBox="0 0 500 500" fill="none" xmlns="http://www.w3.org/2000/svg">
<path d="M252.93 483.39C383.667 483.39 489.65 426.297 489.65 355.87C489.65 285.443 383.667 228.35 252.93 228.35C122.193 228.35 16.21 285.443 16.21 355.87C16.21 426.297 122.193 483.39 252.93 483.39Z" fill="#F0F0F0"/>
<path d="M252.18 404.24C289.039 404.24 318.92 386.989 318.92 365.71C318.92 344.43 289.039 327.18 252.18 327.18C215.321 327.18 185.44 344.43 185.44 365.71C185.44 386.989 215.321 404.24 252.18 404.24Z" fill="#E0E0E0"/>
<path d="M120.69 424.71C161.172 424.71 193.99 405.763 193.99 382.39C193.99 359.017 161.172 340.07 120.69 340.07C80.2075 340.07 47.39 359.017 47.39 382.39C47.39 405.763 80.2075 424.71 120.69 424.71Z" fill="#E0E0E0"/>
<path d="M375.99 428.56C416.472 428.56 449.29 409.613 449.29 386.24C449.29 362.867 416.472 343.92 375.99 343.92C335.508 343.92 302.69 362.867 302.69 386.24C302.69 409.613 335.508 428.56 375.99 428.56Z" fill="#E0E0E0"/>
<path d="M414.36 338.06C414.36 338.06 411.87 314.22 418.43 296.58C424.99 278.94 436.51 266.32 449.01 262.58C461.51 258.84 474.75 271.68 462.89 282.67C451.03 293.66 428.63 307.1 424 339.57L414.36 338.06Z" fill="#00BFA5"/>
<path opacity="0.15" d="M414.36 338.06C414.36 338.06 411.87 314.22 418.43 296.58C424.99 278.94 436.51 266.32 449.01 262.58C461.51 258.84 474.75 271.68 462.89 282.67C451.03 293.66 428.63 307.1 424 339.57L414.36 338.06Z" fill="black"/>
<path d="M416.88 332.74H416.73C416.539 332.713 416.367 332.611 416.251 332.458C416.135 332.304 416.084 332.111 416.11 331.92C421.27 294.22 444.05 273.22 455.37 267.39C455.541 267.302 455.74 267.286 455.923 267.346C456.013 267.375 456.097 267.422 456.17 267.483C456.242 267.545 456.302 267.62 456.345 267.705C456.388 267.79 456.415 267.882 456.422 267.977C456.43 268.072 456.419 268.167 456.389 268.258C456.36 268.348 456.313 268.432 456.252 268.505C456.19 268.577 456.115 268.637 456.03 268.68C444.94 274.39 422.63 295.01 417.55 332.12C417.527 332.285 417.448 332.437 417.326 332.55C417.204 332.663 417.046 332.73 416.88 332.74V332.74Z" fill="white"/>
<path d="M420.61 355.41C420.913 352.447 420.689 349.455 419.95 346.57C419.23 343.48 417.37 340.57 417.22 337.33C417.1 334.75 418.71 331.83 420.54 330.09C422.37 328.35 424.92 327.03 426.19 324.76C427.46 322.49 427.19 319.57 427.82 316.98C428.503 314.102 430.279 311.602 432.773 310.01C435.266 308.418 438.281 307.858 441.18 308.45C443.88 309.01 446.26 310.51 448.73 311.73C451.163 313.087 453.965 313.634 456.73 313.29C459.761 312.708 462.835 312.373 465.92 312.29C471.17 312.29 477.77 314.08 479.57 319.63C480.084 320.989 480.134 322.48 479.71 323.87L479.65 324.04C478.13 327.8 473.34 328.57 470.26 330.41C469.42 330.92 468.01 331.63 467.69 332.65C467.37 333.67 468.25 335.07 468.69 336.01C469.81 338.44 471.43 340.78 471.58 343.53C471.78 347.46 468.5 351.24 465.19 352.91C461.936 354.385 458.361 355.008 454.8 354.72C453.04 354.64 451.12 354.49 449.67 355.5C449.078 355.992 448.595 356.602 448.251 357.29C447.907 357.979 447.709 358.731 447.67 359.5C447.48 361.02 447.62 362.57 447.48 364.1C447.172 366.51 446.222 368.792 444.73 370.709C443.239 372.627 441.26 374.108 439 375C435.219 376.435 431.035 376.385 427.29 374.86C424.21 373.65 421.57 369.95 420.97 366.73C420.343 362.99 420.222 359.182 420.61 355.41V355.41Z" fill="#00BFA5" />
<path d="M421.88 364.39H421.83C421.755 364.379 421.682 364.353 421.616 364.314C421.551 364.275 421.494 364.223 421.448 364.162C421.402 364.1 421.37 364.031 421.351 363.957C421.332 363.883 421.329 363.806 421.34 363.73C426.42 327.47 462.81 317.88 471.54 317.45C471.693 317.444 471.843 317.499 471.957 317.601C472.07 317.704 472.14 317.847 472.15 318C472.156 318.076 472.145 318.153 472.12 318.226C472.096 318.298 472.056 318.365 472.005 318.422C471.954 318.479 471.891 318.525 471.822 318.557C471.752 318.59 471.677 318.607 471.6 318.61C463.05 319.03 427.46 328.41 422.49 363.89C422.472 364.036 422.399 364.169 422.286 364.263C422.172 364.356 422.027 364.401 421.88 364.39V364.39Z" fill="white"/>
<path d="M460.83 341.58C460.71 341.575 460.595 341.533 460.5 341.46C460.4 341.38 449.83 333.22 434.45 337.46C434.377 337.481 434.301 337.488 434.225 337.479C434.15 337.47 434.077 337.447 434.011 337.409C433.945 337.372 433.887 337.322 433.84 337.262C433.794 337.202 433.76 337.133 433.74 337.06C433.7 336.91 433.721 336.751 433.797 336.616C433.874 336.481 434.001 336.382 434.15 336.34C438.697 335.012 443.482 334.702 448.162 335.433C452.843 336.164 457.305 337.918 461.23 340.57C461.349 340.668 461.425 340.808 461.442 340.962C461.459 341.115 461.415 341.269 461.32 341.39C461.26 341.459 461.184 341.512 461.098 341.545C461.013 341.578 460.921 341.59 460.83 341.58V341.58Z" fill="white"/>
<path d="M80.55 327.05C82.16 317.92 81.89 302.17 75.13 285.48C67.9 267.62 56.77 254.73 45.56 256.48C35.11 258.11 35.29 272 48.12 289C57.12 300.92 65.83 315.65 68.48 331.39L74.05 352L80.55 327.05Z" fill="#00BFA5"/>
<path d="M80.55 327.05C82.16 317.92 81.89 302.17 75.13 285.48C67.9 267.62 56.77 254.73 45.56 256.48C35.11 258.11 35.29 272 48.12 289C57.12 300.92 65.83 315.65 68.48 331.39L74.05 352L80.55 327.05Z" fill="#00BFA5"/>
<g opacity="0.15">
<path opacity="0.15" d="M80.55 327.05C82.16 317.92 81.89 302.17 75.13 285.48C67.9 267.62 56.77 254.73 45.56 256.48C35.11 258.11 35.29 272 48.12 289C57.12 300.92 65.83 315.65 68.48 331.39L74.05 352L80.55 327.05Z" fill="black"/>
</g>
<path d="M77.8601 333.63C77.7301 333.596 77.6136 333.523 77.526 333.422C77.4385 333.32 77.3841 333.194 77.3701 333.06C74.8301 305.92 62.6101 276 49.0001 263.34C48.9344 263.282 48.8809 263.211 48.8426 263.132C48.8043 263.053 48.782 262.967 48.7769 262.879C48.7718 262.791 48.784 262.703 48.8129 262.62C48.8417 262.537 48.8867 262.461 48.9451 262.395C49.0035 262.329 49.0743 262.276 49.1535 262.238C49.2326 262.199 49.3185 262.177 49.4062 262.172C49.494 262.167 49.5819 262.179 49.6649 262.208C49.7479 262.237 49.8244 262.282 49.8901 262.34C63.7601 275.14 76.1501 305.47 78.7201 332.89C78.7369 333.064 78.6842 333.237 78.5737 333.372C78.4631 333.507 78.3036 333.592 78.1301 333.61C78.0416 333.63 77.9506 333.637 77.8601 333.63V333.63Z" fill="white"/>
<path d="M76.2301 356.75C70.5025 360.479 63.8945 362.634 57.0701 363C45.2701 363.82 40.6301 357.81 40.6301 357.81C40.6301 357.81 46.1701 347.3 53.0401 344.81C53.0401 344.81 41.6401 346.1 32.1201 351.31C32.1201 351.31 25.0101 350.8 23.1201 339.7C23.1201 339.7 27.9101 333.55 42.3401 331.26C42.3401 331.26 33.9401 328.35 21.2801 330.42C20.2801 330.7 17.5901 316.33 16.9601 309.76C16.3301 303.19 18.9601 303.48 24.0901 302.58C29.2201 301.68 46.5001 302.34 49.4101 305.39C52.3201 308.44 53.0901 318.07 53.0901 318.07C53.0901 318.07 56.8301 311.65 56.0901 305.82C60.6955 305.71 65.2653 306.654 69.4501 308.58C70.7001 309.16 71.3701 318.82 67.6801 326.18C71.5431 322.338 74.3354 317.553 75.7801 312.3C82.6601 317.45 84.2801 323.57 84.7801 329.05C85.3401 335.51 84.3601 349 76.2301 356.75Z" fill="#00BFA5"/>
<path d="M76.17 357.4C76.0474 357.391 75.9299 357.347 75.8322 357.272C75.7345 357.198 75.6607 357.096 75.62 356.98C67.94 336.65 35.03 310.91 22.74 307.38C22.6566 307.356 22.5786 307.315 22.5108 307.261C22.443 307.207 22.3865 307.14 22.3447 307.063C22.3029 306.987 22.2765 306.904 22.2672 306.817C22.2578 306.731 22.2656 306.643 22.29 306.56C22.3411 306.395 22.4538 306.256 22.6047 306.172C22.7556 306.089 22.9331 306.066 23.1 306.11C35.59 309.71 69.05 335.86 76.85 356.52C76.9083 356.683 76.9001 356.863 76.8271 357.02C76.7541 357.177 76.6223 357.299 76.46 357.36C76.3685 357.398 76.2685 357.412 76.17 357.4Z" fill="white"/>
<path d="M193.72 153L152.53 134.72L151.53 112.22C159.53 111.74 162.06 113.48 165.66 115.71C170.93 118.96 189.06 128.29 197.6 132.3L207.31 105.3C210.106 104.939 212.853 104.268 215.5 103.3C218.38 102 221.59 103.7 221.59 103.7C221.59 103.7 213 145.3 209.76 153C207.91 157.37 200.82 156.1 193.72 153Z" fill="#FFA8A7"/>
<path d="M151.54 112.17C151.54 112.17 156.88 110.54 164.1 114.17C171.32 117.8 187.72 126.7 187.72 126.7C187.72 126.7 182.72 140.37 176.85 147.65L156.13 138.81L151.54 112.17Z" fill="#455A64"/>
<path d="M216.07 289.77C216.32 277.71 218.68 269.41 218.96 266.07C218.96 266.07 218.07 194.36 218.07 182.73L279.21 180.24C279.21 180.24 277.21 255.49 277.21 265.45C277.21 275.41 270.87 325.45 269 345.14C265.46 349.76 261.32 350.08 255.76 345.56C255.76 345.56 255.3 342.81 254.58 333.73C253.74 323.34 252.08 299.15 251.98 288.97C251.86 276.43 251.76 270.9 252.12 264.86C252.55 257.95 250.89 211.33 250.89 211.33C250.89 211.33 243.23 255.8 241.32 270.9C239.14 288.21 232.14 338.9 232.12 349.43C232.12 351.32 232.12 353.51 232.12 355.88C232.12 361.58 231.96 363.09 232.87 365.3C234.47 369.16 220.8 371.58 220.17 368.84L218.7 357.51V357.18V350C218.76 339.25 215.71 307.25 216.07 289.77Z" fill="#B16668"/>
<path d="M296 363.56C296.37 364.67 296.302 365.879 295.81 366.94C295.34 367.94 290.18 370.84 283.22 370.37C278.063 370.019 273.094 368.292 268.83 365.37C266.17 363.61 263.41 363.28 259.97 363.09C256.53 362.9 251.97 361.17 251.24 359.56C250.51 357.95 251.35 355.17 251.35 355.17L296 363.56Z" fill="#263238"/>
<path d="M267.94 341.85L268.49 341.73C268.79 341.649 269.103 341.632 269.41 341.68C269.748 341.784 270.047 341.986 270.27 342.26C270.952 343.13 271.548 344.065 272.05 345.05C273.51 347.43 276.57 349.4 279.91 351.2C282.19 352.42 284.42 353.37 286.76 354.43C289.1 355.49 292.33 356.16 294.21 357.43C296.94 359.27 297.29 363.9 294.21 365.73C291.53 367.3 284.46 369.01 277.06 366.91C273.06 365.77 268.54 361.46 263.25 361.04C259.88 360.78 253.51 359.83 251.34 357.27C250.54 356.14 251.61 352.54 252.49 349.44C253.49 346.05 254.17 340.73 255.29 341.03C255.326 341.64 255.393 342.247 255.49 342.85C255.61 343.37 256.17 343.85 256.49 344.25L257.79 345.75C258.313 346.445 258.969 347.03 259.72 347.47C261.05 348.15 262.64 347.86 264.1 347.55C264.17 347.55 263.5 344.89 263.43 344.63C263.359 344.424 263.342 344.204 263.38 343.99C263.467 343.782 263.622 343.609 263.82 343.5C265.062 342.667 266.466 342.105 267.94 341.85V341.85Z" fill="#455A64"/>
<path d="M246.19 383.28C246.6 383.67 246.48 386.28 246.02 387.03C245.56 387.78 242.74 390.18 237.68 390.55C232.84 390.89 228.52 390.24 225.68 388.44C222.84 386.64 221.47 384.65 221.2 381.89C220.93 379.13 221.2 376.48 219.93 374.36C218.72 372.36 216.78 370.2 216.36 369.13C215.45 366.83 216.36 363.52 216.36 363.52L246.19 383.28Z" fill="#263238"/>
<path d="M233 359.23C233.041 360.275 233.23 361.308 233.56 362.3C234.313 364.433 235.32 366.468 236.56 368.36C237.162 369.354 237.83 370.306 238.56 371.21C240.02 372.95 241.84 374.37 243.39 376.04C245.047 377.614 246.107 379.713 246.39 381.98C246.6 385.77 242.48 387.06 239.31 387.63C235.881 388.229 232.361 388.051 229.01 387.11C227.25 386.649 225.661 385.691 224.432 384.351C223.203 383.01 222.386 381.343 222.08 379.55C221.9 378.5 221.97 377.42 221.84 376.36C221.424 373.939 220.41 371.66 218.89 369.73C218.01 368.607 217.253 367.394 216.63 366.11C215.63 363.77 216.43 361.11 217.07 358.79C217.61 356.79 218.23 354.48 218.94 354.67C218.94 355.72 218.94 355.83 219.69 356.54C220.69 357.44 220.69 358.79 221.69 359.54C221.364 358.667 221.13 357.762 220.99 356.84C220.927 356.47 221.002 356.089 221.2 355.77C221.536 355.474 221.937 355.262 222.37 355.15C223.863 354.641 225.404 354.289 226.97 354.1C228.46 353.85 229.98 353.85 231.47 354.1C231.911 354.177 232.311 354.408 232.6 354.75C232.861 355.133 233 355.586 233 356.05C233 356.66 232.92 358.23 233 359.23Z" fill="#455A64"/>
<path d="M237 369.16C235.59 368.1 232.43 368.08 230.7 368.27C228.939 368.418 227.246 369.014 225.78 370C225.562 370.152 225.298 370.223 225.033 370.201C224.769 370.179 224.52 370.066 224.33 369.88C224.219 369.774 224.132 369.644 224.076 369.5C224.021 369.357 223.997 369.203 224.008 369.049C224.018 368.896 224.062 368.746 224.137 368.611C224.212 368.477 224.315 368.36 224.44 368.27C226.058 367.095 227.975 366.401 229.97 366.27C234.23 365.97 235.48 366.7 235.48 366.7C235.48 366.7 237.4 367.9 237 369.16Z" fill="#F5F5F5"/>
<path d="M240.23 373C238.46 371.95 234.97 372.1 233.23 372.29C231.504 372.463 229.854 373.091 228.45 374.11C228.235 374.267 227.971 374.342 227.705 374.322C227.439 374.302 227.189 374.188 227 374V374C226.89 373.893 226.805 373.763 226.75 373.62C226.696 373.476 226.673 373.323 226.683 373.17C226.694 373.017 226.737 372.868 226.811 372.733C226.885 372.598 226.987 372.481 227.11 372.39C228.751 371.142 230.708 370.377 232.76 370.18C237.02 369.88 238.13 370.75 238.13 370.75C238.628 370.94 239.077 371.242 239.441 371.632C239.805 372.022 240.075 372.49 240.23 373Z" fill="#F5F5F5"/>
<path d="M228.26 362.14C230.052 361.83 231.895 361.985 233.61 362.59C234.36 363.01 234.85 364.2 234.37 364.5C232.869 363.891 231.24 363.667 229.63 363.85C228.033 364.004 226.474 364.43 225.02 365.11C224.66 365.27 224.22 365.5 223.85 365.71C223.73 365.778 223.598 365.821 223.461 365.836C223.324 365.851 223.185 365.837 223.054 365.796C222.922 365.755 222.801 365.686 222.697 365.596C222.593 365.505 222.509 365.394 222.45 365.27V365.27C222.348 365.059 222.329 364.817 222.398 364.592C222.466 364.368 222.617 364.178 222.82 364.06C224.474 363.036 226.33 362.381 228.26 362.14Z" fill="#F5F5F5"/>
<path d="M276.77 349.37C276.528 348.906 276.173 348.509 275.738 348.217C275.303 347.926 274.802 347.748 274.28 347.7C272.75 347.42 270.04 348.55 268.36 349.93C268.2 350.06 268.074 350.227 267.993 350.416C267.913 350.606 267.88 350.812 267.898 351.018C267.915 351.223 267.983 351.421 268.095 351.594C268.207 351.767 268.36 351.91 268.54 352.01V352.01C268.767 352.136 269.028 352.189 269.286 352.16C269.544 352.131 269.786 352.023 269.98 351.85C271.833 350.169 274.27 349.279 276.77 349.37Z" fill="#F5F5F5"/>
<path d="M281.52 352C281.186 351.529 280.744 351.144 280.231 350.88C279.717 350.615 279.148 350.478 278.57 350.48C278.57 350.48 274.57 350.6 272.09 352.9C271.94 353.027 271.822 353.188 271.747 353.369C271.672 353.551 271.641 353.748 271.658 353.944C271.675 354.14 271.738 354.329 271.843 354.495C271.947 354.662 272.091 354.8 272.26 354.9C272.478 355.021 272.728 355.071 272.976 355.042C273.223 355.014 273.456 354.908 273.64 354.74C274.664 353.722 275.904 352.947 277.268 352.472C278.632 351.998 280.085 351.837 281.52 352V352Z" fill="#F5F5F5"/>
<path d="M286.76 354.43C286.38 353.992 285.91 353.642 285.382 353.403C284.853 353.165 284.28 353.045 283.7 353.05C281.426 353.188 279.254 354.046 277.5 355.5C277.35 355.627 277.232 355.788 277.157 355.969C277.082 356.151 277.051 356.348 277.068 356.544C277.085 356.74 277.148 356.929 277.253 357.095C277.357 357.262 277.501 357.4 277.67 357.5V357.5C277.888 357.621 278.138 357.671 278.386 357.642C278.633 357.614 278.866 357.508 279.05 357.34C280.018 356.286 281.22 355.474 282.559 354.969C283.898 354.464 285.337 354.279 286.76 354.43V354.43Z" fill="#F5F5F5"/>
<path d="M242.29 274.26L248.41 233.73L251 266.29C251.21 268.95 250.53 278.81 250.7 286.95C250.87 295.09 254.41 331.71 254.41 331.71C254.41 331.71 261.34 336.45 270.56 331.71C270.81 330.96 275.72 289.29 276.16 283.94C276.71 277.32 277.67 271.33 277.89 265.69C278.11 260.05 278.51 248.39 278.42 239.49C278.33 230.59 279.18 180.24 279.18 180.24L216.82 180.43L216.04 264.87C215.66 266.76 213.53 284.48 214.09 293.35C214.65 302.22 218.41 343.45 218.41 343.45C218.41 343.45 224.03 347.04 232.49 343.45C232.49 343.45 237.73 301.45 239.24 293.53C240.75 285.61 241.75 277.82 242.29 274.26Z" fill="#37474F"/>
<path d="M248.41 233.73L250.3 216.54C256.296 215.87 262.042 213.764 267.05 210.4C267.05 210.4 266.05 212.6 260.82 216.03C258.704 217.409 256.381 218.442 253.94 219.09L252 232.77L251 265.69L248.41 233.73Z" fill="#263238"/>
<path d="M264.5 92.48C272.58 92.48 276.21 94.01 280.15 98.81C284.09 103.61 302.82 128.81 302.82 128.81C302.82 128.81 316.06 116.22 322.82 109.96C327.04 105.62 331.18 101.37 335.71 100.07C340.44 98.71 338.08 107.51 339.96 108.23L334.37 116.37C334.37 116.37 313.74 143.83 306.53 148.09C304.03 149.57 301.39 152.75 294.42 147.09C285.27 139.64 268.67 120.94 268.67 120.94L264.5 92.48Z" fill="#B16668"/>
<path d="M261.22 92.47C268.68 91.21 273.41 90.74 280.15 97.83C286.89 104.92 299.93 124.93 299.93 124.93C299.93 124.93 299.16 135.2 285.93 139.22L265.48 124.93L261.22 92.47Z" fill="#455A64"/>
<path d="M216.07 189C224.46 195.11 262.5 201.88 280.15 189C280.15 189 279.74 139.69 278.36 113.59C278.29 112.41 278.21 111.26 278.09 110.14C278.09 109.77 278 109.4 277.96 109.03C277.765 107.472 277.468 105.929 277.07 104.41C277 104.16 276.92 103.91 276.84 103.66C276.678 103.096 276.485 102.542 276.26 102C276.15 101.71 276.03 101.42 275.9 101.14C275.784 100.873 275.654 100.613 275.51 100.36C275.494 100.312 275.474 100.265 275.45 100.22C275.32 99.97 275.17 99.72 275.03 99.48C274.89 99.24 274.71 98.96 274.52 98.69C274.33 98.42 274.18 98.2 274.01 97.98C273.84 97.76 273.6 97.48 273.38 97.24C273.176 97.0045 272.959 96.7808 272.73 96.57L272.27 96.14C272.126 95.9994 271.972 95.8691 271.81 95.75C271.61 95.58 271.39 95.42 271.18 95.27C270.49 94.7871 269.761 94.3623 269 94C268.786 93.888 268.565 93.7878 268.34 93.7C268.29 93.7 268.22 93.7 268.19 93.63L267.4 93.33C266.948 93.1561 266.488 93.0059 266.02 92.88C265.55 92.75 265.02 92.63 264.55 92.51C264.08 92.39 263.35 92.51 262.67 92.51H261.27C260.78 92.51 260.27 92.51 259.77 92.51C253.17 92.8 246.2 91.51 238.6 92.43C238.1 92.5 222.2 94.28 218.53 95.61C215.11 96.86 212.03 102.94 211.27 106.31C209 116.23 219 148.44 219 148.44L216.07 189Z" fill="#00BFA5"/>
<path d="M236.37 94.29C236.01 95.52 238.37 99.22 242.18 100.93C245.99 102.64 251.6 103.43 255.18 102.2C258.76 100.97 263.08 96.51 259.31 92.54C252.84 92.75 246.01 91.54 238.58 92.45C238.55 92.44 236.74 93.06 236.37 94.29Z" fill="#455A64"/>
<path opacity="0.3" d="M278.54 117.38C272.14 119.61 261.63 121.38 248.41 122.15C236.224 122.755 224.007 122.085 211.96 120.15C213.41 128.57 215.96 138.15 217.58 143.72C240.69 148.43 267.13 144.72 279.34 140.85C279.12 132.29 278.88 124.36 278.54 117.38Z" fill="black"/>
<path d="M238.21 57.8L235.87 60.36L234.67 47.14C233.721 47.0294 232.76 47.1368 231.858 47.4539C230.957 47.771 230.14 48.2895 229.47 48.97C227.24 51.25 228.47 58.4 231.27 65.4C231.27 65.4 233.98 78.14 235.07 80.23C235.79 81.5239 236.984 82.4881 238.4 82.92L238.21 57.8Z" fill="#263238"/>
<path d="M237.91 66C236.91 66.61 235.42 64.64 234.16 63.32C232.9 62 228.77 60.19 226.71 64.52C224.65 68.85 228.53 74.78 231.78 75.8C237.37 77.56 238.21 73.97 238.21 73.97L238.59 94.55C244.45 105.15 264.28 99.72 256.85 92.69V87.46C259.66 87.665 262.48 87.665 265.29 87.46C269.41 86.83 271.1 83.98 272.35 79.52C274.35 72.37 275.11 66.59 273.41 52.52C271.55 37.1 253.61 36.94 243.92 43.03C234.23 49.12 237.91 66 237.91 66Z" fill="#B16668"/>
<path d="M235.51 38.71C238.908 37.2583 242.456 36.1884 246.09 35.52C253.92 33.82 261.89 32.26 269.03 28.65C269.862 28.1079 270.837 27.8259 271.83 27.84C273.72 28.09 274.54 30.37 274.62 32.27C274.69 34.0326 274.46 35.7944 273.94 37.48C274.51 36.9365 275.272 36.6392 276.059 36.6523C276.847 36.6654 277.598 36.9879 278.15 37.55C278.673 38.1412 279.054 38.8441 279.263 39.6049C279.473 40.3657 279.506 41.1644 279.36 41.94C278.9 45.44 276.22 48.36 273.05 49.94C269.796 51.3555 266.278 52.0579 262.73 52C257.793 52.1329 252.856 51.7474 248 50.85C246.834 50.56 245.626 50.4721 244.43 50.59C243.833 50.6598 243.267 50.8954 242.797 51.2701C242.327 51.6448 241.971 52.1435 241.77 52.71C241.25 54.66 240.71 67.9 238 68C237.5 68 235.57 64.67 234.31 63.48C232.73 61.99 231.14 50.64 230.86 48.54C230.824 48.3773 230.749 48.226 230.64 48.1C228.86 45.6 230.95 41.4 233.15 40.03C233.91 39.5436 234.698 39.1028 235.51 38.71V38.71Z" fill="#263238"/>
<path d="M231.61 48.23C231.292 48.6029 230.904 48.9096 230.468 49.1326C230.031 49.3555 229.555 49.4903 229.067 49.5293C228.579 49.5683 228.087 49.5108 227.621 49.3599C227.155 49.209 226.723 48.9678 226.35 48.65C225.977 48.3322 225.67 47.944 225.447 47.5077C225.224 47.0713 225.09 46.5954 225.051 46.1069C225.012 45.6185 225.069 45.1272 225.22 44.661C225.371 44.1948 225.612 43.7629 225.93 43.39L231.61 48.23Z" fill="#263238"/>
<path d="M256.83 87.45C256.83 87.45 247.64 86.57 244.43 84.86C242.545 83.876 241.001 82.3459 240 80.47C240.483 82.3486 241.34 84.1105 242.52 85.65C244.87 88.65 256.84 90.28 256.84 90.28L256.83 87.45Z" fill="#9A4A4D"/>
<path d="M254 63.69C253.984 64.0501 253.863 64.3976 253.652 64.6895C253.44 64.9814 253.148 65.2047 252.811 65.3318C252.473 65.4589 252.106 65.4841 251.755 65.4043C251.403 65.3245 251.083 65.1433 250.833 64.8831C250.584 64.6228 250.416 64.2951 250.352 63.9405C250.287 63.5859 250.328 63.2202 250.469 62.8886C250.61 62.557 250.846 62.2742 251.147 62.0754C251.447 61.8765 251.8 61.7703 252.16 61.77C252.407 61.7752 252.65 61.8289 252.877 61.9283C253.103 62.0276 253.307 62.1705 253.478 62.3488C253.649 62.5271 253.783 62.7373 253.872 62.9674C253.962 63.1975 254.005 63.4431 254 63.69V63.69Z" fill="#263238"/>
<path d="M252.07 56.74L248.13 58.91C247.848 58.3706 247.787 57.7431 247.958 57.1593C248.13 56.5756 248.521 56.0811 249.05 55.78C249.31 55.6391 249.596 55.5521 249.891 55.5243C250.185 55.4964 250.482 55.5283 250.764 55.6179C251.046 55.7075 251.307 55.8531 251.531 56.0459C251.756 56.2387 251.939 56.4748 252.07 56.74Z" fill="#263238"/>
<path d="M254.85 76.41L260 78.33C259.885 78.6728 259.702 78.989 259.462 79.2597C259.222 79.5305 258.93 79.7503 258.604 79.906C258.277 80.0618 257.923 80.1504 257.561 80.1665C257.2 80.1827 256.839 80.126 256.5 80C255.819 79.7248 255.269 79.1998 254.962 78.5325C254.656 77.8652 254.615 77.1059 254.85 76.41V76.41Z" fill="#9A4A4D"/>
<path d="M270.27 58.27L266.68 55.51C266.845 55.2643 267.059 55.0551 267.309 54.8953C267.558 54.7355 267.837 54.6284 268.13 54.5806C268.422 54.5328 268.721 54.5454 269.008 54.6175C269.296 54.6896 269.565 54.8198 269.8 55C270.286 55.3782 270.607 55.9303 270.695 56.5401C270.782 57.15 270.63 57.7701 270.27 58.27V58.27Z" fill="#263238"/>
<path d="M269.16 63.16C269.167 63.4068 269.124 63.6524 269.035 63.8825C268.946 64.1127 268.811 64.3228 268.64 64.5005C268.469 64.6783 268.264 64.8202 268.037 64.918C267.811 65.0158 267.567 65.0674 267.32 65.07C266.94 65.084 266.564 64.9839 266.241 64.7827C265.917 64.5815 265.662 64.2883 265.506 63.9407C265.351 63.5932 265.303 63.2071 265.369 62.8321C265.434 62.4572 265.61 62.1103 265.874 61.8362C266.139 61.562 266.479 61.373 266.851 61.2934C267.223 61.2139 267.611 61.2474 267.964 61.3897C268.317 61.532 268.62 61.7765 268.833 62.0919C269.046 62.4074 269.16 62.7793 269.16 63.16V63.16Z" fill="#263238"/>
<path d="M260.28 61.85L260.89 72.92L266.67 70.95L260.28 61.85Z" fill="#9A4A4D"/>
<path d="M227.32 93.9C215.04 94.48 211.41 96.41 207.32 105.22C204.32 111.66 189.32 151.44 186.57 158.56C184.16 164.91 183.84 168.17 189.1 172.51C194.36 176.85 199.66 180.89 205.1 184.9C208.41 187.35 211.38 190.01 214.72 192.41C219.98 196.18 225.12 200.41 230.72 203.58C237.42 207.39 249.53 212.4 255.91 205.42C257.17 204.04 258.34 202.42 257.65 200.42C257.116 199.133 256.151 198.073 254.92 197.42C253.698 196.772 252.419 196.237 251.1 195.82C248.147 194.758 245.301 193.419 242.6 191.82C244.93 191.08 247.48 191.26 249.85 190.82C250.52 190.698 251.126 190.344 251.56 189.82C251.781 189.562 251.903 189.234 251.903 188.895C251.903 188.556 251.781 188.227 251.56 187.97C251.267 187.75 250.923 187.609 250.56 187.56C247.227 186.813 243.857 186.177 240.45 185.65C237.302 185.286 234.188 184.668 231.14 183.8C226.23 182.2 223.14 178.59 219.64 175C215.81 171.07 212.16 167 208.64 162.78L225 124.29C225 124.29 233.45 102.21 227.32 93.9Z" fill="#B16668"/>
<path d="M229.07 93.64C224.36 93.9 217.07 94.46 213.66 96.64C209.71 99.17 208.22 101.12 204.3 110.72C200.38 120.32 192.67 140.41 192.67 140.41C195.314 143.841 198.766 146.565 202.718 148.34C206.67 150.114 210.999 150.884 215.32 150.58L228.32 120.58C228.32 120.58 234.37 104.66 229.07 93.64Z" fill="#455A64"/>
<path d="M247.8 202C246.25 195.65 252.04 190.22 256.74 187C263.99 182 270.42 179 277.89 174.52C284.69 170.42 305.51 155.93 305.51 155.93C305.51 155.93 316.28 138.98 323.65 126.01C332.79 109.96 339.98 99.7 355.28 101.54L355.14 120.9C355.14 120.9 322.48 165.28 320.47 167.67C318.46 170.06 317.65 171.13 314.2 172.67C304.85 176.99 293.02 182.39 283.62 188.25C280.935 189.896 278.836 192.345 277.62 195.25C276.61 197.577 275.306 199.764 273.74 201.76C272.976 202.735 272.155 203.663 271.28 204.54C270.69 205.12 269.6 206.31 268.71 206.22C268.498 206.187 268.298 206.105 268.124 205.98C267.95 205.855 267.808 205.69 267.71 205.5C267.514 205.109 267.415 204.677 267.42 204.24C267.36 201.57 269.32 199.24 269.59 196.57C269.59 196.33 269.28 196.45 269.23 196.22C269.18 195.99 265.06 198.38 264.7 198.62C263.233 199.64 261.824 200.742 260.48 201.92C259.12 203.09 257.77 204.29 256.38 205.42C255.732 206.051 254.915 206.481 254.028 206.659C253.141 206.836 252.221 206.753 251.38 206.42C250.489 206 249.705 205.384 249.085 204.619C248.465 203.854 248.026 202.958 247.8 202V202Z" fill="#FFBDA7"/>
<path d="M357.24 101.36C352.35 100.36 340.37 100.49 334.95 107.77C329.23 115.44 311.54 144.5 311.54 144.5C311.54 144.5 316.06 154.2 329.29 157.5L352 126.56L357.24 101.36Z" fill="#455A64"/>
<path d="M398.66 402.49C399.06 404.06 399.89 408.49 408.15 408.49C416.41 408.49 421.15 405.1 422.76 400.91C424.37 396.72 423.45 393.6 423.3 389.91C423.15 386.22 425.87 383.91 426.47 381.91C427.36 379 424.93 374.99 424.93 374.99L398.66 402.49Z" fill="#263238"/>
<path d="M319.26 375.52C319.04 376.176 318.959 376.871 319.025 377.56C319.09 378.249 319.3 378.917 319.64 379.52C320.24 380.33 325.78 384.35 332.64 383.52C337.658 383.03 342.486 381.347 346.72 378.61C350.72 376.25 353.47 375.91 357.54 375.92C361.61 375.93 364.39 375.17 364.73 374.14C365.32 372.35 365.36 371.2 364.5 371.23L319.26 375.52Z" fill="#263238"/>
<path d="M415.39 307C414.33 298.307 411.41 289.944 406.83 282.48C406.83 282.48 402.83 223.48 399.43 192.48H338.35C338.35 192.48 340.17 272.87 341.15 284.66C341.9 293.66 348.07 350.08 348.08 350.19L348.97 359.6C353.76 362.01 357.52 361.65 361.6 358.72L362.47 350.39C362.47 350.39 367.47 314.62 367.78 306.09C368.125 298.806 367.319 291.513 365.39 284.48L372.8 244.41C372.8 244.41 378.72 272.73 382.07 288.59C385.9 306.76 408.07 366.26 408.07 366.28L409.48 371.23C409.17 376.63 422.16 372.95 422.02 368.7C422 368.71 417.84 325.47 415.39 307Z" fill="#FFBDA7"/>
<path d="M379.66 289.38C376.32 273.52 372.8 244.38 372.8 244.38L368.14 285.09C351.4 292.33 339.87 285.38 339.87 285.38C336.87 255.22 338.35 192.45 338.35 192.45H399.43C402.81 223.45 408.82 281.78 408.82 281.78C408.82 281.78 404.06 291.84 379.66 289.38Z" fill="#37474F"/>
<path d="M372.8 244.42L368.66 225.36C368.66 225.36 359.42 223.25 352.82 217.96C352.82 217.96 355.24 224.04 365.36 228.69L369.59 246.55L368.46 282.31L372.8 244.42Z" fill="#263238"/>
<path d="M409.5 371.24L409 369.6C408.46 370.14 408.54 370.6 408.52 372.07C408.52 373.23 408.52 374.35 408.37 375.89C408.175 377.901 407.807 379.892 407.27 381.84C406.2 386.36 405 388.18 401.82 393.77C401.06 395.09 399.24 397.3 398.7 398.77C398.16 400.24 398 402.77 399.7 403.77C404.53 406.63 411.98 405.85 416.7 403.63C418.468 402.824 419.967 401.528 421.02 399.895C422.073 398.263 422.635 396.363 422.64 394.42C422.64 393.27 422.4 392.13 422.35 390.98C422.389 388.328 423.075 385.726 424.35 383.4C425.076 382.054 425.659 380.637 426.09 379.17C426.73 376.5 425.47 373.81 424.42 371.41C423.52 369.34 422.47 366.57 421.76 366.89L422.04 368.71C421.3 369.83 419.04 371.18 416.25 371.71C414.47 372.07 409.7 372.6 409.5 371.24Z" fill="#455A64"/>
<path d="M348.46 354.26C347.83 354.26 347.19 354.75 346.07 356.39C344.53 358.639 342.542 360.545 340.23 361.99C336.08 364.91 329.51 367.86 322.76 370.39C319.08 371.76 318.38 374.39 319.59 376.8C321.5 378.7 327.99 383.15 338.65 379.9C345.26 377.9 347.59 374.5 352.32 373.9C355.66 373.47 361.46 374.39 364.87 371.63C365.95 369.05 365.08 366.45 364.74 362.87C364.4 359.29 363.25 353.56 362.12 353.79L361.92 355.68C361.01 359.83 351.47 360.23 348.77 357.52L348.46 354.26Z" fill="#455A64"/>
<path d="M374.22 100.49C384.82 101.15 398.65 101.02 399.3 111.88C400.3 128.54 397.09 169.59 397.09 169.59L400.52 198.32C392.75 206.62 357.41 210.96 337.57 198.79C337.57 198.79 336.44 136.46 338 127.03C340.8 110.03 349.09 101.94 355.28 101.46L374.22 100.49Z" fill="#00BFA5"/>
<path d="M379 105.82C381.44 103.36 382.2 101 380.46 100.82C378.33 100.67 376.19 100.58 374.18 100.45L359.18 101.22C359.18 101.22 355.77 104.66 356.78 107.53C357.79 110.4 361.08 111.83 365.12 111.67C370.297 111.439 375.22 109.364 379 105.82V105.82Z" fill="#455A64"/>
<path opacity="0.3" d="M337.8 128.59C337.43 132.53 337.25 140.31 337.2 149.32C356.53 155.89 384.49 152.37 398.4 149.93C398.82 142.62 399.22 136.7 399.4 129.21C377.38 134 352.31 132.22 337.8 128.59Z" fill="black"/>
<path d="M388.77 101.92C395.58 101.92 400.88 102.35 405.64 108.2C408.97 112.28 433.71 142.74 436.64 147.81C439.57 152.88 439.77 154.87 435.43 161.23C431.83 166.5 411.77 196.23 405.28 202.96C398.79 209.69 390.12 210.82 385.83 209.02C381.54 207.22 376.04 202.92 386.68 198.02C394.14 194.62 398.43 191.13 399.3 187.77L398.75 182.97H402.75L416.87 154L392.16 127.48C392.16 127.48 383.7 112.71 388.77 101.92Z" fill="#FFBDA7"/>
<path d="M386.45 101.49C386.45 101.49 395.59 101.33 399.03 102.54C402.47 103.75 405.31 106.54 410.16 112.54C415.01 118.54 428.39 135.62 428.39 135.62C428.39 135.62 426.89 147.07 412.39 150.35L391.22 129.45C391.22 129.45 382.58 120.69 386.45 101.49Z" fill="#455A64"/>
<path d="M366.518 74.9797C374.067 69.4529 375.706 58.853 370.179 51.3043C364.653 43.7556 354.053 42.1165 346.504 47.6434C338.955 53.1702 337.316 63.7701 342.843 71.3188C348.37 78.8675 358.97 80.5066 366.518 74.9797Z" fill="#263238"/>
<path d="M386 72.91C386 72.91 383.44 85.85 382.37 88C381.648 89.3205 380.439 90.3071 379 90.75V81.68L386 72.91Z" fill="#263238"/>
<path d="M382.25 54.4999C383.208 54.3708 384.182 54.4622 385.099 54.7673C386.016 55.0723 386.851 55.5829 387.54 56.2599C389.84 58.5399 388.69 65.7899 385.98 72.9099L380.83 73.5799L382.25 54.4999Z" fill="#263238"/>
<path d="M379.27 73.61C380.32 74.22 381.77 72.2 383.03 70.84C384.29 69.48 388.43 67.59 390.58 71.95C392.73 76.31 388.9 82.35 385.63 83.43C380 85.3 379.09 81.68 379.09 81.68L379 102.68C372.11 111.82 352.56 111.36 360.55 101.81L360.47 95.59C360.47 95.59 355.35 96.45 352.85 96.1C348.67 95.52 346 92.28 344.67 87.79C342.53 80.59 341.67 74.79 343.16 60.49C344.81 44.86 362.95 44.41 372.85 50.43C382.75 56.45 379.27 73.61 379.27 73.61Z" fill="#FFBDA7"/>
<path d="M379.3 75.36C379.82 75.36 381.75 72.04 383.03 70.84C384.79 69.19 382.25 54.5 382.25 54.5C382.847 53.1938 383.038 51.7381 382.797 50.3222C382.557 48.9062 381.895 47.5954 380.9 46.56C378.41 43.9 374.9 40.67 363.9 42.15C355.99 43.21 347.41 45.82 340.39 42.51C339.784 44.7807 339.867 47.1801 340.627 49.4039C341.387 51.6277 342.791 53.5754 344.66 55C344.66 55 347.21 56.58 353.85 57.29C360.49 58 370.85 56.87 372.22 56.65C374.14 56.36 374.58 58.22 375.7 63.29C376.68 67.79 377.55 75.35 379.3 75.36Z" fill="#263238"/>
<path d="M382.26 55.6399L388.47 52.1799C388.264 51.7613 387.976 51.3887 387.622 51.0848C387.268 50.7809 386.856 50.5519 386.411 50.4117C385.966 50.2714 385.497 50.2229 385.033 50.269C384.569 50.3151 384.119 50.4549 383.71 50.6799C382.877 51.1613 382.261 51.9454 381.991 52.8692C381.721 53.7931 381.817 54.7854 382.26 55.6399Z" fill="#263238"/>
<path d="M361.82 71.92C361.847 72.2819 361.98 72.6279 362.202 72.9154C362.423 73.2028 362.724 73.4192 363.067 73.5377C363.41 73.6563 363.78 73.6719 364.132 73.5827C364.484 73.4934 364.802 73.3032 365.047 73.0354C365.292 72.7676 365.453 72.434 365.511 72.0757C365.569 71.7174 365.52 71.35 365.372 71.0188C365.223 70.6876 364.981 70.4071 364.675 70.2119C364.369 70.0166 364.013 69.9151 363.65 69.92C363.397 69.9262 363.148 69.9834 362.917 70.0883C362.687 70.1932 362.48 70.3435 362.309 70.5303C362.138 70.7171 362.007 70.9364 361.923 71.1752C361.839 71.414 361.804 71.6673 361.82 71.92V71.92Z" fill="#263238"/>
<path d="M362.89 65.15L366.89 67.28C367.164 66.7276 367.212 66.0906 367.026 65.5031C366.839 64.9155 366.432 64.4233 365.89 64.13C365.627 63.9971 365.339 63.9182 365.045 63.8977C364.751 63.8771 364.455 63.9155 364.176 64.0104C363.897 64.1054 363.639 64.2551 363.418 64.4507C363.197 64.6464 363.018 64.8841 362.89 65.15Z" fill="#263238"/>
<path d="M344.33 67L347.92 64.14C347.746 63.8968 347.525 63.6918 347.269 63.5374C347.014 63.3831 346.729 63.2827 346.433 63.2424C346.137 63.2021 345.836 63.2228 345.548 63.3032C345.26 63.3836 344.992 63.5221 344.76 63.71C344.279 64.0975 343.965 64.6558 343.885 65.2687C343.805 65.8816 343.964 66.5017 344.33 67V67Z" fill="#263238"/>
<path d="M346.06 71.92C346.087 72.2819 346.22 72.6279 346.442 72.9154C346.663 73.2028 346.964 73.4192 347.307 73.5377C347.65 73.6563 348.02 73.6719 348.372 73.5827C348.724 73.4934 349.042 73.3032 349.287 73.0354C349.532 72.7676 349.693 72.434 349.751 72.0757C349.809 71.7174 349.76 71.35 349.612 71.0188C349.463 70.6876 349.221 70.4071 348.915 70.2119C348.609 70.0166 348.253 69.9151 347.89 69.92C347.637 69.9276 347.389 69.9857 347.159 70.0911C346.929 70.1964 346.723 70.3468 346.552 70.5333C346.382 70.7197 346.25 70.9385 346.166 71.1767C346.081 71.4149 346.045 71.6676 346.06 71.92V71.92Z" fill="#263238"/>
<path d="M360.47 95.64C360.47 95.64 369.6 93.85 372.81 92.15C374.501 91.171 375.788 89.6218 376.44 87.78C376.267 89.604 375.573 91.3397 374.44 92.78C372.09 95.78 360.52 98.42 360.52 98.42L360.47 95.64Z" fill="#F0997A"/>
<path d="M362.43 84.58L357.3 86.51C357.411 86.8551 357.591 87.1743 357.828 87.4482C358.066 87.7221 358.357 87.9452 358.683 88.104C359.009 88.2628 359.363 88.354 359.725 88.3722C360.088 88.3904 360.45 88.3352 360.79 88.21C361.48 87.9348 362.036 87.4028 362.342 86.7258C362.648 86.0488 362.68 85.2796 362.43 84.58V84.58Z" fill="#F0997A"/>
<path d="M357 70.03L356.39 81.1L350.61 79.13L357 70.03Z" fill="#F0997A"/>
<path d="M146.59 102.59L145.52 102.7C142.004 103.076 138.448 102.755 135.055 101.756C131.663 100.758 128.501 99.1001 125.749 96.8788C122.998 94.6574 120.711 91.9157 119.019 88.8103C117.327 85.7048 116.264 82.2965 115.89 78.78V78.78C115.176 71.9309 117.208 65.0783 121.541 59.7258C125.873 54.3734 132.152 50.9583 139 50.23L142 49.91C148.834 49.1918 155.674 51.2079 161.025 55.5177C166.377 59.8275 169.805 66.0804 170.56 72.91V72.91C170.94 76.4336 170.621 79.9974 169.621 83.3974C168.621 86.7974 166.96 89.9668 164.734 92.7239C162.507 95.481 159.758 97.7716 156.645 99.4646C153.531 101.158 150.115 102.22 146.59 102.59V102.59Z" fill="#263238"/>
<path d="M132.75 51.67C139.827 48.8016 147.078 46.3834 154.46 44.43C157.38 43.5855 160.436 43.3105 163.46 43.62C164.966 43.7904 166.414 44.2979 167.697 45.1046C168.979 45.9113 170.064 46.9967 170.87 48.28C172.67 51.52 171.87 55.75 169.61 58.71C171.594 59.3117 173.341 60.5182 174.605 62.1609C175.87 63.8035 176.591 65.8003 176.666 67.8722C176.741 69.9441 176.166 71.9877 175.023 73.7174C173.88 75.4471 172.225 76.7766 170.29 77.52C167.68 78.3516 164.908 78.5403 162.21 78.07C156.517 77.5041 151.001 75.7786 146 73C140.983 70.1942 136.993 65.8606 134.61 60.63" fill="#263238"/>
<path d="M159.85 363.42C157.02 360.2 156.55 357.15 157.1 351.32C157.65 345.49 163.6 294.75 165.1 282.05C167.66 260.71 168.55 199.8 167.16 184.91L110 187.91C105.59 198.16 102.21 210.83 102.33 230.91C102.42 246.18 100.98 287.57 100.98 287.57C100.98 287.57 93.86 293.47 88.57 305.36C83.9 315.86 77.88 352.36 77.88 352.36C77.4096 353.948 76.8213 355.499 76.12 357C74.8317 358.481 74.0626 360.342 73.93 362.3C73.7622 368.639 74.2684 374.978 75.44 381.21C76.05 384.44 78 386.55 81.16 387.91C81.8625 388.216 82.6241 388.363 83.39 388.34C83.7869 388.346 84.173 388.211 84.48 387.96C85.04 387.43 84.58 386.14 84.48 385.49C84.3434 384.449 84.2766 383.4 84.28 382.35C84.28 380.29 84.4 377.77 84.59 375.72C84.9827 371.107 85.8472 366.547 87.17 362.11L88.34 359.5C88.34 359.5 114.41 310.22 121.76 298.24C127.6 288.83 132.28 251.86 136.76 231.7L142.18 280.31C140.379 285.302 139.004 290.437 138.07 295.66C136.8 304.66 142.22 340 143.79 352.57C144.085 354.897 144.052 357.253 143.69 359.57V359.57C144.22 365.02 148.25 366.8 152.38 369.98C154.44 371.56 163.5 377.4 169.03 378.67C173.53 379.67 175.3 378 175.97 376.74C170.122 372.909 164.715 368.441 159.85 363.42V363.42Z" fill="#FFA8A7"/>
<path d="M68.81 364.05C68.3224 364.339 67.9017 364.728 67.5759 365.192C67.25 365.656 67.0265 366.183 66.92 366.74C66.53 368.66 67.03 371.22 67.67 373.74C68.31 376.26 68.22 381.63 67.97 385.54C67.7071 389.249 68.7703 392.932 70.97 395.93C73.03 398.61 76.68 400.61 81.42 400.78C86.16 400.95 88.63 400.31 90.42 399.37C92.21 398.43 92.98 393.63 90.02 392.52C87.06 391.41 76.9 389.52 74.71 380.11C73.4085 374.535 71.427 369.142 68.81 364.05V364.05Z" fill="#263238"/>
<path d="M76.12 357C76.4823 358.1 76.658 359.252 76.64 360.41C76.8163 361.368 76.9265 362.337 76.97 363.31C76.97 364.17 77.12 365.2 77.91 365.53C78.233 365.626 78.577 365.626 78.9001 365.53C79.2232 365.434 79.5115 365.247 79.73 364.99C80.1523 364.465 80.5462 363.917 80.91 363.35C81.3433 362.785 81.8971 362.324 82.5311 362C83.1651 361.676 83.8634 361.498 84.575 361.478C85.2867 361.457 85.9939 361.596 86.6451 361.884C87.2964 362.171 87.8754 362.601 88.34 363.14L87.99 363.94C85.2138 370.761 84.6063 378.272 86.25 385.45C86.5432 386.845 87.3055 388.098 88.41 389C89.3546 389.737 90.2437 390.542 91.07 391.41C91.4832 391.849 91.7964 392.372 91.988 392.943C92.1797 393.515 92.2451 394.121 92.18 394.72C91.9833 395.617 91.4592 396.409 90.71 396.94C89.9681 397.464 89.1432 397.86 88.27 398.11C84.0731 399.496 79.5057 399.227 75.5 397.36C73.8097 396.467 72.3616 395.176 71.28 393.6C69.02 389.41 69.39 385.48 69.45 381.92C69.59 374.06 68.45 369.97 67.87 366.02C67.23 361.2 74.65 356.2 76.12 357Z" fill="#455A64"/>
<path d="M141.43 371.07C141.15 372.92 140.96 373.74 143.23 375.45C145.5 377.16 149.01 378.37 151.73 379.45C154.45 380.53 158.28 383.6 159.93 385.14C161.58 386.68 167.99 389.45 173.21 389.28C178.43 389.11 181.46 387.93 182.72 386.81C183.98 385.69 185.29 381.74 181.95 380.65C178.61 379.56 141.43 371.07 141.43 371.07Z" fill="#263238"/>
<path d="M143.8 358C143.631 358.039 143.474 358.121 143.346 358.238C143.218 358.356 143.123 358.505 143.07 358.67C142.59 360.14 142.57 361.83 142.22 363.34C141.69 365.71 141.09 369.11 141.43 371.03C141.77 372.95 144.3 374.87 149.11 376.37C152 377.28 157.11 379.93 159.47 382.16C162.32 384.89 168.47 387.26 172.71 387.5C177.65 387.78 182.84 386.59 184.12 383.07C184.66 381.58 184.38 379.27 178.12 376.07C178.12 376.07 173.35 373.51 171.56 372.33C168.408 370.328 165.449 368.038 162.72 365.49C161.731 364.536 160.821 363.502 160 362.4C159.57 361.888 159.185 361.339 158.85 360.76C158.479 359.696 158.234 358.591 158.12 357.47C158.076 357.114 157.953 356.773 157.76 356.47C157.498 356.16 157.15 355.934 156.76 355.82C155.82 355.468 154.805 355.36 153.812 355.506C152.818 355.652 151.878 356.048 151.079 356.656C150.28 357.265 149.648 358.066 149.242 358.984C148.837 359.903 148.671 360.91 148.76 361.91C148.42 362.08 148 361.76 147.89 361.39C147.835 361.009 147.805 360.625 147.8 360.24C147.715 359.831 147.525 359.452 147.247 359.139C146.97 358.827 146.616 358.593 146.22 358.46C145.469 358.092 144.633 357.933 143.8 358V358Z" fill="#455A64"/>
<path d="M134.06 247C134.78 241.56 136.55 234.16 136.55 234.16L138.05 246.8L141.27 279.63C140.156 282.688 139.215 285.806 138.45 288.97C136.82 295.31 137 305.97 138 312.97C139 319.97 141.14 332.51 141.14 332.51C151.34 338.18 159.33 332.85 159.33 332.85C159.33 332.85 161.7 318.73 164.16 298.37C166.62 278.01 167.76 257.82 168.34 240.87C168.34 240.87 170.97 198.7 164.58 169.98C156.03 175.67 131.06 176.2 121.21 167.98C121.21 167.98 117 174.54 107.81 189.19C100.59 200.69 102.13 219.51 101.6 235.19C100.78 259.39 100.2 286.72 100.2 286.72C96.9113 290.199 93.9519 293.975 91.36 298C86.76 305 84.08 320.72 84.08 320.72C84.08 320.72 88.29 330.31 103.49 331.12C103.49 331.12 118.97 304.6 122.84 298.59C126.71 292.58 133.34 252.43 134.06 247Z" fill="#37474F"/>
<path d="M136.55 234.16L142.66 212.94C142.66 212.94 153.32 212.08 161.76 206.22C161.76 206.22 159.85 213.99 145.15 215.9L138.29 236.71V249.59L136.55 234.16Z" fill="#263238"/>
<path d="M171.23 132.29C165.91 123.57 155.06 115.11 151.54 112.17L130.63 111.77C126.52 111.88 120.49 112.25 120.49 112.25C116.08 114.46 116.15 119.87 115.87 124.97C115.55 130.57 115.46 133.03 116.76 142.32L119.26 154.19L119.64 156.01C119.71 156.32 119.77 156.64 119.84 157.01C120.8 161.559 120.09 166.302 117.84 170.37C112.84 179.37 106.97 186.14 105.17 193.77C107.914 193.082 110.437 191.705 112.5 189.77C115.66 186.9 117.56 185.58 120.12 182.16C120.12 182.16 120.23 187.36 125.21 194.31C126.487 196.092 127.959 197.726 129.6 199.18C138.66 207.18 166.46 211.28 168.01 186.99C168.01 186.99 165.34 171.57 164.96 166.4C165.86 161.97 168.39 154.32 168.49 152.61C175 147 175.11 138.64 171.23 132.29Z" fill="#00BFA5"/>
<path d="M130.82 116C132.82 118.42 137.71 123.81 142.28 124.74C147.65 125.83 153.18 125.37 154.55 122.06C155.92 118.75 153.29 114.75 150.87 112.18L130.63 111.79H129.16C129.09 112.16 128.56 113.19 130.82 116Z" fill="#455A64"/>
<path opacity="0.3" d="M116.16 137.68C116.32 139.02 116.51 140.55 116.76 142.32L119.26 154.19L119.64 156.01C119.71 156.32 119.77 156.64 119.84 157.01C120.126 158.492 120.254 160.001 120.22 161.51C140.68 168.39 157.22 164.83 166.15 161.51C167.15 157.7 168.4 153.75 168.47 152.58C170.704 150.735 172.348 148.277 173.199 145.508C174.051 142.739 174.072 139.781 173.26 137C168.5 139.45 161.46 140.92 154.18 141.6C141.372 142.81 128.452 141.478 116.16 137.68V137.68Z" fill="black"/>
<path opacity="0.1" d="M158.41 151.36C158.41 151.36 151.41 157.25 143.02 154.64C140.677 153.99 138.542 152.748 136.818 151.033C135.095 149.319 133.842 147.189 133.18 144.85C133.18 144.85 132.66 154.32 143.18 157.15C153.36 159.87 158.41 151.36 158.41 151.36Z" fill="black"/>
<path d="M222.6 187.34C222.405 187.109 222.148 186.939 221.86 186.85C211.4 182.72 199.7 186.46 190.59 185.33L190.73 188.45C195.06 191.12 200.41 191.62 205.48 191.22C210.55 190.82 215.53 189.63 220.6 189.17C221.153 189.178 221.698 189.04 222.18 188.77C222.419 188.63 222.595 188.404 222.673 188.138C222.751 187.872 222.725 187.587 222.6 187.34Z" fill="#F28F8F"/>
<path d="M149.15 189.56C146.54 188.96 141.55 186.85 139.78 184.5C136.6 180.27 110.05 139.96 108.42 128.88C107.11 119.96 111.3 112.08 120.49 112.25C126.41 116.55 132.24 132.96 132.24 132.96L153.24 171.51C160.65 174.97 186.58 183.51 191.15 184.91C195.72 186.31 205.04 185.29 211.26 187.27C217.48 189.25 233.2 195.78 230.03 198.73C227.6 200.97 224.98 203.19 220.61 203.51C215.24 203.89 214.61 201.77 209.22 201.64C203.83 201.51 199.34 203.13 193.66 200.92C190.07 199.52 189.91 198.7 184.91 197.49C179.91 196.28 152.53 190.33 149.15 189.56Z" fill="#FFA8A7"/>
<path d="M123.12 112.09C118.48 111.29 112.12 111.98 108.22 117.94C104.32 123.9 107.75 132.17 110.22 137.7C112.69 143.23 120.78 156 120.78 156C120.78 156 138.31 154.73 141.62 145.94C141.62 145.91 130.93 123.08 123.12 112.09Z" fill="#455A64"/>
<path d="M161.46 62.42C164.36 64.31 167.7 71.96 166.64 87.63C165.74 100.91 161.29 104 159.08 104.85C156.87 105.7 152.73 104.94 148.7 104.09L148.34 112.09C148.34 112.09 153.34 116.28 152.81 119.92C152.28 123.56 144.1 124.57 139.01 120.76C136.165 118.718 133.65 116.253 131.55 113.45L132.47 92.77C132.47 92.77 129.69 95.63 125.34 92.45C124.454 91.8052 123.716 90.9777 123.177 90.0233C122.637 89.0689 122.309 88.0099 122.215 86.9179C122.12 85.8258 122.261 84.7262 122.627 83.6932C122.994 82.6602 123.578 81.7179 124.34 80.93C127.06 78.4 131.96 80 132.84 83.7C132.84 83.7 138.62 83.6 147.17 78.7C156.47 73.44 158.9 67.9 161.46 62.42Z" fill="#FFA8A7"/>
<path d="M149.56 83.2C149.548 83.527 149.441 83.8434 149.251 84.1098C149.06 84.3762 148.796 84.5809 148.491 84.6985C148.185 84.816 147.852 84.8413 147.533 84.771C147.213 84.7008 146.921 84.5381 146.693 84.3034C146.465 84.0686 146.311 83.772 146.25 83.4504C146.189 83.1289 146.224 82.7965 146.351 82.4947C146.477 82.1928 146.69 81.9348 146.961 81.7526C147.233 81.5704 147.553 81.4721 147.88 81.47C148.104 81.4712 148.326 81.5172 148.533 81.6052C148.74 81.6932 148.926 81.8215 149.083 81.9826C149.239 82.1436 149.362 82.3342 149.444 82.5433C149.526 82.7523 149.565 82.9755 149.56 83.2Z" fill="#263238"/>
<path d="M151 94.85L155.74 96.59C155.64 96.9082 155.476 97.2028 155.259 97.4564C155.043 97.7099 154.777 97.9172 154.478 98.0656C154.179 98.214 153.854 98.3007 153.521 98.3203C153.188 98.34 152.854 98.2923 152.54 98.18C151.903 97.9308 151.388 97.4452 151.101 96.8246C150.814 96.204 150.778 95.4965 151 94.85V94.85Z" fill="#F28F8F"/>
<path d="M164.4 79L161.12 76.5C161.274 76.2818 161.47 76.0966 161.697 75.9554C161.924 75.8142 162.176 75.7198 162.44 75.6779C162.704 75.6359 162.973 75.6473 163.233 75.7112C163.492 75.7751 163.736 75.8903 163.95 76.05C164.388 76.3909 164.679 76.8866 164.763 77.4354C164.846 77.9841 164.717 78.544 164.4 79V79Z" fill="#263238"/>
<path d="M163.44 82.93C163.447 83.1536 163.409 83.3763 163.329 83.5852C163.249 83.7941 163.128 83.985 162.974 84.1468C162.819 84.3087 162.634 84.4383 162.429 84.5281C162.224 84.6179 162.004 84.6661 161.78 84.67C161.433 84.686 161.089 84.5977 160.793 84.4164C160.496 84.2352 160.261 83.9694 160.117 83.6532C159.973 83.337 159.926 82.9849 159.984 82.6422C160.042 82.2996 160.201 81.9822 160.441 81.7308C160.681 81.4793 160.991 81.3055 161.33 81.2316C161.67 81.1577 162.023 81.1872 162.346 81.3162C162.669 81.4452 162.945 81.6679 163.14 81.9555C163.335 82.2431 163.44 82.5825 163.44 82.93Z" fill="#263238"/>
<path d="M155.32 81.61L155.13 91.68L160.5 90.28L155.32 81.61Z" fill="#F28F8F"/>
<path d="M148.7 104.09C144.45 103.33 135.76 100.42 134.55 96.88C135.019 98.6623 136.025 100.257 137.43 101.45C139.96 103.82 148.58 106.75 148.58 106.75L148.7 104.09Z" fill="#F28F8F"/>
<path d="M207.06 104.44C206.67 96.93 208.8 94.73 211.48 92.93C214.16 91.13 224.07 88.56 226.12 89.28C228.17 90 238.91 95.28 238.4 100.49C237.89 105.7 233 107 227.59 105.76C222.18 104.52 212.88 98.4 210.89 99.27C208.9 100.14 207.06 104.44 207.06 104.44Z" fill="#FFA8A7"/>
<path d="M331.34 111.71C333.27 110.84 336.13 112.1 340.53 111.19C344.93 110.28 347.87 108.47 350.45 108.26C353.03 108.05 354.12 107.26 351.5 105.81C348.88 104.36 344.31 104.97 343.4 104.62C344.796 103.726 346.32 103.052 347.92 102.62C351.673 101.955 355.458 101.485 359.26 101.21C359.47 101.21 360.86 98.96 354.37 98.06C347.88 97.16 338.37 98.55 334.81 100.44C331.25 102.33 331.34 111.71 331.34 111.71Z" fill="#B16668"/>
<path d="M76.6499 91.87C76.6727 92.2599 76.5807 92.6479 76.3855 92.9862C76.1902 93.3244 75.9002 93.5981 75.5512 93.7734C75.2022 93.9488 74.8095 94.0181 74.4216 93.9729C74.0337 93.9276 73.6675 93.7698 73.3682 93.5188C73.069 93.2679 72.8497 92.9348 72.7376 92.5607C72.6254 92.1866 72.6252 91.7878 72.7371 91.4136C72.8489 91.0394 73.0679 90.7061 73.3669 90.4549C73.666 90.2037 74.032 90.0456 74.4199 90C74.6906 89.9682 74.9649 89.992 75.226 90.0701C75.4872 90.1481 75.7296 90.2787 75.9384 90.4538C76.1472 90.629 76.3181 90.8449 76.4404 91.0884C76.5628 91.332 76.6341 91.5979 76.6499 91.87V91.87Z" fill="#00BFA5"/>
<path d="M81.18 75.34L84.28 77.88L88.12 76.76C88.2014 76.7347 88.2884 76.7331 88.3708 76.7554C88.4532 76.7776 88.5275 76.8228 88.5851 76.8857C88.6428 76.9486 88.6814 77.0266 88.6964 77.1106C88.7114 77.1946 88.7022 77.2811 88.67 77.36L87.22 81.09L89.47 84.4C89.5196 84.4697 89.5484 84.552 89.5529 84.6374C89.5575 84.7228 89.5376 84.8077 89.4956 84.8822C89.4537 84.9567 89.3913 85.0177 89.316 85.058C89.2406 85.0984 89.1552 85.1164 89.07 85.11L85.07 84.89L82.62 88.05C82.5672 88.1156 82.4975 88.1654 82.4184 88.194C82.3394 88.2227 82.2539 88.2291 82.1715 88.2126C82.089 88.1961 82.0126 88.1573 81.9506 88.1005C81.8887 88.0436 81.8435 87.9708 81.82 87.89L80.8 84L77 82.66C76.9211 82.6306 76.8518 82.5802 76.7997 82.5141C76.7475 82.448 76.7145 82.3689 76.7042 82.2854C76.6938 82.2019 76.7066 82.1171 76.7412 82.0403C76.7757 81.9636 76.8306 81.8977 76.9 81.85L80.27 79.68L80.4 75.68C80.3926 75.5867 80.4145 75.4933 80.4627 75.413C80.5108 75.3327 80.5829 75.2694 80.6687 75.2319C80.7546 75.1945 80.85 75.1848 80.9417 75.2042C81.0333 75.2236 81.1166 75.2711 81.18 75.34Z" fill="#00BFA5"/>
<path d="M438.27 93.27C438.889 93.3195 439.466 93.6034 439.883 94.0637C440.301 94.5241 440.527 95.1262 440.515 95.7474C440.504 96.3685 440.256 96.9619 439.822 97.4065C439.388 97.8511 438.801 98.1134 438.18 98.14C437.847 98.1543 437.515 98.1003 437.204 97.9814C436.893 97.8624 436.61 97.6811 436.371 97.4485C436.133 97.2159 435.945 96.937 435.818 96.6289C435.692 96.3208 435.63 95.9901 435.636 95.6572C435.642 95.3242 435.716 94.9961 435.854 94.6929C435.992 94.3897 436.19 94.1179 436.437 93.8943C436.684 93.6706 436.974 93.4999 437.289 93.3925C437.604 93.2852 437.938 93.2435 438.27 93.27V93.27Z" fill="#00BFA5"/>
<path d="M412.05 82.43L416.95 77.63L415.78 70.88C415.754 70.7362 415.769 70.588 415.823 70.4522C415.877 70.3164 415.968 70.1985 416.086 70.112C416.203 70.0255 416.343 69.9738 416.489 69.9628C416.635 69.9519 416.781 69.9821 416.91 70.05L423 73.23L429.06 70.03C429.189 69.9602 429.335 69.9281 429.481 69.9374C429.627 69.9467 429.768 69.997 429.887 70.0826C430.006 70.1682 430.098 70.2856 430.154 70.4213C430.209 70.557 430.225 70.7056 430.2 70.85L429 77.61L434 82.39C434.104 82.4915 434.178 82.62 434.213 82.7611C434.247 82.9021 434.242 83.0501 434.198 83.1884C434.153 83.3267 434.07 83.4497 433.96 83.5437C433.849 83.6376 433.714 83.6987 433.57 83.72L426.79 84.72L423.79 90.87C423.726 91.0008 423.626 91.111 423.502 91.188C423.379 91.2651 423.236 91.3059 423.09 91.3059C422.944 91.3059 422.801 91.2651 422.678 91.188C422.554 91.111 422.454 91.0008 422.39 90.87L419.39 84.72L412.6 83.72C412.454 83.7126 412.313 83.6644 412.193 83.5807C412.073 83.4971 411.979 83.3814 411.922 83.2469C411.864 83.1124 411.846 82.9645 411.869 82.8201C411.891 82.6756 411.954 82.5405 412.05 82.43V82.43Z" fill="#00BFA5"/>
<path d="M452.79 176.93L454.26 180.19L457.78 180.84C457.854 180.855 457.922 180.89 457.977 180.941C458.032 180.992 458.072 181.057 458.093 181.129C458.113 181.201 458.114 181.278 458.094 181.35C458.074 181.423 458.035 181.488 457.98 181.54L455.33 183.94L455.8 187.48C455.813 187.555 455.804 187.633 455.774 187.703C455.744 187.774 455.694 187.834 455.631 187.877C455.568 187.92 455.494 187.944 455.417 187.947C455.341 187.949 455.266 187.929 455.2 187.89L452.09 186.11L448.87 187.66C448.802 187.695 448.725 187.709 448.649 187.701C448.573 187.694 448.501 187.665 448.441 187.617C448.381 187.57 448.336 187.506 448.311 187.434C448.286 187.362 448.282 187.284 448.3 187.21L449.03 183.71L446.56 181.13C446.507 181.075 446.471 181.006 446.456 180.931C446.44 180.857 446.445 180.779 446.471 180.708C446.497 180.636 446.543 180.573 446.603 180.526C446.662 180.478 446.734 180.449 446.81 180.44L450.36 180.05L452.06 176.91C452.096 176.844 452.15 176.789 452.215 176.751C452.281 176.713 452.356 176.694 452.431 176.697C452.507 176.699 452.58 176.722 452.643 176.763C452.707 176.804 452.757 176.862 452.79 176.93V176.93Z" fill="#00BFA5"/>
<path d="M60.42 152.41L66 156.33L72.42 153.92C72.5595 153.869 72.7107 153.859 72.8558 153.891C73.0008 153.923 73.1337 153.996 73.2387 154.101C73.3437 154.206 73.4166 154.339 73.4487 154.484C73.4808 154.629 73.4709 154.78 73.42 154.92L71.42 161.49L75.7 166.85C75.7916 166.963 75.8496 167.1 75.8674 167.245C75.8852 167.39 75.8621 167.537 75.8006 167.669C75.7392 167.801 75.6419 167.913 75.5198 167.993C75.3977 168.073 75.2558 168.117 75.11 168.12L68.25 168.25L64.47 173.98C64.3895 174.102 64.2764 174.199 64.1436 174.26C64.0108 174.32 63.8636 174.343 63.7188 174.324C63.5739 174.305 63.4372 174.246 63.3243 174.153C63.2114 174.061 63.1267 173.938 63.08 173.8L60.84 167.32L54.22 165.5C54.0785 165.462 53.9506 165.384 53.8511 165.277C53.7516 165.169 53.6844 165.036 53.6573 164.892C53.6301 164.747 53.6441 164.599 53.6977 164.462C53.7512 164.326 53.8421 164.207 53.96 164.12L59.43 159.98L59.12 153.13C59.0876 152.968 59.1077 152.8 59.1773 152.649C59.2469 152.499 59.3623 152.375 59.507 152.295C59.6517 152.215 59.8181 152.183 59.9822 152.204C60.1463 152.224 60.2996 152.297 60.42 152.41V152.41Z" fill="#00BFA5"/>
<path d="M443.4 190.15C443.461 190.524 443.37 190.907 443.149 191.214C442.928 191.522 442.594 191.729 442.22 191.79C441.845 191.848 441.462 191.755 441.155 191.532C440.848 191.309 440.641 190.974 440.58 190.6C440.522 190.226 440.615 189.845 440.838 189.539C441.061 189.234 441.396 189.029 441.77 188.97C441.955 188.939 442.144 188.945 442.326 188.987C442.509 189.03 442.681 189.108 442.833 189.218C442.984 189.328 443.113 189.467 443.21 189.627C443.307 189.787 443.372 189.965 443.4 190.15V190.15Z" fill="#00BFA5"/>
<path d="M81 158.86C81.0523 159.177 81.0097 159.503 80.8773 159.796C80.7449 160.09 80.5287 160.337 80.2559 160.508C79.9832 160.678 79.6661 160.764 79.3445 160.755C79.023 160.745 78.7114 160.641 78.449 160.455C78.1865 160.269 77.9851 160.01 77.8698 159.709C77.7546 159.409 77.7309 159.081 77.8015 158.767C77.8722 158.454 78.0342 158.168 78.267 157.946C78.4998 157.724 78.7931 157.576 79.11 157.52C79.3222 157.483 79.5396 157.488 79.7498 157.535C79.96 157.583 80.1587 157.671 80.3345 157.796C80.5102 157.92 80.6595 158.079 80.7738 158.261C80.888 158.444 80.9649 158.647 81 158.86Z" fill="#00BFA5"/>
</svg>
