<svg width="599" height="585" viewBox="0 0 599 585" fill="none" xmlns="http://www.w3.org/2000/svg">
<path d="M359.157 401.936C391.82 421.405 391.82 452.97 359.156 472.439C326.493 491.909 273.536 491.909 240.872 472.441C208.207 452.97 208.207 421.405 240.872 401.936C273.536 382.468 326.494 382.468 359.157 401.936Z" fill="#DADBD8"/>
<path d="M226.575 400.494C263.908 420.688 263.908 453.43 226.575 473.624C189.241 493.819 128.711 493.819 91.3789 473.624C54.045 453.43 54.0455 420.688 91.3789 400.494C128.713 380.3 189.243 380.3 226.575 400.494Z" fill="#DADBD8"/>
<path d="M496.457 400.61C534.76 420.805 534.758 453.547 496.455 473.742C458.151 493.935 396.049 493.935 357.744 473.742C319.44 453.548 319.44 420.805 357.744 400.611C396.049 380.417 458.152 380.417 496.457 400.61Z" fill="#DADBD8"/>
<path d="M230.989 112.001C237.916 126.848 252.372 153.79 252.372 153.79C262.029 156.055 283.605 157.734 292.42 158.918C293.984 159.128 295.553 158.716 296.844 157.842C300.311 155.497 302.991 155.117 306.647 153.812C309.506 152.791 310.719 151.379 311.257 151.916C311.947 152.606 312.701 154.566 310.958 156.596C310.082 157.617 308.484 158.731 306.43 160.093C306.43 160.093 312.732 161.83 318.363 160.303C325.994 158.236 329.597 162.023 324.437 170.578C322.589 173.639 315.312 178.545 300.568 177.222C296.32 176.838 289.334 176.281 283.927 176.299C270.116 176.345 261.517 176.507 248.946 176.052C243.495 175.855 241.288 175.458 237.328 169.965C221.447 147.937 212.362 132.928 205.235 120.538V89.3217C216.754 88.9535 225.019 99.2019 230.989 112.001Z" fill="#F6879F"/>
<path d="M404.184 81.7275C394.484 83.2075 387.554 91.3633 381.268 112.654C376.315 129.429 368.612 145.586 363.797 162.193C349.735 161.904 334.036 160.938 321.012 160.04C318.557 159.87 317.37 158.972 316.198 157.975C313.055 155.3 307.814 152.905 304.952 151.735C302.709 150.82 300.459 148.036 298.776 148.939C297.094 149.841 297.811 153.365 299.11 155.326C299.765 156.314 303.511 159.298 304.826 160.19C299.053 160.827 295.199 159.864 289.487 158.918C281.747 157.636 273.189 158.256 279.642 169.748C284.061 177.62 298.9 180.368 307.754 180.514C312.098 180.587 319.139 180.504 325.303 181.073C335.676 182.03 350.414 184.913 368.752 186.517C375.982 187.15 379.843 185.794 383.119 179.1C383.516 178.251 383.904 177.425 384.291 176.607V176.605C398.299 146.777 403.627 135.053 410.587 106.975C408.38 99.5773 406.199 89.0895 404.184 81.7275Z" fill="#C35363"/>
<path d="M408.708 80.6281C408.708 80.6281 396.829 80.917 390.714 88.2877C382.422 98.2829 371.52 136.764 371.52 136.764C371.52 136.764 377.493 146.983 401.982 143.62L408.708 80.6281Z" fill="#26B6A6"/>
<path d="M388.626 144.142C375.204 143.059 371.52 136.764 371.52 136.764C371.52 136.764 382.422 98.2829 390.714 88.2877C396.829 80.917 408.708 80.6281 408.708 80.6281L408.706 80.6441C401.183 81.8207 393.504 91.5299 390.11 112.765C389.398 117.223 388.932 129.875 388.626 144.142Z" fill="#248A7F"/>
<path d="M443.132 168.277C437.608 167.803 435.561 168.404 430.912 167.01C432.403 166.647 435.281 165.335 436.188 164.647C437.295 163.807 440.288 159.544 437.985 158.478C437.541 158.272 437.024 158.378 436.558 158.52C435.202 158.932 433.936 159.612 432.584 160.033C429.109 161.117 425.351 160.424 421.768 161.016C420.577 161.213 419.408 161.552 418.209 161.672C416.284 161.862 411.864 161.607 410.088 160.942C403.196 158.362 363.112 144.241 363.112 144.241C356.77 134.897 347.221 117.118 342.078 109.348C334.149 97.3734 330.477 89.9525 317.62 88.4456C315.457 95.8818 311.745 100.949 310.323 109.462C315.587 116.814 344.43 159.168 345.496 160.796C348.29 165.06 349.281 166.802 354.198 168.276C359.117 169.75 391.534 175.018 408.581 178.48C413.107 179.472 417.875 182.126 419.779 182.674C434.317 186.851 442.68 187.362 448.023 180.93C456.549 170.665 450.618 168.921 443.132 168.277Z" fill="#F8A39A"/>
<path d="M314.175 83.6216C330.55 81.5755 335.589 92.1077 342.37 103.789C350.596 117.963 357.644 132.153 364.34 144.241C375.341 148.8 408.73 159.589 408.73 159.589C409.713 165.254 408.09 173.576 405.083 178.615C398.835 177.975 376.621 174.318 359.211 171.174C351.809 169.836 349.646 169.675 344.928 163.374C336.432 152.029 324.842 134.706 314.47 120.768C307.019 110.753 314.175 88.7396 314.175 83.6216Z" fill="#33535F"/>
<path d="M150.289 193.579C150.772 190.218 151.912 186.98 153.412 183.955C155.328 180.088 158.164 176.291 162.235 175.191C164.425 174.6 166.709 174.884 168.859 175.512C170.758 176.067 172.522 177.459 174.53 176.762C187.424 172.283 204.643 162.223 217.51 156.608C225.489 139.293 235.579 121.786 239.332 114.79C248.723 97.2839 256.282 90.6415 265.398 88.7396C268.562 95.8592 270.716 106.622 263.247 120.99C259.386 128.864 251.163 146.573 242.902 162.515C235.412 176.973 228.397 178.355 221.895 180.503C209.469 184.61 196.966 188.166 185.872 191.839C179.277 194.023 169.956 196.537 166.673 197.701C163.545 198.808 160.258 199.444 156.952 199.559C154.65 199.638 151.721 200.483 150.557 197.759C150.013 196.483 150.085 195.022 150.28 193.642L150.289 193.579Z" fill="#F8A39A"/>
<path d="M253.164 339.758C253.477 324.16 258.027 312.593 258.383 308.262C258.383 308.262 257.269 215.488 257.269 200.44L333.897 197.215C333.897 197.215 331.443 294.575 331.443 307.468C331.443 320.359 324.424 376.422 321.125 401.531C316.692 407.504 311.522 410.047 304.555 404.2C304.555 404.2 303.982 400.649 303.071 388.905C302.026 375.454 298.412 352.814 298.286 339.65C298.129 323.418 299.536 314.517 299.998 306.704C300.527 297.763 298.447 237.441 298.447 237.441C298.447 237.441 288.85 294.978 286.463 314.518C283.726 336.908 274.947 395.576 274.924 409.216C274.924 411.66 274.931 414.49 274.947 417.558C274.984 424.938 274.747 426.89 275.893 429.741C277.899 434.735 260.768 437.872 259.973 434.325L258.132 419.66V419.238V419.235V409.939C258.132 396.041 252.708 362.378 253.164 339.758Z" fill="#F8A39A"/>
<path d="M354.972 427.5C355.47 428.575 355.326 430.591 354.736 431.869C354.144 433.147 347.678 436.911 338.957 436.304C330.234 435.695 324.246 432.069 320.92 429.795C317.595 427.523 314.132 427.097 309.813 426.843C305.493 426.587 299.822 424.364 298.875 422.278C297.928 420.194 299.017 416.602 299.017 416.602L354.972 427.5Z" fill="#273E47"/>
<path d="M319.774 399.398C320.001 399.348 320.232 399.299 320.464 399.251C320.844 399.173 321.238 399.094 321.615 399.188C322.043 399.292 322.394 399.603 322.691 399.936C323.63 400.989 324.195 402.329 324.919 403.548C326.749 406.627 330.586 409.177 334.778 411.503C337.626 413.084 340.417 414.311 343.361 415.676C346.361 417.07 350.344 417.922 352.692 419.556C356.115 421.936 356.556 427.92 352.657 430.283C349.294 432.321 340.443 434.531 331.158 431.816C326.103 430.336 320.488 424.759 313.85 424.223C309.629 423.882 301.647 422.657 298.93 419.349C297.926 417.881 299.268 413.228 300.369 409.213C301.57 404.828 303.005 397.96 304.412 398.346C304.47 399.207 304.306 399.426 304.856 400.01C305.376 400.565 306.077 400.921 306.644 401.42C307.687 402.34 308.329 403.639 308.979 404.888C309.261 405.428 309.595 406.003 310.177 406.229C310.889 406.504 311.421 406.042 312.045 405.745C312.826 405.375 313.74 405.306 314.567 405.559C314.485 404.691 314.336 403.831 314.121 402.987C314.052 402.714 313.977 402.425 314.059 402.158C314.145 401.886 314.373 401.694 314.6 401.531C316.227 400.353 317.908 399.814 319.774 399.398Z" fill="#26B6A6"/>
<path d="M340.104 433.079C337.295 433.079 334.252 432.72 331.158 431.816C326.103 430.336 320.488 424.759 313.85 424.222C309.629 423.882 301.647 422.657 298.93 419.349C298.681 418.984 298.576 418.424 298.577 417.727C298.577 415.613 299.541 412.232 300.369 409.213C301.537 404.947 302.928 398.33 304.298 398.33C304.335 398.33 304.373 398.335 304.412 398.346C304.47 399.207 304.306 399.425 304.856 400.01C305.376 400.566 306.077 400.921 306.644 401.42C307.687 402.34 308.329 403.639 308.979 404.888C309.261 405.428 309.595 406.003 310.177 406.229C310.33 406.288 310.475 406.313 310.614 406.313C311.122 406.313 311.554 405.978 312.045 405.745C312.515 405.522 313.033 405.409 313.55 405.409C313.894 405.409 314.237 405.459 314.567 405.559C314.485 404.691 314.336 403.831 314.121 402.987C314.074 402.799 314.023 402.604 314.023 402.414C314.023 402.328 314.033 402.241 314.059 402.158C314.145 401.886 314.373 401.694 314.6 401.531C316.227 400.353 317.908 399.814 319.774 399.398C320.001 399.348 320.232 399.299 320.464 399.251C320.722 399.198 320.985 399.145 321.246 399.145C321.371 399.145 321.493 399.157 321.615 399.188C322.043 399.292 322.394 399.603 322.691 399.936C323.63 400.989 324.195 402.329 324.919 403.548C326.749 406.627 330.586 409.177 334.778 411.503C337.626 413.084 340.417 414.311 343.36 415.676C346.361 417.07 350.344 417.922 352.692 419.556C354.451 420.779 355.423 422.951 355.423 425.097C355.424 427.128 354.554 429.135 352.657 430.283C350.414 431.643 345.73 433.079 340.104 433.079Z" fill="#00BFA5"/>
<path d="M292.509 453.013C293.025 453.515 292.868 456.942 292.3 457.865C291.689 458.855 288.182 461.943 281.84 462.412C275.779 462.86 270.366 462.018 266.809 459.684C263.251 457.352 261.527 454.78 261.193 451.216C260.857 447.652 261.242 444.213 259.597 441.469C258.077 438.937 255.655 436.081 255.128 434.707C253.98 431.719 255.086 427.449 255.086 427.449L292.509 453.013Z" fill="#273E47"/>
<path d="M275.92 421.899C275.964 423.283 276.2 424.544 276.619 425.865C277.498 428.63 278.833 431.232 280.331 433.705C281.103 434.98 281.917 436.231 282.858 437.386C284.691 439.638 286.968 441.487 288.909 443.648C290.849 445.807 292.499 448.426 292.651 451.328C292.91 456.235 287.75 457.904 283.777 458.633C279.537 459.413 275.009 459.179 270.869 457.963C266.264 456.613 262.94 452.93 262.177 448.186C261.956 446.822 262.038 445.429 261.882 444.058C261.526 440.931 259.956 438.073 258.185 435.472C257.156 433.964 256.039 432.49 255.35 430.8C254.108 427.762 255.103 424.344 255.895 421.319C256.58 418.705 257.353 415.749 258.245 415.995C258.255 417.349 258.24 417.49 259.182 418.408C260.373 419.57 260.424 421.318 261.684 422.345C261.093 420.753 261.056 420.077 260.801 418.853C260.722 418.487 260.82 417.745 261.067 417.466C261.401 417.09 261.97 416.855 262.527 416.66C264.397 416.008 266.335 415.554 268.3 415.305C270.093 415.077 272.154 414.85 273.933 415.263C274.48 415.389 275.013 415.659 275.349 416.108C275.703 416.583 275.77 417.001 275.854 417.785C275.939 418.57 275.88 420.595 275.92 421.899Z" fill="#26B6A6"/>
<path d="M278.764 459.084C276.091 459.084 273.407 458.708 270.869 457.963C266.264 456.613 262.94 452.93 262.177 448.186C261.955 446.822 262.038 445.429 261.882 444.058C261.526 440.931 259.956 438.073 258.185 435.472C257.156 433.964 256.039 432.49 255.35 430.8C254.924 429.761 254.762 428.678 254.763 427.583C254.765 425.472 255.374 423.309 255.895 421.319C256.552 418.808 257.293 415.981 258.14 415.981C258.175 415.981 258.209 415.984 258.245 415.995C258.255 417.349 258.24 417.49 259.182 418.408C260.373 419.57 260.424 421.318 261.684 422.345C261.093 420.753 261.056 420.077 260.801 418.853C260.783 418.771 260.774 418.669 260.774 418.557C260.775 418.175 260.877 417.683 261.068 417.466C261.401 417.09 261.97 416.855 262.527 416.66C264.397 416.008 266.335 415.554 268.3 415.305C269.368 415.168 270.531 415.034 271.673 415.034C272.448 415.034 273.213 415.095 273.933 415.263C274.48 415.389 275.013 415.659 275.349 416.108C275.703 416.583 275.77 417.001 275.854 417.785C275.901 418.213 275.903 419.014 275.903 419.864C275.903 420.015 275.903 420.169 275.903 420.323C275.903 420.879 275.906 421.434 275.92 421.899C275.963 423.283 276.2 424.544 276.619 425.865C277.498 428.63 278.833 431.232 280.331 433.705C281.103 434.98 281.917 436.231 282.858 437.386C284.691 439.638 286.968 441.487 288.909 443.648C290.849 445.807 292.499 448.427 292.651 451.328C292.658 451.442 292.66 451.557 292.66 451.667C292.668 456.313 287.657 457.92 283.777 458.633C282.137 458.934 280.452 459.084 278.764 459.084Z" fill="#00BFA5"/>
<path d="M280.972 434.735C279.2 433.366 275.236 433.347 273.067 433.588C270.351 433.888 268.152 434.872 266.902 435.821C266.349 436.243 265.575 436.17 265.087 435.673C264.501 435.077 264.555 434.094 265.221 433.589C266.545 432.583 268.941 431.168 272.158 430.935C277.495 430.547 279.061 431.491 279.061 431.491C279.061 431.491 281.496 433.108 280.972 434.735Z" fill="#F3F2F1"/>
<path d="M285.041 439.764C282.816 438.406 278.454 438.6 276.286 438.84C273.57 439.141 271.539 440.243 270.29 441.195C269.736 441.616 268.962 441.542 268.475 441.046C267.889 440.449 267.943 439.467 268.609 438.961C269.933 437.955 272.477 436.331 275.695 436.097C281.032 435.709 282.423 436.834 282.423 436.834C282.423 436.834 284.673 437.734 285.041 439.764Z" fill="#F3F2F1"/>
<path d="M270.033 425.661C273.722 425.269 275.284 425.694 276.741 426.243C277.684 426.787 278.302 428.32 277.696 428.709C276.509 428.028 274.37 427.746 271.749 427.866C269.992 427.946 267.775 428.681 265.978 429.503C265.521 429.712 264.981 430.005 264.508 430.275C263.869 430.641 263.058 430.381 262.753 429.712C262.492 429.145 262.686 428.468 263.215 428.138C264.504 427.332 267.053 425.98 270.033 425.661Z" fill="#F3F2F1"/>
<path d="M330.835 409.133C330.835 409.133 330.229 407.46 327.718 406.978C325.797 406.61 322.405 408.072 320.298 409.866C319.434 410.599 319.545 411.994 320.524 412.552C321.106 412.883 321.821 412.797 322.323 412.345C323.705 411.103 326.804 408.847 330.835 409.133Z" fill="#F3F2F1"/>
<path d="M336.788 412.576C336.788 412.576 335.547 410.572 333.094 410.61C333.094 410.61 328.078 410.759 324.974 413.746C324.182 414.509 324.238 415.806 325.186 416.344C325.751 416.663 326.439 416.578 326.919 416.136C328.318 414.847 331.12 412.138 336.788 412.576Z" fill="#F3F2F1"/>
<path d="M343.36 415.676C343.36 415.676 341.977 413.863 339.524 413.903C339.524 413.903 334.851 414.082 331.747 417.07C330.955 417.832 331.009 419.129 331.958 419.667C332.524 419.986 333.212 419.901 333.692 419.459C335.09 418.171 337.693 415.239 343.36 415.676Z" fill="#F3F2F1"/>
<path d="M333.897 197.215C333.897 197.215 333.787 262.405 333.897 273.919C334.008 285.432 333.897 307.468 333.897 318.116C333.897 318.116 330.567 324.005 314.465 323.99C298.363 323.975 295.95 318.918 295.95 318.918L295.295 266.427L290.856 321.452C290.856 321.452 281.609 328.859 268.346 325.908C255.084 322.957 253.137 318.879 253.137 318.879L255.743 197.464L333.897 197.215Z" fill="#00BFA5"/>
<path d="M295.915 311.522L295.295 266.427L297.661 244.181C297.661 244.181 308.712 241.403 316.106 235.66C316.106 235.66 312.193 240.661 307.709 243.255C303.224 245.848 301.07 246.923 301.07 246.923L296.484 269.569L295.915 311.522Z" fill="#1DB3A0"/>
<path d="M254.763 208.571C265.281 216.481 312.948 225.242 335.072 208.571C335.072 208.571 334.561 144.77 332.827 111.003C332.745 109.47 332.646 107.987 332.497 106.538C332.447 106.06 332.382 105.584 332.331 105.105C332.067 103.009 331.704 101.015 331.208 99.1226C331.126 98.7995 331.027 98.4757 330.929 98.1512C330.714 97.417 330.482 96.7032 330.202 96.0033C330.053 95.6286 329.904 95.2539 329.74 94.8959C329.591 94.5553 329.444 94.2134 329.261 93.8903L329.178 93.7019C329.014 93.3788 328.832 93.0557 328.649 92.748C328.451 92.4074 328.254 92.0655 328.022 91.7249C327.807 91.4193 327.593 91.0941 327.379 90.8045C327.131 90.4807 326.868 90.1562 326.587 89.8499C326.339 89.5443 326.058 89.254 325.777 88.9811C325.595 88.7927 325.397 88.6057 325.199 88.4194C325.017 88.2484 324.819 88.0774 324.621 87.9246C324.374 87.702 324.093 87.4982 323.828 87.293C322.971 86.6622 322.046 86.1005 321.039 85.589C320.775 85.4522 320.494 85.3161 320.213 85.1968L320.015 85.1117C319.684 84.9756 319.354 84.8388 319.024 84.7195C318.48 84.4983 317.902 84.3098 317.306 84.1396C316.712 83.9693 316.102 83.8158 315.457 83.6623C314.747 83.6288 313.955 83.6121 313.096 83.6121C312.552 83.6121 311.956 83.6288 311.346 83.6448C310.736 83.6623 310.108 83.6797 309.464 83.7139C301.193 84.0886 289.32 85.4696 279.794 86.7313C279.167 86.8157 278.54 86.9009 277.928 86.9867C277.367 87.0544 276.822 87.1235 276.293 87.1905C269.755 88.0774 264.901 88.8101 264.158 88.9294L264.059 88.9476C261.912 89.5094 259.932 90.0383 258.33 90.5324C253.955 91.8617 257.207 90.7194 256.249 95.0829C253.426 107.901 256.713 154.503 256.713 154.503L254.763 208.571Z" fill="#EDEDEB"/>
<path d="M282.512 38.7875L279.572 42.1067L278.074 24.9966C278.074 24.9966 274.412 24.3487 271.557 27.3619C268.759 30.3153 270.321 39.5614 273.806 48.6179C273.806 48.6179 277.205 65.1066 278.569 67.8163C279.932 70.5247 282.749 71.2945 282.749 71.2945L282.512 38.7875Z" fill="#26B6A6"/>
<path d="M282.716 71.2852C282.396 71.1885 279.846 70.3524 278.569 67.8164C278.168 67.0213 277.593 65.0417 276.98 62.6394C277.315 62.6765 277.631 62.6937 277.927 62.6937C281.833 62.6937 282.512 59.6952 282.512 59.6952L282.716 71.2852Z" fill="#C35363"/>
<path d="M278.374 46.9749C278.055 46.6105 277.737 46.2488 277.431 45.9162C276.599 45.0179 274.775 43.9459 272.857 43.9459C272.639 43.9459 272.42 43.9592 272.2 43.9883C270.895 39.7588 270.113 35.7347 270.117 32.6049C270.119 30.734 270.401 29.1825 271.018 28.0985C271.837 28.0363 272.641 27.7527 273.338 27.2545C273.824 30.9116 275.714 44.252 277.596 46.0912C277.839 46.3284 278.101 46.6318 278.374 46.9749Z" fill="#C35363"/>
<path d="M282.13 49.3824C280.846 50.1734 279.014 47.6268 277.431 45.9162C275.848 44.2069 270.678 41.8682 268.1 47.4783C265.472 53.1945 270.375 60.7485 274.445 62.0669C281.46 64.3407 282.512 59.6951 282.512 59.6951L282.982 86.3231C290.331 100.047 315.182 93.0194 305.866 83.9235L305.847 77.1603C305.847 77.1603 313.325 77.6544 316.425 77.1603C321.584 76.3374 323.704 72.6512 325.269 66.8874C327.783 57.6294 328.737 50.1536 326.605 31.9464C324.267 11.9902 301.784 11.7821 289.642 19.6713C277.5 27.5605 282.13 49.3824 282.13 49.3824Z" fill="#F8A39A"/>
<path d="M279.127 14.085C283.288 12.0696 287.872 10.9792 292.389 9.96689C302.194 7.76863 312.182 5.74529 321.138 1.07192C322.242 0.495532 323.421 -0.139141 324.648 0.0278127C327.01 0.348469 328.045 3.30196 328.138 5.75856C328.226 8.03363 327.936 10.3233 327.286 12.499C328.557 10.9368 331.152 11.1541 332.56 12.5824C333.969 14.0135 334.345 16.2475 334.087 18.2681C333.51 22.8011 330.144 26.5747 326.171 28.5887C322.196 30.6015 317.669 31.1063 313.243 31.2388C307.061 31.423 300.861 30.9394 294.776 29.7998C293.297 29.5229 291.786 29.2076 290.304 29.4659C288.824 29.7243 287.353 30.7049 286.966 32.2021C286.315 34.721 285.638 51.8656 282.224 51.9358C281.589 51.949 279.17 47.6321 277.596 46.0911C275.616 44.1553 273.625 29.4726 273.272 26.7589C273.243 26.5377 273.125 26.3641 272.999 26.1826C270.768 22.9561 273.387 17.5195 276.14 15.7506C277.106 15.1318 278.103 14.5806 279.127 14.085Z" fill="#26B6A6"/>
<path d="M282.222 51.9358C281.581 51.9358 279.167 47.6295 277.596 46.0911C275.714 44.252 273.824 30.9116 273.338 27.2545C273.662 27.0213 273.965 26.7405 274.234 26.4145L272.344 24.7515C272.218 24.2785 272.159 23.7829 272.159 23.2768C272.159 20.3445 274.112 17.0532 276.14 15.7507C277.106 15.1318 278.103 14.5806 279.127 14.085C283.288 12.0697 287.872 10.9792 292.389 9.96688C302.194 7.7687 312.182 5.74532 321.138 1.07195C322.12 0.559159 323.161 0.00131226 324.243 0.00131226C324.377 0.00131226 324.513 0.00928833 324.648 0.0278387C327.01 0.348496 328.045 3.30198 328.138 5.75859C328.149 6.02492 328.153 6.29258 328.153 6.55891C328.152 8.569 327.858 10.5777 327.286 12.499C327.889 11.757 328.792 11.4165 329.724 11.4165C330.754 11.4165 331.82 11.8325 332.56 12.5825C333.7 13.7393 334.163 15.4221 334.163 17.0916C334.163 17.4878 334.136 17.8813 334.087 18.2682C333.51 22.8011 330.144 26.5748 326.171 28.5888C322.196 30.6015 317.669 31.1063 313.243 31.2388C312.389 31.264 311.534 31.2773 310.679 31.2773C305.349 31.2773 300.02 30.7818 294.776 29.7999C293.683 29.5958 292.575 29.3692 291.472 29.3692C291.082 29.3692 290.691 29.3984 290.304 29.466C288.824 29.7244 287.353 30.7048 286.966 32.2021C286.315 34.721 285.638 51.8656 282.224 51.9358C282.224 51.9358 282.223 51.9358 282.222 51.9358Z" fill="#C35363"/>
<path d="M274.234 26.4145C272.559 28.4445 269.608 28.6869 267.641 26.9577C265.676 25.2272 265.44 22.181 267.115 20.1524L274.234 26.4145Z" fill="#26B6A6"/>
<path d="M270.673 28.1118C269.6 28.1118 268.522 27.7329 267.641 26.9577C266.556 26.0011 265.997 24.6429 265.999 23.2755C266 22.1704 266.367 21.0587 267.115 20.1524L274.234 26.4144C273.965 26.7404 273.662 27.0213 273.338 27.2545C272.641 27.7527 271.837 28.0363 271.018 28.0986C270.903 28.1065 270.789 28.1118 270.673 28.1118Z" fill="#C35363"/>
<path d="M305.847 77.1603C305.847 77.1603 294.333 76.018 290.308 73.8097C287.614 72.3307 285.395 69.768 284.743 68.125C284.743 68.125 285.497 71.6522 287.904 74.8298C290.848 78.7145 305.847 81.5755 305.847 81.5755V77.1603Z" fill="#F57F6D"/>
<path d="M302.323 46.4104C302.323 47.7765 301.288 48.8829 300.014 48.8789C298.74 48.8749 297.707 47.7632 297.707 46.3971C297.707 45.0297 298.74 43.9246 300.014 43.9286C301.288 43.9326 302.323 45.0443 302.323 46.4104Z" fill="#17282F"/>
<path d="M299.874 37.4175L294.938 40.2291C294.211 38.765 294.725 36.9484 296.089 36.172C297.451 35.3955 299.147 35.9533 299.874 37.4175Z" fill="#17282F"/>
<path d="M303.362 62.866L309.8 65.3597C309.163 67.2651 307.205 68.2509 305.429 67.5632C303.65 66.8742 302.725 64.7714 303.362 62.866Z" fill="#F57F6D"/>
<path d="M322.689 39.401L318.186 35.8208C319.105 34.4905 320.857 34.2136 322.099 35.2008C323.344 36.1892 323.606 38.0694 322.689 39.401Z" fill="#17282F"/>
<path d="M321.302 45.732C321.302 47.0994 320.269 48.2032 318.995 48.2006C317.722 48.1966 316.687 47.0863 316.687 45.7188C316.687 44.3527 317.722 43.2463 318.995 43.2503C320.269 43.2542 321.302 44.3646 321.302 45.732Z" fill="#17282F"/>
<path d="M310.173 44.0307L310.932 58.3556L318.176 55.8075L310.173 44.0307Z" fill="#F57F6D"/>
<path d="M265.398 88.7396C254.763 89.7677 247.573 92.5653 238.373 110.995C233.066 121.63 217.51 155.765 217.51 155.765L177.258 175.757C177.258 175.757 181.951 188.176 180.897 193.408C180.897 193.408 194.765 189.94 209.618 185.705C224.4 181.49 231.155 179.026 235.38 176.113C238.519 173.948 261.902 128.452 261.902 128.452C269.863 115.582 272.271 98.4641 265.398 88.7396Z" fill="#33535F"/>
<path d="M195.288 78.6097L193.946 78.4948C175.372 76.9115 161.559 60.0821 163.094 40.9076C164.573 22.4261 180.284 8.68158 198.186 10.208L201.961 10.53C219.863 12.0565 233.175 28.2761 231.697 46.7589C230.161 65.9334 213.861 80.193 195.288 78.6097Z" fill="#17282F"/>
<path d="M169.809 71.4468C169.157 71.5158 168.506 71.5569 167.861 71.5767C163.511 71.7118 159.157 70.9818 154.816 71.309C148.803 71.7622 142.453 74.8233 140.218 80.6041C138.491 85.0666 139.417 90.5259 136.708 94.4346C134.863 97.0991 131.743 98.4073 129.067 100.17C120.107 106.068 116.768 119.411 124.449 128.006C135.131 139.96 154.086 132.131 161.421 120.299C164.351 115.575 166.071 109.888 170.183 106.22C174.639 102.245 181.094 101.409 185.642 97.5473C189.628 94.1617 191.685 88.5169 190.854 83.2592C190.276 79.6233 188.458 76.3374 186.546 73.2261C185.44 71.4257 184.256 69.617 182.605 68.3357C179.61 66.0143 179.051 68.1224 176.259 69.6077C174.268 70.6664 172.043 71.2136 169.809 71.4468Z" fill="#17282F"/>
<path d="M99.1597 402.161C100.224 404.898 99.3726 408.155 99.0266 415.341C98.7985 420.066 98.3835 424.812 98.6978 429.544C98.8102 431.238 99.2431 432.81 99.4857 434.469C99.6815 435.808 100.145 436.964 101.107 437.951C101.909 438.775 103.07 439.302 104.178 439.069C105.055 438.885 105.801 438.242 106.274 437.457C106.918 436.389 108.056 433.794 108.375 432.626C108.936 444.734 121.054 453.891 113.163 456.358C106.318 458.5 100.449 456.479 96.4735 454.305C94.0334 452.969 91.8366 450.234 91.3644 449.241C88.7333 443.707 89.3806 438.647 89.6274 434.05C90.1719 423.897 88.8746 418.544 88.4011 413.417C87.8283 407.209 97.3551 401.115 99.1597 402.161Z" fill="#17282F"/>
<path d="M183.815 406.625C183.815 406.625 183.159 406.679 182.951 407.584C182.645 408.918 182.231 411.429 181.645 413.707C180.864 416.738 179.956 421.115 180.289 423.613C180.623 426.111 183.702 428.719 189.648 430.893C193.23 432.203 199.543 435.888 202.347 438.881C205.784 442.547 213.412 445.924 218.678 446.437C224.852 447.038 231.406 445.761 233.183 441.261C233.931 439.37 230.989 437.058 223.315 432.614C223.315 432.614 219.45 430.173 217.272 428.55C206.299 420.371 202.661 415.894 199.805 408.107L183.815 406.625Z" fill="#17282F"/>
<path d="M203.719 414.62C200.329 410.316 199.875 406.349 200.843 398.846C201.811 391.34 211.675 326.018 214.188 309.667C218.408 282.202 222.416 203.488 221.385 184.171L149.651 185.247C143.635 198.284 138.803 214.505 138.002 240.407C137.393 260.161 133.625 313.605 133.625 313.605C133.625 313.605 124.427 320.886 117.242 335.993C110.894 349.34 101.623 396.292 101.623 396.292C100.457 399.37 99.525 401.713 99.1596 402.161C97.5281 404.163 96.3177 406.344 96.1591 408.903C95.6525 417.087 95.9889 425.326 97.1621 433.437C97.7693 437.635 100.108 440.466 104.008 442.375C104.873 442.798 105.821 443.048 106.778 443.038C107.265 443.033 107.794 442.946 108.164 442.608C108.883 441.954 108.37 440.254 108.293 439.414C108.169 438.061 108.141 436.7 108.186 435.343C108.275 432.676 108.558 429.432 108.892 426.789C109.769 419.87 111.1 414.296 112.762 409.318C112.763 409.317 113.398 408 114.361 405.996C114.361 405.996 149.345 343.562 159.118 328.424C166.88 316.553 174.501 268.979 181.086 243.131L185.576 306.25C185.576 306.25 181.201 317.309 179.696 325.889C177.676 337.413 182.792 383.429 184.163 399.761C184.417 402.793 184.262 405.839 183.702 408.828C184.105 415.893 189.067 418.391 194.089 422.71C196.586 424.857 207.661 432.845 214.527 434.763C220.114 436.323 222.416 434.199 223.308 432.607C216.519 427.837 207.11 418.925 203.719 414.62Z" fill="#F6879F"/>
<path d="M164.593 160.085C164.593 160.085 157.819 167.581 146.805 186.853C139.408 199.794 135.925 248.859 135.925 248.859C135.925 248.859 140.797 262.648 176.942 262.826L180.664 246.348L181.95 262.766C182.84 262.743 183.748 262.709 184.675 262.669C215.924 261.296 222.177 254.444 222.177 254.444C222.177 254.444 223.308 199.304 219.736 164.236C208.763 171.171 176.549 171.171 164.593 160.085Z" fill="#C1C2BF"/>
<path d="M180.664 246.348L189.276 219.211C189.276 219.211 202.673 218.628 213.517 211.455C213.517 211.455 210.752 221.407 192.252 223.162L182.683 249.727L181.95 262.766L180.664 246.348Z" fill="#17282F"/>
<path d="M154.106 252.039C141.492 248.032 136.742 242.253 136.742 242.253L136.741 242.261L135.925 248.734C135.925 248.734 140.797 262.522 176.942 262.7L178.594 255.389C178.594 255.389 166.72 256.047 154.106 252.039Z" fill="#273E47"/>
<path d="M222.177 254.444C222.177 254.444 222.23 251.795 222.278 247.29C221.579 247.69 212.979 251.555 202.251 253.364C191.044 255.252 181.344 255.028 181.343 255.028L181.948 262.766C182.84 262.743 183.748 262.709 184.675 262.669C215.924 261.296 222.177 254.444 222.177 254.444Z" fill="#273E47"/>
<path d="M228.939 116.337C222.687 104.796 209.498 93.3293 205.235 89.3587L179.066 87.8228C173.908 87.7515 169.806 88.1465 167.086 89.4184C161.45 92.0575 160.544 97.5749 159.951 104.162C159.289 111.384 159.058 114.562 160.242 126.642L162.811 142.106L163.206 144.48C163.275 144.888 163.333 145.296 163.402 145.716C164.275 151.45 163.463 157.42 160.236 162.891C153.514 174.291 146.945 183.07 144.33 192.846C144.33 192.846 147.932 191.82 152.637 187.731C156.732 184.171 159.167 182.554 162.537 178.26C162.537 178.26 162.427 184.99 168.341 194.216C169.748 196.423 171.479 198.643 173.606 200.73C184.575 211.526 219.19 218.185 222.281 186.85C222.281 186.85 219.678 166.779 219.446 160.085C220.781 154.399 224.313 144.625 224.523 142.429C232.948 135.568 233.494 124.735 228.939 116.337Z" fill="#65E6D4"/>
<path d="M198.166 148.001C196.475 148.001 194.634 147.734 192.649 147.101C179.587 142.934 180.687 130.711 180.687 130.711C180.687 130.711 182.197 140.058 192.551 143.847C194.694 144.632 196.781 144.943 198.745 144.943C206.272 144.943 211.98 140.371 211.98 140.371C211.98 140.371 207.208 148.001 198.166 148.001Z" fill="#1DB3A0"/>
<path d="M220.022 25.5174C223.56 28.1052 227.385 38.1568 225.311 58.3675C223.554 75.4985 217.826 79.2777 215.022 80.2701C212.218 81.2612 207.059 80.073 202.056 78.7662L201.232 89.067C201.232 89.067 207.57 98.0719 206.751 102.758C205.932 107.444 196.159 107.734 189.968 102.56C183.777 97.3872 180.131 90.0041 180.131 90.0041L182.268 63.3125C182.268 63.3125 178.656 66.8715 173.361 62.5532C168.067 58.235 169.154 50.7433 172.684 47.6083C176.214 44.4732 182.272 46.7841 183.204 51.6112C183.204 51.6112 191.269 52.6063 202.533 47.4148C213.797 42.2234 218.773 32.1108 220.022 25.5174Z" fill="#F6879F"/>
<path d="M205.234 52.3148C205.195 53.5563 204.223 54.5288 203.067 54.4865C201.909 54.4454 201.002 53.4053 201.041 52.1624C201.08 50.9208 202.049 49.9482 203.207 49.9907C204.364 50.0318 205.272 51.0732 205.234 52.3148Z" fill="#17282F"/>
<path d="M206.489 67.0703L211.216 69.083C210.698 70.4822 209.221 71.1673 207.915 70.6121C206.61 70.0556 205.971 68.4695 206.489 67.0703Z" fill="#F47089"/>
<path d="M222.905 47.1498L218.917 43.7618C219.788 42.5812 221.389 42.3824 222.489 43.3166C223.59 44.2534 223.776 45.9693 222.905 47.1498Z" fill="#17282F"/>
<path d="M221.523 52.1333C221.485 53.3749 220.515 54.3475 219.358 54.305C218.199 54.2639 217.293 53.2238 217.332 51.9809C217.37 50.7394 218.341 49.7668 219.497 49.8079C220.656 49.8502 221.562 50.8904 221.523 52.1333Z" fill="#17282F"/>
<path d="M211.413 50.0265L210.705 63.0475L217.497 61.4933L211.413 50.0265Z" fill="#F47089"/>
<path d="M202.055 78.7662C196.766 77.5867 186.029 73.3869 184.675 68.7518C184.675 68.7518 185.02 71.6218 188.074 74.8087C191.126 77.9964 201.781 82.2034 201.781 82.2034L202.055 78.7662Z" fill="#F47089"/>
<path d="M177.751 107.254C177.352 93.5192 172.31 88.1 172.31 88.1C163.676 87.8148 152.725 88.0825 145.06 101.913C141.224 108.835 118.847 147.437 118.847 147.437C113.857 143.534 89.2028 121.882 87.6491 120.286C85.8562 118.178 85.1118 116.408 84.7981 114.37C84.8147 112.279 84.6775 110.095 84.5721 109.084C84.1199 104.758 83.4299 103.608 82.3029 100.134C81.8259 98.6642 81.7783 97.7576 81.5653 96.6014C81.5102 96.3016 81.4254 95.9691 81.1711 95.8141C80.9574 95.6817 80.6865 95.7188 80.4459 95.785C78.986 96.1947 78.5889 97.0263 78.1443 98.5187C77.6991 100.012 77.9644 101.985 78.1271 103.538C78.2629 104.829 78.4876 106.222 77.6136 106.711C76.3184 107.201 75.4981 105.81 75.0198 105.144C73.1931 102.006 68.3679 92.7218 66.1805 89.1543C65.6856 88.3474 65.1356 87.5012 64.2873 87.1221C62.879 86.4898 61.8041 87.4189 61.7625 89.0022C61.7459 89.601 61.9424 90.1817 62.1541 90.739C63.2474 93.6255 66.7494 100.683 67.493 102.56C67.7667 103.25 68.1322 104.497 67.499 104.839C66.4011 105.704 64.8233 104.28 63.7158 103.141C59.1132 98.4124 57.895 97.5007 54.7801 94.5328C53.5417 93.3519 52.2682 93.5644 51.4716 94.1668C50.8379 94.647 50.6162 95.8418 51.3211 96.9208C51.7613 97.5939 53.0378 99.1997 54.0856 100.45C55.8645 102.573 61.4711 108.939 61.4711 108.939C59.7926 109.234 58.6295 111.794 60.1591 114.357C60.1591 114.357 58.244 116.943 60.4233 120.336C61.8562 122.568 64.9265 126.26 69.0594 127.922C71.1232 128.753 72.9946 129.188 75.463 131.9C79.962 136.841 96.6575 155.368 108.632 167.26C112.251 170.854 117.801 175.143 121.926 175.336C124.495 175.456 128.196 171.236 130.063 168.924C132.404 166.025 159.373 127.096 159.373 127.096L161.971 137.048C172.814 128.403 178.147 120.99 177.751 107.254Z" fill="#F6879F"/>
<path d="M159.373 127.096L165.964 118.039L160.841 132.716L159.373 127.096Z" fill="#F47089"/>
<path d="M463.852 462.175C464.348 464.203 465.391 469.948 475.738 469.948C486.085 469.948 492.021 465.571 494.056 460.143C496.092 454.714 494.924 450.691 494.737 445.958C494.547 441.227 497.954 438.208 498.709 435.651C499.819 431.882 496.771 426.696 496.771 426.696L463.852 462.175Z" fill="#17282F"/>
<path d="M364.333 427.281C363.95 427.572 363.723 430.902 364.815 432.427C365.567 433.476 372.51 438.679 381.079 437.597C389.646 436.515 393.829 434.213 398.723 431.233C403.733 428.183 407.192 427.742 412.288 427.76C417.226 427.776 420.875 426.782 421.297 425.46C422.036 423.14 422.09 421.653 421.008 421.686L364.333 427.281Z" fill="#17282F"/>
<path d="M493.15 418.461C493.327 423.961 477.044 428.732 477.442 421.738L471.827 401.441L490.034 399.447L493.15 418.461Z" fill="#C35363"/>
<path d="M417.403 405.55C412.292 409.341 407.573 409.809 401.567 406.697L398.541 373.47H420.646L417.403 405.55Z" fill="#C35363"/>
<path d="M464.816 190.463C469.049 230.558 476.581 306.042 476.581 306.042C476.581 306.042 483.241 316.528 485.723 335.871C488.787 359.752 491.823 409.602 491.823 409.602C491.823 409.602 484.338 415.016 473.816 411.507C473.816 411.507 447.853 338.326 443.05 314.815C438.86 294.296 431.438 257.652 431.438 257.652L422.156 309.503C422.156 309.503 425.801 321.407 425.153 337.454C424.706 348.5 419.681 390.292 419.681 390.292C418.185 394.861 404.297 394.542 399.827 391.603C399.827 391.603 392.715 321.338 391.777 309.735C390.544 294.472 388.257 190.463 388.257 190.463H464.816Z" fill="#273E47"/>
<path d="M431.438 257.652L426.255 232.99C426.255 232.99 414.674 230.262 406.4 223.412C406.4 223.412 409.434 231.281 422.12 237.302L427.412 260.405L422.857 305.581L431.438 257.652Z" fill="#17282F"/>
<path d="M477.442 421.738L476.855 419.62C476.176 420.319 476.284 420.919 476.262 422.822C476.247 424.313 476.242 425.765 476.066 427.755C475.798 430.797 475.506 431.87 474.689 435.456C473.354 441.311 471.845 443.653 467.856 450.886C466.909 452.602 464.621 455.453 463.951 457.303C463.282 459.153 463.072 462.539 465.189 463.833C471.241 467.529 480.581 466.521 486.509 463.646C491.068 461.433 493.923 456.94 493.951 451.739C493.959 450.245 493.65 448.768 493.592 447.277C493.458 443.871 494.625 440.553 496.043 437.478C496.867 435.693 497.79 433.931 498.233 432.008C499.028 428.553 497.449 425.062 496.138 421.958C495.008 419.278 493.688 415.701 492.803 416.112C492.851 416.452 493.15 418.461 493.15 418.461C492.231 419.911 489.344 421.666 485.897 422.361C483.67 422.81 477.688 423.506 477.442 421.738Z" fill="#33535F"/>
<path d="M400.937 399.769C400.145 399.79 399.341 400.41 397.943 402.521C396.189 405.166 394.655 406.841 390.623 409.766C385.412 413.551 377.184 417.368 368.721 420.635C364.108 422.415 363.232 425.852 364.756 428.933C367.144 431.399 375.277 437.154 388.639 432.952C396.929 430.344 399.844 425.953 405.766 425.178C409.954 424.629 417.223 425.817 421.501 422.243C422.848 418.907 421.768 415.549 421.34 410.909C420.921 406.387 419.472 398.865 418.048 399.157L417.801 401.608C416.663 406.974 404.703 407.502 401.32 403.996L400.937 399.769Z" fill="#33535F"/>
<path d="M433.218 79.2988C446.5 80.1494 463.84 79.9762 464.647 94.0278C465.883 115.588 461.885 160.826 461.885 160.826L466.178 197.998C456.444 208.744 412.921 214.352 388.055 198.602C388.055 198.602 388.159 124.972 390.11 112.765C393.622 90.8002 401.716 81.1658 409.482 80.5525L433.218 79.2988Z" fill="#248A7F"/>
<path d="M427.618 28.0522C428.322 40.1312 419.405 50.5141 407.705 51.2402C396.004 51.9677 385.946 42.7626 385.243 30.6837C384.538 18.6021 393.455 8.22057 405.156 7.49441C416.858 6.76699 426.913 15.972 427.618 28.0522Z" fill="#17282F"/>
<path d="M443.961 42.6461C443.961 42.6461 441.497 59.5124 440.281 62.3334C439.063 65.1544 436.264 66.1097 436.264 66.1097L435.821 54.3806L443.961 42.6461Z" fill="#17282F"/>
<path d="M438.262 19.0565C438.262 19.0565 441.921 18.1728 444.983 21.0375C447.982 23.8452 446.948 33.2821 443.961 42.6461L437.538 43.8134L438.262 19.0565Z" fill="#17282F"/>
<path d="M435.599 43.9406C436.943 44.6588 438.643 41.9716 440.142 40.1457C441.64 38.3198 446.723 35.634 449.658 41.1368C452.649 46.7457 448.14 54.6826 444.107 56.2686C437.157 59.0048 435.821 54.3805 435.821 54.3805L436.881 81.5966C428.753 93.8001 404.257 94.3327 413.73 81.5253L413.283 73.4954C413.283 73.4954 406.924 74.8996 403.765 74.5941C398.507 74.0847 394.982 70.0463 393.063 64.3235C389.98 55.1304 388.576 47.6414 389.66 29.1201C390.844 8.81808 413.538 7.19887 426.265 14.4044C438.991 21.6112 435.599 43.9406 435.599 43.9406Z" fill="#C35363"/>
<path d="M435.73 46.1919C436.384 46.1641 438.615 41.7623 440.142 40.1458C442.256 37.9051 438.262 19.0566 438.262 19.0566C438.262 19.0566 440.716 13.5074 436.124 8.88035C432.856 5.58901 428.335 1.60331 414.528 4.16327C404.688 5.98915 394.086 9.85033 385.114 5.97062C384.134 11.651 385.552 17.8309 391.228 21.9173C391.228 21.9173 394.506 23.8227 402.864 24.3501C411.222 24.8774 424.073 22.8316 425.826 22.4725C428.213 21.9836 428.866 24.358 430.546 30.8546C432.02 36.5575 433.536 46.2846 435.73 46.1919Z" fill="#17282F"/>
<path d="M438.335 20.5379L445.923 15.7055C444.676 13.4556 441.965 12.7123 439.87 14.0466C437.775 15.3822 437.088 18.2867 438.335 20.5379Z" fill="#17282F"/>
<path d="M413.283 73.4953C413.283 73.4953 424.77 70.355 428.705 67.8706C431.339 66.209 433.43 63.4821 433.991 61.7821C433.991 61.7821 433.436 65.3915 431.192 68.7504C428.448 72.8594 413.469 76.6888 413.469 76.6888L413.283 73.4953Z" fill="#AA3B4B"/>
<path d="M414.267 42.2525C414.348 43.6332 415.456 44.6839 416.743 44.6005C418.03 44.517 419.007 43.3297 418.926 41.9491C418.847 40.5697 417.738 39.5177 416.452 39.6011C415.166 39.6846 414.187 40.8718 414.267 42.2525Z" fill="#17282F"/>
<path d="M416.209 33.0171L421.361 35.5478C422.01 34.0227 421.382 32.2207 419.96 31.5211C418.538 30.8228 416.858 31.492 416.209 33.0171Z" fill="#17282F"/>
<path d="M413.495 58.9783L408.294 61.37C408.912 62.911 410.578 63.6252 412.013 62.9654C413.45 62.3042 414.112 60.5193 413.495 58.9783Z" fill="#AA3B4B"/>
<path d="M393.076 36.4635L397.411 32.5665C396.404 31.2799 394.62 31.1103 393.422 32.1863C392.226 33.2622 392.07 35.1755 393.076 36.4635Z" fill="#17282F"/>
<path d="M394.847 42.7706C394.928 44.1513 396.036 45.202 397.323 45.1186C398.609 45.035 399.588 43.8479 399.506 42.4671C399.427 41.0878 398.319 40.0357 397.033 40.1191C395.745 40.2027 394.768 41.3899 394.847 42.7706Z" fill="#17282F"/>
<path d="M406.586 39.7521L406.665 54.2665L399.197 52.1465L406.586 39.7521Z" fill="#AA3B4B"/>
<path d="M451.68 82.6509C466.599 83.4636 471.017 91.4164 479.921 106.894C487.103 119.385 505.696 150.126 505.696 150.126C510.396 144.669 530.845 114.846 532.227 112.725C533.766 109.984 533.39 106.816 533.302 104.487C532.84 102.174 532.529 99.7228 532.43 98.5769C532.011 93.6808 532.531 92.2495 533.04 88.1451C533.256 86.4076 533.118 85.3911 533.107 84.0625C533.105 83.7176 533.128 83.3298 533.377 83.0991C533.585 82.9056 533.894 82.8845 534.174 82.9041C535.878 83.0278 536.496 83.8587 537.307 85.4115C538.117 86.9642 538.242 89.2118 538.393 90.9697C538.517 92.4329 538.564 94.0264 539.636 94.3698C541.175 94.6201 541.789 92.8913 542.178 92.0458C543.534 88.1538 546.909 76.7711 548.574 72.3227C548.951 71.317 549.379 70.2543 550.239 69.6395C551.665 68.6219 553.054 69.4062 553.437 71.1527C553.583 71.8125 553.489 72.5002 553.373 73.165C552.774 76.6117 550.395 85.2281 549.97 87.4757C549.814 88.3037 549.673 89.7677 550.447 90.0027C551.849 90.7143 553.295 88.7767 554.28 87.2647C558.376 80.9803 559.531 79.6953 562.35 75.6986C563.472 74.1087 564.929 74.0556 565.94 74.5431C566.745 74.9317 567.244 76.205 566.692 77.562C566.348 78.4075 565.275 80.4753 564.378 82.0986C562.86 84.8534 557.999 93.1802 557.999 93.1802C559.923 93.1285 561.756 95.7013 560.606 98.8868C560.606 98.8868 563.866 101.73 562.173 105.985C561.059 108.782 558.67 114.02 554.442 116.801C552.332 118.19 550.45 119.643 548.291 123.207C544.357 129.702 535.071 148.69 523.127 167.202C519.631 172.616 515.214 179.323 510.323 182.152C505.37 185.016 497.649 180.384 492.814 175.08C483.549 164.918 458.525 127.224 458.525 127.224L451.68 82.6509Z" fill="#C35363"/>
<path d="M451.446 81.0734C451.446 81.0734 441.145 104.932 458.278 129.265L471.912 150.838C480.169 150.838 489.835 140.537 494.8 130.192C494.8 130.192 482.574 109.234 476.288 98.8832C470.582 89.4868 464.73 81.0734 451.446 81.0734Z" fill="#26B6A6"/>
<path d="M471.913 150.838L463.596 137.678L458.278 129.265C450.498 118.215 448.375 107.264 448.376 98.598C448.376 88.1829 451.446 81.0734 451.446 81.0734C464.73 81.0734 470.582 89.4868 476.288 98.8832C482.574 109.234 494.799 130.192 494.799 130.192C494.639 130.527 494.473 130.861 494.304 131.195C489.737 140.16 481.777 148.845 474.422 150.541C473.575 150.735 472.738 150.838 471.913 150.838Z" fill="#248A7F"/>
</svg>
