<svg width="1184" height="618" viewBox="0 0 1184 618" fill="none" xmlns="http://www.w3.org/2000/svg">
<g clip-path="url(#clip0)">
<path d="M219.115 823.789C210.919 823.789 88.3724 832.367 82.5761 823.789C82.5761 835.919 76.7798 815.211 82.5761 823.789L82.5761 810.39C82.5761 799.163 77.5257 832.168 82.5761 823.789C82.5761 823.789 447.825 374.685 621.855 270.59C799.599 164.273 1003.5 103.905 1211.51 96.0165C1219.83 95.6842 1227.9 100.377 1233.87 108.985C1239.84 117.593 1243.21 129.407 1243.21 141.741V778.034C1243.21 803.294 1229.37 823.774 1212.3 823.774L219.115 823.789Z" fill="#F0F0F0"/>
<path opacity="0.7" d="M920.5 510.774C1073.23 510.774 1197.03 441.065 1197.03 355.073C1197.03 269.082 1073.23 199.372 920.5 199.372C767.775 199.372 643.967 269.082 643.967 355.073C643.967 441.065 767.775 510.774 920.5 510.774Z" fill="#F0F0F0"/>
<path d="M1041.08 471.162C1080.18 471.162 1111.87 453.316 1111.87 431.301C1111.87 409.287 1080.18 391.441 1041.08 391.441C1001.98 391.441 970.279 409.287 970.279 431.301C970.279 453.316 1001.98 471.162 1041.08 471.162Z" fill="#E0E0E0"/>
<path d="M808.575 471.162C847.675 471.162 879.372 453.316 879.372 431.301C879.372 409.287 847.675 391.441 808.575 391.441C769.475 391.441 737.778 409.287 737.778 431.301C737.778 453.316 769.475 471.162 808.575 471.162Z" fill="#E0E0E0"/>
<path d="M1106.08 304.475C1106.08 304.475 1103.03 302.115 1101.48 302.434C1100.75 302.575 1101.29 304.51 1100.45 308.168C1100.11 309.486 1099.44 310.701 1098.5 311.708L1097.95 311.862H1097.79L1096.31 312.263C1083.43 315.803 1054.25 323.473 1039.65 324.972C1028.5 326.152 1024.02 323.261 1020.94 313.655C1016.1 298.315 1012.8 260.791 1011.89 249.322C1003.91 267.812 996.294 286.563 989.228 305.325C1005.6 318.871 1016.27 358.743 1022.08 374.248L1023.37 377.517L1024.03 379.145C1024.03 379.145 1027.23 382.851 1022.73 387.559C1018.23 392.267 1012.9 392.373 1010.46 389.742C997.444 371.912 974.696 342.223 963.842 324.57C956.122 311.992 954.961 309.643 956.473 300.746C961.313 271.813 971.138 233.262 980.758 203.597L980.939 203.172L1049.67 207.314C1053.99 239.776 1049.28 295.814 1049.28 295.814L1094.41 293.725L1097.49 293.43C1098.44 293.879 1099.99 296.062 1100.72 297.985C1101.44 299.908 1104.53 301.242 1106.08 304.475Z" fill="#B16668"/>
<path d="M1096.31 312.31L1097.79 311.909H1097.95L1098.5 311.756C1099.44 310.748 1100.11 309.533 1100.45 308.216C1101.29 304.558 1100.75 302.622 1101.48 302.481C1103.03 302.186 1106.08 304.522 1106.08 304.522C1104.53 301.289 1101.49 300.074 1100.77 298.138C1100.04 296.203 1098.49 294.032 1097.54 293.584L1094.46 293.879L1049.28 295.92C1049.28 295.92 1054.89 314.269 1044.92 324.323C1060.44 321.88 1084.84 315.414 1096.31 312.31Z" fill="#37474F"/>
<path d="M1053.81 322.694C1059.86 312.369 1057.84 302.198 1054.92 295.637L1049.28 295.908C1049.28 295.908 1054.89 314.257 1044.92 324.311C1047.65 323.886 1050.65 323.331 1053.81 322.694Z" fill="#00BFA5"/>
<path d="M1023.35 377.564L1022.14 374.296C1017.06 360.82 1008.38 329.196 995.52 312.145C991.297 323.343 974.006 329.609 966.117 328.217C977.636 346.094 998.303 373.116 1010.46 389.789C1012.88 392.42 1018.22 392.326 1022.73 387.606C1027.25 382.886 1024.03 379.193 1024.03 379.193L1023.35 377.564Z" fill="#37474F"/>
<path d="M995.52 312.145C991.297 323.343 974.006 329.609 966.117 328.217C967.545 330.435 969.106 332.783 970.775 335.226C984.957 335.497 994.83 327.509 1000.11 319.095C998.717 316.694 997.185 314.373 995.52 312.145V312.145Z" fill="#00BFA5"/>
<path d="M1029.12 383.83C1029.9 384.774 1031.29 386.733 1031.12 387.83C1030.95 388.928 1028.95 394.485 1028.7 400.232C1028.48 405.33 1030.78 415.029 1025.75 421.932C1021.32 427.986 1017.28 429.413 1013.65 430.086C1012.23 430.431 1010.74 430.439 1009.32 430.111C1007.9 429.783 1006.58 429.127 1005.47 428.198C1005.47 428.198 1002.24 425.378 1003.68 423.207C1005.12 421.035 1029.12 383.83 1029.12 383.83Z" fill="#37474F"/>
<path d="M1029.4 384.29C1029.22 382.872 1028.57 381.548 1027.56 380.514C1026.06 378.933 1024.43 377.576 1023.83 375.405C1023.63 374.638 1023.45 373.198 1022.48 372.939C1022.39 372.939 1021.52 372.939 1021.52 372.939L1022.26 375.074C1021.85 375.959 1021.05 378.024 1020.66 378.933C1019.79 381.293 1020.89 383.759 1019.15 385.824C1019.03 383.205 1018.92 380.172 1017.14 380.207C1015.93 380.207 1013.8 381.8 1011.38 382.143C1008.96 382.485 1007.05 382.013 1006.11 382.355C1005.16 382.697 1005.7 383.865 1006.3 386.579C1007.08 389.62 1007.52 392.734 1007.62 395.866C1007.41 398.368 1007.15 400.952 1006.77 403.418C1005.33 412.929 1001.79 417.814 1002.6 422.935C1003.43 428.245 1012 430.11 1018.17 425.508C1028.67 417.684 1026.51 409.802 1026.33 403.984C1026.11 400.225 1026.46 396.455 1027.38 392.798C1028.35 389.376 1029.4 387.618 1029.4 384.29Z" fill="#00BFA5"/>
<path opacity="0.4" d="M1029.4 384.29C1029.22 382.872 1028.57 381.548 1027.56 380.514C1026.06 378.933 1024.43 377.576 1023.83 375.405C1023.63 374.638 1023.45 373.198 1022.48 372.939C1022.39 372.939 1021.52 372.939 1021.52 372.939L1022.26 375.074C1021.85 375.959 1021.05 378.024 1020.66 378.933C1019.79 381.293 1020.89 383.759 1019.15 385.824C1019.03 383.205 1018.92 380.172 1017.14 380.207C1015.93 380.207 1013.8 381.8 1011.38 382.143C1008.96 382.485 1007.05 382.013 1006.11 382.355C1005.16 382.697 1005.7 383.865 1006.3 386.579C1007.08 389.62 1007.52 392.734 1007.62 395.866C1007.41 398.368 1007.15 400.952 1006.77 403.418C1005.33 412.929 1001.79 417.814 1002.6 422.935C1003.43 428.245 1012 430.11 1018.17 425.508C1028.67 417.684 1026.51 409.802 1026.33 403.984C1026.11 400.225 1026.46 396.455 1027.38 392.798C1028.35 389.376 1029.4 387.618 1029.4 384.29Z" fill="black"/>
<path opacity="0.15" d="M1023.88 375.405C1023.88 375.428 1023.88 375.452 1023.88 375.476V375.605C1023.67 376.916 1023.38 378.213 1023 379.488C1022.66 381.022 1022.44 382.579 1022.21 384.137C1022.06 385.222 1021.97 386.308 1021.92 387.405C1021.87 388.503 1021.83 389.388 1021.84 390.379C1021.91 395.099 1022.61 398.863 1021.41 404.917C1020.22 410.97 1018.46 411.548 1017.22 410.817C1015.97 410.085 1017.12 408.516 1018.3 403.194C1019.51 397.624 1018.52 391.535 1019.14 385.812C1019.57 385.328 1019.87 384.749 1020.01 384.125V384.125C1020.43 382.461 1020.01 380.656 1020.65 378.957C1021 378.048 1021.86 375.983 1022.25 375.098L1021.51 372.962H1021.79H1022.13H1022.29H1022.47C1023.07 373.116 1023.36 373.741 1023.56 374.378C1023.73 374.732 1023.8 375.122 1023.88 375.405Z" fill="black"/>
<path opacity="0.15" d="M1020.45 416.103C1017.22 417.932 1015.27 417.519 1015.34 414.404C1015.51 412.202 1016.17 410.063 1017.28 408.138L1008.81 408.48C1008.81 408.48 1009.35 414.156 1007.66 415.56C1006.62 416.398 1005.15 415.088 1004.3 413.413C1003.09 417.153 1002.13 420.032 1002.6 422.982C1003.43 428.292 1012 430.157 1018.17 425.555C1026.97 418.994 1026.87 412.41 1026.51 407.029C1026.67 410.238 1023.68 414.274 1020.45 416.103Z" fill="black"/>
<path opacity="0.15" d="M1006.41 386.78C1007.11 389.756 1007.51 392.791 1007.62 395.842C1007.41 398.344 1007.15 400.928 1006.77 403.394C1006.52 405.023 1006.22 406.51 1005.88 407.89C1005.94 408.655 1006.21 409.391 1006.65 410.026C1007.73 410.946 1008.2 410.852 1008.81 408.457C1009.47 405.766 1009.5 390.993 1006.39 386.78H1006.41Z" fill="black"/>
<path d="M1006.7 409.2C1006.78 409.346 1006.9 409.464 1007.05 409.537C1007.2 409.609 1007.37 409.632 1007.54 409.601C1011.23 409.023 1014.99 408.968 1018.7 409.436C1018.8 409.452 1018.91 409.449 1019.01 409.426C1019.11 409.404 1019.2 409.362 1019.28 409.304C1019.37 409.246 1019.44 409.173 1019.49 409.088C1019.55 409.003 1019.58 408.909 1019.6 408.811C1019.62 408.712 1019.61 408.612 1019.59 408.514C1019.57 408.417 1019.52 408.326 1019.46 408.244C1019.4 408.163 1019.33 408.095 1019.24 408.042C1019.16 407.989 1019.06 407.954 1018.96 407.937C1015.07 407.435 1011.13 407.49 1007.26 408.103C1007.05 408.14 1006.87 408.254 1006.76 408.419C1006.64 408.585 1006.59 408.789 1006.63 408.988C1006.64 409.062 1006.66 409.135 1006.7 409.2Z" fill="#E0E0E0"/>
<path d="M1007 405.247C1007.08 405.415 1007.23 405.546 1007.41 405.614C1007.58 405.682 1007.78 405.682 1007.96 405.613C1011.68 404.392 1015.7 404.33 1019.47 405.436C1019.66 405.504 1019.88 405.494 1020.07 405.408C1020.25 405.322 1020.4 405.166 1020.47 404.976C1020.54 404.785 1020.52 404.576 1020.43 404.395C1020.34 404.214 1020.18 404.075 1019.99 404.008C1015.89 402.757 1011.49 402.819 1007.43 404.185C1007.23 404.254 1007.07 404.396 1006.98 404.58C1006.89 404.763 1006.88 404.973 1006.95 405.164C1006.97 405.194 1006.98 405.222 1007 405.247V405.247Z" fill="#E0E0E0"/>
<path d="M1006.94 401.554C1007.03 401.731 1007.19 401.866 1007.38 401.93C1007.58 401.994 1007.79 401.982 1007.97 401.896C1011.76 400.3 1015.99 400.016 1019.96 401.093C1020.16 401.153 1020.38 401.135 1020.56 401.042C1020.75 400.95 1020.89 400.79 1020.95 400.598C1021.02 400.405 1021 400.197 1020.9 400.018C1020.81 399.839 1020.64 399.704 1020.45 399.642C1016.09 398.431 1011.44 398.739 1007.29 400.515C1007.11 400.604 1006.97 400.76 1006.9 400.95C1006.83 401.14 1006.84 401.348 1006.93 401.53L1006.94 401.554Z" fill="#E0E0E0"/>
<path d="M1006.88 397.636C1006.93 397.723 1007 397.8 1007.08 397.862C1007.16 397.923 1007.25 397.969 1007.35 397.995C1007.45 398.021 1007.56 398.028 1007.66 398.015C1007.76 398.002 1007.86 397.97 1007.95 397.919C1013.39 394.851 1019.83 396.739 1019.89 396.739C1020.09 396.796 1020.3 396.775 1020.48 396.683C1020.66 396.591 1020.8 396.433 1020.87 396.244C1020.9 396.148 1020.91 396.048 1020.91 395.948C1020.9 395.848 1020.87 395.751 1020.82 395.662C1020.77 395.573 1020.71 395.494 1020.63 395.43C1020.55 395.366 1020.46 395.317 1020.36 395.288C1020.07 395.193 1013.22 393.152 1007.17 396.55C1007.08 396.599 1006.99 396.667 1006.92 396.75C1006.86 396.832 1006.81 396.928 1006.78 397.03C1006.75 397.133 1006.75 397.239 1006.76 397.344C1006.78 397.448 1006.82 397.548 1006.88 397.636Z" fill="#E0E0E0"/>
<path d="M1006.93 393.494V393.553C1007.04 393.723 1007.22 393.842 1007.42 393.886C1007.62 393.931 1007.83 393.896 1008.01 393.789C1013.2 390.58 1020.11 392.609 1020.17 392.609C1020.36 392.653 1020.57 392.624 1020.74 392.527C1020.91 392.43 1021.04 392.273 1021.1 392.087C1021.16 391.901 1021.14 391.701 1021.05 391.526C1020.97 391.351 1020.81 391.216 1020.63 391.146C1020.31 391.052 1012.97 388.916 1007.18 392.503C1007.02 392.605 1006.9 392.765 1006.86 392.949C1006.81 393.134 1006.83 393.329 1006.93 393.494V393.494Z" fill="#E0E0E0"/>
<path d="M1006.65 389.919C1006.76 390.088 1006.94 390.208 1007.14 390.252C1007.34 390.296 1007.55 390.261 1007.73 390.155C1009.55 389.197 1011.54 388.6 1013.6 388.397C1015.65 388.194 1017.73 388.391 1019.71 388.975C1019.8 389.011 1019.91 389.029 1020.01 389.027C1020.11 389.025 1020.21 389.004 1020.3 388.964C1020.4 388.924 1020.48 388.866 1020.55 388.794C1020.63 388.722 1020.68 388.637 1020.72 388.544C1020.76 388.451 1020.77 388.352 1020.77 388.252C1020.77 388.152 1020.75 388.054 1020.71 387.962C1020.67 387.871 1020.61 387.788 1020.53 387.719C1020.46 387.65 1020.37 387.595 1020.28 387.559C1018.07 386.887 1015.75 386.655 1013.46 386.876C1011.16 387.097 1008.93 387.766 1006.91 388.845C1006.81 388.896 1006.73 388.965 1006.67 389.048C1006.6 389.131 1006.56 389.226 1006.53 389.327C1006.51 389.428 1006.51 389.533 1006.53 389.635C1006.55 389.737 1006.59 389.834 1006.65 389.919V389.919Z" fill="#E0E0E0"/>
<path d="M1117.23 338.778C1119 339.497 1123.6 339.556 1126.03 337.739C1131.1 333.975 1131.66 323.579 1129.66 317.998C1127.24 311.201 1123.16 307.909 1121.6 303.838C1120.04 299.767 1120.08 293.796 1118.12 290.256C1117.33 288.9 1116.25 287.725 1114.95 286.811C1113.65 285.897 1112.17 285.265 1110.6 284.958C1109.6 284.741 1108.56 284.751 1107.56 284.986C1106.56 285.221 1105.62 285.675 1104.83 286.315L1103.29 287.495L1117.23 338.778Z" fill="#263238"/>
<path d="M1127.16 319.791C1125.41 312.169 1117.2 307.437 1116.88 299.897C1116.57 292.356 1111.49 282.716 1101.96 288.25C1099.25 289.828 1096.72 291.696 1094.43 293.82L1097.5 293.525C1098.45 293.973 1100 296.156 1100.73 298.079C1101.46 300.003 1104.49 301.23 1106.04 304.463C1106.04 304.463 1102.99 302.103 1101.44 302.422C1100.72 302.563 1101.25 304.499 1100.41 308.157C1100.07 309.474 1099.4 310.689 1098.47 311.697L1097.92 311.838H1097.77L1096.29 312.239C1097.56 312.888 1101.04 313.419 1103.28 315.048C1104.16 315.951 1104.91 316.972 1105.5 318.08C1106.39 319.906 1107.12 321.805 1107.67 323.756C1108.61 326.659 1109.56 329.562 1110.6 332.429C1111.07 333.911 1111.74 335.324 1112.6 336.63C1115.29 340.371 1120.55 340.099 1123.78 337.137C1125.39 335.75 1126.58 333.958 1127.22 331.957C1128.62 327.922 1128 323.449 1127.16 319.791Z" fill="#00BFA5"/>
<path opacity="0.4" d="M1127.16 319.791C1125.41 312.169 1117.2 307.437 1116.88 299.897C1116.57 292.356 1111.49 282.716 1101.96 288.25C1099.25 289.828 1096.72 291.696 1094.43 293.82L1097.5 293.525C1098.45 293.973 1100 296.156 1100.73 298.079C1101.46 300.003 1104.49 301.23 1106.04 304.463C1106.04 304.463 1102.99 302.103 1101.44 302.422C1100.72 302.563 1101.25 304.499 1100.41 308.157C1100.07 309.474 1099.4 310.689 1098.47 311.697L1097.92 311.838H1097.77L1096.29 312.239C1097.56 312.888 1101.04 313.419 1103.28 315.048C1104.16 315.951 1104.91 316.972 1105.5 318.08C1106.39 319.906 1107.12 321.805 1107.67 323.756C1108.61 326.659 1109.56 329.562 1110.6 332.429C1111.07 333.911 1111.74 335.324 1112.6 336.63C1115.29 340.371 1120.55 340.099 1123.78 337.137C1125.39 335.75 1126.58 333.958 1127.22 331.957C1128.62 327.922 1128 323.449 1127.16 319.791Z" fill="black"/>
<path opacity="0.15" d="M1109.49 324.83C1109.15 323.167 1108.68 321.534 1108.07 319.945C1107.46 318.349 1106.45 316.923 1105.15 315.791C1103.78 314.75 1102.19 314.027 1100.5 313.679C1101.5 314.02 1102.45 314.506 1103.31 315.119V315.119C1104.19 316.022 1104.93 317.043 1105.52 318.151C1106.42 319.977 1107.15 321.876 1107.7 323.827C1108.27 325.562 1108.84 327.296 1109.43 329.031C1109.61 328.864 1109.75 328.668 1109.86 328.453C1110.08 327.781 1110.08 327.06 1109.86 326.388L1109.49 324.83Z" fill="black"/>
<path opacity="0.15" d="M1126.96 323.19C1126.9 324.688 1126.28 326.113 1125.21 327.19C1124.5 327.685 1123.66 327.952 1122.79 327.952C1121.92 327.952 1121.07 327.685 1120.37 327.19C1119.3 326.511 1118.43 325.566 1117.86 324.452C1117.48 323.532 1117.39 322.482 1116.47 322.918C1114.09 324.07 1111.99 325.703 1110.31 327.709C1110.21 327.808 1110.14 327.929 1110.09 328.063C1110.05 328.328 1110.12 328.598 1110.28 328.818C1110.8 329.926 1110.92 331.175 1110.62 332.358V332.5C1111.08 333.981 1111.76 335.394 1112.61 336.701C1115.3 340.441 1120.56 340.17 1123.79 337.208C1125.4 335.821 1126.59 334.029 1127.23 332.028C1128.26 328.127 1128.26 324.035 1127.23 320.134C1127.19 321.172 1127.11 322.187 1126.96 323.19Z" fill="black"/>
<path opacity="0.15" d="M1115.31 307.472C1114.38 306.135 1113.24 304.942 1111.95 303.932C1111.32 303.448 1110.62 303.177 1109.99 302.752C1109.29 302.266 1108.64 301.716 1108.05 301.112C1105.63 298.752 1103.94 295.885 1101.83 293.3C1101.15 292.44 1100.3 291.725 1099.33 291.2C1098.94 291.006 1098.54 290.859 1098.12 290.763C1096.78 291.755 1095.53 292.805 1094.41 293.82L1097.49 293.525C1098.44 293.973 1099.99 296.156 1100.72 298.079C1101.44 300.003 1104.35 301.195 1105.97 304.333C1107.52 305.62 1109.18 306.788 1110.6 308.121C1111.79 309.153 1112.76 310.394 1113.47 311.779C1115.23 315.328 1116.53 319.073 1117.35 322.93C1117.44 323.683 1117.74 324.398 1118.21 324.995C1118.34 325.132 1118.5 325.242 1118.67 325.317C1118.85 325.392 1119.03 325.43 1119.22 325.43C1119.41 325.43 1119.6 325.392 1119.78 325.317C1119.95 325.242 1120.11 325.132 1120.23 324.995C1120.39 324.736 1120.47 324.444 1120.48 324.146C1120.65 320.819 1120.06 317.498 1118.75 314.422C1117.91 311.973 1116.75 309.637 1115.31 307.472V307.472Z" fill="black"/>
<path d="M1108.62 329.987C1108.79 330.067 1108.99 330.085 1109.17 330.038C1109.35 329.99 1109.51 329.88 1109.62 329.727C1111.88 326.594 1115.09 324.226 1118.79 322.954C1118.99 322.894 1119.16 322.76 1119.26 322.581C1119.35 322.402 1119.38 322.192 1119.32 321.998C1119.29 321.903 1119.24 321.814 1119.17 321.736C1119.11 321.659 1119.03 321.595 1118.94 321.548C1118.85 321.501 1118.75 321.471 1118.65 321.462C1118.55 321.452 1118.44 321.462 1118.35 321.491C1114.28 322.852 1110.77 325.439 1108.32 328.877C1108.2 329.047 1108.16 329.253 1108.2 329.451C1108.25 329.65 1108.36 329.825 1108.53 329.939L1108.62 329.987Z" fill="#E0E0E0"/>
<path d="M1107.59 325.031C1107.66 325.085 1107.74 325.129 1107.82 325.16C1108.15 325.278 1108.32 325.16 1108.49 324.865C1108.88 324.312 1109.32 323.792 1109.8 323.308C1110.69 322.421 1111.66 321.629 1112.72 320.948C1114.15 320.018 1115.69 319.28 1117.32 318.753L1117.83 318.6C1118.03 318.549 1118.2 318.425 1118.3 318.253C1118.41 318.081 1118.44 317.875 1118.4 317.679C1118.37 317.582 1118.33 317.49 1118.26 317.409C1118.2 317.328 1118.12 317.26 1118.04 317.209C1117.95 317.157 1117.85 317.123 1117.75 317.109C1117.64 317.094 1117.54 317.1 1117.44 317.125C1116.32 317.406 1115.24 317.802 1114.21 318.305C1111.96 319.357 1109.95 320.828 1108.28 322.635C1107.83 323.119 1107.19 323.733 1107.3 324.441C1107.32 324.666 1107.42 324.876 1107.59 325.031V325.031Z" fill="#E0E0E0"/>
<path d="M1106.15 321.066C1106.65 321.443 1107.06 320.665 1107.36 320.322C1107.75 319.799 1108.18 319.305 1108.65 318.847C1109.52 318.02 1110.47 317.284 1111.5 316.653C1112.78 315.858 1114.16 315.224 1115.6 314.765H1115.78C1115.96 314.697 1116.11 314.567 1116.2 314.398C1116.29 314.23 1116.31 314.035 1116.26 313.852C1116.21 313.669 1116.1 313.51 1115.93 313.406C1115.77 313.302 1115.57 313.261 1115.38 313.29C1114.27 313.6 1113.19 314.028 1112.16 314.564C1109.98 315.631 1108.05 317.13 1106.49 318.965C1106.29 319.146 1106.13 319.365 1106.01 319.608C1105.9 319.852 1105.84 320.115 1105.84 320.381C1105.85 320.612 1105.93 320.833 1106.09 321.007C1106.11 321.028 1106.13 321.048 1106.15 321.066V321.066Z" fill="#E0E0E0"/>
<path d="M1104.42 317.337C1104.52 317.4 1104.63 317.441 1104.75 317.455C1105.09 317.455 1105.19 317.113 1105.35 316.877C1105.52 316.608 1105.7 316.348 1105.9 316.098C1106.26 315.605 1106.67 315.14 1107.11 314.706C1107.93 313.915 1108.82 313.204 1109.78 312.582C1110.92 311.835 1112.13 311.214 1113.41 310.729H1113.47C1113.57 310.697 1113.66 310.647 1113.74 310.581C1113.81 310.515 1113.88 310.434 1113.92 310.344C1113.97 310.254 1113.99 310.156 1114 310.056C1114 309.956 1113.99 309.856 1113.95 309.761C1113.89 309.571 1113.74 309.415 1113.56 309.327C1113.37 309.239 1113.16 309.225 1112.96 309.289C1111.84 309.694 1110.76 310.203 1109.74 310.812C1107.63 311.999 1105.8 313.608 1104.37 315.532C1104.13 315.808 1103.95 316.135 1103.86 316.487C1103.83 316.648 1103.86 316.815 1103.94 316.959C1104.01 317.063 1104.1 317.155 1104.2 317.231L1104.42 317.337Z" fill="#E0E0E0"/>
<path d="M1107.97 304.522C1107.85 304.499 1107.74 304.499 1107.63 304.522C1107.29 304.581 1107.28 304.971 1107.19 305.23C1107.11 305.49 1106.97 305.82 1106.85 306.115C1106.61 306.679 1106.32 307.227 1106.01 307.755C1105.42 308.724 1104.73 309.63 1103.95 310.458C1103.04 311.458 1102.02 312.353 1100.9 313.124V313.124C1100.81 313.179 1100.74 313.25 1100.68 313.333C1100.63 313.415 1100.59 313.508 1100.57 313.606C1100.55 313.703 1100.55 313.803 1100.57 313.901C1100.59 313.999 1100.62 314.092 1100.68 314.175C1100.74 314.258 1100.81 314.329 1100.89 314.384C1100.98 314.44 1101.07 314.479 1101.17 314.498C1101.27 314.518 1101.38 314.518 1101.48 314.499C1101.58 314.48 1101.67 314.442 1101.76 314.387C1102.74 313.731 1103.65 312.98 1104.48 312.145C1106.23 310.478 1107.6 308.467 1108.5 306.245C1108.66 305.919 1108.75 305.559 1108.75 305.195C1108.74 305.032 1108.67 304.879 1108.56 304.758C1108.47 304.667 1108.35 304.599 1108.23 304.558L1107.97 304.522Z" fill="#E0E0E0"/>
<path d="M1048.15 200.257C1050.99 210.11 1053.31 221.745 1052.86 240.92C1052.41 260.095 1052.92 277.3 1052.92 277.3C1052.92 277.3 1050.36 285.158 1033.97 287.105C1017.59 289.052 1011.15 283.884 1011.15 283.884L1008.65 260.52L1001.78 278.22C1001.78 278.22 994.141 280.084 981.085 275.86C968.029 271.636 962.935 262.243 962.935 262.243C962.935 262.243 974.526 215.043 979.56 204.104L1048.15 200.257Z" fill="#455A64"/>
<path d="M1008.65 260.52L1007.14 245.499C1007.14 245.499 992.616 246.089 986.469 233.215C986.469 233.215 987.752 245.015 1004.26 249.735L1006.24 260.213L1001.78 278.22L1008.65 260.52Z" fill="#37474F"/>
<path d="M1042.77 285.158C1044.14 258.88 1041.66 219.432 1037.29 206.594L1034.13 209.78C1039.08 228.389 1040.18 268.084 1039.31 286.173C1040.48 285.895 1041.64 285.556 1042.77 285.158V285.158Z" fill="#00BFA5"/>
<path d="M1041.08 209.013C1046 227.48 1046.22 265.877 1045.24 284.144C1046.48 283.578 1047.66 282.898 1048.76 282.114C1050.09 255.883 1048.53 218.394 1044.25 205.839L1041.08 209.013Z" fill="#00BFA5"/>
<path d="M936.787 78.0448C938.595 83.3246 941.321 88.2621 944.845 92.6414C960.841 111.309 977.043 121.127 985.295 137.717C994.77 136.537 1007.08 120.537 999.465 111.368C991.176 108.489 960.285 76.5462 957.417 71.897C954.803 67.0472 946.031 44.757 943.974 36.3318C943.664 34.9185 943.888 33.4438 944.603 32.1782C946.612 28.473 946.358 24.5082 947.265 20.7676C947.979 17.8412 949.262 16.4842 948.669 16.0476C947.919 15.5913 947.02 15.4277 946.152 15.5896C945.284 15.7515 944.51 16.2269 943.986 16.9208C942.639 18.7775 941.472 20.7527 940.501 22.8208C940.222 19.4405 940.198 16.0448 940.429 12.661C940.937 4.86119 939.098 -0.932607 930.24 4.02339C924.687 7.12679 921.577 15.1036 924.541 29.358C925.4 33.4526 926.961 43.0224 928.462 48.9106C931.257 59.7902 932.89 68.18 936.787 78.0448Z" fill="#B16668"/>
<path d="M1004.44 111.392C1000.69 109.657 996.185 108.253 991.237 104.312C986.07 100.205 979.657 95.556 979.657 95.556C979.657 95.556 968.392 104.489 968.658 117.681C972.809 121.75 976.412 126.318 979.379 131.275C981.616 135.106 983.371 139.187 984.606 143.429C984.606 143.429 997.057 145.789 999.332 132.714C1000.53 125.501 1002.24 118.376 1004.44 111.392V111.392Z" fill="#00BFA5"/>
<path d="M984.63 173.483C984.17 169.625 984.291 162.462 984.206 160.503C973.764 151.807 977.721 142.485 981.024 134.968C987.643 119.958 994.334 111.297 1000.92 111.25L1019.07 111.769C1028.44 111.934 1039.27 112.442 1041.68 112.843C1047.82 113.87 1050.67 119.923 1051.36 126.212C1052.08 133.08 1053.72 133.611 1052.57 145.092C1052.57 145.092 1048.35 156.892 1044.57 167.347C1044.57 167.347 1043.21 175.053 1044.57 178.64C1047.09 185.283 1050.71 200.694 1051.97 211.892C1051.97 211.892 1045.3 221.108 1015.13 221.096C993.197 221.096 976.414 209.898 976.414 209.898L984.63 173.483Z" fill="#00BFA5"/>
<path d="M1048.42 134.555C1048.42 135.558 1048.34 136.632 1048.25 137.871L981.351 134.331C981.859 133.151 982.355 132.124 982.863 131.086L1048.42 134.555Z" fill="#455A64"/>
<path d="M1000.95 111.285L1019.1 111.805C1028.48 111.97 1039.31 112.477 1041.72 112.878C1047.85 113.905 1047.37 119.333 1048.01 125.599C1048.33 127.38 1048.49 129.184 1048.51 130.991L984.509 127.9C989.954 117.303 995.52 111.333 1000.95 111.285Z" fill="#455A64"/>
<path opacity="0.1" d="M1038.34 178.321C1038.25 177.224 1038.18 176.115 1038.18 175.017C1038.24 171.346 1038.74 167.694 1039.67 164.138C1041.39 157.4 1045.03 149.978 1043.57 146.225C1042.1 142.473 1038.48 136.124 1040.16 123.876L1050.03 120.607C1050.7 122.428 1051.12 124.323 1051.3 126.248C1052.01 133.115 1053.66 133.646 1052.51 145.128C1052.51 145.128 1048.29 156.928 1044.51 167.383C1044.51 167.383 1043.15 175.088 1044.51 178.675C1047.03 185.319 1050.65 200.729 1051.91 211.928C1051.91 211.928 1045.24 221.143 1015.07 221.132H1014.18C1026.28 218.512 1038.04 210.512 1039.82 197.72C1040.76 191.278 1038.9 184.811 1038.34 178.321Z" fill="black"/>
<path opacity="0.1" d="M1032.17 154.143C1030.86 156.892 1028.77 159.215 1026.14 160.833C1023.52 162.451 1020.47 163.295 1017.36 163.264C1014.37 163.329 1011.41 162.623 1008.78 161.216C1006.16 159.809 1003.96 157.752 1002.42 155.252C1002.42 155.252 1003.53 166.781 1017.53 166.037C1031.53 165.294 1032.17 154.143 1032.17 154.143Z" fill="black"/>
<path d="M984.727 63.8966C984.434 61.8862 984.414 59.847 984.666 57.8314C985.221 53.2186 987.5 48.967 991.067 45.8898C997.504 40.5916 1005.66 42.3498 1013.33 42.7038C1027.22 43.3174 1041.08 48.6038 1044.97 60.6162C1047.39 68.1328 1046.39 77.1362 1043.01 87.5792C1040.1 96.677 1036.37 102.07 1028.66 103.214L1014.43 100.854C1008.06 101.975 1001.92 99.509 997.214 95.379C995.949 94.2635 994.772 93.0565 993.693 91.7682C992.679 90.4851 991.961 89.004 991.588 87.4258C990.432 83.801 989.534 80.1028 988.901 76.3574C988.461 74.5804 987.786 72.8668 986.893 71.2598C985.826 68.9144 985.098 66.4366 984.727 63.8966V63.8966Z" fill="#263238"/>
<path d="M995.617 54.7752C992.059 56.6632 987.449 65.0412 987.207 82.9536C987.014 98.1402 991.914 102.058 994.407 103.226C996.899 104.394 1001.8 103.91 1006.58 103.309L1006.24 112.406C1006.24 112.406 1005.61 122.13 1009.43 122.767C1019.85 122.13 1028.64 112.867 1028.64 112.867V93.491C1029.89 93.9144 1031.24 93.9748 1032.53 93.6649C1033.82 93.355 1034.99 92.6881 1035.9 91.7446C1039.53 88.063 1040.74 82.9654 1037.86 79.8384C1037.09 79.098 1036.16 78.5444 1035.14 78.2231C1034.11 77.9019 1033.02 77.822 1031.96 77.9901C1030.9 78.1582 1029.89 78.5695 1029.02 79.1902C1028.16 79.811 1027.45 80.6235 1026.97 81.5612C1026.97 81.5612 1024.17 81.691 1021.57 76.5462C1016.89 76.8852 1012.23 75.6981 1008.32 73.1714C998.557 67.1888 996.367 57.8432 995.617 54.7752Z" fill="#B16668"/>
<path d="M1007.47 78.8944C1007.46 79.2687 1007.55 79.6397 1007.75 79.9614C1007.95 80.2831 1008.24 80.5413 1008.58 80.7038C1008.93 80.8663 1009.32 80.9261 1009.7 80.8757C1010.08 80.8252 1010.43 80.6668 1010.72 80.4201C1011.01 80.1734 1011.22 79.8493 1011.32 79.488C1011.42 79.1267 1011.42 78.7442 1011.3 78.3881C1011.18 78.0319 1010.95 77.7178 1010.65 77.4848C1010.35 77.2517 1009.99 77.11 1009.6 77.0772C1009.34 77.058 1009.08 77.0899 1008.83 77.1712C1008.58 77.2525 1008.35 77.3814 1008.15 77.5506C1007.95 77.7197 1007.79 77.9257 1007.67 78.1564C1007.56 78.3871 1007.49 78.638 1007.47 78.8944V78.8944Z" fill="#263238"/>
<g style="mix-blend-mode:multiply" opacity="0.5">
<g style="mix-blend-mode:multiply" opacity="0.5">
<path d="M1004.58 91.4968L998.412 93.1842C998.508 93.5868 998.686 93.9665 998.935 94.3007C999.185 94.6348 999.501 94.9165 999.864 95.129C1000.23 95.3416 1000.63 95.4805 1001.05 95.5377C1001.47 95.5948 1001.9 95.5689 1002.31 95.4616C1003.14 95.2148 1003.84 94.6643 1004.26 93.9254C1004.69 93.1864 1004.8 92.3162 1004.58 91.4968Z" fill="#9A4A4D"/>
</g>
</g>
<path d="M990.014 72.3336L994.068 69.7966C993.911 69.5321 993.701 69.3014 993.451 69.1184C993.2 68.9355 992.914 68.8042 992.609 68.7325C992.305 68.6607 991.989 68.6501 991.68 68.7012C991.371 68.7522 991.076 68.864 990.813 69.0296C990.271 69.3759 989.887 69.9116 989.738 70.5263C989.59 71.141 989.688 71.7879 990.014 72.3336Z" fill="#263238"/>
<path d="M1010.45 72.2864L1014.88 74.08C1015.02 73.8023 1015.09 73.5007 1015.1 73.1933C1015.12 72.886 1015.06 72.5795 1014.95 72.2925C1014.84 72.0054 1014.67 71.7439 1014.45 71.5237C1014.23 71.3036 1013.96 71.1295 1013.67 71.012C1013.07 70.7863 1012.4 70.7924 1011.8 71.0291C1011.2 71.2657 1010.72 71.7152 1010.45 72.2864V72.2864Z" fill="#263238"/>
<path d="M990.898 77.8914C990.844 78.4027 990.999 78.9143 991.33 79.3144C991.661 79.7145 992.141 79.9707 992.664 80.0272C993.193 80.0565 993.712 79.8826 994.11 79.5428C994.508 79.203 994.754 78.7245 994.794 78.21C994.836 77.9504 994.823 77.6851 994.755 77.4307C994.687 77.1763 994.567 76.9383 994.4 76.7315C994.234 76.5247 994.026 76.3535 993.789 76.2288C993.551 76.104 993.29 76.0282 993.022 76.0063C992.753 75.9843 992.483 76.0166 992.228 76.1011C991.972 76.1856 991.738 76.3206 991.539 76.4975C991.339 76.6744 991.179 76.8895 991.069 77.1293C990.959 77.3692 990.901 77.6286 990.898 77.8914V77.8914Z" fill="#263238"/>
<g style="mix-blend-mode:multiply" opacity="0.5">
<g style="mix-blend-mode:multiply" opacity="0.5">
<path d="M1000.32 77.1244L999.586 88.594L993.463 86.5054L1000.32 77.1244Z" fill="#9A4A4D"/>
</g>
</g>
<g style="mix-blend-mode:multiply" opacity="0.5">
<g style="mix-blend-mode:multiply" opacity="0.5">
<path d="M1006.58 103.309C1011.6 102.837 1021.99 100.323 1023.75 96.4056C1023.03 98.3936 1021.7 100.119 1019.95 101.35C1016.78 103.804 1006.47 106.341 1006.47 106.341L1006.58 103.309Z" fill="#9A4A4D"/>
</g>
</g>
<path d="M1026.98 81.5612L1026.68 89.5498C1025.2 89.4945 1023.81 88.8709 1022.8 87.8159C1021.8 86.7608 1021.26 85.3602 1021.32 83.9212L1021.58 76.5462L1026.98 81.5612Z" fill="#263238"/>
<path d="M1043.61 222.654C1041.97 223.02 1038.69 223.35 1038.21 221.379C1037.72 219.409 1040.45 219.279 1042.47 217.603C1044.64 215.702 1046.94 213.929 1049.33 212.293C1052.38 210.346 1056.14 210.335 1057.67 208.01C1059.24 206.122 1068.37 180.528 1070.78 172.87C1062.76 161.99 1054.7 151.205 1048.75 142.933C1048.75 142.933 1040.71 125.634 1042.06 114.07C1047.47 112.89 1055.94 114.401 1064.82 125.304C1072.72 134.773 1079.99 144.725 1086.6 155.099C1094.11 167.135 1094.8 166.899 1090.72 178.05C1086.81 188.752 1077.67 208.116 1072.57 216.518C1068.27 223.669 1066.9 226.135 1063.15 231.067C1059.75 235.539 1052.8 240.189 1049.16 241.003C1043.75 242.183 1036.47 240.731 1036.47 235.504C1036.47 230.277 1046.7 225.899 1048.69 220.766C1047.06 221.553 1045.36 222.185 1043.61 222.654Z" fill="#B16668"/>
<path d="M1041.67 112.878C1041.67 112.878 1053.26 112.737 1056.6 115.238C1061.1 118.542 1066.7 125.953 1069.91 130.036C1073.12 134.118 1078.38 140.349 1078.38 140.349C1078.38 140.349 1072.5 155.181 1058.2 157.482L1044.59 140.738C1041.22 137.245 1038.25 126.094 1041.67 112.878Z" fill="#00BFA5"/>
<path d="M1054.68 59.2946C1054.28 58.917 1053.87 58.563 1053.47 58.209C1051.25 56.1836 1048.35 55.0315 1045.31 54.9758C1042.89 55.082 1037.98 57.796 1036.68 54.3622C1036.44 53.5531 1036.44 52.6933 1036.68 51.8842C1038.1 46.1612 1043.94 44.1434 1049.41 44.344C1059.61 44.7098 1066.14 53.5716 1074.16 58.4096C1077.09 60.0051 1080.38 60.8534 1083.74 60.8758C1087.17 61.0303 1090.6 60.7447 1093.95 60.0262C1097.49 59.2592 1100.92 58.0084 1104.52 57.5836C1108.11 57.1588 1112.06 57.6662 1114.75 60.0262C1116.2 61.4137 1117.21 63.1659 1117.69 65.0857C1118.16 67.0056 1118.08 69.017 1117.45 70.894C1116.13 74.6569 1113.58 77.8937 1110.19 80.1098C1106.79 82.4593 1102.95 84.1253 1098.88 85.0106C1094.82 85.896 1090.61 85.9829 1086.51 85.2664C1078.26 83.7599 1070.82 79.4696 1065.49 73.1478C1061.68 68.6756 1058.92 63.3066 1054.68 59.2946Z" fill="#263238"/>
<path d="M1037.98 51.1408C1037.42 50.9858 1036.9 50.7255 1036.45 50.3748C1036 50.0241 1035.62 49.5898 1035.34 49.0967C1035.06 48.6037 1034.88 48.0615 1034.81 47.5011C1034.75 46.9407 1034.8 46.3731 1034.95 45.8308C1035.11 45.2884 1035.38 44.7819 1035.74 44.3401C1036.1 43.8983 1036.54 43.53 1037.05 43.256C1037.56 42.9821 1038.11 42.808 1038.69 42.7436C1039.26 42.6792 1039.84 42.7258 1040.4 42.8808L1037.98 51.1408Z" fill="#263238"/>
<path d="M1016.09 272.934C1016.05 272.883 1016.03 272.825 1016.02 272.763C1016.01 272.702 1016.01 272.639 1016.03 272.58C1016.06 272.459 1016.14 272.355 1016.25 272.285L1020.4 269.748L1020.71 269.571C1020.82 269.522 1020.93 269.501 1021.05 269.512L1022.42 269.653C1022.55 269.668 1022.66 269.73 1022.74 269.827C1022.82 269.924 1022.86 270.048 1022.85 270.172L1021.64 281.288C1021.63 281.41 1021.56 281.521 1021.46 281.598C1021.36 281.674 1021.24 281.711 1021.11 281.701L1019.68 281.559C1019.56 281.544 1019.44 281.481 1019.36 281.382C1019.32 281.335 1019.29 281.28 1019.27 281.221C1019.26 281.162 1019.25 281.101 1019.26 281.04L1020.18 272.544L1017.47 274.196C1017.36 274.256 1017.24 274.276 1017.12 274.255C1016.99 274.218 1016.88 274.139 1016.8 274.031L1016.09 272.934Z" fill="#00BFA5"/>
<path d="M1034.12 275.412C1034.12 275.624 1034.12 275.872 1034.12 276.131L1034.02 276.946L1033.94 277.748C1033.94 278.019 1033.88 278.255 1033.84 278.468C1033.74 279.094 1033.57 279.708 1033.33 280.297C1033.11 280.823 1032.78 281.297 1032.36 281.689C1031.92 282.078 1031.38 282.361 1030.8 282.515C1030.08 282.701 1029.33 282.745 1028.59 282.645C1027.84 282.584 1027.11 282.388 1026.44 282.067C1025.9 281.784 1025.44 281.379 1025.1 280.887C1024.77 280.419 1024.55 279.888 1024.45 279.329C1024.34 278.706 1024.3 278.072 1024.34 277.441C1024.34 277.005 1024.41 276.509 1024.48 275.954C1024.54 275.4 1024.6 274.904 1024.67 274.468C1024.77 273.836 1024.94 273.218 1025.19 272.627C1025.41 272.094 1025.74 271.611 1026.16 271.211C1026.6 270.811 1027.13 270.516 1027.71 270.349C1028.43 270.153 1029.19 270.105 1029.93 270.208C1030.68 270.27 1031.4 270.466 1032.07 270.786C1032.61 271.065 1033.08 271.471 1033.42 271.966C1033.75 272.433 1033.97 272.965 1034.07 273.524C1034.16 274.149 1034.18 274.783 1034.12 275.412ZM1026.68 277.654C1026.62 278.338 1026.76 279.023 1027.08 279.636C1027.27 279.898 1027.52 280.113 1027.81 280.262C1028.1 280.412 1028.43 280.492 1028.76 280.497C1029.08 280.563 1029.42 280.552 1029.73 280.466C1030.05 280.38 1030.34 280.22 1030.59 280.002C1031.04 279.472 1031.33 278.824 1031.41 278.137C1031.48 277.701 1031.54 277.229 1031.6 276.698C1031.66 276.167 1031.7 275.683 1031.72 275.246C1031.78 274.562 1031.65 273.875 1031.32 273.264C1031.13 273.002 1030.88 272.787 1030.59 272.638C1030.3 272.488 1029.97 272.408 1029.64 272.403C1029.32 272.337 1028.98 272.348 1028.66 272.437C1028.35 272.525 1028.05 272.688 1027.81 272.91C1027.36 273.437 1027.08 274.08 1026.99 274.763C1026.92 275.187 1026.86 275.671 1026.8 276.202C1026.74 276.733 1026.7 277.217 1026.68 277.654Z" fill="#00BFA5"/>
<path d="M878.271 312.015C882.397 303.909 884.188 296.935 883.752 292.085C881.683 269.476 878.912 239.964 876.565 223.031C875.004 211.81 871.931 199.431 867.139 178.191C867.139 173.908 866.473 167.005 866.473 167.005L816.936 168.397C807.178 187.543 801.369 208.37 799.839 229.698C798.302 248.307 794.793 267.458 794.176 277.559C782.282 282.444 776.026 289.218 770.46 294.162C760.611 302.941 735.951 328.818 730.808 330.836L730.494 331.131C728.231 333.491 725.085 344.029 722.701 350.389C721.104 354.66 720.027 361.481 722.81 366.909C725.46 372.089 728.667 373.505 730.227 367.983C730.506 366 730.748 364.041 731.014 362.212C731.861 356.56 738.189 344.89 749.563 337.621C755.178 334.081 786.275 314.918 813.04 301.643C820.784 297.796 824.644 292.451 828.274 284.757C833.005 274.715 841.1 254.372 841.1 254.372L850.03 298.28C844.572 306.729 841.245 313.986 837.554 330.718C834.137 345.502 829.69 360.042 824.244 374.237C823.918 375.181 823.603 376.125 823.276 377.069C822.871 378.568 822.382 380.045 821.812 381.494C820.872 383.208 820.28 385.083 820.07 387.016C819.94 388.928 820.297 390.841 821.111 392.586C821.582 393.577 822.2 394.509 822.635 395.524C823.507 397.88 823.753 400.413 823.349 402.887C823.083 405.377 822.563 407.843 822.55 410.333C822.504 413.998 823.723 417.572 826.011 420.481C827.162 421.915 828.604 423.102 830.247 423.969C831.889 424.836 833.697 425.364 835.558 425.519C836.967 425.677 838.39 425.383 839.611 424.682C840.476 424.012 841.143 423.13 841.543 422.127C841.943 421.123 842.061 420.034 841.886 418.97C841.519 416.855 840.889 414.79 840.011 412.823C839.187 410.552 838.572 408.214 838.172 405.837C837.452 401.231 837.185 396.569 837.373 391.913C837.47 387.559 837.204 382.78 839.515 378.933C839.539 378.85 866.449 335.297 878.271 312.015Z" fill="#FFA8A7"/>
<path d="M839.515 378.886C839.515 378.886 862.045 342.424 874.931 318.399C867.429 319.839 850.538 313.962 844.996 307.154C842.213 312.959 839.962 319.839 837.555 330.754C834.137 345.538 829.69 360.078 824.245 374.272C823.918 375.216 823.603 376.16 823.277 377.104C822.871 378.604 822.382 380.081 821.812 381.529C820.876 383.232 820.285 385.095 820.07 387.016C819.94 388.928 820.297 390.841 821.111 392.586C821.583 393.577 822.2 394.509 822.635 395.524C823.507 397.88 823.753 400.413 823.349 402.887C823.083 405.377 822.563 407.843 822.551 410.333C822.504 413.998 823.723 417.572 826.011 420.481C827.162 421.915 828.604 423.102 830.247 423.969C831.889 424.836 833.697 425.364 835.558 425.519C836.967 425.677 838.39 425.383 839.612 424.682C840.476 424.012 841.143 423.13 841.543 422.127C841.943 421.123 842.061 420.034 841.886 418.97C841.519 416.855 840.889 414.79 840.011 412.823C839.187 410.552 838.572 408.214 838.172 405.837C837.452 401.231 837.185 396.569 837.373 391.913C837.47 387.559 837.204 382.78 839.515 378.886Z" fill="#37474F"/>
<path d="M844.996 307.154C844.004 309.23 843.072 311.461 842.177 313.939C846.012 317.619 850.578 320.495 855.595 322.39C860.612 324.286 865.973 325.16 871.35 324.96C872.56 322.706 873.77 320.499 874.98 318.399C867.429 319.839 850.538 313.962 844.996 307.154Z" fill="#00BFA5"/>
<path d="M817.251 383.936C816.476 384.88 815.085 386.839 815.242 387.925C815.399 389.01 817.42 394.58 817.662 400.338C817.88 405.436 815.593 415.124 820.627 422.027C825.055 428.092 829.097 429.508 832.727 430.18C834.146 430.525 835.629 430.534 837.052 430.205C838.475 429.877 839.796 429.221 840.906 428.292C840.906 428.292 844.125 425.484 842.697 423.313C841.269 421.142 817.251 383.936 817.251 383.936Z" fill="#37474F"/>
<path d="M816.924 384.42C817.104 383.004 817.749 381.684 818.763 380.656C820.264 379.063 821.897 377.706 822.49 375.546C822.696 374.768 822.877 373.328 823.845 373.068H824.801L824.063 375.204C824.474 376.089 825.273 378.142 825.648 379.051C826.531 381.411 825.43 383.877 827.173 385.942C827.294 383.323 827.403 380.302 829.181 380.325C830.391 380.325 832.521 381.93 834.941 382.272C837.361 382.615 839.273 382.131 840.217 382.473C841.16 382.815 840.628 383.995 840.023 386.697C839.243 389.758 838.801 392.891 838.704 396.043C838.898 398.545 839.176 401.129 839.551 403.607C840.991 413.106 844.524 418.003 843.726 423.112C842.891 428.422 834.312 430.287 828.141 425.685C817.65 417.861 819.816 409.991 819.997 404.161C820.216 400.406 819.861 396.64 818.945 392.987C818.025 389.482 817.009 387.712 816.924 384.42Z" fill="#00BFA5"/>
<path opacity="0.4" d="M816.924 384.42C817.104 383.004 817.749 381.684 818.763 380.656C820.264 379.063 821.897 377.706 822.49 375.546C822.696 374.768 822.877 373.328 823.845 373.068H824.801L824.063 375.204C824.474 376.089 825.273 378.142 825.648 379.051C826.531 381.411 825.43 383.877 827.173 385.942C827.294 383.323 827.403 380.302 829.181 380.325C830.391 380.325 832.521 381.93 834.941 382.272C837.361 382.615 839.273 382.131 840.217 382.473C841.16 382.815 840.628 383.995 840.023 386.697C839.243 389.758 838.801 392.891 838.704 396.043C838.898 398.545 839.176 401.129 839.551 403.607C840.991 413.106 844.524 418.003 843.726 423.112C842.891 428.422 834.312 430.287 828.141 425.685C817.65 417.861 819.816 409.991 819.997 404.161C820.216 400.406 819.861 396.64 818.945 392.987C818.025 389.482 817.009 387.712 816.924 384.42Z" fill="black"/>
<path opacity="0.15" d="M822.49 375.511C822.49 375.511 822.49 375.511 822.49 375.582C822.495 375.621 822.495 375.661 822.49 375.7C822.705 377.015 823.004 378.315 823.385 379.594C823.724 381.128 823.942 382.685 824.172 384.231C824.329 385.317 824.402 386.402 824.462 387.5C824.523 388.597 824.559 389.482 824.547 390.485C824.474 395.205 823.76 398.969 824.97 405.011C826.18 411.053 827.923 411.643 829.169 410.911C830.415 410.179 829.266 408.551 828.08 403.276C826.87 397.707 827.862 391.618 827.245 385.895C826.815 385.417 826.515 384.841 826.374 384.219V384.219C825.951 382.556 826.374 380.738 825.721 379.039C825.382 378.131 824.511 376.077 824.136 375.192L824.874 373.057H823.918C823.313 373.222 823.022 373.847 822.829 374.473C822.647 374.838 822.563 375.216 822.49 375.511Z" fill="black"/>
<path opacity="0.15" d="M825.926 416.209C829.157 418.038 831.105 417.613 831.033 414.498C830.863 412.297 830.203 410.158 829.097 408.232L837.567 408.586C837.567 408.586 837.022 414.25 838.777 415.666C839.817 416.504 841.281 415.194 842.128 413.519C843.338 417.248 844.294 420.127 843.834 423.077C843 428.387 834.421 430.251 828.25 425.649C819.465 419.1 819.562 412.516 819.925 407.123C819.695 410.38 822.696 414.38 825.926 416.209Z" fill="black"/>
<path opacity="0.15" d="M839.95 386.91C839.252 389.882 838.846 392.913 838.74 395.96C838.934 398.462 839.212 401.046 839.587 403.524C839.829 405.141 840.144 406.628 840.483 408.008C840.419 408.774 840.152 409.51 839.708 410.144C838.631 411.076 838.16 410.97 837.555 408.586C836.889 405.896 836.865 391.111 839.975 386.91H839.95Z" fill="black"/>
<path d="M839.672 409.259C839.593 409.403 839.47 409.518 839.321 409.59C839.171 409.662 839.002 409.687 838.837 409.66C835.142 409.082 831.38 409.027 827.669 409.495C827.47 409.514 827.272 409.458 827.114 409.339C826.956 409.221 826.85 409.048 826.817 408.856C826.785 408.664 826.829 408.467 826.94 408.305C827.051 408.143 827.22 408.029 827.415 407.985C831.303 407.483 835.245 407.543 839.115 408.162C839.318 408.199 839.498 408.313 839.616 408.478C839.734 408.644 839.78 408.848 839.745 409.047C839.731 409.121 839.707 409.192 839.672 409.259V409.259Z" fill="#E0E0E0"/>
<path d="M839.43 405.353C839.344 405.518 839.199 405.645 839.023 405.713C838.847 405.78 838.652 405.782 838.474 405.719C834.751 404.491 830.728 404.429 826.967 405.542C826.868 405.587 826.759 405.612 826.65 405.614C826.54 405.617 826.431 405.596 826.329 405.555C826.228 405.514 826.137 405.452 826.061 405.374C825.986 405.296 825.928 405.204 825.891 405.103C825.855 405.001 825.84 404.894 825.849 404.787C825.858 404.68 825.889 404.577 825.942 404.482C825.994 404.388 826.066 404.306 826.153 404.24C826.24 404.175 826.34 404.128 826.447 404.102C830.547 402.865 834.944 402.927 839.006 404.279C839.2 404.351 839.357 404.493 839.445 404.676C839.533 404.859 839.545 405.068 839.478 405.259L839.43 405.353Z" fill="#E0E0E0"/>
<path d="M839.43 401.648C839.339 401.825 839.18 401.961 838.988 402.025C838.795 402.089 838.585 402.076 838.401 401.99C834.61 400.4 830.377 400.117 826.398 401.188C826.297 401.233 826.187 401.257 826.076 401.257C825.964 401.258 825.854 401.235 825.752 401.191C825.651 401.147 825.559 401.083 825.485 401.002C825.411 400.921 825.355 400.826 825.321 400.722C825.288 400.619 825.277 400.509 825.29 400.401C825.303 400.294 825.339 400.19 825.396 400.096C825.453 400.003 825.53 399.923 825.622 399.861C825.713 399.799 825.817 399.756 825.926 399.736C830.278 398.532 834.923 398.841 839.067 400.61C839.161 400.653 839.245 400.713 839.315 400.788C839.385 400.863 839.439 400.951 839.474 401.047C839.509 401.142 839.524 401.243 839.519 401.345C839.513 401.446 839.487 401.545 839.442 401.636L839.43 401.648Z" fill="#E0E0E0"/>
<path d="M839.491 397.742C839.382 397.915 839.21 398.04 839.008 398.091C838.807 398.141 838.594 398.114 838.414 398.014C832.981 394.957 826.544 396.834 826.483 396.834C826.382 396.879 826.272 396.902 826.16 396.903C826.049 396.904 825.939 396.881 825.837 396.837C825.735 396.793 825.644 396.729 825.57 396.648C825.496 396.567 825.44 396.471 825.406 396.368C825.373 396.264 825.362 396.155 825.375 396.047C825.388 395.939 825.424 395.835 825.481 395.742C825.538 395.649 825.615 395.569 825.706 395.507C825.798 395.445 825.902 395.402 826.011 395.382C826.302 395.3 833.15 393.246 839.2 396.645C839.297 396.695 839.382 396.764 839.449 396.847C839.517 396.931 839.566 397.028 839.594 397.131C839.621 397.234 839.626 397.342 839.608 397.447C839.59 397.552 839.55 397.653 839.491 397.742V397.742Z" fill="#E0E0E0"/>
<path d="M839.43 393.589V393.648C839.318 393.817 839.143 393.937 838.941 393.981C838.74 394.025 838.528 393.99 838.353 393.884C833.174 390.686 826.253 392.704 826.253 392.704C826.054 392.763 825.839 392.742 825.656 392.647C825.472 392.552 825.334 392.39 825.273 392.196C825.243 392.101 825.233 392.001 825.243 391.902C825.253 391.803 825.283 391.706 825.332 391.619C825.38 391.531 825.446 391.453 825.525 391.39C825.604 391.328 825.695 391.281 825.793 391.252C826.108 391.158 833.441 389.022 839.236 392.597C839.388 392.71 839.492 392.874 839.528 393.057C839.564 393.24 839.529 393.429 839.43 393.589V393.589Z" fill="#E0E0E0"/>
<path d="M839.72 390.025C839.611 390.196 839.436 390.318 839.234 390.365C839.033 390.411 838.82 390.378 838.644 390.273C836.824 389.319 834.83 388.723 832.774 388.521C830.719 388.318 828.643 388.513 826.665 389.093C826.472 389.166 826.257 389.162 826.068 389.082C825.878 389.001 825.73 388.85 825.654 388.662C825.579 388.474 825.583 388.265 825.666 388.08C825.749 387.895 825.903 387.75 826.096 387.677C828.29 387.016 830.598 386.789 832.884 387.01C835.17 387.231 837.387 387.895 839.406 388.963C839.499 389.011 839.582 389.077 839.649 389.157C839.716 389.237 839.765 389.33 839.795 389.429C839.824 389.528 839.833 389.632 839.82 389.734C839.807 389.837 839.773 389.936 839.72 390.025V390.025Z" fill="#E0E0E0"/>
<path d="M803.59 306.54C798.075 304.921 793.329 301.446 790.195 296.734C786.021 290.834 786.88 281.253 786.88 281.194C779.474 285.489 774.78 290.398 770.46 294.174C760.611 302.953 735.951 328.83 730.808 330.848L730.494 331.143C728.231 333.503 725.085 344.04 722.701 350.401C721.104 354.672 720.027 361.493 722.81 366.921C725.46 372.101 728.667 373.517 730.227 367.994C730.506 366.012 730.748 364.053 731.014 362.224C731.861 356.572 738.189 344.902 749.563 337.633C754.524 334.471 779.402 319.166 803.59 306.481V306.54Z" fill="#37474F"/>
<path d="M803.59 306.54C798.075 304.921 793.329 301.446 790.195 296.734C786.021 290.834 786.88 281.253 786.88 281.194C784.439 282.607 782.102 284.184 779.886 285.914C780.019 293.253 781.798 304.204 796.1 310.505C798.592 309.148 801.097 307.814 803.59 306.505V306.54Z" fill="#00BFA5"/>
<path d="M724.613 332.075C723.403 332.5 721.237 333.503 720.814 334.53C720.39 335.556 719.241 341.338 716.458 346.424C714.038 350.92 706.996 358.153 707.746 366.59C708.423 374.001 711.182 377.21 713.917 379.57C714.962 380.571 716.239 381.312 717.638 381.733C719.038 382.154 720.521 382.242 721.963 381.989C721.963 381.989 726.198 381.151 726.089 378.579C725.98 376.007 724.613 332.075 724.613 332.075Z" fill="#37474F"/>
<path d="M724.105 332.299C724.989 331.154 726.235 330.325 727.65 329.939C729.756 329.302 731.885 328.948 733.507 327.367C734.087 326.801 734.995 325.656 735.927 325.904C736.011 325.904 736.786 326.329 736.786 326.329L735.043 327.815C734.946 328.783 734.596 330.966 734.414 331.922C733.966 334.341 731.716 335.969 732.151 338.612C733.615 336.418 735.273 333.892 736.798 334.754C737.802 335.356 738.843 337.786 740.754 339.273C742.666 340.76 744.566 341.291 745.195 342.058C745.824 342.825 744.76 343.568 742.775 345.598C740.485 347.843 738.456 350.328 736.725 353.008C735.6 355.262 734.499 357.622 733.531 359.935C729.901 368.844 730.348 374.815 727.009 378.815C723.669 382.815 715.163 380.349 712.235 373.34C707.25 361.41 713.203 355.64 716.373 350.755C718.495 347.622 720.127 344.197 721.213 340.595C722.399 337.22 722.447 335.214 724.105 332.299Z" fill="#00BFA5"/>
<path opacity="0.4" d="M724.105 332.299C724.989 331.154 726.235 330.325 727.65 329.939C729.756 329.302 731.885 328.948 733.507 327.367C734.087 326.801 734.995 325.656 735.927 325.904C736.011 325.904 736.786 326.329 736.786 326.329L735.043 327.815C734.946 328.783 734.596 330.966 734.414 331.922C733.966 334.341 731.716 335.969 732.151 338.612C733.615 336.418 735.273 333.892 736.798 334.754C737.802 335.356 738.843 337.786 740.754 339.273C742.666 340.76 744.566 341.291 745.195 342.058C745.824 342.825 744.76 343.568 742.775 345.598C740.485 347.843 738.456 350.328 736.725 353.008C735.6 355.262 734.499 357.622 733.531 359.935C729.901 368.844 730.348 374.815 727.009 378.815C723.669 382.815 715.163 380.349 712.235 373.34C707.25 361.41 713.203 355.64 716.373 350.755C718.495 347.622 720.127 344.197 721.213 340.595C722.399 337.22 722.447 335.214 724.105 332.299Z" fill="black"/>
<path opacity="0.15" d="M733.507 327.391L733.398 327.485C732.919 328.723 732.515 329.988 732.188 331.273C731.692 332.76 731.075 334.211 730.457 335.662C730.034 336.677 729.538 337.657 729.018 338.624C728.497 339.592 728.074 340.382 727.541 341.232C725.012 345.303 722.459 348.17 720.366 353.976C718.273 359.782 719.471 361.162 720.947 361.056C722.423 360.95 722.229 359.109 723.96 353.976C725.787 348.56 729.828 343.816 732.272 338.577C732.155 337.951 732.196 337.307 732.393 336.701V336.701C732.89 335.061 734.184 333.704 734.511 331.922C734.692 330.966 735.043 328.783 735.14 327.815L736.883 326.329L736.762 326.27L736.641 326.199L736.338 326.045L736.193 325.986C736.139 325.954 736.082 325.926 736.023 325.904C735.709 325.874 735.392 325.922 735.1 326.041C734.809 326.16 734.552 326.348 734.354 326.588C733.991 326.883 733.724 327.178 733.507 327.391Z" fill="black"/>
<path opacity="0.15" d="M715.345 364.183C717.172 367.357 719.071 367.959 720.632 365.233C721.627 363.25 722.168 361.08 722.217 358.873L729.32 363.333C729.32 363.333 725.896 367.959 726.658 369.965C727.118 371.204 729.078 370.803 730.651 369.776C729.744 373.576 729.09 376.549 727.166 378.862C723.681 383.028 715.32 380.396 712.392 373.387C708.218 363.392 711.715 357.764 714.812 353.327C713.021 356.1 713.505 361.009 715.345 364.183Z" fill="black"/>
<path opacity="0.15" d="M742.63 345.846C740.464 348.054 738.527 350.465 736.846 353.044C735.721 355.298 734.62 357.658 733.652 359.97C733.023 361.493 732.526 362.932 732.103 364.289C731.647 364.916 731.035 365.419 730.324 365.752C728.909 366.012 728.558 365.693 729.284 363.333C730.094 360.69 737.754 347.923 742.594 345.846H742.63Z" fill="black"/>
<path d="M730.808 364.974C730.673 365.07 730.51 365.123 730.342 365.123C730.175 365.123 730.012 365.07 729.877 364.974C726.988 362.651 723.773 360.744 720.33 359.31C720.137 359.236 719.982 359.091 719.9 358.906C719.817 358.721 719.813 358.512 719.888 358.324C719.963 358.137 720.112 357.986 720.302 357.905C720.491 357.824 720.706 357.82 720.898 357.894C724.51 359.369 727.878 361.357 730.893 363.794C731.049 363.926 731.145 364.113 731.161 364.314C731.177 364.515 731.111 364.713 730.978 364.867C730.927 364.911 730.87 364.947 730.808 364.974V364.974Z" fill="#E0E0E0"/>
<path d="M732.575 361.457C732.416 361.557 732.224 361.597 732.037 361.569C731.849 361.541 731.679 361.446 731.558 361.304C728.982 358.409 725.543 356.371 721.721 355.475C721.517 355.431 721.34 355.31 721.227 355.138C721.115 354.967 721.077 354.759 721.122 354.56C721.167 354.361 721.291 354.188 721.467 354.079C721.643 353.969 721.856 353.932 722.06 353.976C726.239 354.931 729.999 357.158 732.793 360.336C732.925 360.492 732.988 360.691 732.97 360.892C732.952 361.093 732.854 361.279 732.696 361.41L732.575 361.457Z" fill="#E0E0E0"/>
<path d="M734.547 358.307C734.374 358.41 734.167 358.445 733.969 358.403C733.77 358.362 733.596 358.247 733.482 358.082C731.037 354.843 727.533 352.512 723.548 351.474C723.347 351.427 723.172 351.303 723.063 351.131C722.955 350.958 722.92 350.751 722.968 350.554C722.99 350.457 723.033 350.365 723.092 350.284C723.151 350.203 723.226 350.135 723.313 350.082C723.399 350.029 723.496 349.994 723.596 349.978C723.697 349.961 723.8 349.965 723.899 349.988C728.284 351.092 732.135 353.655 734.789 357.233C734.906 357.4 734.949 357.606 734.911 357.805C734.872 358.004 734.755 358.18 734.584 358.295L734.547 358.307Z" fill="#E0E0E0"/>
<path d="M736.58 354.92C736.49 354.971 736.391 355.003 736.288 355.017C736.186 355.03 736.081 355.023 735.981 354.997C735.881 354.97 735.787 354.925 735.705 354.863C735.623 354.802 735.554 354.725 735.503 354.637C732.405 349.303 725.823 347.781 725.823 347.757C725.724 347.735 725.63 347.694 725.547 347.636C725.464 347.578 725.393 347.505 725.339 347.421C725.285 347.336 725.249 347.242 725.232 347.144C725.216 347.046 725.219 346.946 725.242 346.849C725.264 346.751 725.305 346.658 725.364 346.577C725.423 346.495 725.498 346.425 725.585 346.372C725.672 346.32 725.769 346.284 725.87 346.269C725.971 346.253 726.075 346.258 726.174 346.282C726.464 346.282 733.434 347.958 736.895 353.882C736.945 353.97 736.977 354.067 736.989 354.167C737.001 354.267 736.991 354.369 736.962 354.466C736.933 354.562 736.884 354.652 736.818 354.731C736.753 354.809 736.672 354.873 736.58 354.92V354.92Z" fill="#E0E0E0"/>
<path d="M738.746 351.38H738.685C738.501 351.471 738.287 351.487 738.089 351.426C737.892 351.364 737.728 351.229 737.633 351.05C734.826 345.728 727.832 344.052 727.771 343.97C727.671 343.949 727.576 343.909 727.492 343.851C727.408 343.794 727.337 343.721 727.283 343.636C727.229 343.551 727.192 343.456 727.177 343.358C727.161 343.259 727.165 343.158 727.19 343.061C727.213 342.964 727.255 342.872 727.315 342.791C727.374 342.71 727.449 342.642 727.536 342.589C727.622 342.536 727.719 342.501 727.819 342.485C727.92 342.468 728.023 342.472 728.122 342.495C728.437 342.565 735.878 344.347 739.012 350.294C739.071 350.382 739.111 350.48 739.129 350.583C739.148 350.686 739.144 350.791 739.119 350.893C739.094 350.995 739.048 351.09 738.984 351.174C738.92 351.258 738.839 351.328 738.746 351.38V351.38Z" fill="#E0E0E0"/>
<path d="M740.839 348.418C740.654 348.509 740.44 348.526 740.243 348.464C740.046 348.402 739.882 348.267 739.787 348.088C737.623 344.626 734.143 342.14 730.107 341.173C729.903 341.14 729.721 341.03 729.6 340.866C729.48 340.702 729.432 340.498 729.465 340.3C729.499 340.101 729.612 339.924 729.78 339.806C729.948 339.689 730.157 339.642 730.361 339.674C732.613 340.18 734.738 341.123 736.609 342.447C738.48 343.771 740.059 345.448 741.251 347.38C741.296 347.474 741.322 347.576 741.326 347.68C741.33 347.784 741.312 347.888 741.274 347.985C741.235 348.082 741.177 348.171 741.102 348.245C741.027 348.32 740.938 348.379 740.839 348.418V348.418Z" fill="#E0E0E0"/>
<path d="M811.237 182.121C806.651 191.325 802.247 202.37 799.137 221.32C796.027 240.271 793.535 258.467 793.535 258.467C793.535 258.467 793.535 265.287 809.265 270.043C824.995 274.798 836.574 269.476 836.574 269.476L840.204 259.21L842.54 266.845C842.54 266.845 849.715 269.995 863.315 268.155C876.916 266.314 883.619 257.889 883.619 257.889C883.619 257.889 874.895 199.868 869.172 188.623L811.237 182.121Z" fill="#455A64"/>
<path d="M840.338 259.21L846.69 239.28C846.69 239.28 857.58 236.826 865.953 225.226C865.953 225.226 865.953 237.121 849.013 243.186L843.605 257.641L842.745 266.809L840.338 259.21Z" fill="#37474F"/>
<path d="M811.503 258.302C811.48 258.249 811.468 258.193 811.468 258.136C811.468 258.08 811.48 258.023 811.503 257.971C811.515 257.916 811.54 257.863 811.576 257.818C811.611 257.774 811.657 257.737 811.709 257.712L815.581 255.458L815.871 255.304C815.974 255.275 816.083 255.275 816.186 255.304L817.396 255.47C817.454 255.472 817.511 255.489 817.562 255.517C817.612 255.546 817.655 255.586 817.686 255.635C817.724 255.676 817.752 255.725 817.769 255.778C817.785 255.831 817.79 255.887 817.783 255.942L816.44 266.101C816.437 266.158 816.42 266.214 816.391 266.263C816.361 266.313 816.32 266.354 816.271 266.385C816.227 266.42 816.177 266.446 816.123 266.46C816.068 266.474 816.011 266.477 815.956 266.467L814.637 266.302C814.579 266.297 814.523 266.279 814.473 266.251C814.423 266.222 814.38 266.183 814.347 266.137C814.277 266.045 814.247 265.931 814.262 265.818L815.303 258.018L812.762 259.482C812.71 259.505 812.655 259.517 812.598 259.517C812.542 259.517 812.486 259.505 812.435 259.482C812.319 259.453 812.219 259.381 812.157 259.281L811.503 258.302Z" fill="#00BFA5"/>
<path d="M823.857 267.482C823.742 267.466 823.638 267.407 823.567 267.317C823.498 267.225 823.468 267.111 823.482 266.998L823.736 265.087L818.715 264.449C818.657 264.444 818.601 264.427 818.551 264.398C818.501 264.37 818.458 264.331 818.424 264.284C818.387 264.24 818.36 264.189 818.346 264.134C818.331 264.079 818.329 264.022 818.34 263.966L818.485 262.845C818.502 262.707 818.556 262.577 818.642 262.467L818.945 262.148L824.692 256.744C824.78 256.641 824.892 256.56 825.018 256.507C825.144 256.454 825.281 256.43 825.418 256.437L826.628 256.591C826.744 256.608 826.848 256.668 826.92 256.758C826.992 256.848 827.026 256.961 827.015 257.074L826.168 263.387L827.56 263.564C827.675 263.582 827.78 263.642 827.852 263.732C827.924 263.821 827.958 263.935 827.947 264.048L827.802 265.169C827.785 265.281 827.725 265.383 827.633 265.452C827.538 265.518 827.421 265.548 827.306 265.535L825.914 265.358L825.66 267.27C825.652 267.327 825.631 267.381 825.6 267.43C825.569 267.479 825.528 267.521 825.479 267.553C825.435 267.588 825.385 267.615 825.331 267.631C825.277 267.647 825.22 267.653 825.164 267.647L823.857 267.482ZM824.003 263.116L824.45 259.729L821.28 262.762L824.003 263.116Z" fill="#00BFA5"/>
<path d="M823.301 193.909L820.772 190.239C814.044 202.275 806.917 241.829 803.59 267.93C804.582 268.367 805.671 268.804 806.857 269.217C809.107 251.623 814.915 211.621 823.301 193.909Z" fill="#00BFA5"/>
<path d="M797.141 264.06C798.116 264.89 799.169 265.629 800.286 266.267C802.622 248.189 808.369 209.367 816.597 191.927L814.02 188.292C807.498 200.033 800.553 237.958 797.141 264.06Z" fill="#00BFA5"/>
<path d="M915.975 74.198C914.373 79.1955 911.801 83.8464 908.4 87.8978C892.755 106.86 876.081 118.2 867.829 134.791C858.354 133.611 846.049 117.61 853.672 108.43C861.948 105.551 892.839 73.608 895.719 68.9706C898.321 64.1208 907.093 41.8306 909.15 33.4054C909.463 31.9884 909.239 30.5089 908.521 29.24C906.512 25.5348 906.767 21.57 905.859 17.8176C905.145 14.903 903.863 13.5342 904.455 13.0976C905.204 12.64 906.102 12.4746 906.97 12.6343C907.838 12.7939 908.612 13.267 909.138 13.959C910.484 15.8164 911.651 17.7915 912.623 19.859C912.902 16.4748 912.927 13.0751 912.696 9.68739C912.187 1.89939 914.027 -3.89441 922.884 1.06159C928.45 4.16499 931.547 12.1418 928.583 26.3844C927.736 30.4908 925.376 38.8806 923.864 44.7688C921.069 55.6838 919.871 64.3214 915.975 74.198Z" fill="#FFA8A7"/>
<path d="M848.687 108.453C852.438 106.719 856.939 105.315 861.888 101.373C867.054 97.267 873.479 92.6178 873.479 92.6178C873.479 92.6178 884.732 101.55 884.466 114.743C880.317 118.822 876.715 123.398 873.746 128.36C871.51 132.187 869.758 136.264 868.531 140.502C868.531 140.502 856.068 142.862 853.793 129.788C852.593 122.571 850.887 115.443 848.687 108.453V108.453Z" fill="#00BFA5"/>
<path d="M866.849 171.336C867.308 167.465 867.187 160.314 867.26 158.356C877.714 149.659 875.367 139.546 872.1 132.042C865.481 117.032 858.79 108.371 852.22 108.324L834.07 108.831C824.692 108.996 813.863 109.515 811.455 109.917C805.32 110.943 802.465 116.997 801.775 123.286C801.073 130.154 799.415 130.685 800.565 142.166C800.565 142.166 804.788 153.966 808.563 164.409C808.563 164.409 809.93 172.126 808.563 175.713C806.046 182.357 802.428 197.756 801.17 208.966C801.17 208.966 807.837 218.182 838.002 218.17C851.135 218.164 863.965 214.33 874.847 207.16L866.849 171.336Z" fill="#00BFA5"/>
<path d="M804.715 131.617C804.715 132.62 804.788 133.705 804.884 134.944L871.773 131.404C871.265 130.224 870.769 129.198 870.273 128.148L804.715 131.617Z" fill="#455A64"/>
<path d="M852.183 108.359L834.033 108.866C824.656 109.032 813.826 109.551 811.419 109.952C805.284 110.979 805.768 116.407 805.127 122.661C804.816 124.447 804.65 126.254 804.63 128.065L868.639 124.973C863.17 114.377 857.665 108.394 852.183 108.359Z" fill="#455A64"/>
<path opacity="0.1" d="M816.597 175.56C814.008 173.436 815.157 167.973 813.451 161.235C811.745 154.497 808.091 147.075 809.555 143.322C811.019 139.57 814.589 132.112 814.153 121.351L803.13 117.74C802.464 119.56 802.037 121.455 801.859 123.38C801.158 130.248 799.5 130.779 800.649 142.26C800.649 142.26 804.872 154.06 808.648 164.503C808.648 164.503 810.015 172.221 808.648 175.808C806.131 182.451 802.513 197.85 801.254 209.06C801.254 209.06 807.922 218.276 838.087 218.264H838.982C851.312 181.531 819.078 177.578 816.597 175.56Z" fill="black"/>
<path opacity="0.1" d="M820.953 151.205C822.261 153.962 824.358 156.291 826.992 157.912C829.627 159.532 832.686 160.375 835.8 160.338C838.794 160.403 841.752 159.696 844.376 158.29C846.999 156.883 849.196 154.826 850.744 152.326C850.744 152.326 849.63 163.854 835.631 163.099C821.631 162.344 820.953 151.205 820.953 151.205Z" fill="black"/>
<path d="M870.6 61.2652C872.468 56.4071 873.075 51.1737 872.366 46.0314C870.499 46.5942 868.6 47.0513 866.679 47.4002C867.328 45.9245 868.063 44.4864 868.881 43.0932C869.707 41.691 870.125 40.096 870.091 38.4794C870.049 37.6747 869.765 36.8999 869.274 36.2516C868.784 35.6032 868.109 35.11 867.333 34.8332C865.895 34.6303 864.429 34.8783 863.146 35.5412C855.657 38.195 847.771 39.6263 839.805 39.7774C825.914 40.391 812.06 45.6774 808.164 57.6898C805.744 65.2064 807.934 75.319 811.588 84.11C815.242 92.901 820.905 99.45 824.474 100.276L838.704 97.916C845.081 99.0252 851.215 96.5708 855.922 92.4408C857.188 91.3253 858.365 90.1183 859.443 88.83C860.455 87.5455 861.173 86.0649 861.549 84.4876C862.703 80.8625 863.601 77.1643 864.235 73.4192C864.33 72.6736 864.513 71.9412 864.78 71.2362C865.168 70.4694 865.651 69.7521 866.219 69.1004C868.056 66.7064 869.531 64.0678 870.6 61.2652V61.2652Z" fill="#263238"/>
<path d="M857.507 51.8488C861.065 53.725 865.675 62.1148 865.917 80.0272C866.111 95.202 861.21 99.1314 858.717 100.3C856.225 101.468 851.324 100.984 846.545 100.37L846.884 109.48C846.884 109.48 847.513 119.203 843.701 119.84C833.271 119.203 824.487 109.94 824.487 109.94V90.5646C823.232 90.985 821.88 91.0439 820.593 90.7341C819.305 90.4244 818.136 89.7592 817.227 88.8182C813.597 85.1366 812.387 80.0272 815.266 76.912C816.029 76.1716 816.962 75.618 817.986 75.2967C819.011 74.9755 820.099 74.8956 821.162 75.0637C822.225 75.2318 823.231 75.6431 824.099 76.2638C824.967 76.8845 825.672 77.6971 826.156 78.6348C826.156 78.6348 828.951 78.7646 831.553 73.6198C836.253 73.9705 840.938 72.7784 844.863 70.2332C854.567 64.2506 856.757 54.9168 857.507 51.8488Z" fill="#FFA8A7"/>
<path d="M845.649 75.9562C845.678 76.2106 845.654 76.4679 845.58 76.7134C845.506 76.9588 845.383 77.1874 845.217 77.3861C845.052 77.5847 844.847 77.7494 844.616 77.8705C844.385 77.9917 844.132 78.067 843.871 78.092C843.468 78.14 843.061 78.0696 842.7 77.8899C842.339 77.7103 842.041 77.4295 841.845 77.0837C841.649 76.7379 841.563 76.3428 841.599 75.9491C841.635 75.5555 841.791 75.1813 842.046 74.8745C842.301 74.5677 842.645 74.3424 843.033 74.2275C843.421 74.1126 843.835 74.1133 844.222 74.2296C844.609 74.3459 844.952 74.5723 845.206 74.88C845.461 75.1877 845.615 75.5624 845.649 75.9562Z" fill="#263238"/>
<g style="mix-blend-mode:multiply" opacity="0.5">
<g style="mix-blend-mode:multiply" opacity="0.5">
<path d="M848.541 88.5704L854.712 90.2578C854.616 90.6589 854.439 91.0371 854.19 91.3699C853.941 91.7026 853.626 91.983 853.263 92.1944C852.901 92.4059 852.498 92.544 852.08 92.6005C851.662 92.657 851.236 92.6308 850.828 92.5234C849.995 92.2841 849.289 91.7374 848.862 90.9994C848.435 90.2613 848.32 89.3899 848.541 88.5704V88.5704Z" fill="#F28F8F"/>
</g>
</g>
<path d="M863.11 69.36L859.056 66.823C859.21 66.5559 859.419 66.3227 859.67 66.1378C859.92 65.9529 860.207 65.8203 860.512 65.7483C860.818 65.6764 861.135 65.6665 861.445 65.7195C861.754 65.7724 862.049 65.887 862.311 66.056C862.855 66.4003 863.242 66.9361 863.391 67.5516C863.539 68.1672 863.439 68.815 863.11 69.36V69.36Z" fill="#263238"/>
<path d="M842.673 69.36L838.22 71.2008C838.083 70.9234 838.005 70.6215 837.992 70.3137C837.979 70.006 838.031 69.6988 838.144 69.4113C838.257 69.1238 838.43 68.862 838.651 68.6421C838.872 68.4222 839.137 68.2489 839.43 68.1328C840.029 67.8939 840.699 67.8881 841.302 68.1163C841.905 68.3446 842.396 68.7897 842.673 69.36V69.36Z" fill="#263238"/>
<path d="M862.239 74.965C862.256 75.3393 862.16 75.7103 861.963 76.032C861.766 76.3537 861.477 76.6118 861.131 76.7744C860.785 76.9369 860.397 76.9967 860.016 76.9463C859.636 76.8958 859.279 76.7374 858.99 76.4907C858.7 76.244 858.492 75.9198 858.39 75.5586C858.288 75.1973 858.298 74.8148 858.417 74.4587C858.536 74.1025 858.76 73.7884 859.061 73.5553C859.362 73.3223 859.726 73.1806 860.109 73.1478C860.372 73.1286 860.636 73.1605 860.885 73.2418C861.135 73.3231 861.366 73.452 861.564 73.6212C861.762 73.7903 861.924 73.9963 862.04 74.227C862.156 74.4577 862.223 74.7086 862.239 74.965Z" fill="#263238"/>
<g style="mix-blend-mode:multiply" opacity="0.5">
<g style="mix-blend-mode:multiply" opacity="0.5">
<path d="M852.813 74.198L853.539 85.6676L859.673 83.579L852.813 74.198Z" fill="#F28F8F"/>
</g>
</g>
<g style="mix-blend-mode:multiply" opacity="0.5">
<g style="mix-blend-mode:multiply" opacity="0.5">
<path d="M846.545 100.37C841.523 99.9102 831.129 97.385 829.375 93.4792C830.093 95.4643 831.419 97.1862 833.174 98.4116C836.345 100.878 846.654 103.415 846.654 103.415L846.545 100.37Z" fill="#F28F8F"/>
</g>
</g>
<path d="M826.181 78.6348L826.483 86.6116C827.215 86.5873 827.934 86.4221 828.6 86.1257C829.266 85.8293 829.865 85.4074 830.363 84.8843C830.862 84.3612 831.249 83.7473 831.503 83.0777C831.757 82.4082 831.872 81.6963 831.843 80.983L831.577 73.6198L826.181 78.6348Z" fill="#263238"/>
<path d="M810.729 239.245C827.769 239.245 841.584 225.773 841.584 209.155C841.584 192.536 827.769 179.065 810.729 179.065C793.688 179.065 779.874 192.536 779.874 209.155C779.874 225.773 793.688 239.245 810.729 239.245Z" fill="#F5F5F5"/>
<path d="M816.137 194.499C811.81 194.823 807.591 195.978 803.723 197.897C803.335 201.948 803.335 206.025 803.723 210.075C807.227 211.821 810.967 213.076 814.831 213.804C814.831 213.804 820.735 209.084 822.357 204.706C821.163 200.862 819.028 197.36 816.137 194.499V194.499Z" fill="#455A64"/>
<path d="M795.459 192.788L794.587 191.101C794.527 191.171 794.478 191.254 794.418 191.337L794.273 191.514L795.096 193.118L803.566 198.086L804.485 198.759C804.51 198.7 804.543 198.644 804.582 198.594C804.641 198.518 804.71 198.451 804.788 198.393L803.832 197.697L795.459 192.788Z" fill="#455A64"/>
<path d="M813.076 181.153C812.362 181.071 811.6 180.988 810.741 180.929C806.242 180.624 801.763 181.75 797.975 184.139L796.233 185.118C796.312 185.258 796.37 185.409 796.402 185.566L798.229 184.528C801.931 182.196 806.308 181.095 810.705 181.389C811.794 181.472 812.762 181.578 813.609 181.696C813.39 181.558 813.208 181.372 813.076 181.153Z" fill="#455A64"/>
<path d="M819.114 185.118L818.703 186.44L815.92 194.416L815.254 196.104C815.411 196.135 815.565 196.178 815.714 196.234L816.367 194.57L819.162 186.581L819.574 185.248C819.416 185.223 819.262 185.179 819.114 185.118V185.118Z" fill="#455A64"/>
<path d="M833.985 204.966C833.675 205.223 833.347 205.459 833.005 205.674C829.485 205.085 825.934 204.691 822.369 204.494H822.2C821.98 204.496 821.762 204.515 821.546 204.553C821.558 204.706 821.558 204.86 821.546 205.013C821.811 204.983 822.079 204.983 822.345 205.013C825.919 205.205 829.478 205.599 833.005 206.193H833.102H833.174C833.508 205.996 833.824 205.771 834.118 205.52C834.051 205.341 834.006 205.155 833.985 204.966V204.966Z" fill="#455A64"/>
<path d="M829.532 188.257C831.42 190.015 834.941 193.307 836.381 197.862C836.497 198.22 836.582 198.587 836.635 198.959C836.779 198.896 836.929 198.845 837.083 198.806C837.03 198.443 836.949 198.084 836.841 197.732C835.364 193.012 831.783 189.708 829.859 187.915C829.629 187.714 829.435 187.525 829.266 187.36C828.885 187 828.481 186.665 828.056 186.357C828.029 186.432 827.993 186.504 827.947 186.569C827.895 186.629 827.834 186.681 827.766 186.723C828.155 187.025 828.526 187.348 828.879 187.69L829.532 188.257Z" fill="#455A64"/>
<path d="M815.085 213.804C815.085 213.615 815.327 213.001 815.641 212.175C815.46 212.266 815.263 212.326 815.061 212.352C814.782 213.119 814.625 213.65 814.601 213.745L817.626 224.943H817.698C817.783 225.002 818.763 225.675 819.888 226.406H819.997L820.506 226.288C819.61 225.722 818.691 225.108 818.086 224.66L815.085 213.804Z" fill="#455A64"/>
<path d="M836.453 215.326C836.223 215.881 835.969 216.506 835.679 217.049C833.831 220.552 831.28 223.658 828.177 226.182C827.741 226.406 826.967 226.772 826.168 227.114C826.313 227.206 826.44 227.322 826.543 227.456C827.463 227.067 828.25 226.666 828.431 226.56C831.615 223.998 834.23 220.83 836.115 217.249C836.381 216.707 836.611 216.164 836.828 215.645C836.693 215.551 836.567 215.444 836.453 215.326Z" fill="#455A64"/>
<path d="M805.054 209.06C804.618 209.284 804.134 209.556 803.59 209.874C800.342 211.98 797.282 214.348 794.442 216.954V216.954C794.321 217.143 793.934 217.804 793.498 218.689C793.618 218.819 793.727 218.957 793.825 219.102C794.2 218.347 794.563 217.674 794.829 217.214C797.641 214.614 800.668 212.246 803.88 210.134C804.473 209.78 805.005 209.497 805.465 209.261C805.322 209.207 805.184 209.14 805.054 209.06V209.06Z" fill="#455A64"/>
<path d="M811.842 231.516C811.031 231.516 810.112 231.433 809.095 231.35C804.986 231.056 801.045 229.641 797.721 227.268V227.268H797.661C797.16 227.153 796.667 227.007 796.185 226.831C796.185 226.996 796.185 227.15 796.185 227.315C796.85 227.539 797.395 227.669 797.552 227.716C800.946 230.123 804.959 231.561 809.144 231.87L811.721 232.023C811.727 231.848 811.768 231.675 811.842 231.516V231.516Z" fill="#455A64"/>
<path d="M785.646 213.32C785.809 213.287 785.978 213.287 786.142 213.32C785.995 212.796 785.877 212.264 785.791 211.727C785.467 207.766 785.666 203.78 786.384 199.868C786.528 199.151 786.71 198.442 786.928 197.744C786.815 197.756 786.702 197.756 786.589 197.744H786.42C786.226 198.397 786.057 199.07 785.912 199.762C785.182 203.724 784.982 207.762 785.319 211.774C785.404 212.317 785.512 212.836 785.646 213.32Z" fill="#455A64"/>
<path d="M810.729 181.153C813.808 182.377 816.6 184.2 818.933 186.51C822.355 186.263 825.796 186.607 829.097 187.525C828.999 186.533 828.817 185.55 828.552 184.587C824.04 181.466 818.748 179.591 813.233 179.159C812.353 179.767 811.516 180.434 810.729 181.153V181.153Z" fill="#455A64"/>
<path d="M840.64 201.791C839.46 200.307 838.103 198.964 836.599 197.791C835.713 200.613 834.52 203.335 833.041 205.91C834.268 209.586 835.218 213.344 835.885 217.155C837.575 216.824 839.231 216.346 840.834 215.727C841.879 211.13 841.813 206.359 840.64 201.791V201.791Z" fill="#455A64"/>
<path d="M790.231 229.474C790.231 229.474 795.204 229.038 797.576 227.456C797.576 227.456 796.015 222.89 794.612 217.179C791.435 215.635 788.406 213.819 785.561 211.751C785.561 211.751 783.625 213.709 783.141 219.928C784.844 223.53 787.253 226.773 790.231 229.474V229.474Z" fill="#455A64"/>
<path d="M783.77 194.617C784.135 196.516 784.965 198.302 786.19 199.821C788.532 196.763 791.687 194.389 795.313 192.953C796.039 190.019 796.981 187.14 798.133 184.339C796.611 184.164 795.078 184.109 793.547 184.174C789.483 186.847 786.131 190.427 783.77 194.617Z" fill="#455A64"/>
<path d="M828.286 226.383C824.752 226.274 821.244 225.764 817.831 224.86C815.156 227.389 812.22 229.643 809.071 231.586C809.071 231.586 811.285 235.952 813.984 237.557C817.941 237.145 821.794 236.063 825.37 234.359C826.846 231.902 827.835 229.196 828.286 226.383V226.383Z" fill="#455A64"/>
<path opacity="0.1" d="M837.3 224.459C832.134 231.598 812.229 236.106 799.536 220.046C786.843 203.986 794.176 185.531 803.408 179.926C798.464 181.104 793.895 183.456 790.109 186.773C786.322 190.09 783.436 194.268 781.708 198.937C779.979 203.605 779.461 208.618 780.201 213.529C780.94 218.44 782.914 223.096 785.946 227.083C788.978 231.069 792.975 234.262 797.579 236.378C802.183 238.493 807.253 239.465 812.335 239.206C817.418 238.948 822.357 237.467 826.71 234.896C831.064 232.325 834.698 228.744 837.288 224.471L837.3 224.459Z" fill="black"/>
<path d="M801.448 221.238C803.033 221.733 806.288 222.335 806.929 220.412C807.571 218.488 804.884 218.134 803.009 216.305C801 214.219 798.866 212.248 796.62 210.405C793.752 208.211 790.001 207.904 788.683 205.461C787.267 203.455 780.6 174.699 778.845 166.875C787.787 156.692 795.906 148.101 802.561 140.337C802.561 140.337 811.915 122.307 811.564 110.66C806.276 109.008 800.178 109.645 790.401 119.793C781.144 129.515 772.466 139.747 764.41 150.438C755.94 161.813 755.226 161.494 758.36 172.964C762.311 186.558 767.244 199.863 773.122 212.777C776.752 220.258 777.962 222.819 781.265 228.035C784.278 232.755 790.8 237.97 794.357 239.079C799.657 240.708 807.038 239.835 807.474 234.631C807.909 229.427 798.096 224.223 796.584 218.949C798.128 219.859 799.757 220.625 801.448 221.238Z" fill="#FFA8A7"/>
<path d="M812.979 109.763C812.979 109.763 803.203 108.949 798.58 112.253C793.958 115.557 791.32 117.752 782.693 126.767C779.547 130.083 775.675 134.791 775.675 134.791C775.675 134.791 780.515 148.951 794.854 151.205L808.551 137.8C811.915 134.26 816.44 122.979 812.979 109.763Z" fill="#00BFA5"/>
<path d="M962.62 39.5414C962.301 39.544 961.988 39.4625 961.713 39.3054L952.94 34.3612C952.523 34.1265 952.218 33.7397 952.094 33.2861C951.969 32.8324 952.034 32.349 952.275 31.9422C952.515 31.5353 952.912 31.2384 953.377 31.1167C953.842 30.995 954.338 31.0585 954.755 31.2932L963.528 36.2374C963.874 36.4319 964.145 36.7327 964.298 37.0929C964.452 37.4531 964.479 37.8526 964.375 38.2293C964.272 38.6061 964.044 38.9389 963.726 39.1762C963.409 39.4134 963.02 39.5418 962.62 39.5414V39.5414Z" fill="#00BFA5"/>
<path d="M968.634 19.8H957.562C957.081 19.8 956.619 19.6135 956.279 19.2816C955.939 18.9496 955.747 18.4994 955.747 18.03C955.747 17.5605 955.939 17.1103 956.279 16.7784C956.619 16.4465 957.081 16.26 957.562 16.26H968.634C969.115 16.26 969.577 16.4465 969.917 16.7784C970.258 17.1103 970.449 17.5605 970.449 18.03C970.449 18.4994 970.258 18.9496 969.917 19.2816C969.577 19.6135 969.115 19.8 968.634 19.8Z" fill="#00BFA5"/>
<path d="M952.674 5.63998C952.274 5.64041 951.885 5.51202 951.568 5.27476C951.25 5.03751 951.022 4.70466 950.919 4.32794C950.815 3.95122 950.842 3.55172 950.996 3.19151C951.149 2.83129 951.42 2.53054 951.766 2.33598L963.08 -4.03603C963.286 -4.15225 963.514 -4.22765 963.751 -4.25793C963.987 -4.28822 964.228 -4.27278 964.458 -4.21252C964.688 -4.15225 964.904 -4.04833 965.093 -3.90669C965.283 -3.76506 965.441 -3.58848 965.56 -3.38703C965.68 -3.18558 965.757 -2.96321 965.788 -2.73262C965.819 -2.50203 965.803 -2.26774 965.741 -2.04312C965.68 -1.81849 965.573 -1.60793 965.428 -1.42347C965.283 -1.23901 965.101 -1.08424 964.895 -0.968023L953.581 5.40398C953.306 5.55998 952.993 5.64145 952.674 5.63998V5.63998Z" fill="#00BFA5"/>
<path d="M892.549 39.5414C892.149 39.5418 891.76 39.4134 891.443 39.1762C891.125 38.9389 890.897 38.6061 890.794 38.2293C890.69 37.8526 890.717 37.4531 890.871 37.0929C891.024 36.7327 891.295 36.4319 891.642 36.2374L900.414 31.2932C900.831 31.0585 901.327 30.995 901.792 31.1167C902.257 31.2384 902.654 31.5353 902.895 31.9422C903.135 32.349 903.2 32.8324 903.076 33.2861C902.951 33.7397 902.646 34.1265 902.229 34.3612L893.457 39.3054C893.181 39.4614 892.868 39.5429 892.549 39.5414V39.5414Z" fill="#00BFA5"/>
<path d="M897.595 19.8H886.523C886.042 19.8 885.58 19.6135 885.24 19.2816C884.899 18.9496 884.708 18.4994 884.708 18.03C884.708 17.5605 884.899 17.1103 885.24 16.7784C885.58 16.4465 886.042 16.26 886.523 16.26H897.595C898.076 16.26 898.538 16.4465 898.878 16.7784C899.219 17.1103 899.41 17.5605 899.41 18.03C899.41 18.4994 899.219 18.9496 898.878 19.2816C898.538 19.6135 898.076 19.8 897.595 19.8Z" fill="#00BFA5"/>
<path d="M902.495 5.63999C902.177 5.64146 901.863 5.55999 901.588 5.40398L890.25 -0.920817C890.043 -1.03704 889.862 -1.19179 889.717 -1.37626C889.572 -1.56072 889.465 -1.77128 889.404 -1.9959C889.342 -2.22053 889.326 -2.45482 889.357 -2.68541C889.388 -2.916 889.465 -3.13837 889.585 -3.33982C889.704 -3.54126 889.862 -3.71785 890.052 -3.85949C890.241 -4.00113 890.457 -4.10504 890.687 -4.16531C890.917 -4.22557 891.158 -4.241 891.394 -4.21072C891.63 -4.18044 891.858 -4.10503 892.065 -3.98882L903.391 2.38319C903.737 2.57775 904.008 2.87851 904.162 3.23872C904.315 3.59893 904.342 3.99843 904.238 4.37515C904.135 4.75187 903.907 5.08472 903.589 5.32197C903.272 5.55923 902.883 5.68762 902.483 5.68719L902.495 5.63999Z" fill="#00BFA5"/>
</g>
<defs>
<clipPath id="clip0">
<rect width="1288" height="828" fill="white"/>
</clipPath>
</defs>
</svg>
