<svg width="1208" height="879" viewBox="0 0 1208 879" fill="none" xmlns="http://www.w3.org/2000/svg">
<g clip-path="url(#clip0)">
<path d="M182.115 874.789C173.919 874.789 51.3724 883.367 45.5761 874.789C45.5761 886.919 39.7798 866.211 45.5761 874.789L45.5761 861.39C45.5761 850.163 40.5257 883.168 45.5761 874.789C45.5761 874.789 410.825 425.685 584.855 321.59C762.599 215.273 966.496 154.905 1174.51 147.017C1182.83 146.684 1190.9 151.377 1196.87 159.985C1202.84 168.593 1206.21 180.407 1206.21 192.741V829.034C1206.21 854.294 1192.37 874.774 1175.3 874.774L182.115 874.789Z" fill="#F0F0F0"/>
<path opacity="0.7" d="M840.5 561.774C993.225 561.774 1117.03 492.065 1117.03 406.073C1117.03 320.082 993.225 250.372 840.5 250.372C687.775 250.372 563.967 320.082 563.967 406.073C563.967 492.065 687.775 561.774 840.5 561.774Z" fill="#F0F0F0"/>
<path d="M961.076 522.162C1000.18 522.162 1031.87 504.316 1031.87 482.301C1031.87 460.287 1000.18 442.441 961.076 442.441C921.976 442.441 890.279 460.287 890.279 482.301C890.279 504.316 921.976 522.162 961.076 522.162Z" fill="#E0E0E0"/>
<path d="M728.575 522.162C767.675 522.162 799.372 504.316 799.372 482.301C799.372 460.287 767.675 442.441 728.575 442.441C689.475 442.441 657.778 460.287 657.778 482.301C657.778 504.316 689.475 522.162 728.575 522.162Z" fill="#E0E0E0"/>
<path d="M1026.08 355.475C1026.08 355.475 1023.03 353.115 1021.48 353.434C1020.75 353.575 1021.29 355.51 1020.45 359.168C1020.11 360.486 1019.44 361.701 1018.5 362.708L1017.95 362.862H1017.79L1016.31 363.263C1003.43 366.803 974.253 374.473 959.649 375.972C948.505 377.152 944.015 374.261 940.942 364.655C936.102 349.315 932.799 311.791 931.891 300.322C923.905 318.812 916.294 337.563 909.228 356.325C925.599 369.871 936.271 409.743 942.079 425.248L943.374 428.517L944.028 430.145C944.028 430.145 947.234 433.851 942.733 438.559C938.232 443.267 932.896 443.373 930.463 440.742C917.444 422.912 894.696 393.223 883.842 375.57C876.122 362.992 874.961 360.643 876.473 351.746C881.313 322.813 891.138 284.262 900.758 254.597L900.939 254.172L969.667 258.314C973.987 290.776 969.28 346.814 969.28 346.814L1014.41 344.725L1017.49 344.43C1018.44 344.879 1019.99 347.062 1020.72 348.985C1021.44 350.908 1024.53 352.242 1026.08 355.475Z" fill="#B16668"/>
<path d="M1016.31 363.31L1017.79 362.909H1017.95L1018.5 362.756C1019.44 361.748 1020.11 360.533 1020.45 359.216C1021.29 355.558 1020.75 353.622 1021.48 353.481C1023.03 353.186 1026.08 355.522 1026.08 355.522C1024.53 352.289 1021.49 351.074 1020.77 349.138C1020.04 347.203 1018.49 345.032 1017.54 344.584L1014.46 344.879L969.28 346.92C969.28 346.92 974.895 365.269 964.924 375.323C980.437 372.88 1004.84 366.414 1016.31 363.31Z" fill="#37474F"/>
<path d="M973.806 373.694C979.856 363.369 977.835 353.198 974.919 346.637L969.28 346.908C969.28 346.908 974.895 365.257 964.924 375.311C967.647 374.886 970.648 374.331 973.806 373.694Z" fill="#00BFA5"/>
<path d="M943.35 428.564L942.14 425.296C937.058 411.82 928.382 380.196 915.52 363.145C911.297 374.343 894.006 380.609 886.117 379.217C897.636 397.094 918.303 424.116 930.464 440.789C932.884 443.42 938.22 443.326 942.733 438.606C947.246 433.886 944.028 430.193 944.028 430.193L943.35 428.564Z" fill="#37474F"/>
<path d="M915.52 363.145C911.297 374.343 894.006 380.609 886.117 379.217C887.545 381.435 889.106 383.783 890.775 386.226C904.957 386.497 914.83 378.509 920.106 370.095C918.717 367.694 917.185 365.373 915.52 363.145V363.145Z" fill="#00BFA5"/>
<path d="M949.122 434.83C949.896 435.774 951.288 437.733 951.118 438.83C950.949 439.928 948.952 445.485 948.698 451.232C948.48 456.33 950.779 466.029 945.746 472.932C941.317 478.986 937.276 480.413 933.646 481.086C932.227 481.431 930.744 481.44 929.321 481.111C927.898 480.783 926.576 480.127 925.466 479.198C925.466 479.198 922.235 476.378 923.675 474.207C925.115 472.035 949.122 434.83 949.122 434.83Z" fill="#37474F"/>
<path d="M949.4 435.29C949.219 433.872 948.574 432.548 947.561 431.514C946.06 429.933 944.427 428.576 943.834 426.405C943.628 425.638 943.447 424.198 942.479 423.939C942.394 423.939 941.523 423.939 941.523 423.939L942.261 426.074C941.85 426.959 941.051 429.024 940.664 429.933C939.793 432.293 940.894 434.759 939.151 436.824C939.03 434.205 938.921 431.172 937.143 431.207C935.933 431.207 933.803 432.8 931.383 433.143C928.963 433.485 927.051 433.013 926.107 433.355C925.164 433.697 925.696 434.865 926.301 437.579C927.078 440.62 927.52 443.734 927.62 446.866C927.414 449.368 927.148 451.952 926.773 454.418C925.333 463.929 921.788 468.814 922.598 473.935C923.433 479.245 932 481.11 938.171 476.508C948.674 468.684 946.508 460.802 946.327 454.984C946.108 451.225 946.463 447.455 947.379 443.798C948.347 440.376 949.4 438.618 949.4 435.29Z" fill="#00BFA5"/>
<path opacity="0.4" d="M949.4 435.29C949.219 433.872 948.574 432.548 947.561 431.514C946.06 429.933 944.427 428.576 943.834 426.405C943.628 425.638 943.447 424.198 942.479 423.939C942.394 423.939 941.523 423.939 941.523 423.939L942.261 426.074C941.85 426.959 941.051 429.024 940.664 429.933C939.793 432.293 940.894 434.759 939.151 436.824C939.03 434.205 938.921 431.172 937.143 431.207C935.933 431.207 933.803 432.8 931.383 433.143C928.963 433.485 927.051 433.013 926.107 433.355C925.164 433.697 925.696 434.865 926.301 437.579C927.078 440.62 927.52 443.734 927.62 446.866C927.414 449.368 927.148 451.952 926.773 454.418C925.333 463.929 921.788 468.814 922.598 473.935C923.433 479.245 932 481.11 938.171 476.508C948.674 468.684 946.508 460.802 946.327 454.984C946.108 451.225 946.463 447.455 947.379 443.798C948.347 440.376 949.4 438.618 949.4 435.29Z" fill="black"/>
<path opacity="0.15" d="M943.882 426.405C943.877 426.428 943.877 426.452 943.882 426.476V426.605C943.67 427.916 943.375 429.213 942.999 430.488C942.66 432.022 942.442 433.579 942.213 435.137C942.055 436.222 941.971 437.308 941.922 438.405C941.874 439.503 941.825 440.388 941.837 441.379C941.91 446.099 942.612 449.863 941.414 455.917C940.216 461.97 938.462 462.548 937.215 461.817C935.969 461.085 937.118 459.516 938.304 454.194C939.514 448.624 938.522 442.535 939.139 436.812C939.568 436.329 939.867 435.749 940.01 435.125V435.125C940.434 433.461 940.01 431.656 940.652 429.957C941.003 429.048 941.862 426.983 942.249 426.098L941.511 423.962H941.789H942.128H942.285H942.467C943.072 424.116 943.362 424.741 943.556 425.378C943.725 425.732 943.798 426.122 943.882 426.405Z" fill="black"/>
<path opacity="0.15" d="M940.446 467.103C937.215 468.932 935.267 468.519 935.34 465.404C935.507 463.202 936.168 461.063 937.276 459.138L928.806 459.48C928.806 459.48 929.35 465.156 927.656 466.56C926.616 467.398 925.152 466.088 924.305 464.413C923.095 468.153 922.127 471.032 922.598 473.982C923.433 479.292 932 481.157 938.171 476.555C946.968 469.994 946.871 463.41 946.508 458.029C946.665 461.238 943.677 465.274 940.446 467.103Z" fill="black"/>
<path opacity="0.15" d="M926.41 437.78C927.109 440.756 927.514 443.791 927.62 446.842C927.414 449.344 927.148 451.928 926.773 454.394C926.519 456.023 926.216 457.51 925.878 458.89C925.944 459.655 926.21 460.391 926.652 461.026C927.729 461.946 928.201 461.852 928.806 459.457C929.471 456.766 929.496 441.993 926.386 437.78H926.41Z" fill="black"/>
<path d="M926.7 460.2C926.776 460.346 926.899 460.464 927.049 460.537C927.2 460.609 927.37 460.632 927.535 460.601C931.231 460.023 934.992 459.968 938.704 460.436C938.805 460.452 938.908 460.449 939.007 460.426C939.107 460.404 939.201 460.362 939.284 460.304C939.367 460.246 939.438 460.173 939.492 460.088C939.546 460.003 939.582 459.909 939.599 459.811C939.616 459.712 939.612 459.612 939.589 459.514C939.566 459.417 939.523 459.326 939.464 459.244C939.404 459.163 939.329 459.095 939.242 459.042C939.155 458.989 939.059 458.954 938.958 458.937C935.07 458.435 931.128 458.49 927.257 459.103C927.054 459.14 926.874 459.254 926.756 459.419C926.639 459.585 926.592 459.789 926.628 459.988C926.637 460.062 926.662 460.135 926.7 460.2Z" fill="#E0E0E0"/>
<path d="M927.003 456.247C927.085 456.415 927.229 456.546 927.407 456.614C927.584 456.682 927.782 456.682 927.959 456.613C931.683 455.392 935.704 455.33 939.466 456.436C939.662 456.504 939.877 456.494 940.065 456.408C940.254 456.322 940.399 456.166 940.47 455.976C940.536 455.785 940.522 455.576 940.432 455.395C940.341 455.214 940.181 455.075 939.986 455.008C935.888 453.757 931.486 453.819 927.426 455.185C927.231 455.254 927.072 455.396 926.983 455.58C926.895 455.763 926.884 455.973 926.954 456.164C926.966 456.194 926.982 456.222 927.003 456.247V456.247Z" fill="#E0E0E0"/>
<path d="M926.942 452.554C927.033 452.731 927.192 452.866 927.385 452.93C927.577 452.994 927.788 452.982 927.971 452.896C931.756 451.3 935.988 451.016 939.962 452.093C940.161 452.153 940.376 452.135 940.561 452.042C940.747 451.95 940.888 451.79 940.954 451.598C941.015 451.405 940.996 451.197 940.901 451.018C940.806 450.84 940.642 450.704 940.446 450.642C936.091 449.431 931.439 449.74 927.293 451.515C927.108 451.604 926.967 451.76 926.899 451.95C926.831 452.14 926.842 452.348 926.93 452.53L926.942 452.554Z" fill="#E0E0E0"/>
<path d="M926.882 448.636C926.932 448.723 927 448.8 927.081 448.862C927.162 448.923 927.254 448.969 927.354 448.995C927.453 449.021 927.556 449.028 927.658 449.015C927.76 449.002 927.858 448.97 927.947 448.919C933.392 445.851 939.829 447.739 939.889 447.739C940.087 447.796 940.299 447.775 940.481 447.683C940.664 447.591 940.803 447.433 940.87 447.244C940.901 447.148 940.913 447.048 940.905 446.948C940.897 446.848 940.868 446.751 940.821 446.662C940.773 446.573 940.708 446.494 940.63 446.43C940.551 446.366 940.459 446.317 940.361 446.288C940.071 446.193 933.222 444.152 927.172 447.55C927.076 447.599 926.991 447.667 926.924 447.75C926.856 447.832 926.807 447.928 926.779 448.03C926.752 448.133 926.747 448.239 926.765 448.344C926.782 448.448 926.822 448.548 926.882 448.636Z" fill="#E0E0E0"/>
<path d="M926.93 444.494V444.553C927.042 444.723 927.218 444.842 927.419 444.886C927.621 444.931 927.832 444.896 928.007 444.789C933.198 441.58 940.107 443.609 940.168 443.609C940.362 443.653 940.566 443.624 940.738 443.527C940.911 443.43 941.039 443.273 941.098 443.087C941.156 442.901 941.14 442.701 941.053 442.526C940.966 442.352 940.814 442.216 940.628 442.146C940.313 442.052 932.968 439.916 927.184 443.503C927.02 443.605 926.902 443.765 926.855 443.949C926.808 444.134 926.835 444.329 926.93 444.494V444.494Z" fill="#E0E0E0"/>
<path d="M926.652 440.919C926.764 441.088 926.939 441.208 927.141 441.252C927.342 441.296 927.554 441.261 927.729 441.155C929.547 440.197 931.542 439.6 933.597 439.397C935.653 439.195 937.73 439.391 939.708 439.975C939.803 440.011 939.905 440.029 940.007 440.027C940.11 440.025 940.211 440.004 940.305 439.964C940.398 439.924 940.483 439.866 940.554 439.794C940.625 439.722 940.681 439.637 940.718 439.544C940.756 439.451 940.774 439.352 940.772 439.252C940.77 439.152 940.748 439.054 940.707 438.962C940.666 438.871 940.607 438.788 940.533 438.719C940.459 438.65 940.372 438.595 940.277 438.559C938.074 437.887 935.754 437.655 933.457 437.876C931.16 438.097 928.932 438.766 926.906 439.845C926.813 439.896 926.732 439.965 926.668 440.048C926.604 440.131 926.559 440.226 926.535 440.327C926.511 440.428 926.509 440.533 926.529 440.635C926.549 440.737 926.591 440.834 926.652 440.919V440.919Z" fill="#E0E0E0"/>
<path d="M1037.23 389.778C1039 390.497 1043.6 390.556 1046.03 388.739C1051.1 384.975 1051.66 374.579 1049.66 368.998C1047.24 362.201 1043.16 358.909 1041.6 354.838C1040.04 350.767 1040.08 344.796 1038.12 341.256C1037.33 339.9 1036.25 338.725 1034.95 337.811C1033.65 336.897 1032.17 336.265 1030.6 335.958C1029.6 335.741 1028.56 335.751 1027.56 335.986C1026.56 336.221 1025.62 336.675 1024.83 337.315L1023.29 338.495L1037.23 389.778Z" fill="#263238"/>
<path d="M1047.16 370.791C1045.41 363.169 1037.2 358.437 1036.88 350.897C1036.57 343.356 1031.49 333.716 1021.96 339.25C1019.25 340.828 1016.72 342.696 1014.43 344.82L1017.5 344.525C1018.45 344.973 1020 347.156 1020.73 349.079C1021.46 351.003 1024.49 352.23 1026.04 355.463C1026.04 355.463 1022.99 353.103 1021.44 353.422C1020.72 353.563 1021.25 355.499 1020.41 359.157C1020.07 360.474 1019.4 361.689 1018.47 362.697L1017.92 362.838H1017.77L1016.29 363.239C1017.56 363.888 1021.04 364.419 1023.28 366.048C1024.16 366.951 1024.91 367.972 1025.5 369.08C1026.39 370.906 1027.12 372.805 1027.67 374.756C1028.61 377.659 1029.56 380.562 1030.6 383.429C1031.07 384.911 1031.74 386.324 1032.6 387.63C1035.29 391.371 1040.55 391.099 1043.78 388.137C1045.39 386.75 1046.58 384.958 1047.22 382.957C1048.62 378.922 1048 374.449 1047.16 370.791Z" fill="#00BFA5"/>
<path opacity="0.4" d="M1047.16 370.791C1045.41 363.169 1037.2 358.437 1036.88 350.897C1036.57 343.356 1031.49 333.716 1021.96 339.25C1019.25 340.828 1016.72 342.696 1014.43 344.82L1017.5 344.525C1018.45 344.973 1020 347.156 1020.73 349.079C1021.46 351.003 1024.49 352.23 1026.04 355.463C1026.04 355.463 1022.99 353.103 1021.44 353.422C1020.72 353.563 1021.25 355.499 1020.41 359.157C1020.07 360.474 1019.4 361.689 1018.47 362.697L1017.92 362.838H1017.77L1016.29 363.239C1017.56 363.888 1021.04 364.419 1023.28 366.048C1024.16 366.951 1024.91 367.972 1025.5 369.08C1026.39 370.906 1027.12 372.805 1027.67 374.756C1028.61 377.659 1029.56 380.562 1030.6 383.429C1031.07 384.911 1031.74 386.324 1032.6 387.63C1035.29 391.371 1040.55 391.099 1043.78 388.137C1045.39 386.75 1046.58 384.958 1047.22 382.957C1048.62 378.922 1048 374.449 1047.16 370.791Z" fill="black"/>
<path opacity="0.15" d="M1029.49 375.83C1029.15 374.167 1028.68 372.534 1028.07 370.945C1027.46 369.349 1026.45 367.923 1025.15 366.791C1023.78 365.75 1022.19 365.028 1020.5 364.679C1021.5 365.02 1022.45 365.506 1023.31 366.119V366.119C1024.19 367.022 1024.93 368.043 1025.52 369.151C1026.42 370.977 1027.15 372.876 1027.7 374.827C1028.27 376.562 1028.84 378.296 1029.43 380.031C1029.61 379.864 1029.75 379.668 1029.86 379.453C1030.08 378.781 1030.08 378.06 1029.86 377.388L1029.49 375.83Z" fill="black"/>
<path opacity="0.15" d="M1046.96 374.19C1046.9 375.688 1046.28 377.113 1045.21 378.19C1044.5 378.685 1043.66 378.952 1042.79 378.952C1041.92 378.952 1041.07 378.685 1040.37 378.19C1039.3 377.511 1038.43 376.566 1037.86 375.452C1037.48 374.532 1037.39 373.482 1036.47 373.918C1034.09 375.07 1031.99 376.703 1030.31 378.709C1030.21 378.808 1030.14 378.929 1030.09 379.063C1030.05 379.328 1030.12 379.599 1030.28 379.818C1030.8 380.926 1030.92 382.175 1030.62 383.358V383.5C1031.08 384.981 1031.76 386.395 1032.61 387.701C1035.3 391.441 1040.56 391.17 1043.79 388.208C1045.4 386.821 1046.59 385.029 1047.23 383.028C1048.26 379.127 1048.26 375.035 1047.23 371.134C1047.19 372.172 1047.11 373.187 1046.96 374.19Z" fill="black"/>
<path opacity="0.15" d="M1035.31 358.472C1034.38 357.135 1033.24 355.942 1031.95 354.932C1031.32 354.448 1030.62 354.177 1029.99 353.752C1029.29 353.266 1028.64 352.716 1028.05 352.112C1025.63 349.752 1023.94 346.885 1021.83 344.3C1021.15 343.44 1020.3 342.725 1019.33 342.2C1018.94 342.006 1018.54 341.859 1018.12 341.763C1016.78 342.755 1015.53 343.805 1014.41 344.82L1017.49 344.525C1018.44 344.973 1019.99 347.156 1020.72 349.079C1021.44 351.003 1024.35 352.195 1025.97 355.333C1027.52 356.62 1029.18 357.788 1030.6 359.121C1031.79 360.153 1032.76 361.394 1033.47 362.779C1035.23 366.328 1036.53 370.073 1037.35 373.93C1037.44 374.683 1037.74 375.398 1038.21 375.995C1038.34 376.132 1038.5 376.242 1038.67 376.317C1038.85 376.392 1039.03 376.43 1039.22 376.43C1039.41 376.43 1039.6 376.392 1039.78 376.317C1039.95 376.242 1040.11 376.132 1040.23 375.995C1040.39 375.737 1040.47 375.444 1040.48 375.146C1040.65 371.819 1040.06 368.498 1038.75 365.422C1037.91 362.973 1036.75 360.637 1035.31 358.472V358.472Z" fill="black"/>
<path d="M1028.62 380.987C1028.79 381.067 1028.99 381.085 1029.17 381.038C1029.35 380.99 1029.51 380.88 1029.62 380.727C1031.88 377.594 1035.09 375.226 1038.79 373.954C1038.99 373.894 1039.16 373.76 1039.26 373.581C1039.35 373.402 1039.38 373.192 1039.32 372.998C1039.29 372.903 1039.24 372.814 1039.17 372.736C1039.11 372.659 1039.03 372.595 1038.94 372.548C1038.85 372.501 1038.75 372.471 1038.65 372.462C1038.55 372.452 1038.44 372.462 1038.35 372.491C1034.28 373.852 1030.77 376.439 1028.32 379.877C1028.2 380.047 1028.16 380.253 1028.2 380.451C1028.25 380.65 1028.36 380.825 1028.53 380.939L1028.62 380.987Z" fill="#E0E0E0"/>
<path d="M1027.59 376.031C1027.66 376.085 1027.74 376.129 1027.82 376.16C1028.15 376.278 1028.32 376.16 1028.49 375.865C1028.88 375.312 1029.32 374.792 1029.8 374.308C1030.69 373.421 1031.66 372.629 1032.72 371.948C1034.15 371.018 1035.69 370.28 1037.32 369.753L1037.83 369.6C1038.03 369.549 1038.2 369.425 1038.3 369.253C1038.41 369.081 1038.44 368.875 1038.4 368.679C1038.37 368.582 1038.33 368.49 1038.26 368.409C1038.2 368.328 1038.12 368.26 1038.04 368.209C1037.95 368.157 1037.85 368.123 1037.75 368.109C1037.64 368.094 1037.54 368.1 1037.44 368.125C1036.32 368.406 1035.24 368.802 1034.21 369.305C1031.96 370.357 1029.95 371.828 1028.28 373.635C1027.83 374.119 1027.19 374.733 1027.3 375.441C1027.32 375.666 1027.42 375.876 1027.59 376.031V376.031Z" fill="#E0E0E0"/>
<path d="M1026.15 372.066C1026.65 372.443 1027.06 371.665 1027.36 371.322C1027.75 370.799 1028.18 370.305 1028.65 369.847C1029.52 369.02 1030.47 368.284 1031.5 367.653C1032.78 366.858 1034.16 366.224 1035.6 365.765H1035.78C1035.96 365.697 1036.11 365.567 1036.2 365.398C1036.29 365.23 1036.31 365.035 1036.26 364.852C1036.21 364.669 1036.1 364.51 1035.93 364.406C1035.77 364.302 1035.57 364.261 1035.38 364.29C1034.27 364.601 1033.19 365.028 1032.16 365.564C1029.98 366.631 1028.05 368.13 1026.49 369.965C1026.29 370.146 1026.13 370.365 1026.01 370.608C1025.9 370.852 1025.84 371.115 1025.84 371.381C1025.85 371.612 1025.93 371.833 1026.09 372.007C1026.11 372.028 1026.13 372.048 1026.15 372.066V372.066Z" fill="#E0E0E0"/>
<path d="M1024.42 368.337C1024.52 368.4 1024.63 368.441 1024.75 368.455C1025.09 368.455 1025.19 368.113 1025.35 367.877C1025.52 367.608 1025.7 367.348 1025.9 367.098C1026.26 366.605 1026.67 366.14 1027.11 365.706C1027.93 364.915 1028.82 364.204 1029.78 363.582C1030.92 362.835 1032.13 362.214 1033.41 361.729H1033.47C1033.57 361.697 1033.66 361.647 1033.74 361.581C1033.81 361.515 1033.88 361.434 1033.92 361.344C1033.97 361.254 1033.99 361.156 1034 361.056C1034 360.956 1033.99 360.856 1033.95 360.761C1033.89 360.571 1033.74 360.415 1033.56 360.327C1033.37 360.239 1033.16 360.225 1032.96 360.289C1031.84 360.694 1030.76 361.203 1029.74 361.812C1027.63 362.999 1025.8 364.608 1024.37 366.532C1024.13 366.808 1023.95 367.135 1023.86 367.487C1023.83 367.648 1023.86 367.815 1023.94 367.959C1024.01 368.063 1024.1 368.155 1024.2 368.231L1024.42 368.337Z" fill="#E0E0E0"/>
<path d="M1027.97 355.522C1027.85 355.499 1027.74 355.499 1027.63 355.522C1027.29 355.581 1027.28 355.971 1027.19 356.23C1027.11 356.49 1026.97 356.82 1026.85 357.115C1026.61 357.679 1026.32 358.227 1026.01 358.755C1025.42 359.724 1024.73 360.63 1023.95 361.458C1023.04 362.458 1022.02 363.353 1020.9 364.124V364.124C1020.81 364.179 1020.74 364.25 1020.68 364.333C1020.63 364.415 1020.59 364.508 1020.57 364.606C1020.55 364.703 1020.55 364.804 1020.57 364.901C1020.59 364.999 1020.62 365.092 1020.68 365.175C1020.74 365.258 1020.81 365.329 1020.89 365.384C1020.98 365.44 1021.07 365.479 1021.17 365.498C1021.27 365.518 1021.38 365.518 1021.48 365.499C1021.58 365.48 1021.67 365.442 1021.76 365.387C1022.74 364.731 1023.65 363.98 1024.48 363.145C1026.23 361.478 1027.6 359.467 1028.5 357.245C1028.66 356.919 1028.75 356.559 1028.75 356.195C1028.74 356.032 1028.67 355.879 1028.56 355.758C1028.47 355.667 1028.35 355.599 1028.23 355.558L1027.97 355.522Z" fill="#E0E0E0"/>
<path d="M968.155 251.257C970.986 261.11 973.31 272.745 972.862 291.92C972.414 311.095 972.922 328.3 972.922 328.3C972.922 328.3 970.357 336.158 953.974 338.105C937.59 340.052 931.153 334.884 931.153 334.884L928.648 311.52L921.776 329.22C921.776 329.22 914.141 331.084 901.085 326.86C888.029 322.636 882.935 313.243 882.935 313.243C882.935 313.243 894.526 266.043 899.56 255.104L968.155 251.257Z" fill="#455A64"/>
<path d="M928.648 311.52L927.136 296.499C927.136 296.499 912.616 297.089 906.469 284.215C906.469 284.215 907.752 296.015 924.256 300.735L926.241 311.213L921.776 329.22L928.648 311.52Z" fill="#37474F"/>
<path d="M962.77 336.158C964.138 309.88 961.657 270.432 957.289 257.594L954.131 260.78C959.08 279.389 960.181 319.084 959.31 337.173C960.481 336.895 961.636 336.556 962.77 336.158V336.158Z" fill="#00BFA5"/>
<path d="M961.077 260.013C966.001 278.48 966.219 316.877 965.239 335.144C966.476 334.578 967.655 333.898 968.76 333.114C970.091 306.883 968.53 269.394 964.247 256.839L961.077 260.013Z" fill="#00BFA5"/>
<path d="M856.787 129.045C858.595 134.325 861.321 139.262 864.845 143.641C880.841 162.309 897.043 172.127 905.295 188.717C914.77 187.537 927.075 171.537 919.465 162.368C911.176 159.489 880.285 127.546 877.417 122.897C874.803 118.047 866.031 95.757 863.974 87.3318C863.664 85.9186 863.888 84.4438 864.603 83.1782C866.612 79.473 866.358 75.5082 867.265 71.7676C867.979 68.8412 869.262 67.4842 868.669 67.0476C867.919 66.5913 867.02 66.4277 866.152 66.5896C865.284 66.7515 864.51 67.2269 863.986 67.9208C862.639 69.7776 861.472 71.7528 860.501 73.8208C860.222 70.4405 860.198 67.0448 860.429 63.661C860.937 55.8612 859.098 50.0674 850.24 55.0234C844.687 58.1268 841.577 66.1036 844.541 80.358C845.4 84.4526 846.961 94.0224 848.462 99.9106C851.257 110.79 852.89 119.18 856.787 129.045Z" fill="#B16668"/>
<path d="M924.438 162.392C920.687 160.657 916.185 159.253 911.237 155.312C906.07 151.205 899.657 146.556 899.657 146.556C899.657 146.556 888.392 155.489 888.658 168.681C892.809 172.75 896.412 177.318 899.379 182.275C901.616 186.106 903.371 190.187 904.606 194.429C904.606 194.429 917.057 196.789 919.332 183.714C920.53 176.501 922.236 169.376 924.438 162.392V162.392Z" fill="#00BFA5"/>
<path d="M904.63 224.483C904.17 220.625 904.291 213.462 904.206 211.503C893.764 202.807 897.721 193.485 901.024 185.968C907.643 170.958 914.334 162.297 920.917 162.25L939.067 162.769C948.444 162.934 959.274 163.442 961.681 163.843C967.816 164.87 970.672 170.923 971.361 177.212C972.075 184.08 973.721 184.611 972.571 196.092C972.571 196.092 968.349 207.892 964.573 218.347C964.573 218.347 963.206 226.053 964.573 229.64C967.09 236.283 970.708 251.694 971.966 262.892C971.966 262.892 965.299 272.108 935.134 272.096C913.197 272.096 896.414 260.898 896.414 260.898L904.63 224.483Z" fill="#00BFA5"/>
<path d="M968.421 185.555C968.421 186.558 968.337 187.632 968.252 188.871L901.351 185.331C901.859 184.151 902.355 183.124 902.863 182.086L968.421 185.555Z" fill="#455A64"/>
<path d="M920.953 162.285L939.103 162.805C948.48 162.97 959.31 163.477 961.718 163.878C967.852 164.905 967.368 170.333 968.01 176.599C968.327 178.38 968.493 180.184 968.506 181.991L904.509 178.9C909.954 168.303 915.52 162.333 920.953 162.285Z" fill="#455A64"/>
<path opacity="0.1" d="M958.342 229.321C958.245 228.224 958.185 227.115 958.185 226.017C958.237 222.346 958.737 218.694 959.673 215.138C961.391 208.4 965.033 200.978 963.569 197.225C962.105 193.473 958.475 187.124 960.157 174.876L970.03 171.607C970.696 173.428 971.123 175.323 971.301 177.248C972.015 184.115 973.66 184.646 972.511 196.128C972.511 196.128 968.288 207.928 964.513 218.383C964.513 218.383 963.146 226.088 964.513 229.675C967.03 236.319 970.648 251.729 971.906 262.928C971.906 262.928 965.239 272.143 935.074 272.132H934.178C946.278 269.512 958.039 261.512 959.818 248.72C960.762 242.278 958.899 235.811 958.342 229.321Z" fill="black"/>
<path opacity="0.1" d="M952.171 205.143C950.864 207.892 948.772 210.215 946.145 211.833C943.518 213.451 940.467 214.296 937.36 214.264C934.367 214.33 931.409 213.623 928.785 212.216C926.161 210.809 923.964 208.752 922.417 206.252C922.417 206.252 923.53 217.781 937.53 217.037C951.53 216.294 952.171 205.143 952.171 205.143Z" fill="black"/>
<path d="M904.727 114.897C904.434 112.886 904.414 110.847 904.666 108.831C905.221 104.219 907.5 99.9671 911.067 96.8898C917.504 91.5916 925.66 93.3498 933.331 93.7038C947.222 94.3174 961.077 99.6038 964.973 111.616C967.393 119.133 966.388 128.136 963.013 138.579C960.096 147.677 956.37 153.07 948.662 154.214L934.432 151.854C928.056 152.975 921.921 150.509 917.214 146.379C915.949 145.264 914.772 144.057 913.693 142.768C912.679 141.485 911.961 140.004 911.588 138.426C910.432 134.801 909.534 131.103 908.901 127.357C908.461 125.58 907.786 123.867 906.893 122.26C905.826 119.914 905.098 117.437 904.727 114.897V114.897Z" fill="#263238"/>
<path d="M915.617 105.775C912.059 107.663 907.449 116.041 907.207 133.954C907.014 149.14 911.914 153.058 914.407 154.226C916.899 155.394 921.8 154.91 926.579 154.309L926.241 163.406C926.241 163.406 925.611 173.13 929.435 173.767C939.853 173.13 948.638 163.867 948.638 163.867V144.491C949.892 144.914 951.244 144.975 952.533 144.665C953.821 144.355 954.99 143.688 955.898 142.745C959.528 139.063 960.738 133.965 957.858 130.838C957.095 130.098 956.163 129.544 955.138 129.223C954.113 128.902 953.025 128.822 951.962 128.99C950.9 129.158 949.893 129.569 949.025 130.19C948.157 130.811 947.452 131.623 946.968 132.561C946.968 132.561 944.173 132.691 941.571 127.546C936.893 127.885 932.232 126.698 928.322 124.171C918.557 118.189 916.367 108.843 915.617 105.775Z" fill="#B16668"/>
<path d="M927.475 129.894C927.457 130.269 927.553 130.64 927.75 130.961C927.947 131.283 928.236 131.541 928.583 131.704C928.929 131.866 929.316 131.926 929.697 131.876C930.078 131.825 930.435 131.667 930.724 131.42C931.013 131.173 931.221 130.849 931.323 130.488C931.425 130.127 931.416 129.744 931.296 129.388C931.177 129.032 930.953 128.718 930.652 128.485C930.352 128.252 929.987 128.11 929.604 128.077C929.342 128.058 929.078 128.09 928.828 128.171C928.578 128.252 928.347 128.381 928.149 128.551C927.951 128.72 927.789 128.926 927.673 129.156C927.558 129.387 927.49 129.638 927.475 129.894V129.894Z" fill="#263238"/>
<g style="mix-blend-mode:multiply" opacity="0.5">
<g style="mix-blend-mode:multiply" opacity="0.5">
<path d="M924.583 142.497L918.412 144.184C918.508 144.587 918.686 144.967 918.935 145.301C919.185 145.635 919.501 145.917 919.864 146.129C920.228 146.342 920.632 146.481 921.052 146.538C921.471 146.595 921.899 146.569 922.308 146.462C923.139 146.215 923.839 145.664 924.263 144.925C924.687 144.186 924.802 143.316 924.583 142.497Z" fill="#9A4A4D"/>
</g>
</g>
<path d="M910.014 123.334L914.068 120.797C913.911 120.532 913.701 120.301 913.451 120.118C913.2 119.936 912.914 119.804 912.609 119.732C912.305 119.661 911.989 119.65 911.68 119.701C911.371 119.752 911.076 119.864 910.813 120.03C910.271 120.376 909.887 120.912 909.738 121.526C909.59 122.141 909.688 122.788 910.014 123.334Z" fill="#263238"/>
<path d="M930.451 123.286L934.88 125.08C935.016 124.802 935.092 124.501 935.104 124.193C935.116 123.886 935.064 123.58 934.951 123.293C934.838 123.005 934.666 122.744 934.446 122.524C934.225 122.304 933.961 122.13 933.67 122.012C933.068 121.786 932.4 121.792 931.803 122.029C931.205 122.266 930.722 122.715 930.451 123.286V123.286Z" fill="#263238"/>
<path d="M910.898 128.891C910.844 129.403 910.999 129.914 911.33 130.314C911.661 130.715 912.141 130.971 912.664 131.027C913.193 131.057 913.712 130.883 914.11 130.543C914.508 130.203 914.754 129.725 914.794 129.21C914.836 128.95 914.823 128.685 914.755 128.431C914.687 128.176 914.567 127.938 914.4 127.732C914.234 127.525 914.026 127.354 913.789 127.229C913.551 127.104 913.29 127.028 913.022 127.006C912.753 126.984 912.483 127.017 912.228 127.101C911.972 127.186 911.738 127.321 911.539 127.498C911.339 127.674 911.179 127.89 911.069 128.129C910.959 128.369 910.901 128.629 910.898 128.891V128.891Z" fill="#263238"/>
<g style="mix-blend-mode:multiply" opacity="0.5">
<g style="mix-blend-mode:multiply" opacity="0.5">
<path d="M920.324 128.124L919.586 139.594L913.463 137.505L920.324 128.124Z" fill="#9A4A4D"/>
</g>
</g>
<g style="mix-blend-mode:multiply" opacity="0.5">
<g style="mix-blend-mode:multiply" opacity="0.5">
<path d="M926.579 154.309C931.601 153.837 941.995 151.323 943.749 147.406C943.031 149.394 941.705 151.119 939.95 152.35C936.78 154.804 926.47 157.341 926.47 157.341L926.579 154.309Z" fill="#9A4A4D"/>
</g>
</g>
<path d="M946.98 132.561L946.678 140.55C945.202 140.494 943.809 139.871 942.805 138.816C941.8 137.761 941.265 136.36 941.317 134.921L941.583 127.546L946.98 132.561Z" fill="#263238"/>
<path d="M963.605 273.654C961.972 274.02 958.693 274.35 958.209 272.379C957.725 270.409 960.447 270.279 962.468 268.603C964.645 266.702 966.936 264.929 969.329 263.293C972.378 261.346 976.141 261.335 977.666 259.01C979.239 257.122 988.374 231.528 990.782 223.87C982.76 212.99 974.701 202.205 968.748 193.933C968.748 193.933 960.714 176.634 962.057 165.07C967.465 163.89 975.935 165.401 984.817 176.304C992.719 185.773 999.994 195.725 1006.6 206.099C1014.11 218.135 1014.8 217.899 1010.72 229.05C1006.81 239.752 997.667 259.116 992.573 267.518C988.265 274.669 986.898 277.135 983.147 282.067C979.747 286.539 972.801 291.189 969.159 292.003C963.751 293.183 956.466 291.731 956.466 286.504C956.466 281.277 966.703 276.899 968.687 271.766C967.059 272.553 965.358 273.185 963.605 273.654Z" fill="#B16668"/>
<path d="M961.669 163.878C961.669 163.878 973.261 163.737 976.601 166.238C981.102 169.542 986.704 176.953 989.911 181.036C993.117 185.118 998.381 191.349 998.381 191.349C998.381 191.349 992.5 206.181 978.198 208.482L964.586 191.738C961.222 188.245 958.245 177.094 961.669 163.878Z" fill="#00BFA5"/>
<path d="M974.677 110.295C974.278 109.917 973.866 109.563 973.467 109.209C971.253 107.184 968.347 106.031 965.311 105.976C962.891 106.082 957.979 108.796 956.684 105.362C956.442 104.553 956.442 103.693 956.684 102.884C958.1 97.1612 963.944 95.1434 969.413 95.344C979.614 95.7098 986.136 104.572 994.158 109.41C997.089 111.005 1000.38 111.853 1003.74 111.876C1007.17 112.03 1010.6 111.745 1013.95 111.026C1017.49 110.259 1020.92 109.008 1024.52 108.584C1028.11 108.159 1032.06 108.666 1034.75 111.026C1036.2 112.414 1037.21 114.166 1037.69 116.086C1038.16 118.006 1038.08 120.017 1037.45 121.894C1036.13 125.657 1033.58 128.894 1030.19 131.11C1026.79 133.459 1022.95 135.125 1018.88 136.011C1014.82 136.896 1010.61 136.983 1006.51 136.266C998.264 134.76 990.823 130.47 985.494 124.148C981.683 119.676 978.924 114.307 974.677 110.295Z" fill="#263238"/>
<path d="M957.979 102.141C957.423 101.986 956.903 101.726 956.45 101.375C955.997 101.024 955.62 100.59 955.339 100.097C955.058 99.6037 954.879 99.0615 954.813 98.5011C954.747 97.9408 954.795 97.3732 954.954 96.8308C955.113 96.2885 955.38 95.782 955.739 95.3402C956.099 94.8984 956.544 94.53 957.05 94.2561C957.556 93.9822 958.112 93.808 958.686 93.7437C959.261 93.6793 959.843 93.7259 960.399 93.8808L957.979 102.141Z" fill="#263238"/>
<path d="M936.09 323.934C936.053 323.883 936.029 323.825 936.018 323.763C936.008 323.702 936.012 323.639 936.029 323.58C936.064 323.459 936.141 323.355 936.247 323.285L940.398 320.748L940.712 320.571C940.818 320.522 940.935 320.501 941.051 320.512L942.418 320.653C942.546 320.668 942.662 320.73 942.743 320.827C942.825 320.924 942.864 321.048 942.854 321.172L941.644 332.288C941.626 332.41 941.561 332.521 941.462 332.598C941.363 332.674 941.237 332.711 941.111 332.701L939.684 332.559C939.555 332.544 939.438 332.481 939.357 332.382C939.318 332.335 939.289 332.28 939.272 332.221C939.256 332.162 939.252 332.101 939.26 332.04L940.18 323.544L937.469 325.196C937.363 325.256 937.239 325.276 937.118 325.255C936.99 325.218 936.879 325.139 936.804 325.031L936.09 323.934Z" fill="#00BFA5"/>
<path d="M954.119 326.412C954.119 326.624 954.119 326.872 954.119 327.131L954.022 327.946L953.937 328.748C953.937 329.019 953.877 329.255 953.841 329.468C953.742 330.094 953.571 330.708 953.332 331.297C953.115 331.823 952.785 332.297 952.364 332.689C951.916 333.078 951.382 333.361 950.804 333.515C950.082 333.701 949.329 333.745 948.589 333.645C947.841 333.584 947.11 333.388 946.435 333.067C945.901 332.784 945.444 332.379 945.105 331.887C944.775 331.419 944.552 330.888 944.451 330.329C944.34 329.706 944.304 329.072 944.342 328.441C944.342 328.005 944.415 327.509 944.475 326.954C944.536 326.4 944.596 325.904 944.669 325.468C944.767 324.836 944.942 324.218 945.189 323.627C945.406 323.094 945.736 322.611 946.157 322.211C946.599 321.811 947.129 321.516 947.706 321.349C948.43 321.153 949.188 321.105 949.932 321.208C950.677 321.27 951.403 321.466 952.074 321.786C952.615 322.065 953.076 322.471 953.417 322.966C953.747 323.433 953.97 323.965 954.071 324.524C954.161 325.149 954.178 325.783 954.119 326.412ZM946.677 328.654C946.623 329.338 946.761 330.023 947.077 330.636C947.268 330.898 947.52 331.113 947.812 331.262C948.105 331.412 948.429 331.492 948.759 331.497C949.082 331.563 949.416 331.552 949.734 331.466C950.052 331.38 950.344 331.22 950.586 331.002C951.041 330.472 951.327 329.824 951.409 329.137C951.481 328.701 951.542 328.229 951.602 327.698C951.663 327.167 951.699 326.683 951.723 326.246C951.784 325.562 951.645 324.875 951.324 324.264C951.132 324.002 950.88 323.787 950.588 323.638C950.296 323.488 949.972 323.408 949.642 323.403C949.318 323.337 948.983 323.348 948.664 323.437C948.346 323.525 948.055 323.688 947.815 323.91C947.362 324.437 947.076 325.08 946.992 325.763C946.92 326.187 946.859 326.671 946.798 327.202C946.738 327.733 946.702 328.217 946.677 328.654Z" fill="#00BFA5"/>
<path d="M798.271 363.015C802.397 354.909 804.188 347.935 803.752 343.085C801.683 320.476 798.912 290.964 796.565 274.031C795.004 262.81 791.931 250.431 787.139 229.191C787.139 224.908 786.474 218.005 786.474 218.005L736.936 219.397C727.178 238.543 721.369 259.37 719.839 280.698C718.302 299.307 714.793 318.458 714.176 328.559C702.282 333.444 696.026 340.218 690.46 345.162C680.611 353.941 655.951 379.818 650.808 381.836L650.494 382.131C648.231 384.491 645.085 395.029 642.701 401.389C641.104 405.66 640.027 412.481 642.81 417.909C645.46 423.089 648.667 424.505 650.228 418.983C650.506 417 650.748 415.041 651.014 413.212C651.861 407.56 658.189 395.89 669.563 388.621C675.178 385.081 706.275 365.918 733.04 352.643C740.784 348.796 744.644 343.451 748.274 335.757C753.005 325.715 761.1 305.372 761.1 305.372L770.03 349.28C764.572 357.729 761.245 364.986 757.554 381.718C754.137 396.502 749.69 411.042 744.244 425.237C743.918 426.181 743.603 427.125 743.276 428.069C742.871 429.568 742.382 431.045 741.812 432.494C740.872 434.208 740.28 436.083 740.07 438.016C739.94 439.928 740.297 441.841 741.111 443.586C741.583 444.577 742.2 445.509 742.635 446.524C743.507 448.88 743.753 451.413 743.349 453.887C743.083 456.377 742.563 458.843 742.551 461.333C742.504 464.998 743.723 468.572 746.011 471.481C747.162 472.915 748.604 474.102 750.247 474.969C751.889 475.836 753.697 476.364 755.558 476.519C756.967 476.677 758.39 476.383 759.611 475.682C760.476 475.012 761.143 474.13 761.543 473.127C761.943 472.123 762.061 471.034 761.886 469.97C761.519 467.855 760.889 465.79 760.011 463.823C759.187 461.552 758.572 459.214 758.172 456.837C757.452 452.231 757.185 447.569 757.373 442.913C757.47 438.559 757.204 433.78 759.515 429.933C759.539 429.85 786.449 386.297 798.271 363.015Z" fill="#FFA8A7"/>
<path d="M759.515 429.886C759.515 429.886 782.045 393.424 794.931 369.399C787.429 370.839 770.538 364.962 764.996 358.154C762.213 363.959 759.962 370.839 757.555 381.754C754.137 396.538 749.69 411.078 744.245 425.272C743.918 426.216 743.603 427.16 743.277 428.104C742.871 429.604 742.382 431.081 741.812 432.529C740.876 434.232 740.285 436.095 740.07 438.016C739.94 439.928 740.297 441.841 741.111 443.586C741.583 444.577 742.2 445.509 742.635 446.524C743.507 448.88 743.753 451.413 743.349 453.887C743.083 456.377 742.563 458.843 742.551 461.333C742.504 464.998 743.723 468.572 746.011 471.481C747.162 472.915 748.604 474.102 750.247 474.969C751.889 475.836 753.697 476.364 755.558 476.519C756.967 476.677 758.39 476.383 759.612 475.682C760.476 475.012 761.143 474.13 761.543 473.127C761.943 472.123 762.061 471.034 761.886 469.97C761.519 467.855 760.889 465.79 760.011 463.823C759.187 461.552 758.572 459.214 758.172 456.837C757.452 452.231 757.185 447.569 757.373 442.913C757.47 438.559 757.204 433.78 759.515 429.886Z" fill="#37474F"/>
<path d="M764.996 358.154C764.004 360.23 763.072 362.461 762.177 364.939C766.012 368.619 770.578 371.495 775.595 373.39C780.612 375.286 785.973 376.16 791.35 375.96C792.56 373.706 793.77 371.499 794.98 369.399C787.429 370.839 770.538 364.962 764.996 358.154Z" fill="#00BFA5"/>
<path d="M737.251 434.936C736.476 435.88 735.085 437.839 735.242 438.925C735.399 440.01 737.42 445.58 737.662 451.338C737.88 456.436 735.593 466.124 740.627 473.027C745.055 479.092 749.097 480.508 752.727 481.18C754.146 481.525 755.629 481.534 757.052 481.205C758.475 480.877 759.796 480.221 760.906 479.292C760.906 479.292 764.125 476.484 762.697 474.313C761.269 472.142 737.251 434.936 737.251 434.936Z" fill="#37474F"/>
<path d="M736.924 435.42C737.104 434.004 737.749 432.684 738.763 431.656C740.264 430.063 741.897 428.706 742.49 426.546C742.696 425.768 742.877 424.328 743.845 424.068H744.801L744.063 426.204C744.474 427.089 745.273 429.142 745.648 430.051C746.531 432.411 745.43 434.877 747.173 436.942C747.294 434.323 747.403 431.302 749.181 431.325C750.391 431.325 752.521 432.93 754.941 433.272C757.361 433.615 759.273 433.131 760.217 433.473C761.16 433.815 760.628 434.995 760.023 437.697C759.243 440.758 758.801 443.891 758.704 447.043C758.898 449.545 759.176 452.129 759.551 454.607C760.991 464.106 764.524 469.003 763.726 474.112C762.891 479.422 754.312 481.287 748.141 476.685C737.65 468.861 739.816 460.991 739.997 455.161C740.216 451.406 739.861 447.64 738.945 443.987C738.025 440.482 737.009 438.712 736.924 435.42Z" fill="#00BFA5"/>
<path opacity="0.4" d="M736.924 435.42C737.104 434.004 737.749 432.684 738.763 431.656C740.264 430.063 741.897 428.706 742.49 426.546C742.696 425.768 742.877 424.328 743.845 424.068H744.801L744.063 426.204C744.474 427.089 745.273 429.142 745.648 430.051C746.531 432.411 745.43 434.877 747.173 436.942C747.294 434.323 747.403 431.302 749.181 431.325C750.391 431.325 752.521 432.93 754.941 433.272C757.361 433.615 759.273 433.131 760.217 433.473C761.16 433.815 760.628 434.995 760.023 437.697C759.243 440.758 758.801 443.891 758.704 447.043C758.898 449.545 759.176 452.129 759.551 454.607C760.991 464.106 764.524 469.003 763.726 474.112C762.891 479.422 754.312 481.287 748.141 476.685C737.65 468.861 739.816 460.991 739.997 455.161C740.216 451.406 739.861 447.64 738.945 443.987C738.025 440.482 737.009 438.712 736.924 435.42Z" fill="black"/>
<path opacity="0.15" d="M742.49 426.511C742.49 426.511 742.49 426.511 742.49 426.582C742.495 426.621 742.495 426.661 742.49 426.7C742.705 428.015 743.004 429.315 743.385 430.594C743.724 432.128 743.942 433.685 744.172 435.231C744.329 436.317 744.402 437.402 744.462 438.5C744.523 439.597 744.559 440.482 744.547 441.485C744.474 446.205 743.761 449.969 744.971 456.011C746.181 462.053 747.923 462.643 749.169 461.911C750.416 461.179 749.266 459.551 748.08 454.276C746.87 448.707 747.862 442.618 747.245 436.895C746.815 436.417 746.515 435.841 746.374 435.219V435.219C745.951 433.556 746.374 431.738 745.721 430.039C745.382 429.131 744.511 427.077 744.136 426.192L744.874 424.057H743.918C743.313 424.222 743.022 424.847 742.829 425.473C742.647 425.838 742.563 426.216 742.49 426.511Z" fill="black"/>
<path opacity="0.15" d="M745.926 467.209C749.157 469.038 751.105 468.613 751.033 465.498C750.863 463.297 750.203 461.158 749.097 459.232L757.567 459.586C757.567 459.586 757.022 465.25 758.777 466.666C759.817 467.504 761.281 466.194 762.128 464.519C763.338 468.248 764.294 471.127 763.834 474.077C763 479.387 754.421 481.251 748.25 476.649C739.465 470.1 739.562 463.516 739.925 458.123C739.695 461.38 742.696 465.38 745.926 467.209Z" fill="black"/>
<path opacity="0.15" d="M759.95 437.91C759.252 440.882 758.846 443.913 758.74 446.96C758.934 449.462 759.212 452.046 759.587 454.524C759.829 456.141 760.144 457.628 760.483 459.008C760.419 459.774 760.152 460.51 759.708 461.144C758.631 462.076 758.16 461.97 757.555 459.586C756.889 456.896 756.865 442.111 759.974 437.91H759.95Z" fill="black"/>
<path d="M759.672 460.259C759.593 460.403 759.47 460.519 759.321 460.591C759.171 460.662 759.002 460.687 758.837 460.66C755.142 460.082 751.38 460.027 747.669 460.495C747.47 460.514 747.272 460.458 747.114 460.339C746.956 460.221 746.85 460.048 746.817 459.856C746.785 459.664 746.829 459.467 746.94 459.305C747.051 459.143 747.22 459.029 747.415 458.985C751.303 458.483 755.245 458.543 759.115 459.162C759.319 459.199 759.498 459.313 759.616 459.478C759.734 459.644 759.78 459.848 759.745 460.047C759.731 460.121 759.707 460.192 759.672 460.259V460.259Z" fill="#E0E0E0"/>
<path d="M759.43 456.353C759.344 456.517 759.199 456.645 759.023 456.713C758.847 456.78 758.652 456.782 758.474 456.719C754.751 455.491 750.728 455.429 746.967 456.542C746.868 456.587 746.759 456.612 746.65 456.614C746.54 456.617 746.431 456.596 746.329 456.555C746.228 456.513 746.137 456.452 746.061 456.374C745.986 456.296 745.928 456.204 745.891 456.102C745.855 456.001 745.84 455.894 745.849 455.787C745.858 455.68 745.889 455.576 745.942 455.482C745.994 455.388 746.066 455.306 746.153 455.24C746.24 455.175 746.34 455.128 746.447 455.102C750.547 453.865 754.944 453.927 759.007 455.279C759.2 455.351 759.357 455.493 759.445 455.676C759.533 455.859 759.545 456.068 759.478 456.259L759.43 456.353Z" fill="#E0E0E0"/>
<path d="M759.43 452.648C759.339 452.825 759.18 452.961 758.988 453.025C758.795 453.089 758.585 453.076 758.402 452.99C754.61 451.4 750.377 451.117 746.398 452.188C746.297 452.233 746.187 452.257 746.076 452.257C745.964 452.258 745.854 452.235 745.752 452.191C745.651 452.147 745.56 452.083 745.485 452.002C745.411 451.921 745.355 451.826 745.321 451.722C745.288 451.619 745.277 451.509 745.29 451.401C745.303 451.294 745.339 451.19 745.396 451.096C745.454 451.003 745.53 450.923 745.622 450.861C745.713 450.799 745.817 450.756 745.926 450.736C750.278 449.532 754.923 449.841 759.067 451.61C759.161 451.653 759.246 451.713 759.315 451.788C759.385 451.863 759.439 451.951 759.474 452.047C759.509 452.142 759.524 452.243 759.519 452.345C759.513 452.446 759.487 452.545 759.442 452.636L759.43 452.648Z" fill="#E0E0E0"/>
<path d="M759.491 448.742C759.382 448.915 759.21 449.04 759.008 449.091C758.807 449.141 758.594 449.114 758.414 449.014C752.981 445.957 746.544 447.834 746.483 447.834C746.382 447.879 746.272 447.903 746.16 447.903C746.049 447.904 745.939 447.881 745.837 447.837C745.735 447.793 745.644 447.729 745.57 447.648C745.496 447.567 745.44 447.472 745.406 447.368C745.373 447.264 745.362 447.155 745.375 447.047C745.388 446.939 745.424 446.835 745.481 446.742C745.538 446.649 745.615 446.569 745.706 446.507C745.798 446.445 745.902 446.402 746.011 446.382C746.302 446.3 753.15 444.246 759.2 447.645C759.297 447.695 759.382 447.764 759.449 447.847C759.517 447.931 759.566 448.028 759.594 448.131C759.621 448.234 759.626 448.342 759.608 448.447C759.59 448.552 759.55 448.653 759.491 448.742V448.742Z" fill="#E0E0E0"/>
<path d="M759.43 444.589V444.648C759.318 444.817 759.143 444.937 758.941 444.981C758.74 445.025 758.528 444.99 758.353 444.884C753.174 441.686 746.253 443.704 746.253 443.704C746.054 443.763 745.839 443.742 745.656 443.647C745.472 443.552 745.334 443.39 745.273 443.196C745.243 443.101 745.233 443.001 745.243 442.902C745.253 442.803 745.283 442.706 745.332 442.619C745.38 442.531 745.446 442.453 745.525 442.39C745.604 442.328 745.695 442.281 745.793 442.252C746.108 442.158 753.441 440.022 759.236 443.597C759.388 443.71 759.492 443.874 759.528 444.057C759.564 444.24 759.529 444.429 759.43 444.589V444.589Z" fill="#E0E0E0"/>
<path d="M759.72 441.025C759.611 441.196 759.436 441.318 759.234 441.365C759.033 441.411 758.82 441.378 758.644 441.273C756.824 440.319 754.83 439.723 752.774 439.521C750.719 439.318 748.643 439.513 746.665 440.093C746.472 440.166 746.257 440.162 746.068 440.082C745.878 440.001 745.73 439.85 745.654 439.662C745.579 439.474 745.583 439.265 745.666 439.08C745.749 438.895 745.903 438.75 746.096 438.677C748.29 438.016 750.598 437.789 752.884 438.01C755.17 438.231 757.387 438.895 759.406 439.963C759.499 440.011 759.582 440.077 759.649 440.157C759.716 440.237 759.765 440.33 759.795 440.429C759.824 440.528 759.833 440.632 759.82 440.734C759.807 440.837 759.773 440.936 759.72 441.025V441.025Z" fill="#E0E0E0"/>
<path d="M723.59 357.54C718.075 355.921 713.329 352.446 710.195 347.734C706.021 341.834 706.88 332.253 706.88 332.194C699.475 336.489 694.78 341.398 690.46 345.174C680.611 353.953 655.951 379.83 650.808 381.848L650.494 382.143C648.231 384.503 645.085 395.04 642.701 401.401C641.104 405.672 640.027 412.493 642.81 417.921C645.46 423.101 648.667 424.517 650.228 418.994C650.506 417.012 650.748 415.053 651.014 413.224C651.861 407.572 658.189 395.902 669.563 388.633C674.524 385.471 699.402 370.166 723.59 357.481V357.54Z" fill="#37474F"/>
<path d="M723.59 357.54C718.075 355.921 713.329 352.446 710.195 347.734C706.021 341.834 706.88 332.253 706.88 332.194C704.439 333.607 702.102 335.184 699.886 336.914C700.019 344.253 701.798 355.204 716.1 361.505C718.593 360.148 721.097 358.814 723.59 357.505V357.54Z" fill="#00BFA5"/>
<path d="M644.613 383.075C643.403 383.5 641.237 384.503 640.814 385.53C640.39 386.556 639.241 392.338 636.458 397.424C634.038 401.92 626.996 409.153 627.746 417.59C628.423 425.001 631.182 428.21 633.917 430.57C634.962 431.571 636.239 432.312 637.638 432.733C639.038 433.154 640.521 433.242 641.963 432.989C641.963 432.989 646.198 432.151 646.089 429.579C645.98 427.007 644.613 383.075 644.613 383.075Z" fill="#37474F"/>
<path d="M644.105 383.299C644.989 382.154 646.235 381.325 647.65 380.939C649.756 380.302 651.885 379.948 653.507 378.367C654.087 377.801 654.995 376.656 655.927 376.904C656.011 376.904 656.786 377.329 656.786 377.329L655.043 378.815C654.947 379.783 654.596 381.966 654.414 382.922C653.966 385.341 651.716 386.969 652.151 389.612C653.616 387.418 655.273 384.892 656.798 385.754C657.802 386.356 658.843 388.786 660.755 390.273C662.666 391.76 664.566 392.291 665.195 393.058C665.824 393.825 664.76 394.568 662.775 396.598C660.485 398.843 658.456 401.328 656.725 404.008C655.6 406.262 654.499 408.622 653.531 410.935C649.901 419.844 650.349 425.815 647.009 429.815C643.669 433.815 635.163 431.349 632.235 424.34C627.25 412.41 633.203 406.64 636.373 401.755C638.495 398.622 640.127 395.197 641.213 391.595C642.399 388.22 642.447 386.214 644.105 383.299Z" fill="#00BFA5"/>
<path opacity="0.4" d="M644.105 383.299C644.989 382.154 646.235 381.325 647.65 380.939C649.756 380.302 651.885 379.948 653.507 378.367C654.087 377.801 654.995 376.656 655.927 376.904C656.011 376.904 656.786 377.329 656.786 377.329L655.043 378.815C654.947 379.783 654.596 381.966 654.414 382.922C653.966 385.341 651.716 386.969 652.151 389.612C653.616 387.418 655.273 384.892 656.798 385.754C657.802 386.356 658.843 388.786 660.755 390.273C662.666 391.76 664.566 392.291 665.195 393.058C665.824 393.825 664.76 394.568 662.775 396.598C660.485 398.843 658.456 401.328 656.725 404.008C655.6 406.262 654.499 408.622 653.531 410.935C649.901 419.844 650.349 425.815 647.009 429.815C643.669 433.815 635.163 431.349 632.235 424.34C627.25 412.41 633.203 406.64 636.373 401.755C638.495 398.622 640.127 395.197 641.213 391.595C642.399 388.22 642.447 386.214 644.105 383.299Z" fill="black"/>
<path opacity="0.15" d="M653.507 378.391L653.398 378.485C652.919 379.723 652.515 380.988 652.188 382.273C651.692 383.76 651.074 385.211 650.457 386.662C650.034 387.677 649.538 388.657 649.017 389.624C648.497 390.592 648.074 391.382 647.541 392.232C645.012 396.303 642.459 399.17 640.366 404.976C638.273 410.782 639.471 412.162 640.947 412.056C642.423 411.95 642.229 410.109 643.96 404.976C645.787 399.56 649.828 394.816 652.272 389.577C652.155 388.951 652.196 388.307 652.393 387.701V387.701C652.889 386.061 654.184 384.704 654.511 382.922C654.692 381.966 655.043 379.783 655.14 378.815L656.882 377.329L656.761 377.27L656.64 377.199L656.338 377.045L656.193 376.986C656.139 376.954 656.082 376.926 656.023 376.904C655.709 376.874 655.392 376.921 655.1 377.041C654.809 377.16 654.552 377.348 654.354 377.588C653.991 377.883 653.724 378.178 653.507 378.391Z" fill="black"/>
<path opacity="0.15" d="M635.345 415.183C637.172 418.357 639.071 418.959 640.632 416.233C641.627 414.25 642.168 412.08 642.217 409.873L649.32 414.333C649.32 414.333 645.896 418.959 646.658 420.965C647.118 422.204 649.078 421.803 650.651 420.776C649.744 424.576 649.09 427.549 647.166 429.862C643.681 434.028 635.32 431.396 632.392 424.387C628.218 414.392 631.715 408.764 634.812 404.327C633.021 407.1 633.505 412.009 635.345 415.183Z" fill="black"/>
<path opacity="0.15" d="M662.63 396.846C660.464 399.054 658.527 401.465 656.846 404.044C655.721 406.298 654.62 408.658 653.652 410.97C653.023 412.493 652.527 413.932 652.103 415.289C651.647 415.916 651.035 416.419 650.324 416.752C648.909 417.012 648.558 416.693 649.284 414.333C650.094 411.69 657.754 398.923 662.594 396.846H662.63Z" fill="black"/>
<path d="M650.808 415.974C650.673 416.07 650.51 416.123 650.342 416.123C650.175 416.123 650.012 416.07 649.877 415.974C646.988 413.651 643.773 411.744 640.33 410.31C640.137 410.236 639.982 410.091 639.9 409.906C639.817 409.721 639.813 409.512 639.888 409.324C639.963 409.137 640.112 408.986 640.302 408.905C640.491 408.824 640.706 408.82 640.898 408.894C644.51 410.369 647.878 412.357 650.893 414.794C651.049 414.926 651.145 415.113 651.161 415.314C651.177 415.515 651.111 415.713 650.978 415.867C650.927 415.911 650.87 415.947 650.808 415.974V415.974Z" fill="#E0E0E0"/>
<path d="M652.575 412.457C652.416 412.557 652.224 412.597 652.037 412.569C651.85 412.541 651.679 412.446 651.559 412.304C648.982 409.409 645.543 407.371 641.721 406.475C641.517 406.431 641.34 406.31 641.228 406.138C641.115 405.967 641.077 405.759 641.122 405.56C641.167 405.361 641.291 405.188 641.467 405.079C641.643 404.969 641.856 404.932 642.06 404.976C646.24 405.931 649.999 408.158 652.793 411.336C652.925 411.492 652.988 411.691 652.97 411.892C652.952 412.093 652.854 412.279 652.696 412.41L652.575 412.457Z" fill="#E0E0E0"/>
<path d="M654.547 409.307C654.374 409.41 654.167 409.445 653.969 409.403C653.77 409.362 653.596 409.247 653.482 409.082C651.037 405.843 647.533 403.512 643.548 402.474C643.347 402.427 643.172 402.303 643.063 402.131C642.955 401.959 642.92 401.751 642.968 401.554C642.99 401.457 643.033 401.365 643.092 401.284C643.151 401.203 643.226 401.135 643.313 401.082C643.399 401.029 643.496 400.994 643.596 400.978C643.697 400.962 643.8 400.965 643.899 400.988C648.284 402.092 652.135 404.655 654.789 408.233C654.906 408.4 654.949 408.606 654.911 408.805C654.872 409.004 654.755 409.18 654.584 409.295L654.547 409.307Z" fill="#E0E0E0"/>
<path d="M656.58 405.92C656.49 405.971 656.391 406.003 656.288 406.017C656.186 406.03 656.081 406.023 655.981 405.997C655.881 405.97 655.787 405.925 655.705 405.863C655.623 405.801 655.555 405.725 655.503 405.637C652.406 400.303 645.823 398.781 645.823 398.757C645.724 398.735 645.63 398.694 645.547 398.636C645.464 398.578 645.393 398.505 645.339 398.421C645.285 398.336 645.249 398.242 645.232 398.144C645.216 398.046 645.219 397.946 645.242 397.849C645.264 397.751 645.305 397.658 645.364 397.577C645.423 397.495 645.498 397.425 645.585 397.372C645.672 397.32 645.769 397.284 645.87 397.269C645.971 397.253 646.075 397.258 646.174 397.282C646.464 397.282 653.434 398.958 656.895 404.882C656.945 404.97 656.977 405.067 656.989 405.167C657.001 405.267 656.992 405.369 656.962 405.466C656.933 405.562 656.884 405.652 656.818 405.73C656.753 405.809 656.672 405.873 656.58 405.92V405.92Z" fill="#E0E0E0"/>
<path d="M658.746 402.38H658.685C658.501 402.471 658.287 402.487 658.089 402.426C657.892 402.364 657.728 402.229 657.633 402.05C654.826 396.728 647.832 395.052 647.771 394.97C647.671 394.949 647.576 394.909 647.492 394.851C647.408 394.794 647.337 394.721 647.283 394.636C647.229 394.551 647.192 394.456 647.177 394.358C647.161 394.259 647.165 394.158 647.19 394.061C647.213 393.964 647.255 393.872 647.315 393.791C647.374 393.71 647.449 393.642 647.536 393.589C647.622 393.536 647.719 393.501 647.819 393.485C647.92 393.468 648.023 393.472 648.122 393.495C648.437 393.565 655.878 395.347 659.012 401.294C659.071 401.382 659.111 401.48 659.129 401.583C659.148 401.686 659.144 401.791 659.119 401.893C659.094 401.995 659.048 402.09 658.984 402.174C658.92 402.258 658.839 402.328 658.746 402.38V402.38Z" fill="#E0E0E0"/>
<path d="M660.839 399.418C660.654 399.509 660.44 399.526 660.243 399.464C660.046 399.402 659.882 399.267 659.787 399.088C657.623 395.626 654.143 393.14 650.107 392.173C649.903 392.14 649.721 392.03 649.6 391.866C649.48 391.702 649.432 391.498 649.465 391.3C649.499 391.101 649.612 390.924 649.78 390.806C649.948 390.689 650.157 390.642 650.361 390.674C652.613 391.18 654.738 392.123 656.609 393.447C658.48 394.771 660.059 396.448 661.251 398.38C661.296 398.474 661.322 398.576 661.326 398.68C661.33 398.784 661.312 398.888 661.274 398.985C661.235 399.082 661.177 399.171 661.102 399.245C661.027 399.32 660.938 399.379 660.839 399.418V399.418Z" fill="#E0E0E0"/>
<path d="M731.237 233.121C726.651 242.325 722.247 253.37 719.137 272.32C716.027 291.271 713.535 309.467 713.535 309.467C713.535 309.467 713.535 316.287 729.265 321.043C744.995 325.798 756.574 320.476 756.574 320.476L760.204 310.21L762.54 317.845C762.54 317.845 769.715 320.995 783.315 319.155C796.916 317.314 803.619 308.889 803.619 308.889C803.619 308.889 794.895 250.868 789.172 239.623L731.237 233.121Z" fill="#455A64"/>
<path d="M760.338 310.21L766.69 290.28C766.69 290.28 777.58 287.826 785.953 276.226C785.953 276.226 785.953 288.121 769.013 294.186L763.605 308.641L762.745 317.809L760.338 310.21Z" fill="#37474F"/>
<path d="M731.503 309.302C731.48 309.249 731.468 309.193 731.468 309.136C731.468 309.08 731.48 309.023 731.503 308.971C731.515 308.916 731.54 308.863 731.576 308.818C731.611 308.773 731.657 308.737 731.709 308.712L735.581 306.458L735.871 306.304C735.974 306.275 736.083 306.275 736.186 306.304L737.396 306.47C737.454 306.472 737.511 306.489 737.562 306.517C737.612 306.546 737.655 306.586 737.686 306.635C737.724 306.676 737.752 306.725 737.769 306.778C737.785 306.831 737.79 306.887 737.783 306.942L736.44 317.101C736.437 317.158 736.42 317.214 736.391 317.263C736.361 317.313 736.32 317.354 736.271 317.385C736.227 317.42 736.177 317.445 736.123 317.46C736.068 317.474 736.011 317.477 735.956 317.467L734.637 317.302C734.579 317.297 734.523 317.279 734.473 317.251C734.423 317.222 734.38 317.183 734.347 317.137C734.277 317.045 734.247 316.931 734.262 316.818L735.303 309.018L732.762 310.482C732.71 310.505 732.655 310.517 732.598 310.517C732.542 310.517 732.486 310.505 732.435 310.482C732.319 310.453 732.219 310.381 732.157 310.281L731.503 309.302Z" fill="#00BFA5"/>
<path d="M743.857 318.482C743.742 318.466 743.638 318.407 743.567 318.317C743.498 318.225 743.468 318.111 743.482 317.998L743.736 316.087L738.715 315.449C738.657 315.444 738.601 315.427 738.551 315.398C738.501 315.37 738.458 315.331 738.424 315.284C738.387 315.24 738.36 315.189 738.346 315.134C738.331 315.079 738.329 315.022 738.34 314.966L738.485 313.845C738.502 313.707 738.556 313.577 738.642 313.467L738.945 313.148L744.692 307.744C744.78 307.641 744.892 307.56 745.018 307.507C745.144 307.454 745.281 307.43 745.418 307.437L746.628 307.591C746.744 307.608 746.848 307.668 746.92 307.758C746.992 307.848 747.026 307.961 747.015 308.074L746.168 314.387L747.56 314.564C747.675 314.582 747.78 314.642 747.852 314.732C747.924 314.821 747.958 314.935 747.947 315.048L747.802 316.169C747.785 316.282 747.725 316.383 747.633 316.452C747.538 316.518 747.421 316.548 747.306 316.535L745.914 316.358L745.66 318.27C745.652 318.327 745.631 318.381 745.6 318.43C745.569 318.479 745.528 318.521 745.479 318.553C745.435 318.588 745.385 318.615 745.331 318.631C745.277 318.647 745.22 318.653 745.164 318.647L743.857 318.482ZM744.003 314.116L744.45 310.729L741.28 313.762L744.003 314.116Z" fill="#00BFA5"/>
<path d="M743.301 244.909L740.772 241.239C734.044 253.275 726.917 292.829 723.59 318.93C724.582 319.367 725.671 319.804 726.857 320.217C729.107 302.623 734.915 262.621 743.301 244.909Z" fill="#00BFA5"/>
<path d="M717.141 315.06C718.116 315.89 719.169 316.629 720.287 317.267C722.622 299.189 728.369 260.367 736.597 242.927L734.02 239.292C727.498 251.033 720.553 288.958 717.141 315.06Z" fill="#00BFA5"/>
<path d="M835.975 125.198C834.373 130.196 831.801 134.846 828.4 138.898C812.755 157.86 796.081 169.2 787.829 185.791C778.354 184.611 766.049 168.61 773.672 159.43C781.948 156.551 812.839 124.608 815.719 119.971C818.321 115.121 827.093 92.8306 829.15 84.4054C829.463 82.9884 829.239 81.5089 828.521 80.24C826.512 76.5348 826.767 72.57 825.859 68.8176C825.145 65.903 823.863 64.5342 824.455 64.0976C825.204 63.64 826.102 63.4746 826.97 63.6343C827.838 63.7939 828.612 64.267 829.138 64.959C830.484 66.8164 831.651 68.7915 832.623 70.859C832.902 67.4748 832.927 64.0751 832.696 60.6874C832.187 52.8994 834.027 47.1056 842.884 52.0616C848.45 55.165 851.547 63.1418 848.583 77.3844C847.736 81.4908 845.376 89.8806 843.864 95.7688C841.069 106.684 839.871 115.321 835.975 125.198Z" fill="#FFA8A7"/>
<path d="M768.687 159.453C772.438 157.719 776.939 156.315 781.888 152.373C787.054 148.267 793.479 143.618 793.479 143.618C793.479 143.618 804.732 152.55 804.466 165.743C800.317 169.822 796.715 174.398 793.746 179.36C791.51 183.187 789.758 187.264 788.531 191.502C788.531 191.502 776.068 193.862 773.793 180.788C772.593 173.571 770.887 166.443 768.687 159.453V159.453Z" fill="#00BFA5"/>
<path d="M786.849 222.336C787.308 218.465 787.187 211.314 787.26 209.356C797.714 200.659 795.367 190.546 792.1 183.042C785.481 168.032 778.79 159.371 772.22 159.324L754.07 159.831C744.692 159.996 733.863 160.515 731.455 160.917C725.32 161.943 722.465 167.997 721.775 174.286C721.073 181.154 719.415 181.685 720.565 193.166C720.565 193.166 724.788 204.966 728.563 215.409C728.563 215.409 729.93 223.126 728.563 226.713C726.046 233.357 722.428 248.756 721.17 259.966C721.17 259.966 727.837 269.182 758.002 269.17C771.135 269.164 783.965 265.33 794.847 258.16L786.849 222.336Z" fill="#00BFA5"/>
<path d="M724.715 182.617C724.715 183.62 724.788 184.705 724.885 185.944L791.773 182.404C791.265 181.224 790.769 180.198 790.273 179.148L724.715 182.617Z" fill="#455A64"/>
<path d="M772.183 159.359L754.033 159.866C744.656 160.032 733.826 160.551 731.419 160.952C725.284 161.979 725.768 167.407 725.127 173.661C724.816 175.447 724.65 177.254 724.63 179.065L788.639 175.973C783.17 165.377 777.665 159.394 772.183 159.359Z" fill="#455A64"/>
<path opacity="0.1" d="M736.597 226.56C734.008 224.436 735.157 218.973 733.451 212.235C731.745 205.497 728.091 198.075 729.555 194.322C731.019 190.57 734.589 183.112 734.153 172.351L723.13 168.74C722.464 170.56 722.037 172.455 721.86 174.38C721.158 181.248 719.5 181.779 720.65 193.26C720.65 193.26 724.872 205.06 728.648 215.503C728.648 215.503 730.015 223.221 728.648 226.808C726.131 233.451 722.513 248.85 721.255 260.06C721.255 260.06 727.922 269.276 758.087 269.264H758.982C771.312 232.531 739.078 228.578 736.597 226.56Z" fill="black"/>
<path opacity="0.1" d="M740.953 202.205C742.261 204.962 744.358 207.291 746.992 208.912C749.627 210.532 752.686 211.375 755.8 211.338C758.794 211.403 761.752 210.696 764.376 209.29C766.999 207.883 769.196 205.826 770.744 203.326C770.744 203.326 769.63 214.854 755.631 214.099C741.631 213.344 740.953 202.205 740.953 202.205Z" fill="black"/>
<path d="M790.6 112.265C792.468 107.407 793.075 102.174 792.366 97.0314C790.499 97.5943 788.6 98.0513 786.679 98.4002C787.328 96.9245 788.063 95.4865 788.881 94.0932C789.707 92.6911 790.125 91.096 790.091 89.4794C790.049 88.6747 789.765 87.9 789.274 87.2516C788.784 86.6033 788.109 86.11 787.333 85.8332C785.895 85.6304 784.429 85.8783 783.146 86.5412C775.657 89.195 767.771 90.6263 759.805 90.7774C745.914 91.391 732.06 96.6774 728.164 108.69C725.744 116.206 727.934 126.319 731.588 135.11C735.242 143.901 740.905 150.45 744.474 151.276L758.704 148.916C765.081 150.025 771.215 147.571 775.922 143.441C777.188 142.325 778.365 141.118 779.443 139.83C780.455 138.546 781.173 137.065 781.549 135.488C782.703 131.862 783.601 128.164 784.235 124.419C784.33 123.674 784.513 122.941 784.78 122.236C785.168 121.469 785.651 120.752 786.219 120.1C788.056 117.706 789.531 115.068 790.6 112.265V112.265Z" fill="#263238"/>
<path d="M777.507 102.849C781.065 104.725 785.675 113.115 785.917 131.027C786.111 146.202 781.21 150.131 778.717 151.3C776.225 152.468 771.324 151.984 766.545 151.37L766.884 160.48C766.884 160.48 767.513 170.203 763.701 170.84C753.271 170.203 744.486 160.94 744.486 160.94V141.565C743.232 141.985 741.88 142.044 740.593 141.734C739.305 141.424 738.136 140.759 737.226 139.818C733.596 136.137 732.386 131.027 735.266 127.912C736.029 127.172 736.962 126.618 737.986 126.297C739.011 125.975 740.099 125.896 741.162 126.064C742.225 126.232 743.231 126.643 744.099 127.264C744.967 127.885 745.672 128.697 746.156 129.635C746.156 129.635 748.951 129.765 751.553 124.62C756.253 124.971 760.938 123.778 764.863 121.233C774.567 115.251 776.757 105.917 777.507 102.849Z" fill="#FFA8A7"/>
<path d="M765.649 126.956C765.678 127.211 765.654 127.468 765.58 127.713C765.506 127.959 765.383 128.187 765.217 128.386C765.052 128.585 764.847 128.749 764.616 128.871C764.385 128.992 764.132 129.067 763.871 129.092C763.468 129.14 763.061 129.07 762.7 128.89C762.339 128.71 762.041 128.43 761.845 128.084C761.649 127.738 761.563 127.343 761.599 126.949C761.635 126.555 761.791 126.181 762.046 125.874C762.301 125.568 762.645 125.342 763.033 125.227C763.421 125.113 763.835 125.113 764.222 125.23C764.609 125.346 764.952 125.572 765.206 125.88C765.461 126.188 765.615 126.562 765.649 126.956Z" fill="#263238"/>
<g style="mix-blend-mode:multiply" opacity="0.5">
<g style="mix-blend-mode:multiply" opacity="0.5">
<path d="M768.541 139.57L774.712 141.258C774.616 141.659 774.439 142.037 774.19 142.37C773.941 142.703 773.626 142.983 773.263 143.194C772.901 143.406 772.498 143.544 772.08 143.6C771.662 143.657 771.236 143.631 770.828 143.523C769.995 143.284 769.289 142.737 768.862 141.999C768.435 141.261 768.32 140.39 768.541 139.57V139.57Z" fill="#F28F8F"/>
</g>
</g>
<path d="M783.11 120.36L779.056 117.823C779.21 117.556 779.419 117.323 779.67 117.138C779.92 116.953 780.207 116.82 780.512 116.748C780.818 116.676 781.135 116.667 781.445 116.719C781.754 116.772 782.049 116.887 782.311 117.056C782.855 117.4 783.242 117.936 783.391 118.552C783.539 119.167 783.439 119.815 783.11 120.36V120.36Z" fill="#263238"/>
<path d="M762.673 120.36L758.22 122.201C758.083 121.923 758.005 121.622 757.992 121.314C757.979 121.006 758.031 120.699 758.144 120.411C758.257 120.124 758.43 119.862 758.651 119.642C758.872 119.422 759.137 119.249 759.43 119.133C760.029 118.894 760.699 118.888 761.302 119.116C761.905 119.345 762.396 119.79 762.673 120.36V120.36Z" fill="#263238"/>
<path d="M782.239 125.965C782.256 126.339 782.16 126.71 781.963 127.032C781.766 127.354 781.477 127.612 781.131 127.774C780.785 127.937 780.397 127.997 780.016 127.946C779.636 127.896 779.279 127.737 778.99 127.491C778.7 127.244 778.492 126.92 778.39 126.559C778.288 126.197 778.298 125.815 778.417 125.459C778.536 125.103 778.76 124.788 779.061 124.555C779.362 124.322 779.726 124.181 780.109 124.148C780.372 124.129 780.636 124.16 780.885 124.242C781.135 124.323 781.366 124.452 781.564 124.621C781.762 124.79 781.924 124.996 782.04 125.227C782.156 125.458 782.223 125.709 782.239 125.965Z" fill="#263238"/>
<g style="mix-blend-mode:multiply" opacity="0.5">
<g style="mix-blend-mode:multiply" opacity="0.5">
<path d="M772.813 125.198L773.539 136.668L779.673 134.579L772.813 125.198Z" fill="#F28F8F"/>
</g>
</g>
<g style="mix-blend-mode:multiply" opacity="0.5">
<g style="mix-blend-mode:multiply" opacity="0.5">
<path d="M766.545 151.37C761.523 150.91 751.129 148.385 749.375 144.479C750.093 146.464 751.419 148.186 753.174 149.412C756.345 151.878 766.654 154.415 766.654 154.415L766.545 151.37Z" fill="#F28F8F"/>
</g>
</g>
<path d="M746.181 129.635L746.483 137.612C747.215 137.587 747.934 137.422 748.6 137.126C749.266 136.829 749.865 136.407 750.363 135.884C750.862 135.361 751.249 134.747 751.503 134.078C751.757 133.408 751.872 132.696 751.843 131.983L751.577 124.62L746.181 129.635Z" fill="#263238"/>
<path d="M730.729 290.245C747.769 290.245 761.584 276.773 761.584 260.155C761.584 243.536 747.769 230.065 730.729 230.065C713.688 230.065 699.874 243.536 699.874 260.155C699.874 276.773 713.688 290.245 730.729 290.245Z" fill="#F5F5F5"/>
<path d="M736.138 245.499C731.81 245.823 727.591 246.978 723.723 248.897C723.336 252.948 723.336 257.025 723.723 261.075C727.227 262.821 730.967 264.076 734.831 264.804C734.831 264.804 740.736 260.084 742.357 255.706C741.163 251.862 739.028 248.36 736.138 245.499V245.499Z" fill="#455A64"/>
<path d="M715.459 243.788L714.587 242.101C714.527 242.171 714.479 242.254 714.418 242.337L714.273 242.514L715.096 244.118L723.566 249.086L724.485 249.759C724.51 249.7 724.543 249.644 724.582 249.594C724.641 249.518 724.71 249.451 724.788 249.393L723.832 248.697L715.459 243.788Z" fill="#455A64"/>
<path d="M733.076 232.153C732.362 232.071 731.6 231.988 730.741 231.929C726.242 231.624 721.763 232.75 717.975 235.139L716.233 236.118C716.312 236.258 716.37 236.409 716.402 236.566L718.23 235.528C721.931 233.196 726.308 232.095 730.705 232.389C731.794 232.472 732.762 232.578 733.609 232.696C733.39 232.558 733.208 232.372 733.076 232.153Z" fill="#455A64"/>
<path d="M739.114 236.118L738.703 237.44L735.92 245.416L735.254 247.104C735.411 247.135 735.565 247.178 735.714 247.234L736.367 245.57L739.162 237.581L739.574 236.248C739.416 236.223 739.262 236.179 739.114 236.118V236.118Z" fill="#455A64"/>
<path d="M753.985 255.966C753.675 256.223 753.347 256.459 753.005 256.674C749.485 256.085 745.934 255.691 742.369 255.494H742.2C741.981 255.496 741.762 255.515 741.546 255.553C741.558 255.706 741.558 255.86 741.546 256.013C741.812 255.983 742.08 255.983 742.345 256.013C745.919 256.205 749.478 256.599 753.005 257.193H753.102H753.174C753.508 256.996 753.824 256.771 754.118 256.52C754.051 256.341 754.006 256.155 753.985 255.966V255.966Z" fill="#455A64"/>
<path d="M749.532 239.257C751.42 241.015 754.941 244.307 756.381 248.862C756.497 249.22 756.582 249.587 756.635 249.959C756.779 249.896 756.929 249.845 757.083 249.806C757.03 249.443 756.949 249.084 756.841 248.732C755.364 244.012 751.783 240.708 749.859 238.915C749.629 238.714 749.435 238.525 749.266 238.36C748.885 238 748.481 237.665 748.056 237.357C748.03 237.432 747.993 237.504 747.947 237.569C747.895 237.629 747.834 237.681 747.766 237.723C748.155 238.025 748.526 238.348 748.879 238.69L749.532 239.257Z" fill="#455A64"/>
<path d="M735.085 264.804C735.085 264.615 735.327 264.001 735.641 263.175C735.46 263.266 735.263 263.326 735.061 263.352C734.782 264.119 734.625 264.65 734.601 264.745L737.626 275.943H737.698C737.783 276.002 738.763 276.675 739.889 277.406H739.997L740.506 277.288C739.61 276.722 738.691 276.108 738.086 275.66L735.085 264.804Z" fill="#455A64"/>
<path d="M756.453 266.326C756.223 266.881 755.969 267.506 755.679 268.049C753.831 271.552 751.28 274.658 748.177 277.182C747.741 277.406 746.967 277.772 746.168 278.114C746.313 278.206 746.44 278.322 746.544 278.456C747.463 278.067 748.25 277.666 748.431 277.56C751.615 274.998 754.23 271.83 756.115 268.249C756.381 267.707 756.611 267.164 756.829 266.645C756.693 266.551 756.567 266.444 756.453 266.326Z" fill="#455A64"/>
<path d="M725.054 260.06C724.618 260.284 724.134 260.556 723.59 260.874C720.342 262.98 717.282 265.348 714.442 267.954V267.954C714.321 268.143 713.934 268.804 713.498 269.689C713.618 269.819 713.727 269.957 713.825 270.102C714.2 269.347 714.563 268.674 714.829 268.214C717.641 265.614 720.668 263.246 723.88 261.134C724.473 260.78 725.006 260.497 725.465 260.261C725.322 260.207 725.184 260.14 725.054 260.06V260.06Z" fill="#455A64"/>
<path d="M731.842 282.516C731.031 282.516 730.112 282.433 729.095 282.35C724.986 282.056 721.045 280.641 717.721 278.268V278.268H717.661C717.16 278.153 716.667 278.007 716.185 277.831C716.185 277.996 716.185 278.15 716.185 278.315C716.85 278.539 717.395 278.669 717.552 278.716C720.946 281.123 724.959 282.561 729.144 282.87L731.721 283.023C731.727 282.848 731.768 282.675 731.842 282.516V282.516Z" fill="#455A64"/>
<path d="M705.646 264.32C705.809 264.287 705.978 264.287 706.142 264.32C705.995 263.796 705.877 263.264 705.791 262.727C705.467 258.766 705.666 254.78 706.384 250.868C706.528 250.151 706.71 249.443 706.928 248.744C706.815 248.756 706.702 248.756 706.589 248.744H706.42C706.226 249.397 706.057 250.07 705.912 250.762C705.182 254.724 704.982 258.762 705.319 262.774C705.404 263.317 705.512 263.836 705.646 264.32Z" fill="#455A64"/>
<path d="M730.729 232.153C733.808 233.377 736.6 235.2 738.933 237.51C742.355 237.263 745.796 237.607 749.097 238.525C748.999 237.533 748.817 236.55 748.552 235.587C744.04 232.466 738.748 230.591 733.234 230.159C732.353 230.767 731.516 231.434 730.729 232.153V232.153Z" fill="#455A64"/>
<path d="M760.64 252.791C759.46 251.307 758.103 249.964 756.599 248.791C755.713 251.613 754.52 254.335 753.041 256.91C754.268 260.586 755.218 264.344 755.885 268.155C757.575 267.824 759.231 267.346 760.834 266.727C761.879 262.13 761.813 257.359 760.64 252.791V252.791Z" fill="#455A64"/>
<path d="M710.231 280.474C710.231 280.474 715.205 280.038 717.576 278.456C717.576 278.456 716.015 273.89 714.612 268.179C711.435 266.635 708.406 264.819 705.561 262.751C705.561 262.751 703.625 264.709 703.141 270.928C704.844 274.53 707.253 277.773 710.231 280.474V280.474Z" fill="#455A64"/>
<path d="M703.77 245.617C704.135 247.516 704.965 249.302 706.19 250.821C708.532 247.763 711.687 245.389 715.313 243.953C716.039 241.019 716.981 238.14 718.133 235.339C716.611 235.164 715.078 235.109 713.547 235.174C709.483 237.848 706.131 241.428 703.77 245.617Z" fill="#455A64"/>
<path d="M748.286 277.383C744.752 277.274 741.244 276.764 737.831 275.86C735.156 278.389 732.22 280.643 729.071 282.586C729.071 282.586 731.285 286.952 733.984 288.557C737.941 288.145 741.794 287.063 745.37 285.359C746.846 282.902 747.835 280.196 748.286 277.383V277.383Z" fill="#455A64"/>
<path opacity="0.1" d="M757.3 275.459C752.134 282.598 732.229 287.106 719.536 271.046C706.843 254.986 714.176 236.531 723.408 230.926C718.464 232.103 713.895 234.456 710.109 237.773C706.322 241.09 703.436 245.268 701.708 249.937C699.979 254.605 699.461 259.618 700.201 264.529C700.94 269.44 702.914 274.096 705.946 278.083C708.978 282.069 712.975 285.262 717.579 287.378C722.183 289.493 727.253 290.465 732.336 290.206C737.418 289.948 742.357 288.467 746.71 285.896C751.064 283.325 754.698 279.744 757.288 275.471L757.3 275.459Z" fill="black"/>
<path d="M721.448 272.238C723.033 272.733 726.288 273.335 726.929 271.412C727.571 269.488 724.885 269.134 723.009 267.305C721 265.219 718.866 263.248 716.62 261.405C713.753 259.211 710.002 258.904 708.683 256.461C707.267 254.455 700.6 225.699 698.845 217.875C707.787 207.692 715.906 199.101 722.561 191.337C722.561 191.337 731.915 173.307 731.564 161.66C726.276 160.008 720.178 160.645 710.401 170.793C701.144 180.515 692.466 190.747 684.41 201.438C675.94 212.813 675.226 212.494 678.36 223.964C682.311 237.558 687.244 250.863 693.122 263.777C696.752 271.258 697.962 273.819 701.265 279.035C704.278 283.755 710.8 288.97 714.358 290.079C719.657 291.708 727.038 290.835 727.474 285.631C727.91 280.427 718.096 275.223 716.584 269.949C718.128 270.859 719.757 271.625 721.448 272.238Z" fill="#FFA8A7"/>
<path d="M732.979 160.763C732.979 160.763 723.203 159.949 718.58 163.253C713.958 166.557 711.32 168.752 702.693 177.767C699.547 181.083 695.675 185.791 695.675 185.791C695.675 185.791 700.515 199.951 714.854 202.205L728.551 188.8C731.915 185.26 736.44 173.979 732.979 160.763Z" fill="#00BFA5"/>
<path d="M882.62 90.5414C882.301 90.544 881.988 90.4625 881.713 90.3054L872.94 85.3612C872.523 85.1265 872.218 84.7398 872.094 84.2861C871.969 83.8325 872.034 83.349 872.275 82.9422C872.515 82.5354 872.912 82.2384 873.377 82.1167C873.842 81.995 874.338 82.0585 874.755 82.2932L883.528 87.2374C883.874 87.432 884.145 87.7327 884.298 88.0929C884.452 88.4532 884.479 88.8526 884.375 89.2294C884.272 89.6061 884.044 89.9389 883.726 90.1762C883.409 90.4135 883.02 90.5418 882.62 90.5414V90.5414Z" fill="#00BFA5"/>
<path d="M888.634 70.8H877.562C877.081 70.8 876.619 70.6135 876.279 70.2816C875.939 69.9497 875.747 69.4994 875.747 69.03C875.747 68.5606 875.939 68.1104 876.279 67.7784C876.619 67.4465 877.081 67.26 877.562 67.26H888.634C889.115 67.26 889.577 67.4465 889.917 67.7784C890.258 68.1104 890.449 68.5606 890.449 69.03C890.449 69.4994 890.258 69.9497 889.917 70.2816C889.577 70.6135 889.115 70.8 888.634 70.8Z" fill="#00BFA5"/>
<path d="M872.674 56.64C872.274 56.6405 871.885 56.5121 871.568 56.2748C871.25 56.0376 871.022 55.7047 870.919 55.328C870.815 54.9513 870.842 54.5518 870.996 54.1916C871.149 53.8314 871.42 53.5306 871.766 53.336L883.08 46.964C883.286 46.8478 883.514 46.7724 883.751 46.7421C883.987 46.7118 884.228 46.7273 884.458 46.7875C884.688 46.8478 884.904 46.9517 885.093 47.0934C885.283 47.235 885.441 47.4116 885.56 47.613C885.68 47.8145 885.757 48.0368 885.788 48.2674C885.819 48.498 885.803 48.7323 885.741 48.9569C885.68 49.1816 885.573 49.3921 885.428 49.5766C885.283 49.7611 885.101 49.9158 884.895 50.032L873.581 56.404C873.306 56.56 872.993 56.6415 872.674 56.64V56.64Z" fill="#00BFA5"/>
<path d="M862.171 46.1735C861.852 46.1761 861.539 46.0945 861.264 45.9374C860.862 45.7034 860.569 45.3274 860.445 44.8877C860.321 44.448 860.376 43.9787 860.598 43.5774L866.842 33.04C866.951 32.8223 867.106 32.6289 867.295 32.4718C867.485 32.3146 867.706 32.1972 867.944 32.1268C868.182 32.0563 868.432 32.0344 868.679 32.0623C868.926 32.0901 869.165 32.1673 869.38 32.2889C869.596 32.4105 869.783 32.5739 869.931 32.7691C870.079 32.9642 870.184 33.187 870.239 33.4234C870.295 33.6598 870.301 33.9049 870.255 34.1434C870.21 34.382 870.115 34.6089 869.976 34.81L863.744 45.3474C863.577 45.6057 863.345 45.8175 863.069 45.9623C862.793 46.107 862.484 46.1797 862.171 46.1735V46.1735Z" fill="#00BFA5"/>
<path d="M812.549 90.5414C812.149 90.5418 811.76 90.4135 811.443 90.1762C811.125 89.9389 810.897 89.6061 810.794 89.2294C810.69 88.8527 810.717 88.4532 810.871 88.0929C811.024 87.7327 811.295 87.432 811.642 87.2374L820.414 82.2932C820.831 82.0585 821.327 81.995 821.792 82.1167C822.257 82.2384 822.654 82.5354 822.895 82.9422C823.135 83.349 823.2 83.8325 823.076 84.2861C822.951 84.7398 822.646 85.1265 822.229 85.3612L813.457 90.3054C813.181 90.4614 812.868 90.5429 812.549 90.5414V90.5414Z" fill="#00BFA5"/>
<path d="M817.595 70.8H806.523C806.042 70.8 805.58 70.6135 805.24 70.2816C804.899 69.9497 804.708 69.4994 804.708 69.03C804.708 68.5606 804.899 68.1104 805.24 67.7784C805.58 67.4465 806.042 67.26 806.523 67.26H817.595C818.076 67.26 818.538 67.4465 818.878 67.7784C819.219 68.1104 819.41 68.5606 819.41 69.03C819.41 69.4994 819.219 69.9497 818.878 70.2816C818.538 70.6135 818.076 70.8 817.595 70.8Z" fill="#00BFA5"/>
<path d="M822.495 56.64C822.177 56.6415 821.863 56.56 821.588 56.404L810.25 50.0792C810.043 49.963 809.862 49.8082 809.717 49.6238C809.572 49.4393 809.465 49.2288 809.404 49.0041C809.342 48.7795 809.326 48.5452 809.357 48.3146C809.388 48.084 809.465 47.8617 809.585 47.6602C809.704 47.4588 809.862 47.2822 810.052 47.1405C810.241 46.9989 810.457 46.895 810.687 46.8347C810.917 46.7745 811.158 46.759 811.394 46.7893C811.63 46.8196 811.858 46.895 812.065 47.0112L823.391 53.3832C823.737 53.5778 824.008 53.8785 824.162 54.2387C824.315 54.599 824.342 54.9985 824.238 55.3752C824.135 55.7519 823.907 56.0847 823.589 56.322C823.272 56.5593 822.883 56.6877 822.483 56.6872L822.495 56.64Z" fill="#00BFA5"/>
<path d="M832.998 46.1734C832.679 46.1736 832.366 46.0919 832.09 45.9366C831.814 45.7812 831.584 45.5577 831.425 45.2884L825.181 34.751C825.062 34.5496 824.985 34.3272 824.954 34.0966C824.923 33.866 824.939 33.6317 825 33.4071C825.125 32.9535 825.43 32.5667 825.847 32.332C826.264 32.0973 826.76 32.0338 827.225 32.1555C827.69 32.2772 828.087 32.5742 828.327 32.981L834.571 43.5184C834.793 43.9197 834.848 44.389 834.724 44.8287C834.6 45.2683 834.307 45.6444 833.906 45.8784C833.636 46.0552 833.322 46.1571 832.998 46.1734V46.1734Z" fill="#00BFA5"/>
<path d="M847.579 43.837C847.097 43.837 846.636 43.6505 846.295 43.3186C845.955 42.9867 845.764 42.5365 845.764 42.067V27.6238C845.764 27.1544 845.955 26.7042 846.295 26.3722C846.636 26.0403 847.097 25.8538 847.579 25.8538C848.06 25.8538 848.522 26.0403 848.862 26.3722C849.202 26.7042 849.394 27.1544 849.394 27.6238V42.067C849.394 42.5365 849.202 42.9867 848.862 43.3186C848.522 43.6505 848.06 43.837 847.579 43.837Z" fill="#00BFA5"/>
</g>
<defs>
<clipPath id="clip0">
<rect width="1208" height="879" fill="white"/>
</clipPath>
</defs>
</svg>
