<svg width="23" height="23" viewBox="0 0 23 23" fill="none" xmlns="http://www.w3.org/2000/svg">
<path d="M7.41997 0.410008L13 4.33001L19.42 1.92C19.5595 1.86912 19.7107 1.85914 19.8558 1.89126C20.0008 1.92337 20.1337 1.99623 20.2387 2.10128C20.3437 2.20632 20.4166 2.33917 20.4487 2.48421C20.4808 2.62925 20.4709 2.78044 20.42 2.92L18.42 9.49001L22.7 14.85C22.7916 14.9634 22.8496 15.1003 22.8674 15.245C22.8852 15.3897 22.8621 15.5366 22.8006 15.6688C22.7392 15.8011 22.6419 15.9134 22.5198 15.9932C22.3977 16.0729 22.2558 16.1169 22.11 16.12L15.25 16.25L11.47 21.98C11.3895 22.1019 11.2764 22.1988 11.1436 22.2596C11.0108 22.3204 10.8636 22.3427 10.7188 22.3239C10.5739 22.3052 10.4372 22.2461 10.3243 22.1535C10.2114 22.0609 10.1267 21.9384 10.08 21.8L7.83997 15.32L1.21997 13.5C1.07848 13.4617 0.950646 13.3843 0.851125 13.2767C0.751605 13.1691 0.684425 13.0356 0.657285 12.8915C0.630146 12.7475 0.644144 12.5987 0.697679 12.4622C0.751214 12.3258 0.842117 12.2072 0.959966 12.12L6.42997 7.98L6.11997 1.13001C6.08764 0.967804 6.10772 0.799514 6.17729 0.649464C6.24687 0.499414 6.36233 0.375365 6.50702 0.295231C6.6517 0.215098 6.81811 0.183034 6.98222 0.203663C7.14632 0.224293 7.29962 0.296556 7.41997 0.410008Z" fill="#00BFA5"/>
</svg>
