<svg width="212" height="209" viewBox="0 0 212 209" fill="none" xmlns="http://www.w3.org/2000/svg">
<path d="M74.273 208.854C69.054 208.854 64.051 206.119 61.302 201.391L47.171 177.085L20.78 167.391C13.979 164.892 9.93602 157.889 11.173 150.749L15.973 123.047L1.98803 98.6565C-1.61597 92.3705 -0.211969 84.4065 5.32503 79.7335L26.809 61.5975L31.773 33.9245C33.052 26.7925 39.247 21.5945 46.493 21.5725L74.608 21.4895L96.199 3.4815C101.763 -1.1605 109.849 -1.1605 115.414 3.4815L137.006 21.4895L165.12 21.5725C172.366 21.5935 178.56 26.7915 179.84 33.9235L184.805 61.5975L206.288 79.7335C211.825 84.4075 213.229 92.3705 209.625 98.6565L195.64 123.048L200.44 150.749C201.677 157.888 197.634 164.893 190.833 167.391L164.441 177.085L150.311 201.391C146.67 207.656 139.07 210.424 132.255 207.964L105.805 198.426L79.358 207.964C77.687 208.566 75.968 208.854 74.273 208.854V208.854Z" fill="#FFEB97"/>
</svg>
