<svg width="75" height="75" viewBox="0 0 75 75" fill="none" xmlns="http://www.w3.org/2000/svg">
<g clip-path="url(#clip0)">
<path d="M33.9812 0.144745C25.5912 0.927121 17.401 4.53851 10.9643 10.9716C4.52754 17.4028 0.919816 25.593 0.139273 33.994C9.35189 35.0622 19.1472 39.7711 27.189 47.8129C35.2344 55.8565 39.9488 65.6591 41.0079 74.8644C49.4216 74.0839 57.5917 70.4743 64.0339 64.0449C70.4688 57.6155 74.0729 49.4216 74.8498 41.0225C65.6591 39.9561 55.8474 35.2472 47.8056 27.2036C39.7693 19.1618 35.0549 9.35736 33.9812 0.144745Z" fill="white"/>
<path d="M75 36.3704C74.727 27.145 71.0772 18.0056 64.0449 10.9643C57.009 3.92287 47.8587 0.285833 38.6333 0C39.6703 8.05646 43.9487 16.7139 51.1202 23.8872C58.2916 31.0605 66.9381 35.3315 75 36.3704Z" fill="white"/>
<path d="M0.00245285 38.6424C0.273628 47.8642 3.92533 57.0053 10.9649 64.0431C17.9989 71.0771 27.1383 74.7325 36.3619 75C35.3248 66.9545 31.052 58.3026 23.8768 51.1293C16.709 43.9596 8.05342 39.6868 0.00245285 38.6424Z" fill="white"/>
</g>
<defs>
<clipPath id="clip0">
<rect width="75" height="75" fill="white"/>
</clipPath>
</defs>
</svg>
