<svg width="32" height="32" viewBox="0 0 32 32" fill="none" xmlns="http://www.w3.org/2000/svg">
<g clip-path="url(#clip0)">
<path d="M1.71912 24.1714C2.09739 24.535 2.54064 24.7115 3.04847 24.7012L29.2927 24.1706C29.8008 24.1603 30.2362 23.9661 30.5998 23.5875C30.9633 23.2085 31.1398 22.7656 31.1296 22.2578C31.1193 21.7502 30.925 21.3148 30.5465 20.9511L17.159 8.09424C16.78 7.73067 16.337 7.55376 15.8294 7.56402C15.3218 7.57429 14.8859 7.76897 14.5227 8.14754L1.66582 21.5351C1.30266 21.9137 1.12544 22.3567 1.1357 22.8644C1.14597 23.372 1.34095 23.8075 1.71912 24.1714Z" fill="#00bfa5"/>
</g>
<defs>
<clipPath id="clip0">
<rect width="30" height="30" fill="#00bfa5" transform="translate(31.3002 30.6937) rotate(178.842)"/>
</clipPath>
</defs>
</svg>
