<svg width="150" height="150" viewBox="0 0 150 150" fill="none" xmlns="http://www.w3.org/2000/svg">
<path d="M78.9607 77.817C76.4483 112.821 57.5026 133.435 44.4253 143.56C50.6031 146.325 57.2214 148.247 64.1491 149.259L66.9895 146.953C84.1822 133.014 104.984 108.218 109.793 69.1551C100.222 69.8488 89.8631 72.4549 78.9607 77.817Z" fill="white"/>
<path d="M147.085 54.2591L143.288 51.9249C129.723 43.5629 94.2035 26.7452 50.9687 44.7441C56.434 53.3873 64.1772 61.8243 75.0984 69.1925C106.428 53.9029 134.063 60.0337 149.513 66.2209C149.025 62.1242 148.2 58.1307 147.085 54.2591Z" fill="white"/>
<path d="M75.0328 0.00937653C61.8618 0.00937653 49.4875 3.43104 38.7257 9.40254L38.7632 9.74002C39.635 17.6614 41.8849 27.0077 46.394 36.504C88.007 18.7488 123.189 30.6168 141.385 40.0756C128.814 16.2552 103.831 0.00937653 75.0328 0.00937653Z" fill="white"/>
<path d="M30.0919 15.0647C23.9985 19.6394 18.627 25.0953 14.1741 31.2824L14.5772 33.8979C17.9895 55.8996 28.6951 86.7883 59.6775 111.546C64.796 102.322 68.6864 90.885 69.6519 76.8233C42.5505 58.4401 33.0073 34.0104 30.0919 15.0647Z" fill="white"/>
<path d="M6.89957 43.7598C2.51234 53.3029 0 63.8866 0 75.0703C0 101.928 14.146 125.42 35.3415 138.685L36.2415 138.038C41.5474 134.242 48.447 128.101 54.6528 119.514C24.5141 95.7878 11.9336 66.699 6.89957 43.7598Z" fill="white"/>
<path d="M148.734 76.0734C140.86 72.5861 130.792 69.5863 119.261 69.0144C114.808 108.293 95.4034 134.223 77.742 149.991C117.396 148.575 149.175 116.449 150 76.6265L148.734 76.0734Z" fill="white"/>
</svg>
