<svg width="158" height="158" viewBox="0 0 158 158" fill="none" xmlns="http://www.w3.org/2000/svg">
<g filter="url(#filter0_d)">
<path d="M82.9607 77.817C80.4483 112.821 61.5026 133.435 48.4253 143.56C54.6031 146.325 61.2214 148.247 68.1491 149.259L70.9895 146.953C88.1822 133.014 108.984 108.218 113.793 69.1551C104.222 69.8488 93.8631 72.4549 82.9607 77.817Z" fill="white"/>
<path d="M151.085 54.2591L147.288 51.9249C133.723 43.5629 98.2035 26.7452 54.9687 44.7441C60.434 53.3873 68.1772 61.8243 79.0984 69.1925C110.428 53.9029 138.063 60.0337 153.513 66.2209C153.025 62.1242 152.2 58.1307 151.085 54.2591Z" fill="white"/>
<path d="M79.0328 0.0093689C65.8618 0.0093689 53.4875 3.43103 42.7257 9.40253L42.7632 9.74001C43.635 17.6614 45.8849 27.0077 50.394 36.504C92.007 18.7488 127.189 30.6168 145.385 40.0756C132.814 16.2552 107.831 0.0093689 79.0328 0.0093689Z" fill="white"/>
<path d="M34.0919 15.0647C27.9985 19.6394 22.627 25.0953 18.1741 31.2824L18.5772 33.8979C21.9895 55.8996 32.6951 86.7883 63.6775 111.546C68.796 102.322 72.6864 90.885 73.6519 76.8233C46.5505 58.4401 37.0073 34.0104 34.0919 15.0647Z" fill="white"/>
<path d="M10.8996 43.7598C6.51234 53.3029 4 63.8866 4 75.0703C4 101.928 18.146 125.42 39.3415 138.685L40.2415 138.038C45.5474 134.242 52.447 128.101 58.6528 119.514C28.5141 95.7878 15.9336 66.699 10.8996 43.7598Z" fill="white"/>
<path d="M152.734 76.0734C144.86 72.5861 134.792 69.5863 123.261 69.0144C118.808 108.293 99.4034 134.223 81.742 149.991C121.396 148.575 153.175 116.449 154 76.6265L152.734 76.0734Z" fill="white"/>
</g>
<defs>
<filter id="filter0_d" x="0" y="0" width="158" height="158" filterUnits="userSpaceOnUse" color-interpolation-filters="sRGB">
<feFlood flood-opacity="0" result="BackgroundImageFix"/>
<feColorMatrix in="SourceAlpha" type="matrix" values="0 0 0 0 0 0 0 0 0 0 0 0 0 0 0 0 0 0 127 0"/>
<feOffset dy="4"/>
<feGaussianBlur stdDeviation="2"/>
<feColorMatrix type="matrix" values="0 0 0 0 0 0 0 0 0 0 0 0 0 0 0 0 0 0 0.25 0"/>
<feBlend mode="normal" in2="BackgroundImageFix" result="effect1_dropShadow"/>
<feBlend mode="normal" in="SourceGraphic" in2="effect1_dropShadow" result="shape"/>
</filter>
</defs>
</svg>
