<svg width="15" height="15" viewBox="0 0 21 21" fill="none" xmlns="http://www.w3.org/2000/svg">
<g clip-path="url(#clip0)">
<path d="M14.0558 10.5005L20.2633 4.29344C21.2455 3.31124 21.2455 1.71899 20.2633 0.737284C19.2821 -0.244419 17.6889 -0.244419 16.7077 0.737284L10.5001 6.94535L4.29256 0.737284C3.31135 -0.244419 1.7181 -0.244419 0.736899 0.737284C-0.245307 1.71949 -0.245307 3.31174 0.736899 4.29344L6.94396 10.5005L0.736899 16.7076C-0.245307 17.6898 -0.245307 19.282 0.736899 20.2637C1.22725 20.7551 1.87149 21 2.51473 21C3.15746 21 3.80221 20.7551 4.29256 20.2637L10.5001 14.0567L16.7077 20.2642C17.1985 20.7556 17.8423 21.0005 18.4855 21.0005C19.1287 21.0005 19.773 20.7556 20.2633 20.2642C21.2455 19.282 21.2455 17.6898 20.2633 16.7081L14.0558 10.5005Z" fill="#E2574C"/>
</g>
<defs>
<clipPath id="clip0">
<rect width="21" height="21" fill="white"/>
</clipPath>
</defs>
</svg>
