<svg width="226" height="172" viewBox="0 0 226 172" fill="none" xmlns="http://www.w3.org/2000/svg">
<path d="M105.87 171.098C163.812 171.098 210.783 148.994 210.783 121.728C210.783 94.462 163.812 72.3585 105.87 72.3585C47.9278 72.3585 0.956505 94.462 0.956505 121.728C0.956505 148.994 47.9278 171.098 105.87 171.098Z" fill="#F5F5F5"/>
<path d="M60.6935 151.176C72.8 151.176 82.6143 146.184 82.6143 140.027C82.6143 133.869 72.8 128.878 60.6935 128.878C48.587 128.878 38.7727 133.869 38.7727 140.027C38.7727 146.184 48.587 151.176 60.6935 151.176Z" fill="#E0E0E0"/>
<path d="M105.987 129.979C118.094 129.979 127.908 124.987 127.908 118.83C127.908 112.673 118.094 107.681 105.987 107.681C93.8809 107.681 84.0666 112.673 84.0666 118.83C84.0666 124.987 93.8809 129.979 105.987 129.979Z" fill="#E0E0E0"/>
<path d="M149.968 84.8974L146.805 83.3035C146.805 83.3035 145.287 75.9302 146.42 69.596C148.018 60.6867 154.903 57.6148 157.404 58.5008C159.904 59.3867 160.496 62.0239 155.994 67.1699C153.315 70.2087 149.884 76.6298 149.968 84.8974Z" fill="#00BFA5"/>
<g opacity="0.1">
<path opacity="0.1" d="M149.968 84.8974L146.805 83.3035C146.805 83.3035 145.287 75.9302 146.42 69.596C148.018 60.6867 154.903 57.6148 157.404 58.5008C159.904 59.3867 160.496 62.0239 155.994 67.1699C153.315 70.2087 149.884 76.6298 149.968 84.8974Z" fill="black"/>
</g>
<path d="M148.822 81.366H148.854C148.914 81.3588 148.967 81.3312 149.003 81.2893C149.039 81.2474 149.055 81.1946 149.047 81.1424C147.741 72.8003 151.548 63.6633 155.825 59.9788C155.849 59.9614 155.87 59.9397 155.884 59.9149C155.899 59.8902 155.907 59.8631 155.909 59.8352C155.911 59.8074 155.906 59.7796 155.895 59.7535C155.884 59.7274 155.867 59.7036 155.845 59.6838C155.823 59.6639 155.796 59.6484 155.766 59.6382C155.737 59.6281 155.705 59.6235 155.674 59.6247C155.642 59.626 155.611 59.6331 155.583 59.6456C155.555 59.6581 155.53 59.6757 155.51 59.6972C151.153 63.4439 147.271 72.7341 148.601 81.1962C148.608 81.2434 148.634 81.2868 148.674 81.318C148.715 81.3493 148.768 81.3664 148.822 81.366Z" fill="white"/>
<path d="M158.762 89.3686C159.265 89.6211 160.294 89.0664 160.689 88.8346C161.367 88.4285 161.914 87.8752 162.278 87.2282C162.685 86.4942 162.825 85.6669 162.677 84.8601C162.595 84.4398 162.48 84.0248 162.334 83.6182L161.939 82.3968C161.776 81.9993 161.706 81.5769 161.732 81.1548C161.855 80.3268 162.696 79.7348 163.462 79.2297C164.308 78.6708 165.192 77.9339 165.187 76.9321C165.125 76.1511 164.771 75.4101 164.181 74.8248C163.636 74.2162 162.987 73.678 162.494 73.0322C162.104 72.5856 161.9 72.0346 161.916 71.4714C161.97 71.126 162.103 70.7937 162.306 70.4944C162.765 69.8694 163.168 69.2132 163.509 68.532C163.786 67.8282 163.749 66.9547 163.124 66.462C162.844 66.2814 162.526 66.1518 162.189 66.0807C161.851 66.0096 161.501 65.9985 161.159 66.048C160.51 66.1163 159.885 66.31 159.331 66.6152C157.517 67.5011 156.483 69.3931 154.56 70.0762C153.79 70.2881 153.005 70.4554 152.21 70.5772C151.817 70.6426 151.443 70.7795 151.113 70.9791C150.783 71.1786 150.503 71.4365 150.293 71.7364C149.588 72.9784 150.894 74.5102 150.401 75.8308C149.959 76.9942 148.671 77.4413 147.952 78.4928C147.656 78.957 147.538 79.4925 147.614 80.0205C147.675 80.9137 147.921 81.7894 148.342 82.6038C148.813 83.4129 149.35 84.1905 149.95 84.9305C150.001 84.9222 158.677 89.3272 158.762 89.3686Z" fill="#00BFA5"/>
<path d="M153.616 86.955C153.676 86.9528 153.733 86.9299 153.774 86.8912C153.815 86.8525 153.838 86.8011 153.836 86.748C153.465 78.853 157.686 70.1383 160.755 67.6046C160.776 67.5862 160.793 67.5642 160.804 67.5401C160.815 67.5159 160.821 67.49 160.821 67.4639C160.821 67.4377 160.815 67.4118 160.804 67.3877C160.793 67.3635 160.776 67.3416 160.755 67.3231C160.712 67.2867 160.655 67.2663 160.595 67.2663C160.535 67.2663 160.478 67.2867 160.435 67.3231C157.3 69.9065 152.995 78.7661 153.385 86.7811C153.392 86.8301 153.42 86.8751 153.462 86.9072C153.505 86.9394 153.559 86.9564 153.616 86.955V86.955Z" fill="white"/>
<path d="M154.96 77.64C154.981 77.6438 155.004 77.6438 155.026 77.64C157.149 77.1249 159.33 76.8153 161.53 76.7168C161.59 76.7136 161.645 76.6902 161.686 76.6516C161.726 76.613 161.748 76.5622 161.747 76.5098C161.747 76.4833 161.741 76.4571 161.728 76.4328C161.716 76.4086 161.699 76.3868 161.677 76.3689C161.655 76.351 161.628 76.3373 161.6 76.3288C161.572 76.3202 161.541 76.317 161.512 76.3193C159.275 76.4078 157.056 76.7119 154.894 77.226C154.866 77.2336 154.839 77.246 154.816 77.2626C154.793 77.2792 154.774 77.2996 154.76 77.3227C154.746 77.3458 154.738 77.3711 154.735 77.3971C154.732 77.4231 154.735 77.4494 154.744 77.4744C154.751 77.5201 154.777 77.5619 154.817 77.5923C154.857 77.6226 154.907 77.6395 154.96 77.64V77.64Z" fill="white"/>
<path d="M194.76 67.847L186.099 82.522L187.495 83.1313L196.156 68.4564L194.76 67.847Z" fill="#263238"/>
<path d="M178.865 66.2191L177.535 66.9326L186.041 78.665L187.372 77.9515L178.865 66.2191Z" fill="#263238"/>
<path d="M188.108 65.2817V112.152C188.098 112.251 188.059 112.345 187.993 112.426C187.928 112.507 187.839 112.572 187.735 112.614C187.446 112.74 187.127 112.806 186.803 112.806C186.479 112.806 186.16 112.74 185.871 112.614C185.768 112.572 185.679 112.507 185.613 112.426C185.548 112.345 185.508 112.251 185.498 112.152V65.2817H188.108Z" fill="#263238"/>
<path d="M209.113 68.7669C218.413 64.4872 221.918 54.534 216.942 46.5358C211.966 38.5375 200.392 35.523 191.092 39.8027C181.791 44.0823 178.286 54.0355 183.262 62.0337C188.239 70.032 199.812 73.0465 209.113 68.7669Z" fill="#00BFA5"/>
<path opacity="0.5" d="M209.113 68.7669C218.413 64.4872 221.918 54.534 216.942 46.5358C211.966 38.5375 200.392 35.523 191.092 39.8027C181.791 44.0823 178.286 54.0355 183.262 62.0337C188.239 70.032 199.812 73.0465 209.113 68.7669Z" fill="black"/>
<path opacity="0.3" d="M206.099 50.0749C208.563 43.4042 211.187 40.795 209.521 39.9808C206.357 38.4409 202.748 37.7096 199.118 37.8728C195.487 38.036 191.986 39.0868 189.026 40.9019C186.066 42.717 183.77 45.2209 182.408 48.1194C181.045 51.0179 180.673 54.1907 181.335 57.2649C181.996 60.3391 183.664 63.187 186.143 65.4741C188.622 67.7611 191.808 69.3923 195.327 70.1759C198.847 70.9596 202.553 70.8632 206.011 69.898C209.469 68.9328 212.534 67.1389 214.848 64.7272C209.175 66.1472 202.89 58.7233 206.099 50.0749Z" fill="black"/>
<path d="M181.838 64.3608C185.335 58.7399 182.871 51.745 176.335 48.7374C169.799 45.7298 161.666 47.8484 158.169 53.4693C154.671 59.0902 157.135 66.0851 163.671 69.0927C170.207 72.1003 178.34 69.9818 181.838 64.3608Z" fill="#00BFA5"/>
<path opacity="0.5" d="M181.838 64.3608C185.335 58.7399 182.871 51.745 176.335 48.7374C169.799 45.7298 161.666 47.8484 158.169 53.4693C154.671 59.0902 157.135 66.0851 163.671 69.0927C170.207 72.1003 178.34 69.9818 181.838 64.3608Z" fill="black"/>
<path opacity="0.3" d="M170.011 47.3791C167.2 47.3794 164.461 48.1421 162.184 49.5588C161.811 56.6109 168.781 63.4866 166.836 65.7978C164.89 68.109 160.096 66.6889 158.427 64.7272C159.611 66.4757 161.309 67.9257 163.351 68.9317C165.393 69.9376 167.706 70.4642 170.059 70.4585C172.412 70.4529 174.722 69.9152 176.757 68.8994C178.792 67.8836 180.481 66.4254 181.654 64.6712C182.827 62.9169 183.443 60.9283 183.44 58.9047C183.437 56.8811 182.815 54.8937 181.637 53.142C180.46 51.3902 178.767 49.9356 176.729 48.9241C174.691 47.9126 172.379 47.3798 170.026 47.3791H170.011Z" fill="black"/>
<path d="M210.755 51.3376C213.879 39.9555 205.682 28.5506 192.447 25.8642C179.211 23.1778 165.95 30.2271 162.826 41.6092C159.702 52.9914 167.899 64.3962 181.134 67.0826C194.37 69.7691 207.631 62.7198 210.755 51.3376Z" fill="#00BFA5"/>
<g opacity="0.5">
<path opacity="0.5" d="M210.755 51.3376C213.879 39.9555 205.682 28.5506 192.447 25.8642C179.211 23.1778 165.95 30.2271 162.826 41.6092C159.702 52.9914 167.899 64.3962 181.134 67.0826C194.37 69.7691 207.631 62.7198 210.755 51.3376Z" fill="black"/>
</g>
<path opacity="0.3" d="M210.766 51.3154C209.831 54.7412 207.919 57.9128 205.201 60.5433C202.483 63.1738 199.046 65.1804 195.2 66.3817C191.354 67.5829 187.221 67.941 183.173 67.4235C179.126 66.9061 175.292 65.5293 172.019 63.4178C168.746 61.3063 166.136 58.5266 164.426 55.3299C162.715 52.1332 161.958 48.6203 162.223 45.1088C162.488 41.5972 163.766 38.1978 165.941 35.2177C168.117 32.2376 171.123 29.7708 174.685 28.0403C172.549 29.0827 170.605 30.392 168.915 31.9254C167.662 36.46 168.185 41.2236 170.403 45.4764C172.621 49.7292 176.41 53.2331 181.181 55.4437C185.953 57.6544 191.439 58.4481 196.789 57.7016C202.139 56.9551 207.052 54.7101 210.766 51.3154V51.3154Z" fill="black"/>
<path d="M46.7251 2.51669L42.1473 4.84337C42.1473 4.66535 42.1849 4.48733 42.1849 4.30931V3.14183C42.1849 1.07183 40.5258 0.218993 38.4813 1.25813C37.6019 1.73457 36.85 2.37293 36.277 3.12941C35.9433 0.512933 33.6121 -0.459966 30.7874 0.980754C27.7277 2.53325 25.2461 6.31721 25.2461 9.42635V11.19C25.2246 11.8876 25.3854 12.5803 25.7161 13.2145L21.9138 15.1478C21.3164 15.4917 20.8192 15.9546 20.4624 16.499C20.1056 17.0434 19.8992 17.6541 19.8599 18.2818C19.8599 19.4327 20.7999 19.9006 21.9138 19.3251L46.7251 6.71051C47.3219 6.36642 47.8184 5.90342 48.1744 5.35897C48.5304 4.81452 48.7359 4.20392 48.7743 3.57653C48.7743 2.40905 47.8578 1.94123 46.7251 2.51669Z" fill="#EBEBEB"/>
<path d="M71.01 13.5581L67.6542 15.2679C67.6542 15.1354 67.6824 15.0029 67.6824 14.8746V14.0176C67.6824 12.4941 66.4651 11.8772 64.9658 12.639C64.3217 12.9885 63.7703 13.4558 63.349 14.0093C63.1046 12.0925 61.3985 11.3804 59.3258 12.432C57.0839 13.5746 55.265 16.3443 55.265 18.642V19.9254C55.2501 20.436 55.3674 20.9428 55.6081 21.4075L52.821 22.8275C52.383 23.0785 52.0185 23.4171 51.7571 23.8156C51.4958 24.2142 51.345 24.6615 51.317 25.1211C51.317 25.9491 51.9891 26.3093 52.821 25.887L71.01 16.6217C71.4478 16.3695 71.8121 16.0302 72.0734 15.631C72.3347 15.2318 72.4856 14.7841 72.514 14.324C72.5281 13.4794 71.8513 13.1358 71.01 13.5581Z" fill="#EBEBEB"/>
<path d="M126.608 52.5652C126.251 53.296 125.796 53.9718 125.258 54.5731C125.348 54.1759 125.383 53.7674 125.362 53.36C125.362 53.1449 125.282 52.9379 125.14 52.7806C124.998 52.6232 124.803 52.527 124.595 52.5113C124.414 52.5113 124.466 52.9792 124.193 53.6705C123.831 54.5565 123.369 54.9415 123.221 55.9682C123.168 56.3519 122.981 56.7024 122.694 56.9536C121.135 58.2908 118.118 59.6115 115.892 60.3815C115.892 60.3815 113.196 56.9743 112.015 55.4135C110.705 53.6623 108.153 49.928 105.248 50.4952C105.248 50.4952 104.296 52.739 104.662 54.4737C104.899 55.5998 106.751 57.7277 108.431 59.4417C109.893 60.9445 113.73 65.1342 115.365 65.573C116.036 65.7552 117.254 65.1176 119.785 63.4161C121.035 62.5881 122.417 61.6525 123.908 60.6382C124.971 59.8643 125.979 59.0134 126.925 58.0921C129.533 55.6412 129.91 54.1135 129.292 52.6852C128.283 50.4082 127.48 50.8264 126.608 52.5652Z" fill="#B16668"/>
<path d="M80.2527 88.5128C80.0062 88.1291 79.6451 87.8384 79.2241 87.6848C78.7862 87.5399 77.3558 87.6103 76.729 88.637C76.1022 89.6637 76.1182 90.9057 75.7325 91.6758C75.2823 92.4564 74.7109 93.1557 74.041 93.7458C73.6055 94.2644 73.2937 94.8808 73.1304 95.5457C72.9672 96.2106 72.957 96.9056 73.1008 97.5753C73.1911 97.9504 73.3792 98.2929 73.6447 98.5658C73.9103 98.8387 74.2432 99.0316 74.6075 99.1236L80.2527 88.5128Z" fill="#F0F0F0"/>
<path d="M79.875 88.2644C79.4128 88.1435 78.9275 88.1523 78.4697 88.2899C78.0119 88.4275 77.5981 88.6889 77.2714 89.0468C76.6888 89.7796 76.7049 90.8602 76.3834 91.7171C76.1859 92.1468 75.9227 92.5409 75.6039 92.8846C75.2624 93.3317 74.8486 93.7126 74.5432 94.2011C74.3079 94.5859 74.1292 95.0044 74.0128 95.4431C73.8648 95.9232 73.7996 96.4262 73.82 96.9294C73.8481 97.3239 73.9608 97.707 74.1497 98.0513C74.3387 98.3956 74.5993 98.6926 74.9129 98.9207C75.5638 99.3761 76.4557 99.4548 76.9459 98.7262C77.1084 98.4513 77.243 98.16 77.3477 97.8568C77.5517 97.2726 77.8627 96.7343 78.2638 96.2711C78.6656 95.9068 78.979 95.4431 79.3969 95.1078C79.4652 95.054 79.5295 94.996 79.5978 94.9505C80.3491 94.4413 81.1206 93.9941 81.2049 93.6795C81.2893 93.3649 81.3335 89.8127 81.3335 89.8127C80.9277 89.7092 80.5179 88.4755 79.875 88.2644Z" fill="#263238"/>
<path d="M74.2499 94.7683C74.8961 94.7672 75.5291 94.9569 76.074 95.3148C77.0424 95.9275 77.5004 96.681 77.5767 97.3848C77.5767 97.3848 77.4401 98.4736 77.0785 98.8959C76.7169 99.3182 75.9897 99.7943 74.6075 99.1195C74.6075 99.1153 72.7391 97.4386 74.2499 94.7683Z" fill="#FAFAFA"/>
<path d="M82.6032 89.6927L80.5942 89.7962C80.2964 89.7915 80.0014 89.8552 79.7304 89.9825C79.1679 90.206 78.4406 91.8827 79.0513 92.3299C79.1457 92.383 79.2243 92.4615 79.2787 92.557C79.3332 92.6525 79.3615 92.7614 79.3607 92.8722C79.7304 92.6486 80.3732 92.9384 80.7469 93.2075C80.8939 93.3039 81.0034 93.4504 81.0563 93.6215L81.675 93.5387C82.1185 93.4979 82.5655 93.5258 83.001 93.6215L82.6032 89.6927Z" fill="#B16668"/>
<path d="M113.63 117.41C113.425 117.46 113.409 118.275 113.489 118.507C113.679 118.932 113.974 119.297 114.345 119.567C114.867 119.972 115.29 120.496 115.582 121.099C116.105 122.027 116.815 122.829 117.664 123.45C118.228 123.803 118.858 124.03 119.513 124.116C120.167 124.202 120.832 124.146 121.465 123.951C122.819 123.57 122.975 123.21 122.988 122.684L113.63 117.41Z" fill="#F0F0F0"/>
<path d="M117.849 114.553C118.07 115.112 118.777 117.497 120.159 118.656C121.26 119.579 122.75 120.631 123.172 121.707C123.594 122.784 121.268 123.363 120.283 123.223C119.134 123.082 117.632 122.502 116.776 121.538C116.173 120.859 115.771 120.035 115.337 119.501C114.903 118.967 113.947 118.391 113.694 117.758C113.557 117.41 113.654 116.619 113.786 115.953C113.919 115.286 114.04 114.665 114.24 114.711L114.261 115.083C114.518 115.344 117.849 114.553 117.849 114.553Z" fill="#263238"/>
<path d="M118.258 115.659C118.082 115.116 117.897 114.566 117.824 114.206C117.68 113.561 117.57 112.909 117.495 112.252C117.411 111.424 117.141 108.786 117.141 108.786L113.63 110.049C113.73 110.848 113.891 111.51 114.052 112.483C114.162 113.028 114.225 113.583 114.24 114.139C114.24 114.367 114.24 114.81 114.24 115.038C114.24 115.187 114.341 115.249 114.437 115.344C114.581 115.508 114.691 115.701 114.759 115.911C114.794 116.029 114.868 116.13 114.968 116.197C115.053 116.22 115.143 116.22 115.229 116.197C115.494 116.197 115.9 116.131 116.032 116.433C116.049 116.293 116.093 116.158 116.162 116.036C116.231 115.914 116.324 115.808 116.434 115.725C116.836 115.414 117.937 114.868 118.258 115.659Z" fill="#B16668"/>
<path d="M117.784 122.357C117.942 121.793 118.221 121.272 118.601 120.834C118.981 120.397 119.451 120.052 119.978 119.828C121.718 119.165 122.272 119.96 122.517 120.175C122.763 120.391 123.944 121.538 122.988 122.684C122.199 123.205 121.269 123.454 120.334 123.395C119.399 123.337 118.506 122.973 117.784 122.357V122.357Z" fill="#FAFAFA"/>
<path d="M110.042 71.0047C111.677 75.5256 115.265 86.0702 115.783 89.701C116.302 93.3318 117.391 111.109 117.391 111.109C117.065 111.937 114.887 112.239 113.823 111.564C113.823 111.564 111.01 103.202 110.496 100.482C110.127 98.535 110.151 96.5313 110.564 94.5944C110.564 94.5944 104.887 83.8015 102.645 79.5663C102.645 79.5663 100.367 91.6965 99.354 93.5884C98.5504 95.1078 98.0843 96.0724 94.7012 95.7495C91.3181 95.4266 82.2536 93.576 82.2536 93.576C81.8117 93.162 81.3898 90.5745 82.2255 89.6679C85.0011 89.3014 87.7966 89.1188 90.5949 89.1214C91.8205 89.2001 92.9973 89.6446 93.982 90.4006C93.982 90.4006 92.4833 80.9531 92.3748 77.7571C92.2677 75.2415 92.7141 72.7336 93.6807 70.421L110.042 71.0047Z" fill="#37474F"/>
<path d="M102.633 79.5662C102.633 79.5662 105.043 79.0363 106.502 77.4962C105.969 78.5614 105.197 79.4808 104.252 80.179L109.813 93.0999L102.633 79.5662Z" fill="#263238"/>
<path d="M98.7232 34.9577C98.3007 34.3786 97.7367 33.9252 97.0888 33.6438C96.4408 33.3623 95.7321 33.2629 95.0347 33.3556C92.1619 33.6785 91.298 35.4545 88.7064 34.5065C86.6372 33.7447 86.2756 31.4387 87.0149 29.6917C86.4914 29.7993 86.0046 30.0473 85.6039 30.4108C85.2032 30.7742 84.9027 31.2402 84.7327 31.7617C84.3551 32.7096 84.2111 33.7392 84.3135 34.7584C84.4158 35.7777 84.7614 36.755 85.3193 37.6032C86.5247 39.4124 89.4498 40.4225 91.2659 40.141C94.9302 39.578 96.2883 36.3405 97.7669 36.9532L98.7232 34.9577Z" fill="#263238"/>
<path d="M101.821 33.8731H103.026C103.917 33.8731 104.799 34.0538 105.622 34.405C106.445 34.7562 107.192 35.271 107.822 35.9199C108.452 36.5688 108.952 37.3392 109.292 38.1871C109.633 39.0349 109.809 39.9437 109.809 40.8614C109.809 42.7049 109.098 44.4729 107.833 45.7765C106.568 47.0801 104.852 47.8124 103.063 47.8124H101.781C99.9916 47.8124 98.2757 47.0801 97.0106 45.7765C95.7455 44.4729 95.0347 42.7049 95.0347 40.8614V40.8614C95.0347 39.008 95.7493 37.2305 97.0212 35.9199C98.2931 34.6093 100.018 33.8731 101.817 33.8731H101.821Z" fill="#263238"/>
<path d="M99.8924 50.6318C96.5896 50.8678 96.3566 52.5072 95.5329 54.304C94.9021 55.6743 95.5731 56.4692 95.7097 58.6178C95.8463 60.7665 97.2727 65.602 97.2727 65.602C97.2727 65.602 94.9342 67.8997 93.6847 70.4375C99.4504 74.3084 107.647 73.3355 110.038 71.0047C109.635 69.2851 109.137 67.5904 108.547 65.9291C108.547 65.9291 109.025 63.1967 109.262 61.8553C110.813 59.8226 110.701 58.4647 110.275 56.73C109.471 53.5049 106.385 50.3627 105.019 50.4786L99.8924 50.6318Z" fill="#00BFA5"/>
<path d="M99.1933 33.0699L98.7312 34.9578C98.6094 34.933 98.4938 34.8829 98.3913 34.8106C98.2888 34.7384 98.2017 34.6454 98.1352 34.5374C98.0687 34.4294 98.0242 34.3085 98.0044 34.1822C97.9846 34.0559 97.9899 33.9268 98.02 33.8027C98.0873 33.5489 98.2465 33.3315 98.4648 33.1951C98.6831 33.0588 98.9438 33.014 99.1933 33.0699V33.0699Z" fill="#263238"/>
<path d="M107.386 36.9491C108.165 37.4252 109.13 39.4331 109.033 43.689C108.953 47.2784 107.828 48.1685 107.253 48.4252C106.679 48.6818 105.594 48.5245 104.529 48.3424V50.4952C104.529 50.4952 106 52.2588 105.907 53.2441C105.815 54.2294 103.782 54.4861 102.408 53.5008C101.033 52.5155 100.15 50.6235 100.15 50.6235V45.966C100.15 45.966 99.4303 46.8437 98.2571 46.0405C97.0838 45.2374 97.0517 43.246 97.7187 42.5298C98.3857 41.8136 99.8763 42.0413 100.129 43.0307C100.129 43.0307 101.825 43.0928 104.087 41.8136C104.97 41.3273 105.728 40.6333 106.301 39.7881C106.875 38.9428 107.246 37.9701 107.386 36.9491V36.9491Z" fill="#B16668"/>
<path d="M104.75 42.7865C104.753 42.8457 104.744 42.905 104.724 42.9607C104.705 43.0165 104.675 43.0678 104.636 43.1116C104.597 43.1555 104.55 43.191 104.498 43.2162C104.446 43.2414 104.39 43.2557 104.332 43.2584C104.275 43.2612 104.217 43.2522 104.163 43.232C104.109 43.2118 104.059 43.1809 104.017 43.1409C103.974 43.1009 103.94 43.0527 103.915 42.999C103.891 42.9453 103.877 42.8871 103.874 42.8279C103.865 42.7084 103.902 42.59 103.978 42.4986C104.053 42.4071 104.16 42.3499 104.276 42.3394C104.336 42.336 104.396 42.345 104.452 42.3658C104.508 42.3865 104.56 42.4187 104.604 42.4603C104.648 42.502 104.684 42.5522 104.709 42.6083C104.734 42.6643 104.748 42.7249 104.75 42.7865Z" fill="#263238"/>
<path d="M105.256 45.8294L106.277 46.1647C106.258 46.235 106.226 46.3007 106.183 46.358C106.139 46.4152 106.085 46.4629 106.023 46.498C105.961 46.5332 105.893 46.5551 105.823 46.5626C105.752 46.5701 105.681 46.5629 105.614 46.5415C105.476 46.494 105.362 46.3931 105.295 46.2601C105.228 46.1272 105.214 45.9727 105.256 45.8294V45.8294Z" fill="#9A4A4D"/>
<path d="M108.346 41.412L107.458 40.7786C107.496 40.7174 107.545 40.6648 107.602 40.6237C107.66 40.5827 107.725 40.5541 107.794 40.5398C107.863 40.5255 107.934 40.5257 108.002 40.5404C108.071 40.5551 108.136 40.584 108.193 40.6254C108.312 40.7116 108.393 40.8411 108.422 40.9874C108.45 41.1337 108.423 41.2856 108.346 41.412V41.412Z" fill="#263238"/>
<path d="M108.141 42.4594C108.144 42.5187 108.135 42.5779 108.116 42.6337C108.096 42.6895 108.066 42.7408 108.027 42.7846C107.988 42.8284 107.942 42.8639 107.889 42.8891C107.837 42.9143 107.781 42.9287 107.723 42.9314C107.666 42.9341 107.608 42.9251 107.554 42.905C107.5 42.8848 107.45 42.8538 107.408 42.8139C107.365 42.7739 107.331 42.7257 107.306 42.6719C107.282 42.6182 107.268 42.5601 107.265 42.5008C107.256 42.3813 107.294 42.263 107.369 42.1715C107.444 42.0801 107.551 42.0229 107.667 42.0123C107.727 42.009 107.787 42.0179 107.843 42.0387C107.899 42.0595 107.951 42.0916 107.995 42.1333C108.039 42.1749 108.075 42.2252 108.1 42.2812C108.125 42.3372 108.139 42.3978 108.141 42.4594Z" fill="#263238"/>
<path d="M106 42.1986L106.068 44.9186L107.458 44.4756L106 42.1986Z" fill="#9A4A4D"/>
<path d="M104.529 48.3424C103.408 48.1892 101.102 47.5144 100.74 46.5663C100.883 47.0417 101.163 47.4607 101.544 47.7669C102.231 48.3755 104.521 49.0586 104.521 49.0586L104.529 48.3424Z" fill="#9A4A4D"/>
<path d="M103.111 72.7725C102.335 72.6052 101.586 72.3265 100.885 71.9445C101.279 71.9337 101.67 71.8654 102.046 71.7416C102.248 71.6867 102.423 71.5552 102.536 71.3734C102.648 71.1915 102.69 70.9727 102.653 70.7605C102.6 70.5824 102.183 70.7605 101.447 70.6404C100.523 70.5038 100.045 70.1395 99.0366 70.2512C98.6666 70.2917 98.2947 70.1948 97.9879 69.978C96.3405 68.7608 94.3396 66.0823 93.0579 64.0619L96.4972 58.9904C97.0776 58.8583 97.6193 58.5859 98.0775 58.1958C98.5358 57.8056 98.8975 57.3089 99.133 56.7466C99.6232 55.5335 100.25 52.8136 98.5464 50.8553C97.5949 50.7153 96.6249 50.8968 95.782 51.3728C94.7856 51.8903 93.2507 54.2708 92.0574 56.3864C91.0168 58.2245 88.0395 63.1015 88.0395 64.8444C88.0395 65.5606 88.9435 66.6122 91.1735 68.6987C92.2503 69.742 93.4958 70.8764 94.8258 72.1101C95.8198 72.9745 96.8725 73.7645 97.9758 74.474C100.937 76.4612 102.464 76.4488 103.649 75.4759C105.558 73.8986 104.959 73.1989 103.111 72.7725Z" fill="#B16668"/>
<path d="M43.9605 82.2394C45.4372 82.0916 46.9013 81.8356 48.3413 81.4735C52.2672 80.5751 53.472 79.3041 53.64 77.5653C53.9064 74.7915 52.8778 74.7418 51.0705 75.9342C50.3107 76.4458 49.4829 76.8459 48.6117 77.1224C48.9189 76.7888 49.177 76.4124 49.3781 76.0045C49.4949 75.794 49.5289 75.5468 49.4735 75.3121C49.4181 75.0773 49.2772 74.8723 49.0789 74.7377C48.8945 74.6425 48.6978 75.1186 48.038 75.632C47.1938 76.2861 46.5217 76.402 45.8128 77.3128C45.5807 77.6929 45.2614 78.011 44.8819 78.2401C44.5025 78.4693 44.074 78.6028 43.6326 78.6293" fill="#FFA8A7"/>
<path d="M27.8143 88.2258C26.7693 91.6455 26.2078 97.4042 26.0357 102.016C25.9046 105.589 25.9333 108.288 25.9333 108.288C25.9333 108.288 24.9252 107.046 22.4705 106.715C20.2247 106.409 13.0245 107.129 13.0245 107.129C13.0245 107.129 9.50431 108.926 11.6394 111.402C13.6556 111.84 18.1593 113.103 20.6304 113.886C22.618 114.507 26.8758 115.744 28.1667 115.728C30.0559 115.728 31.8836 115.173 33.2974 112.598C34.7112 110.023 36.9488 99.6564 36.9488 99.6564C36.9488 99.6564 43.0425 110.4 43.7515 111.613C43.9362 112.786 43.9925 113.975 43.9195 115.161C43.7506 117.397 44.0052 119.645 44.6694 121.785C45.3743 123.929 46.2226 127.287 46.7717 129.75C47.2184 131.746 47.5258 132.76 47.5708 133.865C47.6159 134.971 50.1362 132.578 51.7631 130.93C51.7631 130.93 51.5746 113.993 51.2877 110.988C51.0009 107.982 50.7222 104.815 48.5953 100.31C46.4685 95.8062 44.9727 90.6395 44.2064 88.4825C43.44 86.3256 27.8143 88.2258 27.8143 88.2258Z" fill="#FFA8A7"/>
<path d="M27.8143 88.2258C26.8777 90.7569 26.2756 93.4017 26.0234 96.0918C25.6505 100.364 25.6136 106.467 25.6136 106.467C25.6136 106.467 26.1915 109.187 30.3796 109.712C34.5678 110.238 35.0637 108.375 35.0637 108.375L37.0717 100.277L42.2598 109.725C42.2598 109.725 47.0135 110.375 50.669 104.898C50.5132 102.712 44.4563 89.8487 44.2228 88.23L27.8143 88.2258Z" fill="#00BFA5"/>
<path opacity="0.1" d="M37.0717 100.277C38.7514 99.5614 40.2205 98.4208 41.3377 96.9654C41.3377 96.9654 40.887 99.7267 39.5715 101.01L42.2598 109.704L37.0717 100.277Z" fill="black"/>
<path d="M39.7354 65.6504C41.5508 65.3482 43.4646 65.6504 44.067 67.5507C44.7678 69.7738 42.9073 74.4852 42.9073 74.4852L39.7354 65.6504Z" fill="#FFA8A7"/>
<path d="M30.1665 66.1058C29.142 66.5654 26.6299 68.2131 27.2364 72.0591C27.8839 76.1453 28.6585 83.0632 28.6585 83.0632C28.7363 84.3342 28.0233 85.8163 27.6585 88.2424C29.9944 90.8092 41.7762 93.7362 44.3785 88.4659C44.3785 88.4659 44.5506 77.5156 43.6859 71.7279C43.1573 68.2089 42.3336 65.6587 38.965 65.58L33.2523 65.2447C32.2022 65.4463 31.1702 65.7343 30.1665 66.1058V66.1058Z" fill="#00BFA5"/>
<g opacity="0.5">
<path opacity="0.5" d="M30.1665 66.1058C29.142 66.5654 26.6299 68.2131 27.2364 72.0591C27.8839 76.1453 28.6585 83.0632 28.6585 83.0632C28.7363 84.3342 28.0233 85.8163 27.6585 88.2424C29.9944 90.8092 41.7762 93.7362 44.3785 88.4659C44.3785 88.4659 44.5506 77.5156 43.6859 71.7279C43.1573 68.2089 42.3336 65.6587 38.965 65.58L33.2523 65.2447C32.2022 65.4463 31.1702 65.7343 30.1665 66.1058V66.1058Z" fill="black"/>
</g>
<path d="M38.6535 60.7611C41.2654 60.7611 43.3827 58.6221 43.3827 55.9835C43.3827 53.3449 41.2654 51.206 38.6535 51.206C36.0417 51.206 33.9244 53.3449 33.9244 55.9835C33.9244 58.6221 36.0417 60.7611 38.6535 60.7611Z" fill="#263238"/>
<path d="M30.9165 58.836C30.9165 58.836 31.6418 62.2805 31.9328 62.8435C32.1269 63.1933 32.4468 63.4542 32.8262 63.5721L32.777 61.1502L30.9165 58.836Z" fill="#263238"/>
<path d="M31.8303 53.9094C31.5764 53.8801 31.3191 53.9093 31.0779 53.9946C30.8366 54.0799 30.6175 54.2192 30.437 54.402C29.8428 55.0189 30.1747 56.9523 30.9165 58.8401L32.2852 58.9974L31.8303 53.9094Z" fill="#263238"/>
<path d="M32.695 58.9974C32.4205 59.163 32.0311 58.629 31.691 58.2729C31.3509 57.9169 30.2526 57.4449 29.6994 58.6C29.1461 59.7551 30.187 61.3696 31.0558 61.6429C32.5516 62.119 32.777 61.1502 32.777 61.1502L32.8876 66.6026C34.1785 68.0558 38.588 67.708 37.7561 66.4577V64.8017C38.4226 64.909 39.0985 64.9437 39.7723 64.9052C40.8747 64.7355 41.5672 63.8578 41.8992 62.653C42.436 60.7238 42.6409 59.163 42.186 55.3625C41.6861 51.1935 36.8914 51.1521 34.3014 52.7999C31.7115 54.4476 32.695 58.9974 32.695 58.9974Z" fill="#FFA8A7"/>
<path d="M32.695 59.4611C32.5557 59.4611 32.0311 58.5876 31.691 58.2729C31.2197 57.8589 31.8303 53.9052 31.8303 53.9052C31.7062 53.5653 31.6831 53.196 31.7639 52.843C31.8447 52.4899 32.0259 52.1684 32.2852 51.918C32.9327 51.1977 34.0146 51.119 35.8587 50.8251C36.8299 50.6719 38.297 50.4111 39.2642 50.2165C40.4198 49.9971 41.3746 49.7694 42.1942 50.4856C42.514 50.7657 42.74 51.139 42.8412 51.5541C42.9425 51.9692 42.914 52.4059 42.7598 52.804C42.6756 52.9839 42.5651 53.15 42.4319 53.2967C42.2154 53.5609 41.9322 53.7612 41.6123 53.8762C41.6123 53.8762 41.1083 54.3275 39.3543 54.5428C37.7363 54.6646 36.1106 54.6342 34.4982 54.4517C33.99 54.3813 33.8835 54.8657 33.6089 56.236C33.3548 57.4325 33.1581 59.4528 32.695 59.4611Z" fill="#263238"/>
<path d="M37.752 64.7976C37.752 64.7976 35.2932 64.2966 34.4367 63.8371C33.9329 63.57 33.5202 63.156 33.2523 62.6489C33.3811 63.1562 33.6097 63.6321 33.9244 64.0482C34.5514 64.8762 37.752 65.2447 37.752 65.2447V64.7976Z" fill="#F28F8F"/>
<path d="M37.1619 58.3764C37.1635 58.4429 37.152 58.509 37.1281 58.571C37.1042 58.6329 37.0683 58.6895 37.0225 58.7372C36.9767 58.785 36.922 58.8231 36.8615 58.8493C36.801 58.8755 36.7359 58.8893 36.6701 58.8898C36.5678 58.8939 36.4667 58.867 36.3797 58.8125C36.2927 58.7581 36.2239 58.6785 36.1821 58.5841C36.1403 58.4898 36.1274 58.3849 36.1451 58.2831C36.1628 58.1813 36.2103 58.0871 36.2815 58.0128C36.3527 57.9385 36.4443 57.8875 36.5444 57.8662C36.6446 57.845 36.7487 57.8546 36.8435 57.8937C36.9382 57.9328 37.0192 57.9997 37.0759 58.0858C37.1327 58.1718 37.1626 58.273 37.1619 58.3764V58.3764Z" fill="#263238"/>
<path d="M36.3709 56.3188L35.3178 56.9026C35.2473 56.7588 35.2335 56.5933 35.2791 56.4396C35.3248 56.2859 35.4265 56.1555 35.5636 56.0746C35.6322 56.0357 35.7078 56.0112 35.786 56.0024C35.8641 55.9937 35.9432 56.0009 36.0186 56.0237C36.0939 56.0465 36.1639 56.0844 36.2245 56.1351C36.285 56.1858 36.3348 56.2483 36.3709 56.3188V56.3188Z" fill="#263238"/>
<path d="M37.5307 61.8126L38.6536 62.2266C38.6296 62.3031 38.5906 62.3738 38.5388 62.4345C38.487 62.4953 38.4236 62.5447 38.3523 62.58C38.2811 62.6152 38.2034 62.6354 38.1242 62.6395C38.045 62.6435 37.9657 62.6312 37.8913 62.6034C37.7419 62.5439 37.621 62.4285 37.5538 62.2812C37.4866 62.1338 37.4783 61.966 37.5307 61.8126V61.8126Z" fill="#F28F8F"/>
<path d="M41.6779 56.7536L40.719 56.0084C40.7637 55.9446 40.8206 55.8906 40.8864 55.8495C40.9522 55.8083 41.0254 55.781 41.1019 55.769C41.1783 55.7571 41.2563 55.7607 41.3314 55.7798C41.4064 55.7988 41.4768 55.8329 41.5386 55.88C41.6692 55.9791 41.7566 56.1255 41.7826 56.2884C41.8086 56.4513 41.7711 56.618 41.6779 56.7536Z" fill="#263238"/>
<path d="M41.2558 58.2357C41.2518 58.3329 41.2195 58.4269 41.1631 58.5058C41.1067 58.5847 41.0286 58.6452 40.9384 58.6796C40.8483 58.7141 40.7501 58.721 40.6561 58.6996C40.5621 58.6781 40.4764 58.6293 40.4097 58.559C40.343 58.4888 40.2981 58.4003 40.2807 58.3045C40.2634 58.2088 40.2742 58.11 40.312 58.0204C40.3497 57.9308 40.4127 57.8544 40.4931 57.8007C40.5734 57.7469 40.6676 57.7183 40.764 57.7182C40.83 57.7192 40.8952 57.7335 40.9557 57.7602C41.0162 57.7868 41.0709 57.8253 41.1166 57.8734C41.1624 57.9215 41.1982 57.9783 41.2221 58.0405C41.246 58.1027 41.2574 58.169 41.2558 58.2357Z" fill="#263238"/>
<path d="M38.8216 57.8341L38.8789 60.8521L40.6452 60.4589L38.8216 57.8341Z" fill="#F28F8F"/>
<path d="M9.25024 105.804C8.9699 105.372 8.55884 105.042 8.0782 104.864C7.58234 104.703 5.95543 104.786 5.24237 105.928C4.52931 107.071 4.54571 108.454 4.11132 109.315C3.60179 110.188 2.95072 110.969 2.18525 111.625C1.47219 112.3 0.697662 114.171 1.11976 115.893C1.22018 116.312 1.43335 116.695 1.73568 116.999C2.03801 117.303 2.41771 117.516 2.83273 117.616L9.25024 105.804Z" fill="#F0F0F0"/>
<path d="M8.81994 105.527C8.29477 105.393 7.74385 105.403 7.22384 105.556C6.70382 105.709 6.23348 105.999 5.86117 106.396C5.19729 107.224 5.21778 108.421 4.85306 109.373C4.62586 109.851 4.32578 110.289 3.96379 110.673C3.57857 111.174 3.1073 111.609 2.75897 112.143C2.49294 112.572 2.28873 113.038 2.15246 113.525C1.98712 114.061 1.91366 114.621 1.93527 115.181C1.96524 115.62 2.09103 116.047 2.3036 116.43C2.51617 116.814 2.81024 117.145 3.16467 117.4C3.90232 117.91 4.91453 117.997 5.47596 117.185C5.66337 116.879 5.81988 116.554 5.94313 116.216C6.17662 115.565 6.53133 114.965 6.98813 114.449C7.42662 114.035 7.80773 113.517 8.27491 113.149C8.34867 113.091 8.42243 113.024 8.50029 112.975C9.35268 112.408 10.2338 111.907 10.3157 111.563C10.3977 111.219 10.4673 107.249 10.4673 107.249C10.0166 107.137 9.54939 105.759 8.81994 105.527Z" fill="#263238"/>
<path d="M2.42702 112.772C3.16056 112.773 3.8786 112.985 4.49652 113.385C5.59889 114.068 6.13573 114.904 6.2054 115.686C6.2054 115.686 6.04968 116.899 5.63987 117.371C5.23007 117.843 4.41047 118.373 2.83273 117.616C2.83273 117.616 0.709951 115.749 2.42702 112.772Z" fill="#FAFAFA"/>
<path d="M14.8317 106.959L9.62315 107.237C9.28571 107.229 8.95088 107.298 8.64373 107.44C8.00034 107.692 7.17664 109.559 7.8651 110.056C7.97293 110.115 8.06299 110.202 8.12574 110.309C8.1885 110.415 8.22163 110.537 8.22163 110.66C8.63143 110.412 9.36908 110.735 9.79527 111.033C9.96785 111.143 10.0935 111.315 10.1477 111.513C10.3882 111.48 10.6304 111.459 10.873 111.451C11.6188 111.5 12.3607 111.597 13.0942 111.741L14.8317 106.959Z" fill="#FFA8A7"/>
<path d="M46.8701 138.589C46.6201 138.651 46.5996 139.628 46.698 139.91C46.9322 140.421 47.2937 140.861 47.747 141.189C48.3896 141.674 48.9116 142.303 49.2715 143.027C49.9084 144.147 50.7797 145.114 51.8246 145.859C52.5181 146.284 53.2921 146.558 54.0967 146.663C54.9013 146.768 55.7187 146.701 56.4963 146.467C58.1601 146.008 58.3527 145.573 58.365 144.94L46.8701 138.589Z" fill="#F0F0F0"/>
<path d="M52.0623 135.144C52.3286 135.823 53.1974 138.692 54.8981 140.092C56.2505 141.201 58.0782 142.468 58.5863 143.764C59.0945 145.06 56.2464 145.735 55.0374 145.59C53.6277 145.42 51.7795 144.724 50.7304 143.561C49.9887 142.733 49.501 141.752 48.9642 141.106C48.4273 140.46 47.2553 139.773 46.9438 139.007C46.7717 138.593 46.8947 137.637 47.0545 136.834C47.2061 136.097 47.3659 135.281 47.6159 135.339C47.6159 135.426 47.6405 135.786 47.6405 135.786C47.9643 136.101 52.0623 135.144 52.0623 135.144Z" fill="#263238"/>
<path d="M52.5581 136.482C52.3409 135.828 52.1155 135.165 52.0254 134.726C51.884 133.921 51.8086 133.106 51.8 132.288C51.7385 130.731 51.7262 127.158 51.7262 127.158L46.8701 129.725C46.993 130.686 47.2225 131.452 47.4233 132.623C47.5468 133.285 47.6126 133.957 47.62 134.631C47.62 134.904 47.62 135.438 47.62 135.707C47.62 135.89 47.747 135.964 47.8618 136.08C48.0425 136.278 48.1819 136.51 48.2716 136.763C48.3132 136.905 48.4033 137.026 48.5257 137.107C48.6299 137.142 48.7411 137.151 48.8494 137.132C49.1732 137.132 49.669 137.053 49.8329 137.417C49.8519 137.249 49.9045 137.087 49.9877 136.941C50.0708 136.794 50.1827 136.666 50.3165 136.564C50.8083 136.184 52.1647 135.529 52.5581 136.482Z" fill="#FFA8A7"/>
<path d="M51.9721 144.546C51.9721 144.546 52.5335 142.298 54.6686 141.499C56.8037 140.7 57.4881 141.661 57.7872 141.913C58.0864 142.166 59.5412 143.569 58.365 144.936C58.365 144.94 55.1522 147.171 51.9721 144.546Z" fill="#FAFAFA"/>
<path d="M35.4653 90.8092C34.5789 90.6198 33.7235 90.3048 32.9245 89.8735C33.3756 89.8618 33.8227 89.7852 34.2523 89.6458C34.4837 89.5859 34.6838 89.439 34.8117 89.2351C34.9396 89.0313 34.9858 88.7858 34.9407 88.5487C34.8834 88.35 34.408 88.5487 33.5843 88.4163C32.5311 88.2631 31.982 87.8574 30.8386 87.9774C30.4135 88.0261 29.9854 87.9172 29.6338 87.671C27.7528 86.309 25.4743 83.3158 24.0113 81.0471L27.9331 75.3794C28.5946 75.2311 29.2117 74.9264 29.7339 74.4902C30.2561 74.0541 30.6684 73.499 30.937 72.8706C31.4984 71.5126 32.1049 68.2876 30.1665 66.0975C29.1013 66.0736 28.049 66.3365 27.1176 66.8593C25.9784 67.443 24.249 70.105 22.868 72.4648C21.6836 74.5348 18.2987 79.9748 18.2987 81.9206C18.2987 82.7196 19.3314 83.8995 21.8721 86.2303C23.1016 87.3937 24.5195 88.6688 26.0357 90.0433C27.1687 91.0119 28.3699 91.896 29.6297 92.6887C33.0024 94.9078 34.7481 94.8953 36.1005 93.8065C38.256 92.0719 37.5758 91.2894 35.4653 90.8092Z" fill="#FFA8A7"/>
</svg>
