<svg width="50" height="50" viewBox="0 0 50 50" fill="none" xmlns="http://www.w3.org/2000/svg">
<path d="M25 48.9258C38.2138 48.9258 48.9258 38.2138 48.9258 25C48.9258 11.7862 38.2138 1.07422 25 1.07422C11.7862 1.07422 1.07422 11.7862 1.07422 25C1.07422 38.2138 11.7862 48.9258 25 48.9258Z" fill="#00BFA5"/>
<path d="M7.22656 16.9278V29.5727C8.08037 29.3295 8.98135 29.1992 9.91211 29.1992C15.3238 29.1992 19.7266 33.6019 19.7266 39.0137C19.7266 40.2336 19.5021 41.4019 19.0937 42.4805H50V16.9278H7.22656Z" fill="#FFE2B8"/>
<path d="M9.45596 25.2776C9.28652 25.2776 9.14863 25.1398 9.14863 24.9702V20.2838C9.14863 20.1144 9.28652 19.9765 9.45596 19.9765H10.1562V16.9279H7.22656V29.5728C7.8457 29.3964 8.48975 29.2804 9.15186 29.2294V27.3544C9.15186 27.1316 9.33408 26.9494 9.55684 26.9494H10.1562V25.2777H9.45596V25.2776Z" fill="#FFC987"/>
<path d="M49.0234 11.0485H47.5106V13.8794C47.5106 14.3641 47.1163 14.7583 46.6317 14.7583H46.2355C45.751 14.7583 45.3566 14.3641 45.3566 13.8794V11.0485H42.419V13.8794C42.419 14.3641 42.0247 14.7583 41.5401 14.7583H41.1439C40.6594 14.7583 40.265 14.3641 40.265 13.8794V11.0485H37.3274V13.8794C37.3274 14.3641 36.9331 14.7583 36.4485 14.7583H36.0523C35.5678 14.7583 35.1734 14.3641 35.1734 13.8794V11.0485H32.2359V13.8794C32.2359 14.3641 31.8416 14.7583 31.357 14.7583H30.9608C30.4763 14.7583 30.0819 14.3641 30.0819 13.8794V11.0485H27.1445V13.8794C27.1445 14.3641 26.7502 14.7583 26.2656 14.7583H25.8694C25.3849 14.7583 24.9905 14.3641 24.9905 13.8794V11.0485H22.053V13.8794C22.053 14.3641 21.6587 14.7583 21.1741 14.7583H20.7779C20.2934 14.7583 19.899 14.3641 19.899 13.8794V11.0485H16.9614V13.8794C16.9614 14.3641 16.5671 14.7583 16.0825 14.7583H15.6863C15.2018 14.7583 14.8074 14.3641 14.8074 13.8794V11.0485H11.8698V13.8794C11.8698 14.3641 11.4755 14.7583 10.9909 14.7583H10.5947C10.1102 14.7583 9.71582 14.3641 9.71582 13.8794V11.0485H8.20312C7.66602 11.0485 7.22656 11.488 7.22656 12.0251V17.0389H50V12.0251C50 11.488 49.5605 11.0485 49.0234 11.0485Z" fill="#A5D8C6"/>
<path d="M9.71592 13.8794V11.0485H8.20312C7.66602 11.0485 7.22656 11.488 7.22656 12.0251V17.0389H10.1562V14.64C9.89355 14.4878 9.71592 14.2042 9.71592 13.8794Z" fill="#A5D8C6"/>
<path d="M43.5981 34.9609H42.583V36.2876H43.5981V34.9609Z" fill="#FFAF10"/>
<path d="M40.562 32.3239C40.5353 32.2713 40.5097 32.2167 40.4838 32.1627C40.182 32.0108 39.8774 31.7226 39.5948 31.3173C39.3013 30.8965 39.0556 30.2211 38.9378 29.5107C38.931 29.4689 38.9427 29.4266 38.97 29.3942C38.9974 29.3621 39.0373 29.3435 39.0796 29.3435H39.645C39.5998 29.0611 39.5628 28.7729 39.5348 28.4794H38.1748C38.0811 28.4794 38.0049 28.5558 38.0049 28.6496C38.0049 29.7975 38.3182 30.8785 38.8869 31.694C39.4187 32.4565 40.1286 32.9129 40.8861 32.9791C40.89 32.9793 40.8938 32.9795 40.8978 32.9795C40.9129 32.9795 40.9274 32.9761 40.9414 32.9711C40.8079 32.7734 40.6811 32.5578 40.562 32.3239Z" fill="#FF9518"/>
<path d="M48.0056 28.4794H46.6454C46.6174 28.7729 46.5804 29.0611 46.5351 29.3435H47.1008C47.143 29.3435 47.1828 29.362 47.2102 29.3942C47.2376 29.4266 47.2492 29.469 47.2424 29.5107C47.1245 30.2211 46.8789 30.8964 46.5853 31.3173C46.3026 31.7228 45.9979 32.011 45.6961 32.1629C45.6702 32.2169 45.6447 32.2714 45.618 32.3239C45.499 32.5576 45.3722 32.7734 45.2389 32.971C45.2528 32.976 45.2675 32.9795 45.2827 32.9795C45.2866 32.9795 45.2904 32.9793 45.2942 32.9791C46.0518 32.9129 46.7617 32.4564 47.2934 31.694C47.8624 30.8786 48.1757 29.7975 48.1757 28.6496C48.1757 28.5558 48.0993 28.4794 48.0056 28.4794Z" fill="#FF9518"/>
<path d="M46.7497 27.2564C46.7125 27.2183 46.6615 27.197 46.6083 27.197H39.5718C39.5187 27.197 39.4678 27.2183 39.4305 27.2564C39.3932 27.2945 39.3729 27.3459 39.3738 27.3991C39.4139 29.2864 39.8048 31.0512 40.4749 32.3682C40.928 33.2587 41.4812 33.888 42.0863 34.2177H44.0936C44.6987 33.8879 45.2518 33.2587 45.7049 32.3682C46.3751 31.0513 46.7661 29.2864 46.8061 27.3991C46.8073 27.3459 46.787 27.2945 46.7497 27.2564Z" fill="#FFAF10"/>
<path d="M42.0087 32.3682C41.3386 31.0513 40.9477 29.2864 40.9076 27.3991C40.9065 27.3459 40.927 27.2945 40.9642 27.2564C41.0014 27.2183 41.0523 27.197 41.1055 27.197H39.5718C39.5187 27.197 39.4678 27.2183 39.4305 27.2564C39.3932 27.2945 39.3729 27.3459 39.3738 27.3991C39.4139 29.2864 39.8048 31.0512 40.4749 32.3682C40.928 33.2587 41.4812 33.888 42.0863 34.2177H43.62C43.015 33.888 42.4618 33.2587 42.0087 32.3682Z" fill="#EF9614"/>
<path d="M45.1488 38.6465V36.3046C45.1488 36.2277 45.0858 36.1646 45.009 36.1646H41.1711C41.0941 36.1646 41.0312 36.2277 41.0312 36.3046V38.6465H45.1488Z" fill="#FF9518"/>
<path d="M45.9576 39.169C45.9576 39.2459 45.8947 39.3091 45.8178 39.3091H40.3623C40.2853 39.3091 40.2225 39.2459 40.2225 39.169V38.7308C40.2225 38.6537 40.2854 38.5908 40.3623 38.5908H45.8178C45.8947 38.5908 45.9576 38.6537 45.9576 38.7308V39.169Z" fill="#FFAF10"/>
<path d="M44.3952 37.8876C44.3952 37.9339 44.3575 37.9716 44.3113 37.9716H41.8689C41.8228 37.9716 41.785 37.9338 41.785 37.8876V36.9431C41.785 36.8968 41.8228 36.8592 41.8689 36.8592H44.3113C44.3575 36.8592 44.3952 36.8969 44.3952 36.9431V37.8876Z" fill="#FFAF10"/>
<path d="M41.9639 34.1531V34.9322C41.9639 35.0088 42.0265 35.0715 42.1028 35.0715H44.0771C44.1537 35.0715 44.2162 35.0088 44.2162 34.9322V34.1531H41.9639Z" fill="#FF9518"/>
<path d="M44.0102 31.7568C43.9665 31.7569 43.9219 31.7449 43.8773 31.7217L43.1576 31.3434C43.1468 31.3375 43.1226 31.331 43.0901 31.331C43.0576 31.331 43.0334 31.3375 43.0226 31.3434L42.3028 31.7217C42.2583 31.7449 42.2137 31.7568 42.17 31.7568C42.1037 31.7568 42.0444 31.7298 42.003 31.6808C41.957 31.6263 41.9396 31.5509 41.9538 31.4682L42.0912 30.6667C42.0973 30.6315 42.075 30.5631 42.0494 30.5382L41.4672 29.9705C41.3913 29.8967 41.3639 29.805 41.3918 29.7192C41.4196 29.6335 41.4958 29.5755 41.6005 29.5603L42.4051 29.4434C42.4404 29.4382 42.4986 29.3959 42.5145 29.3639L42.8744 28.6347C42.9213 28.5398 42.9998 28.4853 43.0901 28.4853C43.1804 28.4853 43.259 28.5398 43.3058 28.6347L43.6656 29.3639C43.6813 29.396 43.7396 29.4382 43.775 29.4434L44.5798 29.5603C44.6844 29.5755 44.7604 29.6335 44.7883 29.7192C44.8163 29.805 44.7888 29.8967 44.713 29.9705L44.1308 30.5382C44.1053 30.5632 44.0829 30.6315 44.089 30.6667L44.2265 31.4682C44.2406 31.5509 44.2232 31.6263 44.1772 31.6808C44.1359 31.7297 44.0766 31.7568 44.0102 31.7568Z" fill="#EF8318"/>
<path d="M14.1425 19.8787H9.45596C9.23321 19.8787 9.05098 20.0609 9.05098 20.2837V24.9701C9.05098 25.1929 9.23321 25.3752 9.45596 25.3752H14.1425C14.3652 25.3752 14.5476 25.1929 14.5476 24.9701V20.2837C14.5475 20.0609 14.3652 19.8787 14.1425 19.8787Z" fill="white"/>
<path d="M10.2991 24.9701V20.2837C10.2991 20.0609 10.4814 19.8787 10.7041 19.8787H9.45596C9.23321 19.8787 9.05098 20.0609 9.05098 20.2837V24.9701C9.05098 25.1929 9.23321 25.3752 9.45596 25.3752H10.7042C10.4814 25.3753 10.2991 25.193 10.2991 24.9701Z" fill="#EEF6FF"/>
<path d="M21.4213 19.8787H16.7348C16.512 19.8787 16.3297 20.0609 16.3297 20.2837V24.9701C16.3297 25.1929 16.512 25.3752 16.7348 25.3752H21.4213C21.644 25.3752 21.8263 25.1929 21.8263 24.9701V20.2837C21.8263 20.0609 21.644 19.8787 21.4213 19.8787Z" fill="white"/>
<path d="M17.5779 24.9701V20.2837C17.5779 20.0609 17.7602 19.8787 17.983 19.8787H16.7348C16.512 19.8787 16.3297 20.0609 16.3297 20.2837V24.9701C16.3297 25.1929 16.512 25.3752 16.7348 25.3752H17.983C17.7603 25.3753 17.5779 25.193 17.5779 24.9701Z" fill="#EEF6FF"/>
<path d="M28.7001 19.8787H24.0136C23.7908 19.8787 23.6085 20.0609 23.6085 20.2837V24.9701C23.6085 25.1929 23.7908 25.3752 24.0136 25.3752H28.7001C28.9229 25.3752 29.1051 25.1929 29.1051 24.9701V20.2837C29.1052 20.0609 28.9229 19.8787 28.7001 19.8787Z" fill="white"/>
<path d="M24.8568 24.9701V20.2837C24.8568 20.0609 25.0391 19.8787 25.2618 19.8787H24.0136C23.7908 19.8787 23.6085 20.0609 23.6085 20.2837V24.9701C23.6085 25.1929 23.7908 25.3752 24.0136 25.3752H25.2618C25.0391 25.3753 24.8568 25.193 24.8568 24.9701Z" fill="#EEF6FF"/>
<path d="M35.9789 19.8787H31.2924C31.0696 19.8787 30.8873 20.0609 30.8873 20.2837V24.9701C30.8873 25.1929 31.0696 25.3752 31.2924 25.3752H35.9789C36.2017 25.3752 36.3839 25.1929 36.3839 24.9701V20.2837C36.384 20.0609 36.2018 19.8787 35.9789 19.8787Z" fill="white"/>
<path d="M32.1356 24.9701V20.2837C32.1356 20.0609 32.3179 19.8787 32.5406 19.8787H31.2924C31.0696 19.8787 30.8873 20.0609 30.8873 20.2837V24.9701C30.8873 25.1929 31.0696 25.3752 31.2924 25.3752H32.5406C32.3179 25.3753 32.1356 25.193 32.1356 24.9701Z" fill="#EEF6FF"/>
<path d="M9.91211 29.1992C11.5876 29.1992 13.1661 29.6216 14.5475 30.365V27.2506C14.5475 27.0278 14.3652 26.8456 14.1424 26.8456H9.45586C9.23311 26.8456 9.05088 27.0278 9.05088 27.2506V29.2375C9.33477 29.2127 9.62188 29.1992 9.91211 29.1992Z" fill="white"/>
<path d="M9.91211 29.1992C10.0418 29.1992 10.1707 29.2025 10.2991 29.2075V27.2506C10.2991 27.0278 10.4814 26.8456 10.7041 26.8456H9.45596C9.23321 26.8456 9.05098 27.0278 9.05098 27.2506V29.2375C9.33477 29.2127 9.62188 29.1992 9.91211 29.1992Z" fill="#EEF6FF"/>
<path d="M21.4213 26.8455H16.7348C16.512 26.8455 16.3297 27.0277 16.3297 27.2505V31.5939C16.6011 31.8289 16.8589 32.079 17.103 32.342H21.4212C21.6439 32.342 21.8262 32.1598 21.8262 31.937V27.2506C21.8263 27.0278 21.644 26.8455 21.4213 26.8455Z" fill="white"/>
<path d="M17.1031 32.3421H17.983C17.7603 32.3421 17.5779 32.1599 17.5779 31.9371V27.2507C17.5779 27.0279 17.7602 26.8457 17.983 26.8457H16.7348C16.512 26.8457 16.3297 27.0279 16.3297 27.2507V31.5941C16.6011 31.829 16.859 32.079 17.1031 32.3421Z" fill="#EEF6FF"/>
<path d="M28.7001 26.8455H24.0136C23.7908 26.8455 23.6085 27.0277 23.6085 27.2505V31.9369C23.6085 32.1597 23.7908 32.3419 24.0136 32.3419H28.7001C28.9229 32.3419 29.1051 32.1597 29.1051 31.9369V27.2505C29.1052 27.0278 28.9229 26.8455 28.7001 26.8455Z" fill="white"/>
<path d="M24.8568 31.937V27.2506C24.8568 27.0278 25.0391 26.8456 25.2618 26.8456H24.0136C23.7908 26.8456 23.6085 27.0278 23.6085 27.2506V31.937C23.6085 32.1598 23.7908 32.342 24.0136 32.342H25.2618C25.0391 32.3421 24.8568 32.1598 24.8568 31.937Z" fill="#EEF6FF"/>
<path d="M35.9789 26.8455H31.2924C31.0696 26.8455 30.8873 27.0277 30.8873 27.2505V31.9369C30.8873 32.1597 31.0696 32.3419 31.2924 32.3419H35.9789C36.2017 32.3419 36.3839 32.1597 36.3839 31.9369V27.2505C36.384 27.0278 36.2018 26.8455 35.9789 26.8455Z" fill="white"/>
<path d="M32.1356 31.937V27.2506C32.1356 27.0278 32.3179 26.8456 32.5406 26.8456H31.2924C31.0696 26.8456 30.8873 27.0278 30.8873 27.2506V31.937C30.8873 32.1598 31.0696 32.342 31.2924 32.342H32.5406C32.3179 32.3421 32.1356 32.1598 32.1356 31.937Z" fill="#EEF6FF"/>
<path d="M21.4213 33.8124H18.2312C19.178 35.3214 19.7266 37.1046 19.7266 39.0137C19.7266 39.1125 19.7246 39.2109 19.7218 39.309H21.4213C21.644 39.309 21.8263 39.1267 21.8263 38.9039V34.2175C21.8263 33.9946 21.644 33.8124 21.4213 33.8124Z" fill="white"/>
<path d="M28.7001 33.8124H24.0136C23.7908 33.8124 23.6085 33.9946 23.6085 34.2174V38.9038C23.6085 39.1266 23.7908 39.3089 24.0136 39.3089H28.7001C28.9228 39.3089 29.1051 39.1266 29.1051 38.9038V34.2174C29.1052 33.9946 28.9228 33.8124 28.7001 33.8124Z" fill="white"/>
<path d="M24.8568 38.9039V34.2175C24.8568 33.9947 25.0391 33.8125 25.2618 33.8125H24.0136C23.7908 33.8125 23.6085 33.9947 23.6085 34.2175V38.9039C23.6085 39.1267 23.7908 39.309 24.0136 39.309H25.2618C25.0391 39.309 24.8568 39.1267 24.8568 38.9039Z" fill="#EEF6FF"/>
<path d="M35.9789 33.8124H31.2924C31.0696 33.8124 30.8873 33.9946 30.8873 34.2174V38.9038C30.8873 39.1266 31.0696 39.3089 31.2924 39.3089H35.9789C36.2017 39.3089 36.3839 39.1266 36.3839 38.9038V34.2174C36.384 33.9946 36.2018 33.8124 35.9789 33.8124Z" fill="white"/>
<path d="M32.1356 38.9039V34.2175C32.1356 33.9947 32.3179 33.8125 32.5406 33.8125H31.2924C31.0696 33.8125 30.8873 33.9947 30.8873 34.2175V38.9039C30.8873 39.1267 31.0696 39.309 31.2924 39.309H32.5406C32.3179 39.309 32.1356 39.1267 32.1356 38.9039Z" fill="#EEF6FF"/>
<path d="M38.7156 22.3899H47.4647C47.6875 22.3899 47.8697 22.2076 47.8697 21.9849V20.5267C47.8697 20.3039 47.6875 20.1216 47.4647 20.1216H38.7156C38.4929 20.1216 38.3105 20.3038 38.3105 20.5267V21.9849C38.3105 22.2076 38.4929 22.3899 38.7156 22.3899Z" fill="#156C6E"/>
<path d="M40.7981 21.9849V20.5267C40.7981 20.3039 40.9804 20.1216 41.2032 20.1216H38.7156C38.4929 20.1216 38.3105 20.3038 38.3105 20.5267V21.9849C38.3105 22.2076 38.4929 22.3899 38.7156 22.3899H41.2032C40.9805 22.3899 40.7981 22.2076 40.7981 21.9849Z" fill="#00BFA5"/>
<path d="M38.7156 25.7113H47.4647C47.6875 25.7113 47.8697 25.5291 47.8697 25.3063V23.848C47.8697 23.6253 47.6875 23.4431 47.4647 23.4431H38.7156C38.4929 23.4431 38.3105 23.6253 38.3105 23.848V25.3063C38.3105 25.5291 38.4929 25.7113 38.7156 25.7113Z" fill="#00BFA5"/>
<path d="M40.7981 25.3063V23.8481C40.7981 23.6254 40.9804 23.4432 41.2032 23.4432H38.7156C38.4929 23.4432 38.3105 23.6254 38.3105 23.8481V25.3063C38.3105 25.5291 38.4929 25.7114 38.7156 25.7114H41.2032C40.9805 25.7113 40.7981 25.5291 40.7981 25.3063Z" fill="#159E97"/>
<path d="M9.91211 48.9258C15.3864 48.9258 19.8242 44.488 19.8242 39.0137C19.8242 33.5394 15.3864 29.1016 9.91211 29.1016C4.4378 29.1016 0 33.5394 0 39.0137C0 44.488 4.4378 48.9258 9.91211 48.9258Z" fill="#EEF6FF"/>
<path d="M2.92969 39.0137C2.92969 34.037 6.59736 29.9176 11.377 29.2095C10.8988 29.1387 10.4099 29.1016 9.91211 29.1016C4.43789 29.1016 0 33.5393 0 39.0137C0 44.4879 4.43789 48.9258 9.91211 48.9258C10.4099 48.9258 10.8988 48.8886 11.377 48.8179C6.59736 48.1098 2.92969 43.9901 2.92969 39.0137Z" fill="#D9EAFC"/>
<path d="M9.61826 13.8794C9.61826 14.4165 10.0577 14.856 10.5948 14.856H10.991C11.5281 14.856 11.9676 14.4165 11.9676 13.8794V9.51378C11.9676 8.97667 11.5281 8.53722 10.991 8.53722H10.5948C10.0577 8.53722 9.61826 8.97667 9.61826 9.51378V13.8794Z" fill="#999CAD"/>
<path d="M14.7098 13.8794C14.7098 14.4165 15.1492 14.856 15.6863 14.856H16.0825C16.6196 14.856 17.0591 14.4165 17.0591 13.8794V9.51378C17.0591 8.97667 16.6196 8.53722 16.0825 8.53722H15.6863C15.1492 8.53722 14.7098 8.97667 14.7098 9.51378V13.8794Z" fill="#999CAD"/>
<path d="M19.8014 13.8794C19.8014 14.4165 20.2408 14.856 20.7779 14.856H21.1741C21.7112 14.856 22.1507 14.4165 22.1507 13.8794V9.51378C22.1507 8.97667 21.7112 8.53722 21.1741 8.53722H20.7779C20.2408 8.53722 19.8014 8.97667 19.8014 9.51378V13.8794Z" fill="#999CAD"/>
<path d="M24.8929 13.8794C24.8929 14.4165 25.3323 14.856 25.8694 14.856H26.2656C26.8027 14.856 27.2422 14.4165 27.2422 13.8794V9.51378C27.2422 8.97667 26.8027 8.53722 26.2656 8.53722H25.8694C25.3323 8.53722 24.8929 8.97667 24.8929 9.51378V13.8794Z" fill="#999CAD"/>
<path d="M29.9844 13.8794C29.9844 14.4165 30.4238 14.856 30.9609 14.856H31.3571C31.8942 14.856 32.3337 14.4165 32.3337 13.8794V9.51378C32.3337 8.97667 31.8942 8.53722 31.3571 8.53722H30.9609C30.4238 8.53722 29.9844 8.97667 29.9844 9.51378V13.8794Z" fill="#999CAD"/>
<path d="M35.076 13.8794C35.076 14.4165 35.5154 14.856 36.0525 14.856H36.4487C36.9858 14.856 37.4253 14.4165 37.4253 13.8794V9.51378C37.4253 8.97667 36.9858 8.53722 36.4487 8.53722H36.0525C35.5154 8.53722 35.076 8.97667 35.076 9.51378V13.8794Z" fill="#999CAD"/>
<path d="M40.1675 13.8794C40.1675 14.4165 40.6069 14.856 41.144 14.856H41.5402C42.0773 14.856 42.5168 14.4165 42.5168 13.8794V9.51378C42.5168 8.97667 42.0773 8.53722 41.5402 8.53722H41.144C40.6069 8.53722 40.1675 8.97667 40.1675 9.51378V13.8794Z" fill="#999CAD"/>
<path d="M46.2357 8.53722C45.6985 8.53722 45.2591 8.97667 45.2591 9.51378V13.8794C45.2591 14.4165 45.6985 14.856 46.2357 14.856H46.6318C47.169 14.856 47.6084 14.4165 47.6084 13.8794V9.51378C47.6084 8.97667 47.169 8.53722 46.6318 8.53722H46.2357Z" fill="#999CAD"/>
</svg>
