<svg width="97" height="98" viewBox="0 0 97 98" fill="none" xmlns="http://www.w3.org/2000/svg">
<circle cx="48.5" cy="48.5" r="48.5" fill="#00BFA5"/>
<path d="M69.4089 84.875H64.2356C63.2832 84.875 62.5111 84.1347 62.5111 83.2216C62.5111 82.3085 63.2832 81.5682 64.2356 81.5682H69.4089C70.3612 81.5682 71.1333 82.3085 71.1333 83.2216C71.1333 84.1347 70.3614 84.875 69.4089 84.875Z" fill="#00BFA5"/>
<path d="M80.6954 69.7574C80.6515 69.7964 76.264 73.7009 76.2112 73.7297C77.4354 75.5872 78.1373 77.749 78.1373 80.0554L75.5395 84C75.5395 84.743 61.5578 85 69.6059 87L27.3635 84C26.5272 84 21.7885 80.7001 21.7885 84L19.8624 80.0554C19.8624 77.749 20.5643 75.5872 21.7885 73.7297C21.7376 73.7021 22.0965 74.0151 17.3043 69.7574C15.5258 68.1772 15.3612 65.6658 16.9184 63.9125C18.8176 61.7535 18.2659 59.2622 16.557 57.8305C14.682 56.2587 14.4738 53.6733 16.0783 51.8813L18.2579 49.4472C19.2626 48.3242 19.5899 46.8348 19.1321 45.4581L17.7244 41.2168C17.0035 39.05 18.2466 36.7486 20.6003 35.893L22.4602 35.2155C24.3219 34.5381 25.5385 32.9276 25.5385 31.139V26.8103C25.5385 17.526 34.0092 10 44.4589 10H53.5408C63.9899 10 72.4612 17.524 72.4612 26.8103V31.139C72.4612 32.9276 73.6778 34.5381 75.5395 35.2155L77.3994 35.893C79.7531 36.7486 80.9962 39.05 80.2753 41.2168L78.8676 45.4581C78.4098 46.8348 78.7371 48.3242 79.7418 49.4472L81.9214 51.8813C83.5272 53.6776 83.317 56.257 81.4427 57.8305C79.5715 59.3972 79.3596 61.9742 80.9527 63.7662C82.7626 65.8236 82.3779 68.2625 80.6954 69.7574Z" fill="#FFDFBA"/>
<path d="M17.3045 69.7574C17.3484 69.7964 21.7358 73.7009 21.7886 73.7297C20.5645 75.5872 19.8625 77.749 19.8625 80.0554L20.6004 82C25.0106 79.3448 32.3208 84.6552 26.3333 86L69.6061 88C65.4436 85 75.5397 82.743 75.5397 82L78.1374 80.0554C78.1374 77.749 77.4355 75.5872 76.2113 73.7297C76.2622 73.7021 75.9033 74.0151 80.6955 69.7574C82.474 68.1772 82.6386 65.6658 81.0815 63.9125C79.1822 61.7535 79.734 59.2622 81.4428 57.8305C83.3179 56.2587 83.526 53.6733 81.9215 51.8813L79.7419 49.4472C78.7372 48.3242 78.4099 46.8348 78.8678 45.4581L80.2755 41.2168C80.9963 39.05 79.7533 36.7486 77.3995 35.893L75.5397 35.2155C73.6779 34.5381 72.4613 32.9276 72.4613 31.139V26.8103C72.4613 17.526 63.9906 10 53.5409 10H44.4591C34.0099 10 25.5387 17.524 25.5387 26.8103V31.139C25.5387 32.9276 24.3221 34.5381 22.4603 35.2155L20.6004 35.893C18.2467 36.7486 17.0036 39.05 17.7245 41.2168L19.1322 45.4581C19.5901 46.8348 19.2627 48.3242 18.2581 49.4472L16.0784 51.8813C14.4727 53.6776 14.6829 56.257 16.5571 57.8305C18.4284 59.3972 18.6403 61.9742 17.0472 63.7662C15.2372 65.8236 15.6219 68.2625 17.3045 69.7574Z" fill="#FFDFBA"/>
<path d="M31.6107 40.0629C30.8455 40.1406 30.2686 40.7145 30.2686 41.3987V43.9789C30.2686 50.9149 35.046 56.8624 41.8385 59.3604L41.8101 59.4224V60.5706C41.8101 64.3936 38.3416 67.4752 34.0622 67.52C28.7508 67.52 24.2396 70.0104 21.7885 73.7297C21.7357 73.7009 17.3482 69.7964 17.3043 69.7574C15.5258 68.1772 15.3612 65.6658 16.9184 63.9125C18.8176 61.7535 18.2659 59.2622 16.557 57.8305C14.682 56.2587 14.4738 53.6733 16.0783 51.8813L18.2579 49.4472C19.2626 48.3242 19.5899 46.8348 19.1321 45.4581L17.7244 41.2168C17.0035 39.05 18.2466 36.7486 20.6003 35.893L22.4602 35.2155C24.3219 34.5381 25.5385 32.9276 25.5385 31.139V26.8103C25.5385 17.5263 34.0096 10 44.4589 10H53.5408C63.9899 10 72.4612 17.5241 72.4612 26.8103V31.139C72.4612 32.9276 73.6778 34.5381 75.5395 35.2155L77.3994 35.893C79.7531 36.7486 80.9962 39.05 80.2753 41.2168L78.8676 45.4581C78.4098 46.8348 78.7371 48.3242 79.7418 49.4472L81.9214 51.8813C83.527 53.6775 83.3173 56.2569 81.4427 57.8305C79.6952 59.2935 79.2135 61.7893 81.0813 63.9125C82.6385 65.6658 82.4739 68.1772 80.6954 69.7574C80.6515 69.7964 76.264 73.7009 76.2112 73.7297C73.7803 70.0412 69.2877 67.52 63.9375 67.52C59.6598 67.4752 56.1896 64.3954 56.1896 60.5706V59.4224L56.1612 59.3585C62.9537 56.8605 67.7311 50.9164 67.7311 43.9787V35.6891C67.7311 35.1239 67.3349 34.6184 66.7366 34.4261C63.4445 33.3684 60.6649 31.3303 58.8778 28.6074C58.3558 27.8121 57.1023 27.7191 56.4254 28.4162C50.091 34.9395 41.2989 39.08 31.6107 40.0629V40.0629Z" fill="#9A4A4D"/>
<path d="M66.7367 34.4263C67.3349 34.6184 67.7311 35.1239 67.7311 35.6892V43.9789C67.7311 50.9165 62.9537 56.8607 56.1613 59.3587C43.8749 63.8898 30.2687 55.8401 30.2687 43.9787V41.3985C30.2687 40.7143 30.8456 40.1404 31.6107 40.0628C41.2825 39.0816 50.0803 34.9506 56.4254 28.4164C57.1024 27.7193 58.3559 27.8121 58.8779 28.6075C60.6632 31.3281 63.4409 33.3674 66.7367 34.4263V34.4263Z" fill="#FFEBD2"/>
<path d="M60.1875 11.0678C62.6055 11.8733 61.9125 15.0569 59.33 15.0434C59.236 15.0429 50.2291 15.0431 50.1351 15.0431C39.6857 15.0431 31.2146 22.5694 31.2146 31.8534V36.1821C31.2146 37.9707 29.9981 39.5812 28.1363 40.2586L26.2764 40.9361C23.9227 41.7917 22.6796 44.0931 23.4005 46.2599L24.8082 50.5012C25.2661 51.8779 24.9387 53.3673 23.9341 54.4903L21.7544 56.9244C20.15 58.7164 20.3581 61.3018 22.2331 62.8736C24.1011 64.4388 24.318 67.0136 22.7232 68.8093C21.3874 70.3278 21.2419 71.9838 21.9207 73.4034C21.9977 73.5646 21.7662 73.7131 21.6209 73.5861C20.8103 72.8778 17.3433 69.792 17.3043 69.7576C15.6551 68.2922 15.207 65.8579 17.047 63.7664C18.6435 61.969 18.4233 59.3942 16.557 57.8306C14.682 56.2589 14.4738 53.6734 16.0783 51.8815L18.2579 49.4473C19.2626 48.3244 19.5899 46.835 19.1321 45.4582L17.7244 41.2168C17.0035 39.05 18.2466 36.7486 20.6003 35.893L22.4602 35.2155C24.3219 34.5381 25.5385 32.9276 25.5385 31.139V26.8103C25.5385 17.5263 34.0096 10 44.4589 10H53.5408C55.8602 10 58.104 10.3737 60.1875 11.0678V11.0678Z" fill="#9A4A4D"/>
<path d="M44.7372 54.7358C47.8011 56.4594 45.4067 60.6311 42.0402 59.4332C35.126 56.9728 30.2687 50.9708 30.2687 43.9787V41.3983C30.2687 40.7142 30.8458 40.1409 31.6102 40.0636C32.3131 39.9917 33.0708 39.8974 33.8744 39.7728C34.9396 39.6077 35.9403 40.2882 36.0281 41.2457C36.5985 47.4723 40.0464 52.0971 44.7372 54.7358V54.7358Z" fill="#FFF3E4"/>
<path d="M56.4035 62.1827C51.7421 63.9163 46.6194 64.0508 41.5964 62.1827C41.853 61.2369 41.8102 60.6244 41.8102 59.4224L41.8386 59.3602C46.395 61.0406 51.5961 61.0439 56.1614 59.3602L56.1897 59.4224C56.1897 60.6249 56.147 61.2373 56.4035 62.1827Z" fill="#FFD6A6"/>
<path d="M80.5889 81.568V86.0455C80.5889 86.8762 73.9411 91.5568 73.0444 91.5568L62.2667 95.9659L48.2556 97.0682L40.2713 95.9659L35.3222 94.8636L28.8556 92.6591L24.5444 90.4545C20.2333 87.1477 19.1556 86.0455 17 84.9432L18.0778 81.568C18.0778 73.8229 24.8556 67.5492 33.2154 67.5463C36.1713 67.5454 38.7738 66.1353 40.2713 64C45.4982 68.1371 53.1654 68.1396 58.3954 64C59.8926 66.1353 62.4954 67.5454 65.4512 67.5463C73.8111 67.5492 80.5889 73.8229 80.5889 81.568Z" fill="#6ED9CA"/>
</svg>
