<svg width="307" height="307" viewBox="0 0 307 307" fill="none" xmlns="http://www.w3.org/2000/svg">
<path d="M67.54 261.564C116.721 285 196.419 285 245.6 261.564C294.781 238.128 294.72 200.164 245.6 176.728C196.48 153.291 116.746 153.297 67.5891 176.728C18.4323 200.158 18.42 238.14 67.54 261.564Z" fill="#EBEBEB"/>
<path d="M226.001 87.3722L228.261 85.6346V80.6612C228.261 76.7254 231.398 72.1511 234.812 70.1802C238.226 68.2093 240.995 69.8057 240.995 73.7475V74.4659C241.713 73.3006 242.692 72.3188 243.856 71.5985V71.5985C246.312 70.1802 248.308 71.3284 248.308 74.1651V74.4966L252.827 71.8871C254.442 70.9538 255.756 71.7091 255.756 73.5756C255.7 74.5916 255.406 75.5802 254.897 76.4613C254.388 77.3425 253.679 78.0913 252.827 78.6473L226.001 94.1323C224.386 95.0656 223.072 94.3104 223.072 92.4438C223.128 91.4279 223.422 90.4393 223.931 89.5581C224.44 88.677 225.149 87.9281 226.001 87.3722V87.3722Z" fill="#EBEBEB"/>
<path d="M63.9113 222.538C63.592 222.483 63.2543 222.385 62.8736 222.286C61.5906 221.942 60.3261 221.532 59.0852 221.058C56.6102 220.16 54.2759 218.914 52.1532 217.356C50.989 216.528 49.993 215.486 49.2182 214.286C48.4439 213.071 48.169 211.604 48.4507 210.191C48.6067 209.493 48.959 208.855 49.466 208.351C49.973 207.847 50.6135 207.499 51.312 207.348C51.969 207.243 52.6505 207.348 53.3075 207.231C53.6439 207.204 53.9629 207.071 54.218 206.85C54.4731 206.629 54.651 206.332 54.7258 206.003C54.7284 205.627 54.6264 205.257 54.4311 204.935C53.2382 202.75 52.2119 200.478 51.3611 198.138C50.6489 196.05 50.606 193.792 51.2383 191.679C51.7753 189.576 52.9251 187.68 54.5416 186.232C55.2784 185.618 56.2977 185.09 57.188 185.477C57.471 185.621 57.7196 185.825 57.9167 186.074C58.1139 186.323 58.2548 186.611 58.33 186.92C58.4674 187.537 58.5374 188.167 58.5388 188.799C58.6264 190.159 58.8864 191.502 59.3124 192.796C59.5031 193.605 59.9672 194.323 60.6264 194.828C61.7684 195.541 63.3402 194.982 64.556 195.559C65.7717 196.136 66.1892 197.462 66.2445 198.715C66.2997 199.968 66.048 201.232 66.1892 202.479C66.2139 202.872 66.3386 203.252 66.5515 203.584C66.8895 203.946 67.2808 204.255 67.7119 204.499C68.2783 204.967 68.7323 205.557 69.0405 206.224C69.3487 206.892 69.5031 207.62 69.4925 208.355C69.4553 209.823 69.1752 211.276 68.6636 212.653C68.0999 214.578 67.6893 216.545 67.4356 218.535C67.2355 219.754 66.7189 220.9 65.9375 221.857C65.7057 222.159 65.3892 222.385 65.0283 222.506C64.6674 222.628 64.2785 222.639 63.9113 222.538V222.538Z" fill="#00BFA5"/>
<path d="M65.9497 221.519C65.9136 221.518 65.8781 221.509 65.8469 221.49C65.8157 221.472 65.7898 221.446 65.7717 221.415C58.6063 209.331 56.3406 200.821 55.6959 195.805C54.9898 190.34 55.9845 187.78 56.0275 187.675C56.0376 187.649 56.0526 187.626 56.0718 187.606C56.091 187.586 56.1139 187.57 56.1393 187.559C56.1647 187.548 56.192 187.542 56.2197 187.541C56.2474 187.541 56.2749 187.545 56.3007 187.556C56.3265 187.566 56.3501 187.581 56.3701 187.6C56.3901 187.619 56.4061 187.642 56.4172 187.667C56.4283 187.693 56.4343 187.72 56.4349 187.748C56.4354 187.775 56.4305 187.803 56.4205 187.829C56.4205 187.872 55.4258 190.444 56.1196 195.811C56.7336 200.778 59.03 209.214 66.1339 221.206C66.1483 221.229 66.1578 221.256 66.1619 221.283C66.1659 221.311 66.1645 221.339 66.1576 221.366C66.1508 221.392 66.1386 221.418 66.1219 221.44C66.1052 221.462 66.0842 221.48 66.0603 221.494C66.0258 221.511 65.988 221.519 65.9497 221.519V221.519Z" fill="white"/>
<path d="M62.1184 214.513C53.3873 213.555 50.919 210.688 50.8146 210.565C50.7756 210.526 50.7538 210.473 50.7538 210.418C50.7538 210.363 50.7756 210.31 50.8146 210.27C50.8336 210.25 50.8564 210.234 50.8818 210.223C50.9071 210.213 50.9344 210.207 50.962 210.207C50.9896 210.207 51.0169 210.213 51.0422 210.223C51.0676 210.234 51.0904 210.25 51.1094 210.27V210.27C51.1094 210.301 53.6022 213.132 62.1307 214.071C62.1807 214.08 62.226 214.106 62.2587 214.144C62.2914 214.183 62.3094 214.232 62.3094 214.283C62.3094 214.334 62.2914 214.383 62.2587 214.421C62.226 214.46 62.1807 214.486 62.1307 214.495L62.1184 214.513Z" fill="white"/>
<path d="M59.6562 209.073C59.6097 209.073 59.5645 209.058 59.5273 209.03C59.5054 209.013 59.487 208.992 59.4733 208.968C59.4596 208.944 59.4507 208.918 59.4473 208.89C59.4439 208.863 59.4459 208.835 59.4533 208.809C59.4607 208.782 59.4734 208.757 59.4905 208.735C62.2596 205.094 62.4377 199.126 62.4438 199.065C62.4437 199.037 62.4494 199.01 62.4603 198.984C62.4713 198.959 62.4873 198.936 62.5074 198.917C62.5276 198.898 62.5514 198.883 62.5774 198.874C62.6034 198.865 62.6311 198.861 62.6587 198.862C62.6864 198.862 62.7138 198.868 62.7392 198.879C62.7646 198.89 62.7875 198.906 62.8065 198.926C62.8255 198.946 62.8401 198.97 62.8496 198.996C62.859 199.022 62.863 199.05 62.8613 199.077C62.8613 199.329 62.6771 205.217 59.8282 208.987C59.8081 209.014 59.7822 209.036 59.7523 209.05C59.7225 209.065 59.6896 209.073 59.6562 209.073Z" fill="white"/>
<path d="M238.6 185.219C239.448 179.509 239.46 172.54 235.266 162.36C231.073 152.18 232.374 146.844 236.869 145.389C241.363 143.934 251.322 151.664 250.954 164.663C250.592 177.213 242.112 187.577 242.112 187.577L238.6 185.219Z" fill="#00BFA5"/>
<path opacity="0.1" d="M238.6 185.219C239.448 179.509 239.46 172.54 235.266 162.36C231.073 152.18 232.374 146.844 236.869 145.389C241.363 143.934 251.322 151.664 250.954 164.663C250.592 177.213 242.112 187.577 242.112 187.577L238.6 185.219Z" fill="black"/>
<path d="M240.792 186.902C240.766 186.907 240.739 186.907 240.713 186.902C240.686 186.892 240.663 186.876 240.643 186.857C240.623 186.837 240.607 186.814 240.597 186.788C240.586 186.762 240.582 186.734 240.582 186.706C240.583 186.678 240.59 186.651 240.602 186.625C240.645 186.521 245.238 175.794 244.9 166.056C244.519 154.851 238.312 148.686 238.25 148.625C238.231 148.605 238.215 148.582 238.204 148.557C238.193 148.532 238.187 148.504 238.187 148.477C238.187 148.449 238.192 148.421 238.202 148.396C238.213 148.37 238.228 148.347 238.247 148.327C238.267 148.307 238.29 148.292 238.315 148.281C238.341 148.27 238.368 148.264 238.396 148.264C238.423 148.264 238.451 148.269 238.476 148.279C238.502 148.289 238.525 148.305 238.545 148.324C238.607 148.385 244.931 154.654 245.299 166.044C245.637 175.868 241.001 186.687 240.964 186.791C240.947 186.822 240.922 186.849 240.892 186.868C240.862 186.887 240.828 186.899 240.792 186.902V186.902Z" fill="white"/>
<path d="M238.846 190.285C238.846 190.285 241.216 176.482 249.628 168.549C258.04 160.616 272.063 159.106 276.46 163.342C280.856 167.579 278.038 171.699 271.842 173.13C264.843 174.744 260.551 177.569 264.843 179.73C268.828 181.732 268.379 186.073 264.229 188.154C257.598 191.482 245.625 188.314 242.739 194.859L238.846 190.285Z" fill="#00BFA5"/>
<path d="M240.627 193.207H240.559C240.507 193.188 240.464 193.149 240.44 193.098C240.416 193.048 240.412 192.99 240.43 192.937C242.369 187.54 245.357 182.58 249.223 178.342C252.252 175.066 255.799 172.309 259.722 170.182C263.619 168.031 267.862 166.577 272.26 165.884C272.316 165.879 272.372 165.896 272.415 165.932C272.459 165.967 272.487 166.019 272.493 166.075C272.497 166.102 272.495 166.13 272.487 166.157C272.48 166.183 272.467 166.208 272.45 166.23C272.433 166.252 272.411 166.27 272.387 166.283C272.363 166.297 272.337 166.305 272.309 166.308C267.956 167.007 263.758 168.462 259.906 170.606C253.766 173.94 245.434 180.553 240.811 193.109C240.791 193.139 240.763 193.164 240.731 193.181C240.699 193.199 240.663 193.207 240.627 193.207V193.207Z" fill="white"/>
<path d="M244.894 184.525C244.85 184.526 244.807 184.512 244.77 184.487C244.734 184.462 244.706 184.426 244.691 184.384C244.673 184.331 244.677 184.273 244.701 184.223C244.725 184.173 244.768 184.133 244.82 184.114C251.998 181.609 262.289 182.923 262.393 182.935C262.42 182.939 262.447 182.948 262.471 182.962C262.495 182.975 262.516 182.994 262.532 183.016C262.549 183.038 262.562 183.063 262.569 183.09C262.576 183.116 262.578 183.144 262.574 183.172C262.57 183.199 262.561 183.225 262.548 183.249C262.534 183.273 262.515 183.294 262.493 183.311C262.471 183.328 262.446 183.34 262.42 183.347C262.393 183.355 262.365 183.356 262.338 183.353C262.239 183.353 252.041 182.039 244.961 184.513C244.94 184.523 244.917 184.527 244.894 184.525V184.525Z" fill="white"/>
<path d="M63.5858 225.952L134.03 266.611C134.858 267.032 135.773 267.251 136.701 267.251C137.629 267.251 138.544 267.032 139.372 266.611L249.229 203.191C250.702 202.338 250.702 200.962 249.229 200.121L178.785 159.437C177.958 159.017 177.044 158.798 176.117 158.798C175.189 158.798 174.275 159.017 173.449 159.437L63.5858 222.882C62.1122 223.717 62.1122 225.092 63.5858 225.952Z" fill="#E0E0E0"/>
<path d="M65.8024 216.128L134.251 255.651C135.087 256.075 136.012 256.296 136.95 256.296C137.887 256.296 138.812 256.075 139.648 255.651L248.173 193.005C249.665 192.145 249.665 190.751 248.173 189.892L179.718 150.369C178.881 149.945 177.957 149.724 177.019 149.724C176.082 149.724 175.157 149.945 174.321 150.369L65.8024 213.058C64.3104 213.887 64.3104 215.281 65.8024 216.128Z" fill="#37474F"/>
<path d="M134.251 255.663L65.8024 216.128C64.47 215.36 64.3288 214.163 65.3787 213.304C64.7116 213.833 64.1637 214.497 63.7712 215.252C63.3786 216.008 63.1501 216.838 63.1008 217.688V220.223C63.1519 221.161 63.4231 222.073 63.8925 222.886C64.3619 223.698 65.0162 224.389 65.8024 224.902L134.251 264.419C135.082 264.86 136.012 265.082 136.953 265.064V256.308C136.012 256.327 135.082 256.105 134.251 255.663V255.663Z" fill="#455A64"/>
<path d="M248.173 201.773C248.958 201.261 249.611 200.571 250.08 199.759C250.548 198.947 250.818 198.036 250.868 197.1V194.564C250.819 193.714 250.591 192.884 250.198 192.129C249.806 191.373 249.258 190.709 248.59 190.18C249.64 191.04 249.505 192.237 248.173 193.005L139.648 255.664C138.819 256.104 137.891 256.326 136.953 256.308V265.076C137.891 265.094 138.819 264.872 139.648 264.431L248.173 201.773Z" fill="#263238"/>
<path d="M102.538 234.382C103.699 234.973 104.984 235.28 106.286 235.28C107.589 235.28 108.874 234.973 110.035 234.382C112.104 233.154 112.104 231.251 110.035 230.054C108.873 229.466 107.589 229.161 106.286 229.161C104.984 229.161 103.7 229.466 102.538 230.054C100.493 231.251 100.493 233.191 102.538 234.382Z" fill="#263238"/>
<path d="M144.904 247.276L79.3841 209.423C78.4938 208.907 78.4938 208.066 79.3841 207.55L164.73 158.259C165.232 158.004 165.786 157.872 166.348 157.872C166.91 157.872 167.464 158.004 167.966 158.259L233.486 196.112C234.382 196.627 234.382 197.462 233.486 197.954L148.14 247.252C147.64 247.51 147.087 247.646 146.525 247.65C145.963 247.655 145.407 247.526 144.904 247.276V247.276Z" fill="white"/>
<path d="M208.993 172.909C209.288 173.057 209.612 173.134 209.942 173.134C210.271 173.134 210.596 173.057 210.891 172.909C210.993 172.858 211.079 172.779 211.139 172.682C211.199 172.585 211.231 172.473 211.231 172.359C211.231 172.245 211.199 172.133 211.139 172.036C211.079 171.939 210.993 171.86 210.891 171.809C210.596 171.661 210.271 171.584 209.942 171.584C209.612 171.584 209.288 171.661 208.993 171.809C208.465 172.11 208.465 172.602 208.993 172.909Z" fill="#263238"/>
<path d="M212.026 181.517C212.615 181.814 213.265 181.968 213.924 181.968C214.583 181.968 215.233 181.814 215.821 181.517C216.871 180.903 216.871 179.927 215.821 179.325C215.233 179.025 214.583 178.869 213.924 178.869C213.264 178.869 212.614 179.025 212.026 179.325C210.977 179.902 210.977 180.909 212.026 181.517Z" fill="#263238"/>
<path d="M209.374 177.698C210.074 177.299 210.037 176.623 209.288 176.193L196.799 168.979C196.398 168.766 195.952 168.65 195.497 168.642C195.043 168.633 194.593 168.732 194.184 168.93C193.484 169.335 193.521 170.01 194.27 170.44L206.758 177.655C207.16 177.867 207.607 177.981 208.061 177.989C208.516 177.996 208.965 177.897 209.374 177.698Z" fill="#263238"/>
<path d="M163.625 168.439C162.728 168.954 162.728 169.789 163.625 170.281L213.543 199.108C214.046 199.362 214.601 199.494 215.164 199.494C215.727 199.494 216.282 199.362 216.785 199.108L227.837 192.741L174.677 162.041L163.625 168.439Z" fill="#EBEBEB"/>
<path d="M163.993 173.443L160.008 171.146C159.842 171.062 159.658 171.018 159.471 171.018C159.284 171.018 159.1 171.062 158.934 171.146L156.423 172.595C156.122 172.767 156.122 173.044 156.423 173.209L156.766 173.412L155.495 174.087C155.348 174.167 155.36 174.216 155.532 174.204L157.767 173.989L160.407 175.512C160.576 175.594 160.761 175.637 160.948 175.637C161.135 175.637 161.32 175.594 161.488 175.512L163.993 174.063C164.056 174.039 164.11 173.997 164.149 173.941C164.187 173.886 164.207 173.82 164.207 173.753C164.207 173.685 164.187 173.62 164.149 173.564C164.11 173.509 164.056 173.467 163.993 173.443Z" fill="#EBEBEB"/>
<path d="M165.166 179.435L164.871 178.821C164.491 178.017 164.257 176.924 165.362 176.292C165.781 176.08 166.244 175.969 166.713 175.969C167.183 175.969 167.645 176.08 168.064 176.292C168.641 176.623 168.77 177.121 168.451 177.52C169.168 177.323 169.932 177.402 170.594 177.741C170.758 177.794 170.901 177.898 171.002 178.037C171.104 178.177 171.158 178.345 171.158 178.517C171.158 178.69 171.104 178.858 171.002 178.998C170.901 179.137 170.758 179.241 170.594 179.294C169.513 179.908 167.622 179.798 166.228 179.583L165.166 179.435Z" fill="#EBEBEB"/>
<path d="M110.459 200.999L160.383 229.826C160.885 230.08 161.441 230.213 162.004 230.213C162.567 230.213 163.122 230.08 163.625 229.826L202.503 207.372C203.394 206.857 203.394 206.022 202.503 205.53L152.579 176.679C152.076 176.424 151.521 176.292 150.958 176.292C150.395 176.292 149.84 176.424 149.337 176.679L110.459 199.132C109.562 199.648 109.562 200.483 110.459 200.999Z" fill="#EBEBEB"/>
<path d="M110.839 204.137L106.836 201.834C106.668 201.752 106.483 201.709 106.296 201.709C106.108 201.709 105.924 201.752 105.755 201.834L103.244 203.283C103.183 203.308 103.131 203.35 103.094 203.405C103.057 203.46 103.038 203.524 103.038 203.59C103.038 203.656 103.057 203.72 103.094 203.775C103.131 203.83 103.183 203.872 103.244 203.897L103.594 204.1L102.323 204.769C102.17 204.849 102.188 204.904 102.323 204.886L104.558 204.677L107.198 206.2C107.366 206.282 107.551 206.325 107.739 206.325C107.926 206.325 108.111 206.282 108.279 206.2L110.79 204.744C110.854 204.726 110.911 204.689 110.953 204.638C110.995 204.587 111.02 204.524 111.026 204.458C111.031 204.391 111.016 204.325 110.983 204.268C110.949 204.211 110.899 204.165 110.839 204.137V204.137Z" fill="#EBEBEB"/>
<path d="M111.981 210.123L111.693 209.509C111.306 208.705 111.079 207.612 112.184 206.973C112.602 206.761 113.063 206.651 113.532 206.651C114 206.651 114.462 206.761 114.879 206.973C115.493 207.311 115.592 207.808 115.266 208.201C115.986 208.012 116.749 208.091 117.415 208.422C117.578 208.477 117.72 208.582 117.821 208.722C117.921 208.862 117.976 209.03 117.976 209.202C117.976 209.374 117.921 209.542 117.821 209.682C117.72 209.822 117.578 209.927 117.415 209.982C116.335 210.596 114.443 210.485 113.044 210.27L111.981 210.123Z" fill="#EBEBEB"/>
<path d="M96.1831 207.372C96.6856 207.118 97.2409 206.986 97.8041 206.986C98.3672 206.986 98.9225 207.118 99.425 207.372L149.343 236.194C150.24 236.709 150.24 237.55 149.343 238.066L139.157 243.948L86.0091 213.248L96.1831 207.372Z" fill="#EBEBEB"/>
<path d="M151.658 200.735L123.242 208.367L160.395 229.82C160.898 230.074 161.453 230.207 162.016 230.207C162.579 230.207 163.135 230.074 163.637 229.82L164.441 229.354L180.473 205.831L146.427 212.512L151.658 200.735Z" fill="#E0E0E0"/>
<path d="M165.651 184.231L152.579 176.679C152.076 176.424 151.521 176.292 150.958 176.292C150.395 176.292 149.84 176.424 149.337 176.679L134.724 185.121C135.393 186.392 136.775 187.577 138.868 188.602C145.008 191.537 155.004 191.537 161.163 188.602C163.742 187.374 165.234 185.827 165.651 184.231Z" fill="#E0E0E0"/>
<path opacity="0.2" d="M228.69 181.572L163.164 143.725C162.663 143.471 162.109 143.339 161.546 143.339C160.984 143.339 160.43 143.471 159.929 143.725L74.5826 193.017C73.6923 193.533 73.6923 194.368 74.5826 194.859L88.4344 202.841L140.127 232.7C140.629 232.954 141.183 233.086 141.745 233.086C142.307 233.086 142.861 232.954 143.363 232.7L220.187 188.314L228.684 183.402C229.587 182.929 229.587 182.088 228.69 181.572Z" fill="white"/>
<path d="M228.85 181.302L174.671 149.988L163.324 143.455C162.775 143.174 162.167 143.027 161.55 143.027C160.932 143.027 160.324 143.174 159.775 143.455L74.4291 192.747C74.1858 192.84 73.9766 193.006 73.8291 193.22C73.6816 193.435 73.6026 193.69 73.6026 193.95C73.6026 194.211 73.6816 194.465 73.8291 194.68C73.9766 194.895 74.1858 195.06 74.4291 195.154L88.2809 203.136L139.992 233.013C140.541 233.295 141.149 233.442 141.766 233.442C142.384 233.442 142.992 233.295 143.541 233.013L220.358 188.627L228.862 183.715C229.105 183.62 229.313 183.454 229.46 183.239C229.607 183.024 229.686 182.769 229.686 182.508C229.686 182.248 229.607 181.993 229.46 181.778C229.313 181.563 229.105 181.397 228.862 181.302H228.85ZM228.537 183.175L220.033 188.087L143.216 232.473C142.761 232.7 142.259 232.818 141.751 232.818C141.243 232.818 140.741 232.7 140.287 232.473L88.5941 202.62L74.7484 194.638C74.6004 194.6 74.4693 194.514 74.3757 194.393C74.2821 194.273 74.2312 194.125 74.2312 193.972C74.2312 193.819 74.2821 193.671 74.3757 193.55C74.4693 193.43 74.6004 193.343 74.7484 193.306L160.094 144.014C160.55 143.788 161.051 143.671 161.559 143.671C162.067 143.671 162.568 143.788 163.023 144.014L174.376 150.553L228.555 181.867C228.703 181.905 228.834 181.991 228.928 182.111C229.022 182.232 229.072 182.38 229.072 182.533C229.072 182.686 229.022 182.834 228.928 182.955C228.834 183.075 228.703 183.161 228.555 183.199L228.537 183.175Z" fill="white"/>
<path d="M199.286 28.0844C200.189 27.5625 200.925 27.9861 200.925 29.0299V149.736C200.894 150.305 200.729 150.859 200.444 151.353C200.159 151.847 199.763 152.267 199.286 152.579L152.18 179.779L146.654 198.199C146.157 199.869 145.162 199.943 144.437 198.353L139.378 187.184L125.624 195.123C124.722 195.645 123.985 195.221 123.985 194.177V73.4712C124.016 72.9019 124.18 72.3478 124.465 71.8539C124.75 71.36 125.147 70.9402 125.624 70.6284L199.286 28.0844Z" fill="#00BFA5"/>
<path d="M193.269 121.265C193.213 122.047 192.972 122.804 192.568 123.475C192.164 124.146 191.606 124.712 190.942 125.127L165.062 140.072C163.778 140.809 162.735 140.287 162.735 138.893C162.793 138.112 163.034 137.355 163.438 136.685C163.842 136.014 164.398 135.447 165.062 135.031L190.954 120.092C192.231 119.349 193.269 119.877 193.269 121.265Z" fill="white"/>
<path d="M188.498 136.191C188.44 136.973 188.2 137.729 187.795 138.4C187.391 139.071 186.835 139.637 186.171 140.053L164.675 152.481C163.392 153.224 162.354 152.696 162.354 151.302C162.41 150.522 162.65 149.766 163.053 149.096C163.456 148.426 164.012 147.861 164.675 147.446L186.196 135.019C187.479 134.276 188.498 134.804 188.498 136.191Z" fill="white"/>
<path d="M149.724 157.423L149.669 156.699C148.496 159.658 146.728 161.783 144.757 162.919C141.275 164.933 138.162 163.146 138.162 157.816C138.162 152.794 140.618 147.286 144.443 145.094C146.955 143.645 148.668 144.714 148.95 145.346V144.118C148.95 143.437 149.644 142.485 150.491 141.994C151.339 141.502 152.039 141.951 152.039 143.001V154.39C152.039 155.839 152.579 156.134 153.346 155.686C154.746 154.882 156.036 151.437 156.036 147.514C156.036 139.937 152.063 136.406 145.727 140.066C139.789 143.492 135.08 152.149 135.08 159.714C135.08 167.137 139.531 169.968 145.358 166.609C147.032 165.569 148.515 164.251 149.742 162.71C150.405 161.9 151.13 161.654 151.449 162.231C151.769 162.808 151.572 163.999 150.915 164.81C149.362 166.759 147.494 168.436 145.389 169.771C138.138 173.952 132.655 170.305 132.655 161.132C132.655 151.762 138.396 141.257 145.757 137.002C153.119 132.747 158.516 136.529 158.516 146.009C158.516 151.756 156.263 156.791 153.064 158.633C151.296 159.603 150.037 159.376 149.724 157.423ZM141.502 155.698C141.502 158.633 142.927 160.242 145.1 158.989C147.274 157.737 148.784 154.519 148.784 151.554C148.784 148.699 147.329 147.256 145.07 148.557C142.927 149.773 141.502 152.886 141.502 155.698V155.698Z" fill="white"/>
<path d="M162.44 66.926C175.156 59.558 185.459 65.5384 185.459 80.2191C185.459 94.8998 175.156 112.761 162.44 120.092C149.724 127.423 139.421 121.48 139.421 106.799C139.421 92.1184 149.724 74.294 162.44 66.926Z" fill="white"/>
<path d="M162.44 66.926C175.156 59.558 185.459 65.5384 185.459 80.2191C185.459 94.8998 175.156 112.761 162.44 120.092C149.724 127.423 139.421 121.48 139.421 106.799C139.421 92.1184 149.724 74.294 162.44 66.926Z" fill="#F5F5F5"/>
<path d="M154.046 86.4205C152.992 86.6028 152.049 87.1886 151.419 88.0537C150.289 89.5089 150.522 91.5842 151.419 96.2568L154.912 95.7226L154.046 86.4205Z" fill="#263238"/>
<path d="M174.407 79.5437C175.191 79.3341 175.932 78.9847 176.593 78.5122C177.667 77.6096 177.943 78.7578 177.354 79.9735C176.963 80.8401 176.404 81.6207 175.71 82.2699C175.015 82.9191 174.199 83.4241 173.308 83.7557C173.271 83.6084 172.301 81.2997 172.301 81.2997L174.407 79.5437Z" fill="#263238"/>
<path d="M156.054 110.52C156.054 110.52 149.546 114.72 148.134 116.199C146.721 117.679 146.138 122.29 145.616 127.933C145.616 127.933 153.027 131.058 164.65 125.305C176.273 119.552 177.323 115.002 177.323 115.002C177.323 115.002 175.819 108.168 175.26 106.271C174.554 103.87 173.191 102.139 165.264 105.737L156.054 110.52Z" fill="#263238"/>
<path d="M155.686 95.52C155.164 95.9682 154.427 95.17 153.789 94.6727C153.15 94.1753 151.062 93.8192 150.019 96.2936C148.975 98.768 151.369 101.138 152.782 101.746C153.265 101.949 153.797 102.007 154.312 101.914C154.828 101.82 155.305 101.578 155.686 101.218L156.054 110.52C156.054 110.52 157.896 113.707 162.931 113.044C167.966 112.38 166.916 107.321 165.27 105.737V103.821C165.27 103.821 167.868 103.649 169.089 102.999C169.746 102.649 171.306 100.34 172.313 97.9576C174.389 93.5691 174.863 88.5921 173.651 83.8908C171.852 76.7193 163.631 78.6902 158.731 83.0865C153.832 87.4827 155.686 95.52 155.686 95.52Z" fill="#FFA8A7"/>
<path d="M175.825 72.3476C175.383 70.8986 175.113 71.1565 171.558 73.6554C168.843 75.5672 165.812 76.9867 162.606 77.8491C160.1 78.6104 156.674 79.2121 154.912 81.5331C154.154 82.5312 153.768 83.7622 153.819 85.0144C153.67 84.8759 153.488 84.7768 153.291 84.7259C152.426 84.4925 151.363 85.125 150.915 86.1442L153.985 86.9608C153.746 88.7291 153.058 94.1876 153.807 94.6665C154.452 95.0779 155.44 96.4594 155.704 96.3857C156.582 96.134 156.932 92.2412 157.411 89.8835C157.933 87.2003 158.136 86.1995 159.1 86.0889C162.231 85.5954 165.312 84.829 168.31 83.7987C171.625 82.5032 172.577 81.4041 172.577 81.4041L174.345 80.2805C175.135 79.136 175.674 77.8382 175.929 76.4715C176.184 75.1048 176.149 73.6997 175.825 72.3476V72.3476Z" fill="#263238"/>
<path d="M165.258 103.821C165.258 103.821 160.61 104.134 158.989 103.705C158.055 103.482 157.248 102.899 156.742 102.084C156.972 102.937 157.411 103.72 158.019 104.362C159.204 105.59 165.258 105.062 165.258 105.062V103.821Z" fill="#F28F8F"/>
<path d="M164.073 98.4242L166.197 98.6514C166.11 98.9665 165.921 99.2442 165.661 99.4416C165.4 99.6391 165.082 99.7454 164.755 99.7443C164.165 99.6829 163.864 99.0935 164.073 98.4242Z" fill="#F28F8F"/>
<path d="M167.143 90.1352L167.45 95.6551L170.379 93.8806L167.143 90.1352Z" fill="#F28F8F"/>
<path d="M164.141 92.1C164.135 92.3762 164.042 92.6435 163.876 92.8639C163.709 93.0844 163.477 93.2467 163.213 93.328C163.103 93.3658 162.985 93.3757 162.87 93.3568C162.755 93.3379 162.646 93.2908 162.554 93.2196C162.461 93.1484 162.388 93.0555 162.34 92.949C162.293 92.8426 162.272 92.726 162.28 92.6096C162.287 92.3329 162.381 92.0655 162.549 91.8451C162.716 91.6248 162.949 91.4626 163.213 91.3816C163.324 91.3434 163.441 91.3333 163.556 91.3521C163.671 91.371 163.78 91.4182 163.872 91.4896C163.964 91.5609 164.037 91.6541 164.084 91.7607C164.131 91.8673 164.15 91.9839 164.141 92.1Z" fill="#263238"/>
<path d="M163.152 88.8397L161.163 90.4729C161.034 90.1769 161.01 89.8458 161.095 89.5343C161.18 89.2229 161.368 88.9497 161.629 88.7598C161.727 88.6515 161.848 88.5663 161.983 88.5105C162.118 88.4547 162.264 88.4298 162.41 88.4374C162.556 88.445 162.698 88.4851 162.826 88.5547C162.955 88.6243 163.066 88.7216 163.152 88.8397V88.8397Z" fill="#263238"/>
<path d="M172.448 87.1205L170.606 86.2117C170.745 85.9276 170.981 85.7032 171.273 85.5801C171.564 85.4571 171.89 85.4437 172.19 85.5425C172.316 85.6251 172.423 85.7329 172.504 85.8589C172.586 85.985 172.641 86.1266 172.665 86.2749C172.689 86.4232 172.683 86.5749 172.645 86.7204C172.608 86.866 172.541 87.0022 172.448 87.1205Z" fill="#263238"/>
<path d="M171.92 89.7484C171.912 90.0241 171.819 90.2905 171.653 90.5106C171.487 90.7307 171.256 90.8935 170.993 90.9764C170.883 91.0142 170.764 91.0241 170.649 91.0052C170.534 90.9863 170.426 90.9391 170.333 90.868C170.241 90.7968 170.167 90.7039 170.12 90.5974C170.072 90.491 170.051 90.3744 170.06 90.258C170.067 89.9813 170.161 89.7139 170.328 89.4935C170.496 89.2732 170.728 89.111 170.993 89.03C171.103 88.9918 171.221 88.9817 171.336 89.0005C171.451 89.0194 171.559 89.0666 171.651 89.138C171.743 89.2093 171.816 89.3025 171.863 89.4091C171.91 89.5157 171.93 89.6323 171.92 89.7484V89.7484Z" fill="#263238"/>
</svg>
