<svg width="40" height="40" viewBox="0 0 40 40" fill="none" xmlns="http://www.w3.org/2000/svg">
<path d="M39.3103 34.4832V20.0004C39.308 19.2396 38.6918 18.6234 37.931 18.6211H37.0551C36.42 18.6246 35.8686 19.0595 35.7172 19.6763C35.2554 21.6773 34.1858 23.4864 32.6551 24.8556C30.7109 25.0321 28.7511 24.9159 26.8413 24.5108L34.8551 16.497C36.2013 15.1504 36.2013 12.9677 34.8551 11.6211L34.3103 11.0763L33.8758 10.6418C33.6068 10.3744 33.1724 10.3744 32.9034 10.6418L32.4138 10.159L29.4896 7.228L22.662 0.400412C22.1199 -0.130724 21.2525 -0.130724 20.7103 0.400412L20.0896 1.0211C19.6443 1.47504 19.5621 2.1726 19.8896 2.71765C20.9781 4.45658 21.5009 6.49007 21.3862 8.53834C19.8578 10.4089 17.97 11.9543 15.8344 13.0832L14.3241 9.32455C14.0713 8.6817 13.3799 8.32713 12.7103 8.49696L11.1379 8.89007C10.4833 9.0532 10.0428 9.66588 10.0965 10.3383C10.1317 10.7466 10.162 11.2508 10.1848 11.8328L7.86203 12.4142C7.5244 12.4988 7.30274 12.8218 7.34518 13.1673C7.38762 13.5127 7.68085 13.7724 8.02893 13.7728C8.08544 13.773 8.14176 13.7661 8.19652 13.7521L10.2151 13.248C10.2151 13.7218 10.2151 14.2266 10.1993 14.7556L7.86203 15.3404C7.5244 15.425 7.30274 15.748 7.34518 16.0935C7.38762 16.4389 7.68085 16.6986 8.02893 16.699C8.08544 16.6993 8.14176 16.6923 8.19652 16.6783L10.1344 16.1956C10.1046 16.6921 10.0641 17.2036 10.0131 17.7301L7.86203 18.2673C7.523 18.3508 7.29984 18.6745 7.34239 19.021C7.38494 19.3676 7.67978 19.6276 8.02893 19.6266C8.08542 19.6265 8.14169 19.6195 8.19652 19.6059L9.84272 19.1921C9.75767 19.8321 9.65169 20.482 9.52479 21.1418L7.37445 21.679C7.03694 21.7636 6.8153 22.0864 6.85755 22.4317C6.8998 22.7771 7.19271 23.0369 7.54065 23.0377C7.59735 23.0378 7.65385 23.0311 7.70893 23.0177L9.21169 22.6418C8.67592 24.9834 7.79749 27.2332 6.60479 29.3183V29.3252C6.14962 29.4149 5.68755 29.4908 5.22548 29.5528C4.86686 29.6011 4.50134 29.6356 4.13583 29.6563C4.13583 29.6563 0.570309 29.6563 0.0599638 32.4149C0.017972 32.6421 -0.00212007 32.8728 -3.62131e-05 33.1039C-0.00267248 33.5863 0.0319129 34.0682 0.103412 34.5452C0.896516 40.0004 6.20686 40.0004 6.20686 40.0004H36.5517C38.4561 40.0004 40 38.4566 40 36.5521V35.1728C40 34.7919 39.6912 34.4832 39.3103 34.4832V34.4832Z" fill="#00BFA5"/>
<path d="M32.9034 10.6414L25.4896 18.0552L25.1586 17.8552C24.7208 17.5861 24.1689 17.5861 23.731 17.8552C24.7931 15.1931 25.5586 13.1103 25.8828 12.1724C26.0046 11.8385 25.9211 11.4643 25.669 11.2138L25.6552 11.2C25.342 10.8854 24.8491 10.839 24.4828 11.0896C23.0345 12.069 19.2827 14.2276 15.8345 13.0827C17.9701 11.9539 19.8578 10.4085 21.3862 8.53792C21.9507 7.87295 22.5492 7.23762 23.1793 6.63447C23.7273 6.1585 24.5504 6.18865 25.0621 6.70344L25.5862 7.22758C25.8931 7.53626 26.3277 7.68198 26.7586 7.62068L29.4896 7.22758L32.4138 10.1586L32.9034 10.6414Z" fill="#A5D8C6"/>
<path d="M29.4896 7.228L26.7586 7.6211C26.3277 7.6824 25.8931 7.53668 25.5862 7.228L25.0621 6.70386C24.5504 6.18907 23.7273 6.15892 23.1793 6.63489C22.5492 7.23804 21.9507 7.87337 21.3862 8.53834C21.5009 6.49007 20.9781 4.45658 19.8896 2.71765C19.5621 2.1726 19.6443 1.47504 20.0896 1.0211L20.7103 0.400412C21.2525 -0.130724 22.1199 -0.130724 22.6621 0.400412L29.4896 7.228Z" fill="#00BFA5"/>
<path d="M25.8828 12.1724C25.5586 13.1103 24.7931 15.1931 23.731 17.8552C23.6052 17.9325 23.4933 18.0304 23.4 18.1448C21.3793 20.5034 15.4276 26.8207 8.02069 28.9655C7.55172 29.1034 7.08276 29.2207 6.6069 29.3172C7.92324 27.0053 8.86152 24.4978 9.38621 21.8897V21.8828C9.6312 20.7506 9.81766 19.6065 9.94483 18.4552C10.069 17.4069 10.1379 16.4069 10.1793 15.469C10.2207 14.3931 10.2276 13.4 10.2069 12.5379C10.1862 11.6483 10.1448 10.9034 10.0966 10.3379C10.0428 9.66546 10.4833 9.05279 11.1379 8.88965L12.7103 8.49655C13.3799 8.32672 14.0713 8.68129 14.3241 9.32414L15.8345 13.0828C19.2828 14.2276 23.0345 12.069 24.4828 11.0897C24.8491 10.839 25.3421 10.8854 25.6552 11.2L25.669 11.2138C25.9211 11.4643 26.0046 11.8385 25.8828 12.1724V12.1724Z" fill="#00BFA5"/>
<path d="M39.3103 29.6552V34.4828H24.1379C28.4966 32.8483 31.9931 31.2138 33.269 30.6C33.5897 30.4495 33.7942 30.1267 33.7931 29.7724V29.7517C33.7918 29.3078 33.4771 28.9266 33.0414 28.8414C31.3241 28.5104 27.1448 27.3862 25.5172 24.1379C25.9516 24.2858 26.3936 24.4101 26.8414 24.5104C28.7512 24.9155 30.7109 25.0317 32.6552 24.8552C33.5241 24.7763 34.3968 24.7487 35.269 24.7724C35.9928 24.8232 36.5535 25.4261 36.5517 26.1517V26.8966C36.5531 27.3304 36.7572 27.7386 37.1034 28L39.3103 29.6552Z" fill="#A5D8C6"/>
<path d="M39.9999 35.1724V36.5517C39.9999 38.4562 38.4561 40 36.5517 40H6.20683C6.20683 40 0.896482 40 0.103379 34.5448C0.0318795 34.0677 -0.00270588 33.5859 -0.000209658 33.1035C-0.000209658 33.1035 5.51717 36.5517 8.96545 36.5517H13.793C15.9037 36.5837 18.0087 36.3237 20.0482 35.7793C20.6689 35.6207 21.3379 35.4345 22.062 35.2069C22.6275 35.0276 23.2206 34.8207 23.8551 34.5862C23.9448 34.5517 24.0413 34.5172 24.1379 34.4828H39.3103C39.6912 34.4828 39.9999 34.7915 39.9999 35.1724V35.1724Z" fill="#A5A5A4"/>
<path d="M40 36.5517C40 38.4562 38.4561 40 36.5517 40H6.20689C6.20689 40 0.89655 40 0.103447 34.5448C0.862067 35.0069 5.7931 37.931 8.96551 37.931H13.7931C15.9038 37.963 18.0088 37.703 20.0483 37.1586C20.669 37 21.3379 36.8138 22.0621 36.5862C22.6276 36.4069 23.2207 36.2 23.8552 35.9655C23.9448 35.931 24.0414 35.8966 24.1379 35.8621H39.3103C39.6912 35.8621 40 36.1708 40 36.5517V36.5517Z" fill="#D1D4D1"/>
<path d="M20.0483 35.7793C18.0087 36.3237 15.9038 36.5836 13.7931 36.5517H8.9655C5.51722 36.5517 -2.1019e-05 33.1034 -2.1019e-05 33.1034C-0.00146685 32.8721 0.0193183 32.6412 0.062048 32.4138C0.572393 29.6552 4.13791 29.6552 4.13791 29.6552C4.50343 29.6345 4.86895 29.6 5.22757 29.5517H11.3172C11.7386 29.5639 12.1584 29.61 12.5724 29.6897C15.9375 30.3168 18.7534 32.6107 20.0483 35.7793Z" fill="#A5D8C6"/>
<path d="M37.2414 37.931H30.3448C29.9639 37.931 29.6552 37.6223 29.6552 37.2414C29.6552 36.8605 29.9639 36.5517 30.3448 36.5517H37.2414C37.6222 36.5517 37.931 36.8605 37.931 37.2414C37.931 37.6223 37.6222 37.931 37.2414 37.931Z" fill="#7F8C8D"/>
<path d="M16.5517 27.5862C16.4268 27.5862 16.3042 27.5521 16.1972 27.4876L12.749 25.4186C12.5329 25.2941 12.401 25.0626 12.4039 24.8132C12.4067 24.5639 12.544 24.3355 12.7628 24.216C12.9816 24.0964 13.2479 24.1043 13.4593 24.2366L16.9076 26.3055C17.1732 26.4652 17.2997 26.7825 17.2167 27.0812C17.1337 27.3798 16.8617 27.5864 16.5517 27.5862V27.5862Z" fill="#ECF0F1"/>
<path d="M19.3103 25.5173C19.1854 25.5173 19.0628 25.4832 18.9559 25.4186L15.5076 23.3497C15.2916 23.2251 15.1596 22.9936 15.1625 22.7443C15.1653 22.495 15.3026 22.2666 15.5214 22.147C15.7402 22.0274 16.0066 22.0353 16.2179 22.1676L19.6662 24.2366C19.9318 24.3963 20.0583 24.7136 19.9753 25.0122C19.8923 25.3109 19.6203 25.5175 19.3103 25.5173V25.5173Z" fill="#ECF0F1"/>
<path d="M21.3793 23.4483C21.2544 23.4483 21.1318 23.4142 21.0248 23.3497L17.5765 21.2807C17.3605 21.1561 17.2286 20.9247 17.2314 20.6753C17.2343 20.426 17.3715 20.1976 17.5904 20.078C17.8092 19.9585 18.0755 19.9663 18.2869 20.0986L21.7352 22.1676C22.0008 22.3273 22.1272 22.6446 22.0443 22.9433C21.9613 23.2419 21.6893 23.4485 21.3793 23.4483Z" fill="#ECF0F1"/>
<path d="M23.4483 21.3793C23.3233 21.3794 23.2008 21.3453 23.0938 21.2807L19.6455 19.2117C19.4295 19.0872 19.2975 18.8557 19.3004 18.6064C19.3033 18.357 19.4405 18.1286 19.6593 18.0091C19.8782 17.8895 20.1445 17.8974 20.3559 18.0297L23.8041 20.0986C24.0698 20.2583 24.1962 20.5757 24.1132 20.8743C24.0302 21.1729 23.7582 21.3795 23.4483 21.3793V21.3793Z" fill="#ECF0F1"/>
<path d="M34.8552 16.4965L26.8414 24.5103C26.3936 24.4101 25.9516 24.2857 25.5172 24.1379L27.1103 20.4138C27.3831 19.7803 27.1441 19.0428 26.5517 18.6896L25.4897 18.0552L32.9034 10.6414C33.1724 10.374 33.6069 10.374 33.8758 10.6414L34.8552 11.6207C36.2013 12.9672 36.2013 15.15 34.8552 16.4965Z" fill="#D1D4D1"/>
<path d="M29.5862 18.5517C29.3073 18.5517 29.0559 18.3836 28.9492 18.126C28.8425 17.8683 28.9014 17.5717 29.0986 17.3745L32.9034 13.5703C33.0766 13.3911 33.333 13.3192 33.5741 13.3823C33.8153 13.4454 34.0036 13.6337 34.0667 13.8748C34.1298 14.1159 34.0579 14.3724 33.8786 14.5455L30.0738 18.3497C29.9448 18.4795 29.7692 18.5522 29.5862 18.5517V18.5517Z" fill="#7F8C8D"/>
<path d="M7.54276 23.0345C7.19481 23.0337 6.9019 22.7739 6.85965 22.4286C6.8174 22.0832 7.03904 21.7604 7.37655 21.6759L11.2779 20.7007C11.6435 20.6184 12.0078 20.843 12.0985 21.2066C12.1892 21.5701 11.973 21.9395 11.6117 22.0386L7.71103 23.0145C7.65596 23.0279 7.59945 23.0346 7.54276 23.0345V23.0345Z" fill="#D1D4D1"/>
<path d="M8.03103 19.6235C7.68188 19.6245 7.38704 19.3644 7.34449 19.0178C7.30194 18.6713 7.5251 18.3476 7.86414 18.2641L11.7662 17.289C12.1317 17.2067 12.4961 17.4313 12.5868 17.7949C12.6774 18.1584 12.4613 18.5278 12.1 18.6269L8.19862 19.6028C8.14379 19.6164 8.08752 19.6233 8.03103 19.6235V19.6235Z" fill="#D1D4D1"/>
<path d="M8.03104 16.6972C7.68296 16.6969 7.38973 16.4372 7.34729 16.0917C7.30485 15.7462 7.52651 15.4232 7.86414 15.3386L11.7662 14.3628C12.1359 14.2706 12.5102 14.4955 12.6024 14.8652C12.6946 15.2348 12.4696 15.6092 12.1 15.7014L8.19862 16.6766C8.14386 16.6905 8.08755 16.6975 8.03104 16.6972V16.6972Z" fill="#D1D4D1"/>
<path d="M8.03104 13.771C7.68465 13.769 7.39352 13.5103 7.35072 13.1666C7.30793 12.8228 7.52675 12.5007 7.86207 12.4138L11.7641 11.4379C12.1338 11.3457 12.5082 11.5707 12.6003 11.9403C12.6925 12.31 12.4676 12.6844 12.0979 12.7765L8.19655 13.7517C8.1424 13.765 8.0868 13.7715 8.03104 13.771V13.771Z" fill="#D1D4D1"/>
<path d="M34.3103 11.0759C34.0608 10.9843 33.7808 11.0462 33.5931 11.2345L26.2897 18.5379L25.4897 18.0552L32.9034 10.6414C33.1724 10.374 33.6069 10.374 33.8759 10.6414L34.3103 11.0759Z" fill="#A5A5A4"/>
</svg>
